<?xml version="1.0" encoding="utf-8"?>
<!-- Generator: Adobe Illustrator 21.0.2, SVG Export Plug-In . SVG Version: 6.00 Build 0)  -->
<svg version="1.1" id="_x36_9cc0084-cfbe-43b1-9105-a25fdb780d6f"
	 xmlns="http://www.w3.org/2000/svg" xmlns:xlink="http://www.w3.org/1999/xlink" x="0px" y="0px" viewBox="0 0 647.8 702.4"
	 enable-background="new 0 0 647.8 702.4" xml:space="preserve">
<title>Edge</title>
<g id="_x38_65664c3-9fef-4190-9f76-2885d6e2a273">
	<path fill="#3B89C5" d="M298.8,0h61.1c2.2,0.8,4.4,2,6.6,2.3c93.9,12.6,169.7,55.4,223,134.7c34.5,51.4,51,108.9,53.6,170.3
		c1.3,32.2,0.2,64.5,0.2,98.3H207c-0.1,30.4,7.3,56.8,24.4,80.2c26.8,36.6,64.8,54.4,107.9,61.4c81.6,13.3,159-0.8,231.7-40
		c4.2-2.3,8.4-4.4,14.4-7.5c0,6.1,0,9.7,0,13.3c0,40.7-0.3,81.4,0.2,122.1c0.1,9.4-3,14.3-11.4,18.2
		c-80.1,37.2-163.8,51.2-251.5,40.6C186,677.4,84.7,566.4,82.2,428.9c-1.7-95.5,36.9-171.8,114.7-227.4c15.4-11,32.8-19.1,49.3-28.6
		l2,2.6c-24.8,30.9-39.8,65.6-44,105.5h247.8c-1-11.5-1.6-22.3-2.8-33c-6.3-59.7-40.6-98.3-98.7-110.8c-36.3-7.8-72.6-4.9-108,3.8
		c-101.6,25-182.4,80.4-239.9,168.6c-0.2-1.8-0.8-3.7-0.4-5.4c6.5-28.2,10.2-57.5,20.3-84.4C67.7,98.6,153.2,24.5,282.5,3.8
		C287.9,2.9,293.4,1.3,298.8,0z"/>
</g>
</svg>
