<?xml version="1.0" encoding="utf-8"?>
<!-- Generator: Adobe Illustrator 17.1.0, SVG Export Plug-In . SVG Version: 6.00 Build 0)  -->
<!DOCTYPE svg PUBLIC "-//W3C//DTD SVG 1.1//EN" "http://www.w3.org/Graphics/SVG/1.1/DTD/svg11.dtd">
<svg version="1.1" id="Layer_1" xmlns="http://www.w3.org/2000/svg" xmlns:xlink="http://www.w3.org/1999/xlink" x="0px" y="0px"
	 viewBox="0 0 512 512" enable-background="new 0 0 512 512" xml:space="preserve">
<path d="M480,0H32C14.3,0,0,14.3,0,32v448c0,17.7,14.3,32,32,32h53h171V288h-64v-64h64v-48c0-44.2,35.8-80,80-80h80v64h-80
	c-8.8,0-16,7.2-16,16v48h88l-16,64h-72v224h107h53c17.7,0,32-14.3,32-32V32C512,14.3,497.7,0,480,0z"/>
</svg>
