<?xml version="1.0" encoding="utf-8"?>
<!-- Generator: Adobe Illustrator 21.0.2, SVG Export Plug-In . SVG Version: 6.00 Build 0)  -->
<svg version="1.1" id="e074e0e0-3492-4a87-9681-39deb4a6d4db"
	 xmlns="http://www.w3.org/2000/svg" xmlns:xlink="http://www.w3.org/1999/xlink" x="0px" y="0px" viewBox="0 0 649.4 701.2"
	 enable-background="new 0 0 649.4 701.2" xml:space="preserve">
<title>IE</title>
<g id="_x35_4537036-e2fd-42b6-8332-59b3982277af">
	<path fill="#3D89BD" d="M117.6,701.2H83.4c-1.6-0.6-3.3-1.1-5-1.5c-40.8-6.7-66.2-30.5-74-69.9c-4.4-22.5-2.9-44.9,1.7-67.2
		c9.8-47.3,29-90.9,52.2-132.9c59.4-107.9,137.5-200.7,229.1-282.5c2.1-1.9,4.2-3.8,6.2-5.7l-1.4-1.5
		c-115.3,43-198.8,121.5-255,230.6c-0.5-1.7-0.7-3.4-0.6-5.2c1.9-36.1,10.5-70.5,24.7-103.7C112.1,143.2,238.3,67.4,365.8,78.6
		c4,0.2,7.9-0.8,11.2-2.9c31-21,63.1-39.9,97.7-54.4c27.4-11.5,55.5-20.7,85.8-20.1C599.2,2,626,23.2,635.7,60.5
		c5.1,19.7,5,39.7,3.3,59.7c-0.9,10.2-2.4,20.4-3.6,30.6l-2.3-0.1c0-4.3,0-8.7,0-13c-0.4-26.2-3.5-51.9-15.4-75.6
		c-12.2-24.3-32-33.9-58.8-28.6c-43.9,8.7-78,35.7-114.1,61.5l7.2,3C560.7,143.6,625.6,224,645.5,340.3c1.5,9.1,2.6,18.2,3.9,27.3
		v35.5c-3.1,0.5-6.2,0.8-9.4,1c-127.1,0-254.2-0.1-381.3-0.2h-10.2c0,11-0.2,21.2,0,31.3c0.9,45.1,33.9,83.5,78,90.7
		c44.9,7.4,88.6-17.7,104-60.2c1.9-5.2,4-6.8,9.5-6.8c63.8,0.2,127.6,0.1,191.3,0.1h7.8c-0.7,3-1.1,5-1.6,7
		C592,637.4,404,733.9,236.5,671.9c-4.6-1.7-8.3-1.5-13,0c-22.4,7.5-44.8,15-67.5,21.5C143.5,697,130.4,698.7,117.6,701.2z
		 M436.5,332.5c-2.5-34.6-17.3-61.1-46.5-78.1c-32.8-19-66.3-18.3-98.3,2c-27.4,17.3-41.4,43.1-43.3,76.1H436.5z M75.6,535.4
		c-12.1,25.8-23.3,50.9-24.9,79c-1.7,29.7,10.7,46,39.4,53.7c2.6,0.7,5.3,1.3,8,1.7c27.9,4.9,55.8,2.8,83.7-0.7
		c10.6-1.3,21.2-3.3,31.8-5C154.8,634.6,108.9,592.5,75.6,535.4z M295,140c-0.1-0.1-0.3-0.4-0.4-0.4s-0.3,0.2-0.5,0.4
		c0.1,0.1,0.3,0.4,0.4,0.4S294.8,140.2,295,140z"/>
	<path fill="#FDFEFE" d="M295,140c-0.2,0.1-0.3,0.4-0.5,0.4s-0.3-0.3-0.4-0.4c0.2-0.1,0.3-0.4,0.5-0.4S294.9,139.9,295,140z"/>
</g>
</svg>
