<?xml version="1.0" encoding="utf-8"?>
<!-- Generator: Adobe Illustrator 19.1.0, SVG Export Plug-In . SVG Version: 6.00 Build 0)  -->
<svg version="1.1" id="Layer_1" xmlns="http://www.w3.org/2000/svg" xmlns:xlink="http://www.w3.org/1999/xlink" x="0px" y="0px"
	 viewBox="-435 1 512 512" style="enable-background:new -435 1 512 512;" xml:space="preserve">
<style type="text/css">
	.st0{fill:url(#SVGID_1_);}
</style>
<linearGradient id="SVGID_1_" gradientUnits="userSpaceOnUse" x1="-435" y1="257" x2="77" y2="257">
	<stop  offset="0" style="stop-color:#00ADED"/>
	<stop  offset="1" style="stop-color:#019ED9"/>
</linearGradient>
<path class="st0" d="M-66.2,365c-10,14.5-24.8,25.8-44.1,33.9c-19.3,8.1-42.2,12.2-68.6,12.2c-31.6,0-57.8-5.5-78.5-16.7
	c-14.6-8-26.6-18.7-35.7-32.1c-9.2-13.4-13.8-26.5-13.8-39.3c0-7.6,2.9-14.1,8.5-19.5c5.7-5.4,13-8.1,21.5-8.1
	c7.1,0,13.1,2.1,18,6.3c4.9,4.2,9,10.3,12.3,18.4c4,9.3,8.4,17.2,13,23.4c4.6,6.1,11.1,11.3,19.5,15.4c8.3,4,19.4,6,33.3,6
	c19,0,34.3-4.1,46.1-12.2c11.8-8.1,17.5-18.1,17.5-30.1c0-9.6-3.1-17.2-9.3-23.2c-6.3-6-14.5-10.6-24.6-13.8
	c-10.2-3.2-23.8-6.7-40.9-10.2c-23-5.1-42.2-10.9-57.8-17.6c-15.6-6.7-28-15.9-37.2-27.5c-9.2-11.8-13.8-26.3-13.8-43.6
	c0-16.5,4.8-31.2,14.6-44c9.7-12.9,23.8-22.7,42.1-29.5c18.3-6.9,39.7-10.3,64.4-10.3c19.7,0,36.7,2.3,51.1,6.8
	c14.4,4.6,26.4,10.6,35.9,18.1c9.5,7.5,16.5,15.5,21,23.8c4.4,8.4,6.7,16.6,6.7,24.5c0,7.5-2.9,14.2-8.5,20.1s-12.8,8.9-21.1,8.9
	c-7.5,0-13.5-1.7-17.6-5.4c-4-3.6-8.2-9.3-12.7-17.2c-5.7-11-12.6-19.6-20.6-25.8c-7.8-6-20.6-9.2-38.5-9.2
	c-16.5,0-29.8,3.4-39.8,10c-10.1,6.7-14.9,14.5-14.9,23.6c0,5.7,1.7,10.6,5,14.7c3.4,4.2,8,7.8,14,10.8c6,3.1,12.1,5.5,18.3,7.2
	c6.2,1.8,16.5,4.3,30.9,7.7c18,3.9,34.3,8.2,49,12.9c14.6,4.8,27.1,10.5,37.4,17.3c10.4,6.8,18.5,15.5,24.3,25.9
	c5.8,10.5,8.7,23.3,8.7,38.3C-51.1,334.3-56.2,350.6-66.2,365z M55.6,294.1c1.9-12.1,2.9-24.5,2.9-37.1
	C58.5,125.8-47.8,19.5-179,19.5c-12.6,0-25,1-37.1,2.9C-238,8.9-263.8,1-291.4,1C-370.7,1-435,65.3-435,144.6
	c0,27.6,7.8,53.5,21.4,75.4c-1.9,12.1-2.9,24.4-2.9,37c0,131.2,106.3,237.5,237.5,237.5c12.6,0,25-1,37.1-2.8
	C-120,505.1-94.2,513-66.6,513C12.7,513,77,448.8,77,369.5C77,341.8,69.2,316,55.6,294.1z"/>
</svg>
