<?xml version="1.0" encoding="utf-8"?>
<!-- Generator: Adobe Illustrator 21.0.2, SVG Export Plug-In . SVG Version: 6.00 Build 0)  -->
<svg version="1.1" id="Layer_1" xmlns="http://www.w3.org/2000/svg" xmlns:xlink="http://www.w3.org/1999/xlink" x="0px" y="0px"
	 viewBox="0 0 34 34" style="enable-background:new 0 0 34 34;" xml:space="preserve">
<path d="M16.9,0.6C7.8,0.6,0.3,8,0.3,17.1s7.4,16.5,16.5,16.5s16.5-7.4,16.5-16.5S26,0.6,16.9,0.6z M16.9,32.2c-8.3,0-15-6.7-15-15
	c0-8.3,6.7-15,15-15s15,6.7,15,15C31.9,25.4,25.2,32.2,16.9,32.2z"/>
<path d="M20,20.3c0,1.6-1.2,3-2.8,3.4v0.4c0,0.5-0.4,0.9-0.9,0.9c-0.5,0-0.9-0.4-0.9-0.9v-0.4c-1.6-0.4-2.8-1.8-2.8-3.4
	c0-0.5,0.4-0.9,0.9-0.9s0.9,0.4,0.9,0.9c0,0.9,0.9,1.7,1.9,1.7c1.1,0,2-0.8,2-1.7s-0.9-1.7-2-1.7c-2,0-3.7-1.6-3.7-3.5
	c0-1.6,1.2-3,2.8-3.4v-0.5c0-0.5,0.4-0.9,0.9-0.9c0.5,0,0.9,0.4,0.9,0.9v0.5c1.6,0.4,2.8,1.8,2.8,3.4c0,0.5-0.4,0.9-0.9,0.9
	s-0.9-0.4-0.9-0.9c0-0.9-0.9-1.7-2-1.7c-1.1,0-1.9,0.8-1.9,1.7s0.9,1.7,1.9,1.7C18.3,16.8,20,18.4,20,20.3z"/>
<path d="M26.3,14c0,0.2-0.1,0.4-0.3,0.5c-0.1,0-0.2,0.1-0.3,0.1c-0.3,0-0.6-0.3-0.6-0.6c-0.1-1-0.4-2.1-0.9-3
	c-1.3-2.2-3.6-3.5-6-3.4c-0.3,0-0.6-0.2-0.6-0.6c0-0.3,0.2-0.6,0.5-0.6c1.4-0.1,2.7,0.3,4,1c1.3,0.7,2.3,1.8,3.1,3
	C25.9,11.5,26.3,12.7,26.3,14z"/>
</svg>
