<?xml version="1.0" encoding="utf-8"?>
<!-- Generator: Adobe Illustrator 21.0.2, SVG Export Plug-In . SVG Version: 6.00 Build 0)  -->
<svg version="1.1" id="Layer_1" xmlns="http://www.w3.org/2000/svg" xmlns:xlink="http://www.w3.org/1999/xlink" x="0px" y="0px"
	 viewBox="0 0 36 30" style="enable-background:new 0 0 36 30;" xml:space="preserve">
<path d="M34.9,4.2C34.7,4,34.4,3.9,34.1,4c-0.3,0.2-0.8,0.2-1.1,0.3c0.5-0.7,0.9-1.4,1.2-2.2c0.1-0.3,0-0.6-0.2-0.8
	c-0.2-0.2-0.5-0.2-0.8,0c-1.2,0.7-2.5,1.2-3.8,1.5c-1.3-1.3-3.1-2.1-5-2.1c-4.1,0-7.4,3.4-7.4,7.5c0,0.2,0.1,0.5,0.1,0.7
	C11.9,8.5,7.4,6,4.4,2.3C4.3,2.1,4,2,3.8,2C3.6,2,3.4,2.2,3.3,2.4c-0.6,1.1-1,2.4-1,3.8c0,1.7,0.6,3.2,1.5,4.5
	c-0.2-0.1-0.4-0.1-0.5-0.2c-0.2-0.1-0.5-0.1-0.7,0c-0.2,0.1-0.3,0.3-0.3,0.6v0.1c0,2.5,1.3,4.8,3.2,6.1c0,0,0,0-0.1,0
	c-0.2,0-0.5,0-0.6,0.2c-0.2,0.2-0.2,0.4-0.1,0.7c0.8,2.4,2.7,4.2,5.1,4.9c-1.9,1.2-4.1,1.8-6.6,1.8c-0.5,0-1,0-1.5-0.1
	c-0.3-0.1-0.6,0.1-0.7,0.4c-0.1,0.3,0,0.7,0.3,0.8c3.1,2,6.7,3.2,10.7,3.2c6.4,0,11.4-2.7,14.7-6.6c3.3-3.9,5.1-8.9,5.1-13.6
	c0-0.2,0-0.4,0-0.6C33,7.5,34.1,6.4,35,5C35.1,4.8,35.1,4.5,34.9,4.2z M30.6,7.6c-0.2,0.1-0.3,0.4-0.3,0.6c0,0.3,0,0.6,0,0.8
	c0,4.3-1.6,9-4.8,12.6c-3.1,3.6-7.7,6.1-13.7,6.1c-2.7,0-5.3-0.6-7.6-1.7c2.9-0.2,5.5-1.3,7.7-3c0.2-0.2,0.3-0.5,0.2-0.8
	c-0.1-0.3-0.3-0.5-0.6-0.5c-2.3,0-4.1-1.4-5.2-3.3h0.1c0.7,0,1.3-0.1,2-0.3C8.8,18.3,9,18.1,9,17.7c0-0.3-0.2-0.6-0.5-0.6
	c-2.4-0.5-4.3-2.5-4.7-5c0.7,0.2,1.4,0.4,2.2,0.5c0.3,0,0.6-0.2,0.7-0.5c0.1-0.3,0-0.6-0.3-0.8c-1.6-1.1-2.7-3-2.7-5.1
	c0-0.8,0.2-1.5,0.5-2.2c3.4,3.8,8.2,6.3,13.6,6.6c0.2,0,0.4-0.1,0.6-0.2c0.1-0.2,0.2-0.4,0.1-0.6c-0.1-0.5-0.2-0.9-0.2-1.4
	c0-3.4,2.7-6.1,6-6.1c1.7,0,3.3,0.8,4.4,2c0.2,0.2,0.4,0.2,0.6,0.2c0.9-0.2,1.7-0.4,2.6-0.8c-0.5,0.6-1.1,1.2-1.8,1.6
	c-0.3,0.2-0.5,0.5-0.3,0.9c0.1,0.3,0.5,0.5,0.8,0.5c0.7-0.1,1.3-0.4,1.9-0.5C32,6.5,31.3,7.1,30.6,7.6z"/>
</svg>
