<?xml version="1.0" encoding="utf-8"?>
<!-- Generator: Adobe Illustrator 21.0.2, SVG Export Plug-In . SVG Version: 6.00 Build 0)  -->
<svg version="1.1" id="Layer_1" xmlns="http://www.w3.org/2000/svg" xmlns:xlink="http://www.w3.org/1999/xlink" x="0px" y="0px"
	 viewBox="0 0 35 35" enable-background="new 0 0 35 35" xml:space="preserve">
<g>
	<path d="M17.5,0.8C8.3,0.8,0.8,8.3,0.8,17.5s7.5,16.8,16.8,16.8s16.8-7.5,16.8-16.8S26.7,0.8,17.5,0.8z M16.7,2.5v6.4
		c-1.8,0-3.7-0.2-5.5-0.6C12.6,5,14.5,2.9,16.7,2.5z M11.2,26.7c1.8-0.3,3.6-0.5,5.5-0.6v6.4C14.5,32.1,12.6,30,11.2,26.7z
		 M16.7,18.3v6.2c-2,0-4,0.3-6,0.7c-0.7-2.2-1-4.5-1.1-6.9C9.6,18.3,16.7,18.3,16.7,18.3z M9.6,16.7c0.1-2.3,0.4-4.6,1.1-6.9
		c2,0.4,4,0.6,6,0.6v6.2L9.6,16.7L9.6,16.7z M9.7,27c0.6,1.8,1.6,3.4,2.9,4.8C10.3,31,8.3,29.7,6.7,28C7.6,27.6,8.6,27.3,9.7,27z
		 M12.5,3.2c-1.3,1.4-2.2,3-2.9,4.8c-1-0.3-2-0.6-3-1C8.3,5.3,10.3,4,12.5,3.2z M5.5,8.3c1.2,0.5,2.4,0.9,3.6,1.2
		C8.4,11.8,8,14.3,8,16.7H2.4C2.6,13.7,3.7,10.7,5.5,8.3z M5.5,26.8c-1.9-2.4-3-5.4-3.1-8.4H8c0.1,2.4,0.4,4.8,1.2,7.1
		C7.9,25.8,6.7,26.2,5.5,26.8z M29.5,8.2c1.9,2.4,3,5.4,3.1,8.4H27c-0.1-2.4-0.4-4.8-1.2-7.1C27.1,9.2,28.3,8.8,29.5,8.2z M28.3,7
		c-1,0.4-2,0.7-3,1c-0.6-1.8-1.6-3.4-2.9-4.7C24.7,4,26.7,5.3,28.3,7z M18.3,2.5c2.2,0.4,4.1,2.5,5.5,5.8c-1.8,0.3-3.6,0.5-5.5,0.6
		V2.5z M18.3,10.5c2,0,4-0.3,6-0.7c0.7,2.2,1,4.5,1.1,6.9h-7.1V10.5z M18.3,18.3h7.1c-0.1,2.3-0.4,4.6-1.1,6.8c-2-0.4-4-0.6-6-0.7
		V18.3z M18.3,32.5v-6.4c1.8,0,3.7,0.2,5.5,0.6C22.4,30,20.5,32.1,18.3,32.5z M22.5,31.8c1.3-1.4,2.3-3,2.9-4.8c1,0.3,2.1,0.6,3,1
		C26.7,29.7,24.7,31,22.5,31.8z M29.5,26.7c-1.2-0.5-2.4-0.9-3.6-1.2c0.7-2.3,1.1-4.8,1.2-7.2h5.6C32.4,21.3,31.3,24.3,29.5,26.7z"
		/>
</g>
</svg>
