<?xml version="1.0" encoding="utf-8"?>
<!-- Generator: Adobe Illustrator 21.0.2, SVG Export Plug-In . SVG Version: 6.00 Build 0)  -->
<svg version="1.1" id="Layer_1" xmlns="http://www.w3.org/2000/svg" xmlns:xlink="http://www.w3.org/1999/xlink" x="0px" y="0px"
	 viewBox="0 0 1000 1000" enable-background="new 0 0 1000 1000" xml:space="preserve">
<g>
	<g>
		<path fill="#FFFFFF" d="M973,503c0,63.2-12.4,124.5-36.8,182.2c-23.6,55.7-57.3,105.8-100.3,148.8c-43,43-93,76.7-148.8,100.3
			C629.5,958.6,568.2,971,505,971s-124.5-12.4-182.2-36.8c-55.7-23.6-105.8-57.3-148.8-100.3c-43-43-76.7-93-100.3-148.8
			C49.4,627.5,37,566.2,37,503s12.4-124.5,36.8-182.2c23.6-55.7,57.3-105.8,100.3-148.8c43-43,93-76.7,148.8-100.3
			C380.5,47.4,441.8,35,505,35s124.5,12.4,182.2,36.8c55.7,23.6,105.8,57.3,148.8,100.3c43,43,76.7,93,100.3,148.8
			C960.6,378.5,973,439.8,973,503z"/>
		<path fill="#BFBFBF" d="M945.4,316.9C921.4,260,886.9,208.9,843,165c-43.9-43.9-95-78.4-151.9-102.4C632.1,37.6,569.5,25,505,25
			S377.9,37.6,318.9,62.6C262,86.6,210.9,121.1,167,165c-43.9,43.9-78.4,95-102.4,151.9C39.6,375.9,27,438.5,27,503
			s12.6,127.1,37.6,186.1C88.6,746,123.1,797.1,167,841c43.9,43.9,95,78.4,151.9,102.4C377.9,968.4,440.5,981,505,981
			s127.1-12.6,186.1-37.6C748,919.4,799.1,884.9,843,841c43.9-43.9,78.4-95,102.4-151.9C970.4,630.1,983,567.5,983,503
			S970.4,375.9,945.4,316.9z M687.2,934.2C629.5,958.6,568.2,971,505,971s-124.5-12.4-182.2-36.8c-55.7-23.6-105.8-57.3-148.8-100.3
			c-43-43-76.7-93-100.3-148.8C49.4,627.5,37,566.2,37,503s12.4-124.5,36.8-182.2c23.6-55.7,57.3-105.8,100.3-148.8
			c43-43,93-76.7,148.8-100.3C380.5,47.4,441.8,35,505,35s124.5,12.4,182.2,36.8c55.7,23.6,105.8,57.3,148.8,100.3
			c43,43,76.7,93,100.3,148.8c24.4,57.7,36.8,119,36.8,182.2s-12.4,124.5-36.8,182.2c-23.6,55.7-57.3,105.8-100.3,148.8
			C792.9,876.9,742.9,910.6,687.2,934.2z"/>
	</g>
	<g>
		<g>
			<g>
				<g>
					<rect x="368.5" y="395.5" fill="#737373" width="226" height="17"/>
				</g>
			</g>
			<g>
				<g>
					<rect x="369" y="447" fill="#737373" width="226" height="17"/>
				</g>
			</g>
			<g>
				<g>
					<rect x="369" y="493" fill="#737373" width="173" height="17"/>
				</g>
			</g>
			<g>
				<g>
					<rect x="369" y="539" fill="#737373" width="105" height="17"/>
				</g>
			</g>
			<g>
				<g>
					<rect x="369" y="585" fill="#737373" width="77" height="17"/>
				</g>
			</g>
			<g>
				<g>
					<path fill="#737373" d="M634.5,357.1l-82.1-85.9l-3.6-3.8H322.5v435h186.7c-2.9-4.8-5.5-9.8-7.7-15H337.5v-405H537V373h86.5
						v137.1c5.1,0.2,10.1,0.7,15,1.5V361.3L634.5,357.1z"/>
				</g>
			</g>
		</g>
		<g>
			<g>
				<g>
					<path fill="#64A9D8" d="M638.5,511.6c-4.9-0.8-9.9-1.3-15-1.5c-1.8-0.1-3.7-0.1-5.5-0.1c-70.1,0-127,56.9-127,127
						c0,18,3.7,35,10.4,50.5c2.2,5.2,4.8,10.2,7.7,15C531.4,739.4,571.8,764,618,764c70.1,0,127-56.9,127-127
						C745,573.8,698.9,521.5,638.5,511.6z M694.4,713.4C674,733.8,646.8,745,618,745s-56-11.2-76.4-31.6c-3.4-3.4-6.6-7.1-9.5-10.9
						c-3.6-4.8-6.9-9.8-9.6-15c-8.1-15.4-12.5-32.6-12.5-50.5c0-28.9,11.2-56,31.6-76.4C562,540.2,589.2,529,618,529
						c1.8,0,3.7,0,5.5,0.1c5.1,0.2,10.1,0.8,15,1.8c21,4,40.4,14.2,55.9,29.7C714.8,581,726,608.1,726,637
						C726,665.8,714.8,693,694.4,713.4z"/>
				</g>
			</g>
			<g>
				<g>
					<path fill="#64A9D8" d="M685.7,607.7l-47.2,47.2l-37.7,37.7l-5.1-5.1L552,643.7c-3.7-3.7-3.7-9.7,0-13.4
						c3.7-3.7,9.7-3.7,13.4,0l35.5,35.5l71.5-71.5c3.7-3.7,9.7-3.7,13.4,0C689.4,598,689.4,604,685.7,607.7z"/>
				</g>
			</g>
		</g>
	</g>
</g>
</svg>
