<?xml version="1.0" encoding="utf-8"?>
<!-- Generator: Adobe Illustrator 21.0.2, SVG Export Plug-In . SVG Version: 6.00 Build 0)  -->
<svg version="1.1" id="Layer_1" xmlns="http://www.w3.org/2000/svg" xmlns:xlink="http://www.w3.org/1999/xlink" x="0px" y="0px"
	 viewBox="0 0 1000 1000" enable-background="new 0 0 1000 1000" xml:space="preserve">
<g>
	<path d="M499,18C232.8,18,17,233.8,17,500s215.8,482,482,482s482-215.8,482-482S765.2,18,499,18z M462.5,264.6
		c11-10.6,24.1-15.9,39.3-15.9c15.2,0,28.2,5.4,39,16.2c10.8,10.8,16.2,23.8,16.2,39c0,15.2-5.3,28.3-15.9,39.3
		c-10.6,11.1-23.7,16.6-39.3,16.6c-7.8,0-15.1-1.5-21.8-4.5c-6.7-3-12.6-7-17.5-12c-5-5-9-10.8-12-17.5c-3-6.7-4.5-14-4.5-21.8
		C446,288.3,451.5,275.2,462.5,264.6z M605.8,744H404.3v-37c37.3,0,55.9-9.8,55.9-29.2V480.1c0-19.9-18.6-29.9-55.9-29.9v-37.1h145
		v264.6c-0.9,19.5,18,29.2,56.5,29.2V744z"/>
</g>
</svg>
