<?xml version="1.0" encoding="utf-8"?>
<!-- Generator: Adobe Illustrator 19.2.0, SVG Export Plug-In . SVG Version: 6.00 Build 0)  -->
<svg version="1.1" id="Layer_2_2_" xmlns="http://www.w3.org/2000/svg" xmlns:xlink="http://www.w3.org/1999/xlink" x="0px" y="0px"
	 viewBox="0 0 512 512" style="enable-background:new 0 0 512 512;" xml:space="preserve">
<path d="M256,0C114.6,0,0,114.6,0,256s114.6,256,256,256s256-114.6,256-256S397.4,0,256,0z M161.8,357.3c0,2.2-1.8,4-4,4H132
	c-2.2,0-4-1.8-4-4V235.4c0-2.2,1.8-4,4-4h25.8c2.2,0,4,1.8,4,4V357.3z M368.7,266.8c4.4,11,3.5,23-6.5,34c-1.8,2-2.6,4.8-1.9,7.4
	c3.1,12.5,2.7,21.8-8.5,33c-1.7,1.7-2.7,4.2-2.3,6.6c2,14.6-20.7,27.9-48.4,25c-38.3-4-53.5-23.2-114.6-24.7c-4.3-0.1-7.8-3.6-7.8-8
	v-91.6c0-3.9,2.8-7.2,6.7-7.8c61.9-10.2,75.3-55.9,87.2-91.5c4.8-14.1,10.5-34.5,28.5-29.7c19.7,5.3,18.2,50.8,7.1,84.2
	c-1.2,3.5,0.3,7.4,3.5,9.3c13.7,8,29.1,15.2,59.1,12.9c4.1-0.3,7.8,2.6,8.4,6.7c1.5,8.8,1.4,14.5-8.7,25.7
	C368.2,260.4,367.5,263.8,368.7,266.8z"/>
</svg>
