<svg id="Layer_1" xmlns="http://www.w3.org/2000/svg" viewBox="0 0 512 512">
  <path d="M505.3 408.1L297.8 54.7c-4.2-7.1-10.1-13.1-17.3-17.3-23.1-13.5-52.8-5.8-66.3 17.3L6.7 408.1C2.3 415.6 0 424 0 432.7c0 26.7 21.7 48.5 48.5 48.5h415.1c8.6 0 17.1-2.3 24.5-6.7 23-13.6 30.8-43.3 17.2-66.4zm-27 49.7c-4.5 2.6-9.6 4-14.7 4H48.5c-16 0-29.1-13-29.1-29.1 0-5.2 1.4-10.3 4-14.7L230.9 64.5c3.9-6.7 10.2-11.5 17.8-13.4 2.4-.6 4.9-.9 7.4-.9 5.1 0 10.2 1.4 14.7 4 4.3 2.5 7.8 6.1 10.4 10.4L488.6 418c8.1 13.8 3.5 31.6-10.3 39.8z"/>
  <path d="M254.8 352.5c8 0 14.5-6.5 14.5-14.5V198c0-8-6.5-14.5-14.5-14.5s-14.5 6.5-14.5 14.5v140c-.1 8 6.4 14.5 14.5 14.5z"/>
  <circle cx="254.8" cy="391.2" r="16.6"/>
</svg>
