<?xml version="1.0" encoding="utf-8"?>
<!-- Generator: Adobe Illustrator 19.2.0, SVG Export Plug-In . SVG Version: 6.00 Build 0)  -->
<svg version="1.1" id="Layer_1" xmlns="http://www.w3.org/2000/svg" xmlns:xlink="http://www.w3.org/1999/xlink" x="0px" y="0px"
	 viewBox="0 0 512 512" style="enable-background:new 0 0 512 512;" xml:space="preserve">
<path d="M541.8,454.5"/>
<path d="M373.9,512H138.1c-7.2,0-13.9-3.9-17.5-10.1L2.7,297.7c-3.6-6.2-3.6-14,0-20.2L120.6,73.3c3.6-6.2,10.3-10.1,17.5-10.1
	h235.8c7.2,0,13.9,3.9,17.5,10.1l117.9,204.2c3.6,6.2,3.6,14,0,20.2L391.4,501.9C387.8,508.2,381.1,512,373.9,512z M149.8,471.6
	h212.5l106.3-184l-106.4-184H149.8l-106.3,184L149.8,471.6z"/>
<path d="M256.2,372.9c-11.2,0-20.2-9-20.2-20.2V158.3c0-11.2,9-20.2,20.2-20.2c11.2,0,20.2,9,20.2,20.2v194.4
	C276.4,363.9,267.4,372.9,256.2,372.9z"/>
<circle cx="256.2" cy="414.9" r="20.5"/>
</svg>
