<?xml version="1.0" encoding="utf-8"?>
<!-- Generator: Adobe Illustrator 19.2.0, SVG Export Plug-In . SVG Version: 6.00 Build 0)  -->
<svg version="1.1" id="Layer_1" xmlns="http://www.w3.org/2000/svg" xmlns:xlink="http://www.w3.org/1999/xlink" x="0px" y="0px"
	 viewBox="0 0 512 512" style="enable-background:new 0 0 512 512;" xml:space="preserve">
<g id="Layer_2_2_">
	<path d="M508.2,461.2c-14-28.3-215-420.6-227.5-444.5c-11.3-21.4-38.1-22.7-49.3-0.9C214.3,49.1,14.3,441.2,4.4,460.6
		C-8,485,7.7,512.5,28.9,512.5c16.3,0,431.3,0,455,0C507.1,512.5,518.5,481.9,508.2,461.2z M256.5,445.2
		c-16.5,0-29.8-14.9-29.8-33.2c0-18.3,13.3-33.2,29.8-33.2c16.5,0,29.8,14.9,29.8,33.2C286.3,430.4,272.9,445.2,256.5,445.2z
		 M295.9,173.3c-2.5,22.4-21.1,132.2-27.2,168c-1.1,6.6-6.3,12.2-12.4,12.2h-0.2c-6.3,0-11.6-5.7-12.8-12.6
		c-6.2-36.4-24.7-145.8-27.2-167.9c-3-26.5,15.6-50.2,39.6-50.2C280.1,122.8,298.9,146.4,295.9,173.3z"/>
</g>
</svg>
