<?xml version="1.0" encoding="utf-8"?>
<!-- Generator: Adobe Illustrator 22.0.1, SVG Export Plug-In . SVG Version: 6.00 Build 0)  -->
<svg version="1.1" id="Layer_1" xmlns="http://www.w3.org/2000/svg" xmlns:xlink="http://www.w3.org/1999/xlink" x="0px" y="0px"
	 viewBox="0 0 1000 1000" enable-background="new 0 0 1000 1000" xml:space="preserve">
<g>
	<g>
		<path d="M875.9,155.6c-18.7-18.7-43.5-29-70-29h-18.7v-18.7c0-54.5-44.3-98.8-98.8-98.8h-501C133,9,88.6,53.4,88.6,107.8v666.7
			c0,54.5,44.3,98.8,98.8,98.8h18.7V892c0,54.5,44.3,98.8,98.8,98.8h501c54.5,0,98.8-44.3,98.8-98.8V225.5
			C904.8,199.1,894.6,174.3,875.9,155.6z M187.5,68.5h501c21.7,0,39.4,17.7,39.4,39.4v18.7H305c-54.5,0-98.8,44.4-98.8,98.9V814
			h-18.7c-21.7,0-39.4-17.7-39.4-39.4V107.8C148.1,86.1,165.7,68.5,187.5,68.5z M806,931.5H305c-21.7,0-39.4-17.7-39.4-39.4V225.5
			c0-21.7,17.7-39.4,39.4-39.4h501c21.7,0,39.4,17.7,39.4,39.4v666.7C845.3,913.9,827.7,931.5,806,931.5z"/>
	</g>
</g>
</svg>
