<?xml version="1.0" encoding="utf-8"?>
<!-- Generator: Adobe Illustrator 19.2.0, SVG Export Plug-In . SVG Version: 6.00 Build 0)  -->
<svg version="1.1" id="Layer_1" xmlns="http://www.w3.org/2000/svg" xmlns:xlink="http://www.w3.org/1999/xlink" x="0px" y="0px"
	 viewBox="0 0 512 512" style="enable-background:new 0 0 512 512;" xml:space="preserve">
<style type="text/css">
	.st0{display:none;}
</style>
<path d="M448.5,364.5v72c0,6.6-5.4,12-12,12h-360c-6.6,0-12-5.4-12-12v-72c0-6.6-5.4-12-12-12h-40c-6.6,0-12,5.4-12,12v136
	c0,6.6,5.4,12,12,12h488c6.6,0,12-5.4,12-12v-136c0-6.6-5.4-12-12-12h-40C453.9,352.5,448.5,357.9,448.5,364.5z"/>
<polygon class="st0" points="166,262 256.5,352.5 347,262 324.4,239.4 272.5,291.3 272.5,0.5 240.5,0.5 240.5,291.3 188.6,239.4 "/>
<path d="M383.8,208.3L355.5,180c-4.7-4.7-12.3-4.7-17,0l-50,50V12.5c0-6.6-5.4-12-12-12h-40c-6.6,0-12,5.4-12,12V230l-50-50
	c-4.7-4.7-12.3-4.7-17,0l-28.3,28.3c-4.7,4.7-4.7,12.3,0,17l127.3,127.3l0,0l0,0l127.3-127.3C388.5,220.5,388.5,212.9,383.8,208.3z"
	/>
</svg>
