<?xml version="1.0" encoding="utf-8"?>
<!-- Generator: Adobe Illustrator 21.0.2, SVG Export Plug-In . SVG Version: 6.00 Build 0)  -->
<svg version="1.1" id="Layer_1" xmlns="http://www.w3.org/2000/svg" xmlns:xlink="http://www.w3.org/1999/xlink" x="0px" y="0px"
	 viewBox="0 0 274 306" enable-background="new 0 0 274 306" xml:space="preserve">
<g>
	<g>
		<path fill="#EDF0F2" d="M255.7,155.7c0,3.4-1.1,6.6-2.8,8.8c-1.7,2.3-4.2,3.7-6.8,3.7h-14.5c3.6,3.2,6,8.5,6,14.6
			c0,4.8-1.5,9.2-4,12.4s-5.8,5.1-9.6,5.1h-9.9c1.6,2.9,2.5,6.4,2.5,10.2c0,4.8-1.5,9.2-4,12.4s-5.8,5.1-9.5,5.1h-110
			c-4.8,0-9-3.3-11.4-8.2H40.9c-7.4,0-13.5-7.9-13.5-17.5v-8.7c0-9.6,6.1-17.5,13.5-17.5h16.6c-1.6-2.9-2.5-6.4-2.5-10.1
			c0-4.8,1.5-9.2,4-12.4c1.7-2.3,4-3.9,6.4-4.7H49.8c-5.3,0-9.6-5.6-9.6-12.5c0-3.4,1.1-6.6,2.8-8.8c1.8-2.3,4.2-3.7,6.8-3.7h16.8
			c-1-2-1.6-4.3-1.6-6.8v-6.9c0-1.2,0.1-2.4,0.4-3.6h-5.8c-5.3,0-9.6-5.6-9.6-12.5v-6.9c0-6.9,4.3-12.5,9.6-12.5h137.1
			c5.3,0,9.6,5.6,9.6,12.5v6.9c0,1.2-0.1,2.4-0.4,3.6h5.8c5.3,0,9.6,5.6,9.6,12.5v6.9c0,6.9-4.3,12.5-9.6,12.5h-8.5
			c2,2.3,3.4,5.7,3.4,9.4c0,1.5-0.2,2.9-0.6,4.3h40C251.4,143.2,255.7,148.9,255.7,155.7z"/>
	</g>
</g>
<g>
	<g>
		<g>
			<g>
				<g>
					<path fill="#FFFFFF" d="M76.9,77h120c3.9,0,7.1,3.2,7.1,7.1v137.2c0,3.9-3.2,7.1-7.1,7.1h-120c-3.9,0-7.1-3.2-7.1-7.1V84.1
						C69.8,80.2,73,77,76.9,77z"/>
				</g>
			</g>
		</g>
		<g>
			<g>
				<g>
					<path fill="#8CCBF2" d="M196.9,228.4h-120c-3.9,0-7.1-3.2-7.1-7.1V84.1c0-3.9,3.2-7.1,7.1-7.1h120c3.9,0,7.1,3.2,7.1,7.1v137.2
						C204,225.3,200.8,228.4,196.9,228.4z M76.9,77.6c-3.6,0-6.5,2.9-6.5,6.5v137.2c0,3.6,2.9,6.5,6.5,6.5h120
						c3.6,0,6.5-2.9,6.5-6.5V84.1c0-3.6-2.9-6.5-6.5-6.5H76.9z"/>
				</g>
			</g>
		</g>
	</g>
	<g>
		<g>
			<path fill="#FFFFFF" d="M86.4,89h101c0.8,0,1.5,0.7,1.5,1.5V110c0,0.8-0.7,1.5-1.5,1.5h-101c-0.8,0-1.5-0.7-1.5-1.5V90.5
				C84.9,89.7,85.6,89,86.4,89z"/>
		</g>
		<g>
			<path fill="#E1E1E1" d="M187.4,111.7h-101c-0.9,0-1.6-0.7-1.6-1.6V90.5c0-0.9,0.7-1.6,1.6-1.6h101c0.9,0,1.6,0.7,1.6,1.6V110
				C189,110.9,188.3,111.7,187.4,111.7z M86.4,89.2c-0.8,0-1.4,0.6-1.4,1.4V110c0,0.8,0.6,1.4,1.4,1.4h101c0.8,0,1.4-0.6,1.4-1.4
				V90.5c0-0.8-0.6-1.4-1.4-1.4L86.4,89.2L86.4,89.2z"/>
		</g>
	</g>
	<g>
		<g>
			<path fill="#B3D94A" d="M93.7,93.8h34.2c0.4,0,0.8,0.4,0.8,0.8l0,0c0,0.4-0.4,0.8-0.8,0.8H93.7c-0.4,0-0.8-0.4-0.8-0.8l0,0
				C92.9,94.1,93.3,93.8,93.7,93.8z"/>
		</g>
	</g>
	<g>
		<g>
			<path fill="#7EBAE6" d="M93.7,98.7h39.1c0.4,0,0.8,0.4,0.8,0.8l0,0c0,0.4-0.4,0.8-0.8,0.8H93.7c-0.4,0-0.8-0.4-0.8-0.8l0,0
				C92.9,99,93.3,98.7,93.7,98.7z"/>
		</g>
	</g>
	<g>
		<g>
			<path fill="#7EBAE6" d="M137.7,98.7h11.4c0.4,0,0.8,0.4,0.8,0.8l0,0c0,0.4-0.4,0.8-0.8,0.8h-11.4c-0.4,0-0.8-0.4-0.8-0.8l0,0
				C136.9,99,137.3,98.7,137.7,98.7z"/>
		</g>
	</g>
	<g>
		<g>
			<path fill="#7EBAE6" d="M93.7,103.5h11.4c0.4,0,0.8,0.4,0.8,0.8l0,0c0,0.4-0.4,0.8-0.8,0.8H93.7c-0.4,0-0.8-0.4-0.8-0.8l0,0
				C92.9,103.9,93.3,103.5,93.7,103.5z"/>
		</g>
	</g>
	<g>
		<g>
			<path fill="#7EBAE6" d="M110,103.5h63.5c0.4,0,0.8,0.4,0.8,0.8l0,0c0,0.4-0.4,0.8-0.8,0.8H110c-0.4,0-0.8-0.4-0.8-0.8l0,0
				C109.2,103.9,109.6,103.5,110,103.5z"/>
		</g>
	</g>
	<g>
		<g>
			<path fill="#FFFFFF" d="M86.2,114.8h101c0.8,0,1.5,0.7,1.5,1.5v19.5c0,0.8-0.7,1.5-1.5,1.5h-101c-0.8,0-1.5-0.7-1.5-1.5v-19.5
				C84.7,115.5,85.4,114.8,86.2,114.8z"/>
		</g>
		<g>
			<path fill="#E1E1E1" d="M187.2,137.4h-101c-0.9,0-1.6-0.7-1.6-1.6v-19.5c0-0.9,0.7-1.6,1.6-1.6h101c0.9,0,1.6,0.7,1.6,1.6v19.5
				C188.8,136.7,188.1,137.4,187.2,137.4z M86.2,114.9c-0.8,0-1.4,0.6-1.4,1.4v19.5c0,0.8,0.6,1.4,1.4,1.4h101
				c0.8,0,1.4-0.6,1.4-1.4v-19.5c0-0.8-0.6-1.4-1.4-1.4H86.2z"/>
		</g>
	</g>
	<g>
		<g>
			<path fill="#B3D94A" d="M93.5,119.5h34.2c0.4,0,0.8,0.4,0.8,0.8l0,0c0,0.4-0.4,0.8-0.8,0.8H93.5c-0.4,0-0.8-0.4-0.8-0.8l0,0
				C92.7,119.9,93.1,119.5,93.5,119.5z"/>
		</g>
	</g>
	<g>
		<g>
			<path fill="#7EBAE6" d="M93.5,124.4h39.1c0.4,0,0.8,0.4,0.8,0.8l0,0c0,0.4-0.4,0.8-0.8,0.8H93.5c-0.4,0-0.8-0.4-0.8-0.8l0,0
				C92.7,124.8,93.1,124.4,93.5,124.4z"/>
		</g>
	</g>
	<g>
		<g>
			<path fill="#7EBAE6" d="M137.5,124.4h11.4c0.4,0,0.8,0.4,0.8,0.8l0,0c0,0.4-0.4,0.8-0.8,0.8h-11.4c-0.4,0-0.8-0.4-0.8-0.8l0,0
				C136.7,124.8,137,124.4,137.5,124.4z"/>
		</g>
	</g>
	<g>
		<g>
			<path fill="#7EBAE6" d="M93.5,129.3h11.4c0.4,0,0.8,0.4,0.8,0.8l0,0c0,0.4-0.4,0.8-0.8,0.8H93.5c-0.4,0-0.8-0.4-0.8-0.8l0,0
				C92.7,129.7,93.1,129.3,93.5,129.3z"/>
		</g>
	</g>
	<g>
		<g>
			<path fill="#7EBAE6" d="M109.8,129.3h63.5c0.4,0,0.8,0.4,0.8,0.8l0,0c0,0.4-0.4,0.8-0.8,0.8h-63.5c-0.4,0-0.8-0.4-0.8-0.8l0,0
				C109,129.7,109.4,129.3,109.8,129.3z"/>
		</g>
	</g>
	<g>
		<g>
			<path fill="#FFFFFF" d="M86.4,166.9h101c0.8,0,1.5,0.7,1.5,1.5V188c0,0.8-0.7,1.5-1.5,1.5h-101c-0.8,0-1.5-0.7-1.5-1.5v-19.5
				C84.9,167.6,85.6,166.9,86.4,166.9z"/>
		</g>
		<g>
			<path fill="#E1E1E1" d="M187.4,189.6h-101c-0.9,0-1.6-0.7-1.6-1.6v-19.5c0-0.9,0.7-1.6,1.6-1.6h101c0.9,0,1.6,0.7,1.6,1.6V188
				C189,188.9,188.3,189.6,187.4,189.6z M86.4,167.1c-0.8,0-1.4,0.6-1.4,1.4V188c0,0.8,0.6,1.4,1.4,1.4h101c0.8,0,1.4-0.6,1.4-1.4
				v-19.5c0-0.8-0.6-1.4-1.4-1.4H86.4z"/>
		</g>
	</g>
	<g>
		<g>
			<path fill="#B3D94A" d="M93.7,171.7h34.2c0.4,0,0.8,0.4,0.8,0.8l0,0c0,0.4-0.4,0.8-0.8,0.8H93.7c-0.4,0-0.8-0.4-0.8-0.8l0,0
				C92.9,172.1,93.3,171.7,93.7,171.7z"/>
		</g>
	</g>
	<g>
		<g>
			<path fill="#7EBAE6" d="M93.7,176.6h39.1c0.4,0,0.8,0.4,0.8,0.8l0,0c0,0.4-0.4,0.8-0.8,0.8H93.7c-0.4,0-0.8-0.4-0.8-0.8l0,0
				C92.9,176.9,93.3,176.6,93.7,176.6z"/>
		</g>
	</g>
	<g>
		<g>
			<path fill="#7EBAE6" d="M137.7,176.6h11.4c0.4,0,0.8,0.4,0.8,0.8l0,0c0,0.4-0.4,0.8-0.8,0.8h-11.4c-0.4,0-0.8-0.4-0.8-0.8l0,0
				C136.9,176.9,137.3,176.6,137.7,176.6z"/>
		</g>
	</g>
	<g>
		<g>
			<path fill="#7EBAE6" d="M93.7,181.5h11.4c0.4,0,0.8,0.4,0.8,0.8l0,0c0,0.4-0.4,0.8-0.8,0.8H93.7c-0.4,0-0.8-0.4-0.8-0.8l0,0
				C92.9,181.8,93.3,181.5,93.7,181.5z"/>
		</g>
	</g>
	<g>
		<g>
			<path fill="#7EBAE6" d="M110,181.5h63.5c0.4,0,0.8,0.4,0.8,0.8l0,0c0,0.4-0.4,0.8-0.8,0.8H110c-0.4,0-0.8-0.4-0.8-0.8l0,0
				C109.2,181.8,109.6,181.5,110,181.5z"/>
		</g>
	</g>
	<g>
		<g>
			<path fill="#FFFFFF" d="M86.4,141.1h101c0.8,0,1.5,0.7,1.5,1.5v19.5c0,0.8-0.7,1.5-1.5,1.5h-101c-0.8,0-1.5-0.7-1.5-1.5v-19.5
				C84.9,141.8,85.6,141.1,86.4,141.1z"/>
		</g>
		<g>
			<path fill="#E1E1E1" d="M187.4,163.7h-101c-0.9,0-1.6-0.7-1.6-1.6v-19.5c0-0.9,0.7-1.6,1.6-1.6h101c0.9,0,1.6,0.7,1.6,1.6v19.5
				C189,163,188.3,163.7,187.4,163.7z M86.4,141.2c-0.8,0-1.4,0.6-1.4,1.4v19.5c0,0.8,0.6,1.4,1.4,1.4h101c0.8,0,1.4-0.6,1.4-1.4
				v-19.5c0-0.8-0.6-1.4-1.4-1.4H86.4z"/>
		</g>
	</g>
	<g>
		<g>
			<path fill="#EE6F6F" d="M93.7,145.8h34.2c0.4,0,0.8,0.4,0.8,0.8l0,0c0,0.4-0.4,0.8-0.8,0.8H93.7c-0.4,0-0.8-0.4-0.8-0.8l0,0
				C92.9,146.2,93.3,145.8,93.7,145.8z"/>
		</g>
	</g>
	<g>
		<g>
			<path fill="#7EBAE6" d="M93.7,150.7h39.1c0.4,0,0.8,0.4,0.8,0.8l0,0c0,0.4-0.4,0.8-0.8,0.8H93.7c-0.4,0-0.8-0.4-0.8-0.8l0,0
				C92.9,151.1,93.3,150.7,93.7,150.7z"/>
		</g>
	</g>
	<g>
		<g>
			<path fill="#7EBAE6" d="M137.7,150.7h11.4c0.4,0,0.8,0.4,0.8,0.8l0,0c0,0.4-0.4,0.8-0.8,0.8h-11.4c-0.4,0-0.8-0.4-0.8-0.8l0,0
				C136.9,151.1,137.3,150.7,137.7,150.7z"/>
		</g>
	</g>
	<g>
		<g>
			<path fill="#7EBAE6" d="M93.7,155.6h11.4c0.4,0,0.8,0.4,0.8,0.8l0,0c0,0.4-0.4,0.8-0.8,0.8H93.7c-0.4,0-0.8-0.4-0.8-0.8l0,0
				C92.9,156,93.3,155.6,93.7,155.6z"/>
		</g>
	</g>
	<g>
		<g>
			<path fill="#7EBAE6" d="M110,155.6h63.5c0.4,0,0.8,0.4,0.8,0.8l0,0c0,0.4-0.4,0.8-0.8,0.8H110c-0.4,0-0.8-0.4-0.8-0.8l0,0
				C109.2,156,109.6,155.6,110,155.6z"/>
		</g>
	</g>
	<g>
		<g>
			<path fill="#FFFFFF" d="M86.9,192.9h101c0.8,0,1.5,0.7,1.5,1.5v19.5c0,0.8-0.7,1.5-1.5,1.5h-101c-0.8,0-1.5-0.7-1.5-1.5v-19.5
				C85.4,193.6,86,192.9,86.9,192.9z"/>
		</g>
		<g>
			<path fill="#E1E1E1" d="M187.8,215.6h-101c-0.9,0-1.6-0.7-1.6-1.6v-19.5c0-0.9,0.7-1.6,1.6-1.6h101c0.9,0,1.6,0.7,1.6,1.6V214
				C189.5,214.8,188.7,215.6,187.8,215.6z M86.9,193.1c-0.8,0-1.4,0.6-1.4,1.4V214c0,0.8,0.6,1.4,1.4,1.4h101c0.8,0,1.4-0.6,1.4-1.4
				v-19.5c0-0.8-0.6-1.4-1.4-1.4H86.9z"/>
		</g>
	</g>
	<g>
		<g>
			<path fill="#EE6F6F" d="M94.2,197.7h34.2c0.4,0,0.8,0.4,0.8,0.8l0,0c0,0.4-0.4,0.8-0.8,0.8H94.2c-0.4,0-0.8-0.4-0.8-0.8l0,0
				C93.4,198,93.7,197.7,94.2,197.7z"/>
		</g>
	</g>
	<g>
		<g>
			<path fill="#7EBAE6" d="M94.2,202.5h39.1c0.4,0,0.8,0.4,0.8,0.8l0,0c0,0.4-0.4,0.8-0.8,0.8H94.2c-0.4,0-0.8-0.4-0.8-0.8l0,0
				C93.4,202.9,93.7,202.5,94.2,202.5z"/>
		</g>
	</g>
	<g>
		<g>
			<path fill="#7EBAE6" d="M138.2,202.5h11.4c0.4,0,0.8,0.4,0.8,0.8l0,0c0,0.4-0.4,0.8-0.8,0.8h-11.4c-0.4,0-0.8-0.4-0.8-0.8l0,0
				C137.3,202.9,137.7,202.5,138.2,202.5z"/>
		</g>
	</g>
	<g>
		<g>
			<path fill="#7EBAE6" d="M94.2,207.4h11.4c0.4,0,0.8,0.4,0.8,0.8l0,0c0,0.4-0.4,0.8-0.8,0.8H94.2c-0.4,0-0.8-0.4-0.8-0.8l0,0
				C93.4,207.8,93.7,207.4,94.2,207.4z"/>
		</g>
	</g>
	<g>
		<g>
			<path fill="#7EBAE6" d="M110.5,207.4H174c0.4,0,0.8,0.4,0.8,0.8l0,0c0,0.4-0.4,0.8-0.8,0.8h-63.5c-0.4,0-0.8-0.4-0.8-0.8l0,0
				C109.6,207.8,110,207.4,110.5,207.4z"/>
		</g>
	</g>
	<g>
		<rect x="58.3" y="18.7" width="0.5" height="78.4"/>
	</g>
	<g>
		<rect x="46.8" y="39.5" width="0.5" height="45.4"/>
	</g>
	<g>
		<rect x="180.3" y="37.8" width="0.5" height="32.6"/>
	</g>
	<g>
		<rect x="168.8" y="58.7" width="0.5" height="11.7"/>
	</g>
	<g>
		<rect x="230.8" y="202.5" width="0.5" height="61.5"/>
	</g>
	<g>
		<rect x="221.7" y="205.1" width="0.5" height="35.6"/>
	</g>
</g>
</svg>
