<?xml version="1.0" encoding="utf-8"?>
<!-- Generator: Adobe Illustrator 21.0.2, SVG Export Plug-In . SVG Version: 6.00 Build 0)  -->
<svg version="1.1" id="Layer_1" xmlns="http://www.w3.org/2000/svg" xmlns:xlink="http://www.w3.org/1999/xlink" x="0px" y="0px"
	 viewBox="0 0 1000 1000" enable-background="new 0 0 1000 1000" xml:space="preserve">
<g>
	<rect x="93.7" y="577.2" fill="#2C2C2C" width="775.5" height="2.2"/>
</g>
<g>
	<path fill="#777777" d="M869.2,688.6h-6.7v-2.2h6.7V688.6z M847.8,688.6H833v-2.2h14.8V688.6z M818.2,688.6h-14.8v-2.2h14.8V688.6z
		 M788.6,688.6h-14.8v-2.2h14.8V688.6z M759,688.6h-14.8v-2.2H759V688.6z M729.5,688.6h-14.8v-2.2h14.8V688.6z M699.9,688.6h-14.8
		v-2.2h14.8V688.6z M670.3,688.6h-14.8v-2.2h14.8V688.6z M640.8,688.6H626v-2.2h14.8V688.6z M611.2,688.6h-14.8v-2.2h14.8V688.6z
		 M581.6,688.6h-14.8v-2.2h14.8V688.6z M552,688.6h-14.8v-2.2H552V688.6z M522.5,688.6h-14.8v-2.2h14.8V688.6z M492.9,688.6h-14.8
		v-2.2h14.8V688.6z M463.3,688.6h-14.8v-2.2h14.8V688.6z M433.7,688.6H419v-2.2h14.8L433.7,688.6L433.7,688.6z M404.2,688.6h-14.8
		v-2.2h14.8V688.6z M374.6,688.6h-14.8v-2.2h14.8V688.6z M345,688.6h-14.8v-2.2H345V688.6z M315.5,688.6h-14.8v-2.2h14.8V688.6z
		 M285.9,688.6h-14.8v-2.2h14.8V688.6z M256.3,688.6h-14.8v-2.2h14.8V688.6z M226.7,688.6H212v-2.2h14.8v2.2H226.7z M197.2,688.6
		h-14.8v-2.2h14.8V688.6z M167.6,688.6h-14.8v-2.2h14.8V688.6z M138,688.6h-14.8v-2.2H138V688.6z M108.5,688.6H93.7v-2.2h14.8V688.6
		z"/>
</g>
<g>
	<rect x="93.7" y="358.8" fill="#2C2C2C" width="775.5" height="2.2"/>
</g>
<g>
	<path fill="#777777" d="M869.2,470.1h-6.7V468h6.7V470.1z M847.8,470.1H833V468h14.8V470.1z M818.2,470.1h-14.8V468h14.8V470.1z
		 M788.6,470.1h-14.8V468h14.8V470.1z M759,470.1h-14.8V468H759V470.1z M729.5,470.1h-14.8V468h14.8V470.1z M699.9,470.1h-14.8V468
		h14.8V470.1z M670.3,470.1h-14.8V468h14.8V470.1z M640.8,470.1H626V468h14.8V470.1z M611.2,470.1h-14.8V468h14.8V470.1z
		 M581.6,470.1h-14.8V468h14.8V470.1z M552,470.1h-14.8V468H552V470.1z M522.5,470.1h-14.8V468h14.8V470.1z M492.9,470.1h-14.8V468
		h14.8V470.1z M463.3,470.1h-14.8V468h14.8V470.1z M433.7,470.1H419V468h14.8L433.7,470.1L433.7,470.1z M404.2,470.1h-14.8V468h14.8
		V470.1z M374.6,470.1h-14.8V468h14.8V470.1z M345,470.1h-14.8V468H345V470.1z M315.5,470.1h-14.8V468h14.8V470.1z M285.9,470.1
		h-14.8V468h14.8V470.1z M256.3,470.1h-14.8V468h14.8V470.1z M226.7,470.1H212V468h14.8v2.1H226.7z M197.2,470.1h-14.8V468h14.8
		V470.1z M167.6,470.1h-14.8V468h14.8V470.1z M138,470.1h-14.8V468H138V470.1z M108.5,470.1H93.7V468h14.8V470.1z"/>
</g>
<g>
	<path fill="#777777" d="M869.2,251.7h-6.7v-2.2h6.7V251.7z M847.8,251.7H833v-2.2h14.8V251.7z M818.2,251.7h-14.8v-2.2h14.8V251.7z
		 M788.6,251.7h-14.8v-2.2h14.8V251.7z M759,251.7h-14.8v-2.2H759V251.7z M729.5,251.7h-14.8v-2.2h14.8V251.7z M699.9,251.7h-14.8
		v-2.2h14.8V251.7z M670.3,251.7h-14.8v-2.2h14.8V251.7z M640.8,251.7H626v-2.2h14.8V251.7z M611.2,251.7h-14.8v-2.2h14.8V251.7z
		 M581.6,251.7h-14.8v-2.2h14.8V251.7z M552,251.7h-14.8v-2.2H552V251.7z M522.5,251.7h-14.8v-2.2h14.8V251.7z M492.9,251.7h-14.8
		v-2.2h14.8V251.7z M463.3,251.7h-14.8v-2.2h14.8V251.7z M433.7,251.7H419v-2.2h14.8L433.7,251.7L433.7,251.7z M404.2,251.7h-14.8
		v-2.2h14.8V251.7z M374.6,251.7h-14.8v-2.2h14.8V251.7z M345,251.7h-14.8v-2.2H345V251.7z M315.5,251.7h-14.8v-2.2h14.8V251.7z
		 M285.9,251.7h-14.8v-2.2h14.8V251.7z M256.3,251.7h-14.8v-2.2h14.8V251.7z M226.7,251.7H212v-2.2h14.8v2.2H226.7z M197.2,251.7
		h-14.8v-2.2h14.8V251.7z M167.6,251.7h-14.8v-2.2h14.8V251.7z M138,251.7h-14.8v-2.2H138V251.7z M108.5,251.7H93.7v-2.2h14.8V251.7
		z"/>
</g>
<g>
	<path fill="#606060" d="M893.3,812.9l-7.1,10.3c-0.4,0.6-1.1,0.6-1.6,0c-0.4-0.6-0.4-1.7,0-2.3l5.2-7.5H93.7h-1.1v-1.6v-716
		l-5.2,7.5c-0.4,0.6-1.1,0.6-1.6,0c-0.4-0.6-0.4-1.7,0-2.3l7.1-10.3c0.4-0.6,1.1-0.6,1.6,0l7.1,10.3c0.4,0.6,0.4,1.7,0,2.3
		c-0.4,0.6-1.1,0.6-1.6,0l-5.2-7.5v714.3h795l-5.2-7.5c-0.4-0.6-0.4-1.7,0-2.3s1.1-0.6,1.6,0l7.1,10.3
		C893.7,811.2,893.7,812.3,893.3,812.9z"/>
</g>
<g>
	<rect x="234.7" y="161.3" fill="#EB5757" width="131.9" height="650.4"/>
</g>
<g>
	<rect x="422.1" y="376.4" fill="#B5CF6B" width="131.9" height="435.4"/>
</g>
<g>
	<rect x="604.8" y="267.4" fill="#56CCF2" width="131.9" height="544.4"/>
</g>
<ellipse fill="#EAEAEA" cx="506.5" cy="901.9" rx="440.5" ry="13.5"/>
</svg>
