<?xml version="1.0" encoding="utf-8"?>
<!-- Generator: Adobe Illustrator 21.0.2, SVG Export Plug-In . SVG Version: 6.00 Build 0)  -->
<svg version="1.1" id="Layer_1" xmlns="http://www.w3.org/2000/svg" xmlns:xlink="http://www.w3.org/1999/xlink" x="0px" y="0px"
	 viewBox="0 0 1000 1000" enable-background="new 0 0 1000 1000" xml:space="preserve">
<g>
	<rect x="329.4" y="186.8" fill="#2C2C2C" width="2.4" height="569.6"/>
</g>
<g>
	<path fill="#777777" d="M211.3,756.4v-4.9h2.4v4.9H211.3z M211.3,740.7v-10.9h2.4v10.9H211.3z M211.3,719v-10.9h2.4V719H211.3z
		 M211.3,697.2v-10.9h2.4v10.9H211.3z M211.3,675.5v-10.9h2.4v10.9H211.3z M211.3,653.8v-10.9h2.4v10.9H211.3z M211.3,632.1v-10.9
		h2.4v10.9H211.3z M211.3,610.3v-10.9h2.4v10.9H211.3z M211.3,588.7v-10.9h2.4v10.9H211.3z M211.3,566.9V556h2.4v10.9H211.3z
		 M211.3,545.2v-10.9h2.4v10.9H211.3z M211.3,523.4v-10.9h2.4v10.9H211.3z M211.3,501.8v-10.9h2.4v10.9H211.3z M211.3,480v-10.9h2.4
		V480H211.3z M211.3,458.3v-10.9h2.4v10.9H211.3z M211.3,436.5v-10.8h2.4v10.9L211.3,436.5L211.3,436.5z M211.3,414.9V404h2.4v10.9
		H211.3z M211.3,393.1v-10.9h2.4v10.9H211.3z M211.3,371.4v-10.9h2.4v10.9H211.3z M211.3,349.7v-10.9h2.4v10.9H211.3z M211.3,328
		v-10.9h2.4V328H211.3z M211.3,306.2v-10.9h2.4v10.9H211.3z M211.3,284.5v-10.8h2.4v10.9L211.3,284.5L211.3,284.5z M211.3,262.8V252
		h2.4v10.9h-2.4V262.8z M211.3,241.1v-10.9h2.4v10.9H211.3z M211.3,219.3v-10.9h2.4v10.9H211.3z M211.3,197.7v-10.9h2.4v10.9H211.3z
		"/>
</g>
<g>
	<rect x="565.7" y="251.8" fill="#2C2C2C" width="2.4" height="504.6"/>
</g>
<g>
	<path fill="#777777" d="M447.6,756.4V752h2.3v4.4H447.6z M447.6,742.5v-9.6h2.3v9.6H447.6z M447.6,723.2v-9.6h2.3v9.6H447.6z
		 M447.6,704v-9.6h2.3v9.6H447.6z M447.6,684.7v-9.6h2.3v9.6H447.6z M447.6,665.5v-9.6h2.3v9.6H447.6z M447.6,646.3v-9.6h2.3v9.6
		H447.6z M447.6,627v-9.6h2.3v9.6H447.6z M447.6,607.8v-9.6h2.3v9.6H447.6z M447.6,588.5v-9.6h2.3v9.6H447.6z M447.6,569.3v-9.6h2.3
		v9.6H447.6z M447.6,550v-9.6h2.3v9.6H447.6z M447.6,530.8v-9.6h2.3v9.6H447.6z M447.6,511.6V502h2.3v9.6H447.6z M447.6,492.3v-9.6
		h2.3v9.6H447.6z M447.6,473v-9.6h2.3v9.6H447.6L447.6,473z M447.6,453.8v-9.6h2.3v9.6H447.6z M447.6,434.6V425h2.3v9.6H447.6z
		 M447.6,415.3v-9.6h2.3v9.6H447.6z M447.6,396.1v-9.6h2.3v9.6H447.6z M447.6,376.9v-9.6h2.3v9.6H447.6z M447.6,357.6V348h2.3v9.6
		H447.6z M447.6,338.3v-9.6h2.3v9.6H447.6L447.6,338.3z M447.6,319.1v-9.6h2.3v9.6H447.6z M447.6,299.9v-9.6h2.3v9.6H447.6z
		 M447.6,280.6V271h2.3v9.6H447.6z M447.6,261.4v-9.6h2.3v9.6H447.6z"/>
</g>
<g>
	<path fill="#777777" d="M683.9,756.4V752h2.4v4.4H683.9z M683.9,742.5v-9.6h2.4v9.6H683.9z M683.9,723.2v-9.6h2.4v9.6H683.9z
		 M683.9,704v-9.6h2.4v9.6H683.9z M683.9,684.7v-9.6h2.4v9.6H683.9z M683.9,665.5v-9.6h2.4v9.6H683.9z M683.9,646.3v-9.6h2.4v9.6
		H683.9z M683.9,627v-9.6h2.4v9.6H683.9z M683.9,607.8v-9.6h2.4v9.6H683.9z M683.9,588.5v-9.6h2.4v9.6H683.9z M683.9,569.3v-9.6h2.4
		v9.6H683.9z M683.9,550v-9.6h2.4v9.6H683.9z M683.9,530.8v-9.6h2.4v9.6H683.9z M683.9,511.6V502h2.4v9.6H683.9z M683.9,492.3v-9.6
		h2.4v9.6H683.9z M683.9,473v-9.6h2.4v9.6H683.9L683.9,473z M683.9,453.8v-9.6h2.4v9.6H683.9z M683.9,434.6V425h2.4v9.6H683.9z
		 M683.9,415.3v-9.6h2.4v9.6H683.9z M683.9,396.1v-9.6h2.4v9.6H683.9z M683.9,376.9v-9.6h2.4v9.6H683.9z M683.9,357.6V348h2.4v9.6
		H683.9z M683.9,338.3v-9.6h2.4v9.6H683.9L683.9,338.3z M683.9,319.1v-9.6h2.4v9.6H683.9z M683.9,299.9v-9.6h2.4v9.6H683.9z
		 M683.9,280.6V271h2.4v9.6H683.9z M683.9,261.4v-9.6h2.4v9.6H683.9z"/>
</g>
<g>
	<rect x="565.8" y="186.8" fill="#2C2C2C" width="2.4" height="569.6"/>
</g>
<g>
	<path fill="#777777" d="M447.7,756.4v-4.9h2.4v4.9H447.7z M447.7,740.7v-10.9h2.4v10.9H447.7z M447.7,719v-10.9h2.4V719H447.7z
		 M447.7,697.2v-10.9h2.4v10.9H447.7z M447.7,675.5v-10.9h2.4v10.9H447.7z M447.7,653.8v-10.9h2.4v10.9H447.7z M447.7,632.1v-10.9
		h2.4v10.9H447.7z M447.7,610.3v-10.9h2.4v10.9H447.7z M447.7,588.7v-10.9h2.4v10.9H447.7z M447.7,566.9V556h2.4v10.9H447.7z
		 M447.7,545.2v-10.9h2.4v10.9H447.7z M447.7,523.4v-10.9h2.4v10.9H447.7z M447.7,501.8v-10.9h2.4v10.9H447.7z M447.7,480v-10.9h2.4
		V480H447.7z M447.7,458.3v-10.9h2.4v10.9H447.7z M447.7,436.5v-10.8h2.4v10.9L447.7,436.5L447.7,436.5z M447.7,414.9V404h2.4v10.9
		H447.7z M447.7,393.1v-10.9h2.4v10.9H447.7z M447.7,371.4v-10.9h2.4v10.9H447.7z M447.7,349.7v-10.9h2.4v10.9H447.7z M447.7,328
		v-10.9h2.4V328H447.7z M447.7,306.2v-10.9h2.4v10.9H447.7z M447.7,284.5v-10.8h2.4v10.9L447.7,284.5L447.7,284.5z M447.7,262.8V252
		h2.4v10.9h-2.4V262.8z M447.7,241.1v-10.9h2.4v10.9H447.7z M447.7,219.3v-10.9h2.4v10.9H447.7z M447.7,197.7v-10.9h2.4v10.9H447.7z
		"/>
</g>
<g>
	<rect x="802.1" y="186.8" fill="#2C2C2C" width="2.4" height="569.6"/>
</g>
<g>
	<path fill="#777777" d="M684.1,756.4v-4.9h2.3v4.9H684.1z M684.1,740.7v-10.9h2.3v10.9H684.1z M684.1,719v-10.9h2.3V719H684.1z
		 M684.1,697.2v-10.9h2.3v10.9H684.1z M684.1,675.5v-10.9h2.3v10.9H684.1z M684.1,653.8v-10.9h2.3v10.9H684.1z M684.1,632.1v-10.9
		h2.3v10.9H684.1z M684.1,610.3v-10.9h2.3v10.9H684.1z M684.1,588.7v-10.9h2.3v10.9H684.1z M684.1,566.9V556h2.3v10.9H684.1z
		 M684.1,545.2v-10.9h2.3v10.9H684.1z M684.1,523.4v-10.9h2.3v10.9H684.1z M684.1,501.8v-10.9h2.3v10.9H684.1z M684.1,480v-10.9h2.3
		V480H684.1z M684.1,458.3v-10.9h2.3v10.9H684.1z M684.1,436.5v-10.8h2.3v10.9L684.1,436.5L684.1,436.5z M684.1,414.9V404h2.3v10.9
		H684.1z M684.1,393.1v-10.9h2.3v10.9H684.1z M684.1,371.4v-10.9h2.3v10.9H684.1z M684.1,349.7v-10.9h2.3v10.9H684.1z M684.1,328
		v-10.9h2.3V328H684.1z M684.1,306.2v-10.9h2.3v10.9H684.1z M684.1,284.5v-10.8h2.3v10.9L684.1,284.5L684.1,284.5z M684.1,262.8V252
		h2.3v10.9h-2.3V262.8z M684.1,241.1v-10.9h2.3v10.9H684.1z M684.1,219.3v-10.9h2.3v10.9H684.1z M684.1,197.7v-10.9h2.3v10.9H684.1z
		"/>
</g>
<g>
	<path fill="#606060" d="M103.1,173.7L92,178.9c-0.6,0.3-0.6,0.8,0,1.2c0.6,0.3,1.8,0.3,2.5,0l8.1-3.8v579.6v0.8h1.7h774.5l-8.1,3.8
		c-0.6,0.3-0.6,0.8,0,1.2c0.6,0.3,1.8,0.3,2.5,0l11.1-5.2c0.6-0.3,0.6-0.8,0-1.2l-11.1-5.2c-0.6-0.3-1.8-0.3-2.5,0
		c-0.6,0.3-0.6,0.8,0,1.2l8.1,3.8H106.2V176.2l8.1,3.8c0.6,0.3,1.8,0.3,2.5,0s0.6-0.8,0-1.2l-11.1-5.2
		C105,173.4,103.8,173.4,103.1,173.7z"/>
</g>
<g>
	<rect x="106.6" y="235.2" fill="#EB5757" width="703.6" height="90.4"/>
</g>
<g>
	<rect x="106.5" y="363.7" fill="#B5CF6B" width="471" height="90.4"/>
</g>
<g>
	<rect x="106.5" y="489" fill="#56CCF2" width="588.9" height="90.4"/>
</g>
<g>
	<rect x="106.6" y="622.4" fill="#EA59E6" width="548.8" height="90.4"/>
</g>
<ellipse fill="#EAEAEA" cx="506.5" cy="857.2" rx="476.5" ry="14.6"/>
</svg>
