<?xml version="1.0" encoding="utf-8"?>
<!-- Generator: Adobe Illustrator 21.0.2, SVG Export Plug-In . SVG Version: 6.00 Build 0)  -->
<svg version="1.1" id="Layer_1" xmlns="http://www.w3.org/2000/svg" xmlns:xlink="http://www.w3.org/1999/xlink" x="0px" y="0px"
	 viewBox="0 0 1000 1000" enable-background="new 0 0 1000 1000" xml:space="preserve">
<g>
	<g>
		<path fill="#EE6F6F" d="M781.7,496.2c-6,133-115.9,239-250.7,239c-138.6,0-251-112.1-251-250.4c0-134.5,106.3-244.2,239.6-250.1
			v96.5c-80,5.8-143.1,72.4-143.1,153.7c0,85.1,69.1,154.1,154.4,154.1c81.5,0,148.2-62.9,154-142.7L781.7,496.2L781.7,496.2z"/>
		<path fill="#EE6F6F" d="M781.9,484.9v0.2h-96.5V485c0-85.1-69.1-154.1-154.4-154.1h-0.1v-96.3h0.1
			C669.6,234.5,781.9,346.6,781.9,484.9z"/>
	</g>
	<g>
		<path fill="#B3D94A" d="M782.1,484.9v0.2h-96.7V485c0-85.1-69.1-154.1-154.4-154.1h-0.1v-96.5h0.2c67.1,0,130.1,26.1,177.6,73.4
			C756,355,782.1,417.9,782.1,484.9z"/>
	</g>
	<g>
		<path fill="#70C0ED" d="M813.4,826.6c-40.8,13.5-85.3-7.5-100.8-48.2c-15.9-41.8,5-88.5,46.7-104.4c40.5-15.4,85.8,4,102.9,43.5
			L833,728.7c-10.9-23.5-38.2-34.8-62.7-25.5c-25.7,9.8-38.5,38.5-28.7,64.2c9.3,24.6,36,37.5,60.7,30.1L813.4,826.6z"/>
		<path fill="#70C0ED" d="M816.8,825.4L816.8,825.4l-11.1-29.1l0,0c25.7-9.8,38.5-38.5,28.7-64.2l0,0l29-11.1l0,0
			C879.4,762.8,858.5,809.5,816.8,825.4z"/>
	</g>
	<g>
		<path fill="#D84CD5" d="M816.8,825.5L816.8,825.5l-11.1-29.1l0,0c25.7-9.8,38.5-38.5,28.7-64.2l0,0l29.1-11.1l0,0
			c7.7,20.2,7.1,42.2-1.7,61.9C853,802.7,837,817.8,816.8,825.5z"/>
	</g>
	<g>
		<g>
			<path fill="#F9B110" d="M112.2,178.1c23.6-55.7,87.3-83.3,144.7-61.9c59,22,89,87.6,67.1,146.4c-21.3,57.3-84,87.1-141.7,68.4
				l15.3-41.1c35,10.2,72.4-8.1,85.3-42.7c13.5-36.2-5-76.6-41.3-90.1c-34.7-12.9-73.1,3.3-88.2,36.3L112.2,178.1z"/>
			<path fill="#F9B110" d="M110.3,182.9L110.3,182.9l41.1,15.3v0.1c-13.5,36.2,5,76.6,41.3,90.1l0,0l-15.3,41h-0.1
				C118.4,307.3,88.3,241.8,110.3,182.9z"/>
		</g>
		<g>
			<path fill="#70C0ED" d="M110.2,182.9L110.2,182.9l41.2,15.3v0.1c-13.5,36.2,5,76.6,41.3,90.1l0,0l-15.3,41.1h-0.1
				c-28.6-10.6-51.3-31.8-63.9-59.4C100.7,242.3,99.6,211.4,110.2,182.9z"/>
		</g>
	</g>
	<ellipse fill="#EAEAEA" cx="492" cy="876" rx="396" ry="16"/>
</g>
</svg>
