<?xml version="1.0" encoding="utf-8"?>
<!-- Generator: Adobe Illustrator 21.0.2, SVG Export Plug-In . SVG Version: 6.00 Build 0)  -->
<svg version="1.1" id="Layer_1" xmlns="http://www.w3.org/2000/svg" xmlns:xlink="http://www.w3.org/1999/xlink" x="0px" y="0px"
	 viewBox="0 0 2000 500" enable-background="new 0 0 2000 500" xml:space="preserve">
<g>
	<g>
		<g>
			<path fill="#606060" d="M381.1,79.9c6.3,0,11.4,5.1,11.4,11.4V416c0,6.3-5.1,11.4-11.4,11.4H56.5c-6.3,0-11.4-5.1-11.4-11.4V91.3
				c0-6.3,5.1-11.4,11.4-11.4H381.1 M381.1,77.9H56.5c-7.4,0-13.4,6-13.4,13.4V416c0,7.4,6,13.4,13.4,13.4h324.7
				c7.4,0,13.4-6,13.4-13.4V91.3C394.6,83.9,388.5,77.9,381.1,77.9L381.1,77.9z"/>
		</g>
	</g>
	<g>
		<g>
			<g>
				<path fill="#FFFFFF" d="M357.4,149.5V301H80.2V149.5c0-3.4,2.6-6.2,5.8-6.2h265.6C354.8,143.2,357.4,146,357.4,149.5z"/>
				<path fill="#606060" d="M358.9,302.5H78.7v-153c0-4.2,3.3-7.7,7.3-7.7h265.6c1.8,0,3.6,0.6,4.9,2c1.5,1.5,2.4,3.5,2.4,5.7V302.5
					z M81.7,299.5h274.2v-150c0-1.4-0.5-2.7-1.5-3.6c-0.8-0.8-1.8-1.1-2.8-1.1l-265.6,0c-2.4,0-4.3,2.1-4.3,4.7V299.5z"/>
			</g>
		</g>
		<g>
			<g>
				<path fill="#606060" d="M352.1,326.8H86c-4,0-7.3-3.5-7.3-7.7v-19.5h278.7v1.3h1.5v18.7c0,0.5-0.1,1-0.2,1.5
					c0,0.1-0.1,0.3-0.1,0.4l-0.1,0.2c-0.3,0.9-0.9,1.8-1.6,2.6l-0.4,0.4c-0.1,0.1-0.3,0.3-0.6,0.5c-0.1,0-0.1,0.1-0.2,0.1
					c0,0,0,0,0,0l-0.2,0.2l-0.2,0.1c0,0-0.1,0-0.1,0.1c-0.1,0.1-0.2,0.2-0.4,0.2l-0.8,0.4c-0.3,0.1-0.7,0.2-1.1,0.3l-0.2,0
					C352.6,326.7,352.4,326.8,352.1,326.8z M355.8,325.4L355.8,325.4C355.8,325.4,355.8,325.4,355.8,325.4z M81.7,302.6v16.5
					c0,2.6,1.9,4.7,4.3,4.7h266c0.1,0,0.2-0.1,0.4-0.1c0.3-0.1,0.5-0.1,0.7-0.2l0.5-0.3c0,0,0.1,0,0.1-0.1c0.1-0.1,0.2-0.1,0.2-0.2
					c0.1,0,0.1-0.1,0.2-0.1c0,0,0,0,0,0l0.2-0.2l0.2-0.1l0.2-0.3c0.4-0.5,0.8-1.1,1-1.6c0-0.1,0.1-0.3,0.1-0.4
					c0.1-0.3,0.1-0.6,0.1-0.8v-17H81.7z M354,322.9C354,322.9,354,322.9,354,322.9L354,322.9z"/>
			</g>
			<g>
				<path fill="#E3E7E8" d="M86,325.2L86,325.2c-3.2,0-5.8-2.7-5.8-6.1V319C80.2,322.4,82.8,325.2,86,325.2z"/>
				<path fill="#606060" d="M86,326.7h-0.1c-4,0-7.2-3.4-7.2-7.6h0c0,0,0-0.1,0-0.1h3c0,2.6,1.9,4.7,4.3,4.7V326.7z"/>
			</g>
			<g>
				<path fill="#E3E7E8" d="M352.7,325.1c0.3-0.1,0.7-0.2,1-0.3C353.3,325,353,325,352.7,325.1z"/>
				<path fill="#606060" d="M353.2,326.5l-0.9-2.8c0.2-0.1,0.4-0.1,0.6-0.2c0.2,0,0.3-0.1,0.4-0.1l1.1,2.8c-0.4,0.2-0.8,0.3-1,0.3
					C353.3,326.5,353.2,326.5,353.2,326.5z"/>
			</g>
			<g>
				<path fill="#E3E7E8" d="M357,321.2c-0.3,1-0.9,1.8-1.6,2.5C356.1,323,356.7,322.2,357,321.2z"/>
				<path fill="#606060" d="M356.5,324.8l-2.1-2.1c0.6-0.6,1-1.2,1.2-1.9l2.9,0.9C358.1,322.8,357.5,323.8,356.5,324.8z"/>
			</g>
		</g>
		<g>
			<g>
				<path fill="#606060" d="M252.8,359.2h-67.6l2.1-35.5h63.4L252.8,359.2z M188.4,356.2h61.2l-1.7-29.5h-57.8L188.4,356.2z"/>
			</g>
		</g>
		<g>
			<path fill="#606060" d="M256.2,367.5h-74.1c-2.3,0-4.1-1.7-4.1-3.7v-3.9c0-2,1.8-3.7,4.1-3.7h74.1c2.3,0,4.1,1.7,4.1,3.7v3.9
				C260.3,365.8,258.5,367.5,256.2,367.5z M182.1,359.2c-0.6,0-1.1,0.4-1.1,0.7v3.9c0,0.3,0.5,0.7,1.1,0.7h74.1
				c0.6,0,1.1-0.4,1.1-0.7v-3.9c0-0.3-0.5-0.7-1.1-0.7H182.1z"/>
		</g>
	</g>
	<title>User Account</title>
</g>
<g>
	<g>
		<g>
			<path fill="#606060" d="M900.2,79.9c6.3,0,11.4,5.1,11.4,11.4V416c0,6.3-5.1,11.4-11.4,11.4H575.5c-6.3,0-11.4-5.1-11.4-11.4
				V91.3c0-6.3,5.1-11.4,11.4-11.4H900.2 M900.2,77.9H575.5c-7.4,0-13.4,6-13.4,13.4V416c0,7.4,6,13.4,13.4,13.4h324.7
				c7.4,0,13.4-6,13.4-13.4V91.3C913.6,83.9,907.6,77.9,900.2,77.9L900.2,77.9z"/>
		</g>
	</g>
	<title>User Account</title>
	<g>
		<polygon fill="#606060" points="784.6,341.2 762.9,247 750.4,277.6 729.4,160.8 688.7,307.3 658.2,230.2 640.4,267.7 583.6,267.7 
			583.6,265.7 639.2,265.7 658.4,225.2 688.3,301.1 729.8,151.8 751.2,270.4 763.5,240.4 784.6,332.2 812.8,210 833.3,265.7 
			892.4,265.7 892.4,267.7 831.9,267.7 813.2,217 		"/>
	</g>
</g>
<g>
	<g>
		<g>
			<g>
				<path fill="#606060" d="M1417.5,79.9c6.3,0,11.4,5.1,11.4,11.4v322.9c0,6.3-5.1,11.4-11.4,11.4h-323c-6.3,0-11.4-5.1-11.4-11.4
					V91.3c0-6.3,5.1-11.4,11.4-11.4H1417.5 M1417.5,77.9h-323c-7.4,0-13.4,6-13.4,13.4v322.9c0,7.4,6,13.4,13.4,13.4h323
					c7.4,0,13.4-6,13.4-13.4V91.3C1430.9,83.9,1424.9,77.9,1417.5,77.9L1417.5,77.9z"/>
			</g>
		</g>
		<title>User Account</title>
	</g>
	<g id="bfab9deb-201d-4f6d-8712-da0da49a2c2e">
		<g id="_x38_25bdf92-8a41-4cdd-9caf-a8eb335ec3c2">
			<g id="_x34_3c24620-ad1c-480f-9c27-3e0c453bb89f">
				<g>
					<path fill="#636363" d="M1336,158.4l-37.8,37.8c-5.2-7-11.7-12.9-19.1-17.4l7.7-12.1l-12-7.7l-8.8,14.1
						c-4.8-1.4-9.8-2.1-14.8-2c-5.3,0-10.6,0.8-15.7,2.4l-8.9-14.1l-12,7.7l7.9,12.4c-6.9,4.3-12.9,9.7-17.9,16.1l-13.8-7.9
						l-6.9,12.2l13.2,7.7c-6.7,12.8-10.4,27-10.8,41.4h-9.5v14h10c1.1,12,4.6,23.7,10.2,34.5l-35.2,35.4l14.3,14.3l32.8-32.8
						l141.5-141.6L1336,158.4z M1247.7,220.6h-16.6v-16.5h16.6V220.6z M1271.3,220.6h-16.6v-16.5h16.6V220.6z"/>
				</g>
			</g>
			<g id="_x34_e3e8946-543d-4f6f-8109-8e1d0196fbf7">
				<g>
					<path fill="#636363" d="M1315.7,263c-1.3,12.8-5.1,25.2-11.4,36.4l14.6,8.4l-7.1,12.3l-15.6-8.9c-11.7,14-27.5,22.7-45.1,22.7
						c-9.7,0-19.2-2.7-27.5-7.7l91-91.3c0.8,4.6,1.3,9.2,1.4,13.9h9.5V263H1315.7z"/>
				</g>
			</g>
		</g>
	</g>
</g>
<g>
	<g>
		<g>
			<path fill="#606060" d="M1936.6,79.9c6.3,0,11.4,5.1,11.4,11.4V416c0,6.3-5.1,11.4-11.4,11.4h-324.7c-6.3,0-11.4-5.1-11.4-11.4
				V91.3c0-6.3,5.1-11.4,11.4-11.4H1936.6 M1936.6,77.9h-324.7c-7.4,0-13.4,6-13.4,13.4V416c0,7.4,6,13.4,13.4,13.4h324.7
				c7.4,0,13.4-6,13.4-13.4V91.3C1950,83.9,1944,77.9,1936.6,77.9L1936.6,77.9z"/>
		</g>
	</g>
	<title>User Account</title>
	<g>
		<path fill="#636363" d="M1806.4,349.6l-0.5-3.8l-1-11.5l-0.3-3.5c-5.1-1.3-10.1-3.3-14.6-6.1l-2.7,2.3l-8.6,7.4l-2.9,2.5
			c-2.3,2-5.9,1.8-8-0.4l-6.9-7c-2.2-2.2-2.3-5.6-0.3-8l2.5-2.9l7.2-8.8l2.3-2.7c-2.8-4.6-4.8-9.5-6.1-14.7l-3.4-0.3l-11.4-1
			l-3.7-0.3c-3-0.3-5.3-2.8-5.3-5.9v-10.1c0-3,2.3-5.6,5.3-5.9l3.7-0.3l11.3-0.9l3.5-0.3c1.3-5.2,3.3-10.2,6.1-14.7l-2.3-2.7
			l-7.4-8.8l-2.5-2.9c-2-2.3-1.8-5.8,0.3-8l7-7c2.1-2.2,5.6-2.3,7.9-0.3l2.9,2.5l8.7,7.4l2.7,2.3c4.5-2.8,9.4-4.9,14.6-6.1l0.3-3.5
			l0.9-11.6l0.3-3.8c0.2-3,2.8-5.4,5.8-5.4h9.8c3.1,0,5.6,2.4,5.8,5.4l0.3,3.8l1,11.5l0.3,3.5c5.2,1.3,10.1,3.3,14.7,6.2l2.5-2.3
			l8.7-7.4l2.9-2.5c2.3-2,5.8-1.9,7.9,0.3l4.9,4.8l2.1,2.1c2.2,2.2,2.3,5.6,0.3,8l-2.4,2.9l-7.4,8.8l-2.3,2.7
			c2.8,4.6,4.8,9.5,6.1,14.7l2.5,0.2h1l11.4,1l3.7,0.3c3,0.3,5.3,2.8,5.3,5.9v9.9c0,3-2.3,5.6-5.3,5.9l-3.7,0.3l-11.4,1l-3.4,0.3
			c-1.3,5.2-3.3,10.2-6.1,14.7l2.3,2.7l7.3,8.9l2.5,2.9c2,2.3,1.8,5.8-0.3,8l-7,7c-2.1,2.2-5.6,2.3-7.9,0.3l-2.9-2.5l-8.7-7.4
			l-2.7-2.2c-4.5,2.8-9.4,4.9-14.6,6.1l-0.3,3.5l-1,11.5l-0.3,3.8c-0.2,3-2.8,5.4-5.8,5.4h-9.9
			C1809.1,354.9,1806.6,352.6,1806.4,349.6z M1834.9,297.9c9.9-10,9.9-26.1,0-36.1c-9.7-9.9-25.6-10-35.4-0.3
			c-0.1,0.1-0.2,0.2-0.3,0.3c-9.9,10-9.9,26.1,0,36.1c9.7,9.9,25.6,10,35.4,0.3C1834.7,298.1,1834.8,298,1834.9,297.9z"/>
	</g>
	<g>
		<path fill="#636363" d="M1705.2,262.2l-0.3-2.9l-0.7-8.7l-0.2-2.7c-3.9-1-7.6-2.5-11-4.6l-2,1.7l-6.7,5.7l-2.2,1.8
			c-1.7,1.5-4.4,1.4-6-0.3l-5.2-5.3c-1.6-1.7-1.7-4.3-0.3-6.1l1.8-2.2l5.6-6.7l1.7-2.1c-2.1-3.5-3.6-7.3-4.6-11.2l-2.5-0.2l-8.6-0.7
			l-2.8-0.3c-2.3-0.2-4.1-2.1-4.1-4.5v-7.6c-0.1-2.3,1.7-4.3,4-4.5l2.9-0.2l8.6-0.7l2.5-0.2c0.9-3.9,2.5-7.7,4.6-11.2l-1.7-2.1
			l-5.6-6.7l-1.8-2.2c-1.5-1.8-1.4-4.4,0.3-6.1l5.2-5.3c1.6-1.6,4.2-1.8,6-0.3l2.3,1.9l6.6,5.7l2,1.7c3.4-2.1,7.1-3.7,11-4.6
			l0.2-2.8l0.7-8.7l0.3-2.9c0.2-2.3,2.1-4.1,4.5-4.1h7.4c2.3,0,4.2,1.8,4.4,4.1l0.3,2.9l0.6,8.7l0.2,2.7c3.9,1,7.6,2.5,11,4.6l2-1.7
			l6.7-5.6l2.2-1.8c1.7-1.5,4.4-1.4,6,0.3l3.7,3.7l1.6,1.6c1.6,1.7,1.7,4.3,0.3,6.1l-1.8,2.2l-5.6,6.7l-1.7,2.1
			c2.1,3.5,3.6,7.2,4.6,11.2l1.9,0.2h0.8l8.6,0.7l2.8,0.3c2.3,0.2,4.1,2.1,4.1,4.5v7.6c0,2.3-1.8,4.2-4.1,4.5l-2.9,0.1l-8.6,0.8
			l-2.5,0.2c-0.9,3.9-2.5,7.7-4.6,11.2l1.7,2.1l5.6,6.7l1.8,2.2c1.5,1.8,1.4,4.4-0.3,6.1l-5.2,5.3c-1.6,1.6-4.2,1.8-6,0.3l-2.2-1.9
			l-6.6-5.7l-2-1.7c-3.4,2.1-7.1,3.7-11,4.6l-0.2,2.7l-0.8,8.7l-0.3,2.9c-0.2,2.3-2,4-4.3,4.1h-7.6
			C1707.3,266.2,1705.4,264.4,1705.2,262.2z M1726.9,223c7.5-7.6,7.5-19.8,0-27.4c-7.4-7.5-19.4-7.6-26.9-0.2
			c-0.1,0.1-0.1,0.1-0.2,0.2c-7.5,7.6-7.5,19.8,0,27.4c7.4,7.5,19.4,7.6,26.9,0.2C1726.8,223.1,1726.8,223,1726.9,223z"/>
	</g>
</g>
</svg>
