<?xml version="1.0" encoding="utf-8"?>
<!-- Generator: Adobe Illustrator 21.0.2, SVG Export Plug-In . SVG Version: 6.00 Build 0)  -->
<svg version="1.1" id="Layer_1" xmlns="http://www.w3.org/2000/svg" xmlns:xlink="http://www.w3.org/1999/xlink" x="0px" y="0px"
	 viewBox="0 0 1000 1000" enable-background="new 0 0 1000 1000" xml:space="preserve">
<g>
	<path fill="#F76969" d="M492.3,518.4l-12.9,332.2c0,0-171.4,4.7-276.1-172C492.3,518.4,492.3,518.4,492.3,518.4z"/>
	<path fill="#565656" d="M478,852.6c-3.5,0-13.1-0.2-27.3-2.1c-16.3-2.1-41.7-7-70.8-17.8c-32.7-12.2-63.1-29.4-90.5-51.1
		c-34.2-27.1-63.8-61.5-87.8-102l-1-1.8l293.9-162.9l-13.1,337.6l-1.9,0.1C479.4,852.6,478.9,852.6,478,852.6z M206.1,679.3
		c23.6,39.3,52.4,72.7,85.8,99.1c27.1,21.5,57.2,38.5,89.5,50.5c28.7,10.7,53.9,15.5,69.9,17.6c13.2,1.7,22.5,2,26.2,2l12.7-326.7
		L206.1,679.3z"/>
</g>
<g>
	<path fill="#AFD165" d="M492.8,518.2l-12.9,332.2c189.7,0.7,350.5-133.1,341.9-363C492.8,518.2,492.8,518.2,492.8,518.2z"/>
	<path fill="#565656" d="M481.4,852.4c-0.5,0-1,0-1.5,0l-2.1,0l13-336l332.9-31.2l0.1,2.1c4,106.5-27.9,197.9-92.2,264.4
		C668.8,816.7,580,852.4,481.4,852.4z M494.7,520L482,848.4c97.3-0.1,184.8-35.4,246.7-99.4c63.1-65.3,94.6-154.9,91.2-259.4
		L494.7,520z"/>
</g>
<g>
	<path fill="#F2C47C" d="M527.1,476l21.8-331.7c0,0,270.8,15,306.8,301.3C527.1,476,527.1,476,527.1,476z"/>
	<path fill="#565656" d="M525,478.2l0.2-2.3L547,142.2l2,0.1c0.7,0,69,4.2,140.8,43.5c42.2,23.1,77.3,53.6,104.4,90.7
		c33.9,46.4,55.2,103.1,63.5,168.8l0.3,2.1L525,478.2z M550.8,146.4l-21.5,327.3l324.2-30c-8.3-64.1-29.3-119.5-62.4-164.8
		c-26.7-36.6-61.4-66.8-103-89.6C623.8,154.2,562.4,147.5,550.8,146.4z"/>
</g>
<g>
	<path fill="#8BC8F2" d="M492.8,518.2l-289,160c0,0-88.3-140.7-10.3-302s235.3-197.6,321.3-189.8
		C492.8,518.2,492.8,518.2,492.8,518.2z"/>
	<path fill="#565656" d="M203.1,680.9l-1-1.6c-0.2-0.4-22.4-36.1-34.7-91.1c-7.2-32.3-9.6-64.9-7.2-96.8c3-39.9,13.6-78.9,31.5-116
		c18.5-38.2,42.5-71.6,71.4-99.4c25.5-24.4,54.8-44.6,87.2-59.9c74.7-35.3,140.1-33.9,164.7-31.7l1.9,0.2l-22.2,334.8L203.1,680.9z
		 M492.2,187.4c-31.7,0-83.2,5.3-140.2,32.3c-32,15.1-60.9,35-86.1,59.1c-28.6,27.4-52.3,60.5-70.6,98.2
		c-17.7,36.5-28.1,75-31.1,114.4c-2.4,31.5,0,63.7,7.1,95.6c9.3,41.7,25.2,75.1,33.2,88.4L490.9,517l21.8-328.8
		C507.4,187.8,500.5,187.4,492.2,187.4z"/>
</g>
<g>
	<ellipse fill="#E2E2E2" cx="492" cy="903" rx="364" ry="16"/>
</g>
<g>
	<g>
		<rect x="801" y="712.5" fill="#565656" width="55" height="1"/>
	</g>
	<g>
		<rect x="801" y="735" fill="#565656" width="119.5" height="1"/>
	</g>
</g>
<g>
	<g>
		<rect x="275" y="205" fill="#565656" width="55" height="1"/>
	</g>
	<g>
		<rect x="161" y="227" fill="#565656" width="119.5" height="1"/>
	</g>
</g>
<g>
	<g>
		<rect x="259.5" y="819.5" fill="#565656" width="67" height="1"/>
	</g>
	<g>
		<rect x="289.8" y="834.5" fill="#565656" width="79.7" height="1"/>
	</g>
</g>
<g>
	<g>
		<rect x="38" y="506.5" fill="#565656" width="55" height="1"/>
	</g>
	<g>
		<rect x="8" y="529" fill="#565656" width="119.5" height="1"/>
	</g>
</g>
</svg>
