<?xml version="1.0" encoding="utf-8"?>
<!-- Generator: Adobe Illustrator 21.0.2, SVG Export Plug-In . SVG Version: 6.00 Build 0)  -->
<svg version="1.1" id="Layer_1" xmlns="http://www.w3.org/2000/svg" xmlns:xlink="http://www.w3.org/1999/xlink" x="0px" y="0px"
	 viewBox="0 0 1000 1000" enable-background="new 0 0 1000 1000" xml:space="preserve">
<polygon points="920,60 512,453 81,60 "/>
<path d="M404,683c0,14.6,1.1,29,3.2,43H80V117l406.5,364.2C435.5,533.1,404,604.4,404,683z"/>
<path d="M920,117v390c-52.7-68.1-135.2-112-228-112c-26.2,0-51.6,3.5-75.7,10L920,117z"/>
<path d="M692,456c-125.4,0-227,101.6-227,227c0,14.7,1.4,29.1,4.1,43C489.2,830.8,581.3,910,692,910s202.8-79.2,222.9-184
	c2.7-13.9,4.1-28.3,4.1-43C919,557.6,817.4,456,692,456z M572.1,747.4c-1.9,1.3-4,1.9-6,1.9c-3.4,0.1-6.8-1.5-8.8-4.5
	c-4-6-7.6-12.3-10.5-18.8c-8-17.6-12-36.9-11.6-56.8c1.4-75,64.5-137.1,140.7-138.6c28.4-0.5,55.9,7.6,78.7,23.1l20.4-30.5l26,73.3
	l-79.7,7.2l4.2-6.3l17.1-25.6c-19.4-13.3-42.8-20.4-67.1-19.9c-64.3,1.2-117.6,53.7-118.8,117c-0.4,20.3,4.6,40,14.5,57.2
	c1,1.8,2.2,3.6,3.3,5.4c0.3,0.4,0.5,0.8,0.8,1.2C578.5,737.4,577,744,572.1,747.4z M845.7,693.8c-0.2,11.1-1.8,21.9-4.6,32.2
	c-15.5,57.6-68.4,101.2-130.2,102.4c-27.2,0.5-53.6-7.4-75.4-22.4L616,835.6l-24.9-71.2l76.4-6.9l-4,6.1L647,788.5
	c18.5,13,41,19.8,64.3,19.3c50.6-1,94-35.5,108.6-81.8c3.2-10.1,5-20.8,5.2-31.8c0.4-21.9-5.5-42.9-17.1-60.8
	c-0.2-0.4-0.5-0.8-0.8-1.2c-3.1-4.6-1.7-11.1,3-14.3c1.8-1.2,3.8-1.8,5.8-1.9c3.3-0.1,6.5,1.5,8.4,4.3
	C838.9,641.9,846.2,667.3,845.7,693.8z"/>
</svg>
