<?xml version="1.0" encoding="utf-8"?>
<!-- Generator: Adobe Illustrator 21.0.2, SVG Export Plug-In . SVG Version: 6.00 Build 0)  -->
<svg version="1.1" id="Layer_1" xmlns="http://www.w3.org/2000/svg" xmlns:xlink="http://www.w3.org/1999/xlink" x="0px" y="0px"
	 viewBox="0 0 512 512" enable-background="new 0 0 512 512" xml:space="preserve">
<g>
	<g>
		<path d="M480,384v80c0,8.8-7.2,16-16,16s-16-7.2-16-16v-38.7C401.1,478.5,332.5,512,256,512C120.3,512,9.3,406.4,0.6,273
			c-0.6-9.2,6.7-16.9,15.9-16.9h0.1c8.4,0,15.3,6.6,15.9,15c1.6,24.9,7.4,49.1,17.1,72.1c11.3,26.7,27.4,50.6,48,71.2
			c20.6,20.6,44.5,36.7,71.2,48c27.6,11.7,56.9,17.6,87.2,17.6s59.6-5.9,87.2-17.6c26.7-11.3,50.6-27.4,71.2-48
			c4.6-4.6,9-9.4,13.2-14.4H384c-8.8,0-16-7.2-16-16s7.2-16,16-16h80C472.8,368,480,375.2,480,384z"/>
	</g>
	<g>
		<path d="M495.5,255.9L495.5,255.9c-8.5,0-15.4-6.6-16-15c-1.6-24.9-7.4-49.1-17.1-72.1c-11.3-26.7-27.4-50.6-48-71.2
			c-20.6-20.6-44.5-36.7-71.2-48C315.6,37.9,286.3,32,256,32s-59.6,5.9-87.2,17.6c-26.7,11.3-50.6,27.4-71.2,48
			c-4.3,4.3-8.4,8.8-12.3,13.4H128c8.8,0,16,7.2,16,16s-7.2,16-16,16H48c-8.8,0-16-7.2-16-16V48c0-8.8,7.2-16,16-16s16,7.2,16,16
			v38.7C110.9,33.5,179.5,0,256,0c135.7,0,246.7,105.6,255.4,239C512,248.2,504.7,255.9,495.5,255.9z"/>
	</g>
</g>
<g>
	<path d="M356.2,201.9L356.2,201.9l-126.9,131c-2.8,3.1-6.6,4.9-10.6,4.9h0c-4,0-8-1.8-10.8-4.9l-52.1-58.6
		c-5.7-6.5-5.6-16.8,0.4-22.9l0.6-0.6c2.8-2.9,6.5-4.6,10.5-4.5c4,0,7.7,1.7,10.5,4.8h0l35.9,39.2c1.5,1.6,3.5,2.5,5.5,2.5
		c2,0,3.9-0.9,5.4-2.6l0.1-0.2l110.3-110.8c2.8-3.1,6.5-4.8,10.5-4.8h0.1c4,0,7.8,1.7,10.7,4.8C362,185.6,362,195.6,356.2,201.9z"/>
</g>
</svg>
