<?xml version="1.0" encoding="utf-8"?>
<!-- Generator: Adobe Illustrator 19.2.0, SVG Export Plug-In . SVG Version: 6.00 Build 0)  -->
<svg version="1.1" id="Layer_1" xmlns="http://www.w3.org/2000/svg" xmlns:xlink="http://www.w3.org/1999/xlink" x="0px" y="0px"
	 viewBox="0 0 512 512" style="enable-background:new 0 0 512 512;" xml:space="preserve">
<g>
	<path d="M45.5,404c0,8.8,7.2,16,16,16h390.1c8.8,0,16-7.2,16-16s-7.2-16-16-16H61.5C52.7,388,45.5,395.2,45.5,404z"/>
	<path d="M484.6,463H28.5c-8.8,0-16,7.2-16,16s7.2,16,16,16h456.1c8.8,0,16-7.2,16-16S493.5,463,484.6,463z"/>
	<path d="M501.1,128.2L266.7,3.5c-4.7-2.4-10.2-2.5-14.9,0L12.2,128.1c-7.8,4.1-10.9,13.7-6.8,21.6c2.9,5.5,8.4,8.6,14.2,8.6
		c2.5,0,5-0.6,7.4-1.8L259.1,35.8l227,120.7c7.8,4.1,17.5,1.2,21.6-6.6C511.9,142,508.9,132.3,501.1,128.2z"/>
	<path d="M256.6,344.8c8.8,0,16-7.2,16-16V206h12c8.8,0,16-7.2,16-16s-7.2-16-16-16h-56c-8.8,0-16,7.2-16,16s7.2,16,16,16h12v122.8
		C240.6,337.6,247.7,344.8,256.6,344.8z"/>
	<path d="M115.6,344.8c8.8,0,16-7.2,16-16V206h12c8.8,0,16-7.2,16-16s-7.2-16-16-16h-56c-8.8,0-16,7.2-16,16s7.2,16,16,16h12v122.8
		C99.6,337.6,106.7,344.8,115.6,344.8z"/>
	<path d="M397.6,344.8c8.8,0,16-7.2,16-16V206h12c8.8,0,16-7.2,16-16s-7.2-16-16-16h-56c-8.8,0-16,7.2-16,16s7.2,16,16,16h12v122.8
		C381.6,337.6,388.7,344.8,397.6,344.8z"/>
</g>
</svg>
