<?xml version="1.0" encoding="utf-8"?>
<!-- Generator: Adobe Illustrator 19.2.0, SVG Export Plug-In . SVG Version: 6.00 Build 0)  -->
<svg version="1.1" id="Layer_1" xmlns="http://www.w3.org/2000/svg" xmlns:xlink="http://www.w3.org/1999/xlink" x="0px" y="0px"
	 viewBox="0 0 512 512" style="enable-background:new 0 0 512 512;" xml:space="preserve">
<g>
	<path d="M151,191.4h-48c-4.4,0-8,3.6-8,8v208c0,4.4,3.6,8,8,8h48c4.4,0,8-3.6,8-8v-208C159,195,155.4,191.4,151,191.4z"/>
	<path d="M470.9,126.3L259.1,1.8c-2.5-1.5-5.6-1.5-8.1,0L41,126.3c-1.2,0.7-2.6,1.1-4.1,1.1H7c-4.4,0-8,3.6-8,8l0,0v16
		c0,4.4,3.6,8,8,8h496c4.4,0,8-3.6,8-8v-16l0,0c0-4.4-3.6-8-8-8h-28C473.5,127.4,472.1,127,470.9,126.3z"/>
</g>
<path d="M231,415.4h48c4.4,0,8-3.6,8-8v-208c0-4.4-3.6-8-8-8h-48c-4.4,0-8,3.6-8,8v208C223,411.8,226.6,415.4,231,415.4z"/>
<path d="M359,415.4h48c4.4,0,8-3.6,8-8v-208c0-4.4-3.6-8-8-8h-48c-4.4,0-8,3.6-8,8v208C351,411.8,354.6,415.4,359,415.4z"/>
<path d="M479,471.4v-16c0-4.4-3.6-8-8-8H39c-4.4,0-8,3.6-8,8v16c0,4.4-3.6,8-8,8H7c-4.4,0-8,3.6-8,8v16c0,4.4,3.6,8,8,8h496
	c4.4,0,8-3.6,8-8v-16c0-4.4-3.6-8-8-8h-16C482.6,479.4,479,475.8,479,471.4z"/>
</svg>
