<?xml version="1.0" encoding="utf-8"?>
<!-- Generator: Adobe Illustrator 19.1.0, SVG Export Plug-In . SVG Version: 6.00 Build 0)  -->
<svg version="1.1" id="Layer_1" xmlns="http://www.w3.org/2000/svg" xmlns:xlink="http://www.w3.org/1999/xlink" x="0px" y="0px"
	 viewBox="0 0 512 512" style="enable-background:new 0 0 512 512;" xml:space="preserve">
<circle style="fill:#EFEFEF;" cx="256" cy="256" r="255.7"/>
<path style="fill:#DEEEF9;" d="M229.9,202.2h106.8c4.7,0,9.1,1.8,12.4,4.7h24v-9.9c0-4.5-3.7-8.2-8.2-8.2H255.8h-0.2h-36.8h-0.1L229.9,202.2z"
	/>
<path style="fill:#DEEEF9;" d="M365.1,328.3c1.3,0,2.6-0.3,3.7-0.9c2.6-1.4,4.3-4.1,4.3-7.2V217.8h-17.7c0.2,1.1,0.3,2.2,0.3,3.3v107.2h0v0.1
	h0.2v-0.1H365.1z"/>
<path style="fill:#5284A0;" d="M349.2,206.8c3.2,2.8,5.5,6.6,6.3,11h17.7h0.2v-11h-0.2H349.2z"/>
<path style="fill:#5284A0;" d="M364.9,177.9H258.1l-22.7-27.3c-1.1-1.2-2.5-1.9-4.1-1.9h-69.9c-3,0-5.4,2.4-5.4,5.4v18.9h0.1h10.6h0.1v-13.5
	h62h0.1l15.4,18.6h-0.1h-34.3l8.9,10.6h36.8h0.2h109.1h0.2c4.5,0,8.2,3.7,8.2,8.2v9.9v11v102.3c0,3.2-1.8,5.9-4.5,7.3
	c-1.1,0.6-2.4,0.9-3.7,0.9h-9.2v0.1V339h9.2c10.4,0,19-8.5,19-19V196.9C383.9,186.4,375.4,177.9,364.9,177.9z"/>
<path style="fill:#DEEEF9;" d="M206.9,174.5c0.1,0.1,0.3,0.3,0.4,0.4l2.5,3.1h0.1h34.3l-15.4-18.6h-62v13.5h36.3
	C204.6,172.9,205.9,173.5,206.9,174.5z"/>
<path style="fill:#44ADFC;" d="M345,221.1c0-4.5-3.7-8.2-8.2-8.2H227.4h-88.8v15.9H345V221.1z"/>
<path style="fill:#44ADFC;" d="M138.6,344.3c0,4.5,3.7,8.2,8.2,8.2h189.9c0,0,0,0,0,0c4.5,0,8.2-3.7,8.2-8.2V239.8H138.6V344.3z"/>
<path style="fill:#356787;" d="M355.7,328.3V221.1c0-1.1-0.1-2.2-0.3-3.3c-0.8-4.4-3-8.2-6.3-11c-3.3-2.9-7.7-4.7-12.4-4.7H229.9l-11.2-13.5
	l-0.1-0.1l-8.9-10.6l-2.5-3.1c-0.1-0.1-0.2-0.2-0.3-0.4c-1-1-2.3-1.6-3.8-1.6h-36.3h-0.1h-10.6H156h-22.7c-3,0-5.4,2.4-5.4,5.4v29.2
	v136.8c0,10.4,8.5,19,19,19h189.9c10.4,0,19-8.5,19-19V339L355.7,328.3L355.7,328.3L355.7,328.3z M138.6,183.7h62.1l15.4,18.6H216
	h-77.4V183.7z M345,239.8L345,239.8l0,104.5c0,4.6-3.6,8.2-8.2,8.2c0,0,0,0,0,0H146.9c-4.5,0-8.2-3.7-8.2-8.2V239.8h0v-11h0v-15.9
	h88.8h109.3c4.5,0,8.2,3.7,8.2,8.2v7.7h0V239.8z"/>
<polygon style="fill:#44ADFC;" points="200.7,183.7 138.6,183.7 138.6,202.3 216,202.3 "/>
<polygon style="fill:#356787;" points="138.6,228.8 138.6,228.8 138.6,239.8 138.6,239.8 345,239.8 345,239.8 345,228.8 345,228.8 "/>
</svg>
