<?xml version="1.0" encoding="utf-8"?>
<!-- Generator: Adobe Illustrator 19.1.0, SVG Export Plug-In . SVG Version: 6.00 Build 0)  -->
<svg version="1.1" id="Layer_1" xmlns="http://www.w3.org/2000/svg" xmlns:xlink="http://www.w3.org/1999/xlink" x="0px" y="0px"
	 viewBox="0 0 512 512" enable-background="new 0 0 512 512" xml:space="preserve">
<circle fill="#EFEFEF" cx="256" cy="256" r="256"/>
<polygon fill="#44ADFC" points="126,319.8 213.1,237.8 126,189.9 "/>
<polygon fill="#44ADFC" points="298.9,237.8 385.8,319.6 385.8,190 "/>
<polygon fill="#D7EBF9" points="223.4,232.6 223.4,232.6 256,250.6 288.6,232.6 288.6,232.6 370.6,187.5 141.4,187.5 "/>
<path fill="#44ADFC" d="M290.1,242.7l-31.8,17.5c-1.4,0.8-3.2,0.8-4.6,0l-31.8-17.5l-87.1,81.9H256h121.2L290.1,242.7z"/>
<path fill="#356787" d="M393.9,329.4v-0.1V182.7c0-0.1,0-0.1,0-0.2c0-0.2,0-0.4-0.1-0.6c0-0.1,0-0.2-0.1-0.3v-0.1
	c0-0.2-0.1-0.3-0.2-0.4c0-0.1-0.1-0.2-0.1-0.3c-0.1-0.3-0.2-0.5-0.4-0.7l-0.1-0.1c-0.1-0.2-0.3-0.4-0.4-0.5s-0.1-0.1-0.2-0.2
	c-0.1-0.1-0.3-0.2-0.4-0.4c-0.1-0.1-0.2-0.1-0.3-0.2c-0.1-0.1-0.3-0.2-0.5-0.3c-0.1,0-0.2-0.1-0.3-0.1c-0.2-0.1-0.4-0.1-0.5-0.2
	c-0.1,0-0.2-0.1-0.3-0.1c-0.3-0.1-0.6-0.1-0.9-0.1H122.8c-0.3,0-0.6,0-0.9,0.1c-0.1,0-0.2,0-0.3,0.1c-0.2,0-0.4,0.1-0.5,0.2
	c-0.1,0-0.2,0.1-0.3,0.1c-0.2,0.1-0.3,0.2-0.5,0.3c-0.1,0.1-0.2,0.1-0.3,0.2c-0.2,0.1-0.3,0.2-0.4,0.4c-0.1,0.1-0.1,0.1-0.2,0.2
	c-0.2,0.2-0.3,0.4-0.4,0.5l-0.1,0.1c-0.2,0.2-0.3,0.5-0.4,0.7c0,0.1-0.1,0.2-0.1,0.3c-0.1,0.1-0.1,0.3-0.2,0.4v0.1
	c0,0.1,0,0.2-0.1,0.3c0,0.2-0.1,0.4-0.1,0.6c0,0.1,0,0.1,0,0.2v146.6v0.1c0,0.2,0,0.5,0.1,0.7c0,0.1,0,0.1,0,0.2
	c0.1,0.3,0.1,0.5,0.2,0.7l0,0c0,0.1,0.1,0.1,0.1,0.2c0.1,0.2,0.2,0.4,0.3,0.5c0.1,0.1,0.1,0.2,0.2,0.2c0.1,0.2,0.2,0.3,0.4,0.5
	c0.1,0.1,0.1,0.1,0.2,0.2c0.2,0.2,0.4,0.4,0.6,0.5c0,0,0,0,0.1,0c0.2,0.1,0.4,0.3,0.7,0.4c0.1,0,0.2,0.1,0.3,0.1
	c0.2,0.1,0.4,0.1,0.6,0.2c0.1,0,0.2,0,0.3,0.1c0.3,0.1,0.6,0.1,0.9,0.1h133h133.2c0.3,0,0.6,0,0.9-0.1c0.1,0,0.2,0,0.3-0.1
	c0.2,0,0.4-0.1,0.6-0.2c0.1,0,0.2-0.1,0.3-0.1c0.2-0.1,0.4-0.2,0.7-0.4c0,0,0,0,0.1,0c0.2-0.2,0.4-0.3,0.6-0.5
	c0.1-0.1,0.1-0.1,0.2-0.2s0.3-0.3,0.4-0.5c0.1-0.1,0.1-0.2,0.2-0.2c0.1-0.2,0.2-0.4,0.3-0.5c0-0.1,0.1-0.1,0.1-0.2l0,0
	c0.1-0.2,0.2-0.5,0.2-0.7c0-0.1,0-0.1,0-0.2C393.9,329.9,393.9,329.7,393.9,329.4z M134.8,324.5l87.1-81.9l31.8,17.5
	c1.4,0.8,3.2,0.8,4.6,0l31.8-17.5l87,81.9H256H134.8z M288.6,232.6L288.6,232.6l-32.6,18l-32.6-17.9l0,0l-82.1-45.2h229.3
	L288.6,232.6z M213.1,237.8l-87.1,82V189.9L213.1,237.8z M298.9,237.8l87-47.9v129.7L298.9,237.8z"/>
</svg>
