<?xml version="1.0" encoding="utf-8"?>
<!-- Generator: Adobe Illustrator 19.1.0, SVG Export Plug-In . SVG Version: 6.00 Build 0)  -->
<svg version="1.1" id="Layer_1" xmlns="http://www.w3.org/2000/svg" xmlns:xlink="http://www.w3.org/1999/xlink" x="0px" y="0px"
	 viewBox="0 0 512 512" style="enable-background:new 0 0 512 512;" xml:space="preserve">
<circle style="fill:#EFEFEF;" cx="256" cy="256" r="255.7"/>
<path style="fill:none;" d="M258.3,193c0.3,4.1-1.1,7.9-3.9,11c-0.6,0.6-1.2,1.2-1.9,1.7c0.7-0.5,1.4-1.1,2-1.7
	C257.3,201,258.6,197.1,258.3,193c-0.4-7.2-6.5-13.2-13.7-13.5c-0.5,0-1.1,0-1.6,0c0.5,0,1,0,1.5,0
	C251.8,179.9,257.8,185.8,258.3,193z"/>
<path style="fill:none;" d="M213.3,210C213.3,210,213.3,210,213.3,210C213.3,210,213.3,210,213.3,210z"/>
<path style="fill:none;" d="M213.2,155.6v21.3c0,2.9,1.2,5.8,3.4,7.7c1.8,1.7,4.2,2.6,6.5,2.7h0.2c0,0,0,0,0,0h-0.1c-2.4-0.1-4.8-1-6.5-2.7
	c-2.1-2-3.4-4.8-3.4-7.7L213.2,155.6c0.1-2.6-2-4.6-4.5-4.6h-0.1C211.1,151,213.2,153.1,213.2,155.6z"/>
<path style="fill:none;" d="M264,363.2h-84.6c-4.2,0-7.7-3.5-7.7-7.7v0.1c0,4.2,3.5,7.7,7.7,7.7L264,363.2c4.2,0.1,7.7-3.4,7.7-7.6v-0.1
	C271.7,359.7,268.3,363.2,264,363.2z"/>
<path style="fill:#44ADFC;" d="M213.2,234.8v-23.6c0-0.4,0-0.7,0.1-1.1c0,0,0,0,0,0c0.3-2.5,1.4-4.9,3.3-6.6c1.8-1.6,4.1-2.6,6.5-2.7h0.1h0.1
	c4.3-0.2,7.6,1.6,9.1,2.7c0.3,0.2,0.5,0.3,0.7,0.6c2.8,3,6.5,4.6,10.6,4.6c3.2,0,6.2-1.1,8.7-2.9c0.7-0.5,1.3-1.1,1.9-1.7
	c2.8-3.1,4.2-6.9,3.9-11c-0.5-7.2-6.5-13.1-13.8-13.5c-0.5,0-1,0-1.5,0c-3.7,0.2-7.2,1.8-9.8,4.6c-0.3,0.3-0.6,0.6-0.9,0.8
	c-2.6,1.7-5.8,2.6-8.9,2.5h-0.1c0,0,0,0,0,0h-0.2c-2.4-0.1-4.8-1-6.5-2.7c-2.2-2-3.4-4.8-3.4-7.7v-21.3c0-2.6-2-4.6-4.6-4.6h-79.1
	c-2.6,0-4.6,2-4.6,4.6v79.2c0,2.6,2,4.6,4.6,4.6h79.2C211.2,239.4,213.2,237.3,213.2,234.8z"/>
<path style="fill:#356787;" d="M222.3,234.7v-23.6c0-0.4,0.2-0.8,0.5-1.1c0.3-0.2,0.5-0.3,0.8-0.3h0.1c1.4-0.1,2.6,0.5,3.3,0.9
	c4.4,4.5,10.5,7.1,16.8,7.1c6.5,0,12.8-2.7,17.3-7.5s6.6-11.1,6.2-17.7c-0.9-11.9-10.5-21.3-22.4-21.9c-6.7-0.3-13.3,2.2-17.9,7
	c-0.8,0.4-2,0.9-3.5,0.9c-0.3,0-0.5-0.1-0.8-0.3c-0.3-0.3-0.5-0.7-0.5-1.1v-21.3c0-7.6-6.1-13.7-13.7-13.7h-79.2
	c-7.6,0-13.7,6.1-13.7,13.7v79.2c0,7.6,6.1,13.7,13.7,13.7h79.2C216.2,248.4,222.3,242.3,222.3,234.7z M124.9,234.8v-79.2
	c0-2.6,2-4.6,4.6-4.6h79.1h0.1c2.6,0,4.6,2,4.6,4.6v21.3c0,3,1.3,5.8,3.4,7.7c1.8,1.7,4.2,2.6,6.5,2.7h0.1h0.1
	c3.1,0.1,6.3-0.8,8.9-2.5c0.3-0.2,0.6-0.4,0.9-0.8c2.5-2.8,6-4.4,9.8-4.6c0.5,0,1.1,0,1.6,0c7.2,0.3,13.3,6.3,13.8,13.5
	c0.3,4.1-1.1,8-3.9,11c-0.6,0.6-1.3,1.2-2,1.7c-2.5,1.8-5.5,2.9-8.7,2.9c-4.1,0-7.8-1.6-10.6-4.6c-0.2-0.3-0.4-0.4-0.7-0.6
	c-1.5-1.1-4.8-2.9-9.1-2.7h-0.1h-0.1c-2.5,0.1-4.8,1.1-6.5,2.7c-1.9,1.7-3.1,4.1-3.3,6.6c0,0,0,0,0,0c0,0.4-0.1,0.7-0.1,1.1v23.6
	c0,2.6-2,4.6-4.6,4.6h-79.2C127,239.4,124.9,237.3,124.9,234.8z"/>
<path style="fill:#DEEEF9;" d="M264,262.8h-84.6c-4.2,0-7.7,3.5-7.7,7.7v85c0,4.2,3.5,7.7,7.7,7.7H264c4.2,0,7.7-3.5,7.7-7.7v-22.6
	c-1.3,0-2.4,0.4-3.1,0.8c-5.5,5.5-13.1,8.5-21,8.1c-14-0.7-25.2-11.7-26.2-25.7c-0.5-7.8,2.1-15.1,7.4-20.8
	c5.2-5.6,12.6-8.8,20.2-8.8c7.4,0,14.5,3,19.7,8.2c0.6,0.4,1.7,0.8,3,0.9v-25.2C271.7,266.2,268.3,262.8,264,262.8z"/>
<path style="fill:#5284A0;" d="M273,333.9c0-0.4-0.2-0.7-0.4-0.8c-0.2-0.2-0.4-0.2-0.5-0.2c0,0-0.1,0-0.1,0c-0.1,0-0.2,0-0.3,0v22.6v0.1
	c0,4.2-3.5,7.7-7.7,7.7h-84.6c-4.2,0-7.7-3.5-7.7-7.7v-0.1v-85c0-4.2,3.5-7.7,7.7-7.7H264c4.2,0,7.7,3.5,7.7,7.7v25.2
	c0.1,0,0.2,0,0.4,0c0.1,0,0.3,0,0.6-0.2c0.1-0.1,0.4-0.4,0.4-0.8v-24.4c0-4.5,1.6-8.7,4.3-11.9c-3.3-3.6-8-5.9-13.3-5.9h-84.6
	c-9.9,0-18.1,8.1-18.1,18.1v85c0,9.9,8.1,18.1,18.1,18.1H264c4.9,0,9.3-2,12.6-5.2c-2.2-2.8-3.6-6.3-3.6-10.1V333.9z"/>
<path style="fill:#DEEEF9;" d="M377.5,263h-22.7c0.1,0.9,0.4,1.7,0.7,2.2c5.6,5.6,8.6,13.4,8.1,21.4c-0.9,13.8-12,24.9-25.8,25.8
	c-3.4,0.2-6.8-0.2-10-1.2c-4-1.2-7.7-3.3-10.9-6.3c-5.6-5.2-8.8-12.6-8.8-20.2c0-7.4,3-14.5,8.2-19.7c0.3-0.4,0.6-1.1,0.8-2h-25.2
	c-4,0-7.2,3.2-7.2,7.2v24.4c0,3.5-1.5,6.9-4.1,9.3c-2.2,2-5,3.2-7.9,3.3l-0.2,0c-5.2,0.1-9-2-10.8-3.3c-0.3-0.2-0.6-0.5-0.9-0.8
	c-3.1-3.3-7.2-5.1-11.7-5.1c-4.5,0-8.7,1.8-11.7,5.1c-3.1,3.3-4.6,7.6-4.3,12.1c0.5,7.9,7.2,14.5,15.2,14.9
	c4.8,0.2,9.3-1.6,12.5-5.1c0.3-0.4,0.7-0.7,1.1-0.9c2.2-1.4,5.8-3,10.5-2.9c0,0,0.1,0,0.1,0c2.9,0.1,5.7,1.3,7.9,3.3
	c2.6,2.4,4.1,5.8,4.1,9.3v24.3c0,2.6,2.1,4.7,4.7,4.7H380c2.6,0,4.7-2.1,4.7-4.7v-88C384.7,266.3,381.4,263,377.5,263z"/>
<path style="fill:#5284A0;" d="M390.4,256.7c3.4-3,5.6-7.3,5.6-12.2v-90.7c0-9-7.3-16.3-16.3-16.3h-88c-10.4,0-18.8,8.4-18.8,18.8v26.9
	c0,1.6,0.7,3.2,1.9,4.3c2.2,2,5,3.2,8,3.3c0,0,0.1,0,0.1,0c4.7,0.1,8.3-1.5,10.5-2.9c0.4-0.3,0.8-0.6,1.1-0.9
	c3.3-3.5,8-5.4,12.8-5.1c7.9,0.5,14.5,7.1,14.9,15c0.3,4.5-1.3,8.8-4.3,12c-3.1,3.3-7.2,5.1-11.7,5.1c-4.5,0-8.6-1.8-11.7-5.1
	c-0.3-0.3-0.6-0.5-0.9-0.8c-1.8-1.3-5.6-3.4-10.8-3.3l-0.2,0c-2.9,0.1-5.7,1.3-7.9,3.3c-1.2,1.1-1.9,2.6-1.9,4.3v29.7
	c0,5.7,2.5,10.7,6.5,14.2c-0.8,0.7-1.5,1.4-2.2,2.2c-2.7,3.2-4.3,7.4-4.3,11.9v24.4c0,0.4-0.2,0.7-0.4,0.8c-0.2,0.2-0.4,0.2-0.6,0.2
	c-0.1,0-0.2,0-0.4,0c-1.3,0-2.4-0.5-3-0.9c-5.2-5.2-12.3-8.2-19.7-8.2c-7.6,0-15,3.2-20.2,8.8c-5.3,5.7-7.9,13-7.4,20.8
	c1,13.9,12.2,25,26.2,25.7c7.9,0.4,15.4-2.5,21-8.1c0.7-0.4,1.8-0.8,3.1-0.8c0.1,0,0.2,0,0.3,0c0,0,0.1,0,0.1,0c0.1,0,0.3,0,0.5,0.2
	c0.1,0.1,0.4,0.4,0.4,0.8v24.3c0,3.8,1.3,7.4,3.6,10.1c3,3.7,7.6,6.1,12.7,6.1H380c9,0,16.3-7.3,16.3-16.3v-88
	C396.3,264.9,394,260.1,390.4,256.7z M284.5,216.4c0.9,0.2,1.6,0.5,2.1,0.8c5.2,5.2,12.3,8.2,19.7,8.2c7.6,0,14.9-3.2,20.1-8.7
	c5.3-5.6,7.9-13,7.4-20.7c-0.9-13.8-11.9-24.9-25.8-25.8c-8-0.5-15.7,2.4-21.4,8.1c-0.5,0.3-1.3,0.6-2.2,0.7v-22.7
	c0-4,3.2-7.2,7.2-7.2h88c2.6,0,4.7,2.1,4.7,4.7v90.7c0,2.6-2.1,4.7-4.7,4.7h-24.3c-3.5,0-6.9,1.5-9.3,4.1c-2,2.2-3.2,5-3.3,8
	c0,0,0,0.1,0,0.1c-0.1,4.7,1.5,8.3,2.9,10.5c0.3,0.4,0.6,0.8,0.9,1.1c3.5,3.2,5.3,7.8,5.1,12.5c-0.4,8-6.9,14.6-14.9,15.2
	c-4.5,0.3-8.8-1.2-12.1-4.3c-3.3-3.1-5.1-7.2-5.1-11.7c0-4.5,1.8-8.6,5.1-11.7c0.3-0.3,0.5-0.6,0.8-0.9c1.3-1.8,3.4-5.7,3.3-10.8
	l0-0.2c-0.1-2.9-1.3-5.7-3.3-7.9c-2.4-2.6-5.8-4.1-9.3-4.1h-24.4c-4,0-7.2-3.2-7.2-7.2V216.4z M384.7,358.2c0,2.6-2.1,4.7-4.7,4.7
	h-90.7c-2.6,0-4.7-2.1-4.7-4.7v-24.3c0-3.5-1.5-6.9-4.1-9.3c-2.2-2-5-3.2-7.9-3.3c-0.1,0-0.1,0-0.1,0c-4.7-0.1-8.3,1.5-10.5,2.9
	c-0.4,0.3-0.8,0.6-1.1,0.9c-3.2,3.5-7.8,5.3-12.5,5.1c-8-0.4-14.6-6.9-15.2-14.9c-0.3-4.5,1.2-8.8,4.3-12.1
	c3.1-3.3,7.2-5.1,11.7-5.1c4.5,0,8.6,1.8,11.7,5.1c0.3,0.3,0.6,0.5,0.9,0.8c1.8,1.3,5.6,3.4,10.8,3.3l0.2,0c2.9-0.1,5.7-1.3,7.9-3.3
	c2.6-2.4,4.1-5.8,4.1-9.3v-24.4c0-4,3.2-7.2,7.2-7.2H317c-0.2,0.9-0.5,1.6-0.8,2c-5.2,5.2-8.2,12.3-8.2,19.7c0,7.6,3.2,15,8.8,20.2
	c3.2,3,6.9,5.1,10.9,6.3c3.2,1,6.6,1.4,10,1.2c13.8-0.9,24.9-11.9,25.8-25.8c0.5-8-2.4-15.7-8.1-21.4c-0.3-0.5-0.6-1.3-0.7-2.2h22.7
	c4,0,7.2,3.2,7.2,7.2V358.2z"/>
<path style="fill:#DEEEF9;" d="M291.7,249.1h24.4c3.5,0,6.9,1.5,9.3,4.1c2,2.2,3.2,5,3.3,7.9l0,0.2c0.2,5.1-2,9-3.3,10.8
	c-0.2,0.3-0.5,0.6-0.8,0.9c-3.3,3.1-5.1,7.2-5.1,11.7c0,4.5,1.8,8.7,5.1,11.7c3.3,3.1,7.6,4.6,12.1,4.3c7.9-0.5,14.5-7.2,14.9-15.2
	c0.2-4.7-1.6-9.3-5.1-12.5c-0.4-0.3-0.7-0.7-0.9-1.1c-1.4-2.2-3-5.8-2.9-10.5c0,0,0-0.1,0-0.1c0.1-3,1.3-5.8,3.3-8
	c2.4-2.6,5.8-4.1,9.3-4.1h24.3c2.6,0,4.7-2.1,4.7-4.7v-90.7c0-2.6-2.1-4.7-4.7-4.7h-88c-4,0-7.2,3.2-7.2,7.2V179
	c0.9-0.1,1.7-0.4,2.2-0.7c5.6-5.6,13.4-8.6,21.4-8.1c13.8,0.9,24.9,12,25.8,25.8c0.5,7.7-2.2,15.1-7.4,20.7
	c-5.2,5.5-12.5,8.7-20.1,8.7c-7.4,0-14.5-3-19.7-8.2c-0.5-0.3-1.2-0.6-2.1-0.8v25.5C284.5,245.9,287.8,249.1,291.7,249.1z"/>
</svg>
