<?xml version="1.0" encoding="utf-8"?>
<!-- Generator: Adobe Illustrator 19.1.0, SVG Export Plug-In . SVG Version: 6.00 Build 0)  -->
<svg version="1.1" id="Layer_1" xmlns="http://www.w3.org/2000/svg" xmlns:xlink="http://www.w3.org/1999/xlink" x="0px" y="0px"
	 viewBox="0 0 512 512" style="enable-background:new 0 0 512 512;" xml:space="preserve">
<circle style="fill:#EFEFEF;" cx="256" cy="256" r="256"/>
<path style="fill:#DEEEF9;" d="M162.9,386.7c0,1.6,1.3,3,3,3h180.3c1.6,0,3-1.3,3-3V286.3H162.9V386.7z M200.1,308.9h111.8c2.8,0,5,2.2,5,5
	s-2.2,5-5,5H200.1c-2.8,0-5-2.2-5-5S197.3,308.9,200.1,308.9z M200.1,348.9h100.8c2.8,0,5,2.2,5,5s-2.2,5-5,5H200.1
	c-2.8,0-5-2.2-5-5S197.3,348.9,200.1,348.9z"/>
<path style="fill:#5284A0;" d="M354,286.3h-4.9v100.4c0,1.6-1.3,3-3,3H165.8c-1.6,0-3-1.3-3-3V286.3H158c-0.5,0-1-0.1-1.5-0.3h-3.6v100.7
	c0,7.2,5.8,13,13,13h180.3c7.2,0,13-5.8,13-13V286h-3.6C355,286.2,354.5,286.3,354,286.3z"/>
<path style="fill:#44ADFC;" d="M125,281.3c0-3.8-2.8-6.9-6.5-6.9c-3.6,0-6.5,3.1-6.5,6.9c0,3.8,2.8,6.9,6.5,6.9
	C122.2,288.2,125,285.1,125,281.3z"/>
<path style="fill:#44ADFC;" d="M393.3,273.1c-3.5,0-6.5,3.1-6.5,6.9c0,3.8,3,6.9,6.5,6.9c3.6,0,6.5-3.1,6.5-6.9
	C399.8,276.2,396.9,273.1,393.3,273.1z"/>
<path style="fill:#356787;" d="M393.3,263.2c-7.8,0-14.3,5.6-16,13.1H359l0,5c0,2.2-1.5,4.1-3.5,4.7h3.6h19c2.4,6.2,8.3,10.6,15.2,10.6
	c9,0,16.3-7.5,16.3-16.8C409.6,270.7,402.3,263.2,393.3,263.2z M399.8,280c0,3.8-2.9,6.9-6.5,6.9c-3.5,0-6.5-3.1-6.5-6.9
	c0,0,0,0,0-0.1c0-3.9,2.9-7,6.5-7C396.9,273,399.8,276.1,399.8,280C399.8,280,399.8,280,399.8,280z"/>
<path style="fill:#356787;" d="M153,281.3l0-5h-18.7c-2.1-6.8-8.3-11.9-15.7-11.9c-9,0-16.3,7.5-16.3,16.8c0,9.3,7.3,16.8,16.3,16.8
	c7.4,0,13.6-5,15.7-11.9h18.6h3.6C154.4,285.4,153,283.5,153,281.3z M118.6,288.2C118.6,288.2,118.6,288.2,118.6,288.2
	c-3.7,0-6.5-3.1-6.5-7c0-3.8,2.8-6.9,6.5-6.9c0,0,0,0,0.1,0c3.5,0,6.5,3.1,6.5,7C125.1,285.1,122.3,288.2,118.6,288.2z"/>
<path style="fill:#44ADFC;" d="M349,276.3l0.2-124.9v-15.1l-10.2,17.6c-0.9,1.5-2.5,2.5-4.3,2.5s-3.4-1-4.3-2.5l-15.3-26.5l-15.3,26.5
	c-0.9,1.5-2.5,2.5-4.3,2.5s-3.4-1-4.3-2.5l-15.3-26.5l-15.3,26.5c-0.9,1.5-2.5,2.5-4.3,2.5c-1.8,0-3.4-1-4.3-2.5l-15.3-26.5
	l-15.3,26.5c-0.9,1.5-2.5,2.5-4.3,2.5s-3.4-1-4.3-2.5l-15.3-26.5l-15.3,26.5c-0.9,1.5-2.5,2.5-4.3,2.5s-3.4-1-4.3-2.5l-10.4-18.1
	l-0.1,15.6l0.2,124.9H349z M200.1,188.9h59.1c2.8,0,5,2.2,5,5s-2.2,5-5,5h-59.1c-2.8,0-5-2.2-5-5S197.3,188.9,200.1,188.9z
	 M200.1,228.9h111.8c2.8,0,5,2.2,5,5s-2.2,5-5,5H200.1c-2.8,0-5-2.2-5-5S197.3,228.9,200.1,228.9z"/>
<path style="fill:#356787;" d="M153,281.3c0,2.2,1.5,4.1,3.5,4.7c0.5,0.2,1,0.3,1.5,0.3h4.9h186.3h4.9c0.5,0,1-0.1,1.5-0.3
	c2-0.6,3.5-2.5,3.5-4.7l0-5l0.2-124.8v-33.9c0-2.3-1.5-4.2-3.7-4.8c-2.2-0.6-4.5,0.4-5.6,2.3l-15.2,26.3l-15.3-26.5
	c-0.9-1.5-2.5-2.5-4.3-2.5s-3.4,1-4.3,2.5l-15.3,26.5l-15.3-26.5c-0.9-1.5-2.5-2.5-4.3-2.5s-3.4,1-4.3,2.5l-15.3,26.5l-15.3-26.5
	c-0.9-1.5-2.5-2.5-4.3-2.5s-3.4,1-4.3,2.5l-15.3,26.5l-15.3-26.5c-0.9-1.5-2.5-2.5-4.3-2.5s-3.4,1-4.3,2.5l-15.3,26.5l-15.3-26.5
	c-1.1-2-3.4-2.9-5.6-2.3c-2.2,0.6-3.7,2.5-3.7,4.8l-0.2,34.1l0.2,125L153,281.3z M162.8,151.4l0.1-15.6l10.4,18.1
	c0.9,1.5,2.5,2.5,4.3,2.5s3.4-1,4.3-2.5l15.3-26.5l15.3,26.5c0.9,1.5,2.5,2.5,4.3,2.5s3.4-1,4.3-2.5l15.3-26.5l15.3,26.5
	c0.9,1.5,2.5,2.5,4.3,2.5c1.8,0,3.4-1,4.3-2.5l15.3-26.5l15.3,26.5c0.9,1.5,2.5,2.5,4.3,2.5s3.4-1,4.3-2.5l15.3-26.5l15.3,26.5
	c0.9,1.5,2.5,2.5,4.3,2.5s3.4-1,4.3-2.5l10.2-17.6v15.1L349,276.3H163L162.8,151.4z"/>
<path style="fill:#5284A0;" d="M200.1,358.9h100.8c2.8,0,5-2.2,5-5s-2.2-5-5-5H200.1c-2.8,0-5,2.2-5,5S197.3,358.9,200.1,358.9z"/>
<path style="fill:#5284A0;" d="M200.1,318.9h111.8c2.8,0,5-2.2,5-5s-2.2-5-5-5H200.1c-2.8,0-5,2.2-5,5S197.3,318.9,200.1,318.9z"/>
<path style="fill:#356787;" d="M200.1,238.9h111.8c2.8,0,5-2.2,5-5s-2.2-5-5-5H200.1c-2.8,0-5,2.2-5,5S197.3,238.9,200.1,238.9z"/>
<path style="fill:#356787;" d="M200.1,198.9h59.1c2.8,0,5-2.2,5-5s-2.2-5-5-5h-59.1c-2.8,0-5,2.2-5,5S197.3,198.9,200.1,198.9z"/>
</svg>
