<?xml version="1.0" encoding="utf-8"?>
<!-- Generator: Adobe Illustrator 19.1.0, SVG Export Plug-In . SVG Version: 6.00 Build 0)  -->
<svg version="1.1" id="Layer_1" xmlns="http://www.w3.org/2000/svg" xmlns:xlink="http://www.w3.org/1999/xlink" x="0px" y="0px"
	 viewBox="0 0 512 512" style="enable-background:new 0 0 512 512;" xml:space="preserve">

<circle style="fill:#EFEFEF;" cx="256" cy="256" r="256"/>
<path style="fill:#44ADFC;" d="M172.9,245.6v107.5c0,0.4,0,0.8-0.1,1.1v11.2l8.6-14.8c0.9-1.6,2.5-2.5,4.3-2.5c1.8,0,3.4,0.9,4.3,2.5
	l13.4,23.2l13.4-23.2c0.9-1.6,2.5-2.5,4.3-2.5c1.8,0,3.4,0.9,4.3,2.5l13.4,23.2l12.9-22.4c0.9-1.6,2.5-2.5,4.3-2.5s3.4,0.9,4.3,2.5
	l12.9,22.4l13.4-23.2c0.9-1.6,2.5-2.5,4.3-2.5s3.4,0.9,4.3,2.5l13.4,23.2l13.4-23.2c0.9-1.6,2.5-2.5,4.3-2.5c1.8,0,3.4,0.9,4.3,2.5
	l8.5,14.7v-11.5c0-0.2-0.1-0.5-0.1-0.7V245.9c0-0.3-0.1-0.5-0.1-0.8V133.4H172.8v111.5C172.8,245.1,172.9,245.3,172.9,245.6z
	 M256,205.6c23.7,0,43,19.3,43,43s-19.3,43-43,43s-43-19.3-43-43S232.3,205.6,256,205.6z"/>
<path style="fill:#DEEEF9;" d="M256,281.7c18.3,0,33.1-14.8,33.1-33.1s-14.8-33.1-33.1-33.1s-33.1,14.8-33.1,33.1
	C222.9,266.9,237.7,281.7,256,281.7z M237.5,243.6H251v-13.5c0-2.7,2.2-5,5-5c2.7,0,5,2.2,5,5v13.5h13.5c2.7,0,5,2.2,5,5
	c0,2.7-2.2,5-5,5H261v13.5c0,2.7-2.2,5-5,5c-2.7,0-5-2.2-5-5v-13.5h-13.5c-2.7,0-5-2.2-5-5C232.5,245.9,234.8,243.6,237.5,243.6z"/>
<path style="fill:#356787;" d="M256,291.6c23.7,0,43-19.3,43-43s-19.3-43-43-43s-43,19.3-43,43S232.3,291.6,256,291.6z M256,215.5
	c18.3,0,33.1,14.8,33.1,33.1s-14.8,33.1-33.1,33.1s-33.1-14.8-33.1-33.1S237.7,215.5,256,215.5z"/>
<path style="fill:#356787;" d="M237.5,253.7H251v13.5c0,2.7,2.2,5,5,5c2.7,0,5-2.2,5-5v-13.5h13.5c2.7,0,5-2.2,5-5c0-2.7-2.2-5-5-5H261v-13.5
	c0-2.7-2.2-5-5-5c-2.7,0-5,2.2-5,5v13.5h-13.5c-2.7,0-5,2.2-5,5C232.5,251.4,234.8,253.7,237.5,253.7z"/>
<path style="fill:#356787;" d="M142.2,133.3h20.7v112.3c0,0.3,0,0.5,0.1,0.8v105.4c-0.1,0.4-0.1,0.7-0.1,1.1v30.5c0,0.8,0.2,1.8,0.6,2.5
	l0.1,0.2c0.9,1.6,2.5,2.5,4.3,2.5l0,0c1.8,0,3.4-0.9,4.3-2.5l13.4-23.2l13.4,23.2c0.9,1.6,2.5,2.5,4.3,2.5s3.4-0.9,4.3-2.5
	l13.4-23.2l13.4,23.2c0.9,1.6,2.5,2.5,4.3,2.5c1.8,0,3.4-0.9,4.3-2.5l12.9-22.4l12.9,22.4c0.9,1.6,2.5,2.5,4.3,2.5s3.4-0.9,4.3-2.5
	l13.4-23.2l13.4,23.2c0.9,1.6,2.5,2.5,4.3,2.5c1.8,0,3.4-0.9,4.3-2.5l13.4-23.2l13.4,23.2c0.9,1.6,2.5,2.5,4.3,2.5l0,0
	c1.8,0,3.4-0.9,4.3-2.5l0.1-0.1c0.4-0.7,0.6-1.6,0.6-2.5v-30.5c0-0.3,0-0.5-0.1-0.7V245.1c0-0.3,0-0.5-0.1-0.8v-111h21.5
	c2.7,0,5-2.2,5-5c0-2.7-2.2-5-5-5h-25.7H167.8h-25.6c-2.7,0-5,2.2-5,5C137.2,131.1,139.5,133.3,142.2,133.3z M339.1,133.3V245
	c0,0.3,0,0.6,0.1,0.8v107.3c0,0.3,0,0.5,0.1,0.7v11.5l-8.5-14.7c-0.9-1.6-2.5-2.5-4.3-2.5c-1.8,0-3.4,0.9-4.3,2.5l-13.4,23.2
	l-13.4-23.2c-0.9-1.6-2.5-2.5-4.3-2.5c-1.8,0-3.4,0.9-4.3,2.5l-13.4,23.2l-12.9-22.4c-0.9-1.6-2.5-2.5-4.3-2.5
	c-1.8,0-3.4,0.9-4.3,2.5l-12.9,22.4l-13.4-23.2c-0.9-1.6-2.5-2.5-4.3-2.5s-3.4,0.9-4.3,2.5l-13.4,23.2l-13.4-23.2
	c-0.9-1.6-2.5-2.5-4.3-2.5s-3.4,0.9-4.3,2.5l-8.6,14.8v-11.2c0.1-0.4,0.1-0.7,0.1-1.1V245.6c0-0.3,0-0.5-0.1-0.8V133.3H339.1z"/>
</svg>
