<?xml version="1.0" encoding="utf-8"?>
<!-- Generator: Adobe Illustrator 19.1.0, SVG Export Plug-In . SVG Version: 6.00 Build 0)  -->
<svg version="1.1" id="Layer_1" xmlns="http://www.w3.org/2000/svg" xmlns:xlink="http://www.w3.org/1999/xlink" x="0px" y="0px"
	 viewBox="0 0 512 512" enable-background="new 0 0 512 512" xml:space="preserve">
<circle fill="#EFEFEF" cx="256" cy="256" r="255.7"/>
<path fill="#44ADFC" d="M347.3,158.7H216.2c-3.3,0-6,2.7-6,6v85.5h33.6c2.8,0,5.4,0.6,7.7,1.8c0,0,0,0,0,0l27.2-27.2h-19.8
	c-3.3,0-6-2.7-6-6s2.7-6,6-6h33.9c3.3,0,6,2.7,6,6v33.9c0,3.3-2.7,6-6,6s-6-2.7-6-6v-19l-26.7,26.7c0,0,0,0,0,0
	c1.1,2.3,1.8,5,1.8,7.7v33.6h85.5c3.3,0,6-2.7,6-6V164.7C353.3,161.3,350.7,158.7,347.3,158.7z"/>
<path fill="#356787" d="M347.3,146.7H216.2c-9.9,0-18,8.1-18,18v85.5h-33.6c-9.9,0-18,8.1-18,18v79.2c0,9.9,8.1,18,18,18h79.2
	c9.9,0,18-8.1,18-18v-33.6h85.5c9.9,0,18-8.1,18-18V164.7C365.3,154.7,357.3,146.7,347.3,146.7z M353.3,295.8c0,3.3-2.7,6-6,6h-85.5
	v-33.6c0-2.8-0.6-5.4-1.8-7.7c0,0,0,0,0,0l26.7-26.7v19c0,3.3,2.7,6,6,6s6-2.7,6-6v-33.9c0-3.3-2.7-6-6-6h-33.9c-3.3,0-6,2.7-6,6
	s2.7,6,6,6h19.8l-27.2,27.2c0,0,0,0,0,0c-2.3-1.1-5-1.8-7.7-1.8h-33.6v-85.5c0-3.3,2.7-6,6-6h131.1c3.3,0,6,2.7,6,6V295.8z
	 M158.7,347.3v-79.2c0-3.3,2.7-6,6-6h79.2c3.3,0,6,2.7,6,6v79.2c0,3.3-2.7,6-6,6h-79.2C161.3,353.3,158.7,350.7,158.7,347.3z"/>
<path fill="#DEEEF9" d="M243.8,353.3c3.3,0,6-2.7,6-6v-79.2c0-3.3-2.7-6-6-6h-79.2c-3.3,0-6,2.7-6,6v79.2c0,3.3,2.7,6,6,6H243.8z"/>
</svg>
