<?xml version="1.0" encoding="utf-8"?>
<!-- Generator: Adobe Illustrator 19.1.0, SVG Export Plug-In . SVG Version: 6.00 Build 0)  -->
<svg version="1.1" id="Layer_1" xmlns="http://www.w3.org/2000/svg" xmlns:xlink="http://www.w3.org/1999/xlink" x="0px" y="0px"
	 viewBox="0 0 512 512" enable-background="new 0 0 512 512" xml:space="preserve">
<path fill="none" d="M261.3,229.2c0,0.1,0,0.3-0.1,0.4l1.1,0.3v-6.6c-0.3,0.1-0.7,0.2-1,0.2V229.2z"/>
<path fill="none" d="M286.3,236.6l0.9,0.2v-22.4c0-0.8,0.1-1.5,0.2-2.2c-0.4,0.3-0.7,0.5-1.1,0.8V236.6z"/>
<path fill="#F2F2F2" d="M216,155c0-17.1,13.9-31,31-31s31,13.9,31,31c0,12-6.8,22.4-16.7,27.5v41c0.3-0.1,0.7-0.2,1-0.2v-19.1
	c0-6.6,5.4-12,12-12h0c6.6,0,12,5.4,12,12v8.7c0.4-0.2,0.7-0.5,1.1-0.8c1-5.4,5.6-9.5,11.1-9.8C310,189.9,317,173.3,317,155
	c0-38.7-31.3-70-70-70s-70,31.3-70,70c0,33.6,23.7,61.7,55.3,68.4v-41.1C222.6,177.1,216,166.8,216,155z"/>
<path fill="#FF3817" d="M278,155c0-17.1-13.9-31-31-31s-31,13.9-31,31c0,11.8,6.6,22.1,16.3,27.3V155c0-8,6.5-14.5,14.5-14.5
	c8,0,14.5,6.5,14.5,14.5v27.5C271.2,177.4,278,167,278,155z"/>
<path fill="#FFBC8E" d="M334.2,224.3c-0.1-1.4-0.6-5.6-3.6-8.7c-2.3-2.3-4.3-3.6-7.8-3.6h-1c-3.5,0-9.5,1.6-9.5,12.5
	c0,4.1-0.1,7.8-0.2,10.8c-0.1,4.7-0.2,7.1,0,8.5l-0.8-0.2v-29.2c0-6.7-5.4-12.1-12.1-12.1c-0.2,0-0.5,0-0.7,0
	c-5.6,0.3-10.1,4.4-11.1,9.8c-0.1,0.7-0.2,1.5-0.2,2.2v22.4l-0.9-0.2v-23.7v-8.7c0-6.6-5.4-12-12-12h0c-6.6,0-12,5.4-12,12v19.1v6.6
	l-1.1-0.3c0-0.1,0.1-0.3,0.1-0.4v-5.6v-41V155c0-8-6.5-14.5-14.5-14.5c-8,0-14.5,6.5-14.5,14.5v27.3v41.1v37.8c0,2.1-1.7,3.9-3.8,4
	c-1.4,0.1-2.8-0.7-3.5-1.9l-9.7-16.1c-1.8-3.1-4.8-5.2-8.2-6.1c-3.5-0.9-7.1-0.3-10.1,1.5c-3.1,1.8-5.2,4.8-6.1,8.2
	c-0.3,1.2-0.4,2.4-0.4,3.6c0.4-1.4,1.3-2.7,2.5-3.5c1.7-1.1,3.6-1.1,4.8-0.8c0.8,0.2,1.4,0.6,1.8,1.3c2.2,3.3,4.4,6.6,6.6,9.9
	c0.7,1,0.7,2.3,0,3.3c-1.3,2-2.9,4.1-4.9,6.2c0,0,0,0,0,0c-0.9,0.9-2.1,1.1-3.2,0.7c5.2,9.4,10.8,18.6,16.7,27.5
	c7.2,11.1,15,22,23.2,32.4h84.5c4.9-14.5,8.9-29.3,11.7-44.2C334.2,287.1,338.4,264.2,334.2,224.3z M238.8,153.4
	c0-0.6,0.2-1.3,0.5-1.8c1.4-2.7,4.2-4.4,7.2-4.5c3.1-0.1,6.1,1.5,7.7,4.1c0.3,0.6,0.5,1.2,0.5,1.9l0.3,12.4c0,2.2-1.7,4-3.9,4h-8.5
	c-2.2,0-3.9-1.8-3.9-4C238.8,161.5,238.8,157.4,238.8,153.4z"/>
<path fill="#0073B0" d="M237.9,331.5h-3.4c-2.5,0-4.5,2-4.5,4.5v17.9c0,2.5,2,4.5,4.5,4.5h3.9v-1.6c0-0.8,0.7-1.5,1.5-1.5h57.7
	c0.1-0.4,0.5-0.6,0.9-0.6h4.8c0-0.2-0.1-0.3-0.1-0.5v-18.3c0-2.3,1.9-4.1,4.1-4.1h18.2c2.3,0,4.1,1.9,4.1,4.1v18.3
	c0,2.3-1.9,4.1-4.1,4.1H322v0.1h3.4c2.5,0,4.5-2,4.5-4.5V336c0-2.5-2-4.5-4.5-4.5h-3H237.9z"/>
<path fill="#4297C4" d="M322,355.6v2.6h3.7c2.3,0,4.1-1.9,4.1-4.1v-18.3c0-2.3-1.9-4.1-4.1-4.1h-18.2c-2.3,0-4.1,1.9-4.1,4.1v18.3
	c0,0.2,0,0.3,0.1,0.5H321C321.6,354.6,322,355.1,322,355.6z"/>
<path fill="#00A6FF" d="M297.6,426.3v-70.7c0-0.1,0-0.3,0.1-0.4H240c-0.8,0-1.5,0.7-1.5,1.5v1.6v67.6c0,0.8,0.7,1.5,1.5,1.5H320
	c0.2,0,0.4,0,0.6-0.1h-22C298.1,427.3,297.6,426.9,297.6,426.3z"/>
<path fill="#42BDFF" d="M322,355.6c0-0.5-0.4-1-1-1h-17.6h-4.8c-0.4,0-0.8,0.3-0.9,0.6c0,0.1-0.1,0.2-0.1,0.4v70.7c0,0.5,0.4,1,1,1
	h22h0.4c0.6,0,1-0.4,1-1v-67.9v-0.1V355.6z"/>
<path fill="#FFEDE1" d="M201.3,270.9C201.3,270.8,201.3,270.8,201.3,270.9c2-2.1,3.6-4.2,4.9-6.2c0.6-1,0.6-2.3,0-3.3
	c-2.2-3.3-4.4-6.6-6.6-9.9c-0.4-0.6-1.1-1.1-1.8-1.3c-1.2-0.2-3.1-0.3-4.8,0.8c-1.2,0.8-2.1,2-2.5,3.5c-0.4,1.2-0.4,2.6,0,3.9
	c0.1,0.2,0.1,0.4,0.2,0.6c2,3.7,3.9,7.4,5.9,11.2c0.4,0.7,0.9,1.1,1.6,1.4C199.1,272,200.4,271.8,201.3,270.9z"/>
<path fill="#FFEDE1" d="M242.7,169.5h8.5c2.2,0,4-1.8,3.9-4l-0.3-12.4c0-0.7-0.2-1.3-0.5-1.9c-1.6-2.7-4.6-4.3-7.7-4.1
	c-3.1,0.1-5.8,1.9-7.2,4.5c-0.3,0.6-0.5,1.2-0.5,1.8c0,4-0.1,8.1-0.1,12.1C238.7,167.7,240.5,169.5,242.7,169.5z"/>
</svg>
