<?xml version="1.0" encoding="utf-8"?>
<!-- Generator: Adobe Illustrator 19.1.0, SVG Export Plug-In . SVG Version: 6.00 Build 0)  -->
<svg version="1.1" id="Layer_1" xmlns="http://www.w3.org/2000/svg" xmlns:xlink="http://www.w3.org/1999/xlink" x="0px" y="0px"
	 viewBox="0 0 512 512" enable-background="new 0 0 512 512" xml:space="preserve">
<g>
	<rect x="54" y="141" fill="#E6F0F4" width="433" height="259"/>
	<path fill="#234957" d="M464,381H29c-3.3,0-6-2.7-6-6V113c0-3.3,2.7-6,6-6h59c3.3,0,6,2.7,6,6s-2.7,6-6,6H35v250h423v-28
		c0-3.3,2.7-6,6-6s6,2.7,6,6v34C470,378.3,467.3,381,464,381z"/>
	<path fill="#234957" d="M464,286c-3.3,0-6-2.7-6-6V119H144c-3.3,0-6-2.7-6-6s2.7-6,6-6h320c3.3,0,6,2.7,6,6v167
		C470,283.3,467.3,286,464,286z"/>
	<path fill="#FFFFFF" d="M194.7,312.8c0-27.8-27.7-50.3-61.8-50.3S71.1,285,71.1,312.8H194.7z"/>
	<path fill="#234957" d="M194.7,318.8H71.1c-3.3,0-6-2.7-6-6c0-31,30.4-56.3,67.8-56.3s67.8,25.3,67.8,56.3
		C200.7,316.1,198,318.8,194.7,318.8z M77.6,306.8h110.6c-3.7-21.6-27.1-38.3-55.3-38.3S81.3,285.2,77.6,306.8z"/>
	<path fill="#26CBFC" d="M167.7,209.4c0-19.7-15.9-35.6-35.6-35.6s-35.6,15.9-35.6,35.6s15.9,52.2,35.6,52.2
		S167.7,229.1,167.7,209.4z"/>
	<path fill="#234957" d="M132.1,267.6c-11.1,0-21.8-7.7-30.3-21.6c-7-11.5-11.3-25.5-11.3-36.6c0-22.9,18.7-41.6,41.6-41.6
		c22.9,0,41.6,18.7,41.6,41.6c0,11.1-4.3,25.1-11.3,36.6C153.9,260,143.1,267.6,132.1,267.6z M132.1,179.8
		c-16.3,0-29.6,13.3-29.6,29.6c0,17.4,14.3,46.2,29.6,46.2c6.6,0,13.9-5.8,20.1-15.8c5.8-9.5,9.6-21.5,9.6-30.4
		C161.7,193.1,148.4,179.8,132.1,179.8z"/>
	<path fill="#234957" d="M421,219H262c-3.3,0-6-2.7-6-6s2.7-6,6-6h159c3.3,0,6,2.7,6,6S424.3,219,421,219z"/>
	<path fill="#234957" d="M316,280h-54c-3.3,0-6-2.7-6-6s2.7-6,6-6h54c3.3,0,6,2.7,6,6S319.3,280,316,280z"/>
	<path fill="#234957" d="M361,280h-24c-3.3,0-6-2.7-6-6s2.7-6,6-6h24c3.3,0,6,2.7,6,6S364.3,280,361,280z"/>
	<path fill="#234957" d="M125,119h-20c-3.3,0-6-2.7-6-6s2.7-6,6-6h20c3.3,0,6,2.7,6,6S128.3,119,125,119z"/>
	<path fill="#234957" d="M464,324c-3.3,0-6-2.7-6-6v-19c0-3.3,2.7-6,6-6s6,2.7,6,6v19C470,321.3,467.3,324,464,324z"/>
</g>
</svg>
