<?xml version="1.0" encoding="utf-8"?>
<!-- Generator: Adobe Illustrator 19.1.0, SVG Export Plug-In . SVG Version: 6.00 Build 0)  -->
<svg version="1.1" id="Layer_1" xmlns="http://www.w3.org/2000/svg" xmlns:xlink="http://www.w3.org/1999/xlink" x="0px" y="0px"
	 viewBox="0 0 512 512" enable-background="new 0 0 512 512" xml:space="preserve">
<polygon fill="#E6F0F4" points="154.3,441.6 154.3,105.3 317.1,105.3 412.8,179.7 412.8,443 "/>
<circle fill="#26CBFC" cx="261.4" cy="279.2" r="49.3"/>
<polyline fill="#FFFFFF" points="297.2,79 297.2,155.3 380.5,156.8 "/>
<path fill="#234957" d="M380.4,162.8l-83.3-1.5c-3.3-0.1-5.9-2.7-5.9-6V79h12v70.4l77.4,1.4L380.4,162.8z"/>
<path fill="#234957" d="M285.1,418.1C285.1,418.1,285,418.1,285.1,418.1L124,417.2c-3.3,0-6-2.7-6-6V187.3c0-3.3,2.7-6,6-6
	s6,2.7,6,6v217.9l155.1,0.8c3.3,0,6,2.7,6,6C291,415.4,288.4,418.1,285.1,418.1z"/>
<path fill="#234957" d="M382.5,418.7C382.5,418.7,382.4,418.7,382.5,418.7l-39.7-0.3c-3.3,0-6-2.7-6-6c0-3.3,2.7-6,6-6c0,0,0,0,0,0
	l33.6,0.2V152.3L284.7,81H130v44.7c0,3.3-2.7,6-6,6s-6-2.7-6-6V75c0-3.3,2.7-6,6-6h162.8c1.3,0,2.6,0.4,3.7,1.3l95.7,74.3
	c1.5,1.1,2.3,2.9,2.3,4.7v263.3c0,1.6-0.6,3.1-1.8,4.3C385.6,418,384.1,418.7,382.5,418.7z"/>
<path fill="#234957" d="M296.2,334.4L296.2,334.4c-0.8-0.1-1.5-0.4-2-1c-0.5-0.6-0.7-1.3-0.7-2v0l1.4-10.7
	c-9.8,8.5-22.4,13.2-35.4,13.2c-2.1,0-4.3-0.1-6.4-0.4c-14.3-1.7-27.1-8.9-36-20.2c-8.6-10.9-12.5-24.9-11-39.2
	c0-0.3,0.1-0.6,0.1-0.8c0.1-0.7,0.3-1.2,0.7-1.7c0.7-1.1,2-1.7,3.2-1.7c0.2,0,0.3,0,0.5,0c1,0.1,2,0.7,2.6,1.5
	c0.6,0.8,0.9,1.8,0.8,2.8v0.1c0,0.2-0.1,0.5-0.1,0.7c-1.3,12.3,2,24.2,9.4,33.5c7.6,9.7,18.5,15.8,30.8,17.3
	c1.8,0.2,3.6,0.3,5.5,0.3c11.2,0,21.9-4,30.3-11.4c0.3-0.3,0.7-0.6,1-0.9l-13.2-0.3h0c-1-0.1-1.9-0.5-2.5-1.1
	c-0.4-0.5-0.6-1-0.5-1.6v0l0-1.2l0-0.1c0.1-0.5,0.2-0.9,0.5-1.3c0.6-0.8,1.5-1.3,2.5-1.3c0,0,0.1,0,0.1,0l20.9,0.6h0.1l1.4,0.1
	c0.8,0,1.5,0.4,2,1c0.5,0.6,0.7,1.3,0.7,2.1l-0.1,1.4l0,0.1l-2.5,20.4c0,0.5-0.2,0.9-0.5,1.3c-0.5,0.7-1.3,1.1-2.3,1.1h-0.2
	L296.2,334.4z M312.5,288.6c-0.2,0-0.3,0-0.5,0c-2.1-0.3-3.7-2.2-3.4-4.3v-0.1c0-0.2,0-0.4,0.1-0.7c1.3-12-2.1-23.8-9.6-33.3
	c-7.6-9.7-18.5-15.8-30.8-17.3c-1.9-0.2-3.9-0.3-5.8-0.3c-4.5,0-8.9,0.7-13.2,1.9c-6.2,1.8-11.8,4.9-16.6,9.2
	c-1.1,0.9-2.1,1.9-3.1,3l13.4,0.3h0.1c0.9,0.1,1.8,0.5,2.4,1.1c0.5,0.6,0.6,1.3,0.6,1.7v0.1l0,1.1l0,0.1c-0.1,0.4-0.2,0.9-0.5,1.2
	c-0.6,0.8-1.5,1.3-2.5,1.3c0,0-0.1,0-0.1,0l-20.9-0.6h-0.1l-1.4-0.1c-0.8,0-1.5-0.4-2-1c-0.5-0.6-0.7-1.3-0.7-2.1l0.1-1.4l0-0.1
	l2.5-20.4c0-0.5,0.2-0.9,0.5-1.3c0.5-0.8,1.5-1.3,2.4-1.3h0.2l1.1,0.3h0.1c0.6,0,1.1,0.3,1.6,0.8c0.5,0.6,0.8,1.6,0.8,2.4v0.1
	l-1.3,10.3c0.6-0.5,1.1-1.1,1.7-1.6c5.7-5,12.2-8.6,19.5-10.7c5-1.5,10.3-2.3,15.5-2.3c2.2,0,4.5,0.1,6.7,0.4
	c14.3,1.7,27.1,8.9,36,20.2c8.7,11.1,12.7,24.9,11.2,38.9c0,0.3-0.1,0.5-0.1,0.8c-0.1,0.6-0.3,1.2-0.7,1.7
	C315,287.9,313.8,288.6,312.5,288.6L312.5,288.6z"/>
<path fill="#234957" d="M297.2,336.2H297l-1.1-0.3c-1.2-0.1-2.2-0.6-2.9-1.5c-0.7-0.8-1.1-1.9-1-3.1l0-0.1l0.9-7
	c-9.6,7.2-21.3,11.2-33.4,11.2c-2.2,0-4.4-0.1-6.6-0.4c-14.7-1.8-27.8-9.1-37-20.8c-8.8-11.3-12.9-25.6-11.3-40.3c0-0.1,0-0.3,0-0.4
	c0-0.1,0-0.2,0-0.4c0.1-0.9,0.4-1.7,0.9-2.5c1-1.5,2.7-2.3,4.5-2.3c0.2,0,0.5,0,0.7,0c1.4,0.2,2.7,0.9,3.6,2
	c0.9,1.1,1.3,2.5,1.1,3.8l0,0.1c0,0.1,0,0.3-0.1,0.4c0,0.1,0,0.2,0,0.3c-1.3,11.9,2,23.4,9.1,32.5c7.4,9.4,17.9,15.3,29.8,16.7
	c1.7,0.2,3.5,0.3,5.3,0.3c10,0,19.6-3.3,27.4-9.4l-9.3-0.2c-1.4-0.1-2.7-0.7-3.5-1.7c-0.6-0.8-1-1.7-0.9-2.7l0.1-1.5
	c0.1-0.6,0.4-1.3,0.8-1.9c0.8-1.2,2.3-2,3.7-2h0.1l22.4,0.7c1.2,0.1,2.3,0.6,3.1,1.5c0.7,0.8,1.1,1.9,1,3.2l-0.2,1.6l-2.5,20.3
	c-0.1,0.7-0.3,1.4-0.7,2c-0.7,1.1-2,1.7-3.5,1.8H297.2z M296.2,332.9h0.1l0.3,0.1l0.9,0.2c0.3,0,0.8-0.1,1-0.5
	c0.1-0.2,0.2-0.4,0.2-0.6l2.7-21.8c0-0.4-0.1-0.7-0.3-0.9c-0.3-0.3-0.6-0.5-0.9-0.5l-1.4-0.1l-21-0.6l-0.1,0c-0.5,0-1,0.3-1.3,0.7
	c-0.1,0.2-0.2,0.4-0.3,0.6l0,0.1l0,1.1c0,0.2,0.1,0.4,0.2,0.5c0.3,0.3,0.9,0.6,1.4,0.6l16.8,0.4l-2.7,2.5c-0.2,0.2-0.4,0.3-0.5,0.5
	l-0.5,0.4c-8.7,7.6-19.8,11.8-31.3,11.8c-1.9,0-3.8-0.1-5.6-0.3c-12.6-1.5-23.9-7.8-31.8-17.8c-7.6-9.7-11-22-9.7-34.6
	c0-0.1,0-0.3,0-0.4c0-0.1,0-0.2,0-0.2l0-0.1c0.1-0.6-0.1-1.3-0.5-1.8c-0.4-0.5-1-0.8-1.6-0.9c-0.1,0-0.2,0-0.3,0
	c-0.8,0-1.5,0.4-2,1.1c-0.2,0.3-0.4,0.7-0.4,1c0,0.1,0,0.3,0,0.5c0,0.1,0,0.2,0,0.4c-1.5,14,2.3,27.5,10.7,38.2
	c8.7,11,21.1,18,35,19.7c2.1,0.3,4.2,0.4,6.2,0.4c12.6,0,24.8-4.5,34.4-12.8l3-2.6l-1.9,14.5c0,0.4,0.1,0.7,0.3,1
	C295.5,332.7,295.8,332.9,296.2,332.9z M312.5,290.1c-0.2,0-0.4,0-0.7,0c-2.9-0.4-5-3-4.8-5.9l0-0.2l0.1-0.6
	c1.2-11.6-2.1-23.1-9.3-32.2c-7.4-9.4-17.9-15.3-29.8-16.7c-1.8-0.2-3.7-0.3-5.6-0.3c-4.3,0-8.6,0.6-12.8,1.8
	c-6,1.8-11.4,4.8-16.1,8.9c-0.2,0.1-0.3,0.3-0.5,0.4l9.9,0.2c1.3,0.1,2.6,0.7,3.4,1.7c0.5,0.5,1,1.5,0.9,2.7l0,1.2l0,0.3
	c-0.1,0.6-0.3,1.2-0.7,1.8c-0.9,1.3-2.3,2-3.8,2h-0.1l-22.4-0.7c-1.2-0.1-2.3-0.6-3-1.5c-0.8-0.9-1.1-2-1-3.2l0.2-1.6l2.5-20.3
	c0.1-0.7,0.3-1.4,0.7-2c0.8-1.2,2.1-1.9,3.6-2l0.5,0l1.1,0.3c1,0.1,1.9,0.5,2.6,1.4c0.8,0.9,1.2,2.2,1.1,3.5l0,0.2l-0.8,6.3
	c5.6-4.6,11.9-7.9,18.8-10c5.2-1.5,10.5-2.3,15.9-2.3c2.4,0,4.7,0.1,6.9,0.4c14.7,1.8,27.8,9.1,37,20.8c9,11.4,13.1,25.6,11.5,40
	c0,0.1,0,0.3,0,0.4c0,0.1,0,0.2,0,0.3c-0.1,0.9-0.4,1.7-0.9,2.4C315.9,289.2,314.3,290.1,312.5,290.1z M310.1,284.3l0,0.1
	c-0.1,1.3,0.8,2.5,2.1,2.7c0.1,0,0.2,0,0.3,0c0.8,0,1.6-0.4,2-1.1c0.2-0.3,0.3-0.7,0.4-1.1c0-0.1,0-0.2,0-0.4c0-0.1,0-0.2,0-0.3
	c1.4-13.7-2.4-27.1-10.9-37.9c-8.7-11-21.1-18-35-19.7c-2.1-0.3-4.3-0.4-6.5-0.4c-5.1,0-10.2,0.7-15.1,2.2
	c-7,2.1-13.4,5.6-18.9,10.4c-0.6,0.5-1.1,1-1.7,1.5l-3.1,3l1.9-14.5c0-0.5-0.1-1-0.4-1.4c-0.2-0.2-0.3-0.3-0.5-0.3l-0.4,0l-1-0.2
	c-0.4,0-0.9,0.3-1.2,0.7c-0.1,0.2-0.2,0.4-0.2,0.6l-2.7,21.8c0,0.4,0.1,0.7,0.3,1c0.2,0.3,0.6,0.4,0.9,0.5l1.4,0.1l20.9,0.6l0.1,0
	c0.5,0,1-0.3,1.3-0.7c0.1-0.2,0.2-0.4,0.2-0.6l0,0l0-1l0-0.1c0-0.2,0-0.4-0.2-0.6c-0.3-0.3-0.8-0.6-1.3-0.6l0,0l-16.8-0.4l2.4-2.5
	c1-1.1,2.1-2.1,3.2-3.1c5-4.4,10.8-7.6,17.2-9.5c4.4-1.3,9-2,13.6-2c2,0,4,0.1,5.9,0.4c12.6,1.5,23.9,7.8,31.7,17.8
	c7.7,9.8,11.2,22,9.9,34.4L310.1,284.3z"/>
<path fill="#234957" d="M124,172.7c-3.3,0-6-2.7-6-6v-23.3c0-3.3,2.7-6,6-6s6,2.7,6,6v23.3C130,170,127.3,172.7,124,172.7z"/>
<path fill="#234957" d="M324.2,418.1h-21.4c-3.3,0-6-2.7-6-6s2.7-6,6-6h21.4c3.3,0,6,2.7,6,6S327.5,418.1,324.2,418.1z"/>
</svg>
