<?xml version="1.0" encoding="utf-8"?>
<!-- Generator: Adobe Illustrator 19.1.0, SVG Export Plug-In . SVG Version: 6.00 Build 0)  -->
<svg version="1.1" id="Layer_1" xmlns="http://www.w3.org/2000/svg" xmlns:xlink="http://www.w3.org/1999/xlink" x="0px" y="0px"
	 viewBox="0 0 512 512" enable-background="new 0 0 512 512" xml:space="preserve">
<rect x="118.3" y="119.3" fill="#E6F0F4" width="325.4" height="321.7"/>
<g>
	<polyline fill="#FFFFFF" points="214.2,91 214.2,173.6 249.4,159.3 284.6,173.6 284.6,91 	"/>
	<path fill="#3F3F3F" d="M214.2,179.6c-1.2,0-2.3-0.3-3.3-1c-1.7-1.1-2.7-3-2.7-5V91h12v73.7l27-11c1.5-0.6,3.1-0.6,4.5,0l27,11V91
		h12v82.6c0,2-1,3.9-2.7,5c-1.7,1.1-3.8,1.3-5.6,0.6l-33-13.4l-33,13.4C215.7,179.5,214.9,179.6,214.2,179.6z"/>
</g>
<path fill="#3F3F3F" d="M417.3,418.1H91.9c-3.3,0-6-2.7-6-6V246c0-3.3,2.7-6,6-6s6,2.7,6,6v160.1h313.4v-41c0-3.3,2.7-6,6-6
	s6,2.7,6,6v47C423.3,415.4,420.6,418.1,417.3,418.1z"/>
<path fill="#3F3F3F" d="M417.3,303.6c-3.3,0-6-2.7-6-6V96.4H97.9V177c0,3.3-2.7,6-6,6s-6-2.7-6-6V90.4c0-3.3,2.7-6,6-6h325.4
	c3.3,0,6,2.7,6,6v207.2C423.3,300.9,420.6,303.6,417.3,303.6z"/>
<g>
	<polygon fill="#26CBFC" points="214.2,283.8 213.8,362 251.2,363 241.5,281 	"/>
	<path fill="#3F3F3F" d="M251.8,363.5l-38.6-1l0.5-79.2l28.2-2.8L251.8,363.5z M214.3,361.5l36.4,1l-9.6-80.9l-26.3,2.7L214.3,361.5
		z"/>
</g>
<g>
	<path fill="#FFFFFF" d="M222,280.1h-23.2c-4.8,0-9.8,5.7-9.8,11.2v63.6c0,5.5,5.1,10.3,9.8,10.3H222c4.8,0,8.3-4.7,8.3-10.3v-63.6
		C230.3,285.7,226.8,280.1,222,280.1z"/>
	<path fill="#3F3F3F" d="M220.1,290.1c0.1,0.3,0.2,0.7,0.2,1.2v63.6c0,0.1,0,0.2,0,0.3h-20.9c-0.1-0.1-0.3-0.3-0.3-0.4v-63.4
		c0.1-0.3,0.4-0.9,0.7-1.2H220.1 M222,280.1h-23.2c-4.8,0-9.8,5.7-9.8,11.2v63.6c0,5.5,5.1,10.3,9.8,10.3H222
		c4.8,0,8.3-4.7,8.3-10.3v-63.6C230.3,285.7,226.8,280.1,222,280.1L222,280.1z"/>
</g>
<g>
	<path fill="#26CBFC" d="M238.1,365.1h71.6c0.3,0,0.6-0.2,0.9-0.2c6.7-0.7,11.9-6.4,11.9-13.2c0-3.7-1.5-7-3.9-9.4
		c2.7-2.4,4.4-6,4.4-9.9c0-3.8-1.6-7.2-4.1-9.6c2.5-2.4,4.1-5.8,4.1-9.6c0-3.8-1.6-7.2-4.1-9.6c2.5-2.4,4.1-5.8,4.1-9.6
		c0-3.5-1.4-7.1-3.9-9.7c-2.5-2.5-5.8-4.2-9.4-4.2c0,0,0,0,0,0h-30.6c8.6-26.7-6.6-44.2-7.3-45c0,0,0,0.1,0,0.1
		c-2.5-3.3-6.4-5.1-10.5-5.1c-7.3,0-13.3,6-13.3,13.3c0,0.4,0,0.9,0.1,1.3c-0.1,0.5-0.1,1,0,1.5c2.5,11.6-2.7,24.8-6.1,31.6
		c-0.3,0.6-0.6,0.9-0.8,1.4"/>
	<path fill="#3F3F3F" d="M309.7,370.1h-71.6c-2.8,0-5-2.2-5-5s2.2-5,5-5h71c0.1,0,0.1,0,0.2-0.1c0.3-0.1,0.6-0.1,0.8-0.2
		c4.1-0.4,7.4-4,7.4-8.2c0-2.2-0.9-4.3-2.4-5.9c-1-1-1.5-2.3-1.5-3.7c0-1.4,0.6-2.7,1.7-3.6c1.7-1.6,2.7-3.8,2.7-6.2
		c0-2.3-0.9-4.4-2.6-6c-1-0.9-1.6-2.3-1.6-3.6s0.6-2.7,1.6-3.6c1.7-1.6,2.6-3.7,2.6-6c0-2.3-0.9-4.4-2.6-6c-1-0.9-1.6-2.3-1.6-3.6
		s0.6-2.7,1.6-3.6c1.7-1.6,2.6-3.7,2.6-6c0-2.3-0.9-4.6-2.4-6.1c-1.7-1.7-3.8-2.7-5.8-2.7h-30.6c-1.6,0-3.1-0.8-4-2.1
		s-1.2-3-0.7-4.5c6.9-21.4-3-35.9-5.8-39.5c0,0-0.1-0.1-0.1-0.1c-0.3-0.2-0.5-0.5-0.7-0.8c-1.5-2-4-3.2-6.5-3.2
		c-4.6,0-8.3,3.7-8.3,8.3c0,0.3,0,0.6,0,0.9c0,0.4,0,0.8,0,1.1c2.7,13-2.9,27.3-6.6,34.7c-0.3,0.6-0.6,1-0.8,1.3
		c0,0.1-0.1,0.1-0.1,0.2c-1.3,2.4-4.3,3.4-6.7,2.1s-3.4-4.3-2.1-6.8c0.3-0.5,0.5-0.9,0.7-1.1c0-0.1,0.1-0.1,0.1-0.2
		c3.1-6.2,7.9-18.2,5.7-28.4c-0.2-0.9-0.2-1.8-0.2-2.7c0-0.4,0-0.8,0-1.2c0-10.1,8.2-18.3,18.3-18.3c5.2,0,10.3,2.3,13.7,6.1
		c0.2,0.1,0.3,0.3,0.5,0.4c0.1,0.1,0.1,0.1,0.2,0.2c1.7,1.9,15.1,18.3,10,43.3h24.1c4.7,0,9.3,2,12.9,5.6c3.4,3.4,5.4,8.2,5.4,13.2
		c0,3.4-1,6.7-2.8,9.6c1.8,2.9,2.8,6.2,2.8,9.6c0,3.4-1,6.7-2.7,9.6c1.8,2.9,2.7,6.2,2.7,9.6c0,3.6-1.1,7.1-3,10
		c1.6,2.8,2.5,6,2.5,9.2c0,9.2-6.7,16.9-15.8,18.1C311.3,369.9,310.6,370.1,309.7,370.1z"/>
</g>
<path fill="#3F3F3F" d="M91.9,230c-3.3,0-6-2.7-6-6v-30c0-3.3,2.7-6,6-6s6,2.7,6,6v30C97.9,227.3,95.2,230,91.9,230z"/>
<path fill="#3F3F3F" d="M417.3,350c-3.3,0-6-2.7-6-6v-29c0-3.3,2.7-6,6-6s6,2.7,6,6v29C423.3,347.3,420.6,350,417.3,350z"/>
</svg>
