<?xml version="1.0" encoding="utf-8"?>
<!-- Generator: Adobe Illustrator 19.1.0, SVG Export Plug-In . SVG Version: 6.00 Build 0)  -->
<svg version="1.1" id="Layer_1" xmlns="http://www.w3.org/2000/svg" xmlns:xlink="http://www.w3.org/1999/xlink" x="0px" y="0px"
	 viewBox="0 0 355.3 218" enable-background="new 0 0 355.3 218" xml:space="preserve">
<path fill="#A6E1FF" d="M47.1,12.8c-7.5-0.5-14.1,1.6-19.4,4.4c1.9-1,4-1.9,6.3-2.5C37.3,13.8,43.2,12.5,47.1,12.8z"/>
<path fill="#A6E1FF" d="M42.7,86.7c0.1-0.1,0.2-0.3,0.3-0.5c1.8-3.6,5.2-8.6,11-12.2c2.6-1.7,5.6-3.1,9-3.9c0.7-0.2,1.4-0.3,2-0.3
	c0.7-0.1,1.4-0.2,2.1-0.2c1.9-0.1,3.7,0.1,5.5,0.4c0.5-9.3,3.2-17.6,8.1-24.8c-0.3-2.8-1-5.6-2.1-8.4c-4.2-10.5-14.4-21.2-28.3-23.6
	c-1-0.2-2.1-0.3-3.1-0.4c1.8,0.2,3.1,0.7,3.6,1.7c2.4,4.9-19.5,12.4-28.9,32.8c-11,24,1.7,52.1-1.7,52.9c-1.6,0.4-4.5-6.1-7.3-12.1
	c-2.5-5.5-5.5-12.1-6.8-20.5c-1.1-7-3.4-20.9,4.5-34.4c0.8-1.3,3.4-5.6,8-9.8c-3.1,2.7-4.9,4.9-5.3,5.4
	c-17.4,21.6-4.1,51.6-1.3,58.1c2.6,5.9,9.8,22.2,20.9,25.5c-0.4,0.6-0.8,1.3-1.2,2c-1.3,2.4-2,4.6-2.5,6.3c0.3-0.3,2-2.2,4.8-2.2
	c2.8,0,4.6,1.9,4.8,2.2c-0.1-1.4-0.3-3.5-1.2-5.8c-0.3-0.7-0.5-1.3-0.8-1.9c1.6,0,3.1-0.3,4.6-0.8C39.2,104.6,38.3,95.5,42.7,86.7z
	 M72.2,48.1c-0.1,0.5-0.1,0.9-0.3,1.1c-0.4,0.4-1.1,0.4-1.9,0.3c-1.4-0.1-2.6-0.7-2.6-0.7l0.5-2.9l4.4,0.5
	C72.2,47.4,72.3,47.5,72.2,48.1z M71.3,39.2c0.8,2.3,1,4.3,1,5.9c-1.4-0.2-2.9-0.3-4.3-0.5c0.1-1.6,0-3.7-0.6-6
	c-1.3-4.8-4.1-7.9-5.6-9.3C63.4,29.9,69,32.8,71.3,39.2z"/>
<path opacity="3.000000e-02" d="M47.1,12.8c0.1,0,0.1,0,0.2,0C47.2,12.9,47.2,12.9,47.1,12.8z"/>
<path opacity="3.000000e-02" d="M18.8,23.4c2.3-2,5.3-4.2,8.9-6.2C24.2,19,21.2,21.2,18.8,23.4z"/>
<path fill="#A6E1FF" d="M10.8,33.2C2.9,46.7,5.1,60.6,6.2,67.6c1.4,8.4,4.3,15,6.8,20.5c2.7,6,5.7,12.5,7.3,12.1
	c3.3-0.8-9.3-28.8,1.7-52.9c9.3-20.4,31.2-27.9,28.9-32.8c-0.5-1-1.8-1.5-3.6-1.7c-0.1,0-0.1,0-0.2,0c-3.9-0.3-9.8,0.9-13.1,1.9
	c-2.3,0.7-4.4,1.6-6.3,2.5c-3.6,1.9-6.6,4.1-8.9,6.2C14.2,27.6,11.6,31.9,10.8,33.2z"/>
<path opacity="3.000000e-02" d="M10.8,33.2C2.9,46.7,5.1,60.6,6.2,67.6c1.4,8.4,4.3,15,6.8,20.5c2.7,6,5.7,12.5,7.3,12.1
	c3.3-0.8-9.3-28.8,1.7-52.9c9.3-20.4,31.2-27.9,28.9-32.8c-0.5-1-1.8-1.5-3.6-1.7c-0.1,0-0.1,0-0.2,0c-3.9-0.3-9.8,0.9-13.1,1.9
	c-2.3,0.7-4.4,1.6-6.3,2.5c-3.6,1.9-6.6,4.1-8.9,6.2C14.2,27.6,11.6,31.9,10.8,33.2z"/>
<linearGradient id="SVGID_1_" gradientUnits="userSpaceOnUse" x1="34.2322" y1="209.8047" x2="34.2322" y2="120.2783">
	<stop  offset="0" style="stop-color:#FFFFFF"/>
	<stop  offset="1" style="stop-color:#AAAAAA"/>
</linearGradient>
<path fill="url(#SVGID_1_)" d="M41.2,162.6c-1.9-1.5-5.1-0.7-7.9,0c-2.1,0.5-4.3,1.1-4.9,0.2c-0.9-1.4,2.1-5.2,5.1-8.9
	c4-5.1,8.6-10.8,6.7-14.3c-0.8-1.5-2.5-1.9-4.1-2.3c-1.6-0.4-3.3-0.8-4.4-2.4c-1.9-2.7-1-7.5,2.7-14.2l-0.9-0.5
	c-3.9,7-4.8,12.2-2.7,15.2c1.3,1.9,3.2,2.3,5,2.8c1.5,0.4,2.8,0.7,3.4,1.8c1.6,3-2.8,8.4-6.6,13.2c-3.6,4.5-6.5,8.1-5.1,10
	c1,1.4,3.3,0.9,6,0.2c2.6-0.6,5.5-1.4,7-0.2c2.8,2.2,2.5,11.9-15,46l0.9,0.5C48,167.9,42.9,163.9,41.2,162.6z"/>
<path fill="#A6E1FF" d="M67.4,38.5c0.6,2.4,0.7,4.5,0.6,6c1.4,0.2,2.9,0.3,4.3,0.5c0-1.6-0.2-3.6-1-5.9c-2.3-6.4-8-9.2-9.5-10
	C63.3,30.6,66.1,33.7,67.4,38.5z"/>
<path opacity="0.8" fill="#FFFFFF" d="M67.4,38.5c0.6,2.4,0.7,4.5,0.6,6c1.4,0.2,2.9,0.3,4.3,0.5c0-1.6-0.2-3.6-1-5.9
	c-2.3-6.4-8-9.2-9.5-10C63.3,30.6,66.1,33.7,67.4,38.5z"/>
<path fill="#A6E1FF" d="M67.3,48.8c0,0,1.3,0.6,2.6,0.7c0.9,0.1,1.6,0.1,1.9-0.3c0.2-0.2,0.2-0.5,0.3-1.1c0.1-0.7,0-0.7,0.1-1.7
	l-4.4-0.5L67.3,48.8z"/>
<path opacity="0.8" fill="#FFFFFF" d="M67.3,48.8c0,0,1.3,0.6,2.6,0.7c0.9,0.1,1.6,0.1,1.9-0.3c0.2-0.2,0.2-0.5,0.3-1.1
	c0.1-0.7,0-0.7,0.1-1.7l-4.4-0.5L67.3,48.8z"/>
<path fill="#A7A2BE" d="M294.5,17c-2.3,2.6-3.6,4.7-3.9,5.2c-0.4,0.6-0.7,1.3-1.1,1.9h0.3C290.7,22.3,292.3,19.7,294.5,17z"/>
<path fill="#A7A2BE" d="M347,21.7c-4.7-8.5-14.6-16.4-26.7-16.9c-0.9,0-1.8,0-2.7,0c1.5,0,2.7,0.2,3.2,1c1.9,2.8-7.1,8.3-14.3,18.3
	h0.6c3.2,0,5.5,2.9,4.9,6l-2.1,10.1c-0.5,2.3-2.5,4-4.9,4h-6.5c-1.2,10.6,1.4,20.7,3.7,27.8c1.3,0.9,2.4,2,3.4,3.1
	c3.7,4.1,5.4,8.9,5.8,14c1.7,1,3.5,1.7,5.4,2c-0.3,0.6-0.5,1.2-0.8,1.8c-0.8,2.2-1.2,4.1-1.4,5.7c0.2-0.3,1.4-2.1,3.9-2.4
	s4.1,1.1,4.4,1.3c-0.2-1.2-0.7-2.9-1.7-4.8c-0.3-0.6-0.6-1.1-0.9-1.5c7.6-1,12.2-9.3,17.3-18.4C345.4,58.7,356.5,38.8,347,21.7z
	 M331.7,17.1c1.4,0.5,6.5,2.3,9.2,7.4c1,1.8,1.3,3.6,1.5,4.9c-1.2,0-2.5,0-3.7,0c-0.1-1.3-0.4-3.1-1.2-5.1
	C335.9,20.4,333.2,18.1,331.7,17.1z M342.7,32c0,0.5,0,0.8-0.1,0.9c-0.3,0.4-0.9,0.5-1.6,0.5c-1.2,0-2.3-0.3-2.3-0.3l0.1-2.5
	l3.8-0.1C342.7,31.4,342.7,31.5,342.7,32z"/>
<path fill="#A7A2BE" d="M317.4,4.9c-6.4,0.4-11.8,2.9-16,5.9c1.5-1.1,3.2-2,5.1-2.9C309.1,6.8,314,5,317.4,4.9z"/>
<path fill="#A7A2BE" d="M286.3,45c-0.1,0.1-0.2,0.1-0.3,0.2c1.1,9.4,5,17.7,7.8,22.7c0.1,0,0.2,0,0.3,0.1c-1.9-3.4-3.9-7.2-5.3-11.9
	C288,53.4,286.9,49.6,286.3,45z"/>
<path opacity="8.000000e-02" d="M317.4,4.9c0.1,0,0.1,0,0.2,0C317.5,4.9,317.5,4.9,317.4,4.9z"/>
<path opacity="8.000000e-02" d="M301.4,10.8c-2.8,1.9-5.1,4.1-6.9,6.2C296.3,15.1,298.5,12.8,301.4,10.8z"/>
<path fill="#A7A2BE" d="M286.3,45c0.5,4.6,1.7,8.4,2.5,11.1c1.4,4.7,3.3,8.6,5.3,11.9c3,0.9,5.8,2.4,8.1,4.1
	c-2.3-7.1-4.9-17.3-3.7-27.8h-9.6C288,44.3,287.1,44.5,286.3,45z"/>
<path opacity="8.000000e-02" d="M286.3,45c0.5,4.6,1.7,8.4,2.5,11.1c1.4,4.7,3.3,8.6,5.3,11.9c3,0.9,5.8,2.4,8.1,4.1
	c-2.3-7.1-4.9-17.3-3.7-27.8h-9.6C288,44.3,287.1,44.5,286.3,45z"/>
<path fill="#A7A2BE" d="M306.5,24.2c7.2-9.9,16.2-15.4,14.3-18.3c-0.5-0.8-1.7-1.1-3.2-1c-0.1,0-0.1,0-0.2,0
	c-3.4,0.2-8.2,1.9-10.9,3.1c-1.9,0.8-3.6,1.8-5.1,2.9c-2.8,2-5.1,4.3-6.9,6.2c-2.3,2.7-3.8,5.3-4.7,7.1H306.5z"/>
<path opacity="8.000000e-02" d="M306.5,24.2c7.2-9.9,16.2-15.4,14.3-18.3c-0.5-0.8-1.7-1.1-3.2-1c-0.1,0-0.1,0-0.2,0
	c-3.4,0.2-8.2,1.9-10.9,3.1c-1.9,0.8-3.6,1.8-5.1,2.9c-2.8,2-5.1,4.3-6.9,6.2c-2.3,2.7-3.8,5.3-4.7,7.1H306.5z"/>
<linearGradient id="SVGID_2_" gradientUnits="userSpaceOnUse" x1="314.8423" y1="194.0449" x2="314.8423" y2="97.6939">
	<stop  offset="0" style="stop-color:#FFFFFF"/>
	<stop  offset="1" style="stop-color:#AAAAAA"/>
</linearGradient>
<path fill="url(#SVGID_2_)" d="M322.8,124.7c-3-2.5-6.4-5.3-7.6-10.3c-1.2-4.8,0.1-10.3,3.7-16.2l-0.9-0.5c-3.7,6.2-5,11.9-3.8,17
	c1.3,5.3,4.8,8.2,7.9,10.8c2.7,2.2,4.9,4.1,4.9,7c0,4.1-4.7,6.8-9.7,9.7c-5.7,3.3-12.2,7.1-13.2,13.8c-0.5,3.3,0.6,5.6,1.8,7.9
	c1.1,2.3,2.3,4.6,2.3,8.3c0,5-2.2,9.9-6.6,14.8c0.2,0.3,0.4,0.5,0.6,0.8c4.6-5.2,6.9-10.4,7-15.6c0-3.9-1.2-6.5-2.4-8.7
	c-1.1-2.3-2.1-4.3-1.7-7.3c0.9-6.2,6.9-9.7,12.7-13c5.2-3,10.1-5.9,10.2-10.5C328.1,129.1,325.6,127.1,322.8,124.7z"/>
<linearGradient id="SVGID_3_" gradientUnits="userSpaceOnUse" x1="298.172" y1="194.0449" x2="298.172" y2="97.6939">
	<stop  offset="0" style="stop-color:#FFFFFF"/>
	<stop  offset="1" style="stop-color:#AAAAAA"/>
</linearGradient>
<path fill="url(#SVGID_3_)" d="M294.8,193.3l0.6,0.8c2.4-1.9,4.4-3.7,6.2-5.6c-0.2-0.3-0.4-0.5-0.6-0.8
	C299.2,189.5,297.1,191.4,294.8,193.3z"/>
<path fill="#A7A2BE" d="M342.5,29.4c-0.2-1.3-0.5-3.1-1.5-4.9c-2.7-5.2-7.8-7-9.2-7.4c1.4,1,4.2,3.3,5.8,7.3
	c0.8,1.9,1.1,3.7,1.2,5.1C340,29.5,341.2,29.4,342.5,29.4z"/>
<path opacity="0.8" fill="#FFFFFF" d="M342.5,29.4c-0.2-1.3-0.5-3.1-1.5-4.9c-2.7-5.2-7.8-7-9.2-7.4c1.4,1,4.2,3.3,5.8,7.3
	c0.8,1.9,1.1,3.7,1.2,5.1C340,29.5,341.2,29.4,342.5,29.4z"/>
<path fill="#A7A2BE" d="M338.8,30.7l-0.1,2.5c0,0,1.1,0.3,2.3,0.3c0.8,0,1.3-0.1,1.6-0.5c0.1-0.2,0.1-0.5,0.1-0.9
	c0-0.6,0-0.6-0.1-1.5L338.8,30.7z"/>
<path opacity="0.8" fill="#FFFFFF" d="M338.8,30.7l-0.1,2.5c0,0,1.1,0.3,2.3,0.3c0.8,0,1.3-0.1,1.6-0.5c0.1-0.2,0.1-0.5,0.1-0.9
	c0-0.6,0-0.6-0.1-1.5L338.8,30.7z"/>
<path fill="#FC5447" d="M150.3,25.7c-7.4-2-14.4-2.9-21-2.9c-17.7,0-31.5,4.8-41.6,14.4c-2.7,2.5-5,5.3-6.9,8.1
	c-4.9,7.2-7.6,15.5-8.1,24.8c8.1,1.5,15,6.7,18.8,12.4c5.2,7.9,5,16.9,2.7,25.6c5.2,2,11.3,3,18.2,3c10.7,0,20.5-2,29.5-6
	c1.5-0.7,2.6-2,2.9-3.6l8-37.5c0.7-3.1-1.7-6-4.9-6h-31.2c-2.4,0-4.4,1.6-4.9,4l-2,9.5c-0.7,3.1,1.7,6,4.9,6h9.5l-2.7,12.4
	c-1.7,0.4-3.5,0.7-5.4,0.7c-5.2,0-9.2-1.6-12-4.7c-2.8-3.1-4.2-7.6-4.2-13.3c0-9,2.5-16.1,7.6-21.3c5.1-5.2,12.2-7.7,21.3-7.7
	c5.5,0,10.8,1,15.9,3.1c2.8,1.1,6-0.6,6.7-3.6l2.6-11.5C154.6,29,152.9,26.4,150.3,25.7z"/>
<path fill="#FC5447" d="M223.7,26.2c-7.6-2.3-15-3.5-22.3-3.5c-11.2,0-19.8,2.7-25.9,8.2c-6.1,5.5-9.2,12.2-9.2,20.2
	c0,5.9,1.4,10.7,4.1,14.4c2.8,3.7,7.4,7.1,13.8,10.1c4.4,2,7.2,3.6,8.5,4.9s1.9,2.9,1.9,4.6c0,4.4-3.1,6.6-9.3,6.6
	c-5.8,0-11.6-1.6-17.3-4.7c-2.9-1.6-6.5,0.1-7.2,3.4l-2.2,10.2c-0.5,2.4,0.8,4.7,3,5.7c7.2,3.1,15.2,4.7,23.7,4.7
	c12,0,21.1-2.6,27.3-7.8c6.2-5.2,9.3-11.8,9.3-19.7c0-5.8-1.3-10.5-3.9-14.3c-2.6-3.8-7.4-7.5-14.3-11.2c-3.9-2.1-6.5-3.8-8-5.1
	c-1.4-1.3-2.2-2.9-2.2-4.8c0-1.7,0.7-3.2,2.2-4.4c1.5-1.2,3.7-1.8,6.5-1.8c5,0,10.3,1.2,15.8,3.6c2.9,1.3,6.3-0.5,6.9-3.6l2-9.9
	C227.6,29.4,226.2,26.9,223.7,26.2z"/>
<path fill="#FC5447" d="M264.3,85.2c0-0.1,0.1-0.3,0.2-0.5c1.1-3.3,3.4-8.1,7.9-11.9c2-1.8,4.4-3.4,7.2-4.5c0.1,0,0.1-0.1,0.2-0.1
	l4.2-20.1c0.3-1.3,1-2.3,2-3.1c0.1-0.1,0.2-0.1,0.3-0.2c0.8-0.5,1.6-0.7,2.6-0.7h9.6h6.5c2.4,0,4.4-1.7,4.9-4l2.1-10.1
	c0.7-3.1-1.7-6-4.9-6h-0.6h-16.7h-0.3h-46.1c-2.4,0-4.4,1.7-4.9,4l-2.1,10.1c-0.7,3.1,1.7,6,4.9,6h11.6c3.2,0,5.5,2.9,4.9,6
	l-11.2,53.2c-0.7,3.1,1.7,6,4.9,6H267c0.3,0,0.7,0,1-0.1C264.2,102.9,261.3,94.4,264.3,85.2z"/>
<path opacity="0.8" fill="#A9C8FF" d="M49.8,127.9c0.4,0.6,0.7,1,1,1.4c0.6,0.9,1.5,2.1,2.7,3.6c-0.7-0.9-1.4-1.8-2-2.7
	C50.9,129.4,50.3,128.6,49.8,127.9z"/>
<path opacity="0.8" fill="#A9C8FF" d="M72.7,75.7c-3.9,6.8-8.6,13.1-12.7,18.6c-3.1,4.2-6.1,8.2-9.2,11.4
	c-0.5,16.6,9.8,31.1,7.8,32.1c-0.3,0.1-0.7,0-1.1-0.4c3.4,3.5,7.7,6.7,12.2,7.2c0.4-1.1,0.8-2,1.2-2.7c0.7,0.6,1.5,1.4,2.3,2.5
	c6.4-1.5,9.8-8.9,13.6-17.1c2.6-5.6,5.7-12.3,7.5-19.3c-4.3-1.7-8-4-11.2-7C76.6,94.9,73.2,86.4,72.7,75.7z"/>
<path opacity="0.8" fill="#A9C8FF" d="M41.7,112.2c0.5,1.4,1,2.7,1.5,4C42.8,115.1,42.3,113.7,41.7,112.2
	C41.7,112.2,41.7,112.2,41.7,112.2z"/>
<path fill="#A6E1FF" d="M41.2,90.3c0.2-0.7,0.8-2.2,1.8-4.2c-0.1,0.3-0.2,0.4-0.3,0.5c-4.4,8.8-3.5,17.9-1,25.5c0,0,0,0,0.1,0
	C40,106.8,38.3,98.9,41.2,90.3z"/>
<path opacity="0.8" fill="#A9C8FF" d="M41.2,90.3c0.2-0.7,0.8-2.2,1.8-4.2c-0.1,0.3-0.2,0.4-0.3,0.5c-4.4,8.8-3.5,17.9-1,25.5
	c0,0,0,0,0.1,0C40,106.8,38.3,98.9,41.2,90.3z"/>
<path fill="#A6E1FF" d="M67.2,69.6c-0.7,0-1.4,0.1-2.1,0.2c1.1-0.1,2.1,0.1,2.5,0.7c2.5,3.2-12.4,12.1-16,28.4
	c-0.5,2.3-0.8,4.6-0.8,6.8c3.1-3.2,6.1-7.2,9.2-11.4c4.1-5.5,8.8-11.8,12.7-18.6c0-0.9-0.1-1.8-0.1-2.7c0-1,0-2,0.1-3
	C70.9,69.7,69.1,69.5,67.2,69.6z"/>
<path opacity="0.8" fill="#A9C8FF" d="M67.2,69.6c-0.7,0-1.4,0.1-2.1,0.2c1.1-0.1,2.1,0.1,2.5,0.7c2.5,3.2-12.4,12.1-16,28.4
	c-0.5,2.3-0.8,4.6-0.8,6.8c3.1-3.2,6.1-7.2,9.2-11.4c4.1-5.5,8.8-11.8,12.7-18.6c0-0.9-0.1-1.8-0.1-2.7c0-1,0-2,0.1-3
	C70.9,69.7,69.1,69.5,67.2,69.6z"/>
<path fill="#A6E1FF" d="M63,70.1c-3.4,0.7-6.4,2.1-9,3.9c0.4-0.3,0.8-0.5,1.3-0.7C57.2,72.2,60.3,70.8,63,70.1z"/>
<path opacity="0.8" fill="#A9C8FF" d="M63,70.1c-3.4,0.7-6.4,2.1-9,3.9c0.4-0.3,0.8-0.5,1.3-0.7C57.2,72.2,60.3,70.8,63,70.1z"/>
<path fill="#FC5447" d="M91.5,82.4c-3.8-5.8-10.7-11-18.8-12.4c0,1-0.1,2-0.1,3c0,0.9,0,1.8,0.1,2.7c0.5,10.7,3.9,19.2,10.4,25.3
	c3.1,3,6.9,5.3,11.2,7C96.5,99.4,96.7,90.3,91.5,82.4z M81.4,83.8c-2.6-3.4-5.9-4.9-7.5-5.5c1.5,0.1,6.9,0.5,10.9,4.7
	c1.4,1.5,2.2,3.1,2.7,4.3c-1.2,0.3-2.4,0.7-3.6,1C83.4,87.1,82.7,85.4,81.4,83.8z M88.5,90.8c-0.2,0.5-0.7,0.6-1.4,0.9
	c-1.1,0.3-2.3,0.4-2.3,0.4l-0.5-2.3l3.6-1.1c0.1,0.3,0.3,0.7,0.5,1.3C88.5,90.4,88.6,90.6,88.5,90.8z"/>
<path opacity="0.8" fill="#A9C8FF" d="M91.5,82.4c-3.8-5.8-10.7-11-18.8-12.4c0,1-0.1,2-0.1,3c0,0.9,0,1.8,0.1,2.7
	c0.5,10.7,3.9,19.2,10.4,25.3c3.1,3,6.9,5.3,11.2,7C96.5,99.4,96.7,90.3,91.5,82.4z M81.4,83.8c-2.6-3.4-5.9-4.9-7.5-5.5
	c1.5,0.1,6.9,0.5,10.9,4.7c1.4,1.5,2.2,3.1,2.7,4.3c-1.2,0.3-2.4,0.7-3.6,1C83.4,87.1,82.7,85.4,81.4,83.8z M88.5,90.8
	c-0.2,0.5-0.7,0.6-1.4,0.9c-1.1,0.3-2.3,0.4-2.3,0.4l-0.5-2.3l3.6-1.1c0.1,0.3,0.3,0.7,0.5,1.3C88.5,90.4,88.6,90.6,88.5,90.8z"/>
<path opacity="5.000000e-02" d="M43.2,116.2c1.9,4.8,4.3,8.5,6.6,11.7C48.1,125.5,45.4,121.4,43.2,116.2
	C43.2,116.2,43.2,116.2,43.2,116.2z"/>
<path opacity="5.000000e-02" d="M57.5,137.4c-1.5-1.6-2.9-3.2-4-4.6C55,134.8,56.4,136.6,57.5,137.4z"/>
<path fill="#A6E1FF" d="M63,70.1c0.7-0.1,1.3-0.2,2-0.3C64.4,69.8,63.8,70,63,70.1z"/>
<path opacity="5.000000e-02" d="M63,70.1c0.7-0.1,1.3-0.2,2-0.3C64.4,69.8,63.8,70,63,70.1z"/>
<path fill="#A6E1FF" d="M54,74c-5.8,3.5-9.2,8.5-11,12.2C44.1,84.2,47.7,78.2,54,74z"/>
<path opacity="5.000000e-02" d="M54,74c-5.8,3.5-9.2,8.5-11,12.2C44.1,84.2,47.7,78.2,54,74z"/>
<path opacity="0.8" fill="#A9C8FF" d="M58.6,137.8c2-1-8.3-15.5-7.8-32.1c-2.9,3-5.8,5.3-9,6.4c0.5,1.6,1,2.9,1.5,4
	c2.2,5.2,4.9,9.3,6.6,11.7c0.6,0.8,1.1,1.5,1.6,2.2c0.7,0.9,1.4,1.8,2,2.7c1.1,1.4,2.5,3.1,4,4.6C57.9,137.8,58.3,137.9,58.6,137.8z
	"/>
<path opacity="5.000000e-02" d="M58.6,137.8c2-1-8.3-15.5-7.8-32.1c-2.9,3-5.8,5.3-9,6.4c0.5,1.6,1,2.9,1.5,4
	c2.2,5.2,4.9,9.3,6.6,11.7c0.6,0.8,1.1,1.5,1.6,2.2c0.7,0.9,1.4,1.8,2,2.7c1.1,1.4,2.5,3.1,4,4.6C57.9,137.8,58.3,137.9,58.6,137.8z
	"/>
<path fill="#A6E1FF" d="M67.6,70.5c-0.5-0.6-1.4-0.8-2.5-0.7c-0.7,0.1-1.4,0.2-2,0.3c-2.7,0.7-5.9,2.1-7.7,3.1
	c-0.4,0.2-0.9,0.5-1.3,0.7c-6.3,4.2-10,10.2-11,12.2c-1,2-1.6,3.5-1.8,4.2c-2.9,8.6-1.2,16.4,0.6,21.8c3.2-1.2,6.2-3.5,9-6.4
	c0.1-2.2,0.3-4.5,0.8-6.8C55.3,82.6,70.1,73.7,67.6,70.5z"/>
<path opacity="0.8" fill="#A9C8FF" d="M67.6,70.5c-0.5-0.6-1.4-0.8-2.5-0.7c-0.7,0.1-1.4,0.2-2,0.3c-2.7,0.7-5.9,2.1-7.7,3.1
	c-0.4,0.2-0.9,0.5-1.3,0.7c-6.3,4.2-10,10.2-11,12.2c-1,2-1.6,3.5-1.8,4.2c-2.9,8.6-1.2,16.4,0.6,21.8c3.2-1.2,6.2-3.5,9-6.4
	c0.1-2.2,0.3-4.5,0.8-6.8C55.3,82.6,70.1,73.7,67.6,70.5z"/>
<path opacity="5.000000e-02" d="M67.6,70.5c-0.5-0.6-1.4-0.8-2.5-0.7c-0.7,0.1-1.4,0.2-2,0.3c-2.7,0.7-5.9,2.1-7.7,3.1
	c-0.4,0.2-0.9,0.5-1.3,0.7c-6.3,4.2-10,10.2-11,12.2c-1,2-1.6,3.5-1.8,4.2c-2.9,8.6-1.2,16.4,0.6,21.8c3.2-1.2,6.2-3.5,9-6.4
	c0.1-2.2,0.3-4.5,0.8-6.8C55.3,82.6,70.1,73.7,67.6,70.5z"/>
<path opacity="0.8" fill="#A9C8FF" d="M69.7,144.6c-0.1,0.4-0.3,0.8-0.4,1.2c-0.6,1.9-0.8,3.7-0.8,5c0.1-0.3,1.1-1.9,3.2-2.3
	s3.6,0.7,3.9,0.8c-0.3-1-0.8-2.5-1.8-4.1c-0.2-0.3-0.4-0.6-0.6-0.8c-0.2,0-0.3,0.1-0.5,0.1C71.7,144.7,70.7,144.7,69.7,144.6z"/>
<path opacity="0.8" fill="#A9C8FF" d="M70.9,141.9c-0.4,0.8-0.8,1.7-1.2,2.7c1,0.1,2,0.1,3-0.1c0.2,0,0.3-0.1,0.5-0.1
	C72.4,143.3,71.5,142.4,70.9,141.9z"/>
<path opacity="0.8" fill="#A9C8FF" d="M70.9,141.9c-0.4,0.8-0.8,1.7-1.2,2.7c1,0.1,2,0.1,3-0.1c0.2,0,0.3-0.1,0.5-0.1
	C72.4,143.3,71.5,142.4,70.9,141.9z"/>
<linearGradient id="SVGID_4_" gradientUnits="userSpaceOnUse" x1="80.8403" y1="214.1104" x2="80.8403" y2="149.2383">
	<stop  offset="0" style="stop-color:#FFFFFF"/>
	<stop  offset="1" style="stop-color:#AAAAAA"/>
</linearGradient>
<path fill="url(#SVGID_4_)" d="M79.8,185c-2.9-0.8-5.3-1.5-6.3-3.9c-0.9-2.2,0.3-4.3,1.7-6.9c1.5-2.7,3.1-5.7,3.3-9.8
	c0.2-5-1.8-10.2-6.2-15.2l-0.8,0.6c4.1,4.9,6.1,9.8,5.9,14.5c-0.2,3.9-1.8,6.8-3.2,9.4c-1.5,2.7-2.8,5.1-1.8,7.7
	c1.1,2.8,3.9,3.6,6.9,4.5c2.8,0.8,5.6,1.6,7.5,4c3.4,4.3,2.4,12.3-2.9,23.7l0.9,0.4c5.5-11.8,6.4-20.1,2.8-24.7
	C85.8,186.7,82.6,185.8,79.8,185z"/>
<path fill="#FC5447" d="M84.7,83c-4-4.3-9.4-4.7-10.9-4.7c1.6,0.6,4.9,2.1,7.5,5.5c1.3,1.7,2,3.3,2.5,4.6c1.2-0.3,2.4-0.7,3.6-1
	C87,86.1,86.1,84.5,84.7,83z"/>
<path opacity="0.8" fill="#A9C8FF" d="M84.7,83c-4-4.3-9.4-4.7-10.9-4.7c1.6,0.6,4.9,2.1,7.5,5.5c1.3,1.7,2,3.3,2.5,4.6
	c1.2-0.3,2.4-0.7,3.6-1C87,86.1,86.1,84.5,84.7,83z"/>
<path opacity="0.8" fill="#FFFFFF" d="M84.7,83c-4-4.3-9.4-4.7-10.9-4.7c1.6,0.6,4.9,2.1,7.5,5.5c1.3,1.7,2,3.3,2.5,4.6
	c1.2-0.3,2.4-0.7,3.6-1C87,86.1,86.1,84.5,84.7,83z"/>
<path fill="#FC5447" d="M87.9,88.7l-3.6,1.1l0.5,2.3c0,0,1.2-0.1,2.3-0.4c0.7-0.2,1.3-0.4,1.4-0.9c0.1-0.2,0-0.4-0.1-0.9
	C88.3,89.4,88.1,88.9,87.9,88.7z"/>
<path opacity="0.8" fill="#A9C8FF" d="M87.9,88.7l-3.6,1.1l0.5,2.3c0,0,1.2-0.1,2.3-0.4c0.7-0.2,1.3-0.4,1.4-0.9
	c0.1-0.2,0-0.4-0.1-0.9C88.3,89.4,88.1,88.9,87.9,88.7z"/>
<path opacity="0.8" fill="#FFFFFF" d="M87.9,88.7l-3.6,1.1l0.5,2.3c0,0,1.2-0.1,2.3-0.4c0.7-0.2,1.3-0.4,1.4-0.9
	c0.1-0.2,0-0.4-0.1-0.9C88.3,89.4,88.1,88.9,87.9,88.7z"/>
<path fill="#FFDBB8" d="M275.8,119.6c0.4,0.4,0.8,0.8,1,1.1c0.7,0.7,1.6,1.6,2.7,2.7c-0.7-0.7-1.4-1.4-2.1-2.1
	C276.9,120.7,276.4,120.2,275.8,119.6z"/>
<path fill="#FFDBB8" d="M302.2,72.1c-2.3-1.8-5.1-3.2-8.1-4.1c-0.1,0-0.2-0.1-0.3-0.1c-3.4-1-7-1.3-10.7-0.6
	c-0.6,0.1-1.2,0.3-1.8,0.4c1-0.2,1.8-0.2,2.3,0.3c2.6,2.4-9,12-10,26.5c-1.1,17.1,12.9,31.2,11.1,32.4c-0.2,0.1-0.6,0.1-1-0.2
	c3.4,2.5,7.5,4.7,11.4,4.5c-0.1,0.3-0.1,0.7-0.2,1.1c-0.2,1.7-0.2,3.2-0.1,4.4c0.1-0.2,0.7-1.8,2.4-2.4c1.7-0.7,3.2,0.1,3.4,0.2
	c-0.4-0.9-1-2-2-3.3c-0.2-0.2-0.4-0.4-0.6-0.6c5.3-2.1,7.2-8.9,9.4-16.4c2.1-7.3,4.8-16.5,4-25.1c-0.5-5.1-2.1-9.9-5.8-14
	C304.6,74.1,303.4,73.1,302.2,72.1z M297.1,77.7c-2.7-2.6-5.7-3.4-7.2-3.7c1.3-0.1,6-0.5,9.9,2.6c1.4,1.1,2.3,2.4,2.9,3.4
	c-1,0.4-2,0.9-2.9,1.3C299.3,80.2,298.4,78.9,297.1,77.7z M303,83.7c-0.9,0.4-1.9,0.7-1.9,0.7l-0.7-1.9l3-1.4c0.2,0.2,0.4,0.6,0.6,1
	c0.2,0.4,0.2,0.5,0.2,0.7C304,83.2,303.6,83.4,303,83.7z"/>
<path fill="#FFDBB8" d="M273.3,72.1c1.5-1.1,4-2.8,6.2-3.7c-2.9,1.1-5.2,2.7-7.2,4.5C272.7,72.6,273,72.3,273.3,72.1z"/>
<path fill="#FFDBB8" d="M263.5,88.6c0.1-0.6,0.4-2,1-3.8c-0.1,0.2-0.1,0.4-0.2,0.5c-3,9.1-0.1,17.7,3.7,24.2c0.2,0.3,0.4,0.7,0.6,1
	C266.3,106.5,261.8,98.5,263.5,88.6z"/>
<path opacity="5.000000e-02" d="M283.6,126.8c-1.5-1.1-2.9-2.3-4.1-3.4C281.1,124.9,282.6,126.2,283.6,126.8z"/>
<path opacity="5.000000e-02" d="M268.6,110.4c2.2,3.9,4.8,6.7,7.2,9.2C274,117.8,271.2,114.6,268.6,110.4
	C268.6,110.4,268.6,110.4,268.6,110.4z"/>
<path opacity="5.000000e-02" d="M279.8,68.3c0.5-0.2,1-0.3,1.5-0.5C280.8,67.9,280.3,68.1,279.8,68.3L279.8,68.3z"/>
<path fill="#FC5447" d="M279.6,68.4c0.1,0,0.1,0,0.2-0.1l0,0C279.7,68.3,279.6,68.4,279.6,68.4z"/>
<path opacity="5.000000e-02" d="M279.6,68.4c0.1,0,0.1,0,0.2-0.1l0,0C279.7,68.3,279.6,68.4,279.6,68.4z"/>
<path fill="#FC5447" d="M264.5,84.7c0.7-1.8,3-7.4,7.9-11.9C267.8,76.7,265.6,81.4,264.5,84.7z"/>
<path opacity="5.000000e-02" d="M264.5,84.7c0.7-1.8,3-7.4,7.9-11.9C267.8,76.7,265.6,81.4,264.5,84.7z"/>
<path fill="#FFDBB8" d="M284.6,127c1.8-1.2-12.2-15.3-11.1-32.4c1-14.5,12.5-24,10-26.5c-0.5-0.5-1.3-0.5-2.3-0.3
	c-0.5,0.1-1,0.3-1.5,0.5c-0.1,0-0.1,0-0.2,0.1c-2.2,0.9-4.7,2.6-6.2,3.7c-0.3,0.3-0.7,0.5-1,0.8c-4.9,4.4-7.2,10.1-7.9,11.9
	c-0.6,1.8-0.9,3.2-1,3.8c-1.7,10,2.8,17.9,5.1,21.9c2.6,4.1,5.4,7.3,7.2,9.2c0.6,0.6,1.1,1.1,1.7,1.7c0.7,0.7,1.4,1.4,2.1,2.1
	c1.2,1.1,2.5,2.3,4.1,3.4C284.1,127,284.4,127.1,284.6,127z"/>
<path opacity="5.000000e-02" d="M284.6,127c1.8-1.2-12.2-15.3-11.1-32.4c1-14.5,12.5-24,10-26.5c-0.5-0.5-1.3-0.5-2.3-0.3
	c-0.5,0.1-1,0.3-1.5,0.5c-0.1,0-0.1,0-0.2,0.1c-2.2,0.9-4.7,2.6-6.2,3.7c-0.3,0.3-0.7,0.5-1,0.8c-4.9,4.4-7.2,10.1-7.9,11.9
	c-0.6,1.8-0.9,3.2-1,3.8c-1.7,10,2.8,17.9,5.1,21.9c2.6,4.1,5.4,7.3,7.2,9.2c0.6,0.6,1.1,1.1,1.7,1.7c0.7,0.7,1.4,1.4,2.1,2.1
	c1.2,1.1,2.5,2.3,4.1,3.4C284.1,127,284.4,127.1,284.6,127z"/>
<linearGradient id="SVGID_5_" gradientUnits="userSpaceOnUse" x1="303.9879" y1="193.0918" x2="303.9879" y2="134.8799">
	<stop  offset="0" style="stop-color:#FFFFFF"/>
	<stop  offset="1" style="stop-color:#AAAAAA"/>
</linearGradient>
<path fill="url(#SVGID_5_)" d="M305.7,193.1l0.7-0.7c-1.5-1.6-2.9-3.2-4.2-4.7c-0.2,0.2-0.4,0.5-0.7,0.7
	C302.8,190,304.2,191.5,305.7,193.1z"/>
<linearGradient id="SVGID_6_" gradientUnits="userSpaceOnUse" x1="299.0075" y1="193.0918" x2="299.0075" y2="134.8799">
	<stop  offset="0" style="stop-color:#FFFFFF"/>
	<stop  offset="1" style="stop-color:#AAAAAA"/>
</linearGradient>
<path fill="url(#SVGID_6_)" d="M294.2,165.9c1-3.4,3.3-5.9,5.6-8.3c2.8-3,5.5-5.9,5.5-10.3c0-4.2-2.5-8.3-7.3-12.4l-0.6,0.8
	c4.6,3.8,6.9,7.7,6.9,11.6c0,4-2.5,6.7-5.3,9.6c-2.3,2.5-4.8,5.1-5.8,8.7c-1.8,6,0.8,13.4,7.7,22c0.2-0.2,0.5-0.5,0.7-0.7
	C295,178.6,292.5,171.6,294.2,165.9z"/>
<linearGradient id="SVGID_7_" gradientUnits="userSpaceOnUse" x1="301.5946" y1="194.0449" x2="301.5946" y2="97.6939">
	<stop  offset="0" style="stop-color:#FFFFFF"/>
	<stop  offset="1" style="stop-color:#AAAAAA"/>
</linearGradient>
<path fill="url(#SVGID_7_)" d="M300.9,187.7c0.2,0.3,0.4,0.5,0.6,0.8c0.2-0.2,0.5-0.5,0.7-0.7c-0.2-0.3-0.4-0.5-0.6-0.8
	C301.4,187.2,301.2,187.4,300.9,187.7z"/>
<linearGradient id="SVGID_8_" gradientUnits="userSpaceOnUse" x1="301.5946" y1="193.0918" x2="301.5946" y2="134.8799">
	<stop  offset="0" style="stop-color:#FFFFFF"/>
	<stop  offset="1" style="stop-color:#AAAAAA"/>
</linearGradient>
<path fill="url(#SVGID_8_)" d="M300.9,187.7c0.2,0.3,0.4,0.5,0.6,0.8c0.2-0.2,0.5-0.5,0.7-0.7c-0.2-0.3-0.4-0.5-0.6-0.8
	C301.4,187.2,301.2,187.4,300.9,187.7z"/>
<path fill="#FFDBB8" d="M302.7,79.9c-0.6-1-1.5-2.3-2.9-3.4c-4-3.1-8.6-2.8-9.9-2.6c1.5,0.3,4.5,1.2,7.2,3.7
	c1.3,1.3,2.2,2.6,2.7,3.6C300.8,80.8,301.8,80.4,302.7,79.9z"/>
<path opacity="0.8" fill="#FFFFFF" d="M302.7,79.9c-0.6-1-1.5-2.3-2.9-3.4c-4-3.1-8.6-2.8-9.9-2.6c1.5,0.3,4.5,1.2,7.2,3.7
	c1.3,1.3,2.2,2.6,2.7,3.6C300.8,80.8,301.8,80.4,302.7,79.9z"/>
<path fill="#FFDBB8" d="M304.1,82.8c0-0.2,0-0.4-0.2-0.7c-0.2-0.5-0.4-0.8-0.6-1l-3,1.4l0.7,1.9c0,0,1-0.2,1.9-0.7
	C303.6,83.4,304,83.2,304.1,82.8z"/>
<path opacity="0.8" fill="#FFFFFF" d="M304.1,82.8c0-0.2,0-0.4-0.2-0.7c-0.2-0.5-0.4-0.8-0.6-1l-3,1.4l0.7,1.9c0,0,1-0.2,1.9-0.7
	C303.6,83.4,304,83.2,304.1,82.8z"/>
</svg>
