<svg xmlns="http://www.w3.org/2000/svg" viewBox="0 0 1232.3 350.1"><path fill="#FFF3D9" d="M57.4 65.7c-1.5 0-2.9.1-4.3.2 2.4-.1 4.3.3 5.2 1.5 4.4 6.2-24.1 21.3-32.5 51.4-9.8 35.4 13.7 71.2 9.3 73-2.1.9-7.5-7.3-12.7-15-4.7-7-10.2-15.4-13.9-26.7-3.1-9.4-9.3-28-1.3-48.3.8-2 3.4-8.3 8.8-15.1-3.6 4.3-5.6 7.7-6 8.5-19.1 33.5 5.7 71.8 11 80.1 4.8 7.5 18.3 28.4 34.4 30.5-.4.9-.8 1.9-1.2 3-1.2 3.5-1.8 6.7-2 9.3.3-.5 2.3-3.4 6.2-4 3.9-.6 6.7 1.6 7.1 1.9-.4-2-1.2-4.7-2.9-7.8-.5-.9-1-1.7-1.5-2.4 12.3-2 19.4-15.6 27.3-30.6 12.1-23.1 29.3-55.8 13.1-83.2C93.4 78.3 77 65.9 57.4 65.7zm28.9 31c-2.8-6.3-7.4-10-9.8-11.6 2.3.7 10.7 3.4 15.3 11.6 1.6 2.9 2.3 5.7 2.6 7.9-2 .1-4 .2-6 .2-.2-2.1-.7-5-2.1-8.1zm8.5 13.7c-.4.7-1.4.8-2.6.9-1.9.1-3.7-.4-3.7-.4l.1-4.1 6.1-.3c.2 1.4.3 1.5.3 2.4 0 .7 0 1.2-.2 1.5zM52.3 65.9c-9.9 1-18.1 5-24.6 9.8 2.3-1.6 4.7-3.1 7.5-4.4 4.1-2 11.6-4.8 17.1-5.4z"></path><path fill="#FDF1D8" d="M8.6 150.1c3.7 11.3 9.2 19.6 13.9 26.7 5.1 7.7 10.5 15.9 12.7 15 4.4-1.8-19.1-37.6-9.3-73 8.3-30.1 36.8-45.2 32.5-51.4-.9-1.3-2.8-1.7-5.2-1.5-.3 0-.6 0-.8.1-5.5.5-12.9 3.4-17.1 5.4-2.7 1.3-5.2 2.8-7.5 4.4-4.8 3.4-8.6 7.3-11.6 11-5.4 6.8-8 13.1-8.8 15.1-8.1 20.2-1.9 38.9 1.2 48.2z"></path><linearGradient id="a" gradientUnits="userSpaceOnUse" x1="51.949" y1="335.257" x2="51.949" y2="210.823" gradientTransform="rotate(-9.069 90.945 171.92)"><stop offset="0" stop-color="#fff"></stop><stop offset="1" stop-color="#eee"></stop></linearGradient><path fill="url(#a)" d="M77.3 273.2c-2.9-1.6-7 .2-10.7 1.7-3 1.3-5.8 2.5-6.9 1.3-1.6-1.8 1.8-7.7 5-13.5 4.4-7.8 9.4-16.6 6.1-20.9-1.4-1.9-3.6-2-6-2.2-2.4-.2-4.8-.4-6.7-2.4-3.3-3.4-3.1-10.2.6-20.3l-.9-.3c-3.8 10.4-3.9 17.6-.4 21.3 2.1 2.2 4.9 2.5 7.3 2.7 2.2.2 4.1.4 5.3 1.9 2.9 3.8-1.9 12.3-6.2 19.8-3.8 6.6-7 12.4-4.9 14.7 1.5 1.7 4.5.4 8-1.1 3.4-1.5 7.3-3.1 9.8-1.8 6.4 3.5 2.9 26-10.5 66.7l1 .3c13.9-41.9 17.2-64.1 10.1-67.9z"></path><path fill="#FFF3D9" d="M94.5 104.6c-.3-2.2-1-5-2.6-7.9-4.6-8.2-13-11-15.3-11.6 2.4 1.6 7 5.2 9.8 11.6 1.4 3.1 1.9 6 2.2 8.2 1.8-.1 3.9-.2 5.9-.3z"></path><path opacity=".8" fill="#FFF" d="M94.5 104.6c-.3-2.2-1-5-2.6-7.9-4.6-8.2-13-11-15.3-11.6 2.4 1.6 7 5.2 9.8 11.6 1.4 3.1 1.9 6 2.2 8.2 1.8-.1 3.9-.2 5.9-.3z"></path><path fill="#FFF3D9" d="M94.7 106.5l-6.1.3-.1 4.1s1.9.5 3.7.4c1.2-.1 2.2-.2 2.6-.9.2-.3.2-.8.2-1.5-.1-1-.1-1-.3-2.4z"></path><path opacity=".8" fill="#FFF" d="M94.7 106.5l-6.1.3-.1 4.1s1.9.5 3.7.4c1.2-.1 2.2-.2 2.6-.9.2-.3.2-.8.2-1.5-.1-1-.1-1-.3-2.4z"></path><path fill="#E3E0EF" d="M1219.2 105.5c-5.4-11.3-17.4-22.3-32.9-23.8-1.2-.1-2.3-.2-3.4-.2 1.9.1 3.5.5 4.1 1.6 3 5.2-20.6 15.1-29.3 38.3-10.3 27.3 5.8 57.2 2.2 58.4-1.7.5-5.4-6.3-8.9-12.8-3.2-5.9-6.9-12.9-9.1-22-1.8-7.6-5.3-22.8 2.4-38.3.8-1.5 3.3-6.3 8-11.3-3.1 3.1-5 5.7-5.4 6.3-17.5 25.1-.6 57.2 3 64.1 3.3 6.3 12.5 23.7 25 26.5-.4.7-.8 1.4-1.2 2.3-1.2 2.7-1.9 5.2-2.3 7.2.3-.3 2-2.5 5.2-2.8 3.1-.2 5.2 1.7 5.5 2-.2-1.6-.6-3.8-1.7-6.3-.3-.7-.7-1.4-1-2 9.8-.7 16.4-10.9 23.7-22.3 11-17.6 26.9-42.2 16.1-64.9zm-19.2-7.2c1.8.7 8.2 3.4 11.3 10.3 1.1 2.4 1.4 4.7 1.5 6.4-1.6-.1-3.2-.2-4.8-.2 0-1.7-.2-4-1.1-6.6-1.8-5.2-5.1-8.4-6.9-9.9zm12.9 20.1c0 .6-.1 1-.3 1.2-.4.5-1.1.5-2.1.5-1.5 0-2.9-.6-2.9-.6l.4-3.2 4.9.2v1.9zM1182.6 81.5c-8 0-14.9 2.6-20.5 6 1.9-1.1 4-2.1 6.2-2.9 3.5-1.4 9.9-3.2 14.3-3.1z"></path><path fill="#E0DDEA" d="M1141.7 144.9c2.1 9.2 5.9 16.2 9.1 22 3.5 6.5 7.2 13.3 8.9 12.8 3.6-1.1-12.4-31.1-2.2-58.4 8.7-23.2 32.3-33.1 29.3-38.3-.6-1.1-2.1-1.5-4.1-1.6h-.3c-4.4-.1-10.7 1.7-14.3 3.1-2.2.8-4.3 1.8-6.2 2.9-4 2.3-7.3 5.1-9.9 7.9-4.7 5-7.3 9.8-8 11.3-7.6 15.5-4.1 30.7-2.3 38.3z"></path><linearGradient id="b" gradientUnits="userSpaceOnUse" x1="1167.419" y1="324.553" x2="1167.419" y2="200.779" gradientTransform="matrix(.998 .06294 -.06294 .998 14.877 -73.626)"><stop offset="0" stop-color="#fff"></stop><stop offset="1" stop-color="#eee"></stop></linearGradient><path fill="url(#b)" d="M1179.7 235.9c-3.6-3.4-7.8-7.3-8.9-13.9-1.1-6.3.9-13.3 6-20.7l-.8-.6c-5.3 7.6-7.4 14.8-6.2 21.4 1.2 6.9 5.5 10.9 9.2 14.4 3.3 3.1 6.1 5.7 5.8 9.4-.4 5.3-6.7 8.4-13.3 11.8-7.6 3.8-16.1 8.1-18 16.5-.9 4.2.3 7.1 1.6 10.2 1.3 3 2.6 6.1 2.2 10.9-.6 9.1-7 18-19.1 26.2l.6.8c12.3-8.4 18.8-17.5 19.5-27 .3-5-1.1-8.3-2.3-11.3-1.3-3.1-2.4-5.7-1.6-9.6 1.7-7.9 9.7-11.9 17.4-15.8 6.9-3.5 13.4-6.7 13.8-12.6.5-4.1-2.5-6.9-5.9-10.1z"></path><path fill="#E3E0EF" d="M1212.8 115c-.1-1.7-.5-4-1.5-6.4-3-6.8-9.5-9.6-11.3-10.3 1.7 1.4 5.1 4.6 6.9 9.8.9 2.6 1.1 4.9 1.1 6.6 1.6.2 3.2.2 4.8.3z"></path><path opacity=".8" fill="#FFF" d="M1212.8 115c-.1-1.7-.5-4-1.5-6.4-3-6.8-9.5-9.6-11.3-10.3 1.7 1.4 5.1 4.6 6.9 9.8.9 2.6 1.1 4.9 1.1 6.6 1.6.2 3.2.2 4.8.3z"></path><path fill="#E3E0EF" d="M1208 116.3l-.4 3.2s1.4.5 2.9.6c1 0 1.7 0 2.1-.5.2-.2.2-.6.3-1.2.1-.7 0-.8 0-1.9l-4.9-.2z"></path><path opacity=".8" fill="#FFF" d="M1208 116.3l-.4 3.2s1.4.5 2.9.6c1 0 1.7 0 2.1-.5.2-.2.2-.6.3-1.2.1-.7 0-.8 0-1.9l-4.9-.2z"></path><path opacity=".9" fill="#E1F0D1" d="M428 13.9c-.8-.3-1.7-.5-2.5-.7 1.3.4 2.3 1 2.6 1.8 1.5 4.6-18.9 8.4-29.8 25.3-12.8 19.9-5.3 46.4-8.3 46.6-.4 0-.7-.3-1.1-.9 2.4 5.3 5.9 10.7 10.7 13.1.9-1 1.7-1.9 2.5-2.6.5.9 1.1 2.2 1.5 3.8 7.8 1 14.7-5.9 22.4-13.5 11.9-11.8 28.7-28.6 24-48.5-2.3-9.8-10-20.5-22-24.4zm3.9 12.4c1.7.7 7.6 3.4 10.2 9.8.9 2.3 1.2 4.4 1.3 6-1.5-.1-3-.2-4.4-.3 0-1.6-.1-3.8-.9-6.2-1.5-4.8-4.6-7.9-6.2-9.3zm11.5 19.2c-.1.5-.1.8-.3 1-.4.5-1.1.4-2 .4-1.4-.1-2.7-.5-2.7-.5l.4-2.8 4.5.3c.1.4.2.9.1 1.6zM423.1 12.7c-4.2-.6-8.1-.3-11.7.6.6-.1 1.1-.2 1.7-.3 2.5-.4 6.7-.7 10-.3zM390.1 26.3c.5-.7 1.8-2.2 3.8-4-.3.2-.5.4-.6.5-10.2 9.5-12.2 22.6-11.7 33.4 0-6.3-.2-18.9 8.5-29.9zM384.2 72.1c.2.8.4 1.5.5 2 .3 1.3.8 3 1.5 5.1-.4-1.3-.8-2.6-1.1-3.9-.3-1-.6-2.1-.9-3.2z"></path><path fill="#E1F0D1" d="M389.9 87c3-.3-4.5-26.8 8.3-46.6 10.9-16.9 31.3-20.7 29.8-25.3-.3-.9-1.2-1.5-2.6-1.8-.7-.2-1.5-.4-2.4-.5-3.3-.4-7.5-.1-10 .3-.6.1-1.2.2-1.7.3-8 1.6-13.9 5.8-17.5 9.1-2 1.8-3.1 3.3-3.7 4-8.8 10.9-8.4 23.5-8.4 29.9 0 6.2 1.2 11.4 2.4 15.9.3 1.1.6 2.2.9 3.2.4 1.3.7 2.6 1.1 3.9.9 2.9 1.8 5.5 2.6 6.9.5.4.9.7 1.2.7z"></path><path opacity=".9" fill="#E1F0D1" d="M399.6 99.2c-.3.4-.6.7-.9 1.2-1.4 1.9-2.4 3.8-3 5.3.3-.2 2-1.7 4.6-1.3 2.5.4 3.8 2.2 4 2.5.1-1.3.2-3.1-.3-5.3l-.3-1.2c-.2 0-.4 0-.6-.1-1.3-.2-2.4-.6-3.5-1.1z"></path><path opacity=".9" fill="#E1F0D1" d="M399.6 99.2c1.1.5 2.2.9 3.5 1.2.2 0 .4 0 .6.1-.4-1.6-1-2.9-1.5-3.8-.9.6-1.8 1.5-2.6 2.5z"></path><path opacity=".9" fill="#E1F0D1" d="M399.6 99.2c1.1.5 2.2.9 3.5 1.2.2 0 .4 0 .6.1-.4-1.6-1-2.9-1.5-3.8-.9.6-1.8 1.5-2.6 2.5z"></path><linearGradient id="c" gradientUnits="userSpaceOnUse" x1="417.229" y1="184.214" x2="417.229" y2="106.535" gradientTransform="rotate(20.303 406.474 88.163)"><stop offset="0" stop-color="#fff"></stop><stop offset="1" stop-color="#eee"></stop></linearGradient><path fill="url(#c)" d="M393.5 134.8c2.7-2.4 5.8-5.1 7.8-9.6 2.3-5.5 2.1-12.1-.6-19.6l-.9.3c2.6 7.2 2.8 13.6.6 18.9-1.8 4.3-4.8 6.9-7.5 9.2-2.8 2.4-5.2 4.5-5.2 7.9.1 3.6 2.9 5.7 5.9 7.8 2.8 2 5.7 4.1 6.8 7.7 2 6.3-2.4 14.9-13.1 25.5l.7.7c11-11 15.5-19.9 13.4-26.6-1.2-3.9-4.4-6.2-7.2-8.2-2.9-2.1-5.4-3.9-5.5-7-.1-2.7 2-4.6 4.8-7z"></path><path opacity=".9" fill="#E1F0D1" d="M443.4 42.2c0-1.6-.3-3.7-1.3-6-2.7-6.4-8.6-9.2-10.2-9.8 1.6 1.4 4.7 4.4 6.2 9.3.8 2.4.9 4.6.9 6.2 1.5.1 2.9.2 4.4.3z"></path><path opacity=".8" fill="#FFF" d="M443.4 42.2c0-1.6-.3-3.7-1.3-6-2.7-6.4-8.6-9.2-10.2-9.8 1.6 1.4 4.7 4.4 6.2 9.3.8 2.4.9 4.6.9 6.2 1.5.1 2.9.2 4.4.3z"></path><path opacity=".9" fill="#E1F0D1" d="M438.9 43.6l-.4 2.8s1.3.4 2.7.5c.9 0 1.6.1 2-.4.2-.2.2-.5.3-1 .1-.7 0-1.2 0-1.6l-4.6-.3z"></path><path opacity=".8" fill="#FFF" d="M438.9 43.6l-.4 2.8s1.3.4 2.7.5c.9 0 1.6.1 2-.4.2-.2.2-.5.3-1 .1-.7 0-1.2 0-1.6l-4.6-.3z"></path><path opacity=".8" fill="#CCE8FD" d="M807.8 22.4c-4 1.5-7.3 3.7-10.1 6.2.4-.3.7-.6 1.1-.9 2.1-1.6 5.8-3.9 9-5.3zM802.3 96.8l1.5 1.5c1 1 2.3 2.4 4 3.9l-3-3c-.8-.7-1.7-1.6-2.5-2.4zM784.5 51.7c.1-.9.5-2.8 1.4-5.4-.1.3-.2.5-.2.6-4.6 13.9.3 27 6.3 36.6-3.4-5.8-10-17.3-7.5-31.8zM812.9 21c-.9.2-1.8.4-2.6.6 1.4-.3 2.6-.3 3.3.4 3.7 3.5-13.1 17.4-14.5 38.4-1.7 24.8 18.7 45.2 16.1 47.1-.3.2-.8.1-1.5-.3 4.9 3.7 10.8 6.9 16.6 6.6.3-1.4.6-2.6 1-3.6.9.6 2.1 1.5 3.3 2.7 7.7-3.1 10.5-12.9 13.7-23.8 4.9-16.9 11.8-40.8-2.6-56.7-7.3-8-19.8-13.9-32.8-11.4zm20.4 14.9c-3.9-3.7-8.3-5-10.4-5.4 1.9-.2 8.7-.7 14.4 3.8 2 1.6 3.4 3.4 4.2 4.9-1.4.6-2.8 1.3-4.3 1.9-.8-1.5-2-3.4-3.9-5.2zm10.1 7.4c-.1.6-.8.9-1.6 1.4-1.3.6-2.7 1-2.7 1l-1-2.8 4.3-2c.2.3.5.8.8 1.5.2.3.3.6.2.9z"></path><path fill="#CCE5F8" d="M815.2 107.5c2.7-1.8-17.8-22.3-16.1-47.1 1.4-21.1 18.2-34.9 14.5-38.4-.7-.7-1.9-.7-3.3-.4-.8.2-1.6.4-2.5.8-3.2 1.3-6.9 3.7-9 5.3-.4.3-.7.6-1.1.9-6.8 5.6-10.2 12.8-11.8 17.7-.8 2.6-1.2 4.6-1.4 5.4-2.5 14.5 4.1 26 7.4 31.8 3.2 5.6 6.9 9.8 10.4 13.3.8.8 1.6 1.7 2.4 2.4l3 3c2.3 2.2 4.5 4.2 5.9 5 .7.4 1.3.5 1.6.3z"></path><path fill="#CCE8FD" d="M831.2 110.2c-.4 1-.7 2.2-1 3.6l-.3 1.5c-.3 2.5-.3 4.7-.1 6.4.1-.3 1-2.6 3.5-3.5s4.6.1 5 .3c-.5-1.2-1.4-3-3-4.7l-.9-.9c-1.1-1.3-2.3-2.1-3.2-2.7z"></path><linearGradient id="d" gradientUnits="userSpaceOnUse" x1="836.862" y1="203.351" x2="836.862" y2="119.156"><stop offset="0" stop-color="#fff"></stop><stop offset="1" stop-color="#eee"></stop></linearGradient><path fill="url(#d)" d="M828.8 163.9c1.5-5 4.9-8.7 8.2-12.2 4.1-4.4 8-8.5 8-14.8 0-6-3.6-12-10.5-17.8l-.6.8c6.7 5.6 10.2 11.3 10.2 17 0 5.9-3.7 9.9-7.7 14.1-3.4 3.6-6.9 7.3-8.4 12.6-3.1 10.5 3 23.8 18 39.7l.7-.7c-14.8-15.5-20.8-28.6-17.9-38.7z"></path><path opacity=".8" fill="#CCE8FD" d="M837.2 34.3c-5.7-4.6-12.6-4-14.4-3.8 2.2.5 6.5 1.7 10.4 5.4 1.9 1.8 3.2 3.7 4 5.2 1.4-.6 2.8-1.3 4.3-1.9-.9-1.5-2.2-3.3-4.3-4.9z"></path><path opacity=".8" fill="#FFF" d="M837.2 34.3c-5.7-4.6-12.6-4-14.4-3.8 2.2.5 6.5 1.7 10.4 5.4 1.9 1.8 3.2 3.7 4 5.2 1.4-.6 2.8-1.3 4.3-1.9-.9-1.5-2.2-3.3-4.3-4.9z"></path><path opacity=".8" fill="#CCE8FD" d="M842.3 40.7l-4.3 2 1 2.8s1.4-.3 2.7-1c.9-.4 1.5-.8 1.6-1.4.1-.3-.1-.6-.3-1.1-.1-.4-.4-.9-.7-1.3z"></path><path opacity=".8" fill="#FFF" d="M842.3 40.7l-4.3 2 1 2.8s1.4-.3 2.7-1c.9-.4 1.5-.8 1.6-1.4.1-.3-.1-.6-.3-1.1-.1-.4-.4-.9-.7-1.3z"></path></svg>
