<?xml version="1.0" encoding="utf-8"?>
<!-- Generator: Adobe Illustrator 19.1.0, SVG Export Plug-In . SVG Version: 6.00 Build 0)  -->
<svg version="1.1" id="Layer_1" xmlns="http://www.w3.org/2000/svg" xmlns:xlink="http://www.w3.org/1999/xlink" x="0px" y="0px"
	 viewBox="0 0 512 512" enable-background="new 0 0 512 512" xml:space="preserve">
<g>
	<polygon fill="#E6F0F4" points="139.9,101.4 139.9,437.7 302.7,437.7 398.4,363.3 398.4,100 	"/>
	<circle fill="#26CBFC" cx="248.7" cy="221" r="63.7"/>
	<path fill="#234957" d="M248.7,289.7c-37.9,0-68.7-30.8-68.7-68.7c0-37.9,30.8-68.7,68.7-68.7s68.7,30.8,68.7,68.7
		C317.4,258.9,286.5,289.7,248.7,289.7z M248.7,162.3c-32.4,0-58.7,26.3-58.7,58.7c0,32.4,26.3,58.7,58.7,58.7s58.7-26.3,58.7-58.7
		C307.4,188.7,281,162.3,248.7,162.3z"/>
	<polyline fill="#FFFFFF" points="292.8,414 292.8,337.7 376.1,336.2 	"/>
	<path fill="#234957" d="M298.8,414h-12v-76.3c0-3.3,2.6-5.9,5.9-6l83.3-1.5l0.2,12l-77.4,1.4V414z"/>
	<path fill="#234957" d="M119.6,311.7c-3.3,0-6-2.7-6-6V81.8c0-3.3,2.7-6,6-6l161.1-0.9c0,0,0,0,0,0c3.3,0,6,2.7,6,6
		c0,3.3-2.7,6-6,6l-155.1,0.8v217.9C125.6,309,122.9,311.7,119.6,311.7z"/>
	<path fill="#234957" d="M282.4,424H119.6c-3.3,0-6-2.7-6-6v-50.7c0-3.3,2.7-6,6-6s6,2.7,6,6V412h154.7l91.8-71.3V86.4l-33.6,0.2
		c0,0,0,0,0,0c-3.3,0-6-2.7-6-6c0-3.3,2.6-6,6-6l39.6-0.3c0,0,0,0,0,0c1.6,0,3.1,0.6,4.2,1.7c1.1,1.1,1.8,2.7,1.8,4.3v263.3
		c0,1.9-0.9,3.6-2.3,4.7l-95.7,74.3C285,423.6,283.7,424,282.4,424z"/>
	<path fill="#234957" d="M119.6,355.7c-3.3,0-6-2.7-6-6v-23.3c0-3.3,2.7-6,6-6s6,2.7,6,6v23.3C125.6,353,122.9,355.7,119.6,355.7z"
		/>
	<path fill="#234957" d="M319.8,86.9h-21.4c-3.3,0-6-2.7-6-6s2.7-6,6-6h21.4c3.3,0,6,2.7,6,6S323.1,86.9,319.8,86.9z"/>
	
		<text transform="matrix(1 0 0 1 223.7069 264.0297)" fill="#234957" font-family="'Roboto-Bold'" font-size="103.2532px" letter-spacing="-2">?</text>
</g>
</svg>
