<svg id="Layer_1" xmlns="http://www.w3.org/2000/svg" viewBox="0 0 512 512">
  <path fill="#444" d="M407.7 161.4L313 67.3c-.9-.9-2.2-1.5-3.5-1.5H127.8c-2.8 0-5 2.2-5 5v14.4h-15c-2.8 0-5 2.2-5 5v353.7c0 2.8 2.2 5 5 5h276.4c2.8 0 5-2.2 5-5v-14.4h15c2.8 0 5-2.2 5-5V164.9c0-1.3-.5-2.6-1.5-3.5zm-8.5 258.1h-10V184.2c0-.3 0-.6-.1-.9v-.1c-.1-.3-.1-.5-.2-.7 0-.1-.1-.2-.1-.3-.1-.2-.2-.4-.3-.5 0-.1-.1-.2-.2-.2-.2-.2-.3-.4-.5-.6l-.1-.1L293 86.6c-.2-.2-.4-.4-.7-.5-.1 0-.1-.1-.2-.1-.2-.1-.4-.2-.5-.3-.1 0-.2-.1-.3-.1-.2-.1-.5-.2-.7-.2h-.1c-.3-.1-.6-.1-.9-.1H132.8v-9.4h174.6l91.8 91.2v252.4zM294.5 102.2l77.6 77.1h-77.6v-77.1zM103 290c0-2.8 2.2-5 5-5h4.8V95.2h171.7v89.1c0 2.8 2.2 5 5 5h89.7V285h4.8c2.8 0 5 2.2 5 5s-2.2 5-5 5h-4.8v143.8H112.8V295H108c-2.8 0-5-2.2-5-5z"/>
  <path fill="#8E54FF" d="M108 295h127.6c-3.2 5.8-6.7 11.4-10.4 16.7-1.6 2.3-1 5.4 1.3 7 .9.6 1.9.9 2.8.9 1.6 0 3.1-.8 4.1-2.2 4.1-6 8-12.3 11.7-18.8 5.3 12.5 15.4 20.5 19.2 23.2.9.6 1.9.9 2.9.9 1.6 0 3.1-.7 4.1-2.1 1.6-2.3 1.1-5.4-1.2-7-3.1-2.2-11.3-8.7-15.6-18.5H384c2.8 0 5-2.2 5-5s-2.2-5-5-5H271.9c4.8-3.5 8-8 8.8-13.3.2-1.2 1.7-11.7-6.6-17.9-7.3-5.5-16.1-2.6-17.1-2.2-4 1.4-7 4.1-9.2 7.5-1.9-3.2-4.5-5.9-7.8-7.6-.9-.5-9.3-4.5-17.3 0-9 5.1-8.8 15.7-8.8 16.9.2 6.3 4 12.2 10 16.5H108c-2.8 0-5 2.2-5 5s2.2 5 5 5zm152.4-34s1.5-.5 3.4-.5c1.4 0 3.1.3 4.4 1.3 3.5 2.6 2.7 8.2 2.7 8.3-.8 5-7.8 10.7-19 11.4.2-1.6.3-3.2.3-4.9 1-6.8 3.5-13.9 8.2-15.6zm-32.7-.8c1.1-.6 2.2-.8 3.3-.8 2.4 0 4.5 1 4.5 1 4.4 2.2 6.6 8.9 6.7 15.6-.2 1.7-.3 3.4-.4 4.9 0 .2-.1.4-.1.6h-.2c-11.3-2.1-17.3-8.4-17.5-13.5 0 0-.1-5.6 3.7-7.8z"/>
</svg>
