<svg xmlns="http://www.w3.org/2000/svg" viewBox="0 0 512 512"><path fill="#FFF" d="M467.4 338.9L387.9 99.6c-2.8-8.6-9.1-15.8-17.2-19.8L258.3 23.9c-8.1-4-17.4-4.7-26-1.8l-150.6 50c-7.2 2.4-13.1 7-17.2 12.8l147-48.9c12.8-4.3 26.5-3.3 38.6 2.7l112.4 55.9c12 6 21.3 16.7 25.6 29.4L467 361.5c2.6-7 3-14.9.4-22.6z"/><path d="M483.2 333.7L403.6 94.4C399.4 81.6 390 70.9 378 64.9L265.6 9.1c-12.1-6-25.8-7-38.6-2.7l-150.5 50C57.7 62.6 45 78.9 42.3 97.3c-14 13.1-19.9 33.6-13.4 53l61.5 185.1c.3-3.1 2.4-5.9 5.6-7l8.6-2.9-60-180.5c-5.9-17.9 3.8-37.3 21.6-43.2l150.6-50.1c.8-.3 1.7-.5 2.5-.7l35.2 105.7c1.4 4.3 6.1 6.7 10.5 5.2l106.4-35.4c.4.9.7 1.7 1 2.6l32.1 96.5 6.9-2.3c4.3-1.4 9 .9 10.5 5.2 1.4 4.3-.9 9-5.2 10.5l-6.9 2.3L452 368.4c5.9 17.9-3.8 37.3-21.6 43.2L195.2 490c-17.9 5.9-37.3-3.8-43.2-21.6l-42.2-127.1-8.6 2.9c-3.2 1.1-6.5.1-8.7-2.2l43.8 131.7c8.8 26.5 37.6 41 64.1 32.1l235.1-78.2c18.8-6.2 31.5-22.5 34.2-40.9 14-13.2 19.9-33.7 13.5-53zm-215.6-190l-30.8-92.6 1.1.6c1.7.5 3.3 1.2 4.9 2l112.4 55.9c1.6.8 3.1 1.7 4.5 2.7l1 .5-93.1 30.9zm120.5-19.6c-4.2-12.7-13.5-23.4-25.6-29.4L250.1 38.8c-12.1-6-25.8-7-38.6-2.7L64.5 85c4.1-5.8 10-10.4 17.2-12.8l150.6-50.1c8.6-2.9 17.8-2.2 26 1.8l112.4 55.9c8.1 4 14.4 11.2 17.2 19.8l79.6 239.3c2.5 7.6 2.2 15.6-.4 22.6l-79-237.4z"/><path fill="#FFF" d="M355.2 109.5L242.8 53.6c-1.6-.8-3.2-1.4-4.9-2l-1.1-.6 30.8 92.6 93.1-31-1-.5c-1.4-.9-2.9-1.8-4.5-2.6zM246.1 273.2c-.4-1.3-.7-2.7-1-4.1-2.5-7.1-7.1-12.8-11.7-13.5 0 0-2.3-.2-4.5.5-.9.3-1.8.8-2.5 1.6-2.6 2.9-.8 8.1-.8 8.1 1.8 4.4 9.4 8.3 20.5 7.4zM294.1 298.7c4.4 1.3 6.9 6 5.5 10.3-.8 2.7-2.9 4.6-5.3 5.5-1.6.5-3.3.6-5 .1-5-1.5-17.9-6.2-28.7-16.6-1.5 7.4-3.3 14.7-5.4 21.8-.8 2.7-2.9 4.7-5.3 5.5-1.5.5-3.2.6-4.9.1-4.4-1.3-6.9-5.9-5.6-10.3 1.7-6 3.3-12.2 4.6-18.4l-134.2 44.6L152 468.4c5.9 17.9 25.3 27.6 43.2 21.6l235.1-78.2c17.9-5.9 27.6-25.3 21.6-43.2l-42.2-127.1L273.1 287c7.9 7.1 17.3 10.5 21 11.7zM262.1 267.9c9.5-4.6 14.3-11.8 13.5-16.7 0 0-1-5.4-4.7-6.6-1.4-.5-2.8-.2-4.1.2-1.7.6-3 1.5-3 1.5-3.5 2.7-4 10.6-2.6 18.4.3 1.1.6 2.2.9 3.2z"/><path fill="#FFF" d="M224.1 285.8c-6.6-3.2-11.6-8.1-13.9-14.4-.6-1.5-5.2-14.8 4.1-25 8.2-9 20.3-7.5 21.7-7.3 3.6.5 7.1 2 10.4 4.1 1.5-3.9 3.9-7.4 7.4-10.1 1.1-.8 10.9-8.2 22.5-4.3 13 4.3 15.6 18.2 15.8 19.8.8 5.2-.2 10.5-2.6 15.4l115.1-38.3-32.1-96.5c-.3-.9-.6-1.8-1-2.6L265 162c-4.3 1.4-9-.9-10.5-5.2L219.3 51c-.9.2-1.7.4-2.5.7L66.2 101.8c-17.9 5.9-27.6 25.3-21.6 43.2l60 180.5 119.5-39.7z"/><path fill="#8E54FF" d="M101.2 344.1l8.6-2.9L244 296.7c-1.3 6.3-2.9 12.4-4.6 18.4-1.3 4.4 1.2 9 5.6 10.3 1.7.5 3.4.4 4.9-.1 2.5-.8 4.6-2.8 5.3-5.5 2.1-7.1 3.9-14.4 5.4-21.8 10.7 10.4 23.7 15.1 28.7 16.6 1.7.5 3.4.5 5-.1 2.5-.8 4.5-2.8 5.3-5.5 1.3-4.4-1.1-9-5.5-10.3-3.7-1.1-13.1-4.5-21-11.7l136.6-45.4 6.9-2.3c4.3-1.4 6.7-6.1 5.2-10.5-1.4-4.3-6.1-6.7-10.5-5.2l-6.9 2.3-115.1 38.3c2.4-5 3.4-10.2 2.6-15.4-.2-1.6-2.8-15.4-15.8-19.8-11.6-3.8-21.4 3.5-22.5 4.3-3.5 2.7-5.9 6.2-7.4 10.1-3.2-2.2-6.7-3.6-10.4-4.1-1.4-.2-13.6-1.7-21.7 7.3-9.2 10.2-4.6 23.5-4.1 25 2.3 6.2 7.3 11.2 13.9 14.4l-119.5 39.7-8.6 2.9c-3.2 1.1-5.3 3.9-5.6 7-.1 1.1 0 2.3.4 3.5s1 2.2 1.8 3c2.3 2.1 5.7 3.1 8.8 2zm162.6-97.8s1.3-.9 3-1.5c1.3-.4 2.7-.6 4.1-.2 3.7 1.2 4.7 6.6 4.7 6.6.8 4.9-4.1 12.1-13.5 16.7-.3-1.1-.6-2.1-.9-3.2-1.4-7.8-.9-15.6 2.6-18.4zm-37.3 11.3c.7-.8 1.6-1.3 2.5-1.6 2.2-.7 4.5-.5 4.5-.5 4.6.7 9.2 6.4 11.7 13.5.3 1.4.6 2.8 1 4.1-11.1.9-18.8-3-20.4-7.5-.1 0-1.9-5.2.7-8z"/></svg>