<svg xmlns="http://www.w3.org/2000/svg" viewBox="0 0 512 512"><path fill="#FFF" d="M480.2 333.7l-75.1-226c-2.5-7.4-7.7-13.4-14.7-16.9l-91.7-45.9c-3.6-1.8-7.4-2.8-11.3-3.1l29.2 87.9c5 14.9-3.1 31.1-18.1 36.1L174.8 207c-14.9 5-31.1-3.1-36.1-18.1L108.8 99l-58.4 19.4c-15.3 5.1-23.6 21.7-18.5 37l98 294.8c5.1 15.3 21.7 23.6 37 18.5l6.2-2.1-49.5-148.9c-5-14.9 3.1-31.1 18.1-36.1L370 205.7c14.9-5 31.1 3.1 36.1 18.1l49.5 148.9 6.2-2.1c15.2-5 23.5-21.5 18.4-36.9z"/><path fill="#FFF" d="M390.2 229.2c-2.1-6.3-8.9-9.7-15.1-7.6l-228.3 75.9c-6.3 2.1-9.7 8.9-7.6 15.1l49.5 148.9 190.7-63.4 60.2-20-49.4-148.9zm-207.9 91.9c-1.4-4.3.9-9 5.2-10.5l162.8-54.1c4.3-1.4 9 .9 10.5 5.2 1.4 4.3-.9 9-5.2 10.5l-162.8 54.1c-4.4 1.5-9.1-.8-10.5-5.2zm16 48.2c-1.4-4.3.9-9 5.2-10.5l162.8-54.1c4.3-1.4 9 .9 10.5 5.2 1.4 4.3-.9 9-5.2 10.5l-162.8 54.1c-4.3 1.5-9-.8-10.5-5.2zm189.4-.5L224.9 423c-4.3 1.4-9-.9-10.5-5.2-1.4-4.3.9-9 5.2-10.5l162.8-54.1c4.3-1.4 9 .9 10.5 5.2s-.8 9-5.2 10.4z"/><path fill="#F7196A" d="M452.8 391.1l-133.3 44.4M369.9 205.9l-228.3 75.9c-14.9 5-23 21.2-18.1 36.1L173 466.7l15.7-5.2-49.5-148.9c-2.1-6.3 1.3-13 7.6-15.1l228.3-75.9c6.3-2.1 13 1.3 15.1 7.6L439.7 378l-60.2 20 76-25.3L406 223.9c-5-14.9-21.2-23-36.1-18z"/><path d="M360.9 261.8c-1.4-4.3-6.1-6.7-10.5-5.2l-162.8 54.1c-4.3 1.4-6.7 6.1-5.2 10.5s6.1 6.7 10.5 5.2l162.8-54.1c4.3-1.5 6.6-6.2 5.2-10.5zM376.9 310c-1.4-4.3-6.1-6.7-10.5-5.2l-162.8 54.1c-4.3 1.4-6.7 6.1-5.2 10.5 1.4 4.3 6.1 6.7 10.5 5.2l162.8-54.1c4.3-1.5 6.6-6.2 5.2-10.5zM393 358.3c-1.4-4.3-6.1-6.7-10.5-5.2l-162.8 54.1c-4.3 1.4-6.7 6.1-5.2 10.5 1.4 4.3 6.1 6.7 10.5 5.2l162.8-54.1c4.3-1.4 6.6-6.1 5.2-10.5z"/><path d="M495.9 328.5l-75.1-226c-3.9-11.6-12-21-23-26.5l-91.7-46c-9.6-4.8-20.3-6.1-30.6-3.7-.6.1-1.2.2-1.8.4l-2.5.8-226 75.1c-24 8-37 34-29 57.9l98 294.8c8 24 34 37 57.9 29l147.4-49L452.9 391l14.1-4.7c23.9-7.8 36.9-33.8 28.9-57.8zm-40.4 44.3l-76 25.3-190.7 63.4-15.7 5.2-6.2 2.1c-15.3 5.1-31.9-3.2-37-18.5l-98-294.8c-5.1-15.3 3.2-31.9 18.5-37L108.8 99l29.9 89.9c5 14.9 21.2 23 36.1 18.1l123.8-41.2c14.9-5 23-21.2 18.1-36.1l-29.2-87.9c3.9.2 7.7 1.3 11.3 3.1l91.7 45.9c7 3.5 12.2 9.5 14.7 16.9l75.1 226c5.1 15.3-3.2 31.9-18.5 37l-6.3 2.1zm-331-279.1L271 45l29.9 89.9c2.1 6.3-1.3 13-7.6 15.1l-123.8 41.2c-6.3 2.1-13-1.3-15.1-7.6l-29.9-89.9z"/><path fill="#FFF" d="M169.5 191.2L293.3 150c6.3-2.1 9.7-8.9 7.6-15.1L271 45 124.5 93.7l29.9 89.9c2.1 6.3 8.9 9.7 15.1 7.6zm61.4-117l24.6-8.2c3.8-1.3 7.9.8 9.2 4.6l19.7 59.2c1.3 3.8-.8 7.9-4.6 9.2l-24.6 8.2c-3.8 1.3-7.9-.8-9.2-4.6l-19.7-59.2c-1.3-3.8.8-7.9 4.6-9.2z"/><path d="M246 142.7c1.3 3.8 5.4 5.9 9.2 4.6l24.6-8.2c3.8-1.3 5.9-5.4 4.6-9.2l-19.7-59.2c-1.3-3.8-5.4-5.9-9.2-4.6l-24.6 8.2c-3.8 1.3-5.9 5.4-4.6 9.2l19.7 59.2z"/></svg>