<svg xmlns="http://www.w3.org/2000/svg" viewBox="0 0 512 512"><path fill="#FFF" d="M492.1 298.1l-51-153.5-400 133 51 153.5c5.8 17.3 24.6 26.8 41.9 21L471.1 340c17.3-5.8 26.8-24.6 21-41.9zm-301.8-24.8L71.1 313c-4.3 1.4-9-.9-10.5-5.2-1.4-4.3.9-9 5.2-10.5l119.3-39.7c4.3-1.4 9 .9 10.5 5.2 1.4 4.4-.9 9.1-5.3 10.5zm82-27.2l-59.6 19.8c-4.3 1.4-9-.9-10.5-5.2-1.4-4.3.9-9 5.2-10.5l59.6-19.8c4.3-1.4 9 .9 10.5 5.2 1.5 4.4-.9 9.1-5.2 10.5zm190.5 73.6l-40.2 13.4c-6.8 2.3-14.1-1.4-16.4-8.2l-13-39.1c-2.3-6.8 1.4-14.1 8.2-16.4l40.2-13.4c6.8-2.3 14.1 1.4 16.4 8.2l13 39.1c2.3 6.8-1.4 14.2-8.2 16.4zM19.9 213.9l4.3 12.8 400-133-4.3-12.8c-5.8-17.3-24.6-26.8-41.9-21L40.9 172c-17.3 5.8-26.8 24.6-21 41.9z"/><path d="M507.8 292.8L435.6 75.7c-8.6-26-36.8-40.1-62.9-31.5l-337 112.1c-26 8.6-40.1 36.8-31.5 62.9l72.2 217.1c8.6 26 36.8 40.1 62.9 31.5l337.1-112.1c25.9-8.6 40.1-36.8 31.4-62.9zM471.1 340L134 452.1c-17.3 5.8-36.1-3.7-41.9-21l-51-153.5 400-133 51 153.5c5.8 17.3-3.7 36.1-21 41.9zM40.9 172L378 59.9c17.3-5.8 36.1 3.7 41.9 21l4.3 12.8-400 133-4.3-12.8c-5.8-17.3 3.7-36.1 21-41.9z"/><path d="M458 264.3c-2.3-6.8-9.6-10.5-16.4-8.2l-40.2 13.4c-6.8 2.3-10.5 9.6-8.2 16.4l13 39.1c2.3 6.8 9.6 10.5 16.4 8.2l40.2-13.4c6.8-2.3 10.5-9.6 8.2-16.4l-13-39.1z"/><path fill="#35AF6E" d="M185.1 257.6L65.8 297.3c-4.3 1.4-6.7 6.1-5.2 10.5 1.4 4.3 6.1 6.7 10.5 5.2l119.3-39.7c4.3-1.4 6.7-6.1 5.2-10.5-1.5-4.3-6.2-6.6-10.5-5.2zM267 230.4l-59.6 19.8c-4.3 1.4-6.7 6.1-5.2 10.5 1.4 4.3 6.1 6.7 10.5 5.2l59.6-19.8c4.3-1.4 6.7-6.1 5.2-10.5-1.4-4.3-6.1-6.7-10.5-5.2z"/></svg>