<svg xmlns="http://www.w3.org/2000/svg" viewBox="0 0 512 512"><path d="M344.4 116.1c-33.5 0-64.3 11.8-88.4 31.5-24.1-19.7-54.9-31.5-88.4-31.5-77.1 0-139.9 62.8-139.9 139.9 0 77.1 62.8 139.9 139.9 139.9 77.1 0 139.9-62.8 139.9-139.9 0-38.2-15.4-72.9-40.3-98.2 21.3-16.7 48.1-26.7 77.1-26.7 68.9 0 124.9 56 124.9 124.9s-56 124.9-124.9 124.9c-16 0-31.5-3-46.3-8.8-3.8-1.5-8.2.3-9.7 4.2-1.5 3.8.3 8.2 4.2 9.7 16.5 6.6 33.9 9.9 51.8 9.9 77.1 0 139.9-62.8 139.9-139.9.1-77.1-62.7-139.9-139.8-139.9zM167.6 380.9c-68.9 0-124.9-56-124.9-124.9s56-124.9 124.9-124.9c29.1 0 55.9 10 77.1 26.7-24.9 25.3-40.3 59.9-40.3 98.2 0 23.3 5.8 46.3 16.9 66.7 2 3.6 6.5 5 10.2 3 3.6-2 5-6.5 3-10.2-9.9-18.1-15.1-38.7-15.1-59.5 0-34.4 14-65.6 36.5-88.2 22.6 22.6 36.5 53.8 36.5 88.2.1 68.9-55.9 124.9-124.8 124.9z"/></svg>