<svg id="Layer_1" xmlns="http://www.w3.org/2000/svg" viewBox="0 0 512 512">
  <path fill="#F41371" d="M230.1 153.9l20.9-19.5V248c0 2.8 2.2 5 5 5s5-2.2 5-5V133.6l20.6 22.1c1 1.1 2.3 1.6 3.7 1.6 1.2 0 2.4-.4 3.4-1.3 2-1.9 2.1-5 .2-7.1l-28.3-30.3c-.9-1-2.2-1.5-3.5-1.6-1.3 0-2.6.4-3.6 1.3l-30.3 28.3c-2 1.9-2.1 5-.2 7.1 2 2 5.1 2.1 7.1.2z"/>
  <path fill="#444" d="M406.5 251.5c-1-.9-2.3-1.4-3.7-1.4l-42.8 2c-1.4.1-2.7.7-3.6 1.8l-38.6 46H202.9l-42.1-46.2c-.9-1-2.1-1.6-3.4-1.6l-48.1-2.4c-1.4-.1-2.7.4-3.7 1.4-1 .9-1.6 2.3-1.6 3.6V392c0 2.8 2.2 5 5 5h294c2.8 0 5-2.2 5-5V255.2c0-1.4-.6-2.7-1.5-3.7zm-251.7 10.6l42.2 46.3c.9 1 2.3 1.6 3.7 1.6h119.5c1.5 0 2.9-.7 3.8-1.8l38.6-46.1 35.4-1.7V351H114v-91l40.8 2.1zM114 387v-26h284v26H114z"/>
</svg>
