<svg id="Layer_1" xmlns="http://www.w3.org/2000/svg" viewBox="0 0 512 512">
  <path fill="#444" d="M412.8 173.9c0-1.3-.5-2.6-1.5-3.6l-94.7-94.7c-1-1-2.3-1.5-3.6-1.5H131.5c-2.8 0-5 2.2-5 5v118.7c0 2.8 2.2 5 5 5s5-2.2 5-5V84.2h171.7v89.7c0 2.8 2.2 5 5 5h89.7v249H136.5V254.4c0-2.8-2.2-5-5-5s-5 2.2-5 5v178.4c0 2.8 2.2 5 5 5h276.4c2.8 0 5-2.2 5-5V174.1c0-.1-.1-.1-.1-.2zm-94.7-5V91.2l77.6 77.6h-77.6z"/>
  <path fill="#00B177" d="M144.7 231.6c28.9 1.6 55.5 13.6 77 34.5 18.8 18.4 32.2 42.8 38.3 69.6l-18.8-11c-2.4-1.4-5.4-.6-6.8 1.8-1.4 2.4-.6 5.4 1.8 6.8l28.2 16.5c.8.5 1.7.7 2.5.7 1.7 0 3.4-.9 4.3-2.5l16.5-28.2c1.4-2.4.6-5.4-1.8-6.8-2.4-1.4-5.4-.6-6.8 1.8l-9.7 16.6c-6.7-27.8-20.9-53.2-40.6-72.4-23.2-22.7-52.1-35.6-83.4-37.4-14.4-.8-28.7.8-42.5 4.9-2.7.8-4.2 3.5-3.4 6.2.8 2.7 3.5 4.2 6.2 3.4 12.6-3.8 25.8-5.3 39-4.5z"/>
</svg>
