<svg xmlns="http://www.w3.org/2000/svg" viewBox="0 0 512 512"><path d="M148.8 452.8c-16.7 0-30.3-13.6-30.3-30.3V89.6c0-16.7 13.6-30.3 30.3-30.3h332.9c16.7 0 30.3 13.6 30.3 30.3v332.9c0 16.7-13.6 30.3-30.3 30.3H148.8zm0-383.4c-11.2 0-20.2 9.1-20.2 20.2v332.8c0 11.2 9.1 20.2 20.2 20.2h332.9c11.2 0 20.2-9.1 20.2-20.2V89.6c0-11.2-9.1-20.2-20.2-20.2H148.8z"/><path d="M364 190.9c-1.4 0-2.8-.3-4.1-1l-44.7-22.3-44.7 22.3c-1.3.6-2.7 1-4.1 1-1.7 0-3.4-.5-4.8-1.4a9.14 9.14 0 0 1-4.3-7.8V59.4h10.1v120.9l43.8-21.9c1.3-.6 2.7-1 4.1-1 1.4 0 2.8.3 4.1 1l43.8 21.9V59.4h10.1v122.3c0 3.2-1.6 6.1-4.3 7.8-1.6.9-3.3 1.4-5 1.4zM5.4 107.1c-3 0-5.4-2.4-5.4-5.4v-.2c0-3 2.4-5.4 5.4-5.4h76.4c3 0 5.4 2.4 5.4 5.4v.2c0 3-2.4 5.4-5.4 5.4H5.4zm31.7 51.8c-3 0-5.4-2.4-5.4-5.4v-.2c0-3 2.4-5.4 5.4-5.4h44.6c3 0 5.4 2.4 5.4 5.4v.2c0 3-2.4 5.4-5.4 5.4H37.1z"/></svg>