<svg xmlns="http://www.w3.org/2000/svg" viewBox="0 0 512 512"><path fill="#FDCB6B" d="M364.7 163.7l-8.6-64.1-63.6 55.9c24.1 1.7 48.3 4.5 72.2 8.2zM286.3 286.8l-5.1-8.2-16.3-2.9c-13.1-2.3-21.8-14.9-19.5-28l10.8-60.2-138.7 122 168.8-22.7z"/><path fill="#1AC3F3" d="M398.1 291.8l.9.3c31.7 8.9 42.1 10.2 50.5 11.3 2.5.3 4.8.6 7.4 1.1 5 .9 10.1-.2 14.3-3.1 4.2-2.9 7-7.3 7.9-12.3l12.6-70.2c-71.8 45.2-92.1 64.6-93.6 72.9z"/><path fill="#231F20" d="M430.7 219l-25.7-4.6c-1.4-.2-2.7.7-2.9 2s.7 2.7 2 2.9l25.7 4.6h.4c1.2 0 2.2-.8 2.5-2.1.2-1.3-.7-2.6-2-2.8zM386.5 211l-93.9-16.9c-1.4-.2-2.7.7-2.9 2s.7 2.7 2 2.9l93.9 16.9h.4c1.2 0 2.2-.8 2.5-2.1.2-1.2-.7-2.5-2-2.8zM339.5 248c1.2 0 2.2-.8 2.5-2.1.2-1.4-.7-2.7-2-2.9l-54.4-9.8c-1.4-.2-2.7.7-2.9 2s.7 2.7 2 2.9L339 248h.5zM230 141.2l18.2 11.2c.4.3.9.4 1.3.4.8 0 1.7-.4 2.1-1.2.7-1.2.4-2.7-.8-3.4L232.6 137c-1.2-.7-2.7-.4-3.4.8-.7 1.1-.3 2.6.8 3.4zM263.1 142.9c.3 1.2 1.3 1.9 2.4 1.9.2 0 .4 0 .6-.1 1.3-.3 2.2-1.7 1.9-3l-2.7-11.5c-.3-1.3-1.7-2.2-3-1.9-1.3.3-2.2 1.7-1.9 3l2.7 11.6z"/><path fill="#231F20" d="M493 199.4c-5.1-7.3-12.3-9.4-15.4-9.9-19.8-6-40.1-11.3-60.4-15.8-15.7-3.5-31.5-6.5-47.5-9.1l-11.3-84.1 6.8-.9c.7-.1 1.3-.4 1.7-1 .4-.5.6-1.2.5-1.8l-2.7-20.2c-.2-1.4-1.4-2.3-2.8-2.1L38.4 97.7c-.7.1-1.3.4-1.7 1s-.6 1.2-.5 1.8l2.7 20.2c.2 1.3 1.2 2.2 2.5 2.2h.3l6.8-.9L74 312.1c.3 2.1 1.4 4 3.1 5.3 1.4 1.1 3.1 1.7 4.9 1.7.4 0 .7 0 1.1-.1l144.6-19.4v.2l13.3 99.4-51.8 54.8c-.9 1-.9 2.6.1 3.5.5.5 1.1.7 1.7.7.7 0 1.3-.3 1.8-.8l49-51.9 6.5 48.2c.2 1.3 1.2 2.2 2.5 2.2h.3c1.4-.2 2.3-1.4 2.1-2.8l-6.5-48.4 61.2 37.3c.4.2.9.4 1.3.4.8 0 1.7-.4 2.1-1.2.7-1.2.3-2.7-.8-3.4l-64.6-39.4-13.3-99.2v-.2l56.6-7.6 10.6 17.3c.4.6.9 1 1.6 1.1.2 0 .3.1.5.1.5 0 1-.2 1.4-.4l31.6-22c10.5-.2 21.1.4 31.5 2 7 1.1 12.9 2.3 31.2 7.5 32 9 42.6 10.3 51.2 11.4 2.5.3 4.7.6 7.1 1 13.1 2.4 25.6-6.4 28-19.5l13-72.5c.6-2.9 1.3-10.6-3.9-18zm-.9 17.2l-.4 2.2L479 289c-.9 5-3.7 9.4-7.9 12.3-4.2 2.9-9.3 4-14.3 3.1-2.6-.5-4.9-.8-7.4-1.1-8.4-1.1-18.8-2.4-50.5-11.3l-.9-.3c-17.7-4.9-23.9-6.3-30.9-7.3-9.3-1.4-18.7-2.1-28.1-2.1-1.7 0-3.3 0-5 .1-.5 0-1 .2-1.4.4l-30 20.9L285 275c-.4-.6-1-1-1.7-1.2l-17.4-3.1c-10.4-1.9-17.3-11.8-15.4-22.2l13.1-73c.9-5 3.7-9.4 7.9-12.3 4.2-2.9 9.3-4 14.3-3.1h.3c43.8 2.7 87.6 8.9 130.2 18.4 20.1 4.5 40.4 9.8 60.1 15.8.1 0 .2.1.3.1 1.8.3 8.1 1.9 12.3 7.9 4.1 6 3.4 12.4 3.1 14.3zm-131.9-157l2 15.3-318.6 42.6-2-15.3 318.6-42.6zM82.4 314.1c-.8.1-1.6-.1-2.3-.6-.7-.5-1.1-1.2-1.2-2L53.5 121.3l276-37 24.1-3.2 2.5 18.5 8.6 64.1c-23.9-3.7-48-6.5-72.2-8.2-2-.1-4-.3-6-.4-6.3-1.1-12.6.3-17.9 4-5.3 3.7-8.8 9.2-10 15.5l-2.3 12.7-10.8 60.2c-2.3 13.1 6.4 25.6 19.5 28l16.3 2.9 5.1 8.2-168.7 22.6-35.3 4.9z"/><path fill="#121617" d="M143.3 416.2c-12.4 1.9-24.9 1.7-37.1-.5-1.4-.2-2.7.7-2.9 2-.2 1.4.7 2.7 2 2.9 6.9 1.3 13.9 1.9 20.9 1.9 5.9 0 11.9-.5 17.8-1.4 1.4-.2 2.3-1.5 2.1-2.8-.2-1.4-1.5-2.3-2.8-2.1zM88.3 416c1 0 2-.6 2.4-1.7.5-1.3-.2-2.7-1.5-3.2-26.2-9.2-48-27.7-61.3-52-.7-1.2-2.2-1.7-3.4-1-1.2.7-1.7 2.2-1 3.4 13.9 25.4 36.7 44.7 64 54.3.2.2.5.2.8.2zM20.1 341.7c-.4-1.3-1.9-2-3.2-1.6-1.3.4-2 1.9-1.6 3.2.8 2.3 1.6 4.5 2.5 6.7.4 1 1.3 1.5 2.3 1.5.3 0 .6-.1 1-.2 1.3-.5 1.9-2 1.4-3.3-.9-2-1.7-4.1-2.4-6.3zM118 443.1c-8.7 0-17.3-1.2-25.7-3.4-9.7-2.6-19-6.7-27.6-12-1.2-.7-2.7-.4-3.4.8s-.4 2.7.8 3.4c9 5.6 18.7 9.9 29 12.6 8.8 2.4 17.8 3.6 26.9 3.6 1.4 0 2.5-1.1 2.5-2.5s-1.1-2.5-2.5-2.5zM433.7 114.9h.4c.7 0 1.3-.5 1.5-1.1l1.7-6.7c.2-.8-.3-1.6-1.1-1.8-.8-.2-1.6.3-1.8 1.1l-1.7 6.7c-.3.8.2 1.6 1 1.8zM429.6 131.7h.4c.7 0 1.3-.5 1.5-1.1l1.7-6.7c.2-.8-.3-1.6-1.1-1.8-.8-.2-1.6.3-1.8 1.1l-1.7 6.7c-.3.8.2 1.6 1 1.8zM436.4 119.3c-.2.8.3 1.6 1.1 1.8l6.7 1.7h.4c.7 0 1.3-.5 1.5-1.1.2-.8-.3-1.6-1.1-1.8l-6.7-1.7c-.9-.2-1.7.3-1.9 1.1zM420.7 117l6.7 1.7h.4c.7 0 1.3-.5 1.5-1.1.2-.8-.3-1.6-1.1-1.8l-6.7-1.7c-.8-.2-1.6.3-1.8 1.1-.3.8.2 1.6 1 1.8z"/></svg>