<?xml version="1.0" encoding="utf-8"?>
<!-- Generator: Adobe Illustrator 19.1.0, SVG Export Plug-In . SVG Version: 6.00 Build 0)  -->
<svg version="1.1" id="Layer_1" xmlns="http://www.w3.org/2000/svg" xmlns:xlink="http://www.w3.org/1999/xlink" x="0px" y="0px"
	 viewBox="0 0 1263.5 358.1" enable-background="new 0 0 1263.5 358.1" xml:space="preserve">
<path fill="#E8E8E8" d="M134.3,21.1c-4.6-8-13.2-12.9-22.4-12.9H59.3c-9.2,0-17.8,4.9-22.4,12.9L10.6,66.6c-4.6,8-4.6,17.9,0,25.8
	L37,138c4.6,8,13.2,12.9,22.4,12.9h22.8v199.8H41.6c-1.9,0-3.5,1.6-3.5,3.5s1.6,3.5,3.5,3.5h86.8c1.9,0,3.5-1.6,3.5-3.5
	s-1.6-3.5-3.5-3.5H89.1V150.9h22.8c9.2,0,17.8-4.9,22.4-12.9l26.3-45.6c4.6-8,4.6-17.9,0-25.8L134.3,21.1z M154.5,88.9l-26.3,45.6
	c-3.3,5.8-9.6,9.4-16.3,9.4H59.3c-6.7,0-12.9-3.6-16.3-9.4L16.7,88.9c-3.4-5.8-3.4-13,0-18.8L43,24.6c3.3-5.8,9.6-9.4,16.3-9.4h52.6
	c6.7,0,12.9,3.6,16.3,9.4l26.3,45.6C157.9,75.9,157.9,83.1,154.5,88.9z"/>
<path fill="#E8E8E8" d="M450.6,3.7c-40.6,0-73.6,33-73.6,73.6c0,39.4,31.1,71.7,70.1,73.5v199.9h-39.9c-1.9,0-3.5,1.6-3.5,3.5
	s1.6,3.5,3.5,3.5h60.6c1.9,0,3.5-1.6,3.5-3.5s-1.6-3.5-3.5-3.5h-13.7V150.8c39-1.8,70.1-34.1,70.1-73.5
	C524.2,36.7,491.2,3.7,450.6,3.7z M450.6,143.9c-36.7,0-66.6-29.9-66.6-66.6c0-36.7,29.9-66.6,66.6-66.6s66.6,29.9,66.6,66.6
	C517.2,114,487.3,143.9,450.6,143.9z"/>
<path fill="#E8E8E8" d="M685.9,10.4c-2.4-4.5-6.8-7.3-11.7-7.3c-4.9,0-9.3,2.7-11.7,7.3l-63.6,119.1c-2.5,4.6-2.3,10.3,0.4,14.7
	c2.5,4.1,6.7,6.6,11.4,6.6h60.1v199.8h-20c-1.9,0-3.5,1.6-3.5,3.5s1.6,3.5,3.5,3.5h47.1c1.9,0,3.5-1.6,3.5-3.5s-1.6-3.5-3.5-3.5h-20
	V150.9h60.1c4.6,0,8.9-2.5,11.4-6.6c2.7-4.5,2.8-10.1,0.4-14.7L685.9,10.4z M743.2,140.7c-1.2,2-3.2,3.2-5.4,3.2H610.5
	c-2.2,0-4.2-1.2-5.4-3.2c-1.4-2.4-1.5-5.4-0.2-7.8l63.6-119.1c1.2-2.2,3.3-3.6,5.6-3.6c2.3,0,4.4,1.3,5.6,3.6l63.6,119.1
	C744.7,135.3,744.6,138.3,743.2,140.7z"/>
<path fill="#E8E8E8" d="M958.5,3.7h-96.4c-15.2,0-27.5,12.3-27.5,27.5v92.2c0,15.2,12.3,27.5,27.5,27.5h44.7v199.8h-18.9
	c-1.9,0-3.5,1.6-3.5,3.5s1.6,3.5,3.5,3.5h53.2c1.9,0,3.5-1.6,3.5-3.5s-1.6-3.5-3.5-3.5h-27.3V150.9h44.7c15.2,0,27.5-12.3,27.5-27.5
	V31.2C986,16.1,973.7,3.7,958.5,3.7z M979,123.4c0,11.3-9.2,20.5-20.5,20.5h-96.4c-11.3,0-20.5-9.2-20.5-20.5V31.2
	c0-11.3,9.2-20.5,20.5-20.5h96.4c11.3,0,20.5,9.2,20.5,20.5V123.4z"/>
<path fill="#E8E8E8" d="M1242.6,76.7c2.9-2.9,3.9-7.2,2.6-11.2c-1.3-3.9-4.5-6.6-8.5-7.2l-43.2-6.5c-1.2-0.2-2.2-0.9-2.7-2.1
	l-19.3-40.5c0,0,0,0,0,0c-1.8-3.7-5.4-6.1-9.5-6.1s-7.7,2.3-9.5,6.1l-19.3,40.5c-0.5,1.1-1.5,1.9-2.7,2.1l-43.2,6.5
	c-3.9,0.6-7.2,3.4-8.5,7.2c-1.3,4-0.3,8.3,2.6,11.2l31.3,31.5c0.9,0.9,1.3,2.2,1.1,3.4l-7.4,44.5c-0.7,4.2,1,8.3,4.4,10.7
	c3.3,2.3,7.5,2.6,11,0.7l36.8-20v203.2h-47.3c-1.9,0-3.5,1.6-3.5,3.5s1.6,3.5,3.5,3.5h50.8c1.9,0,3.5-1.6,3.5-3.5V147.5l36.8,20
	c1.6,0.9,3.3,1.3,5,1.3c2.1,0,4.2-0.7,6-1.9c3.4-2.4,5.1-6.5,4.4-10.7l-7.4-44.5c-0.2-1.3,0.2-2.6,1.1-3.4L1242.6,76.7z
	 M1203.4,112.8l7.4,44.5c0.3,1.5-0.3,3-1.5,3.9c-0.5,0.4-1.9,1.1-3.6,0.2l-38.6-21c-1.6-0.8-3.3-1.3-5-1.3c-1.7,0-3.4,0.4-5,1.3
	l-38.6,21c-1.7,0.9-3.1,0.1-3.6-0.2c-1.2-0.9-1.8-2.3-1.5-3.9l7.4-44.5c0.6-3.5-0.5-7-3-9.5l-31.3-31.5c-1.1-1.1-1.4-2.6-0.9-4.1
	c0.2-0.7,0.9-2.2,2.9-2.5l43.2-6.5c3.5-0.5,6.4-2.7,8-6l19.3-40.5c0.9-1.9,2.5-2.1,3.2-2.1s2.3,0.2,3.2,2.1l19.3,40.5
	c1.5,3.2,4.5,5.4,8,6l43.2,6.5c1.9,0.3,2.7,1.9,2.9,2.5c0.5,1.5,0.1,3-0.9,4.1l-31.3,31.5C1203.9,105.8,1202.8,109.3,1203.4,112.8z"
	/>
<path fill="#E8E8E8" d="M311.8,178.1c-0.1,0.1-8.9,10.5-19.9,10.9c-5.4,0.2-10.5-2-15.2-6.8c-17.5-17.5-38.7-7.8-47.5-0.2
	c-1.5,1.3-1.6,3.5-0.4,4.9c1.3,1.5,3.5,1.6,4.9,0.4c0.8-0.7,20.7-17.5,38-0.2c5.9,5.9,12.4,8.8,19.4,8.8c0.4,0,0.7,0,1.1,0
	c14-0.6,24.5-12.9,24.9-13.4c1.2-1.5,1.1-3.7-0.4-4.9C315.3,176.5,313.1,176.7,311.8,178.1z"/>
<path fill="#E8E8E8" d="M311.8,198.8c-0.1,0.1-8.9,10.5-19.9,10.9c-5.4,0.2-10.5-2-15.2-6.8c-17.5-17.5-38.7-7.8-47.5-0.2
	c-1.5,1.3-1.6,3.5-0.4,4.9c1.3,1.5,3.5,1.6,4.9,0.4c0.8-0.7,20.7-17.5,38-0.2c5.9,5.9,12.4,8.8,19.4,8.8c0.4,0,0.7,0,1.1,0
	c14-0.6,24.5-12.9,24.9-13.4c1.2-1.5,1.1-3.7-0.4-4.9C315.3,197.1,313.1,197.3,311.8,198.8z"/>
</svg>
