<?xml version="1.0" encoding="utf-8"?>
<!-- Generator: Adobe Illustrator 21.0.2, SVG Export Plug-In . SVG Version: 6.00 Build 0)  -->
<svg version="1.1" id="Layer_1" xmlns="http://www.w3.org/2000/svg" xmlns:xlink="http://www.w3.org/1999/xlink" x="0px" y="0px"
	 viewBox="0 0 512 512" enable-background="new 0 0 512 512" xml:space="preserve">
<path fill="none" d="M73.6,383.8c-12.6-13.6-23.4-28.9-32.1-45.5c-1,11.2-0.3,23.6,5.3,32.6c5.1,8.3,14.7,14.5,30.6,17.7
	C76.1,387,74.8,385.4,73.6,383.8C73.6,383.8,73.6,383.8,73.6,383.8z"/>
<linearGradient id="SVGID_1_" gradientUnits="userSpaceOnUse" x1="326.3727" y1="421.8235" x2="121.2103" y2="66.4717">
	<stop  offset="0" style="stop-color:#FFC112"/>
	<stop  offset="1" style="stop-color:#FFD731"/>
</linearGradient>
<path fill="url(#SVGID_1_)" d="M47.5,309.6c0.2-0.5-4.6,13-6,28.7c8.6,16.6,19.4,31.9,32.1,45.5c22.1,5,49.4,4.9,70,4
	c6.9-0.9,14.3-2.1,22.1-3.5c-31.2-20.1-49-52.6-42.9-70.2c14.8-42.8,187-42.9,202,0c2.7,7.6,0.8,18.1-4.7,29.1
	c2.3-0.7,4.6-1.5,6.9-2.3c19-9,39.6-20.2,61-34c-11.1-11-22.3-21.9-33.4-32.9c20.9,1.8,44.6,5.2,70.1,11.1c2.7-13.2,4.1-26.9,4.1-41
	C428.9,130.9,337.1,39,223.8,39S18.7,130.9,18.7,244.1c0,31.7,7.2,61.6,20,88.4C41.1,325.4,44,317.8,47.5,309.6z M184.4,202.7
	c-3.3,2.7-14-15.7-37.5-20.3c-25.6-5.1-44.2,10.5-46.7,6.4c-3.2-5.1,20.6-39.9,49.1-35.2C177.8,158.4,188.9,199.1,184.4,202.7z
	 M347.4,188.8c-2.5,4-21.1-11.5-46.7-6.4c-23.6,4.6-34.2,23-37.5,20.3c-4.5-3.6,6.7-44.3,35.2-49.1
	C326.8,148.9,350.6,183.7,347.4,188.8z M70.5,128.4C110.2,76.1,174,56.8,178.8,63.9c5.1,7.6-62.2,36.4-94.4,109.6
	c-36.6,83.1-3.2,167.3-14.8,169.8c-7.9,1.7-26.4-37.1-32.2-76.1C35.1,251,27.4,185,70.5,128.4z M37.7,299.5c0-0.1-0.1,0.3-0.3,1
	c0-0.1,0-0.1,0-0.2C37.5,300,37.6,299.7,37.7,299.5z"/>
<linearGradient id="SVGID_2_" gradientUnits="userSpaceOnUse" x1="283.9069" y1="446.3351" x2="78.7444" y2="90.9834">
	<stop  offset="0" style="stop-color:#FFC112"/>
	<stop  offset="1" style="stop-color:#FFD731"/>
</linearGradient>
<path fill="url(#SVGID_2_)" d="M223.8,449.3c42.3,0,81.6-12.8,114.3-34.8c-45.4,15.9-87.6,27.5-125.1,34.5
	C216.5,449.2,220.1,449.3,223.8,449.3z"/>
<linearGradient id="SVGID_3_" gradientUnits="userSpaceOnUse" x1="267.5297" y1="455.7965" x2="62.3673" y2="100.4447">
	<stop  offset="0" style="stop-color:#FFC112"/>
	<stop  offset="1" style="stop-color:#FFD731"/>
</linearGradient>
<path fill="url(#SVGID_3_)" d="M37.5,267.2c5.8,39,24.3,77.8,32.2,76.1c11.6-2.5-21.8-86.7,14.8-169.8
	c32.2-73.1,99.5-102,94.4-109.6c-4.8-7.1-68.6,12.2-108.3,64.4C27.4,185,35.1,251,37.5,267.2z"/>
<path opacity="0.3" fill="#FFF5DC" d="M37.5,267.2c5.8,39,24.3,77.8,32.2,76.1c11.6-2.5-21.8-86.7,14.8-169.8
	c32.2-73.1,99.5-102,94.4-109.6c-4.8-7.1-68.6,12.2-108.3,64.4C27.4,185,35.1,251,37.5,267.2z"/>
<path fill="#333333" d="M324.8,314.1c-14.9-42.9-187.1-42.8-202,0c-6.1,17.6,11.7,50,42.9,70.2c3.7-0.7,7.4-1.4,11.3-2.1
	c9.3-18.3,28.1-30.2,48.8-30.5c12-0.1,23.4,3.6,32.8,10.3c18.9-5.4,39.4-11.7,61.5-18.8C325.6,332.2,327.4,321.8,324.8,314.1z"/>
<path fill="#FF395A" d="M177,382.2c23.3-4.6,50.4-11.2,81.6-20.2c-9.4-6.7-20.8-10.5-32.8-10.3C205.1,351.9,186.3,363.8,177,382.2z"
	/>
<path fill="#333333" d="M149.3,153.6c-28.5-4.7-52.3,30-49.1,35.2c2.5,4,21.1-11.5,46.7-6.4c23.6,4.6,34.2,23,37.5,20.3
	C188.9,199.1,177.8,158.4,149.3,153.6z"/>
<path fill="#333333" d="M298.3,153.6c-28.5,4.7-39.7,45.5-35.2,49.1c3.3,2.7,14-15.7,37.5-20.3c25.6-5.1,44.2,10.5,46.7,6.4
	C350.6,183.7,326.8,148.9,298.3,153.6z"/>
<path fill="#D6A829" d="M73.6,383.8C73.6,383.8,73.6,383.8,73.6,383.8c1.2,1.6,2.5,3.2,3.8,4.8c15.5,3.1,37.1,3.2,66.2-0.8
	C122.9,388.7,95.7,388.8,73.6,383.8z"/>
<path fill="#D6A829" d="M37.7,299.5c-0.1,0.3-0.2,0.5-0.4,0.8c0,0.1,0,0.1,0,0.2C37.7,299.7,37.8,299.4,37.7,299.5z"/>
<path fill="#D6A829" d="M388.1,306.9c-21.4,13.8-42,25-61,34c22.4-7.3,46.5-15.6,72.4-24.9c-9.7-10.2-19.4-20.3-29-30.5
	c16.5,2.3,34.1,5.3,52.4,9.2c0.9-3,1.7-6.2,2.5-9.5c-0.1,0-0.3-0.1-0.4-0.1c-25.6-6-49.2-9.3-70.1-11.1
	C365.8,285,376.9,295.9,388.1,306.9z"/>
<path fill="#FF3964" d="M477.6,308.6l2.1-4.4l-6.3,1.4l-4.7-4.4l-0.5,4.7c-5.6-1.6-11.3-3.1-17.2-4.6c-9.6-2.4-19-4.6-28.2-6.5
	c-18.3-3.9-35.9-6.9-52.4-9.2c9.7,10.2,19.4,20.3,29,30.5c-25.9,9.3-50,17.5-72.4,24.9c-2.3,0.8-4.6,1.5-6.9,2.3
	c-22.1,7.2-42.6,13.4-61.5,18.8c-31.2,8.9-58.3,15.5-81.6,20.2c-3.9,0.8-7.6,1.5-11.3,2.1c-7.8,1.4-15.2,2.6-22.1,3.5
	c-29.2,3.9-50.7,3.8-66.2,0.8c-15.9-3.1-25.5-9.4-30.6-17.7c-5.6-9-6.3-21.4-5.3-32.6c1.4-15.7,6.3-29.3,6-28.7
	c-3.5,8.2-6.5,15.8-8.9,23c-17.7,52.1-7.7,77.5,0.4,89.6c23.3,34.8,86.3,43.2,173.8,26.9c37.6-7,79.7-18.5,125.1-34.5
	c25.9-9.1,52.9-19.6,80.8-31.5c-0.5,13.6-1.1,27.1-1.6,40.7c17.1-19.8,34.5-41,51.9-63.7c11.4-14.9,22.2-29.5,32.4-43.9
	C493.8,313.5,485.8,311,477.6,308.6z M469,302.2l4.2,3.9l5.6-1.2l-2.4,5.2l2.9,4.9l-5.7-0.7l-3.8,4.3l-1.1-5.6l-5.2-2.3l5-2.8
	L469,302.2z"/>
<polygon fill="#FFFFFF" points="468.6,312.9 469.7,318.5 473.5,314.3 479.2,315 476.3,310.1 478.7,304.9 473.2,306.1 469,302.2 
	468.4,307.9 463.4,310.6 "/>
</svg>
