<svg id="Layer_1" xmlns="http://www.w3.org/2000/svg" viewBox="0 0 512 512"><style>.st0{fill:#ff5252}.st3{fill:#ef4343}</style><path class="st0" d="M356.3 476l9.9 3.8 19.7-50.8h-11.4zM261.7 495l5.6 5.7 39.5-39.5-8.2-3.2zM216.5 50.8l-48-18.6L167 36l46.4 18zM177.1 480l1.9 4.2 41.9-18.6-3.4-3.4zM380 83l-24.3-55.2-9.5 4.2 22.5 51zM512 256l-42.6-42.6 21.7-56.3-50.8-19.6V83H429v54.5l50.8 19.6-21.8 56.3 42.7 42.6-38.5 38.5 22 49.9-55.2 24.3V429h11.3v-60.3l55.2-24.3-22-49.9zM302.4 46.4l-35.1-35.1-5.6 5.7 32.8 32.8z"/><path d="M500.7 256L458 213.4l21.8-56.2-50.8-19.7V83h-60.3l-22.5-51-1.8-4.2-42 18.5-7.8 3.5L261.7 17l-5.7-5.7-39.5 39.5-3.2 3.2L167 36l-9.8-3.8L137.5 83H83v60.3l-55.2 24.4 22 49.8L11.3 256 54 298.6l-21.8 56.2L83 374.5V429h60.3l24.4 55.2 9.5-4.2 40.4-17.8 3.5 3.5 35.1 35.1 5.7-5.7 37-37 8.2 3.2 48.1 18.6 1.5-3.8 18.2-47H429v-60.3l55.2-24.4-22-49.8 38.5-38.6zm-315.2 66.2c-1.5.1-6.4 1.7-14.9 4.6-8.5 3-13.5 4.8-15.2 5.6-3-16.3-5.3-28.2-7-35.7s-2.9-13.1-3.8-16.8c-1-5.2-2.5-11.5-4.5-18.9-.1 2.4-.4 5.2-.6 8.5-.3 3.3-.6 6.9-.8 10.8-.8 12-2.2 29.2-4.2 51.8l-27 9.2c6.9-69.3 10.4-116 10.7-140 3.9-.6 7.6-1.3 11-1.9l10.2-1.8c3.4-.5 6.4-1 9-1.5 2.6 9.5 4.6 17.4 6.3 23.7 1.6 6.2 3 11.3 4 15.3 1.1 4 2.1 7.9 3.1 11.6 2 7.4 3.9 13.9 5.8 19.5.2-2.6.5-5.7.8-9.2.3-3.5.6-7.2.9-11.2.4-3.9.8-8 1.2-12 .5-4.1 1-9.3 1.7-15.8s1.5-14.6 2.5-24.3l22.8-5c-7.4 62.5-11.4 107-12 133.5zm92.1-130.9c-.4 2.7-.7 5.4-1.1 8-.4 2.6-.6 5-.8 7-3.6.7-8.7 1.4-15.1 2.1l-12.7 1.3-3.3 34.6c6.7-1 12.3-1.8 16.9-2.4 4.5-.6 7.5-1 8.8-1.2-.1 3.6-.3 7.1-.3 10.5-.1 3.4-.3 6.9-.5 10.6-1.3.3-3.4.6-6.2.9-2.8.3-5.8.7-8.8 1.2-3.1.4-6.5.9-10.3 1.4l-3 35.5 27-7.1.3 21.7-60 15.5L219.9 194l59.2-11.1c-.6 2.9-1.1 5.7-1.5 8.4zM400 216.8c-6 39.8-10.1 68.7-12.2 86.6L346 314.8l1.1-73.6-2.4.2-11.8 70.2-38.5 10.9 1.1-135.4c5.9-.8 11.4-2 16.5-3.4s10.3-2.6 15.4-3.5c0 .2-1.6 28.4-5 84.6l2.9-.3c2.3-13.4 4.5-25.8 6.7-37.4 2.2-11.6 3.7-19.5 4.5-23.8 1.5-9.6 2.8-16.8 3.8-21.8l1.7-.2c6.1-.6 12.7-2.1 19.7-4.4-.1 1.1-.2 3.5-.1 7 0 3.5.1 7.8.1 12.8 0 5 .1 10.5.2 16.5s.2 11.9.3 17.7c.2 10.5.2 20.4.2 29.8l3.5-.3 9.8-82.8c4.2-1 8.3-2 12.2-2.9 10.2-2.4 17.4-4.2 21.6-5.5-4 14.9-7 30.7-9.5 47.6z" fill="#f9c32d"/><path d="M500.7 256L458 213.4l21.8-56.2-50.8-19.7V83h-60.3l-22.5-51-1.8-4.2-42 18.5-7.8 3.5L261.7 17l-5.7-5.7-39.5 39.5-3.2 3.2L167 36l-9.8-3.8L137.5 83H83v60.3l-55.2 24.4 22 49.8L11.3 256 54 298.6l-21.8 56.2L83 374.5V429h60.3l24.4 55.2 9.5-4.2 40.4-17.8 3.5 3.5 35.1 35.1 5.7-5.7 37-37 8.2 3.2 48.1 18.6 1.5-3.8 18.2-47H429v-60.3l55.2-24.4-22-49.8 38.5-38.6zm-315.2 66.2c-1.5.1-6.4 1.7-14.9 4.6-8.5 3-13.5 4.8-15.2 5.6-3-16.3-5.3-28.2-7-35.7s-2.9-13.1-3.8-16.8c-1-5.2-2.5-11.5-4.5-18.9-.1 2.4-.4 5.2-.6 8.5-.3 3.3-.6 6.9-.8 10.8-.8 12-2.2 29.2-4.2 51.8l-27 9.2c6.9-69.3 10.4-116 10.7-140 3.9-.6 7.6-1.3 11-1.9l10.2-1.8c3.4-.5 6.4-1 9-1.5 2.6 9.5 4.6 17.4 6.3 23.7 1.6 6.2 3 11.3 4 15.3 1.1 4 2.1 7.9 3.1 11.6 2 7.4 3.9 13.9 5.8 19.5.2-2.6.5-5.7.8-9.2.3-3.5.6-7.2.9-11.2.4-3.9.8-8 1.2-12 .5-4.1 1-9.3 1.7-15.8s1.5-14.6 2.5-24.3l22.8-5c-7.4 62.5-11.4 107-12 133.5zm92.1-130.9c-.4 2.7-.7 5.4-1.1 8-.4 2.6-.6 5-.8 7-3.6.7-8.7 1.4-15.1 2.1l-12.7 1.3-3.3 34.6c6.7-1 12.3-1.8 16.9-2.4 4.5-.6 7.5-1 8.8-1.2-.1 3.6-.3 7.1-.3 10.5-.1 3.4-.3 6.9-.5 10.6-1.3.3-3.4.6-6.2.9-2.8.3-5.8.7-8.8 1.2-3.1.4-6.5.9-10.3 1.4l-3 35.5 27-7.1.3 21.7-60 15.5L219.9 194l59.2-11.1c-.6 2.9-1.1 5.7-1.5 8.4zM400 216.8c-6 39.8-10.1 68.7-12.2 86.6L346 314.8l1.1-73.6-2.4.2-11.8 70.2-38.5 10.9 1.1-135.4c5.9-.8 11.4-2 16.5-3.4s10.3-2.6 15.4-3.5c0 .2-1.6 28.4-5 84.6l2.9-.3c2.3-13.4 4.5-25.8 6.7-37.4 2.2-11.6 3.7-19.5 4.5-23.8 1.5-9.6 2.8-16.8 3.8-21.8l1.7-.2c6.1-.6 12.7-2.1 19.7-4.4-.1 1.1-.2 3.5-.1 7 0 3.5.1 7.8.1 12.8 0 5 .1 10.5.2 16.5s.2 11.9.3 17.7c.2 10.5.2 20.4.2 29.8l3.5-.3 9.8-82.8c4.2-1 8.3-2 12.2-2.9 10.2-2.4 17.4-4.2 21.6-5.5-4 14.9-7 30.7-9.5 47.6z" opacity=".2" fill="#fff"/><path class="st3" d="M172.3 217.9c-.7 6.5-1.2 11.7-1.7 15.8-.5 4.1-.9 8.1-1.2 12-.4 3.9-.7 7.7-.9 11.2-.3 3.5-.5 6.6-.8 9.2-1.9-5.6-3.9-12.1-5.8-19.5-1-3.7-2-7.6-3.1-11.6s-2.4-9.1-4-15.3c-1.6-6.2-3.7-14.1-6.3-23.7-2.6.5-5.5 1-9 1.5-3.4.5-6.8 1.1-10.2 1.8-3.4.6-7.1 1.3-11 1.9-.2 24.1-3.8 70.8-10.7 140l27-9.2c2-22.5 3.4-39.8 4.2-51.8.2-3.9.5-7.5.8-10.8.3-3.3.5-6.2.6-8.5 2 7.4 3.5 13.7 4.5 18.9.9 3.8 2.1 9.4 3.8 16.8s4 19.4 7 35.7c1.7-.8 6.7-2.6 15.2-5.6 8.5-2.9 13.4-4.5 14.9-4.6.6-26.5 4.6-71 12-133.7l-22.8 5c-1 10-1.8 18.1-2.5 24.5zM208.5 330.5l60-15.5-.3-21.7-27 7.1 3-35.5c3.8-.5 7.2-1 10.3-1.4 3.1-.4 6-.8 8.8-1.2 2.8-.3 4.9-.6 6.2-.9.3-3.6.4-7.1.5-10.6.1-3.4.2-6.9.3-10.5-1.3.3-4.3.7-8.8 1.2-4.5.6-10.2 1.4-16.9 2.4l3.3-34.6 12.7-1.3c6.4-.6 11.4-1.3 15.1-2.1.2-2 .4-4.3.8-7 .4-2.6.7-5.3 1.1-8 .4-2.7.8-5.5 1.4-8.4L219.9 194l-11.4 136.5zM375.3 177.8l-9.8 82.8-3.5.3c.1-9.3 0-19.2-.2-29.8-.1-5.8-.2-11.7-.3-17.7-.1-6-.2-11.5-.2-16.5s0-9.3-.1-12.8c0-3.5 0-5.9.1-7-7 2.3-13.5 3.8-19.7 4.4l-1.7.2c-1 4.9-2.3 12.2-3.8 21.8-.8 4.3-2.3 12.2-4.5 23.8-2.2 11.6-4.4 24-6.7 37.4l-2.9.3c3.4-56.1 5-84.3 5-84.6-5.1.9-10.2 2-15.4 3.5-5.1 1.4-10.6 2.6-16.5 3.4L294 322.7l38.5-10.9 11.8-70.2 2.4-.2-1.1 73.6 41.8-11.4c2.2-18 6.3-46.8 12.2-86.6 2.5-16.9 5.6-32.7 9.1-47.4-4.2 1.3-11.4 3.1-21.6 5.5-3.5.7-7.6 1.6-11.8 2.7z"/></svg>