<?xml version="1.0" encoding="utf-8"?>
<!-- Generator: Adobe Illustrator 19.1.0, SVG Export Plug-In . SVG Version: 6.00 Build 0)  -->
<svg version="1.1" id="Layer_1" xmlns="http://www.w3.org/2000/svg" xmlns:xlink="http://www.w3.org/1999/xlink" x="0px" y="0px"
	 viewBox="0 0 512 512" enable-background="new 0 0 512 512" xml:space="preserve">
<path fill="#1D1D1B" d="M500,192h-32v19.6c0,1.7-0.8,3.2-2.2,4.2l-39,26.1c-3.3,2.2-7.8-0.2-7.8-4.2V152h-32v84.9
	c0,4-4.5,6.4-7.8,4.2l-37-24.8c-1.4-0.9-2.2-2.5-2.2-4.2V192h-32v197.7c0,1.7,0.8,3.2,2.2,4.1l72.4,48.8c2.8,1.9,4.4,5,4.4,8.3V512
	h32v-59.7c0-3.3,1.7-6.4,4.4-8.3l74.4-50.1c1.4-0.9,2.2-2.5,2.2-4.1V192z M468,262.2v29.4c0,1.7-0.8,3.2-2.2,4.2l-39,26.1
	c-3.3,2.2-7.8-0.2-7.8-4.2v-29.4c0-1.7,0.8-3.2,2.2-4.2l39-26.1C463.5,255.8,468,258.2,468,262.2z M387,287.5v29.4
	c0,4-4.5,6.4-7.8,4.2l-37-24.8c-1.4-0.9-2.2-2.5-2.2-4.2v-29.4c0-4,4.5-6.4,7.8-4.2l37,24.8C386.2,284.2,387,285.8,387,287.5z
	 M340,372.7v-30.1c0-4,4.5-6.4,7.8-4.2l37,24.8c1.4,0.9,2.2,2.5,2.2,4.2v30.2c0,4-4.5,6.4-7.8,4.1l-37-24.9
	C340.8,375.9,340,374.4,340,372.7z M419,399v-30.7c0-1.7,0.8-3.2,2.2-4.2l39-26.1c3.3-2.2,7.8,0.2,7.8,4.2v30.5
	c0,1.7-0.8,3.2-2.2,4.1l-39,26.3C423.5,405.4,419,403,419,399z"/>
<path fill="#1D1D1B" d="M199.6,80.4l-54.9,36.8c-2,1.3-4.7-0.1-4.7-2.5V0h-32v114.7c0,2.4-2.7,3.8-4.7,2.5L48.4,80.4
	c-2.8-1.9-4.4-5-4.4-8.3V48H12v234.2c0,3.3,1.7,6.5,4.4,8.3l87.1,58.4c2.8,1.9,4.4,5,4.4,8.3V512h32V357.2c0-3.3,1.7-6.5,4.4-8.3
	l87.1-58.4c2.8-1.9,4.4-5,4.4-8.3V48h-32v24.1C204,75.5,202.3,78.6,199.6,80.4z M204,134.7v33.4c0,3.3-1.7,6.5-4.4,8.3l-54.9,36.8
	c-2,1.3-4.7-0.1-4.7-2.5v-50.3c0-1,0.5-1.9,1.3-2.5l47.1-31.6C195.1,122,204,126.7,204,134.7z M108,160.5v50.3
	c0,2.4-2.7,3.8-4.7,2.5l-54.9-36.8c-2.8-1.9-4.4-5-4.4-8.3v-33.4c0-8,8.9-12.8,15.6-8.3l47.1,31.6C107.5,158.5,108,159.5,108,160.5z
	 M44,265.1v-34.4c0-8,8.9-12.8,15.6-8.3l47.1,31.6c0.8,0.6,1.3,1.5,1.3,2.5v51.3c0,2.4-2.7,3.8-4.7,2.5l-54.9-36.8
	C45.7,271.6,44,268.5,44,265.1z M140,307.7v-51.3c0-1,0.5-1.9,1.3-2.5l47.1-31.6c6.6-4.5,15.6,0.3,15.6,8.3v34.4
	c0,3.3-1.7,6.5-4.4,8.3l-54.9,36.8C142.7,311.6,140,310.1,140,307.7z"/>
</svg>
