<?xml version="1.0" encoding="utf-8"?>
<!-- Generator: Adobe Illustrator 19.2.0, SVG Export Plug-In . SVG Version: 6.00 Build 0)  -->
<svg version="1.1" id="Layer_1" xmlns="http://www.w3.org/2000/svg" xmlns:xlink="http://www.w3.org/1999/xlink" x="0px" y="0px"
	 viewBox="0 0 512 512" style="enable-background:new 0 0 512 512;" xml:space="preserve">
<g>
	<rect x="46.4" y="306.3" width="16" height="25.3"/>
	<rect x="83" y="306.3" width="16" height="25.3"/>
	<rect x="46.4" y="241.4" width="16" height="25.3"/>
	<rect x="83" y="241.4" width="16" height="25.3"/>
	<rect x="119.7" y="241.4" width="16" height="25.3"/>
	<rect x="351.7" y="306.3" width="16" height="25.3"/>
	<rect x="388.4" y="306.3" width="16" height="25.3"/>
	<rect x="315.1" y="241.4" width="16" height="25.3"/>
	<rect x="351.7" y="241.4" width="16" height="25.3"/>
	<rect x="388.4" y="241.4" width="16" height="25.3"/>
	<rect x="119.7" y="305.1" width="16" height="25.3"/>
	<rect x="315.1" y="306.1" width="16" height="25.3"/>
	<path d="M188.3,350.4V348V177.6H0V512h117.2h32h96.1V370.2v-9h-57V350.4z M16,496V193.6h156.3V348v2.4v10.8h-55V496H16z M229.3,496
		h-80.1h-16V377.2h96.1V496z"/>
	<rect x="171.7" y="401" width="16" height="25.3"/>
	<rect x="171.7" y="446.1" width="16" height="25.3"/>
	<path d="M456,361.2V177.6H268.7V349v31.4V512h115.5h128.1V370.2v-9H456z M384.3,496h-99.5V380.4V349V193.6H440v167.7h-55.7V496z
		 M496.3,496h-96.1V377.2h96.1V496z"/>
	<rect x="440.7" y="401" width="16" height="25.3"/>
	<rect x="440.7" y="446.1" width="16" height="25.3"/>
	<path d="M104,135.5c4.4,0,8-3.6,8-8V52.7h238.7l0.1,60.8l-35.7-31.8c-3.3-2.9-8.4-2.6-11.3,0.7c-2.9,3.3-2.6,8.4,0.7,11.3
		l49.1,43.7c1.5,1.4,3.4,2,5.3,2c1.9,0,3.7-0.6,5.2-1.9l50.8-43.7c3.3-2.9,3.7-7.9,0.8-11.3c-2.9-3.3-7.9-3.7-11.3-0.8L366.8,114
		l-0.2-69.3c0-4.4-3.6-8-8-8H104c-4.4,0-8,3.6-8,8v82.8C96,131.9,99.6,135.5,104,135.5z"/>
</g>
</svg>
