<?xml version="1.0" encoding="utf-8"?>
<!-- Generator: Adobe Illustrator 19.1.0, SVG Export Plug-In . SVG Version: 6.00 Build 0)  -->
<svg version="1.1" id="Layer_1" xmlns="http://www.w3.org/2000/svg" xmlns:xlink="http://www.w3.org/1999/xlink" x="0px" y="0px"
	 viewBox="0 0 512 512" style="enable-background:new 0 0 512 512;" xml:space="preserve">
<style type="text/css">
	.st0{fill:#F2F2F2;}
	.st1{fill:#BFDEF6;}
	.st2{fill:#52554F;}
</style>
<g>
	<rect x="314.8" y="278.7" class="st0" width="3.7" height="26.7"/>
	<rect x="162.6" y="165.8" class="st0" width="3.7" height="26.7"/>
	<rect x="314.8" y="222.3" class="st0" width="3.7" height="26.7"/>
	<rect x="238.7" y="109.4" class="st0" width="3.7" height="26.7"/>
	<rect x="238.7" y="165.8" class="st0" width="3.7" height="26.7"/>
	<rect x="162.6" y="109.4" class="st0" width="3.7" height="26.7"/>
	<rect x="238.7" y="222.3" class="st0" width="3.7" height="26.7"/>
	<rect x="379.7" y="75.7" class="st0" width="9.8" height="346.2"/>
	<rect x="227.5" y="340.6" class="st0" width="3.7" height="81.4"/>
	<rect x="162.6" y="222.3" class="st0" width="3.7" height="26.7"/>
	<rect x="238.7" y="278.7" class="st0" width="3.7" height="26.7"/>
	<path class="st0" d="M222.6,422v-86.3h68.2v2.5h3.7V422h80.2V78.2H145.5V422H222.6z M309.9,104.5h44.3v2.5h3.7v31.6h-3.7v2.5h-44.3
		V104.5z M309.9,160.9h44.3v2.5h3.7V195h-3.7v2.5h-44.3V160.9z M309.9,217.4h44.3v2.5h3.7v31.6h-3.7v2.5h-44.3V217.4z M309.9,273.8
		h44.3v2.5h3.7v31.6h-3.7v2.5h-44.3V273.8z M233.8,104.5h44.3v2.5h3.7v31.6h-3.7v2.5h-44.3V104.5z M233.8,160.9h44.3v2.5h3.7V195
		h-3.7v2.5h-44.3V160.9z M233.8,217.4h44.3v2.5h3.7v31.6h-3.7v2.5h-44.3V217.4z M233.8,273.8h44.3v2.5h3.7v31.6h-3.7v2.5h-44.3
		V273.8z M157.7,104.5H202v2.5h3.7v31.6H202v2.5h-44.3V104.5z M157.7,160.9H202v2.5h3.7V195H202v2.5h-44.3V160.9z M157.7,217.4H202
		v2.5h3.7v31.6H202v2.5h-44.3V217.4z M202,273.8v2.5h3.7v31.6H202v2.5h-44.3v-36.5H202z"/>
	<rect x="162.6" y="278.7" class="st0" width="3.7" height="26.7"/>
	<rect x="314.8" y="165.8" class="st0" width="3.7" height="26.7"/>
	<rect x="314.8" y="109.4" class="st0" width="3.7" height="26.7"/>
	<rect x="318.4" y="278.7" class="st1" width="30.8" height="26.7"/>
	<rect x="354.1" y="276.2" class="st1" width="3.7" height="31.6"/>
	<rect x="354.1" y="219.8" class="st1" width="3.7" height="31.6"/>
	<rect x="318.4" y="222.3" class="st1" width="30.8" height="26.7"/>
	<rect x="354.1" y="163.4" class="st1" width="3.7" height="31.6"/>
	<rect x="318.4" y="165.8" class="st1" width="30.8" height="26.7"/>
	<rect x="354.1" y="107" class="st1" width="3.7" height="31.6"/>
	<rect x="318.4" y="109.4" class="st1" width="30.8" height="26.7"/>
	<rect x="278.1" y="276.2" class="st1" width="3.7" height="31.6"/>
	<rect x="242.4" y="278.7" class="st1" width="30.8" height="26.7"/>
	<rect x="242.4" y="222.3" class="st1" width="30.8" height="26.7"/>
	<rect x="278.1" y="219.8" class="st1" width="3.7" height="31.6"/>
	<rect x="278.1" y="163.4" class="st1" width="3.7" height="31.6"/>
	<rect x="242.4" y="165.8" class="st1" width="30.8" height="26.7"/>
	<rect x="278.1" y="107" class="st1" width="3.7" height="31.6"/>
	<rect x="242.4" y="109.4" class="st1" width="30.8" height="26.7"/>
	<rect x="166.3" y="278.7" class="st1" width="30.8" height="26.7"/>
	<rect x="202" y="276.2" class="st1" width="3.7" height="31.6"/>
	<rect x="166.3" y="222.3" class="st1" width="30.8" height="26.7"/>
	<rect x="202" y="219.8" class="st1" width="3.7" height="31.6"/>
	<rect x="202" y="163.4" class="st1" width="3.7" height="31.6"/>
	<rect x="166.3" y="165.8" class="st1" width="30.8" height="26.7"/>
	<rect x="166.3" y="109.4" class="st1" width="30.8" height="26.7"/>
	<rect x="202" y="107" class="st1" width="3.7" height="31.6"/>
	<path class="st2" d="M354.1,307.9v-31.6v-2.5h-44.3v36.5h44.3V307.9z M314.8,278.7h3.7h30.8v26.7h-30.8h-3.7V278.7z"/>
	<path class="st2" d="M354.1,251.5v-31.6v-2.5h-44.3v36.5h44.3V251.5z M314.8,222.3h3.7h30.8V249h-30.8h-3.7V222.3z"/>
	<path class="st2" d="M354.1,195v-31.6v-2.5h-44.3v36.5h44.3V195z M314.8,165.8h3.7h30.8v26.7h-30.8h-3.7V165.8z"/>
	<path class="st2" d="M354.1,138.6V107v-2.5h-44.3V141h44.3V138.6z M314.8,109.4h3.7h30.8v26.7h-30.8h-3.7V109.4z"/>
	<path class="st2" d="M278.1,307.9v-31.6v-2.5h-44.3v36.5h44.3V307.9z M238.7,278.7h3.7h30.8v26.7h-30.8h-3.7V278.7z"/>
	<path class="st2" d="M278.1,251.5v-31.6v-2.5h-44.3v36.5h44.3V251.5z M238.7,222.3h3.7h30.8V249h-30.8h-3.7V222.3z"/>
	<path class="st2" d="M278.1,195v-31.6v-2.5h-44.3v36.5h44.3V195z M238.7,165.8h3.7h30.8v26.7h-30.8h-3.7V165.8z"/>
	<path class="st2" d="M278.1,138.6V107v-2.5h-44.3V141h44.3V138.6z M238.7,109.4h3.7h30.8v26.7h-30.8h-3.7V109.4z"/>
	<path class="st2" d="M202,310.3v-2.5v-31.6v-2.5h-44.3v36.5H202z M162.6,278.7h3.7h30.8v26.7h-30.8h-3.7V278.7z"/>
	<path class="st2" d="M202,251.5v-31.6v-2.5h-44.3v36.5H202V251.5z M162.6,222.3h3.7h30.8V249h-30.8h-3.7V222.3z"/>
	<path class="st2" d="M202,195v-31.6v-2.5h-44.3v36.5H202V195z M162.6,165.8h3.7h30.8v26.7h-30.8h-3.7V165.8z"/>
	<path class="st2" d="M202,138.6V107v-2.5h-44.3V141H202V138.6z M162.6,109.4h3.7h30.8v26.7h-30.8h-3.7V109.4z"/>
	<rect x="290.9" y="338.1" class="st1" width="3.7" height="83.9"/>
	<rect x="231.2" y="340.6" class="st1" width="54.7" height="81.4"/>
	<path class="st2" d="M511.5,256.5C511.5,115.6,396.8,1,256,1C115.1,1,0.5,115.6,0.5,256.5c0,64.7,24.2,123.9,64,168.9
		c0.1,0.2,0.2,0.4,0.4,0.6c18.5,20.9,40.1,38.3,63.8,51.9c0.4,0.2,0.8,0.5,1.2,0.7c1.3,0.7,2.6,1.5,3.9,2.2
		c32.5,17.8,69.3,28.7,108.4,30.8c0,0,0.1,0,0.1,0c2,0.1,4.1,0.2,6.1,0.2c0.3,0,0.5,0,0.8,0c2.3,0.1,4.5,0.1,6.8,0.1s4.5,0,6.8-0.1
		c0.3,0,0.5,0,0.8,0c2-0.1,4.1-0.1,6.1-0.2c0,0,0.1,0,0.1,0c37-2,71.9-11.8,103.1-27.9c0,0,0,0,0,0c1.8-0.9,3.5-1.9,5.3-2.8
		c1.3-0.7,2.7-1.5,4-2.2c0.4-0.2,0.8-0.4,1.2-0.7c23.7-13.6,45.3-31.1,63.9-51.9c0.2-0.2,0.3-0.4,0.4-0.6
		C487.3,380.4,511.5,321.2,511.5,256.5z M380.3,474c-1.1,0.6-2.2,1.3-3.4,1.9c-0.9,0.5-1.8,1-2.7,1.5c-0.6,0.3-1.3,0.7-1.9,1
		c-1.4,0.7-2.8,1.5-4.3,2.2c-0.2,0.1-0.4,0.2-0.6,0.3c-34.3,17.1-72.4,26.2-111.5,26.2c-39.1,0-77.2-9.2-111.5-26.2
		c-0.2-0.1-0.4-0.2-0.6-0.3c-1.4-0.7-2.9-1.5-4.3-2.2c-0.6-0.3-1.3-0.7-1.9-1c-0.9-0.5-1.8-1-2.7-1.5c-1.1-0.6-2.2-1.2-3.3-1.9
		c-0.3-0.2-0.6-0.3-0.9-0.5c-21.5-12.5-41-28-57.9-46.1h57.9h91.8h68.2h88.8h59.3c-16.9,18.1-36.4,33.6-57.9,46.1
		C380.9,473.7,380.6,473.8,380.3,474z M374.8,78.2V422h-80.2h-3.7v-83.9v-2.5h-68.2V422h-77.1h-9.8V78.2h9.8H374.8z M286,340.6V422
		h-54.7h-3.7v-81.4h3.7H286z M256,5.9c138.2,0,250.6,112.4,250.6,250.6c0,63.4-23.6,121.3-62.6,165.5h-54.5h-9.8V75.7v-2.5H130.8
		V422H67.9C29,377.8,5.4,319.9,5.4,256.5C5.4,118.3,117.8,5.9,256,5.9z"/>
</g>
</svg>
