<?xml version="1.0" encoding="utf-8"?>
<!-- Generator: Adobe Illustrator 19.1.0, SVG Export Plug-In . SVG Version: 6.00 Build 0)  -->
<svg version="1.1" id="Layer_1" xmlns="http://www.w3.org/2000/svg" xmlns:xlink="http://www.w3.org/1999/xlink" x="0px" y="0px"
	 viewBox="0 0 512 512" enable-background="new 0 0 512 512" xml:space="preserve">
<path fill="none" d="M311.1,126.4c-5.7-4.3-11.7-8.2-17.9-11.5c-6,4.9-12.1,10-18.2,15.3L311.1,126.4z"/>
<path fill="none" d="M316,348.3c12.5-11.2,24.7-21.1,36.5-29.8c-0.5-1.8-1-3.6-1.5-5.4c-12.4,16.1-88.1,80.7-108.1,95.4l18.1-1.9
	C275.7,388.2,293.9,368.3,316,348.3z"/>
<path fill="#3DBFEF" d="M297.7,111.2c-0.2,0-0.4,0-0.5,0.1c0.1,0,0.2,0.1,0.3,0.2C297.5,111.4,297.6,111.3,297.7,111.2z"/>
<path fill="#3DBFEF" d="M152.3,209.5c0.8-21.8,2.9-43.9,6.3-65.5c0.2-1.1,1.1-2,2.2-2.1l114.1-11.8c6.2-5.3,12.3-10.4,18.2-15.3
	c-0.9-0.5-1.8-0.9-2.7-1.4c-0.5-0.3-0.9-0.7-1.1-1.1c-50.4,6.7-100.8,13.3-151.2,20c-1.2,19.6-1.6,41.3-0.6,64.7
	c1.2,26.3,3.9,50.2,7.3,71.6c2.6-3.4,5.2-6.8,7.9-10.3C152,242,151.8,225.7,152.3,209.5z"/>
<path fill="#1D1E1C" d="M130.3,255.3l-17.4,1.7c-1.4,0.1-2.4,1.4-2.2,2.7c0.1,1.3,1.2,2.3,2.5,2.3c0.1,0,0.2,0,0.2,0l17.4-1.7
	c1.4-0.1,2.4-1.4,2.2-2.7C132.9,256.1,131.7,255.1,130.3,255.3z"/>
<path fill="#1D1E1C" d="M131.2,236.5c-1.1-0.9-2.6-0.7-3.5,0.3c-0.9,1.1-0.7,2.6,0.3,3.5l7.5,6.2c0.5,0.4,1,0.6,1.6,0.6
	c0.7,0,1.4-0.3,1.9-0.9c0.9-1.1,0.7-2.6-0.3-3.5L131.2,236.5z"/>
<path fill="#1D1E1C" d="M257.8,99.4c6,1.6,11.9,3.8,17.6,6.4c0.3,0.2,0.7,0.2,1.1,0.2c0.9,0,1.8-0.5,2.3-1.4c0.6-1.3,0-2.7-1.2-3.3
	c-6-2.8-12.2-5-18.5-6.7c-1.3-0.4-2.7,0.4-3.1,1.8C255.7,97.7,256.5,99.1,257.8,99.4z"/>
<path fill="#1D1E1C" d="M288.1,89.7c10.3,3.2,20,8.4,28.8,15.5c0.5,0.4,1,0.5,1.6,0.5c0.7,0,1.5-0.3,2-0.9c0.9-1.1,0.7-2.7-0.4-3.5
	c-9.4-7.4-19.6-12.9-30.4-16.3c-1.3-0.4-2.7,0.3-3.1,1.6C286,87.8,286.8,89.2,288.1,89.7z"/>
<path fill="#FFFFFF" d="M208.1,383.9c-7.8,1.9-14.8,1.1-19.9-0.2c9.2,15.9,26.2,25.7,44.7,25.6c-3.3-3.1-6.1-6.7-8.1-10.7
	c-3.8-7.4-4.5-14.6-4.3-20C216.6,381,212.5,382.8,208.1,383.9z"/>
<path fill="#FFFFFF" d="M351,313.1c-14.3-54-13.6-98.9-13.3-121.6c0.3-21.2,2-42.5,5-63.4l-179.5,18.6c-3.2,20.8-5.2,42-6,63
	c-0.8,24.2,0,48.6,2.5,72.6c3.2,21.8,7.7,43.3,13.4,63.8c5.1,18.3,8.8,25.4,11,29.7c0.3,0.5,0.5,1.1,0.8,1.5
	c4.3,1.7,12.4,3.9,21.9,1.6c4.6-1.1,8.9-3.1,12.8-6c1.2-0.9,2.8-1,4.1-0.2c1.3,0.7,2,2.2,1.9,3.7c-0.5,4.9-0.3,12.3,3.6,19.8
	c2.4,4.7,6,8.9,10.4,12.2c0.1,0.1,0.3,0.2,0.4,0.4l2.8-0.3C262.9,393.8,338.6,329.2,351,313.1z M250,214.3c1.4-0.1,2.6,0.8,2.8,2.2
	c0.2,1.4-0.8,2.6-2.2,2.8l-65.5,7.2c-0.1,0-0.2,0-0.3,0c-1.3,0-2.3-0.9-2.5-2.2c-0.2-1.4,0.8-2.6,2.2-2.8L250,214.3z M250.5,306.7
	l-65.5,7.2c-0.1,0-0.2,0-0.3,0c-1.3,0-2.3-0.9-2.5-2.2c-0.2-1.4,0.8-2.6,2.2-2.8l65.5-7.2c1.4-0.1,2.6,0.8,2.8,2.2
	C252.9,305.3,251.9,306.5,250.5,306.7z M303.9,265.5l-118.7,13.1c-0.1,0-0.2,0-0.3,0c-1.3,0-2.3-0.9-2.5-2.2
	c-0.2-1.4,0.8-2.6,2.2-2.8l118.7-13.1c1.4-0.1,2.6,0.8,2.8,2.2C306.3,264.1,305.3,265.4,303.9,265.5z M303.9,178.1l-118.7,13.1
	c-0.1,0-0.2,0-0.3,0c-1.3,0-2.3-0.9-2.5-2.2c-0.2-1.4,0.8-2.6,2.2-2.8l118.7-13.1c1.4-0.2,2.6,0.8,2.8,2.2
	C306.3,176.7,305.3,178,303.9,178.1z"/>
<path fill="#F7C665" d="M261,406.6l121.6-12.4c-10.7-20.4-19.6-41.7-26.4-63.3c-1.3-4.2-2.6-8.3-3.7-12.4
	c-11.7,8.7-24,18.6-36.5,29.8C293.9,368.3,275.7,388.2,261,406.6z"/>
<path fill="#1D1E1C" d="M388.7,395.1c-11.3-21.1-20.7-43.3-27.8-65.8c-19.4-61.1-18.6-112.9-18.2-137.8c0.2-9.9,0.6-19.9,1.4-29.9
	c9.6,14.4,17,30.7,21.7,48.2c0.3,1.1,1.3,1.9,2.4,1.9c0.2,0,0.4,0,0.7-0.1c1.3-0.4,2.1-1.7,1.8-3.1c-5.4-20.2-14.3-38.7-25.9-54.7
	c0.9-9.5,2-18.9,3.4-28.2c0.1-0.8-0.1-1.5-0.7-2.1s-1.3-0.8-2.1-0.8l-27.2,2.8c-6.5-5.4-13.5-10.1-20.8-14.2c-0.1,0-0.2-0.1-0.3-0.2
	c-1.4-0.8-2.9-1.6-4.3-2.3c-1.2-0.6-2.7-0.1-3.4,1.1c-0.4,0.7-0.3,1.5,0,2.2c0.2,0.5,0.6,0.9,1.1,1.1c0.9,0.5,1.8,0.9,2.7,1.4
	c6.3,3.4,12.2,7.2,17.9,11.5l-36.1,3.7L160.9,142c-1.1,0.1-2,1-2.2,2.1c-3.4,21.6-5.6,43.6-6.3,65.5c-0.6,16.2-0.4,32.5,0.5,48.7
	c0.5,8.2,1.1,16.5,1.9,24.6c0,0,0,0.1,0,0.1c3.2,22,7.8,43.7,13.6,64.5c5.2,18.8,9.1,26.2,11.4,30.7c0.5,1,1,1.9,1.3,2.7
	c9.2,20.5,29.4,33.4,51.5,33.4c1.9,0,3.9-0.1,5.8-0.3l148.4-15.2c0.8-0.1,1.6-0.6,2-1.3C389.1,396.8,389.1,395.9,388.7,395.1z
	 M224.7,398.5c2,4,4.8,7.6,8.1,10.7c-18.4,0.1-35.5-9.7-44.7-25.6c5.1,1.3,12.1,2.1,19.9,0.2c4.4-1.1,8.6-2.9,12.4-5.3
	C220.2,384,221,391.2,224.7,398.5z M240,408.8c-0.1-0.1-0.2-0.3-0.4-0.4c-4.4-3.2-8-7.4-10.4-12.2c-3.9-7.6-4.1-15-3.6-19.8
	c0.2-1.5-0.6-2.9-1.9-3.7c-1.3-0.7-2.9-0.6-4.1,0.2c-3.9,2.9-8.2,4.9-12.8,6c-9.5,2.3-17.6,0.1-21.9-1.6c-0.2-0.5-0.5-1-0.8-1.5
	c-2.2-4.2-5.9-11.3-11-29.7c-5.7-20.6-10.2-42.1-13.4-63.8c-2.5-24-3.3-48.5-2.5-72.6c0.7-21,2.7-42.2,6-63l179.5-18.6
	c-3,20.9-4.7,42.2-5,63.4c-0.3,22.7-1,67.6,13.3,121.6c0.5,1.8,1,3.6,1.5,5.4c1.1,4.1,2.4,8.2,3.7,12.4
	c6.9,21.6,15.7,42.9,26.4,63.3L261,406.6l-18.1,1.9L240,408.8z"/>
<path fill="#1D1E1C" d="M303.4,173.1l-118.7,13.1c-1.4,0.2-2.4,1.4-2.2,2.8c0.1,1.3,1.2,2.2,2.5,2.2c0.1,0,0.2,0,0.3,0l118.7-13.1
	c1.4-0.2,2.4-1.4,2.2-2.8C306,174,304.8,173,303.4,173.1z"/>
<path fill="#1D1E1C" d="M182.2,224.2c0.1,1.3,1.2,2.2,2.5,2.2c0.1,0,0.2,0,0.3,0l65.5-7.2c1.4-0.2,2.4-1.4,2.2-2.8
	c-0.2-1.4-1.4-2.4-2.8-2.2l-65.5,7.2C183.1,221.6,182.1,222.9,182.2,224.2z"/>
<path fill="#1D1E1C" d="M303.4,260.6l-118.7,13.1c-1.4,0.2-2.4,1.4-2.2,2.8c0.1,1.3,1.2,2.2,2.5,2.2c0.1,0,0.2,0,0.3,0l118.7-13.1
	c1.4-0.2,2.4-1.4,2.2-2.8C306,261.4,304.8,260.4,303.4,260.6z"/>
<path fill="#1D1E1C" d="M250,301.7l-65.5,7.2c-1.4,0.2-2.4,1.4-2.2,2.8c0.1,1.3,1.2,2.2,2.5,2.2c0.1,0,0.2,0,0.3,0l65.5-7.2
	c1.4-0.2,2.4-1.4,2.2-2.8C252.6,302.5,251.3,301.5,250,301.7z"/>
</svg>
