<?xml version="1.0" encoding="utf-8"?>
<!-- Generator: Adobe Illustrator 19.1.0, SVG Export Plug-In . SVG Version: 6.00 Build 0)  -->
<svg version="1.1" id="Layer_1" xmlns="http://www.w3.org/2000/svg" xmlns:xlink="http://www.w3.org/1999/xlink" x="0px" y="0px"
	 viewBox="0 0 512 512" enable-background="new 0 0 512 512" xml:space="preserve">
<path fill="none" d="M145.1,175l-5-35.7l-39.8,19c-0.7,0.3-1.4,0.3-2.1,0c-0.7-0.3-1.2-0.8-1.4-1.5l-8.5-26.6l-5.7-0.1L76.6,161
	c-0.8,4.3-3.1,8.2-6.4,11.1C86.5,171.5,133.7,174.3,145.1,175z"/>
<path fill="#1D1E1C" d="M255.5,126.5c0.1,0,0.2,0,0.3,0c7.6-0.9,15.4-1,23.1-0.5c1.4,0.1,2.6-0.9,2.7-2.3s-0.9-2.6-2.3-2.7
	c-8-0.6-16-0.4-24,0.5c-1.4,0.2-2.4,1.4-2.2,2.8C253.1,125.5,254.2,126.5,255.5,126.5z"/>
<path fill="#FCCB6A" d="M215.5,183.9c-0.1,0.8-0.2,1.5-0.4,2.3c8.4,1.7,16.8,3.4,25.2,5.1C231.9,188.9,223.7,186.4,215.5,183.9z"/>
<path fill="#FCCB6A" d="M433.2,304c-4.6,22.7-10.7,45.4-17.9,67.5c-0.3,1-1.3,1.7-2.4,1.7c-0.2,0-0.4,0-0.6-0.1
	c-33.2-8.8-67.1-17-100.7-24.4c-30.9-6.8-62.2-13-93.5-18.6c31.9,8.2,65.3,17.9,100,29.4c36.1,12,69.9,24.6,101.3,37.6
	c8.6-20.4,17.2-44.2,24.6-71.1c7.7-28.4,12.3-54.5,15.2-77.4c-5.6-1.3-11.2-2.6-16.8-3.9C440.2,264.6,437.2,284.5,433.2,304z"/>
<path fill="#FFFFFF" d="M201,188.4c-0.8,10.7-1.8,21.5-3.2,32.2c6.1-6.4,12.9-12,20.5-16.7c5.5-3.4,11.2-6.2,17.2-8.5
	C223.9,193.1,212.4,190.8,201,188.4z"/>
<rect x="332.7" y="289.5" transform="matrix(0.1899 -0.9818 0.9818 0.1899 -34.0451 588.4496)" fill="#FFFFFF" width="13.8" height="50.7"/>
<rect x="214.7" y="293.1" transform="matrix(0.9818 0.1899 -0.1899 0.9818 61.7544 -44.4298)" fill="#FFFFFF" width="95.9" height="13.8"/>
<path fill="#FFFFFF" d="M411.3,367.7c6.9-21.2,12.6-42.9,17-64.7c4.9-24,8.4-48.5,10.3-72.9c-38.7-5.4-77.8-11.6-116.3-18.3
	c-25.5-4.5-51.2-9.3-76.8-14.3c-8.7,2.4-16.9,6-24.6,10.7c-9.2,5.7-17.4,12.8-24.3,21.3c0,0,0,0-0.1,0.1
	c-1.9,12.7-4.2,25.3-6.9,37.8c-3.7,17-8.3,34-13.7,50.6c45.6,7.3,91.6,16,136.7,25.9C345.5,351.1,378.7,359.1,411.3,367.7z
	 M225.9,227.4c-1.4-0.3-2.2-1.6-2-2.9c0.3-1.4,1.6-2.2,2.9-2l166.5,32.2c1.4,0.3,2.2,1.6,2,2.9c-0.2,1.2-1.3,2-2.5,2
	c-0.2,0-0.3,0-0.5,0L225.9,227.4z M307.1,264.8c-0.2,1.2-1.3,2-2.5,2c-0.2,0-0.3,0-0.5,0l-82.8-16c-1.4-0.3-2.2-1.6-2-2.9
	c0.3-1.4,1.6-2.2,2.9-2l82.8,16C306.5,262.1,307.4,263.4,307.1,264.8z M208.9,299.1l3.6-18.4c0.1-0.7,0.5-1.2,1.1-1.6
	s1.2-0.5,1.9-0.4l98.3,19c0.3,0,0.5,0,0.8,0c0.3,0.1,0.5,0.2,0.7,0.3l53.9,10.4c1.4,0.3,2.2,1.6,2,2.9l-3.6,18.4
	c-0.1,0.7-0.5,1.2-1.1,1.6c-0.4,0.3-0.9,0.4-1.4,0.4c-0.2,0-0.3,0-0.5,0l-153.8-29.7C209.5,301.8,208.6,300.5,208.9,299.1z"/>
<path fill="#1D1E1C" d="M412.3,373.1c0.2,0.1,0.4,0.1,0.6,0.1c1.1,0,2-0.7,2.4-1.7c7.2-22,13.3-44.7,17.9-67.5
	c4-19.6,7-39.5,9.1-59.4c0.6-5.5,1.1-11,1.5-16.5c0.1-1.3-0.8-2.5-2.1-2.7c-14.6-2-29.2-4.2-43.9-6.4c-11.8-44.5-46.5-81.6-94.1-94
	c-1.3-0.4-2.7,0.4-3.1,1.8c-0.4,1.3,0.4,2.7,1.8,3.1c45,11.8,78.1,46.5,90,88.4c-23.1-3.6-46.3-7.4-69.2-11.4
	c-24.6-4.3-49.3-8.9-74-13.8c-0.6-0.9-1.6-1.3-2.7-1.1c-0.4,0.1-0.8,0.2-1.2,0.3c-1.7-0.3-3.3-0.7-5-1c-8.4-1.7-16.8-3.4-25.2-5.1
	c-5.3-1.1-10.6-2.2-15.9-3.3c-0.7-0.2-1.4,0-2,0.5c-0.6,0.4-0.9,1.1-1,1.8c-1.8,27.2-5.6,54.5-11.5,81.1
	c-3.9,17.8-8.8,35.6-14.5,52.9c-0.2,0.7-0.1,1.5,0.2,2.1c0.4,0.6,1,1.1,1.7,1.2c15.2,2.4,30.5,5,45.8,7.7
	c31.3,5.6,62.6,11.8,93.5,18.6C345.1,356.1,379,364.3,412.3,373.1z M175.9,317.9c5.4-16.6,10-33.6,13.7-50.6
	c2.7-12.5,5-25.1,6.9-37.8c0,0,0.1,0,0.1-0.1c6.9-8.4,15-15.6,24.3-21.3c7.7-4.7,15.9-8.3,24.6-10.7c25.6,5.1,51.3,9.9,76.8,14.3
	c38.5,6.7,77.6,12.9,116.3,18.3c-1.9,24.4-5.4,49-10.3,72.9c-4.5,21.8-10.2,43.5-17,64.7c-32.6-8.6-65.8-16.6-98.7-23.9
	C267.5,333.9,221.5,325.2,175.9,317.9z M218.2,203.9c-7.6,4.6-14.4,10.2-20.5,16.7c1.4-10.7,2.5-21.5,3.2-32.2
	c11.4,2.4,22.9,4.8,34.5,7.1C229.5,197.7,223.7,200.5,218.2,203.9z"/>
<path fill="#1D1E1C" d="M365.1,331.9c0.5,0,1-0.1,1.4-0.4c0.5-0.4,0.9-0.9,1.1-1.6l3.6-18.4c0.3-1.4-0.6-2.7-2-2.9L315.2,298
	c-0.2-0.1-0.5-0.2-0.7-0.3c-0.3-0.1-0.5,0-0.8,0l-98.3-19c-0.7-0.1-1.3,0-1.9,0.4s-0.9,0.9-1.1,1.6l-3.6,18.4
	c-0.3,1.4,0.6,2.7,2,2.9l153.8,29.7C364.8,331.9,365,331.9,365.1,331.9z M216.9,284.1l94.2,18.2l-2.6,13.5l-94.2-18.2L216.9,284.1z
	 M313.4,316.8l2.6-13.5l49.8,9.6l-2.6,13.5L313.4,316.8z"/>
<path fill="#1D1E1C" d="M392.9,259.6c1.2,0,2.2-0.8,2.5-2c0.3-1.4-0.6-2.7-2-2.9l-166.5-32.2c-1.4-0.3-2.7,0.6-2.9,2
	c-0.3,1.4,0.6,2.7,2,2.9l166.5,32.2C392.5,259.6,392.7,259.6,392.9,259.6z"/>
<path fill="#1D1E1C" d="M222.3,245.9c-1.4-0.3-2.7,0.6-2.9,2c-0.3,1.4,0.6,2.7,2,2.9l82.8,16c0.2,0,0.3,0,0.5,0c1.2,0,2.2-0.8,2.5-2
	c0.3-1.4-0.6-2.7-2-2.9L222.3,245.9z"/>
<path fill="#1D1E1C" d="M277.1,408.4c-50.8,5.4-99.7-20-124.5-64.7c-0.7-1.2-2.2-1.6-3.4-1c-1.2,0.7-1.6,2.2-1,3.4
	c23.5,42.3,67.7,68,115.3,68c4.7,0,9.3-0.2,14-0.7c1.4-0.1,2.4-1.4,2.2-2.8C279.7,409.3,278.5,408.3,277.1,408.4z"/>
<path fill="#1D1E1C" d="M314.6,398.5c-4.6,2-9.4,3.8-14.2,5.2c-1.3,0.4-2.1,1.8-1.7,3.1c0.3,1.1,1.3,1.8,2.4,1.8
	c0.2,0,0.5,0,0.7-0.1c5-1.5,10-3.3,14.7-5.4c1.3-0.6,1.8-2,1.3-3.3C317.4,398.6,315.9,398,314.6,398.5z"/>
<path fill="#1D1E1C" d="M452.9,221.4c0.4,0.2,0.8,0.3,1.3,0.3c0.9,0,1.7-0.4,2.2-1.2l8.8-15.1c0.7-1.2,0.3-2.7-0.9-3.4
	c-1.2-0.7-2.7-0.3-3.4,0.9l-8.8,15.1C451.3,219.1,451.7,220.7,452.9,221.4z"/>
<path fill="#1D1E1C" d="M472.8,229.1c-0.4-1.3-1.7-2.1-3.1-1.8l-9.4,2.5c-1.3,0.4-2.1,1.7-1.8,3.1c0.3,1.1,1.3,1.9,2.4,1.9
	c0.2,0,0.4,0,0.6-0.1l9.4-2.5C472.3,231.8,473.1,230.5,472.8,229.1z"/>
<path fill="#3DBFEF" d="M70.2,172c-1.3,1.1-2.7,2.1-4.3,2.8l-1.6,0.8l19.7,41.5c0.4,0.8,1.1,1.5,2,1.8c0.9,0.3,1.8,0.3,2.7-0.1
	l44.7-21.4c8.3-4,13-12.8,11.7-21.9l-0.1-0.5C133.7,174.3,86.5,171.5,70.2,172z"/>
<path fill="#1D1E1C" d="M150.2,174.8l-5.3-38c-0.2-1.1-0.9-2.2-1.9-2.7c-1-0.5-2.3-0.6-3.3-0.1l-38.9,18.6l-8.2-25.6
	c-0.3-1-1.3-1.7-2.3-1.7l-9.6-0.2c-1.2,0-2.3,0.8-2.5,2L71.7,160c-0.9,4.5-3.8,8.3-8,10.3l-3.8,1.8c-1.2,0.6-1.8,2.1-1.2,3.3
	l20.8,43.8c1,2.1,2.7,3.6,4.8,4.4c0.9,0.3,1.9,0.5,2.8,0.5c1.3,0,2.5-0.3,3.7-0.8l44.7-21.4C145.9,197,151.7,186.1,150.2,174.8z
	 M76.6,161l5.9-30.8l5.7,0.1l8.5,26.6c0.2,0.7,0.7,1.2,1.4,1.5c0.7,0.3,1.4,0.3,2.1,0l39.8-19l5,35.7l0.1,0.5
	c1.3,9.1-3.4,17.9-11.7,21.9l-44.7,21.4c-0.8,0.4-1.8,0.5-2.7,0.1c-0.9-0.3-1.6-1-2-1.8l-19.7-41.5l1.6-0.8c1.6-0.8,3-1.7,4.3-2.8
	C73.5,169.2,75.8,165.3,76.6,161z"/>
<path fill="#1D1E1C" d="M51.8,179.6c-0.6-1.2-2.1-1.8-3.3-1.2c-1.2,0.6-1.8,2.1-1.2,3.3l22.8,47.6c0.4,0.9,1.3,1.4,2.3,1.4
	c0.4,0,0.7-0.1,1.1-0.2c1.2-0.6,1.8-2.1,1.2-3.3L51.8,179.6z"/>
<path fill="#1D1E1C" d="M110.4,125C110.4,125,110.4,125,110.4,125c1.5-0.1,2.6-1.2,2.5-2.6l-0.6-15.5c-0.1-1.4-1.2-2.5-2.6-2.4
	c-1.4,0.1-2.5,1.2-2.4,2.6l0.6,15.5C107.9,123.9,109,125,110.4,125z"/>
<path fill="#1D1E1C" d="M120.5,130.6c0.7,0,1.3-0.3,1.8-0.8l6.8-7.3c0.9-1,0.9-2.6-0.1-3.5c-1-0.9-2.6-0.9-3.5,0.1l-6.8,7.3
	c-0.9,1-0.9,2.6,0.1,3.5C119.3,130.4,119.9,130.6,120.5,130.6z"/>
</svg>
