<?xml version="1.0" encoding="utf-8"?>
<!-- Generator: Adobe Illustrator 19.1.0, SVG Export Plug-In . SVG Version: 6.00 Build 0)  -->
<svg version="1.1" id="Layer_1" xmlns="http://www.w3.org/2000/svg" xmlns:xlink="http://www.w3.org/1999/xlink" x="0px" y="0px"
	 viewBox="0 0 512 512" enable-background="new 0 0 512 512" xml:space="preserve">
<path fill="#F7C665" d="M191.8,213.2c-2.9,1.1-5.8,2.3-8.8,3.6c2.9-0.8,5.8-1.6,8.7-2.4C191.8,214,191.8,213.6,191.8,213.2z"/>
<path fill="#F7C665" d="M128.5,342.8c-1.9,0.6-3.9,0.8-5.8,0.8c-3.4,0-6.7-0.8-9.7-2.5c-4.7-2.6-8.2-6.9-9.7-12.1l-17-58.4
	c-0.1-0.4-0.2-0.8-0.3-1.2c-3.2,2.2-6.3,4.4-9.4,6.6c-7.1,3.9-9.5,13.3-5.3,20.9l26,47.7c4.2,7.7,13.4,10.7,20.5,6.9
	c0,0,6.3-3.8,15.5-9.2l0.4-1.3C130.6,342.1,128.7,342.7,128.5,342.8z"/>
<path fill="#FFFFFF" d="M219.5,301.1c-11.1-14-19-29.8-23.5-46.5c-0.2,0.1-0.4,0.3-0.7,0.3l-75.1,21.9c-0.2,0.1-0.5,0.1-0.7,0.1
	c-1.1,0-2.1-0.7-2.4-1.8c-0.4-1.3,0.4-2.7,1.7-3.1l75.1-21.9c0.3-0.1,0.6-0.1,1-0.1c-2.3-9.9-3.4-20.2-3.3-30.5
	c-30.5,8.1-60.6,18.4-89.7,30.7c-0.1,0-0.2,0.1-0.3,0.1c-3.9,1.1-7.1,3.7-9.1,7.3c-2,3.6-2.4,7.7-1.3,11.6l17,58.4
	c1.1,3.9,3.7,7.1,7.3,9.1c3.6,2,7.7,2.4,11.6,1.3c0.6-0.2,3.8-1.2,8.6-2.8l10-31.8l-16.4,4.8c-0.2,0.1-0.5,0.1-0.7,0.1
	c-1.1,0-2.1-0.7-2.4-1.8c-0.4-1.3,0.4-2.7,1.7-3.1l19.7-5.7l1.5-4.8c0.2-0.6,0.7-1.2,1.3-1.5l19.2-9.5c0.6-0.3,1.3-0.3,2-0.1
	c0.6,0.2,1.2,0.7,1.4,1.3l8.1,18.2c0.3,0.6,0.3,1.3,0,1.9L173,323c19.1-6.1,39.6-12.5,51.5-15.8
	C222.8,305.2,221.1,303.2,219.5,301.1z"/>
<path fill="#1D1E1C" d="M62.2,242.9L47.1,234c-1.2-0.7-2.7-0.3-3.4,0.9c-0.7,1.2-0.3,2.7,0.9,3.4l15.1,8.9c0.4,0.2,0.8,0.3,1.3,0.3
	c0.9,0,1.7-0.4,2.2-1.2C63.7,245.2,63.3,243.6,62.2,242.9z"/>
<path fill="#1D1E1C" d="M73.9,240.8c0.2,0,0.4,0,0.6-0.1c1.3-0.3,2.1-1.7,1.8-3l-2.4-9.4c-0.3-1.3-1.7-2.1-3-1.8
	c-1.3,0.3-2.1,1.7-1.8,3l2.4,9.4C71.8,240.1,72.8,240.8,73.9,240.8z"/>
<path fill="#3DBFEF" d="M320.7,350.1c-4.9,0-9.9-0.3-15-0.9c-13.7-1.6-26.8-5.3-39-10.9l-3.8,4.9l3.8-4.9
	c-8.5-3.9-16.5-8.7-23.9-14.3c20.4,24.2,49.7,40.9,83.6,44.9l2.2-19.1C326,350,323.4,350.1,320.7,350.1z"/>
<path fill="#3DBFEF" d="M419.4,138.1c0.1,0.1,0.2,0.2,0.2,0.3l0-0.1l0,0.1c0.7,0.8,1.4,1.7,2.1,2.5c12.5,15.8,21,34,25.1,53.2
	l12.5-5.5l-12.5,5.5c2.9,13.6,3.6,27.6,1.9,41.8c-2.8,23.8-11.9,45.4-25.5,63.2c-0.1,0.1-0.1,0.2-0.2,0.3c-0.1,0.1-0.2,0.2-0.2,0.2
	c-13.1,16.9-30.2,30.5-49.7,39.2c-0.1,0.1-0.2,0.1-0.3,0.2c-0.1,0-0.2,0.1-0.3,0.1c-13.6,6-28.4,9.7-43.8,10.7l-2.2,19.1
	c70.8,8.2,134.8-42.5,143-113.3l-19.4-2.3l19.4,2.3C474.9,208.7,454.5,164.8,419.4,138.1z M385.6,340.9l7.9,17.9L385.6,340.9z
	 M428.3,307.3l15.5,11.9L428.3,307.3z"/>
<line fill="none" stroke="#3DBFEF" stroke-width="0" stroke-linecap="round" stroke-linejoin="round" x1="326.5" y1="368.9" x2="328.7" y2="349.8"/>
<line fill="none" stroke="#3DBFEF" stroke-width="0" stroke-linecap="round" stroke-linejoin="round" x1="450.1" y1="253.4" x2="469.5" y2="255.6"/>
<line fill="none" stroke="#3DBFEF" stroke-width="0" stroke-linecap="round" stroke-linejoin="round" x1="393.6" y1="358.7" x2="385.6" y2="340.9"/>
<line fill="none" stroke="#3DBFEF" stroke-width="0" stroke-linecap="round" stroke-linejoin="round" x1="446.8" y1="194.1" x2="459.3" y2="188.6"/>
<line fill="none" stroke="#3DBFEF" stroke-width="0" stroke-linecap="round" stroke-linejoin="round" x1="266.7" y1="338.3" x2="263" y2="343.2"/>
<line fill="none" stroke="#3DBFEF" stroke-width="0" stroke-linecap="round" stroke-linejoin="round" x1="443.8" y1="319.1" x2="428.3" y2="307.3"/>
<line fill="none" stroke="#3DBFEF" stroke-width="0" stroke-linecap="round" stroke-linejoin="round" x1="419.7" y1="138.4" x2="419.7" y2="138.3"/>
<path fill="#FFFFFF" d="M206.9,268.1l14.7-6.5c1.5-0.7,3.3,0,4,1.5c0.7,1.5,0,3.3-1.5,4l-14.7,6.5c4,8.4,8.9,16.4,14.9,23.9
	c5.8,7.3,12.3,13.8,19.3,19.5l9.8-12.8c1-1.3,2.9-1.6,4.2-0.6c1.3,1,1.6,2.9,0.6,4.2l-9.8,12.8c16.1,11.8,35,19.4,55.2,22.3l1.9-16
	c0.2-1.6,1.7-2.8,3.3-2.6c1.6,0.2,2.8,1.7,2.6,3.3l-1.9,16c3.8,0.4,7.6,0.5,11.4,0.5c16.2,0,32-3.2,46.8-9.3l-6.5-14.7
	c-0.7-1.5,0-3.3,1.5-4c1.5-0.7,3.3,0,4,1.5l6.5,14.7c8.4-4,16.4-8.9,23.9-14.8c7.3-5.8,13.8-12.3,19.5-19.3l-12.8-9.8
	c-1.3-1-1.6-2.9-0.6-4.2s2.9-1.6,4.2-0.6l12.8,9.8c11.8-16.1,19.4-35,22.3-55.2l-16-1.9c-1.6-0.2-2.8-1.7-2.6-3.3
	c0.2-1.6,1.7-2.8,3.3-2.6l16,1.9c1.9-20.1-1.2-40-8.8-58.2l-14.7,6.5c-0.4,0.2-0.8,0.3-1.2,0.3c-1.2,0-2.2-0.7-2.7-1.8
	c-0.7-1.5,0-3.3,1.5-4l14.7-6.5c-4-8.4-8.9-16.4-14.9-23.9c-5.8-7.3-12.3-13.8-19.3-19.5l-9.8,12.8c-0.6,0.8-1.5,1.2-2.4,1.2
	c-0.6,0-1.3-0.2-1.8-0.6c-1.3-1-1.6-2.9-0.6-4.2l9.8-12.8c-16.1-11.8-35-19.4-55.2-22.3l-1.9,16c-0.2,1.5-1.5,2.7-3,2.7
	c-0.1,0-0.2,0-0.3,0c-1.6-0.2-2.8-1.7-2.6-3.3l1.9-16c-3.8-0.3-7.5-0.5-11.3-0.5c-16.5,0-32.4,3.3-46.9,9.4l6.5,14.7
	c0.7,1.5,0,3.3-1.5,4c-0.4,0.2-0.8,0.3-1.2,0.3c-1.2,0-2.2-0.7-2.7-1.8l-6.5-14.7c-16.8,8-31.7,19.7-43.3,34.1l12.7,9.7
	c1.3,1,1.6,2.9,0.6,4.2c-0.6,0.8-1.5,1.2-2.4,1.2c-0.6,0-1.3-0.2-1.8-0.6l-12.7-9.7c-11.5,15.8-19.4,34.6-22.3,55.2l16,1.9
	c1.6,0.2,2.8,1.7,2.6,3.3c-0.2,1.5-1.5,2.7-3,2.7c-0.1,0-0.2,0-0.3,0l-16-1.9C196.2,230,199.3,249.8,206.9,268.1z M315.3,243.2
	c-1-0.6-1.5-1.7-1.4-2.9l8.7-74.8c0.2-1.6,1.7-2.8,3.3-2.6c1.6,0.2,2.8,1.7,2.6,3.3l-8.5,72.9l30.3,18.9c1.4,0.9,1.8,2.7,1,4.1
	c-0.6,0.9-1.5,1.4-2.5,1.4c-0.5,0-1.1-0.1-1.6-0.5L315.3,243.2z"/>
<path fill="#1D1E1C" d="M305.7,349.2c5,0.6,10,0.9,15,0.9c2.7,0,5.4-0.1,8-0.3c15.4-1,30.2-4.7,43.8-10.7c0.1,0,0.2,0,0.3-0.1
	c0.1,0,0.2-0.1,0.3-0.2c19.5-8.8,36.7-22.3,49.7-39.2c0.1-0.1,0.2-0.1,0.2-0.2c0.1-0.1,0.1-0.2,0.2-0.3
	c13.6-17.8,22.7-39.4,25.5-63.2c1.6-14.2,1-28.2-1.9-41.8c-4.1-19.2-12.6-37.4-25.1-53.2c-0.7-0.9-1.4-1.7-2.1-2.5
	c-0.1-0.1-0.2-0.2-0.2-0.3c-21.3-25.4-50.9-41.4-84-45.2c-23.6-2.7-46.4,1.1-66.7,10.1c-0.1,0-0.2,0.1-0.4,0.1
	c-0.1,0.1-0.2,0.1-0.3,0.2c-19.5,8.7-36.6,22.2-49.7,39.2c-0.1,0.1-0.2,0.2-0.2,0.3c-0.1,0.1-0.1,0.2-0.2,0.3
	c-13.6,17.8-22.7,39.4-25.5,63.2c-0.3,2.3-0.5,4.7-0.6,7c0,0.4,0,0.8-0.1,1.2c-2.9,0.8-5.8,1.5-8.7,2.4c-28.2,7.9-56,17.5-83,28.9
	c-5.1,1.5-9.4,4.9-11.9,9.6c-2.4,4.4-3.1,9.4-2,14.2c0.1,0.4,0.2,0.8,0.3,1.2l17,58.4c1.5,5.2,4.9,9.5,9.7,12.1
	c3,1.7,6.3,2.5,9.7,2.5c1.9,0,3.9-0.3,5.8-0.8c0.1,0,2-0.7,5.3-1.7l-0.4,1.3l-8.1,25.6c0,0.1-0.1,0.1-0.1,0.2c0,0.1-0.1,0.3-0.1,0.4
	l-0.6,1.8c-2.1,7.1,1.6,14.5,8.6,17c1.5,0.5,3,0.8,4.6,0.8c5.4,0,10.5-3.2,12.7-8.5l0.7-1.7c0.1-0.1,0.1-0.3,0.2-0.4
	c0-0.1,0-0.1,0-0.2l19.3-48.2c21.7-7,46-14.6,57.8-17.7c4.5,4.6,9.3,8.9,14.4,12.7c7.4,5.6,15.4,10.4,23.9,14.3
	C278.9,343.9,292,347.6,305.7,349.2z M134.8,382.5c-4.3-1.5-6.7-6-5.6-10.4l16.4,5.8C143.7,382.1,139,384,134.8,382.5z M147.5,373.4
	l-16.8-6l22-69.6l21.6,7.7c0.1,0,0.2,0.1,0.4,0.1L147.5,373.4z M175.1,300.5l-18.5-6.6l12.8-6.3L175.1,300.5z M181,303.3
	c0.3-0.6,0.2-1.3,0-1.9l-8.1-18.2c-0.3-0.6-0.8-1.1-1.4-1.3c-0.6-0.2-1.3-0.2-2,0.1l-19.2,9.5c-0.6,0.3-1.1,0.8-1.3,1.5l-1.5,4.8
	l-19.7,5.7c-1.3,0.4-2.1,1.8-1.7,3.1c0.3,1.1,1.3,1.8,2.4,1.8c0.2,0,0.5,0,0.7-0.1l16.4-4.8l-10,31.8c-4.8,1.6-8,2.6-8.6,2.8
	c-3.9,1.1-8,0.7-11.6-1.3c-3.6-2-6.2-5.2-7.3-9.1l-17-58.4c-1.1-3.9-0.7-8,1.3-11.6c2-3.6,5.2-6.2,9.1-7.3c0.1,0,0.2-0.1,0.3-0.1
	c29.1-12.3,59.3-22.6,89.7-30.7c-0.1,10.4,1,20.6,3.3,30.5c-0.3,0-0.6,0-1,0.1L118.8,272c-1.3,0.4-2.1,1.8-1.7,3.1
	c0.3,1.1,1.3,1.8,2.4,1.8c0.2,0,0.5,0,0.7-0.1l75.1-21.9c0.3-0.1,0.5-0.2,0.7-0.3c4.5,16.7,12.4,32.5,23.5,46.5
	c1.6,2.1,3.3,4.1,5.1,6c-11.9,3.3-32.4,9.7-51.5,15.8L181,303.3z M198.1,209.8l16,1.9c0.1,0,0.2,0,0.3,0c1.5,0,2.8-1.1,3-2.7
	c0.2-1.6-1-3.1-2.6-3.3l-16-1.9c2.9-20.6,10.8-39.4,22.3-55.2l12.7,9.7c0.5,0.4,1.2,0.6,1.8,0.6c0.9,0,1.8-0.4,2.4-1.2
	c1-1.3,0.8-3.2-0.6-4.2l-12.7-9.7c11.7-14.5,26.5-26.2,43.3-34.1l6.5,14.7c0.5,1.1,1.6,1.8,2.7,1.8c0.4,0,0.8-0.1,1.2-0.3
	c1.5-0.7,2.2-2.4,1.5-4l-6.5-14.7c14.6-6.1,30.5-9.4,46.9-9.4c3.7,0,7.5,0.2,11.3,0.5l-1.9,16c-0.2,1.6,1,3.1,2.6,3.3
	c0.1,0,0.2,0,0.3,0c1.5,0,2.8-1.1,3-2.7l1.9-16c20.2,2.8,39.1,10.5,55.2,22.3l-9.8,12.8c-1,1.3-0.8,3.2,0.6,4.2
	c0.5,0.4,1.2,0.6,1.8,0.6c0.9,0,1.8-0.4,2.4-1.2l9.8-12.8c7.1,5.7,13.5,12.2,19.3,19.5c5.9,7.5,10.9,15.5,14.9,23.9l-14.7,6.5
	c-1.5,0.7-2.2,2.4-1.5,4c0.5,1.1,1.6,1.8,2.7,1.8c0.4,0,0.8-0.1,1.2-0.3l14.7-6.5c7.6,18.2,10.6,38.1,8.8,58.2l-16-1.9
	c-1.6-0.2-3.1,1-3.3,2.6c-0.2,1.6,1,3.1,2.6,3.3l16,1.9c-2.8,20.2-10.5,39.1-22.3,55.2l-12.8-9.8c-1.3-1-3.2-0.8-4.2,0.6
	s-0.8,3.2,0.6,4.2l12.8,9.8c-5.7,7.1-12.2,13.5-19.5,19.3c-7.5,5.9-15.5,10.9-23.9,14.8l-6.5-14.7c-0.7-1.5-2.4-2.2-4-1.5
	c-1.5,0.7-2.2,2.4-1.5,4l6.5,14.7c-14.8,6.1-30.6,9.3-46.8,9.3c-3.8,0-7.6-0.2-11.4-0.5l1.9-16c0.2-1.6-1-3.1-2.6-3.3
	c-1.6-0.2-3.1,1-3.3,2.6l-1.9,16c-20.2-2.8-39.1-10.5-55.2-22.3l9.8-12.8c1-1.3,0.8-3.2-0.6-4.2c-1.3-1-3.2-0.8-4.2,0.6l-9.8,12.8
	c-7.1-5.7-13.5-12.2-19.3-19.5c-5.9-7.5-10.9-15.5-14.9-23.9L224,267c1.5-0.7,2.2-2.4,1.5-4c-0.7-1.5-2.4-2.2-4-1.5l-14.7,6.5
	C199.3,249.8,196.2,230,198.1,209.8z"/>
<path fill="#1D1E1C" d="M347.2,263.1c0.5,0.3,1,0.5,1.6,0.5c1,0,2-0.5,2.5-1.4c0.9-1.4,0.4-3.3-1-4.1l-30.3-18.9l8.5-72.9
	c0.2-1.6-1-3.1-2.6-3.3c-1.6-0.2-3.1,1-3.3,2.6l-8.7,74.8c-0.1,1.2,0.4,2.3,1.4,2.9L347.2,263.1z"/>
<path fill="#1D1E1C" d="M211.1,116.6c-4.4-2.8-9-5.4-13.7-7.6c-4.5-2.1-9.1-3.8-13.8-5.2c-1.3-0.4-2.7,0.3-3.1,1.7
	c-0.4,1.3,0.3,2.7,1.7,3.1c4.5,1.4,8.9,3,13.2,5c4.5,2.1,8.9,4.5,13.1,7.2c0.4,0.3,0.9,0.4,1.4,0.4c0.8,0,1.6-0.4,2.1-1.1
	C212.6,118.9,212.3,117.3,211.1,116.6z"/>
<path fill="#1D1E1C" d="M151.2,82.9c3,0.1,6,0.4,9,0.8c0.1,0,0.2,0,0.3,0c1.2,0,2.3-0.9,2.5-2.2c0.2-1.4-0.8-2.6-2.2-2.8
	c-3.1-0.4-6.3-0.7-9.4-0.8c-1.4-0.1-2.6,1-2.6,2.4S149.8,82.8,151.2,82.9z"/>
<path fill="#1D1E1C" d="M172.3,85.6c3.9,0.8,7.8,1.8,11.6,3c9.4,3,18.4,7.2,26.7,12.6c0.4,0.3,0.9,0.4,1.4,0.4
	c0.8,0,1.6-0.4,2.1-1.1c0.7-1.2,0.4-2.7-0.7-3.5c-8.7-5.6-18.1-10-27.9-13.2c-4-1.3-8.1-2.3-12.1-3.2c-1.4-0.3-2.7,0.6-2.9,1.9
	C170,84,170.9,85.3,172.3,85.6z"/>
<path fill="#FFFFFF" d="M129.2,372.2c-1.1,4.3,1.3,8.9,5.6,10.4c4.2,1.5,8.9-0.5,10.8-4.5L129.2,372.2z"/>
<polygon fill="#FFFFFF" points="156.6,293.9 175.1,300.5 169.3,287.5 "/>
<path fill="#FFFFFF" d="M174.6,305.6c-0.1,0-0.2-0.1-0.4-0.1l-21.6-7.7l-22,69.6l16.8,6L174.6,305.6z"/>
</svg>
