<?xml version="1.0" encoding="utf-8"?>
<!-- Generator: Adobe Illustrator 19.1.0, SVG Export Plug-In . SVG Version: 6.00 Build 0)  -->
<svg version="1.1" id="Layer_1" xmlns="http://www.w3.org/2000/svg" xmlns:xlink="http://www.w3.org/1999/xlink" x="0px" y="0px"
	 viewBox="0 0 512 512" enable-background="new 0 0 512 512" xml:space="preserve">
<path fill="#FCCB6A" d="M183.2,259.8c-8.2-7.6-15.5-16.1-21.8-25.2c-4.7-6.9-45.5-68.7-19.4-105.5c1.4-2,2.9-3.8,4.6-5.5
	c-8,4.5-25.7,14.5-32,30.7c-13.3,34.2,30.7,79.5,48.3,97.5c6.1,6.2,11.9,11.5,17.1,15.9C181.2,265.2,182.3,262.5,183.2,259.8
	C183.2,259.9,183.2,259.8,183.2,259.8z"/>
<path fill="#1D1D1B" d="M380.9,350.5c-4.3,5.3-9.2,10.2-14.4,14.6c-1,0.9-1.2,2.5-0.3,3.5c0.5,0.6,1.2,0.9,1.9,0.9
	c0.6,0,1.2-0.2,1.6-0.6c5.4-4.7,10.5-9.8,15-15.3c0.9-1.1,0.7-2.6-0.3-3.5C383.3,349.2,381.7,349.4,380.9,350.5z"/>
<path fill="#1D1D1B" d="M355.6,377c-0.9-1.1-2.4-1.3-3.5-0.4c-34.8,27.8-82.2,39.1-130.2,31.1c-1.4-0.2-2.7,0.7-2.9,2.1
	c-0.2,1.4,0.7,2.7,2.1,2.9c10.4,1.7,20.7,2.6,30.9,2.6c38.4,0,74.9-12.1,103.3-34.7C356.3,379.7,356.4,378.1,355.6,377z"/>
<path fill="#1D1D1B" d="M376.9,385c-7.9,8.8-17.5,16.1-28.5,21.7c-1.2,0.6-1.7,2.1-1.1,3.4c0.4,0.9,1.3,1.4,2.2,1.4
	c0.4,0,0.8-0.1,1.1-0.3c11.6-5.9,21.7-13.6,30-22.8c0.9-1,0.8-2.6-0.2-3.5S377.8,383.9,376.9,385z"/>
<path fill="#1D1D1B" d="M111.6,146c1.3,0,2.4-1,2.5-2.3c0.1-1.4-0.9-2.6-2.3-2.7l-17.4-1.2c-1.4-0.1-2.6,0.9-2.7,2.3
	c-0.1,1.4,0.9,2.6,2.3,2.7l17.4,1.2C111.4,146,111.5,146,111.6,146z"/>
<path fill="#1D1D1B" d="M118.2,133.4c0.5,0.6,1.2,0.9,1.9,0.9c0.6,0,1.2-0.2,1.6-0.6c1-0.9,1.1-2.5,0.2-3.5l-6.3-7.2
	c-0.9-1-2.5-1.1-3.5-0.2c-1,0.9-1.1,2.5-0.2,3.5L118.2,133.4z"/>
<path fill="#FFFFFF" d="M241.9,302.9c-3.9,1.1-7.9,2.1-12.1,2.8c-8.2,1.5-16.1,2.1-23.4,2.1c-18.3,0-33.6-3.9-44.5-7.8l-47.5,46.5
	c-5.2,5.1-9.6,10.9-13.1,17l104-19.9C210.7,332.1,227.4,315.8,241.9,302.9z"/>
<path fill="#FFFFFF" d="M283.3,271.2c-11.6-4.8-21.9-12.2-29.8-21.3c-0.6,1.6-1.2,3.2-1.9,4.7c-0.2,0.4-0.4,0.8-0.8,1.1
	c-5.7,5-15.2,11.6-28.5,14.1c-3.8,0.7-7.4,1-10.8,1c-7.8,0-14.4-1.6-19.1-3.1c-0.3-0.1-0.6-0.3-0.9-0.5c-1.2-1-2.4-1.9-3.5-2.9
	c-4,10.7-10.6,20.7-19.1,29l-3.1,3c14.7,5,36.8,9.4,63,4.6c27.1-5,46.7-17.7,58.7-27.9L283.3,271.2z"/>
<path fill="#3DBFEF" d="M373.1,312.3c-5.7-4.8-12.2-8.7-19.3-11.6L292.5,275c-0.1,0.2-0.3,0.5-0.5,0.6
	c-10.5,9.2-27.3,20.7-50.2,27.2c-14.5,12.9-31.1,29.2-36.7,40.8c-2,4.1-2.5,7.6-1.1,10.2c3.3,5.8,16.4,5.6,46-0.7
	C280.7,346.7,323.1,335,373.1,312.3z"/>
<path fill="#FFFFFF" d="M142.6,180.5c9.5-15,20.5-24.1,32.8-27.2c4.2-1,8.1-1.3,12.2-1.6c6.6-0.5,13.4-0.9,22-4.7
	c5.7-2.5,11-5.9,15.9-10.2c1.2-1.1,3.1-1,4.2,0.3c0.8,0.9,0.9,2.1,0.5,3.1c1.3,3.9,3.2,7,5.7,9.3c2.7,2.6,5.7,3.6,9.4,4.8
	c3.8,1.3,8.2,2.7,13.2,6.3c0.9,0.7,1.8,1.4,2.7,2.1c-0.9-20.9-5.7-42.6-20.2-49.8c-4.5-2.3-10-3-16.2-2.2c-0.5,0.1-1,0-1.5-0.2
	c-4.2-1.7-8.6-2.9-13.1-3.5c-12.2-1.7-21.6,1.3-27.2,3.1c-7.1,2.3-26,8.3-36.1,22.5C137.4,146,138.1,163.8,142.6,180.5z"/>
<path fill="#FFFFFF" d="M194.9,262c6.1,2,15.4,3.8,26.4,1.8c11.6-2.2,20-7.7,25.1-12.2c5.8-14.1,9.9-28.8,12.2-43.9
	c0.5-3.6,2.8-19.7,2.7-37.8c-1.8-1.9-3.7-3.6-5.8-5.1c-4.4-3.2-8.2-4.4-11.8-5.6c-4-1.3-7.7-2.6-11.3-6c-2.6-2.5-4.6-5.5-6.1-9.2
	c-4.4,3.5-9.2,6.4-14.3,8.6c-9.6,4.2-17.2,4.7-24,5.2c-3.9,0.3-7.5,0.5-11.2,1.4c-11.9,3-22.6,12.7-31.9,29.1
	c7.6,22.5,20.4,41.6,21.4,43C174.2,242.8,183.8,253.1,194.9,262z"/>
<path fill="#FFFFFF" d="M179.7,268.2l-31.6,36.9l16.6-16.2C170.9,282.8,176,275.7,179.7,268.2z"/>
<path fill="#1D1D1B" d="M161.8,300.1c10.8,3.9,26.2,7.8,44.5,7.8c7.4,0,15.2-0.6,23.4-2.1c4.2-0.8,8.3-1.7,12.1-2.8
	c22.8-6.5,39.6-18,50.2-27.2c0.2-0.2,0.4-0.4,0.5-0.6l61.3,25.6c7.1,3,13.6,6.9,19.3,11.6c0.4,0.3,0.7,0.6,1.1,0.9
	c0.6,0.5,1.3,0.7,2,0.7c0.8,0,1.7-0.4,2.3-1c1.1-1.3,0.9-3.1-0.3-4.2c-6.5-5.6-13.8-10.1-22-13.5L307,274.6l-21.4-8.9
	c-8-3.3-15.3-8-21.6-13.6c-2.2-2-4.4-4.2-6.3-6.5c-0.6-0.7-1.4-1-2.3-1c4.1-11.7,7.2-23.7,9-35.9c2.1-14.1,11.1-85-21-100.9
	c-5.4-2.7-11.8-3.7-18.8-2.9c-4.5-1.8-9.1-3-13.8-3.6c-13.5-1.9-24.1,1.5-29.8,3.3c-6.7,2.1-23.1,7.3-34.6,19.2
	c-1.6,1.7-3.2,3.5-4.6,5.5c-26.1,36.8,14.7,98.6,19.4,105.5c6.3,9.1,13.6,17.6,21.8,25.2c0,0,0,0,0,0c-0.9,2.7-2,5.3-3.2,7.9
	c-0.1,0.1-0.1,0.3-0.2,0.4c-3.7,7.6-8.8,14.6-15,20.7l-16.6,16.2l-38,37.2c-6.3,6.2-11.5,13.1-15.4,20.7c-0.8,1.5-0.2,3.3,1.3,4
	c0.4,0.2,0.9,0.3,1.4,0.3c1.1,0,2.1-0.6,2.7-1.6c0.4-0.7,0.8-1.4,1.2-2.1c3.5-6.2,7.9-11.9,13.1-17L161.8,300.1z M228.8,300.8
	c-26.2,4.8-48.4,0.3-63-4.6l3.1-3c8.5-8.3,15.1-18.3,19.1-29c1.2,1,2.3,2,3.5,2.9c0.3,0.2,0.6,0.4,0.9,0.5
	c4.7,1.6,11.3,3.1,19.1,3.1c3.4,0,7-0.3,10.8-1c13.3-2.5,22.9-9,28.5-14.1c0.3-0.3,0.6-0.7,0.8-1.1c0.7-1.6,1.3-3.1,1.9-4.7
	c7.9,9.1,18.2,16.5,29.8,21.3l4.2,1.7C275.5,283.1,255.9,295.8,228.8,300.8z M183,110.1c5.6-1.8,15-4.7,27.2-3.1
	c4.5,0.6,8.9,1.8,13.1,3.5c0.5,0.2,1,0.3,1.5,0.2c6.2-0.8,11.6,0,16.2,2.2c14.5,7.2,19.2,28.9,20.2,49.8c-0.9-0.7-1.7-1.4-2.7-2.1
	c-5-3.6-9.3-5-13.2-6.3c-3.7-1.2-6.7-2.2-9.4-4.8c-2.4-2.4-4.4-5.5-5.7-9.3c0.4-1,0.3-2.2-0.5-3.1c-1.1-1.2-3-1.4-4.2-0.3
	c-4.8,4.3-10.2,7.7-15.9,10.2c-8.6,3.8-15.4,4.2-22,4.7c-4.1,0.3-8,0.6-12.2,1.6c-12.3,3.1-23.3,12.2-32.8,27.2
	c-4.5-16.7-5.2-34.5,4.3-47.9C157,118.4,175.9,112.4,183,110.1z M176.8,159.2c3.6-0.9,7.3-1.2,11.2-1.4c6.8-0.5,14.4-1,24-5.2
	c5-2.2,9.8-5.1,14.3-8.6c1.5,3.7,3.6,6.8,6.1,9.2c3.6,3.4,7.3,4.7,11.3,6c3.7,1.2,7.4,2.5,11.8,5.6c2.1,1.5,4,3.2,5.8,5.1
	c0.1,18.1-2.1,34.2-2.7,37.8c-2.3,15.1-6.4,29.8-12.2,43.9c-5.1,4.5-13.5,10-25.1,12.2c-10.9,2-20.3,0.2-26.4-1.8
	c-11.1-8.9-20.7-19.3-28.5-30.8c-1-1.4-13.8-20.5-21.4-43C154.2,171.9,164.9,162.1,176.8,159.2z"/>
<path fill="#FFFFFF" d="M307,274.6L264.1,252c6.2,5.6,13.5,10.3,21.6,13.6L307,274.6z"/>
<path fill="#1D1D1B" d="M316,89c-1.3-0.5-2.7,0.1-3.3,1.4c-0.5,1.3,0.1,2.7,1.4,3.3C374,118.1,414,175.9,416,240.5
	c0,1.4,1.2,2.5,2.5,2.5c0,0,0.1,0,0.1,0c1.4,0,2.5-1.3,2.4-2.7C418.9,173.7,377.7,114.3,316,89z"/>
<path fill="#1D1D1B" d="M263,81.8c11.1,0.8,22.2,2.6,32.8,5.6c0.2,0.1,0.4,0.1,0.7,0.1c1.1,0,2.1-0.7,2.4-1.8
	c0.4-1.3-0.4-2.7-1.7-3.1c-11-3-22.3-5-33.8-5.8c-1.4-0.1-2.6,0.9-2.7,2.3C260.6,80.5,261.7,81.7,263,81.8z"/>
</svg>
