<svg xmlns="http://www.w3.org/2000/svg" viewBox="0 0 512 512"><path fill="#8DBDFF" d="M-2731.2 216.1l-255.8 225 511.7-1.5z"/><path fill="#3B7DD8" d="M-2731.4 330.6l-255.8-225.1 511.7 1.6z"/><path fill="#4A91F2" d="M-2987.2 105.5v335.6l190.8-167.6zM-2475 441.1V105.5l-190.8 167.7z"/><circle fill="#FFF" cx="-2731.3" cy="268" r="76.2"/><g fill="#FFA500"><path d="M-2761.4 291.6c17.8.4 24.8-8.7 24.8-8.7 13.7-14.1 1.6-26 1.6-26-10.7-9.3-21.1.2-21.1.2-4.9 11.8 4.1 13.9 4.1 13.9 8 2.3 9.8-3.1 9.8-3.1 2.5-5.8-4.1-7.7-4.1-7.7 6.9.3 7.4 4.4 7.4 4.4 2.7 8.4-5.5 10-5.5 10-21.6 3.9-17.2-16.2-17.2-16.2 10.5-15.9 26.6-6.1 26.6-6.1 21.9 16.2-1.5 36.2-1.5 36.2 2.9 3.1 13.9 3 13.9 3 13.7-1.7 15.7-10.8 15.7-10.8 1-37.6-30.1-45.4-30.1-45.4-41.3-5.8-44.8 27.7-44.8 27.7-.9 25.2 20.4 28.6 20.4 28.6z"/><path d="M-2680 232.4c-2.4 0-4.4 1.8-4.4 4 0 .2 0 .4.1.6-1.7 1.9-7.8 10.1-4.7 25 0 0-1.5 1.5-3.8.8l-3.6-1.7s-1.3-19.4-.9-20.9c0 0 .9-4.5 2.9-5.9.8.7 1.8 1.1 3 1.1 2.4 0 4.4-1.8 4.4-4s-2-4-4.4-4c-1.9 0-3.5 1.1-4.1 2.6-1.6.9-6.3 4.2-6.4 13.5l.9 17.4s-1.5 7.5-2 7.6c0 0 3.7 20.4-8.6 23.6 0 0-11.2 7.6-28.4-1.3 0 0-8.5 4.9-13.8 4.5 0 0-8.1 2.3-12-.1 0 0-9.6 1.3-21.1 13.5h79.8s19.8-.1 24.1-27.6c0 0 .6-16.7-1.7-21.2 0 0-2.1-13.8 3.7-19.5.4.1.8.1 1.2.1 2.4 0 4.4-1.8 4.4-4-.2-2.3-2.1-4.1-4.6-4.1z"/></g><path fill="#8DBDFF" d="M-3300 213.3l-255.8 225.1 511.7-1.6z"/><path fill="#3B7DD8" d="M-3300.3 327.8L-3556 102.7l511.7 1.6z"/><path fill="#4A91F2" d="M-3556 102.7v335.7l190.8-167.7zM-3043.8 438.4V102.7l-190.8 167.7z"/><circle fill="#FFF" cx="-3300.1" cy="265.2" r="76.2"/><circle fill="none" stroke="#3B7DD8" stroke-width="2" stroke-miterlimit="10" cx="-3300.1" cy="265" r="76.2"/><g fill="#FFA500"><path d="M-3326 287.1c17.8.4 24.8-8.7 24.8-8.7 13.7-14.1 1.6-26 1.6-26-10.7-9.3-21.1.2-21.1.2-4.9 11.8 4.1 13.9 4.1 13.9 8 2.3 9.8-3.1 9.8-3.1 2.5-5.8-4.1-7.7-4.1-7.7 6.9.3 7.4 4.4 7.4 4.4 2.7 8.4-5.5 10-5.5 10-21.6 3.9-17.2-16.2-17.2-16.2 10.5-15.9 26.6-6.1 26.6-6.1 21.9 16.2-1.5 36.2-1.5 36.2 2.9 3.1 13.9 3 13.9 3 13.7-1.7 15.7-10.8 15.7-10.8 1-37.6-30.1-45.4-30.1-45.4-41.3-5.8-44.8 27.7-44.8 27.7-.9 25.2 20.4 28.6 20.4 28.6z"/><path d="M-3244.6 227.9c-2.4 0-4.4 1.8-4.4 4 0 .2 0 .4.1.6-1.7 1.9-7.8 10.1-4.7 25 0 0-1.5 1.5-3.8.8l-3.5-1.7s-1.3-19.4-.9-20.9c0 0 .9-4.5 2.9-5.9.8.7 1.8 1.1 3 1.1 2.4 0 4.4-1.8 4.4-4s-2-4-4.4-4c-1.9 0-3.5 1.1-4.1 2.6-1.6.9-6.3 4.2-6.4 13.5l.9 17.4s-1.5 7.5-2 7.6c0 0 3.7 20.4-8.6 23.6 0 0-11.2 7.6-28.4-1.3 0 0-8.5 4.9-13.8 4.5 0 0-8.1 2.3-12-.1 0 0-9.6 1.3-21.1 13.5h79.8s19.8-.1 24.1-27.6c0 0 .6-16.7-1.7-21.2 0 0-2.1-13.8 3.7-19.5.4.1.8.1 1.2.1 2.4 0 4.4-1.8 4.4-4-.3-2.2-2.3-4.1-4.7-4.1z"/></g><path fill="#8DBDFF" d="M-3221 829.7l-176.7 155.6 353.6-1.1z"/><path fill="#3B7DD8" d="M-3221.1 908.9l-176.8-155.5 353.6 1z"/><path fill="#4A91F2" d="M-3397.9 753.4v231.9l131.9-115.9zM-3043.9 985.3v-232l-131.9 115.9z"/><g fill="#FFA500"><path d="M-3470.6 927.4c59.1 1.4 82.6-28.8 82.6-28.8 45.5-46.9 5.2-86.6 5.2-86.6-35.6-30.8-70.1.5-70.1.5-16.2 39.3 13.6 46.3 13.6 46.3 26.7 7.5 32.4-10.4 32.4-10.4 8.4-19.4-13.6-25.6-13.6-25.6 23 .9 24.6 14.6 24.6 14.6 8.9 28-18.3 33.1-18.3 33.1-71.7 12.8-57.1-54-57.1-54 35.1-53 88.4-20.3 88.4-20.3 72.7 54-4.9 120.5-4.9 120.5 9.8 10.3 46.1 10.1 46.1 10.1 45.5-5.6 52.3-36 52.3-36 3.2-124.9-99.9-150.9-99.9-150.9-137.4-19.2-148.9 92-148.9 92-3.1 84.2 67.6 95.5 67.6 95.5z"/><path d="M-3199.8 730.5c-8.1 0-14.8 5.9-14.8 13.3 0 .7.1 1.4.3 2-5.5 6.4-25.8 33.7-15.6 83.1 0 0-5.1 5-12.5 2.8l-11.8-5.6s-4.3-64.6-3.1-69.6c0 0 2.9-14.9 9.5-19.6 2.6 2.2 6.1 3.5 9.9 3.5 8.1 0 14.8-5.9 14.8-13.3 0-7.3-6.6-13.3-14.7-13.3-6.3 0-11.6 3.6-13.8 8.6-5.4 2.9-20.8 13.8-21.4 45l3.1 57.9s-5.1 24.8-6.7 25.2c0 0 12.2 67.8-28.6 78.4 0 0-37.3 25.2-94.6-4.3 0 0-28.2 16.4-45.9 14.9 0 0-27.1 7.7-40-.4 0 0-31.8 4.4-70.2 45h265.3s65.9-.3 80-91.8c0 0 2-55.5-5.5-70.4 0 0-7.1-45.8 12.3-64.9 1.3.3 2.6.3 4 .3 8.1 0 14.7-6.1 14.7-13.4 0-7.3-6.6-13.4-14.7-13.4z"/></g><path fill="#8DBDFF" d="M-4264.8 816.9l-157.4 138.5 314.9-1z"/><path fill="#9DC9FC" d="M-4265 887.4l-157.4-138.6 314.9 1z"/><path fill="#69A5ED" d="M-4422.4 748.8v206.6l117.4-103.2zM-4107.2 955.4V748.8L-4224.6 852z"/><g fill="#FFA500"><path d="M-4205.6 896.6c60.2 1.5 84.1-29.3 84.1-29.3 46.3-47.7 5.3-88.2 5.3-88.2-36.2-31.3-71.4.5-71.4.5-16.5 40 13.9 47.2 13.9 47.2 27.2 7.7 33-10.6 33-10.6 8.6-19.8-13.9-26-13.9-26 23.4 1 25 14.9 25 14.9 9.1 28.5-18.7 33.7-18.7 33.7-73 13-58.1-54.9-58.1-54.9 35.7-54 90-20.7 90-20.7 74 54.9-4.9 122.7-4.9 122.7 10 10.5 47 10.2 47 10.2 46.3-5.8 53.2-36.6 53.2-36.6 3.2-127.2-101.7-153.6-101.7-153.6-139.9-19.5-151.6 93.6-151.6 93.6-3.2 85.6 68.8 97.1 68.8 97.1z"/><path d="M-3930 696.2c-8.3 0-15 6-15 13.6 0 .7.1 1.4.3 2.1-5.6 6.5-26.2 34.4-15.9 84.6 0 0-5.2 5.1-12.8 2.9l-12-5.8s-4.3-65.8-3.2-70.9c0 0 2.9-15.2 9.7-20 2.7 2.2 6.2 3.6 10.1 3.6 8.3 0 15-6 15-13.6 0-7.4-6.7-13.6-15-13.6-6.4 0-11.8 3.7-14 8.8-5.5 2.9-21.2 14.1-21.7 45.9l3.2 58.9s-5.2 25.3-6.8 25.7c0 0 12.4 69-29.1 79.8 0 0-38 25.7-96.3-4.3 0 0-28.8 16.7-46.7 15.2 0 0-27.6 7.9-40.8-.4 0 0-32.4 4.5-71.5 45.8h270.1s67.1-.3 81.5-93.5c0 0 2-56.5-5.6-71.7 0 0-7.2-46.6 12.5-66.1 1.3.3 2.7.3 4.1.3 8.3 0 15-6.2 15-13.6-.1-7.5-6.8-13.7-15.1-13.7z"/></g><path fill="#8DBDFF" d="M-2496.2 1042.8l-460.7 1.2 171.2-133.5h118.5z"/><path fill="#3B7DD8" d="M-2726.9 596.8l-230.2 179.6 460.8-.1z"/><path fill="#4A91F2" d="M-2957.2 776.3V1044l171.8-133.7zM-2496 1044V776.3L-2667.8 910z"/><path fill="#65A2EA" d="M-2957.2 776.3l171.8 134 117.6-.3 171.8-133.7z"/><path fill="#F4F4F4" d="M-2883.1 799.7V648.5h316.7v151.2l-112.7 87h-90.2z"/><g fill="#FFA500"><path d="M-2784.4 786.9c35.2.9 49.2-17.2 49.2-17.2 27.1-27.9 3.1-51.6 3.1-51.6-21.2-18.3-41.8.3-41.8.3-9.7 23.4 8.1 27.6 8.1 27.6 15.9 4.5 19.3-6.2 19.3-6.2 5-11.6-8.1-15.2-8.1-15.2 13.7.6 14.6 8.7 14.6 8.7 5.3 16.6-10.9 19.7-10.9 19.7-42.7 7.6-34-32.1-34-32.1 20.9-31.6 52.7-12.1 52.7-12.1 43.3 32.1-2.9 71.8-2.9 71.8 5.8 6.1 27.5 6 27.5 6 27.1-3.4 31.1-21.4 31.1-21.4 1.9-74.4-59.5-89.9-59.5-89.9-81.8-11.4-88.7 54.8-88.7 54.8-1.7 50 40.3 56.8 40.3 56.8z"/><path d="M-2623.1 669.6c-4.8 0-8.8 3.5-8.8 7.9 0 .4.1.8.2 1.2-3.3 3.8-15.4 20.1-9.3 49.5 0 0-3.1 3-7.5 1.7l-7-3.4s-2.5-38.5-1.9-41.4c0 0 1.7-8.9 5.6-11.7 1.6 1.3 3.6 2.1 5.9 2.1 4.8 0 8.8-3.5 8.8-7.9s-3.9-7.9-8.8-7.9c-3.8 0-6.9 2.2-8.2 5.1-3.2 1.7-12.4 8.2-12.7 26.8l1.9 34.5s-3 14.8-4 15c0 0 7.2 40.4-17 46.7 0 0-22.2 15-56.3-2.5 0 0-16.8 9.7-27.3 8.9 0 0-16.1 4.6-23.9-.3 0 0-18.9 2.6-41.8 26.8h158s39.2-.2 47.7-54.7c0 0 1.2-33-3.3-41.9 0 0-4.2-27.3 7.3-38.6.8.2 1.6.2 2.4.2 4.8 0 8.8-3.6 8.8-8s-4-8.1-8.8-8.1z"/></g><path fill="#8DBDFF" d="M-1953.8 1044.7l-452.4 1.2c-1.4 0-2-1.7-.9-2.6l167.6-133.1c.3-.2.6-.3.9-.3h117.5c.3 0 .6.1.9.3l167.3 131.8c1 .9.4 2.7-.9 2.7z"/><path fill="#4A91F2" d="M-2409.6 778.5v260.9c0 2.7 3 4.2 5.1 2.5l163.5-130.4c1.6-1.3 1.6-3.8 0-5.1L-2404.5 776c-2.1-1.7-5.1-.1-5.1 2.5zM-1951.9 1041.9V778c0-2.5-2.7-3.9-4.6-2.3l-161.8 131.8c-1.5 1.2-1.5 3.5 0 4.7l161.8 132c1.9 1.5 4.6.1 4.6-2.3z"/><path fill="#3B7DD8" d="M-2194.1 608.5L-2409 775.1c-1.4 1.1-.6 3.2 1.1 3.2h452.9c1.7 0 2.5-2.2 1.1-3.2l-215.2-166.6c-7.3-5.7-17.6-5.7-25 0z"/><path fill="#65A2EA" d="M-2408.5 781.6l168.2 130.2c.3.3.8.4 1.2.4l117.2-.2c.4 0 .8-.1 1.2-.4l168.2-130c1.4-1.1.6-3.4-1.2-3.4h-453.7c-1.7 0-2.5 2.3-1.1 3.4z"/><path fill="#F4F4F4" d="M-2336.5 787.3V679.4c0-16 13-29 29-29h258.7c16 0 29 13 29 29v108c0 9-4.2 17.5-11.3 23l-93.6 72.2c-5.1 3.9-11.3 6-17.7 6h-70.5c-6.4 0-12.6-2.1-17.6-6l-94.6-72.3c-7.2-5.4-11.4-14-11.4-23z"/><g fill="#FFA500"><path d="M-2233.6 803.5c32.7.8 45.8-16 45.8-16 25.2-25.9 2.9-48 2.9-48-19.7-17-38.8.3-38.8.3-9 21.7 7.5 25.7 7.5 25.7 14.8 4.2 18-5.8 18-5.8 4.7-10.7-7.5-14.2-7.5-14.2 12.8.5 13.6 8.1 13.6 8.1 4.9 15.5-10.1 18.3-10.1 18.3-39.7 7.1-31.6-29.9-31.6-29.9 19.4-29.4 49-11.3 49-11.3 40.3 29.9-2.7 66.7-2.7 66.7 5.4 5.7 25.5 5.6 25.5 5.6 25.2-3.1 29-19.9 29-19.9 1.8-69.2-55.3-83.6-55.3-83.6-76.1-10.6-82.4 50.9-82.4 50.9-2 46.9 37.1 53.1 37.1 53.1z"/><path d="M-2083.7 694.5c-4.5 0-8.2 3.3-8.2 7.4 0 .4.1.8.2 1.1-3 3.5-14.3 18.7-8.6 46 0 0-2.8 2.8-6.9 1.6l-6.5-3.1s-2.4-35.8-1.7-38.5c0 0 1.6-8.3 5.3-10.9 1.4 1.2 3.4 2 5.5 2 4.5 0 8.2-3.3 8.2-7.4 0-4.1-3.6-7.4-8.1-7.4-3.5 0-6.4 2-7.6 4.8-3 1.6-11.5 7.7-11.8 24.9l1.7 32s-2.8 13.8-3.7 14c0 0 6.7 37.5-15.8 43.4 0 0-20.7 14-52.4-2.4 0 0-15.6 9.1-25.4 8.3 0 0-15 4.3-22.2-.2 0 0-17.6 2.4-38.9 24.9h146.9s36.5-.2 44.3-50.8c0 0 1.1-30.7-3-39 0 0-3.9-25.3 6.8-35.9.7.2 1.4.2 2.2.2 4.5 0 8.1-3.4 8.1-7.4-.2-4.2-3.9-7.6-8.4-7.6z"/></g><path fill="#C0E4FF" d="M-3577.7 1421l-255.8 225.1 511.7-1.6z"/><path fill="#50ACFF" d="M-3577.9 1535.6l-255.8-225.1 511.7 1.5z"/><path fill="#76C4FF" d="M-3833.7 1310.5v335.6l190.8-167.7z"/><path fill="#99D8FF" d="M-3321.5 1646.1v-335.6l-190.8 167.7z"/><circle fill="#FFF" cx="-3577.6" cy="1479.1" r="143.5"/><circle fill="none" stroke="#3B7DD8" stroke-width="2" stroke-miterlimit="10" cx="-3577.6" cy="1478.8" r="144.3"/><g fill="#007CFF"><path d="M-3638.5 1522.4c36.6.9 51.1-17.8 51.1-17.8 28.1-29 3.2-53.6 3.2-53.6-22-19-43.4.3-43.4.3-10 24.3 8.4 28.7 8.4 28.7 16.5 4.7 20.1-6.5 20.1-6.5 5.2-12-8.4-15.8-8.4-15.8 14.2.6 15.2 9.1 15.2 9.1 5.5 17.3-11.3 20.5-11.3 20.5-44.4 7.9-35.3-33.4-35.3-33.4 21.7-32.8 54.7-12.6 54.7-12.6 45 33.4-3 74.6-3 74.6 6 6.4 28.5 6.2 28.5 6.2 28.1-3.5 32.3-22.3 32.3-22.3 2-77.3-61.8-93.4-61.8-93.4-85-11.9-92.1 56.9-92.1 56.9-2 52.1 41.8 59.1 41.8 59.1z"/><path d="M-3471 1400.6c-5 0-9.1 3.7-9.1 8.2 0 .4.1.9.2 1.3-3.4 3.9-15.9 20.9-9.6 51.4 0 0-3.2 3.1-7.8 1.7l-7.3-3.5s-2.6-40-1.9-43.1c0 0 1.8-9.2 5.9-12.1 1.6 1.3 3.8 2.2 6.1 2.2 5 0 9.1-3.7 9.1-8.2 0-4.5-4.1-8.2-9.1-8.2-3.9 0-7.2 2.2-8.5 5.3-3.4 1.8-12.9 8.6-13.2 27.9l1.9 35.8s-3.1 15.4-4.1 15.6c0 0 7.5 41.9-17.7 48.5 0 0-23.1 15.6-58.5-2.6 0 0-17.5 10.1-28.4 9.2 0 0-16.8 4.8-24.8-.3 0 0-19.7 2.7-43.5 27.8h164.1s40.8-.2 49.5-56.8c0 0 1.2-34.3-3.4-43.5 0 0-4.4-28.3 7.6-40.1.8.2 1.6.2 2.5.2 5 0 9.1-3.8 9.1-8.3s-4.1-8.4-9.1-8.4z"/></g><path fill="#C0E4FF" d="M-3567.5 1847l-255.7 225.1 511.7-1.6z"/><path fill="#50ACFF" d="M-3567.7 1961.5l-255.8-225 511.7 1.5z"/><path fill="#76C4FF" d="M-3823.5 1736.5v335.6l190.8-167.7z"/><path fill="#99D8FF" d="M-3311.3 2072.1v-335.6l-190.8 167.6z"/><circle fill="#FFF" cx="-3567.4" cy="1905.1" r="143.5"/><g fill="#007CFF"><path d="M-3625.3 1946c34.8.9 48.7-17 48.7-17 26.8-27.6 3.1-51 3.1-51-20.9-18.1-41.3.3-41.3.3-9.6 23.1 8 27.3 8 27.3 15.7 4.4 19.1-6.1 19.1-6.1 4.9-11.4-8-15.1-8-15.1 13.6.6 14.5 8.6 14.5 8.6 5.2 16.5-10.8 19.5-10.8 19.5-42.2 7.5-33.6-31.8-33.6-31.8 20.6-31.2 52.1-12 52.1-12 42.8 31.8-2.9 71-2.9 71 5.8 6.1 27.2 5.9 27.2 5.9 26.8-3.3 30.8-21.2 30.8-21.2 1.9-73.6-58.8-88.9-58.8-88.9-80.9-11.3-87.7 54.2-87.7 54.2-2 49.7 39.6 56.3 39.6 56.3z"/><path d="M-3465.9 1830.1c-4.8 0-8.7 3.5-8.7 7.8 0 .4.1.8.2 1.2-3.2 3.8-15.2 19.9-9.2 48.9 0 0-3 2.9-7.4 1.7l-7-3.3s-2.5-38-1.8-41c0 0 1.7-8.8 5.6-11.6 1.5 1.3 3.6 2.1 5.8 2.1 4.8 0 8.7-3.5 8.7-7.8s-3.9-7.8-8.7-7.8c-3.7 0-6.8 2.1-8.1 5.1-3.2 1.7-12.2 8.1-12.6 26.5l1.8 34.1s-3 14.6-3.9 14.8c0 0 7.2 39.9-16.8 46.2 0 0-22 14.8-55.7-2.5 0 0-16.6 9.6-27 8.8 0 0-15.9 4.6-23.6-.3 0 0-18.7 2.6-41.4 26.5h156.2s38.8-.2 47.1-54.1c0 0 1.2-32.7-3.2-41.4 0 0-4.2-26.9 7.2-38.2.8.2 1.5.2 2.3.2 4.8 0 8.7-3.6 8.7-7.9s-3.7-8-8.5-8z"/></g><path opacity=".05" fill="#020202" d="M-3567.6 1761.6c79.3 0 143.5 64.2 143.5 143.5s-64.2 143.5-143.5 143.5"/><path fill="#C0E4FF" d="M-2992.7 1845.1l-255.7 225 511.7-1.5z"/><path fill="#50ACFF" d="M-2992.9 1959.6l-255.8-225.1 511.7 1.6z"/><path fill="#76C4FF" d="M-3248.7 1734.5v335.6l190.8-167.6z"/><path fill="#99D8FF" d="M-2736.5 2070.1v-335.6l-190.8 167.7z"/><path fill="#FFF" d="M-2849.1 1903.1c0 5.5-.3 11-.9 16.3-5.6 49.2-36 90.8-78.4 112.1-7.4 3.7-15.2 6.8-23.2 9.2-7.2 2.2-14.7 3.8-22.4 4.7-6.1.8-12.3 1.2-18.6 1.2-61.7 0-114.4-39-134.6-93.7-2.8-7.7-5-15.7-6.5-23.9-1.5-8.4-2.3-17.1-2.3-25.9v-2.7c1-54.9 32.9-102.3 78.9-125.5 6.6-3.3 13.5-6.2 20.6-8.4 6.5-2.1 13.2-3.7 20-4.9 7.8-1.3 15.8-2 23.9-2 66.5 0 122.5 45.3 138.7 106.7 2 7.7 3.4 15.6 4.2 23.8.4 4.3.6 8.6.6 13z"/><g fill="#0079DD"><path d="M-3050.5 1944.1c34.8.9 48.7-17 48.7-17 26.8-27.6 3.1-51 3.1-51-20.9-18.1-41.3.3-41.3.3-9.6 23.1 8 27.3 8 27.3 15.7 4.4 19.1-6.1 19.1-6.1 4.9-11.4-8-15.1-8-15.1 13.6.6 14.5 8.6 14.5 8.6 5.2 16.5-10.8 19.5-10.8 19.5-42.2 7.5-33.6-31.8-33.6-31.8 20.6-31.2 52.1-12 52.1-12 42.8 31.8-2.9 71-2.9 71 5.8 6.1 27.2 5.9 27.2 5.9 26.8-3.3 30.8-21.2 30.8-21.2 1.9-73.6-58.8-88.9-58.8-88.9-80.9-11.3-87.7 54.2-87.7 54.2-2 49.6 39.6 56.3 39.6 56.3z"/><path d="M-2891.1 1828.2c-4.8 0-8.7 3.5-8.7 7.8 0 .4.1.8.2 1.2-3.2 3.8-15.2 19.9-9.2 48.9 0 0-3 2.9-7.4 1.7l-7-3.3s-2.5-38-1.8-41c0 0 1.7-8.8 5.6-11.6 1.5 1.3 3.6 2.1 5.8 2.1 4.8 0 8.7-3.5 8.7-7.8s-3.9-7.8-8.7-7.8c-3.7 0-6.8 2.1-8.1 5.1-3.2 1.7-12.2 8.1-12.6 26.5l1.8 34.1s-3 14.6-3.9 14.8c0 0 7.2 39.9-16.8 46.2 0 0-22 14.8-55.7-2.5 0 0-16.6 9.6-27 8.8 0 0-15.9 4.6-23.6-.3 0 0-18.7 2.6-41.4 26.5h156.2s38.8-.2 47.1-54.1c0 0 1.2-32.7-3.2-41.4 0 0-4.2-26.9 7.2-38.2.8.2 1.5.2 2.3.2 4.8 0 8.7-3.6 8.7-7.9s-3.7-8-8.5-8z"/></g><path opacity=".05" fill="#020202" d="M-2928.4 2031.5c2-17.4 7.2-34.6 15.9-51 14.6-27.4 36.7-48.1 62.5-61-5.6 49.1-36 90.8-78.4 112z"/><path opacity=".05" fill="#020202" d="M-2901.3 2133l-1.3 2.4c-.8-.4-1.6-.9-2.4-1.3 4.2 3.8 8.7 7.4 13.4 10.7-3.5-3.8-6.7-7.8-9.7-11.8zm51.6-242.9c-17.1 5.1-33.3 13.4-47.6 24.6-15.3 12-28.4 27.3-38.2 45.6-3 5.6-5.5 11.3-7.7 17.1-7.7 20.7-10.4 42.3-8.5 63.3 8.1-2.4 15.8-5.5 23.2-9.2 42.4-21.2 72.8-62.9 78.4-112.1.6-5.4.9-10.8.9-16.3.1-4.4-.1-8.7-.5-13z"/><path opacity=".03" fill="#020202" d="M-2849.1 1903.1c0 5.5-.3 11-.9 16.3-5.6 49.2-36 90.8-78.4 112.1-7.4 3.7-15.2 6.8-23.2 9.2-7.2 2.2-14.7 3.8-22.4 4.7-5.8-21.9-6.5-45.2-1.4-67.9 2.1-9.3 5.1-18.6 9.2-27.6 1.3-2.9 2.7-5.8 4.2-8.6.1-.3.3-.6.4-.8 5.1-9.4 11.1-18 17.8-25.8 2.7-3.1 5.4-6 8.3-8.8 6.9-6.7 14.3-12.6 22.3-17.7 1.4-.9 2.8-1.8 4.2-2.6 2.7-1.6 5.4-3.1 8.1-4.5 14.7-7.5 30.6-12.5 47-14.6 2 7.7 3.4 15.6 4.2 23.8.4 4.1.6 8.4.6 12.8z"/><path opacity=".05" fill="#020202" d="M-3057.1 1774.9c-.4 21.9-5.8 44-16.8 64.7-14.5 27.3-36.5 48-62.2 60.9 1-55 32.9-102.3 79-125.6zM-3085.1 1687.1c-3-4.1-6.3-8-9.7-11.8 4.7 3.3 9.2 6.9 13.4 10.7-.8-.4-1.6-.9-2.4-1.3l-1.3 2.4z"/><path opacity=".05" fill="#020202" d="M-3040.4 1834.4c-2.6 8.6-6.1 17.1-10.5 25.3-9.7 18.2-22.7 33.5-38 45.5-13.5 10.6-28.7 18.6-44.8 23.8-1.5-8.4-2.3-17.1-2.3-25.9v-2.7c1-54.9 32.9-102.3 78.9-125.5 6.6-3.3 13.5-6.2 20.6-8.4 4.1 22.2 3 45.5-3.9 67.9z"/><path opacity=".03" fill="#020202" d="M-3009.2 1832.9c-1.4 9.5-3.9 19-7.3 28.3-.9 2.3-1.8 4.6-2.8 6.9-1.5 3.6-3.2 7.1-5.1 10.6-4.1 7.7-8.8 14.8-13.9 21.4-1.7 2.2-3.6 4.4-5.4 6.5-8.9 10-19 18.7-30.1 25.7-16.3 10.4-34.5 17.4-53.5 20.6-2.8-7.7-5-15.7-6.5-23.9-1.5-8.4-2.3-17.1-2.3-25.9v-2.7c1-54.9 32.9-102.3 78.9-125.5 6.6-3.3 13.5-6.2 20.6-8.4 6.5-2.1 13.2-3.7 20-4.9 8.4 22.5 11.1 47.1 7.4 71.3z"/><path fill="#C0E4FF" d="M-2999.7 1419.1l-255.7 225.1 511.6-1.6z"/><path fill="#50ACFF" d="M-2999.9 1533.7l-255.8-225.1 511.7 1.6z"/><path fill="#76C4FF" d="M-3255.7 1308.6v335.6l190.8-167.7z"/><path fill="#99D8FF" d="M-2743.5 1644.2v-335.6l-190.8 167.7z"/><g fill="#007CFF"><circle cx="-2999.6" cy="1477.2" r="143.5"/><circle cx="-2999.6" cy="1476.9" r="144.3"/></g><g fill="#2799FF"><circle cx="-2999.2" cy="1477.2" r="120.6"/><circle cx="-2999.2" cy="1476.9" r="121.3"/></g><g fill="#48B1FF"><circle cx="-2999.3" cy="1477.4" r="94.9"/><circle cx="-2999.3" cy="1477.2" r="95.4"/></g><g fill="#FFF"><path d="M-3060.5 1520.5c36.6.9 51.1-17.8 51.1-17.8 28.1-29 3.2-53.6 3.2-53.6-22-19-43.4.3-43.4.3-10 24.3 8.4 28.7 8.4 28.7 16.5 4.7 20.1-6.5 20.1-6.5 5.2-12-8.4-15.8-8.4-15.8 14.2.6 15.2 9.1 15.2 9.1 5.5 17.3-11.3 20.5-11.3 20.5-44.4 7.9-35.3-33.4-35.3-33.4 21.7-32.8 54.7-12.6 54.7-12.6 45 33.4-3 74.6-3 74.6 6 6.4 28.5 6.2 28.5 6.2 28.1-3.5 32.3-22.3 32.3-22.3 2-77.3-61.8-93.4-61.8-93.4-85-11.9-92.1 56.9-92.1 56.9-1.9 52.1 41.8 59.1 41.8 59.1z"/><path d="M-2893 1398.7c-5 0-9.1 3.7-9.1 8.2 0 .4.1.9.2 1.3-3.4 3.9-15.9 20.9-9.6 51.4 0 0-3.2 3.1-7.8 1.7l-7.3-3.5s-2.6-40-1.9-43.1c0 0 1.8-9.2 5.9-12.1 1.6 1.3 3.8 2.2 6.1 2.2 5 0 9.1-3.7 9.1-8.2 0-4.5-4.1-8.2-9.1-8.2-3.9 0-7.2 2.2-8.5 5.3-3.4 1.8-12.9 8.6-13.2 27.9l1.9 35.8s-3.1 15.4-4.1 15.6c0 0 7.5 41.9-17.7 48.5 0 0-23.1 15.6-58.5-2.6 0 0-17.5 10.1-28.4 9.2 0 0-16.8 4.8-24.8-.3 0 0-19.7 2.7-43.5 27.8h164.1s40.8-.2 49.5-56.8c0 0 1.2-34.3-3.4-43.5 0 0-4.4-28.3 7.6-40.1.8.2 1.6.2 2.5.2 5 0 9.1-3.8 9.1-8.3s-4.1-8.4-9.1-8.4z"/></g><path fill="#3DABFC" d="M-4448.2 1316.2h510.7v334.3h-510.7z"/><path opacity=".33" fill="#0092FF" d="M-4448.1 1315.1h38.7v334.3h-38.7zM-3936 1315.8v14.6h-38.7v-14.6zM-3974.7 1368l38.7-11.5v293.6h-38.7zM-4409.3 1611.9h434.6v38.7h-434.6z"/><path fill="#0092FF" d="M-4193.1 1393.2l-255.7-77.1 511.7.6z"/><path opacity=".33" fill="#0092FF" d="M-3936 1330.4v26.1l-38.7 11.5v-37.6zM-3974.7 1330.4v37.6l-218.2 65-216.5-65v-38.1z"/><g fill="#FFF"><path d="M-4261.1 1569.5c36.6.9 51.1-17.8 51.1-17.8 28.1-29 3.2-53.6 3.2-53.6-22-19-43.4.3-43.4.3-10 24.3 8.4 28.7 8.4 28.7 16.5 4.7 20.1-6.5 20.1-6.5 5.2-12-8.4-15.8-8.4-15.8 14.2.6 15.2 9.1 15.2 9.1 5.5 17.3-11.3 20.5-11.3 20.5-44.4 7.9-35.3-33.4-35.3-33.4 21.7-32.8 54.7-12.6 54.7-12.6 45 33.4-3 74.6-3 74.6 6 6.4 28.5 6.2 28.5 6.2 28.1-3.5 32.3-22.3 32.3-22.3 2-77.3-61.8-93.4-61.8-93.4-85-11.9-92.1 56.9-92.1 56.9-1.9 52.2 41.8 59.1 41.8 59.1z"/><path d="M-4093.5 1447.8c-5 0-9.1 3.7-9.1 8.2 0 .4.1.9.2 1.3-3.4 3.9-15.9 20.9-9.6 51.4 0 0-3.2 3.1-7.8 1.7l-7.3-3.5s-2.6-40-1.9-43.1c0 0 1.8-9.2 5.9-12.1 1.6 1.3 3.8 2.2 6.1 2.2 5 0 9.1-3.7 9.1-8.2 0-4.5-4.1-8.2-9.1-8.2-3.9 0-7.2 2.2-8.5 5.3-3.4 1.8-12.9 8.6-13.2 27.9l1.9 35.8s-3.1 15.4-4.1 15.6c0 0 7.5 41.9-17.7 48.5 0 0-23.1 15.6-58.5-2.6 0 0-17.5 10.1-28.4 9.2 0 0-16.8 4.8-24.8-.3 0 0-19.7 2.7-43.5 27.8h164.1s40.8-.2 49.5-56.8c0 0 1.2-34.3-3.4-43.5 0 0-4.4-28.3 7.6-40.1.8.2 1.6.2 2.5.2 5 0 9.1-3.8 9.1-8.3-.1-4.7-4.1-8.4-9.1-8.4z"/></g><path fill="#3DABFC" d="M-4598.7 1817.7h510.7V2152h-510.7z"/><path opacity=".37" fill="#0092FF" d="M-4598.6 1816.6h22.5v334.3h-22.5zM-4110.2 1817.6h22.5v334.3h-22.5z"/><path opacity=".37" fill="#0092FF" d="M-4343.5 1995.7l-255.8-178.1 511.7.7z"/><path fill="#0086FF" d="M-4665.1 2130.2h645.3v21.9h-645.3zM-4343.5 1944.6l-255.8-127 511.7.5z"/><g fill="#FFF"><path d="M-4295.5 2095c36.6.9 51.1-17.8 51.1-17.8 28.1-29 3.2-53.6 3.2-53.6-22-19-43.4.3-43.4.3-10 24.3 8.4 28.7 8.4 28.7 16.5 4.7 20.1-6.5 20.1-6.5 5.2-12-8.4-15.8-8.4-15.8 14.2.6 15.2 9.1 15.2 9.1 5.5 17.3-11.3 20.5-11.3 20.5-44.4 7.9-35.3-33.4-35.3-33.4 21.7-32.8 54.7-12.6 54.7-12.6 45 33.4-3 74.6-3 74.6 6 6.4 28.5 6.2 28.5 6.2 28.1-3.5 32.3-22.3 32.3-22.3 2-77.3-61.8-93.4-61.8-93.4-85-11.9-92.1 56.9-92.1 56.9-1.9 52.1 41.8 59.1 41.8 59.1z"/><path d="M-4128 1973.3c-5 0-9.1 3.7-9.1 8.2 0 .4.1.9.2 1.3-3.4 3.9-16 20.9-9.6 51.4 0 0-3.2 3.1-7.8 1.7l-7.3-3.5s-2.6-40-1.9-43.1c0 0 1.8-9.2 5.9-12.1 1.6 1.3 3.8 2.2 6.1 2.2 5 0 9.1-3.7 9.1-8.2 0-4.5-4.1-8.2-9.1-8.2-3.9 0-7.2 2.2-8.5 5.3-3.4 1.8-12.9 8.6-13.2 27.9l1.9 35.8s-3.1 15.4-4.1 15.6c0 0 7.5 41.9-17.7 48.5 0 0-23.1 15.6-58.5-2.6 0 0-17.5 10.1-28.4 9.2 0 0-16.8 4.8-24.8-.3 0 0-19.7 2.7-43.5 27.8h164.1s40.8-.2 49.5-56.8c0 0 1.2-34.3-3.4-43.5 0 0-4.4-28.3 7.6-40.1.8.2 1.6.2 2.5.2 5 0 9.1-3.8 9.1-8.3s-4.1-8.4-9.1-8.4z"/></g><path fill="#7BCDFF" d="M-5298.4 1810.3h510.7v334.3h-510.7z"/><path opacity=".37" fill="#0092FF" d="M-5298.3 1809.2h22.5v334.3h-22.5zM-4809.9 1810.2h22.5v334.3h-22.5z"/><path opacity=".37" fill="#0092FF" d="M-5043.3 1988.3l-255.7-178.1 511.7.7z"/><path fill="#0086FF" d="M-5364.8 2122.8h645.3v21.9h-645.3zM-5043.3 1937.2l-255.7-127 511.7.5z"/><g fill="#FFF"><path d="M-4995.3 2087.6c36.6.9 51.1-17.8 51.1-17.8 28.1-29 3.2-53.6 3.2-53.6-22-19-43.4.3-43.4.3-10 24.3 8.4 28.7 8.4 28.7 16.5 4.7 20.1-6.5 20.1-6.5 5.2-12-8.4-15.8-8.4-15.8 14.2.6 15.2 9.1 15.2 9.1 5.5 17.3-11.3 20.5-11.3 20.5-44.4 7.9-35.3-33.4-35.3-33.4 21.7-32.8 54.7-12.6 54.7-12.6 45 33.4-3 74.6-3 74.6 6 6.4 28.5 6.2 28.5 6.2 28.1-3.5 32.3-22.3 32.3-22.3 2-77.3-61.8-93.4-61.8-93.4-85-11.9-92.1 56.9-92.1 56.9-1.9 52.1 41.8 59.1 41.8 59.1z"/><path d="M-4827.7 1965.8c-5 0-9.1 3.7-9.1 8.2 0 .4.1.9.2 1.3-3.4 3.9-15.9 20.9-9.6 51.4 0 0-3.2 3.1-7.8 1.7l-7.3-3.5s-2.6-40-1.9-43.1c0 0 1.8-9.2 5.9-12.1 1.6 1.3 3.8 2.2 6.1 2.2 5 0 9.1-3.7 9.1-8.2 0-4.5-4.1-8.2-9.1-8.2-3.9 0-7.2 2.2-8.5 5.3-3.4 1.8-12.9 8.6-13.2 27.9l1.9 35.8s-3.1 15.4-4.1 15.6c0 0 7.5 41.9-17.7 48.5 0 0-23.1 15.6-58.5-2.6 0 0-17.5 10.1-28.4 9.2 0 0-16.8 4.8-24.8-.3 0 0-19.7 2.7-43.5 27.8h164.1s40.8-.2 49.5-56.8c0 0 1.2-34.3-3.4-43.5 0 0-4.4-28.3 7.6-40.1.8.2 1.6.2 2.5.2 5 0 9.1-3.8 9.1-8.3s-4.1-8.4-9.1-8.4z"/></g><path fill="#FFF" d="M-4560.9 2258.3h510.7v334.3h-510.7z"/><path opacity=".37" fill="#0092FF" d="M-4560.8 2257.3h22.5v313.8h-22.5zM-4072.4 2258.1h22.5v312.7h-22.5z"/><path opacity=".37" fill="#0092FF" d="M-4305.8 2436.4l-255.7-178.2 511.7.7zM-4627.3 2570.9h645.3v21.9h-645.3z"/><path fill="#0086FF" d="M-4305.8 2385.3l-255.7-127.1 511.7.5z"/><g fill="#0086FF"><path d="M-4257.8 2535.7c36.6.9 51.1-17.8 51.1-17.8 28.1-29 3.2-53.6 3.2-53.6-22-19-43.4.3-43.4.3-10 24.3 8.4 28.7 8.4 28.7 16.5 4.7 20.1-6.5 20.1-6.5 5.2-12-8.4-15.8-8.4-15.8 14.2.6 15.2 9.1 15.2 9.1 5.5 17.3-11.3 20.5-11.3 20.5-44.4 7.9-35.3-33.4-35.3-33.4 21.7-32.8 54.7-12.6 54.7-12.6 45 33.4-3 74.6-3 74.6 6 6.4 28.5 6.2 28.5 6.2 28.1-3.5 32.3-22.3 32.3-22.3 2-77.3-61.8-93.4-61.8-93.4-85-11.9-92.1 56.9-92.1 56.9-1.9 52.1 41.8 59.1 41.8 59.1z"/><path d="M-4090.2 2413.9c-5 0-9.1 3.7-9.1 8.2 0 .4.1.9.2 1.3-3.4 3.9-16 20.9-9.6 51.4 0 0-3.2 3.1-7.8 1.7l-7.3-3.5s-2.6-40-1.9-43.1c0 0 1.8-9.2 5.9-12.1 1.6 1.3 3.8 2.2 6.1 2.2 5 0 9.1-3.7 9.1-8.2 0-4.5-4.1-8.2-9.1-8.2-3.9 0-7.2 2.2-8.5 5.3-3.4 1.8-12.9 8.6-13.2 27.9l1.9 35.8s-3.1 15.4-4.1 15.6c0 0 7.5 41.9-17.7 48.5 0 0-23.1 15.6-58.5-2.6 0 0-17.5 10.1-28.4 9.2 0 0-16.8 4.8-24.8-.3 0 0-19.7 2.7-43.5 27.8h164.1s40.8-.2 49.5-56.8c0 0 1.2-34.3-3.4-43.5 0 0-4.4-28.3 7.6-40.1.8.2 1.6.2 2.5.2 5 0 9.1-3.8 9.1-8.3s-4.1-8.4-9.1-8.4z"/></g><path fill="#F4F4F4" d="M-2411.8 1414.9l-255.8 225.1 511.7-1.6z"/><path fill="#B5B5B5" d="M-2412.1 1529.5l-255.7-225.1 511.7 1.5z"/><path fill="#DBDBDB" d="M-2667.8 1304.4V1640l190.8-167.7z"/><path fill="#E5E5E5" d="M-2155.6 1640v-335.6l-190.8 167.7z"/><g fill="#007CFF"><circle cx="-2417.7" cy="1473.4" r="143.5"/><circle cx="-2417.7" cy="1473.1" r="144.3"/></g><g fill="#2799FF"><circle cx="-2417.3" cy="1473.4" r="120.6"/><circle cx="-2417.3" cy="1473.1" r="121.3"/></g><g fill="#48B1FF"><circle cx="-2417.5" cy="1473.6" r="94.9"/><circle cx="-2417.5" cy="1473.4" r="95.4"/></g><g fill="#FFF"><path d="M-2453.1 1500.7c24.4.6 34.2-11.9 34.2-11.9 18.8-19.4 2.2-35.8 2.2-35.8-14.7-12.7-29 .2-29 .2-6.7 16.2 5.6 19.2 5.6 19.2 11.1 3.1 13.4-4.3 13.4-4.3 3.5-8-5.6-10.6-5.6-10.6 9.5.4 10.2 6.1 10.2 6.1 3.7 11.6-7.6 13.7-7.6 13.7-29.7 5.3-23.6-22.3-23.6-22.3 14.5-21.9 36.6-8.4 36.6-8.4 30.1 22.3-2 49.9-2 49.9 4 4.3 19.1 4.2 19.1 4.2 18.8-2.3 21.6-14.9 21.6-14.9 1.3-51.7-41.3-62.4-41.3-62.4-56.8-7.9-61.6 38-61.6 38-1.5 34.6 27.8 39.3 27.8 39.3z"/><path d="M-2341.1 1419.2c-3.4 0-6.1 2.5-6.1 5.5 0 .3.1.6.1.8-2.3 2.6-10.7 14-6.4 34.4 0 0-2.1 2.1-5.2 1.2l-4.9-2.3s-1.8-26.7-1.3-28.8c0 0 1.2-6.2 3.9-8.1 1.1.9 2.5 1.5 4.1 1.5 3.4 0 6.1-2.5 6.1-5.5s-2.7-5.5-6.1-5.5c-2.6 0-4.8 1.5-5.7 3.6-2.2 1.2-8.6 5.7-8.8 18.6l1.3 23.9s-2.1 10.3-2.8 10.4c0 0 5 28-11.8 32.4 0 0-15.4 10.4-39.1-1.8 0 0-11.7 6.8-19 6.2 0 0-11.2 3.2-16.6-.2 0 0-13.2 1.8-29.1 18.6h109.7s27.3-.1 33.1-38c0 0 .8-22.9-2.3-29.1 0 0-2.9-18.9 5.1-26.8.5.1 1.1.1 1.6.1 3.4 0 6.1-2.5 6.1-5.5s-2.6-5.6-5.9-5.6z"/></g><path fill="#9FD6FF" d="M-1859.2 116.6h430.7v281.9h-430.7z"/><path opacity=".37" fill="#0092FF" d="M-1840.1 118.3v277.5c0 1-.8 1.8-1.8 1.8h-15.4c-1 0-1.8-.8-1.8-1.8V118.3c0-1 .8-1.8 1.8-1.8h15.4c1 0 1.8.8 1.8 1.8zM-1447.2 116.5h19v281.9h-19z"/><path fill="#0086FF" d="M-1654 250.6L-1859 117c-.2-.1-.1-.5.1-.5l430.6.5-205.7 133.6c-6.1 4-13.9 4-20 0zM-1894.9 380.2h494.4c4.8 0 8.7 4.1 8.7 9.2s-3.9 9.2-8.7 9.2h-494.4c-4.8 0-8.7-4.1-8.7-9.2.1-5.1 4-9.2 8.7-9.2z"/><g fill="#FFF"><path d="M-1603.5 350.5c30.8.8 43.1-15 43.1-15 23.7-24.4 2.7-45.2 2.7-45.2-18.6-16.1-36.6.3-36.6.3-8.5 20.5 7.1 24.2 7.1 24.2 13.9 3.9 16.9-5.4 16.9-5.4 4.4-10.1-7.1-13.3-7.1-13.3 12 .5 12.8 7.6 12.8 7.6 4.6 14.6-9.6 17.3-9.6 17.3-37.4 6.7-29.8-28.1-29.8-28.1 18.3-27.7 46.1-10.6 46.1-10.6 37.9 28.1-2.5 62.9-2.5 62.9 5.1 5.4 24.1 5.3 24.1 5.3 23.7-2.9 27.3-18.8 27.3-18.8 1.7-65.2-52.1-78.7-52.1-78.7-71.7-10-77.7 48-77.7 48-1.6 43.6 35.3 49.5 35.3 49.5z"/><path d="M-1462.2 247.8c-4.2 0-7.7 3.1-7.7 7 0 .4.1.7.2 1.1-2.9 3.3-13.5 17.6-8.1 43.3 0 0-2.7 2.6-6.5 1.5l-6.2-2.9s-2.2-33.7-1.6-36.3c0 0 1.5-7.8 4.9-10.2 1.4 1.1 3.2 1.9 5.2 1.9 4.2 0 7.7-3.1 7.7-7 0-3.8-3.4-7-7.7-7-3.3 0-6 1.9-7.2 4.5-2.8 1.5-10.8 7.2-11.1 23.5l1.6 30.2s-2.6 13-3.5 13.1c0 0 6.3 35.4-14.9 40.9 0 0-19.5 13.1-49.3-2.2 0 0-14.7 8.5-24 7.8 0 0-14.1 4-20.9-.2 0 0-16.6 2.3-36.7 23.5h138.4s34.4-.2 41.8-47.9c0 0 1-28.9-2.9-36.7 0 0-3.7-23.9 6.4-33.9.7.2 1.4.2 2.1.2 4.2 0 7.7-3.2 7.7-7-.1-4-3.5-7.2-7.7-7.2z"/></g><path fill="#9FD6FF" d="M-1219.7 111h393.5v258.8h-393.5z"/><path opacity=".37" fill="#0092FF" d="M-1237.6 368.2h19v15.6c0 1-.8 1.8-1.8 1.8h-15.4c-1 0-1.8-.8-1.8-1.8v-15.6zM-807.8 119.7c-.1-.3-.2-.5-.3-.8-.2-.5-.3-.9-.5-1.3s-.3-.8-.5-1.1c-.6-1.1-1.2-2.2-1.9-3.2-.2-.3-.5-.6-.7-.9v-.1l-.1-.1c-.3-.3-.5-.6-.8-.9 0 0-.1 0-.1-.1-.3-.3-.6-.5-.8-.8l-.3-.3-.3-.3c-1.8-1.6-3.9-2.9-6.2-3.8-.1-.1-.3-.1-.4-.2-.5-.2-.9-.3-1.4-.4h-.1c-.1 0-.2 0-.2-.1h-3.3v280.1h19V122.5c-.6-.9-.9-1.9-1.1-2.8zM-765.8 116.6c-.1-.3-.2-.5-.3-.8-.2-.5-.3-.9-.5-1.3s-.3-.8-.5-1.1c-.6-1.1-1.2-2.2-1.9-3.2-.2-.3-.5-.6-.7-.9v-.1l-.1-.1c-.3-.3-.5-.6-.8-.9 0 0-.1 0-.1-.1-.3-.3-.6-.5-.8-.8l-.3-.3-.3-.3c-1.8-1.6-3.9-2.9-6.2-3.8-.1-.1-.3-.1-.4-.2-.5-.2-.9-.3-1.4-.4h-.1c-.1 0-.2 0-.2-.1h-3.3v280h19V119.4c-.6-1-.8-1.9-1.1-2.8z"/><path fill="#0086FF" d="M-825.7 117.4l-186.8 121.2c-6.1 3.9-13.9 3.9-20 0l-186.1-121.3-10.9-7.1-.7-.5c2.6-2.4 5.7-4.2 9.1-5.1H-1181.4l355.8.5h5.2c2.7 1 4.5 2.9 6.6 4.8M-770.2 377.4c0 2.5-1 4.8-2.5 6.5-1.6 1.7-3.7 2.7-6.1 2.7h-494.4c-4.8 0-8.7-4.1-8.7-9.2 0-2.5 1-4.9 2.5-6.5s3.7-2.7 6.1-2.7h494.4c4.8 0 8.7 4.1 8.7 9.2z"/><g fill="#FFF"><path d="M-982 338.5c30.8.8 43.1-15 43.1-15 23.7-24.4 2.7-45.2 2.7-45.2-18.6-16.1-36.6.3-36.6.3-8.5 20.5 7.1 24.2 7.1 24.2 13.9 3.9 16.9-5.4 16.9-5.4 4.4-10.1-7.1-13.3-7.1-13.3 12 .5 12.8 7.6 12.8 7.6 4.6 14.6-9.6 17.3-9.6 17.3-37.4 6.7-29.8-28.1-29.8-28.1 18.3-27.7 46.1-10.6 46.1-10.6 37.9 28.1-2.5 62.9-2.5 62.9 5.1 5.4 24.1 5.3 24.1 5.3 23.7-2.9 27.3-18.8 27.3-18.8 1.7-65.2-52.1-78.7-52.1-78.7-71.7-10-77.7 48-77.7 48-1.5 43.6 35.3 49.5 35.3 49.5z"/><path d="M-840.7 235.8c-4.2 0-7.7 3.1-7.7 7 0 .4.1.7.2 1.1-2.9 3.3-13.5 17.6-8.1 43.3 0 0-2.7 2.6-6.5 1.5l-6.2-2.9s-2.2-33.7-1.6-36.3c0 0 1.5-7.8 4.9-10.2 1.4 1.1 3.2 1.9 5.2 1.9 4.2 0 7.7-3.1 7.7-7 0-3.8-3.4-7-7.7-7-3.3 0-6 1.9-7.2 4.5-2.8 1.5-10.8 7.2-11.1 23.5l1.6 30.2s-2.6 13-3.5 13.1c0 0 6.3 35.4-14.9 40.9 0 0-19.5 13.1-49.3-2.2 0 0-14.7 8.5-24 7.8 0 0-14.1 4-20.9-.2 0 0-16.6 2.3-36.7 23.5h138.4s34.4-.2 41.8-47.9c0 0 1-28.9-2.9-36.7 0 0-3.7-23.9 6.4-33.9.7.2 1.4.2 2.1.2 4.2 0 7.7-3.2 7.7-7 0-4-3.5-7.2-7.7-7.2z"/></g><path opacity=".37" fill="#0092FF" d="M-1220.9 104.6h-1.1-.1c-3.2 1-6.2 2.7-8.5 5.1-.2.1-.3.3-.5.5-3.8 4-6.2 9.6-6.2 15.9v220c0 .5 0 1 .1 1.6v20.8h17.5V106.3c-.1-.8-.5-1.5-1.2-1.7z"/><path opacity=".37" fill="#0092FF" d="M-1221.1 104.8h-1.1-.1c-3.2 1-6.2 2.7-8.5 5.1-.2.1-.3.3-.5.5-3.8 4-6.2 9.6-6.2 15.9v220c0 .5 0 1 .1 1.6v20.8h17.5V106.5c0-.8-.5-1.4-1.2-1.7z"/><path fill="#0092FF" d="M-229.7 108.5L-335 171.8l-110.5 61.7-110.5-61.7-105.6-63.5c-3.4 2.6-5.6 6.7-5.6 11.3V376c0 7.9 6.4 14.3 14.3 14.3h414.1c7.9 0 14.3-6.4 14.3-14.3V119.7c.1-4.5-2-8.6-5.2-11.2z"/><path fill="#A8D5FB" d="M-649.1 116.4H-242v273.2h-407.1z"/><path fill="#0086FF" d="M-556 174.8l101.1 63.6c5.8 3.6 13 3.6 18.8 0l101.1-63.6 105.2-66.2c-2.4-2.1-5.6-3.3-9-3.3H-653c-3.3 0-6.3 1.2-8.7 3.1l105.7 66.4zM-189 387.6c0 2.5-1 4.8-2.5 6.5-1.6 1.7-3.7 2.7-6.1 2.7H-692c-4.8 0-8.7-4.1-8.7-9.2 0-2.5 1-4.9 2.5-6.5s3.7-2.7 6.1-2.7h494.4c4.9 0 8.7 4.1 8.7 9.2z"/><g fill="#FFF"><path d="M-411.1 348.6c30.8.8 43.1-15 43.1-15 23.7-24.4 2.7-45.2 2.7-45.2-18.6-16.1-36.6.3-36.6.3-8.5 20.5 7.1 24.2 7.1 24.2 13.9 3.9 16.9-5.4 16.9-5.4 4.4-10.1-7.1-13.3-7.1-13.3 12 .5 12.8 7.6 12.8 7.6 4.6 14.6-9.6 17.3-9.6 17.3-37.4 6.7-29.8-28.1-29.8-28.1 18.3-27.7 46.1-10.6 46.1-10.6 37.9 28.1-2.5 62.9-2.5 62.9 5.1 5.4 24.1 5.3 24.1 5.3 23.7-2.9 27.3-18.8 27.3-18.8 1.7-65.2-52.1-78.7-52.1-78.7-71.7-10-77.7 48-77.7 48-1.6 43.6 35.3 49.5 35.3 49.5z"/><path d="M-269.9 245.9c-4.2 0-7.7 3.1-7.7 7 0 .4.1.7.2 1.1-2.9 3.3-13.5 17.6-8.1 43.3 0 0-2.7 2.6-6.5 1.5l-6.2-2.9s-2.2-33.7-1.6-36.3c0 0 1.5-7.8 4.9-10.2 1.4 1.1 3.2 1.9 5.2 1.9 4.2 0 7.7-3.1 7.7-7 0-3.8-3.4-7-7.7-7-3.3 0-6 1.9-7.2 4.5-2.8 1.5-10.8 7.2-11.1 23.5l1.6 30.2s-2.6 13-3.5 13.1c0 0 6.3 35.4-14.9 40.9 0 0-19.5 13.1-49.3-2.2 0 0-14.7 8.5-24 7.8 0 0-14.1 4-20.9-.2 0 0-16.6 2.3-36.7 23.5h138.4s34.4-.2 41.8-47.9c0 0 1-28.9-2.9-36.7 0 0-3.7-23.9 6.4-33.9.7.2 1.4.2 2.1.2 4.2 0 7.7-3.2 7.7-7 0-4-3.4-7.2-7.7-7.2z"/></g><g><path fill="#0092FF" d="M51.7 120.8h.3l-12.7-8s.1 0 .1-.1l-.1-.1c-3.4 2.6-5.6 6.7-5.6 11.3v256.3c0 .8.1 1.7.2 2.5h17.8V120.8zM458.8 120.8l.1 262h17.4c.1-.8.2-1.6.2-2.5V124c0-4.5-2.1-8.5-5.3-11.1l-.1.1.1.1-12.4 7.7z"/><path fill="#A8D5FB" d="M458.8 120.8l-92.9 58.4-101.1 63.6c-5.8 3.6-13 3.6-18.8 0l-101.1-63.6L52 120.8h-.2v262h407.1l-.1-262zM254.5 303.1s6-58 77.7-48c0 0 53.8 13.6 52.1 78.7 0 0-3.6 15.8-27.3 18.8 0 0-19 .1-24.1-5.3 0 0 40.5-34.7 2.5-62.9 0 0-27.8-17-46.1 10.6 0 0-7.6 34.8 29.8 28.1 0 0 14.2-2.7 9.6-17.3 0 0-.8-7.1-12.8-7.6 0 0 11.5 3.2 7.1 13.3 0 0-3 9.4-16.9 5.4 0 0-15.6-3.7-7.1-24.2 0 0 18-16.3 36.6-.3 0 0 21 20.7-2.7 45.2 0 0-12.3 15.8-43.1 15-.1.4-37-5.5-35.3-49.5zM431 264.3c-.7 0-1.4 0-2.1-.2-10.1 10-6.4 33.9-6.4 33.9 3.9 7.8 2.9 36.7 2.9 36.7-7.4 47.8-41.8 47.9-41.8 47.9H245.2c20.1-21.2 36.7-23.5 36.7-23.5 6.8 4.3 20.9.2 20.9.2 9.2.8 24-7.8 24-7.8 29.9 15.4 49.3 2.2 49.3 2.2 21.3-5.6 14.9-40.9 14.9-40.9.8-.2 3.5-13.1 3.5-13.1l-1.6-30.2c.3-16.3 8.3-22 11.1-23.5 1.1-2.6 3.9-4.5 7.2-4.5 4.2 0 7.7 3.1 7.7 7s-3.5 7-7.7 7c-2 0-3.8-.7-5.2-1.9-3.4 2.5-4.9 10.2-4.9 10.2-.6 2.6 1.6 36.3 1.6 36.3l6.2 2.9c3.9 1.1 6.5-1.5 6.5-1.5-5.3-25.7 5.3-40 8.1-43.3-.1-.3-.2-.7-.2-1.1 0-3.9 3.5-7 7.7-7s7.7 3.2 7.7 7c-.1 4-3.5 7.2-7.7 7.2z"/><path fill="#0086FF" d="M52 120.8l92.9 58.4L246 242.8c5.8 3.6 13 3.6 18.8 0l101.1-63.6 92.9-58.4 12.3-7.8-.1-.1c-2.4-2-5.5-3.2-8.8-3.2H48c-3.2 0-6.2 1.1-8.6 3 0 0-.1 0-.1.1l12.7 8zM503.2 382.8H8.8c-2.4 0-4.6 1-6.1 2.7s-2.5 4-2.5 6.5c0 5.1 3.9 9.2 8.7 9.2h494.4c2.4 0 4.6-1 6.1-2.7 1.6-1.7 2.5-4 2.5-6.5 0-5.1-3.9-9.2-8.7-9.2z"/><path fill="#FFF" d="M289.7 353c30.8.8 43.1-15 43.1-15 23.7-24.4 2.7-45.2 2.7-45.2-18.6-16.1-36.6.3-36.6.3-8.5 20.5 7.1 24.2 7.1 24.2 13.9 3.9 16.9-5.4 16.9-5.4 4.4-10.1-7.1-13.3-7.1-13.3 12 .5 12.8 7.6 12.8 7.6 4.6 14.6-9.6 17.3-9.6 17.3-37.4 6.7-29.8-28.1-29.8-28.1 18.3-27.7 46.1-10.6 46.1-10.6 37.9 28.1-2.5 62.9-2.5 62.9 5.1 5.4 24.1 5.3 24.1 5.3 23.7-2.9 27.3-18.8 27.3-18.8 1.7-65.2-52.1-78.7-52.1-78.7-71.7-10-77.7 48-77.7 48-1.6 43.6 35.3 49.5 35.3 49.5z"/><path fill="#FFF" d="M431 250.3c-4.2 0-7.7 3.1-7.7 7 0 .4.1.7.2 1.1-2.9 3.3-13.5 17.6-8.1 43.3 0 0-2.7 2.6-6.5 1.5l-6.2-2.9s-2.2-33.7-1.6-36.3c0 0 1.5-7.8 4.9-10.2 1.4 1.1 3.2 1.9 5.2 1.9 4.2 0 7.7-3.1 7.7-7 0-3.8-3.4-7-7.7-7-3.3 0-6 1.9-7.2 4.5-2.8 1.5-10.8 7.2-11.1 23.5l1.6 30.2s-2.6 13-3.5 13.1c0 0 6.3 35.4-14.9 40.9 0 0-19.5 13.1-49.3-2.2 0 0-14.7 8.5-24 7.8 0 0-14.1 4-20.9-.2 0 0-16.6 2.3-36.7 23.5h138.4s34.4-.2 41.8-47.9c0 0 1-28.9-2.9-36.7 0 0-3.7-23.9 6.4-33.9.7.2 1.4.2 2.1.2 4.2 0 7.7-3.2 7.7-7-.1-4-3.5-7.2-7.7-7.2z"/></g></svg>