<svg xmlns="http://www.w3.org/2000/svg" viewBox="0 0 512 512"><path fill="#F0F1F3" d="M328.172 108.734l.662.75L121.542 292.47l-.662-.748zM109.27 301.93l.662.75L2.05 397.913l-.662-.75z"/><path fill="#505B77" d="M51.8 441.4H40c-.3 0-.5-.2-.5-.5v-24.5c0-.3.2-.5.5-.5h11.7c.3 0 .5.2.5.5v24.5c.1.2-.2.5-.4.5zm-11.3-1h10.8v-23.5H40.5v23.5z"/><path fill="#505B77" d="M54.7 435.4h-2.9c-.3 0-.5-.2-.5-.5v-12.6c0-.3.2-.5.5-.5h2.9c.3 0 .5.2.5.5v12.6c0 .3-.2.5-.5.5zm-2.4-.9h2v-11.7h-2v11.7zM37.6 440.4c-.3 0-.5-.2-.5-.5v-31.5h-.7c-.3 0-.5-.2-.5-.5s.2-.5.5-.5h1.2c.3 0 .5.2.5.5v32c0 .2-.2.5-.5.5zM43.3 444.6h-.8c-.6 0-1.1-.5-1.1-1.1v-2.1c0-.6.5-1.1 1.1-1.1h.8c.6 0 1.1.5 1.1 1.1v2.1c0 .6-.5 1.1-1.1 1.1zm-.7-3.2c-.1 0-.1 0 0 0l-.1 2.2s0 .1.1.1h.8s.1 0 .1-.1v-2.1s0-.1-.1-.1h-.8zM49.1 444.6h-.8c-.6 0-1.1-.5-1.1-1.1v-2.1c0-.6.5-1.1 1.1-1.1h.8c.6 0 1.1.5 1.1 1.1v2.1c0 .6-.5 1.1-1.1 1.1zm-.7-3.2c-.1 0-.1 0 0 0l-.1 2.2s0 .1.1.1h.8s.1 0 .1-.1v-2.1s0-.1-.1-.1h-.8zM41.3 422c-.1 0-.2 0-.3-.1-.2-.2-.2-.5 0-.7l3.6-4c.2-.2.5-.2.7 0 .2.2.2.5 0 .7l-3.6 4c-.1.1-.3.1-.4.1zM41.6 427.8c-.1 0-.2 0-.3-.1-.2-.2-.2-.5 0-.7l7.8-8.8c.2-.2.5-.2.7 0 .2.2.2.5 0 .7l-7.8 8.8c-.1 0-.3.1-.4.1zM41.3 433.5c-.1 0-.2 0-.3-.1-.2-.2-.2-.5 0-.7l9-10.2c.2-.2.5-.2.7 0 .2.2.2.5 0 .7l-9 10.2c-.1.1-.3.1-.4.1zM43.2 438c-.1 0-.2 0-.3-.1-.2-.2-.2-.5 0-.7l7.1-8.1c.2-.2.5-.2.7 0 .2.2.2.5 0 .7l-7.1 8.1c-.1 0-.3.1-.4.1zM46.3 439c-.1 0-.2 0-.3-.1-.2-.2-.2-.5 0-.7l2.9-3.3c.2-.2.5-.2.7 0 .2.2.2.5 0 .7l-2.9 3.3c-.1 0-.2.1-.4.1z"/><path fill="#505B77" d="M40 437.5h-2.4c-.3 0-.5-.2-.5-.5s.2-.5.5-.5H40c.3 0 .5.2.5.5s-.2.5-.5.5zM40 421h-2.4c-.3 0-.5-.2-.5-.5s.2-.5.5-.5H40c.3 0 .5.2.5.5s-.2.5-.5.5z"/><circle fill="#FFF" cx="26.3" cy="391.5" r="5.9"/><path fill="#505B77" d="M26.3 397.9c-3.5 0-6.4-2.9-6.4-6.4 0-3.5 2.9-6.4 6.4-6.4s6.4 2.9 6.4 6.4c-.1 3.6-2.9 6.4-6.4 6.4zm0-11.7c-3 0-5.4 2.4-5.4 5.4 0 3 2.4 5.4 5.4 5.4s5.4-2.4 5.4-5.4c-.1-3-2.5-5.4-5.4-5.4z"/><path fill="#FFF" d="M32.6 420.5l-9.1.6c-1.7.1-3.1-1.2-3.1-2.9v-12.8c0-3.9 3.1-7.2 7-7.4 4.3-.3 7.9 3.1 7.9 7.4v12.2c0 1.5-1.2 2.8-2.7 2.9z"/><path fill="#505B77" d="M23.3 421.6c-.9 0-1.7-.3-2.3-.9-.7-.7-1.1-1.5-1.1-2.5v-12.8c0-4.2 3.3-7.7 7.4-7.9 2.2-.1 4.3.6 6 2.1 1.6 1.5 2.5 3.6 2.5 5.8v12.2c0 1.8-1.4 3.3-3.2 3.4l-9.1.6h-.2zm4.6-23.2h-.5c-3.7.2-6.5 3.3-6.5 7v12.8c0 .7.3 1.3.8 1.8s1.1.7 1.8.7l9.1-.6c1.3-.1 2.3-1.1 2.3-2.4v-12.2c0-1.9-.8-3.8-2.2-5.1-1.4-1.3-3.1-2-4.8-2z"/><path fill="#FFF" d="M22.4 421.3V437h2.9"/><path fill="#505B77" d="M25.3 437.5h-2.8c-.3 0-.5-.2-.5-.5v-15.7c0-.3.2-.5.5-.5s.5.2.5.5v15.2h2.4c.3 0 .5.2.5.5-.1.3-.4.5-.6.5z"/><path fill="#FFF" d="M30.7 421.3v11.5h2.1"/><path fill="#505B77" d="M32.8 433.3h-2.1c-.3 0-.5-.2-.5-.5v-11.5c0-.3.2-.5.5-.5s.5.2.5.5v11h1.6c.3 0 .5.2.5.5s-.2.5-.5.5z"/><path fill="#FFF" d="M33.3 434.5H31c-.4 0-.7-.3-.7-.7v-.8c0-.4.3-.7.7-.7h2.3c.4 0 .7.3.7.7v.8c0 .4-.3.7-.7.7z"/><path fill="#505B77" d="M33.3 435H31c-.6 0-1.1-.5-1.1-1.1v-.9c0-.6.5-1.1 1.1-1.1h2.3c.6 0 1.1.5 1.1 1.1v.9c.1.6-.5 1.1-1.1 1.1zm-2.3-2.1c-.1 0-.2.1-.2.2v.9c0 .1.1.2.2.2h2.3c.1 0 .2-.1.2-.2v-1c0-.1-.1-.2-.2-.2H31z"/><path fill="#FFF" d="M25 438.8h-2.3c-.4 0-.7-.3-.7-.7v-.8c0-.4.3-.7.7-.7H25c.4 0 .7.3.7.7v.8c0 .4-.3.7-.7.7z"/><path fill="#505B77" d="M25 439.3h-2.3c-.6 0-1.1-.5-1.1-1.1v-.9c0-.6.5-1.1 1.1-1.1H25c.6 0 1.1.5 1.1 1.1v.9c.1.6-.5 1.1-1.1 1.1zm-2.3-2.2c-.1 0-.2.1-.2.2v.9c0 .1.1.2.2.2H25c.1 0 .2-.1.2-.2v-.9c0-.1-.1-.2-.2-.2h-2.3zM29 409.9c-.2 0-.3-.1-.4-.2l-3.8-6.5c-.1-.2-.1-.5.2-.7.2-.1.5-.1.7.2l3.6 6.2 7.6-1.4c.3 0 .5.1.6.4.1.3-.1.5-.4.6l-8.1 1.4c.1 0 .1 0 0 0z"/><path fill="#FFF" d="M38.8 409.4h-2.5c-.4 0-.7-.3-.7-.7v-.9c0-.4.3-.7.7-.7h2.5c.4 0 .7.3.7.7v.9c0 .3-.3.7-.7.7z"/><path fill="#505B77" d="M38.8 409.9h-2.5c-.7 0-1.2-.5-1.2-1.2v-1c0-.7.5-1.2 1.2-1.2h2.5c.7 0 1.2.5 1.2 1.2v1c0 .6-.6 1.2-1.2 1.2zm-2.5-2.5c-.1 0-.2.1-.2.2v1c0 .1.1.2.2.2h2.5c.1 0 .2-.1.2-.2v-1c0-.1-.1-.2-.2-.2h-2.5z"/><path fill="#F0F1F3" d="M52 381.5v-15.4l.2-.1 32.1-28.5v15.4l-.2.1L52 381.5zm1-14.9v12.7l30.3-26.9v-12.7L53 366.6zM68.4 387.8l-14.7-5.7 32.1-28.5 14.5 5.3-31.9 28.9zm-12.8-6l12.6 4.9 30.2-27.5-12.4-4.5-30.4 27.1z"/><path fill="#F0F1F3" d="M53 381.2l-3.9-1.9v-15.1l3.9 1.9v15.1zm-2.9-2.6l1.9 1v-12.9l-1.9-1v12.9z"/><path fill="#F0F1F3" d="M52.6 367l-3.9-1.9 32.1-28.5 3.9 1.9L52.6 367zm-2.1-2.2l2 1L83 338.7l-2-1-30.5 27.1zM68.9 390.9l-14.7-5.7v-4l14.6 5.7.1 4zm-13.7-6.4l12.7 4.9v-1.8l-12.7-4.9v1.8z"/><path fill="#F0F1F3" d="M67.9 391.2l-.1-4.2 32-29.1v4.2l-31.9 29.1zm.9-3.8v1.6l30-27.4V360l-30 27.4zM60.1 377.8l-3.7-1.4L59 374l3.8 1.4-2.7 2.4zm-1.9-1.8l1.7.6 1-.9-1.7-.6-1 .9zM80.1 359.9l-3.7-1.4 2.6-2.3 3.8 1.4-2.7 2.3zm-1.8-1.8l1.7.6 1-.9-1.7-.6-1 .9zM79.93 346.42l.666.745-24.112 21.493-.665-.747zM79.946 350.826l.665.746-24.11 21.492-.666-.746zM84.36 358.943l.665.748-21.91 19.453-.665-.748zM88.037 360.59l.664.75-21.91 19.45-.664-.746zM91.647 362.165l.664.748-21.91 19.452-.664-.747zM224.4 237v-15.4l32.2-28.7v15.4L224.4 237zm1-15v12.7l30.3-26.9v-12.7L225.4 222zM240.8 243.3l-14.7-5.7 32.1-28.6 14.5 5.3-31.9 29zm-12.8-6.1l12.6 4.9 30.2-27.5-12.4-4.5-30.4 27.1z"/><path fill="#F0F1F3" d="M225.4 236.7l-3.9-1.9v-15.1l3.9 1.9v15.1zm-2.9-2.6l1.9 1v-12.9l-1.9-1v12.9z"/><path fill="#F0F1F3" d="M225 222.4l-3.9-1.9 32.1-28.5 3.9 1.9-32.1 28.5zm-2.1-2.1l2 1 30.5-27.1-2-1-30.5 27.1zM241.3 246.3l-14.7-5.7v-4l14.6 5.7.1 4zm-13.7-6.4l12.7 4.9V243l-12.7-4.9v1.8z"/><path fill="#F0F1F3" d="M240.3 246.7l-.1-4.2 32-29.1v4.2l-31.9 29.1zm.9-3.8v1.6l30-27.4v-1.6l-30 27.4zM232.4 233.2l-3.7-1.4 2.6-2.4 3.8 1.4-2.7 2.4zm-1.8-1.7l1.7.6 1-.9-1.7-.6-1 .9zM252.5 215.4l-3.7-1.4 2.6-2.4 3.8 1.4-2.7 2.4zm-1.8-1.8l1.7.6 1-.9-1.7-.6-1 .9zM252.308 201.92l.665.747-24.125 21.477-.665-.747zM252.323 206.327l.665.747-24.125 21.476-.665-.747zM256.724 214.437l.664.748-21.91 19.452-.665-.748zM260.333 216.01l.664.748-21.91 19.453-.664-.747zM264.01 217.66l.663.747-21.91 19.452-.664-.748z"/><circle fill="#FFF" cx="342.6" cy="206.4" r="4.1"/><path fill="#505B77" d="M342.6 211c-2.6 0-4.6-2.1-4.6-4.6s2.1-4.6 4.6-4.6 4.6 2.1 4.6 4.6-2 4.6-4.6 4.6zm0-8.3c-2 0-3.6 1.6-3.6 3.6s1.6 3.6 3.6 3.6 3.6-1.6 3.6-3.6-1.6-3.6-3.6-3.6z"/><path fill="#FFF" d="M347 226.7l-6.4.4c-1.2.1-2.2-.9-2.2-2v-9c0-2.8 2.1-5.1 4.9-5.2 3-.2 5.6 2.2 5.6 5.2v8.6c.1 1.1-.8 2-1.9 2z"/><path fill="#505B77" d="M340.5 227.6c-.6 0-1.3-.2-1.7-.7-.5-.5-.8-1.2-.8-1.9v-9c0-3 2.4-5.5 5.4-5.7 1.6-.1 3.1.4 4.3 1.5 1.2 1.1 1.8 2.6 1.8 4.2v8.6c0 1.3-1 2.5-2.4 2.5v-.5.5l-6.4.4c-.1.1-.1.1-.2.1zm3.2-16.3h-.3c-2.5.2-4.4 2.2-4.4 4.7v9c0 .4.2.8.5 1.1.3.3.7.5 1.2.4l6.4-.4c.8-.1 1.5-.7 1.5-1.6v-8.6c0-1.3-.5-2.6-1.5-3.5-1-.6-2.2-1.1-3.4-1.1z"/><path fill="#505B77" d="M341.9 238.8h-2c-.3 0-.5-.2-.5-.5v-11c0-.3.2-.5.5-.5s.5.2.5.5v10.5h1.5c.3 0 .5.2.5.5s-.2.5-.5.5zM347.2 237.6h-1.5c-.3 0-.5-.2-.5-.5v-9.8c0-.3.2-.5.5-.5s.5.2.5.5v9.3h1c.3 0 .5.2.5.5s-.2.5-.5.5z"/><path fill="#FFF" d="M347.3 238.6h-1c-.4 0-.8-.3-.8-.8 0-.4.3-.8.8-.8h1c.4 0 .8.3.8.8-.1.5-.4.8-.8.8z"/><path fill="#505B77" d="M347.3 239.1h-1c-.7 0-1.3-.6-1.3-1.3 0-.7.6-1.3 1.3-1.3h1c.7 0 1.3.6 1.3 1.3-.1.7-.6 1.3-1.3 1.3zm-1.1-1.5c-.1 0-.3.1-.3.3 0 .1.1.3.3.3h1c.1 0 .3-.1.3-.3 0-.1-.1-.3-.3-.3h-1z"/><path fill="#FFF" d="M341.4 239.6h-1c-.4 0-.8-.3-.8-.8 0-.4.3-.8.8-.8h1c.4 0 .8.3.8.8 0 .4-.4.8-.8.8z"/><path fill="#505B77" d="M341.4 240.1h-1c-.7 0-1.3-.6-1.3-1.3 0-.7.6-1.3 1.3-1.3h1c.7 0 1.3.6 1.3 1.3 0 .7-.6 1.3-1.3 1.3zm-1-1.5c-.1 0-.3.1-.3.3 0 .1.1.3.3.3h1c.1 0 .3-.1.3-.3 0-.1-.1-.3-.3-.3h-1z"/><path fill="#FFF" d="M343.1 227.3h3.6v1.8h-3.6z"/><path fill="#505B77" d="M346.7 229.6h-3.6c-.3 0-.5-.2-.5-.5v-1.8c0-.3.2-.5.5-.5h3.6c.3 0 .5.2.5.5v1.8c0 .3-.2.5-.5.5zm-3.1-1h2.6v-.8h-2.6v.8z"/><path fill="#FFF" d="M349.1 236.7h-8.7c-1.1 0-2.1-.9-2.1-2.1v-3.7c0-1.1.9-2.1 2.1-2.1h8.7c1.1 0 2.1.9 2.1 2.1v3.7c0 1.2-.9 2.1-2.1 2.1z"/><path fill="#505B77" d="M349.1 237.2h-8.8c-1.4 0-2.5-1.1-2.5-2.5V231c0-1.4 1.1-2.5 2.5-2.5h8.8c1.4 0 2.5 1.1 2.5 2.5v3.7c.1 1.3-1.1 2.5-2.5 2.5zm-8.7-7.8c-.9 0-1.6.7-1.6 1.6v3.7c0 .9.7 1.6 1.6 1.6h8.8c.9 0 1.6-.7 1.6-1.6V231c0-.9-.7-1.6-1.6-1.6h-8.8z"/><path fill="#FFF" d="M347.1 235.3h-4.8c-.9 0-1.7-.8-1.7-1.7V232c0-.9.8-1.7 1.7-1.7h4.8c.9 0 1.7.8 1.7 1.7v1.6c.1.9-.7 1.7-1.7 1.7z"/><path fill="#505B77" d="M347.2 235.8h-4.8c-1.2 0-2.2-1-2.2-2.2V232c0-1.2 1-2.2 2.2-2.2h4.8c1.2 0 2.2 1 2.2 2.2v1.6c-.1 1.2-1 2.2-2.2 2.2zm-4.9-5c-.7 0-1.2.5-1.2 1.2v1.6c0 .7.5 1.2 1.2 1.2h4.8c.7 0 1.2-.5 1.2-1.2V232c0-.7-.5-1.2-1.2-1.2h-4.8z"/><path fill="#FFF" d="M344.8 232v1"/><path fill="#505B77" d="M344.8 233.5c-.3 0-.5-.2-.5-.5v-1c0-.3.2-.5.5-.5s.5.2.5.5v1c-.1.3-.3.5-.5.5zM344.9 227.5c-.2 0-.4-.2-.5-.4-.3-1.1-.7-2.1-1.1-3.2-.4-1.1-.9-2.2-1.2-3.3-.2-1.1-.3-2.1-.4-3.2-.1-1-.1-2-.3-3-.1-.3.1-.5.4-.6.3-.1.5.1.6.4.2 1.1.3 2.1.4 3.2.1 1 .1 2 .3 3 .3 1.1.7 2.1 1.1 3.2.4 1.1.9 2.2 1.2 3.3.1.3-.1.5-.4.6h-.1z"/><path fill="#FFF" d="M345.4 227.8h-1.1c-.5 0-.8-.4-.8-.8 0-.5.4-.8.8-.8h1.1c.5 0 .8.4.8.8.1.5-.3.8-.8.8z"/><path fill="#505B77" d="M345.4 228.3h-1.1c-.7 0-1.3-.6-1.3-1.3 0-.7.6-1.3 1.3-1.3h1.1c.7 0 1.3.6 1.3 1.3.1.7-.5 1.3-1.3 1.3zm-1-1.7c-.2 0-.4.2-.4.4s.2.4.4.4h1.1c.2 0 .4-.2.4-.4s-.2-.4-.4-.4h-1.1z"/><path fill="#F0F1F3" d="M436.405 199.097l.662.75-257.522 227.328-.662-.75zM509.88 276.96l.662.75L251.97 505.963l-.662-.75zM485.1 283.6l.1-.3-.3.3M499.4 261l-12.9-3.1-17.7 15.7-59.9-14.5 46.3-40.8-12.9-3.1L396 256l-3.4-.8-5.4 4.8 3.4.8-35.8 31.6-3.4-.8-5.4 4.8 3.4.8-34.2 30.2-3.4-.8-5.4 4.8 3.4.8-35.3 31.1-3.4-.8-5.4 4.8 3.4.8-34.9 30.8-3.4-.8-5.4 4.8 3.4.8-7.4 6.5 12.9 3.1 7.4-6.5 60.3 14.6-7.4 6.5-4.5 4-53 46.9 12.9 3.1 64.8-57.4 4.7 1.1 5.4-4.8-4.7-1.1 34.9-30.8 4.8 1.2 5.4-4.8-4.8-1.2 35.2-31.1 4.9 1.2 5.4-4.8-4.9-1.2 34.2-30.2 5 1.2 5.4-4.8-5-1.2 35.7-31.6 5 1.2 5.1-4.5.1-.4-4.8-1.2 17.6-15.7zM307.3 416.5L247 401.9l34.9-30.8 60.2 14.6-34.8 30.8zm40.3-35.6l-60.2-14.6 35.3-31.1 60.1 14.6-35.2 31.1zm40.6-35.9l-60.1-14.6 34.2-30.2 60 14.6-34.1 30.2zm39.5-35l-60-14.6 35.8-31.6 59.9 14.5-35.7 31.7z"/><path fill="#505B77" d="M153.5 381.2c-.1 0-.3-.1-.4-.2-.2-.2-.2-.5 0-.7l19.3-17c.2-.2.5-.2.7 0 .2.2.2.5 0 .7l-19.3 17c-.1.2-.2.2-.3.2zM272 279.7c-.1 0-.3-.1-.4-.2-.2-.2-.2-.5 0-.7l19.3-17c.2-.2.5-.2.7 0 .2.2.2.5 0 .7l-19.3 17c0 .1-.2.2-.3.2zM395 221.5c-.1 0-.3-.1-.4-.2-.2-.2-.2-.5 0-.7l19.3-17c.2-.2.5-.2.7 0 .2.2.2.5 0 .7l-19.3 17c-.1.1-.2.2-.3.2zM193.9 271.1c-.1 0-.3-.1-.4-.2-.2-.2-.2-.5 0-.7l19.3-17c.2-.2.5-.2.7 0 .2.2.2.5 0 .7l-19.3 17c-.1.2-.2.2-.3.2zM121.8 430.5h-12.6V6h1v423.5h10.6V28.7h1"/><path fill="#505B77" d="M471.6 30.1H130.1v-1h340.5V18.7H102.8v-.9h368.8"/><path fill="#FFF" d="M130.3 49.4h340.8v101.3H130.3z"/><path fill="#505B77" d="M471.6 151.2H129.8V48.9h341.8v102.3zm-340.8-1h339.8V49.9H130.8v100.3z"/><path fill="#4EA865" d="M137 54.4h327.4v91.4H137z"/><path fill="#FFF" d="M184.5 29.6h9.5v19.8h-9.5z"/><path fill="#505B77" d="M194.5 49.9H184V29.1h10.5v20.8zm-9.5-1h8.5V30.1H185v18.8z"/><path fill="#FFF" d="M407.4 29.6h9.5v19.8h-9.5z"/><path fill="#505B77" d="M417.4 49.9h-10.5V29.1h10.5v20.8zm-9.5-1h8.5V30.1h-8.5v18.8z"/><path fill="#FFF" d="M151.4 121.9c-1.9-2.7-2.8-6.5-2.8-11.3V94.3c0-5.1.9-8.9 2.7-11.5 1.8-2.6 5.1-3.9 9.7-3.9 4.2 0 7.1 1.1 8.9 3.4 1.8 2.2 2.7 5.6 2.7 9.9v3.7h-6.1v-3.3c0-2.1-.1-3.8-.3-4.9-.2-1.1-.7-2.1-1.5-2.7-.8-.7-2-1-3.7-1-1.8 0-3.1.4-3.9 1.1-.9.7-1.4 1.8-1.7 3.1-.3 1.3-.4 3.1-.4 5.3v18.4c0 2.4.2 4.2.6 5.5.4 1.3 1 2.3 1.9 2.9.9.6 2 .9 3.6.9s2.9-.4 3.7-1.1c.8-.7 1.3-1.7 1.5-3 .2-1.3.3-3 .3-5.1v-3.4h6.1v3.4c0 4.6-.9 8.1-2.6 10.6-1.7 2.5-4.8 3.7-9.1 3.7-4.5-.3-7.7-1.6-9.6-4.4zM181 122.2c-2-2.6-2.9-6.3-2.9-11.2V93.4c0-4.8 1-8.4 3-10.9s5.2-3.7 9.7-3.7c4.5 0 7.7 1.2 9.7 3.7 2 2.5 2.9 6.1 2.9 10.9V111c0 4.8-1 8.5-3 11.1-2 2.6-5.2 3.9-9.7 3.9-4.5 0-7.7-1.3-9.7-3.8zm14.6-3.4c.8-1.4 1.3-3.5 1.3-6.4V92.1c0-2.8-.4-4.9-1.3-6.3-.8-1.4-2.5-2-4.9-2-2.4 0-4.1.7-4.9 2-.8 1.4-1.3 3.4-1.3 6.3v20.3c0 2.9.4 5 1.3 6.4.8 1.4 2.5 2.1 4.9 2.1 2.5 0 4.1-.7 4.9-2.1zM210.5 79.2h6.3l8.2 37.6 8.2-37.6h6.3l.9 46.3h-5.2l-.5-33.6-7.8 33.6h-3.7l-7.8-33.6-.5 33.6h-5.3l.9-46.3zM247.8 79.2h6.3v46.3h-6.3V79.2zM261.7 79.2h4.4l13.1 30.8V79.2h5.4v46.3h-4.1l-13.3-31.6v31.6h-5.5V79.2zM293.8 122.1c-1.9-2.6-2.8-6.6-2.8-11.8V94.8c0-3.6.4-6.5 1.1-8.8.7-2.3 2-4.1 3.8-5.3 1.8-1.2 4.3-1.9 7.5-1.9 4.3 0 7.3 1.1 9.2 3.3 1.9 2.2 2.8 5.6 2.8 10.2V94h-6.1v-1.4c0-2.2-.1-3.9-.4-5.1-.3-1.2-.8-2.1-1.7-2.7-.9-.6-2.1-.9-3.8-.9-1.8 0-3.1.4-4 1.2-.9.8-1.4 1.9-1.7 3.3-.2 1.4-.4 3.2-.4 5.5V111c0 3.5.4 6.1 1.3 7.6s2.5 2.3 4.9 2.3c2.4 0 4-.8 4.9-2.5.9-1.7 1.3-4.4 1.3-8.1v-3.2h-5.9v-4.6h11.7v22.9h-4.1l-.6-5.3c-1.4 3.9-4.2 5.9-8.2 5.9-3.9.1-6.9-1.2-8.8-3.9zM337.6 122.4c-2-2.4-3.2-5.7-3.4-9.9l5.7-1.5c.2 3 .8 5.4 1.7 7.2 1 1.8 2.6 2.7 4.8 2.7 1.7 0 2.9-.5 3.8-1.4.9-.9 1.3-2.3 1.3-4 0-1.9-.4-3.4-1.2-4.7-.8-1.2-2.1-2.7-3.8-4.3l-7.8-6.9c-1.6-1.4-2.7-2.9-3.4-4.5-.7-1.6-1.1-3.5-1.1-5.7 0-3.4 1-6.1 3-7.9 2-1.8 4.7-2.8 8.2-2.8 3.6 0 6.3 1 8.1 2.9 1.8 1.9 2.9 5 3.3 9l-5.5 1.5c-.2-2.6-.7-4.7-1.5-6.2s-2.2-2.3-4.2-2.3c-3.7 0-5.5 1.7-5.5 5.1 0 1.4.2 2.5.7 3.4.5.9 1.2 1.9 2.3 2.9l7.8 6.9c2 1.9 3.6 3.8 4.8 5.9 1.2 2.1 1.8 4.4 1.8 7.1 0 3.4-1 6.1-3.1 8.1s-4.7 3-8 3c-3.8 0-6.8-1.2-8.8-3.6zM364.7 122.2c-2-2.6-2.9-6.3-2.9-11.2V93.4c0-4.8 1-8.4 3-10.9s5.2-3.7 9.7-3.7c4.5 0 7.7 1.2 9.7 3.7 2 2.5 2.9 6.1 2.9 10.9V111c0 4.8-1 8.5-3 11.1-2 2.6-5.2 3.9-9.7 3.9-4.5 0-7.8-1.3-9.7-3.8zm14.6-3.4c.8-1.4 1.3-3.5 1.3-6.4V92.1c0-2.8-.4-4.9-1.3-6.3-.8-1.4-2.5-2-4.9-2-2.4 0-4.1.7-4.9 2-.8 1.4-1.3 3.4-1.3 6.3v20.3c0 2.9.4 5 1.3 6.4.8 1.4 2.5 2.1 4.9 2.1 2.4 0 4-.7 4.9-2.1zM395.5 122.2c-2-2.6-2.9-6.3-2.9-11.2V93.4c0-4.8 1-8.4 3-10.9s5.2-3.7 9.7-3.7c4.5 0 7.7 1.2 9.7 3.7 2 2.5 2.9 6.1 2.9 10.9V111c0 4.8-1 8.5-3 11.1-2 2.6-5.2 3.9-9.7 3.9-4.5 0-7.8-1.3-9.7-3.8zm14.6-3.4c.8-1.4 1.3-3.5 1.3-6.4V92.1c0-2.8-.4-4.9-1.3-6.3-.8-1.4-2.5-2-4.9-2-2.4 0-4.1.7-4.9 2-.8 1.4-1.3 3.4-1.3 6.3v20.3c0 2.9.4 5 1.3 6.4.8 1.4 2.5 2.1 4.9 2.1 2.4 0 4-.7 4.9-2.1zM424.2 79.2h4.4l13.1 30.8V79.2h5.4v46.3H443l-13.3-31.6v31.6h-5.5V79.2zM86.8 418.7h57.4V430H86.8z"/><path fill="#505B77" d="M144.7 430.5H86.3v-12.3h58.4v12.3zm-57.4-1h56.5v-10.3H87.3v10.3z"/><path fill="#505B77" d="M91.8 442.2c-.2 0-.3-.1-.4-.2-.2-.2-.1-.5.1-.7l3.1-2-8-3.3-.3-.3c0-.1 0-.3.1-.4l2.6-3.7-1.9-1.1c-.2-.1-.3-.4-.2-.7.1-.2.4-.3.7-.2L90 431c.1.1.2.2.2.3 0 .1 0 .3-.1.4l-2.5 3.6 8.3 3.4c.2.1.3.2.3.4s-.1.4-.2.5l-3.8 2.6h-.4zM157.5 438.8h-.2l-3.2-1.1c-.2-.1-.3-.2-.3-.4l-.7-3.2-5.7 1.2c-.2 0-.3 0-.4-.1-.1-.1-.2-.3-.1-.4l.7-4-3.4-.3c-.3 0-.5-.3-.4-.5 0-.3.3-.5.5-.4l3.9.3c.1 0 .3.1.3.2.1.1.1.3.1.4l-.7 3.8 5.5-1.1c.3-.1.5.1.6.4l.7 3.4 3 1c.3.1.4.4.3.6-.1.1-.3.2-.5.2zM81.4 429.7h-2.6c-.3 0-.5-.2-.5-.5s.2-.5.5-.5H81l1-3.8c0-.1.1-.3.3-.3.1-.1.3-.1.4 0l4.1 2.3c.2.1.3.4.2.7-.1.2-.4.3-.7.2l-3.5-2-.9 3.6c-.1.1-.3.3-.5.3z"/><path fill="#F0F1F3" d="M118.3 58.3c-.1 0-.1 0-.2-.1l-6.2-3.1c-.2-.1-.3-.4-.2-.7.1-.2.4-.3.7-.2l6.2 3.1c.2.1.3.4.2.7-.2.2-.3.3-.5.3zM118.3 79.6c-.1 0-.1 0-.2-.1l-6.2-3.1c-.2-.1-.3-.4-.2-.7.1-.2.4-.3.7-.2l6.2 3.1c.2.1.3.4.2.7-.2.2-.3.3-.5.3zM118.3 101c-.1 0-.1 0-.2-.1l-6.2-3.1c-.2-.1-.3-.4-.2-.7.1-.2.4-.3.7-.2l6.2 3.1c.2.1.3.4.2.7-.2.2-.3.3-.5.3zM118.3 122.3c-.1 0-.1 0-.2-.1l-6.2-3.1c-.2-.1-.3-.4-.2-.7.1-.2.4-.3.7-.2l6.2 3.1c.2.1.3.4.2.7-.2.2-.3.3-.5.3zM118.3 143.6c-.1 0-.1 0-.2-.1l-6.2-3.1c-.2-.1-.3-.4-.2-.7.1-.2.4-.3.7-.2l6.2 3.1c.2.1.3.4.2.7-.2.2-.3.3-.5.3zM118.3 164.9c-.1 0-.1 0-.2-.1l-6.2-3.1c-.2-.1-.3-.4-.2-.7.1-.2.4-.3.7-.2l6.2 3.1c.2.1.3.4.2.7-.2.2-.3.3-.5.3zM118.3 186.2c-.1 0-.1 0-.2-.1l-6.2-3.1c-.2-.1-.3-.4-.2-.7.1-.2.4-.3.7-.2l6.2 3.1c.2.1.3.4.2.7-.2.2-.3.3-.5.3zM118.3 207.5c-.1 0-.1 0-.2-.1l-6.2-3.1c-.2-.1-.3-.4-.2-.7.1-.2.4-.3.7-.2l6.2 3.1c.2.1.3.4.2.7-.2.2-.3.3-.5.3zM118.3 228.9c-.1 0-.1 0-.2-.1l-6.2-3.1c-.2-.1-.3-.4-.2-.7.1-.2.4-.3.7-.2l6.2 3.1c.2.1.3.4.2.7-.2.2-.3.3-.5.3zM118.3 250.2c-.1 0-.1 0-.2-.1l-6.2-3.1c-.2-.1-.3-.4-.2-.7.1-.2.4-.3.7-.2l6.2 3.1c.2.1.3.4.2.7-.2.2-.3.3-.5.3zM118.3 271.5c-.1 0-.1 0-.2-.1l-6.2-3.1c-.2-.1-.3-.4-.2-.7.1-.2.4-.3.7-.2l6.2 3.1c.2.1.3.4.2.7-.2.2-.3.3-.5.3zM118.3 292.8c-.1 0-.1 0-.2-.1l-6.2-3.1c-.2-.1-.3-.4-.2-.7.1-.2.4-.3.7-.2l6.2 3.1c.2.1.3.4.2.7-.2.2-.3.3-.5.3zM118.3 314.1c-.1 0-.1 0-.2-.1l-6.2-3.1c-.2-.1-.3-.4-.2-.7.1-.2.4-.3.7-.2l6.2 3.1c.2.1.3.4.2.7-.2.2-.3.3-.5.3zM118.3 335.4c-.1 0-.1 0-.2-.1l-6.2-3.1c-.2-.1-.3-.4-.2-.7.1-.2.4-.3.7-.2l6.2 3.1c.2.1.3.4.2.7-.2.2-.3.3-.5.3zM118.3 356.8c-.1 0-.1 0-.2-.1l-6.2-3.1c-.2-.1-.3-.4-.2-.7.1-.2.4-.3.7-.2l6.2 3.1c.2.1.3.4.2.7-.2.2-.3.3-.5.3zM118.3 378.1c-.1 0-.1 0-.2-.1l-6.2-3.1c-.2-.1-.3-.4-.2-.7.1-.2.4-.3.7-.2l6.2 3.1c.2.1.3.4.2.7-.2.2-.3.3-.5.3zM118.3 399.4c-.1 0-.1 0-.2-.1l-6.2-3.1c-.2-.1-.3-.4-.2-.7.1-.2.4-.3.7-.2l6.2 3.1c.2.1.3.4.2.7-.2.2-.3.3-.5.3zM139.1 424.9H93.8c-.3 0-.5-.2-.5-.5s.2-.5.5-.5h45.3c.3 0 .5.2.5.5 0 .2-.2.5-.5.5z"/></svg>