<?xml version="1.0" encoding="utf-8"?>
<!-- Generator: Adobe Illustrator 19.1.0, SVG Export Plug-In . SVG Version: 6.00 Build 0)  -->
<svg version="1.1" id="Layer_1" xmlns="http://www.w3.org/2000/svg" xmlns:xlink="http://www.w3.org/1999/xlink" x="0px" y="0px"
	 viewBox="0 0 512 512" enable-background="new 0 0 512 512" xml:space="preserve">
<path fill="#FCCF76" d="M256,8C118.5,8,7,119.5,7,257s111.5,249,249,249s249-111.5,249-249S393.5,8,256,8z M134.4,192.8
	c0-18.7,13.3-33.9,29.6-33.9s29.6,15.2,29.6,33.9c0,18.7-13.3,33.9-29.6,33.9S134.4,211.6,134.4,192.8z M261.5,387.8
	c-59.3,3.1-115.2-56-110.8-65.1c0.4-0.8,1.2-1.4,1.4-1.2C167,331.6,205,354,257.8,352.4c51.6-1.6,87.6-25.3,101.9-36.1
	c0.3-0.2,1.1,0.4,1.5,1.1C366.1,326.1,317.9,384.8,261.5,387.8z M346.5,226.7c-14.9,0-27.1-15.2-27.1-33.9
	c0-18.7,12.1-33.9,27.1-33.9c14.9,0,27.1,15.2,27.1,33.9C373.6,211.6,361.5,226.7,346.5,226.7z"/>
<path fill="#70511A" d="M359.7,316.3c-14.2,10.8-50.2,34.5-101.9,36.1C205,354,167,331.6,152.2,321.5c-0.3-0.2-1.1,0.5-1.4,1.2
	c-4.4,9.1,51.5,68.2,110.8,65.1c56.4-2.9,104.6-61.7,99.6-70.3C360.7,316.7,359.9,316.1,359.7,316.3z"/>
<path fill="#70511A" d="M193.6,192.8c0-18.7-13.3-33.9-29.6-33.9s-29.6,15.2-29.6,33.9c0,18.7,13.3,33.9,29.6,33.9
	S193.6,211.6,193.6,192.8z M153,189.7c-4.2,0-7.6-3.9-7.6-8.7c0-4.8,3.4-8.7,7.6-8.7c4.2,0,7.6,3.9,7.6,8.7
	C160.6,185.8,157.2,189.7,153,189.7z"/>
<ellipse fill="#FFFFFF" cx="153" cy="181" rx="7.6" ry="8.7"/>
<path fill="#70511A" d="M346.5,158.9c-14.9,0-27.1,15.2-27.1,33.9c0,18.7,12.1,33.9,27.1,33.9c14.9,0,27.1-15.2,27.1-33.9
	C373.6,174.1,361.5,158.9,346.5,158.9z M335.7,189.7c-3.8,0-7-3.9-7-8.7c0-4.8,3.1-8.7,7-8.7c3.8,0,7,3.9,7,8.7
	C342.6,185.8,339.5,189.7,335.7,189.7z"/>
<ellipse fill="#FFFFFF" cx="335.7" cy="181" rx="7" ry="8.7"/>
</svg>
