<svg xmlns="http://www.w3.org/2000/svg" viewBox="0 0 512 512" style="vertical-align: bottom;"><path fill="none" d="M395.5 313.2c6.4 7.5 21.5 12.4 47.5 15.2 18.5 2 31-.2 37.3-6.5 8.7-8.7 8.2-28.4 7.8-45.7-.1-3.9-.2-7.9-.2-11.6 0-5.3-4.4-12.8-11.8-20.2-10.2-10.1-25.9-20.2-45.4-29C384.5 194.5 322.5 183 256 183c-109.6 0-189.6 31-220.2 61.6-7.4 7.4-11.7 14.7-11.7 19.9 0 3.4-.1 6.8-.2 10.4v.9c-.4 17.8-.9 38 8.3 46.5 6.4 5.9 18.8 7.9 36.8 6 24.1-2.6 39.9-7.5 47-14.6 6.7-6.7 6.6-17.6 6.5-34.1V273c0-9.1 3.6-17.4 10.3-24.2 3.3-3.3 10.1-10.1 29.4-15.6 21.2-6.1 52.8-9.1 93.7-9.1h.1c45.2 0 77.5 3.5 98.8 10.7 23.1 7.8 34.8 20.6 34.8 38.3v6.4c-.2 15.4.2 26.9 5.9 33.7z"></path><path fill="#00A6FF" d="M511.5 275.6c-.1-3.7-.2-7.5-.2-11 0-24.4-25.9-50.1-71-70.5-49.2-22.2-114.6-34.5-184.3-34.5-53.3 0-104.7 7.3-148.6 21.2-38.6 12.2-69.9 29-88.2 47.3C7.1 240.1.7 252.8.7 264.5c0 3.1-.1 6.5-.2 9.8v1c-.6 22.8-1.2 48.6 15.8 64.3 11.8 10.9 29.8 14.8 55.2 12.1 30.4-3.3 49.8-10.1 61-21.3 13.6-13.6 13.5-31.7 13.4-50.8v-6.5c0-2.7 1.2-5.3 3.5-7.6 8.2-8.2 33.3-17.9 106.6-17.9h.1c46.7 0 79.5 3.9 97.2 11.7 12.9 5.6 12.9 11 12.9 13.8v6.3c-.2 19.9.6 36.2 11.5 49.1 10.8 12.7 29.6 19.7 62.8 23.3 5.2.6 10.1.9 14.7.9 18.6 0 32.3-4.6 41.7-14 15.8-16 15.2-41.1 14.6-63.1zm-156.7-40.8c-21.3-7.2-53.6-10.7-98.8-10.7h-.1c-41 0-72.5 3.1-93.7 9.1-19.3 5.5-26.1 12.3-29.4 15.6-6.8 6.8-10.3 15.1-10.3 24.2v6.6c.1 16.5.2 27.5-6.5 34.1-7.1 7.1-22.9 12-47 14.6-18 2-30.4-.1-36.8-6-9.2-8.5-8.7-28.7-8.3-46.5v-.9c.1-3.6.2-7 .2-10.4 0-5.3 4.3-12.5 11.7-19.9C66.5 213.9 146.5 183 256 183c66.4 0 128.5 11.5 174.7 32.4 19.6 8.9 35.3 18.9 45.4 29 7.4 7.4 11.8 14.9 11.8 20.2 0 3.8.1 7.7.2 11.6.4 17.4.9 37-7.8 45.7-6.3 6.3-18.9 8.5-37.3 6.5-26-2.8-41.1-7.7-47.5-15.2-5.7-6.8-6.1-18.2-6-33.8V273c.1-17.6-11.6-30.5-34.7-38.2z"></path></svg>
