<svg xmlns="http://www.w3.org/2000/svg" viewBox="0 0 512 512"><path fill="#383851" d="M412.6 373.7l9.1-6.8c2.2-1.6 2.7-4.8 1-7-1.6-2.2-4.8-2.7-7-1l-7.7 5.7-14.7-28.9 9.1-6.8c2.2-1.6 2.7-4.8 1-7-1.6-2.2-4.8-2.7-7-1l-7.7 5.7-2.9-5.7c14.1-22.9 22.3-49.1 23.9-76 1.7-28.7-4.3-57.4-17.4-83.2-40.6-80.2-139-112.4-219.2-71.8-38.9 19.7-67.7 53.3-81.3 94.7-13.6 41.4-10.2 85.6 9.5 124.4 13.1 25.9 32.8 47.8 57.1 63.4 22.7 14.6 48.9 23.4 75.8 25.5l15.9 31.4-9.5 7.1c-2.2 1.6-2.7 4.8-1 7 1 1.3 2.5 2 4 2 1 0 2.1-.3 3-1l8.2-6.1 14.7 28.9-9.5 7.1c-2.2 1.6-2.7 4.8-1 7 1 1.3 2.5 2 4 2 1 0 2.1-.3 3-1l8.2-6.1 8 15.7c.6 1.2 1.6 2.1 2.9 2.5.5.2 1 .2 1.5.2.8 0 1.5-.2 2.3-.5l31-15.7 14.7 29.1c.6 1.2 1.6 2.1 2.9 2.5.5.2 1 .2 1.5.2.8 0 1.5-.2 2.3-.5l10.3-5.2 64.5-32.7c2.5-1.2 3.4-4.2 2.2-6.7l-13.8-27.3-.9-1.8 28.1-14.2c2.5-1.2 3.4-4.2 2.2-6.7l-21.3-41.4zm-169.8 19.1c-.1-.3-.3-.6-.5-.8-.6-2-2.3-3.4-4.5-3.6-26.2-1.6-51.8-10-73.9-24.2-22.8-14.6-41.3-35.2-53.6-59.5-18.5-36.5-21.7-78-8.9-116.8s39.8-70.5 76.3-88.9c75.3-38.2 167.6-7.9 205.8 67.4 12.3 24.2 17.9 51.2 16.3 78.1-1.5 26.1-9.8 51.6-23.9 73.6-1.2 1.9-1 4.2.4 5.8.1.4.2.7.4 1.1l3.9 7.8-42.4 31.4-38.2-75.4c-1.5 1.5-3.2 2.8-5 4 13.9-13.5 18.1-34.9 8.9-53-3.5-7-8.7-12.8-15.1-17.1-3.4-2.3-7.2-4.2-11.2-5.5-11.5-3.8-23.8-2.8-34.6 2.6-10.8 5.5-18.8 14.8-22.6 26.3-3.8 11.5-2.8 23.8 2.6 34.6 5.5 10.8 14.8 18.8 26.3 22.6 3.7 1.2 7.5 1.9 11.2 2.2l.3.9 42.4 83.7-45 33.4-15.4-30.7zm68.8-8.7L271.5 305c4.3-.8 8.6-2.2 12.6-4.2 3-1.5 5.7-3.3 8.2-5.4l37.9 74.8v.1l-18.6 13.8zm-64-155.3c5-2.5 10.5-3.8 15.9-3.8 3.7 0 7.4.6 11 1.8 9 2.9 16.3 9.2 20.5 17.6 8.8 17.4 1.8 38.7-15.6 47.5-8.4 4.3-18 5-27 2.1-1-.3-2.1-.7-3.1-1.2-7.6-3.3-13.7-9-17.5-16.5-4.3-8.4-5-18-2.1-27 2.5-7.7 7.4-14.1 14.1-18.5 1.4-.7 2.6-1.4 3.8-2zM263 432.5l122.3-90.8 14.7 28.9-122.3 90.8-14.7-28.9zm131.6 8.3l.9 1.8 11.6 22.9-60 30.4-5.9 3-12.5-24.6 30.5-15.5 35.4-18zm-41.1 9.7l-33.7 17.1-31 15.7-6.5-12.8 122.3-90.8 18.1 35.7-69.2 35.1z"/><path fill="#F9B843" d="M407.03 465.439l-60.032 30.413-11.568-22.835 60.031-30.413z"/><path fill="#F9B843" d="M416 472.1l-64.5 32.7.9 1.8 74.8-37.9-17-33.5-5.9 3 13.8 27.3c1.3 2.3.3 5.3-2.1 6.6z"/><path fill="#24C785" d="M236.4 277.8c3.2 6.2 7.7 11.3 13.1 15 1 .4 2 .8 3.1 1.2 9 2.9 18.6 2.2 27-2.1 17.4-8.8 24.4-30.1 15.6-47.5-4.3-8.4-11.6-14.7-20.5-17.6-3.6-1.2-7.3-1.8-11-1.8-5.5 0-10.9 1.3-15.9 3.8-1.2.6-2.4 1.3-3.6 2.1-12.3 12-15.9 30.9-7.8 46.9z"/><path fill="#24C785" d="M308.4 241.3c-4.3-8.6-11.3-14.9-19.5-18.6 6.3 4.3 11.5 10.1 15.1 17.1 9.2 18.1 5 39.6-8.9 53 1.8-1.2 3.5-2.6 5-4 12.7-11.9 16.6-31.2 8.3-47.5z"/><path fill="#383851" d="M59.3 264.7c-.2-2.7-2.6-4.8-5.4-4.6l-46.2 3.6c-2.7.3-4.7 2.7-4.5 5.4.2 2.6 2.4 4.6 5 4.6h.4l46.2-3.6c2.7-.3 4.7-2.7 4.5-5.4zM85.9 127.8c.9.8 2 1.1 3.2 1.1 1.4 0 2.9-.6 3.8-1.8 1.7-2.1 1.4-5.3-.7-7L64.2 97c-2.1-1.7-5.3-1.4-7 .7-1.7 2.1-1.4 5.3.7 7l28 23.1zM117.6 394.4l-28.3 34.3c-1.7 2.1-1.4 5.3.7 7 .9.8 2 1.1 3.2 1.1 1.4 0 2.9-.6 3.8-1.8l28.3-34.3c1.7-2.1 1.4-5.3-.7-7-2.1-1.7-5.2-1.4-7 .7zM17.6 181.9l32 10.5c.5.2 1 .2 1.6.2 2.1 0 4-1.3 4.7-3.4.9-2.6-.6-5.4-3.2-6.3l-32-10.5c-2.6-.9-5.4.6-6.3 3.2-.9 2.6.6 5.4 3.2 6.3zM71.7 331.3l-41.2 20.9c-2.5 1.2-3.4 4.2-2.2 6.7.9 1.7 2.6 2.7 4.4 2.7.8 0 1.5-.2 2.2-.5l41.2-20.9c2.5-1.2 3.4-4.2 2.2-6.7-1.1-2.5-4.1-3.5-6.6-2.2zM383.2 103.5c1.4 0 2.8-.6 3.8-1.7l30.2-35.1c1.8-2.1 1.6-5.2-.5-7-2.1-1.8-5.2-1.6-7 .5l-30.2 35.1c-1.8 2.1-1.6 5.2.5 7 .9.8 2.1 1.2 3.2 1.2zM248.9 48h.3c2.7-.2 4.8-2.5 4.7-5.2l-2-36.3c-.2-2.7-2.5-4.9-5.2-4.7-2.7.2-4.8 2.5-4.7 5.2l2 36.3c.1 2.6 2.3 4.7 4.9 4.7zM494.5 223.5l-44.4 2.5c-2.7.2-4.8 2.5-4.7 5.2.1 2.7 2.3 4.7 5 4.7h.3l44.4-2.5c2.7-.2 4.8-2.5 4.7-5.2-.2-2.7-2.6-4.9-5.3-4.7zM318 64.3c.5.2 1 .2 1.6.2 2.1 0 4-1.3 4.7-3.4l14.3-43.8c.9-2.6-.6-5.4-3.2-6.3-2.6-.9-5.4.6-6.3 3.2L314.8 58c-.8 2.6.6 5.4 3.2 6.3zM156.8 69.5c.9 1.7 2.6 2.7 4.4 2.7.8 0 1.5-.2 2.2-.5 2.5-1.2 3.4-4.2 2.2-6.7l-15.9-31.3c-1.2-2.5-4.2-3.4-6.7-2.2-2.5 1.2-3.4 4.2-2.2 6.7l16 31.3zM428.6 161.1c.8 0 1.5-.2 2.2-.5l41.2-20.9c2.5-1.2 3.4-4.2 2.2-6.7-1.2-2.5-4.2-3.4-6.7-2.2l-41.2 20.9c-2.5 1.2-3.4 4.2-2.2 6.7.9 1.7 2.6 2.7 4.5 2.7z"/><path fill="#24C785" d="M257.5 132.1c9.4-.7 23.8 0 39.2 7.3 14.6 7 23.9 17.1 29.2 24.3 1 1.3 2.5 2.1 4 2.1 1 0 2-.3 2.9-1 2.2-1.6 2.7-4.7 1.1-7-5.9-8.2-16.5-19.6-33-27.5-17.3-8.3-33.6-9.1-44.2-8.2-2.7.2-4.8 2.6-4.6 5.3.2 2.8 2.6 4.9 5.4 4.7z"/></svg>