<?xml version="1.0" encoding="utf-8"?>
<!-- Generator: Adobe Illustrator 19.2.0, SVG Export Plug-In . SVG Version: 6.00 Build 0)  -->
<svg version="1.1" id="Layer_2" xmlns="http://www.w3.org/2000/svg" xmlns:xlink="http://www.w3.org/1999/xlink" x="0px" y="0px"
	 viewBox="0 0 512 512" style="enable-background:new 0 0 512 512;" xml:space="preserve">
<g>
	<path d="M301.5,304.3l-0.1-0.4c-3.3-11.8,7.4-40.7,19.7-61.8l0.1-0.1l0.1-0.1c2.2-2.4,8-8.9,13.5-17.1c10.6-16,15.5-30.7,14.6-43.8
		c-0.6-8.3-3.4-15.7-8.4-22l-0.4-0.5l0.1-0.6c1.5-10,2.9-25.4,0.9-42.3c-2.3-20.4-8.8-37.7-19.3-51.6C303.9,39.4,274.3,27,234.5,27
		c-40,0-69.6,12.5-88.2,37c-10.4,13.8-16.8,31.1-19.1,51.3c-1.9,16.8-0.6,32.2,0.9,42l0.1,0.6l-0.4,0.5c-5.1,6.4-7.9,13.9-8.5,22.1
		c-0.9,13.2,4.1,27.9,14.7,43.6c6.4,9.4,12.3,15.7,13.4,16.9l0.1,0.1l0.1,0.1c12.2,20.8,22.9,49.4,19.6,61.1
		c-1,3.6-8.9,12.7-31.6,23.9c-6.3,3.1-16.9,7.9-31.1,12.9l-0.2,0.1l-0.2,0c-30.7,2.7-55.2,15.2-72.8,37.2
		C-5.9,422.9,2.5,494.7,2.6,495.4l1.8,14.2h273.9c8.8,0,16-7.2,16-16c0-8.8-7.2-15.9-16-15.9h-244h-1.4l0-1.4
		c0.2-45,14.3-69.1,22.6-79.5c12.6-15.6,30-24.1,53.3-25.8l1.9-0.1l1.7-0.5c0.2-0.1,17.9-5.8,36.5-14.9
		c28.1-13.9,43.9-28.2,48.3-43.9c3.8-13.3,1.6-31-6.5-52.5c-6.3-16.7-14.3-30.7-17.5-36l-1-1.6l-1.3-1.3c-9-9.2-21.2-26.8-20.5-37.2
		c0.1-1.9,0.7-3.9,4-6.4l8.5-6.3l-2.6-10.5l0,0l0,0l0,0c-1.1-4.9-9.8-48.4,10.8-75.9c12.4-16.4,33.9-24.8,63.8-24.8
		c29.7,0,51,8.3,63.3,24.6c22,29,11.1,76,10.9,76.5l-2.6,10.4l8.4,6.3c3.2,2.4,3.7,4.4,3.9,6.4l0,0l0,0
		c0.7,10.5-11.5,28.3-20.5,37.6l-1.3,1.4l-1,1.7c-5.6,9.3-32.8,57.5-24.1,89.1c0.1,0.2,0.1,0.3,0.2,0.5c0,0.2,0.1,0.3,0.1,0.4
		c1.8,5.4,6.9,9,12.6,9c1.4,0,2.9-0.2,4.2-0.7l3.9-1.3C299.7,318.6,303.5,311.4,301.5,304.3L301.5,304.3z"/>
	<path d="M511,383.5c-2.1-6.4-7.6-11.2-14.3-12.4l-46.8-9.1l-23.1-42c-3.3-6-9.6-9.8-16.4-9.8c-6.9,0-13.2,3.8-16.4,9.8l-23,42.1
		l-46.8,9.1c-6.7,1.3-12.1,6-14.2,12.5c-2.1,6.5-0.6,13.6,4.1,18.6l32.7,35.2l-5.9,47.7c-0.9,6.8,2,13.5,7.5,17.5
		c3.2,2.4,7.1,3.6,11,3.6c2.7,0,5.5-0.6,8-1.8l43.2-20.4l43.2,20.4c6.2,2.9,13.5,2.3,19-1.8c5.5-4,8.4-10.7,7.5-17.4l-5.9-47.8
		l32.6-35.2C511.6,397.2,513.2,390,511,383.5z M451.5,421.7L451.5,421.7c-3.8,4.2-5.6,9.7-4.8,15.1l4.5,36.1l-32.7-15.4l-0.4-0.2
		c-4.9-2.1-10.2-2.1-15.1,0l-33.1,15.6l4.5-36.1c0.7-5.4-1-10.9-4.8-14.9l-25-26.8l35.6-6.9c5.5-1.1,10.1-4.5,12.7-9.4l17.4-31.8
		l17.5,31.8c2.6,4.8,7.2,8.2,12.6,9.3l35.8,6.9L451.5,421.7z"/>
</g>
</svg>
