<?xml version="1.0" encoding="utf-8"?>
<!-- Generator: Adobe Illustrator 19.1.0, SVG Export Plug-In . SVG Version: 6.00 Build 0)  -->
<svg version="1.1" id="Layer_1" xmlns="http://www.w3.org/2000/svg" xmlns:xlink="http://www.w3.org/1999/xlink" x="0px" y="0px"
	 viewBox="0 0 512 512" enable-background="new 0 0 512 512" xml:space="preserve">
<g>
	<path fill="#7594CC" d="M331.2,418c0-41.5,24.2-77.4,59.2-94.3c-17.4-14.3-39.4-23.9-67.3-23.3H190.4c0,0-103.1,0-122.4,135.9
		h264.8C331.7,430.3,331.2,424.2,331.2,418z"/>
	<path fill="#135282" d="M354,434.6H69.9c10.2-68.2,42.1-100.5,67.3-115.7c27.5-16.6,53-16.8,53.3-16.8h132.8
		c25.4-0.6,47.7,7.3,66.9,23.4c0.9-0.6,1.9-1.2,2.8-1.7c-20.1-17-43.6-25.6-69.8-25H190.4h0c-1.1,0-26.6,0.2-54.8,17.2
		c-47.2,28.4-63.7,81-69.3,120.1l-0.3,1.9h289.3C354.8,436.8,354.4,435.7,354,434.6z"/>
	<polygon fill="#FFF2E9" points="258.6,427.8 215.5,300.6 307.1,300.6 	"/>
	<path fill="#135282" d="M307.1,300.6l-48.5,127.2l-43.1-127.2H307.1 M311.9,297.3h-4.8h-91.6h-4.6l1.5,4.4l43.1,127.2l3,8.8
		l3.3-8.6l48.5-127.2L311.9,297.3L311.9,297.3z"/>
	<path fill="#3A3A3A" d="M349.5,110.3c0,0-1.9-25.2,13.6-35.2c0,0-22.3,14-25.4,31.9"/>
	<path fill="#3A3A3A" d="M325.3,103.6c0,0,1.9-25.2-13.6-35.2c0,0,22.3,14,25.4,31.9"/>
	<ellipse fill="#F2CB98" cx="173.3" cy="223.4" rx="23.8" ry="27.2"/>
	<ellipse fill="#F2CB98" cx="348.2" cy="223.4" rx="23.8" ry="27.2"/>
	<path opacity="0.15" d="M354.7,181c0-37-29.3-64-94.8-64s-94.8,27-94.8,64s-6.8,134.3,94.8,134.3S354.7,218,354.7,181z"/>
	<path fill="#FFE0B1" d="M354.7,176c0-37-29.3-64-94.8-64s-94.8,27-94.8,64s-6.8,134.3,94.8,134.3S354.7,213,354.7,176z"/>
	<path fill="#3A3A3A" d="M338.1,99.5c0,0-35.2-44.7-108.3-27.9c-73.1,16.9-78.6,60.8-76.4,103.6c2.2,42.8,8.1,67.9,15,64.8
		c6.9-3.1,3.3-31.4,4.1-37.9s7.3-36,51.8-31.6c44.5,4.4,82-11.7,82-11.7s15.1,19.1,25,22.7c19.8,7.3,13.3,56,21.1,56
		C360.1,237.6,398.2,125.2,338.1,99.5z"/>
	<ellipse fill="#3B2519" cx="213.7" cy="225.2" rx="10.3" ry="11.2"/>
	<ellipse fill="#3B2519" cx="307.4" cy="225.2" rx="10.3" ry="11.2"/>
	<ellipse fill="#58AADB" cx="258.5" cy="373.4" rx="5.9" ry="6.5"/>
	<path fill="#135282" d="M258.5,381.5c-4.2,0-7.6-3.6-7.6-8.1s3.4-8.1,7.6-8.1c4.2,0,7.6,3.6,7.6,8.1S262.7,381.5,258.5,381.5z
		 M258.5,368.6c-2.3,0-4.2,2.2-4.2,4.8s1.9,4.8,4.2,4.8s4.2-2.2,4.2-4.8S260.9,368.6,258.5,368.6z"/>
	<ellipse fill="#58AADB" cx="258.5" cy="341.8" rx="5.9" ry="6.5"/>
	<path fill="#135282" d="M258.5,349.9c-4.2,0-7.6-3.6-7.6-8.1c0-4.5,3.4-8.1,7.6-8.1c4.2,0,7.6,3.6,7.6,8.1
		C266.1,346.3,262.7,349.9,258.5,349.9z M258.5,337c-2.3,0-4.2,2.2-4.2,4.8c0,2.6,1.9,4.8,4.2,4.8s4.2-2.2,4.2-4.8
		C262.8,339.2,260.9,337,258.5,337z"/>
	<path fill="#FBBB83" d="M259.9,290.1c-3.5,0-5.6-2.6-5.6-1.4s1,3.7,5.6,3.7c4.6,0,5.6-2.4,5.6-3.7S263.4,290.1,259.9,290.1z"/>
	<path fill="#F0595A" d="M259.9,280.8c-16.1,0-25.8-6.5-25.8-4.9s4.6,8.2,25.8,8.2s25.8-6.5,25.8-8.2
		C285.7,274.3,276,280.8,259.9,280.8z"/>
	<path fill="#51362A" d="M292,205c0,0,6.2-9.6,30.5-1"/>
	<path fill="#51362A" d="M198.9,205c0,0,6.2-9.6,30.5-1"/>
	<path fill="#174F82" d="M351.1,438.1H40c-1.4,0-2.5-1.1-2.5-2.5c0-1.4,1.1-2.5,2.5-2.5h311.2c1.4,0,2.5,1.1,2.5,2.5
		C353.6,437,352.5,438.1,351.1,438.1z"/>
	<circle fill="#D7DBE0" cx="402.9" cy="394.4" r="52"/>
	<path fill="#155082" d="M402.8,449c-11.7,0-23.1-3.8-32.7-11c-11.6-8.8-19.2-21.5-21.2-36c-2-14.4,1.7-28.8,10.4-40.4
		c8.8-11.6,21.5-19.2,36-21.2c14.4-2,28.8,1.7,40.4,10.4c11.6,8.8,19.2,21.5,21.2,36c2,14.4-1.7,28.8-10.4,40.4
		c-8.8,11.6-21.5,19.2-36,21.2C408,448.8,405.4,449,402.8,449z M403,344.9c-2.3,0-4.7,0.2-7,0.5c-27.1,3.8-46,28.9-42.1,56
		c1.8,13.1,8.7,24.7,19.3,32.7c10.6,8,23.6,11.3,36.7,9.5c27.1-3.8,46-28.9,42.1-56c-1.8-13.1-8.7-24.7-19.3-32.7
		C424.1,348.3,413.7,344.9,403,344.9z"/>
	<path fill="#155082" d="M476.5,473.2c-0.7,0-1.4-0.3-1.8-0.8l-36.3-40c-0.9-1-0.9-2.6,0.2-3.5c1-0.9,2.6-0.8,3.5,0.2l36.3,40
		c0.9,1,0.9,2.6-0.2,3.5C477.7,472.9,477.1,473.2,476.5,473.2z"/>
	<path fill="#174F82" d="M368,397.1c0,0-0.1,0-0.1,0c-1.4-0.1-2.4-1.3-2.3-2.6c0-0.4,2.5-35.6,33.3-36c1.4,0,2.5,1.1,2.5,2.5
		c0,1.4-1.1,2.5-2.5,2.5c-11,0.1-19.1,5.4-24.1,15.6c-3.8,7.8-4.3,15.7-4.3,15.7C370.4,396.1,369.3,397.1,368,397.1z"/>
</g>
</svg>
