<?xml version="1.0" encoding="utf-8"?>
<!-- Generator: Adobe Illustrator 19.1.0, SVG Export Plug-In . SVG Version: 6.00 Build 0)  -->
<svg version="1.1" id="Layer_1" xmlns="http://www.w3.org/2000/svg" xmlns:xlink="http://www.w3.org/1999/xlink" x="0px" y="0px"
	 viewBox="0 0 512 512" enable-background="new 0 0 512 512" xml:space="preserve">
<path fill="#1D1D1B" d="M82.3,495.4V138.1h57.9c4.5,0,8.2-3.7,8.2-8.2c0-4.5-3.7-8.2-8.2-8.2H82.3V83.3h95.9c4.5,0,8.2-3.7,8.2-8.2
	c0-4.5-3.7-8.2-8.2-8.2H82.3V16.4h244.5v148.2c0,3.4,2.1,6.4,5.1,7.6c1,0.4,2,0.6,3.1,0.6c4.5,0,8.2-3.7,8.2-8.2V8.2
	c0-4.5-3.7-8.2-8.2-8.2H74.1c-4.5,0-8.2,3.7-8.2,8.2v495.4c0,4.5,3.7,8.2,8.2,8.2h121.7c4.5,0,8.2-3.7,8.2-8.2
	c0-3.4-2.1-6.4-5.1-7.6c-1-0.4-2-0.6-3.1-0.6H82.3z"/>
<path fill="#1D1D1B" d="M437.9,190.6H324.3h-86.4c-4.5,0-8.2,3.7-8.2,8.2v222.1v82.8c0,4.5,3.7,8.2,8.2,8.2h62.6h74.8h62.6
	c4.5,0,8.2-3.7,8.2-8.2V198.8C446.2,194.3,442.5,190.6,437.9,190.6z M308.8,388.8h58.4v106.6h-58.4V388.8z M429.7,495.4h-46.1V380.6
	c0-4.5-3.7-8.2-8.2-8.2h-74.8c-4.5,0-8.2,3.7-8.2,8.2v114.9h-46.1V316.1h38.7c4.5,0,8.2-3.7,8.2-8.2c0-4.5-3.7-8.2-8.2-8.2h-38.7
	v-38.4h65.4c4.5,0,8.2-3.7,8.2-8.2c0-4.5-3.7-8.2-8.2-8.2h-65.4v-37.8h183.6V495.4z"/>
</svg>
