<?xml version="1.0" encoding="utf-8"?>
<!-- Generator: Adobe Illustrator 19.2.0, SVG Export Plug-In . SVG Version: 6.00 Build 0)  -->
<svg version="1.1" id="Layer_1" xmlns="http://www.w3.org/2000/svg" xmlns:xlink="http://www.w3.org/1999/xlink" x="0px" y="0px"
	 viewBox="0 0 512 512" style="enable-background:new 0 0 512 512;" xml:space="preserve">
<g>
	<path d="M162.8,415l-9.3-30.5h-46.8L97.4,415l-29.3-3.6l45.3-125.3h33.3L192.2,415H162.8z M147,361.6c-8.6-27.7-13.4-43.3-14.5-47
		c-1.1-3.6-1.9-6.5-2.3-8.6c-1.9,7.5-7.5,26-16.6,55.6H147z"/>
	<path d="M262.8,307.4c-10.2,0-18.2,3.8-23.8,11.5c-5.6,7.7-8.4,18.4-8.4,32.2c0,28.6,10.7,42.9,32.2,42.9c9,0,19.9-2.3,32.7-6.8
		V410c-10.5,4.4-22.3,6.6-35.3,6.6c-18.7,0-32.9-5.7-42.8-17c-9.9-11.3-14.8-27.6-14.8-48.8c0-13.3,2.4-25,7.3-35.1
		c4.9-10,11.8-17.7,20.9-23.1c9.1-5.4,19.8-8,32-8c12.5,0,25,3,37.6,9l-8.8,22.1c-4.8-2.3-9.6-4.3-14.5-6
		C272.2,308.3,267.5,307.4,262.8,307.4z"/>
	<path d="M428,415h-27.1v-55.4H350V415h-27.2V286.6H350v50.3h50.8v-50.3H428V415z"/>
</g>
<path d="M0,205.3v292c0,6.6,5.4,12,12,12h488c6.6,0,12-5.4,12-12v-292c0-6.6-5.4-12-12-12H12C5.4,193.3,0,198.7,0,205.3z
	 M480.3,418.4c-5.3-1.5-9.6-2.3-14.7-2.3c-25.6,0-46.4,20.8-46.4,46.4c0,5.2,0.9,9.8,2.4,14.8H83.2c1.1-4,1.7-7.7,1.7-11.7
	c0-23.3-19.1-42.3-42.4-42.3c-3.5,0-6.4,0.4-10.4,1.2V277.1c4,0.8,6.7,1.2,10.2,1.2c23.2,0,42.2-19,42.2-42.3
	c0-3.6-0.4-6.7-1.2-10.7h338.6c-1.6,5-2.4,9.8-2.4,15c0,25.6,20.8,46.5,46.4,46.5c5,0,9.4-0.7,14.4-2.2V418.4z"/>
</svg>
