<?xml version="1.0" encoding="utf-8"?>
<!-- Generator: Adobe Illustrator 19.2.0, SVG Export Plug-In . SVG Version: 6.00 Build 0)  -->
<svg version="1.1" id="Layer_1" xmlns="http://www.w3.org/2000/svg" xmlns:xlink="http://www.w3.org/1999/xlink" x="0px" y="0px"
	 viewBox="0 0 512 512" style="enable-background:new 0 0 512 512;" xml:space="preserve">
<path d="M255.8,512c-7.8,0-15.6-0.4-23.3-1.1c-8.8-0.8-15.1-7.4-15.1-15.7c0-8.4,7-15.7,15-15.7c0.4,0,0.8,0,1.2,0.1
	c7.1,0.7,14.3,1,21.5,1c43.8,0,86.1-12.3,122.3-35.5c33.6-21.5,60.9-51.7,78.9-87.3c19.1-37.5,27.1-80,23.2-122.9
	c-3.9-43.2-19.7-83.4-45.6-116.4C391,63.9,324.3,31.3,255.4,31.3c-14.9,0-29.7,1.5-44.1,4.6C167.8,45,128.8,65.8,98.4,96
	c-29.8,29.6-50.7,66.4-60.5,106.7c-10.1,41.6-8.3,84.9,5.4,125.2c13.1,38.6,37.6,74.4,68.9,100.6l1.6,1.3l0.5-62.6
	c0.1-8.7,6.9-15.3,15.8-15.3c4.4,0,8.5,1.7,11.4,4.6c2.8,2.8,4.3,6.6,4.2,10.9l-0.8,95.1c-0.1,8.6-7.1,15.6-15.6,15.6L36,477.3
	c-8.8-0.1-15.4-6.9-15.3-15.8c0-8.9,6.6-15.5,15.3-15.5l48.9,0.4l-1.9-1.7c-3.6-3.2-7-6.6-10.2-9.9c-33.8-34.9-56.9-78.9-67-127.2
	c-10.1-48.7-6.2-98.2,11.5-143.2C34.4,120.8,61.8,83.3,96.6,56c38-29.8,83-48.6,130.2-54.1c9.6-1.1,19.3-1.7,29-1.7
	c40.2,0,80.6,9.8,117,28.4c36.5,18.7,68.2,45.9,91.7,78.7c26.9,37.5,43,82.1,46.6,129c3.6,46.8-5.4,93.4-26,134.6
	c-20.6,41.1-51.8,75.9-90.1,100.5C353.2,497.9,305.2,512,255.8,512z M353.8,320.5c-2.5,0-4.9-0.6-7.2-1.8L248,269.6
	c-5.2-2.4-8.5-7.3-8.5-13.1V108.4c0-8.4,7.1-14.7,16-14.7s16,6.3,16,14.7v137.7l90.4,45.2c6.3,3.2,9.3,9.6,7.8,16.3
	C367.9,315.1,361.2,320.5,353.8,320.5z"/>
</svg>
