<svg id="9c4a7fa1-953f-46ac-b52b-afb831232a3b" data-name="Layer 1" xmlns="http://www.w3.org/2000/svg" viewBox="0 0 797.5 797">
  <title>Action-Log</title>
  <rect x="385" y="117" width="164" height="42"/>
  <rect x="109" y="412" width="140" height="42"/>
  <rect x="109" y="495" width="140" height="42"/>
  <rect x="109" y="578" width="166" height="42"/>
  <rect x="385" y="194" width="164" height="36"/>
  <path d="M735.93,679.93A193,193,0,0,0,776,562c0-107-87-194-194-194S388,455,388,562s87,194,194,194a192.83,192.83,0,0,0,99.49-27.51L850,897l51.5-51.5ZM582,706c-79.4,0-144-64.6-144-144s64.6-144,144-144,144,64.6,144,144S661.4,706,582,706Z" transform="translate(-104 -108)"/>
  <path d="M669,108H376.62a4.68,4.68,0,0,1-2.19.75L104.09,379.09l.09-.37-.18.11V811a94,94,0,0,0,94,94H571V860H198a49.08,49.08,0,0,1-49-49V418.5H294.39a120.13,120.13,0,0,0,120-120V153H669a49.08,49.08,0,0,1,49,49V359h45V202A94,94,0,0,0,669,108ZM383.38,298.51a89.09,89.09,0,0,1-89,89H162.12L383.38,163.72Z" transform="translate(-104 -108)"/>
</svg>
