<svg data-name="7627a4c4-6f9c-48f2-8576-8d1ab685a0a6" xmlns="http://www.w3.org/2000/svg" viewBox="0 0 92.98 93.02">
  <path d="M69,25V36H65.85a8,8,0,0,0-8,7.34l-.06.72-.55-.47A8,8,0,0,0,46.41,44L44,46.41a8,8,0,0,0-.41,10.8l.47.55-.72.06a8,8,0,0,0-7.34,8v3.33a8,8,0,0,0,7.34,8l.72.06-.47.55A8,8,0,0,0,42.31,86H8a8,8,0,0,1-8-8V58.51a11,11,0,1,0,0-17V25a8,8,0,0,1,8-8H24.78a11,11,0,1,1,18.44,0H61A8,8,0,0,1,69,25Z" transform="translate(0 0)" />
  <path d="M91.17,63.83l-1.28-.11L86,63.39l-1.2-.1a17.54,17.54,0,0,0-2.08-5l.78-.92,2.53-3,.83-1a2,2,0,0,0-.11-2.71l-2.37-2.37a2,2,0,0,0-2.71-.11l-1,.83-3,2.53-.92.78a17.54,17.54,0,0,0-5-2.08l-.1-1.2-.33-3.91-.11-1.28a2,2,0,0,0-2-1.83H65.82a2,2,0,0,0-2,1.83l-.11,1.28L63.39,49l-.1,1.2a17.54,17.54,0,0,0-5,2.08l-.92-.78-3-2.53-1-.83a2,2,0,0,0-2.71.11l-2.37,2.37a2,2,0,0,0-.11,2.71l.83,1,2.53,3,.78.92a17.54,17.54,0,0,0-2.08,5l-1.2.1-3.91.33-1.28.11a2,2,0,0,0-1.83,2v3.36a2,2,0,0,0,1.83,2l1.28.11,3.91.33,1.2.1a17.54,17.54,0,0,0,2.08,5l-.78.92-2.53,3-.83,1a2,2,0,0,0,.11,2.71L49.93,86l.72.72a2,2,0,0,0,2.71.11l1-.82,3-2.53.92-.78a17.54,17.54,0,0,0,5,2.08l.08.87V86l.33,3.91.11,1.28a2,2,0,0,0,2,1.83h3.36a2,2,0,0,0,2-1.83l.11-1.28L71.61,86l.1-1.2a17.54,17.54,0,0,0,5-2.08l.92.78,3,2.53,1,.83a2,2,0,0,0,2.71-.11l2.37-2.37a2,2,0,0,0,.11-2.71l-.83-1-2.53-3-.78-.92a17.54,17.54,0,0,0,2.08-5l1.2-.1,3.91-.33,1.28-.11a2,2,0,0,0,1.83-2V65.82A2,2,0,0,0,91.17,63.83Zm-17.54,9.8a8.67,8.67,0,1,1,2.54-6.13A8.63,8.63,0,0,1,73.63,73.63Z" transform="translate(0 0)" />
</svg>
