<?xml version="1.0" encoding="utf-8"?>
<!-- Generator: Adobe Illustrator 19.1.0, SVG Export Plug-In . SVG Version: 6.00 Build 0)  -->
<svg version="1.1" id="Layer_1" xmlns="http://www.w3.org/2000/svg" xmlns:xlink="http://www.w3.org/1999/xlink" x="0px" y="0px"
	 viewBox="0 0 512 512" enable-background="new 0 0 512 512" xml:space="preserve">
<g>
	<path fill="#58AADB" d="M415.9,428.6l-20.5-122.5h-0.1c-2.8-16.6-14.2-33.7-33.6-39.1c-0.2-0.1-0.5-0.1-0.7-0.2l-47.7-7.2
		c-0.3,0-0.9-0.1-1.2-0.1c-3,0-5.6,2.3-5.9,5.2c-2.5,20.6-19.6,36.8-41.6,41.3h-24c-22-4.4-39-20.6-41.6-41.3
		c-0.4-3.1-3.2-5.4-6.1-5.2c-0.4,0-0.7,0-1.1,0.1l-47.7,7.2c-0.2,0-0.5,0.1-0.7,0.2c-19.4,5.4-30.8,22.6-33.6,39.1h-0.1L89.4,428.6
		c-4.2,22.2,12.8,42.8,35.5,42.8h1.5H379h1.5C403.1,471.4,420.2,450.8,415.9,428.6z"/>
	<path fill="#175083" d="M380.5,473.7H124.9c-11.5,0-22.2-5.1-29.5-13.9c-7.3-8.8-10.3-20.4-8.1-31.6L108,303.9h0.1
		c3.1-14.8,13.9-33.2,34.9-39.1c0.3-0.1,0.7-0.2,1-0.2l47.7-7.2c0.5-0.1,1-0.1,1.4-0.1c4.1-0.1,7.8,3.1,8.3,7.2
		c2.4,19.1,18.2,34.9,39.5,39.3h23.5c21.3-4.4,37.2-20.2,39.5-39.3c0.5-4.1,4-7.2,8.2-7.2c0.2,0,1,0,1.6,0.1l47.7,7.2
		c0.3,0,0.7,0.1,1,0.2c21,5.9,31.7,24.3,34.9,39.1h0l0.4,1.9l20.5,122.4c2.1,11.3-0.8,22.8-8.1,31.6
		C402.7,468.6,391.9,473.7,380.5,473.7z M111.8,308.4L91.6,429c-1.9,10,0.7,20.2,7.2,28c6.4,7.8,15.9,12.3,26.1,12.3h255.6
		c10.1,0,19.6-4.5,26.1-12.3c6.4-7.8,9.1-18,7.2-27.9l0-0.1l-20.2-120.8l-0.3-1.6c-2.4-13.8-12.2-31.8-32-37.3
		c-0.1,0-0.3-0.1-0.4-0.1l-47.7-7.2c-0.1,0-0.6,0-0.9,0c-1.9,0-3.5,1.4-3.7,3.3c-2.6,21.1-20,38.5-43.3,43.2l-0.4,0l-24.4,0
		c-23.3-4.7-40.8-22.1-43.3-43.2c-0.2-1.9-1.9-3.4-3.7-3.3l-0.1,0l-0.1,0c-0.2,0-0.3,0-0.6,0l-47.7,7.2c-0.2,0-0.3,0.1-0.5,0.1
		c-19.8,5.6-29.6,23.6-32,37.3L111.8,308.4z"/>
	<path fill="#FDC88E" d="M252.7,253.6c-20.9,0-39.8-9-53.8-23.4c0,8.7-0.3,21.2-2.6,30.4c1.5,0.9,2.7,2.4,2.9,4.3
		c3,24.3,26,42.6,53.5,42.6c27.5,0,50.5-18.3,53.5-42.6c0.2-1.9,1.4-3.4,2.9-4.3c-2.3-9.1-2.6-21.7-2.6-30.4
		C292.5,244.7,273.6,253.6,252.7,253.6z"/>
	<path fill="#175083" d="M252.7,309.7c-28.7,0-52.6-19.2-55.8-44.6c-0.1-1.1-0.8-2-1.8-2.7l-1.4-0.9l0.4-1.6
		c2.5-10.1,2.6-24.9,2.6-29.8l0-5.6l3.9,4c14.2,14.7,32.7,22.8,52.2,22.8c19.5,0,38-8.1,52.2-22.8l3.9-4l0,5.6
		c0,13.3,0.9,23,2.6,29.8l0.4,1.6l-1.4,0.9c-0.6,0.4-1.7,1.2-1.8,2.7C305.3,290.6,281.3,309.7,252.7,309.7z M198.8,259.6
		c1.5,1.3,2.4,3.1,2.6,5c2.8,23.1,24.9,40.6,51.3,40.6c26.4,0,48.4-17.5,51.3-40.6c0.2-1.9,1.2-3.7,2.6-5
		c-1.7-7.5-2.2-16.6-2.3-24.1c-14.5,13.2-32.6,20.4-51.6,20.4s-37.1-7.2-51.6-20.4C200.9,243.1,200.4,252.2,198.8,259.6z"/>
	<path fill="#D8DCE1" d="M360.9,471.4H144.4c-5,0-9-4-9-9V345.1c0-5,4-9,9-9h216.5c5,0,9,4,9,9v117.3
		C370,467.4,365.9,471.4,360.9,471.4z"/>
	<path fill="#175083" d="M360.9,473.7H144.4c-6.2,0-11.3-5.1-11.3-11.3V345.1c0-6.2,5.1-11.3,11.3-11.3h216.5
		c6.2,0,11.3,5.1,11.3,11.3v117.3C372.2,468.6,367.2,473.7,360.9,473.7z M144.4,338.4c-3.7,0-6.8,3-6.8,6.8v117.3
		c0,3.7,3,6.8,6.8,6.8h216.5c3.7,0,6.8-3,6.8-6.8V345.1c0-3.7-3-6.8-6.8-6.8H144.4z"/>
	<circle fill="#FFFFFF" cx="252.7" cy="408.3" r="18"/>
	<path fill="#175083" d="M252.7,428.6c-11.2,0-20.3-9.1-20.3-20.3s9.1-20.3,20.3-20.3c11.2,0,20.3,9.1,20.3,20.3
		S263.9,428.6,252.7,428.6z M252.7,392.5c-8.7,0-15.8,7.1-15.8,15.8c0,8.7,7.1,15.8,15.8,15.8c8.7,0,15.8-7.1,15.8-15.8
		C268.5,399.6,261.4,392.5,252.7,392.5z"/>
	<path fill="#FFE1B2" d="M282.9,275.3c48.6-21.2,39.9-71.7,39.9-71.7c1.8-16.8-2.5-87.8-2.5-87.8c-81.5-6.3-88.8-14-88.8-14
		c-20.5,40.5-53.9,41.1-53.9,41.1c-6.2,16.5,2.4,61.7,2.4,61.7c-4.1,48.2,33.5,68,42.1,71.8c1.1,0.5,1.7,0.7,1.7,0.7L282.9,275.3z"
		/>
	
		<rect x="320.2" y="156" transform="matrix(0.1826 0.9832 -0.9832 0.1826 430.9579 -177.8058)" fill="#7E5449" width="4.5" height="28.5"/>
	<path fill="#FDC88E" d="M322.9,156.9c0,0,41.5,19.4-0.9,48.3L322.9,156.9z"/>
	<path fill="#FDC88E" d="M179.7,205c0,0-40.6-15.5-4.1-48.7L179.7,205z"/>
	
		<rect x="167.7" y="164.6" transform="matrix(0.9881 0.154 -0.154 0.9881 27.8677 -26.0299)" fill="#7E5449" width="28.5" height="4.5"/>
	<path fill="#7E5449" d="M167.8,174.6c-4.3-4.1-7.7-20.1,1-73.5c0-0.2,0.1-0.3,0.1-0.5c0.9-3.2,11.9-37.3,55.6-41.6
		c0,0,88.8-14.5,111.1,42.3c0,0.1,0,0.1,0.1,0.2c0.9,1.9,16.9,37.6-5.5,87.7c-1.8,4-7.8,2.8-7.9-1.6l-1-51.2c0-2.2-1.8-3.9-3.9-4
		c-14.5-0.5-65.6-3.8-81.9-23.7c-1.9-2.3-5.5-2-6.8,0.7c-4.9,9.9-17.3,26.7-47.5,34.7c-1.6,0.4-2.7,1.7-3,3.4l-3.6,24.7
		C174.1,175.3,170.2,176.8,167.8,174.6z"/>
	<ellipse fill="#3C2D26" cx="215.4" cy="180.3" rx="8.4" ry="9.3"/>
	<ellipse fill="#3C2D26" cx="286.9" cy="180.3" rx="8.4" ry="9.3"/>
	<path fill="#F79A6B" d="M235.8,231.3h32.5c1.7,0,2.7,2,1.6,3.4c-5.4,6.3-18.9,17.7-35.5,0.1C233.1,233.4,234,231.3,235.8,231.3z"/>
	<path fill="#7E5449" d="M229.8,205.3H203c-6.7,0-12.1-5.4-12.1-12.1v-26.8c0-6.7,5.4-12.1,12.1-12.1h26.8c6.7,0,12.1,5.4,12.1,12.1
		v26.8C241.9,199.9,236.5,205.3,229.8,205.3z M203,158.8c-4.2,0-7.6,3.4-7.6,7.6v26.8c0,4.2,3.4,7.6,7.6,7.6h26.8
		c4.2,0,7.6-3.4,7.6-7.6v-26.8c0-4.2-3.4-7.6-7.6-7.6H203z"/>
	<path fill="#7E5449" d="M300.3,205.8h-26.8c-6.7,0-12.1-5.4-12.1-12.1v-26.8c0-6.7,5.4-12.1,12.1-12.1h26.8
		c6.7,0,12.1,5.4,12.1,12.1v26.8C312.4,200.4,306.9,205.8,300.3,205.8z M273.5,159.3c-4.2,0-7.6,3.4-7.6,7.6v26.8
		c0,4.2,3.4,7.6,7.6,7.6h26.8c4.2,0,7.6-3.4,7.6-7.6v-26.8c0-4.2-3.4-7.6-7.6-7.6H273.5z"/>
	<rect x="238.5" y="168.8" fill="#7E5449" width="25.9" height="4.5"/>
	<path fill="#7E5449" d="M206.9,70.7c0,0,1.5-20.2-10.9-28.1c0,0,17.9,11.2,20.4,25.6"/>
	<path fill="#7E5449" d="M226.3,65.4c0,0-1.5-20.2,10.9-28.1c0,0-17.9,11.2-20.4,25.6"/>
	<path fill="#FFFFFF" d="M177,77.9"/>
	<path fill="#174F82" d="M456.9,474H54.2c-0.9,0-1.7-0.8-1.7-1.7s0.8-1.7,1.7-1.7h402.8c0.9,0,1.7,0.8,1.7,1.7S457.8,474,456.9,474z
		"/>
</g>
</svg>
