<svg xmlns="http://www.w3.org/2000/svg" width="32" height="32" viewBox="0 0 32 32"><title>whats-new</title><path fill="#ff6e2c" d="M22.03 3.47c-.655-.338-1.443-.282-2.043.15L8.48 11.824H4.788c-2.538 0-4.6 2.063-4.6 4.6 0 2.012 1.3 3.725 3.1 4.35v3.144c0 1.362 1.106 2.468 2.47 2.468s2.468-1.106 2.468-2.47v-2.893h.256L20 29.15c.337.238.738.363 1.13.363.307 0 .62-.075.907-.22.63-.324 1.03-.955 1.063-1.662.725-3.68 1.094-7.44 1.1-11.19.006-3.78-.37-7.58-1.1-11.3-.03-.712-.43-1.343-1.07-1.67zM1.7 16.424c0-1.7 1.387-3.088 3.087-3.088h3.15v6.175h-3.15c-1.7 0-3.087-1.383-3.087-3.083zm5.013 7.494c0 .524-.425.955-.956.955S4.8 24.45 4.8 23.92v-2.895h1.907v2.894zM21.6 27.393l-.012.075v.074c0 .17-.094.325-.244.4-.075.038-.27.113-.47-.03L9.45 19.856v-6.863l11.42-8.15c.205-.144.4-.075.468-.03.075.036.244.155.244.405v.074l.012.075c.72 3.636 1.087 7.362 1.08 11.068.007 3.67-.355 7.356-1.074 10.956zm9.52-11.756h-5.39c-.42 0-.756.338-.756.756s.337.756.756.756h5.387c.418 0 .755-.34.755-.76s-.337-.757-.756-.757zm-5.126-3.725c.144 0 .288-.044.42-.125L29.37 9.83c.35-.23.442-.7.21-1.05s-.7-.442-1.05-.21l-2.956 1.955c-.35.23-.444.7-.212 1.05.15.22.387.338.63.338zM29.37 22.83l-2.957-1.955c-.35-.23-.82-.137-1.05.212s-.137.82.212 1.05l2.956 1.956c.136.087.28.125.42.125.248 0 .49-.12.63-.337.236-.35.136-.814-.21-1.05z"/></svg>
