<?xml version="1.0" encoding="utf-8"?>
<!-- Generator: Adobe Illustrator 21.0.2, SVG Export Plug-In . SVG Version: 6.00 Build 0)  -->
<svg version="1.1" id="Layer_1" xmlns="http://www.w3.org/2000/svg" xmlns:xlink="http://www.w3.org/1999/xlink" x="0px" y="0px"
	 viewBox="0 0 1000 1000" enable-background="new 0 0 1000 1000" xml:space="preserve">
<path d="M732.1,641.4V97.6c0-15.7-12.9-28.6-28.6-28.6H141.6C125.9,69,113,81.9,113,97.6v792.8c0,15.7,12.9,28.6,28.6,28.6h468.6
	c28.7,26.7,67.1,43,109.4,43c88.7,0,160.5-71.9,160.5-160.5C880.1,717,814.9,647.8,732.1,641.4z M141.6,899c-4.7,0-8.6-3.9-8.6-8.6
	V97.6c0-4.7,3.9-8.6,8.6-8.6h561.9c4.7,0,8.6,3.9,8.6,8.6v543.5C626.9,644.9,559,715.3,559,801.5c0,36.7,12.3,70.5,33,97.5H141.6z
	 M818.9,900.8c-26.5,26.6-61.8,41.2-99.4,41.2c-27.8,0-54.4-8-77.1-23c-7.9-5.2-15.4-11.3-22.2-18.2c-0.6-0.6-1.2-1.2-1.8-1.8
	c-25.4-26.3-39.4-60.8-39.4-97.5c0-37.5,14.6-72.8,41.2-99.4c24.8-24.8,57.2-39.2,92-41c2.5-0.1,4.9-0.2,7.4-0.2
	c4.2,0,8.4,0.2,12.6,0.6c32.8,2.9,63.2,17.1,86.8,40.6c26.6,26.5,41.2,61.8,41.2,99.4C860.1,839,845.5,874.3,818.9,900.8z"/>
<path d="M597.8,219.5v34.8c0,6.6-5.4,12-12,12H259.3c-6.6,0-12-5.4-12-12v-34.8c0-6.6,5.4-12,12-12h326.5
	C592.4,207.5,597.8,212.9,597.8,219.5z"/>
<path d="M657.6,368.5v1.2c0,6.6-5.4,12-12,12H199.5c-6.6,0-12-5.4-12-12v-1.2c0-6.6,5.4-12,12-12h446.1
	C652.2,356.5,657.6,361.9,657.6,368.5z"/>
<path d="M360.7,437.8v1.2c0,6.6-5.4,12-12,12H199.5c-6.6,0-12-5.4-12-12v-1.2c0-6.6,5.4-12,12-12h149.2
	C355.2,425.8,360.7,431.2,360.7,437.8z"/>
<path d="M657.6,437.8v1.2c0,6.6-5.4,12-12,12H381c-6.6,0-12-5.4-12-12v-1.2c0-6.6,5.4-12,12-12h264.6
	C652.2,425.8,657.6,431.2,657.6,437.8z"/>
<path d="M657.6,504.9v1.2c0,6.6-5.4,12-12,12H516.4c-6.6,0-12-5.4-12-12v-1.2c0-6.6,5.4-12,12-12h129.2
	C652.2,492.9,657.6,498.3,657.6,504.9z"/>
<path d="M495,504.9v1.2c0,6.6-5.4,12-12,12H199.5c-6.6,0-12-5.4-12-12v-1.2c0-6.6,5.4-12,12-12H483C489.6,492.9,495,498.3,495,504.9
	z"/>
<path d="M573.7,573.1v1.2c0,6.6-5.4,12-12,12H278.2c-6.6,0-12-5.4-12-12v-1.2c0-6.6,5.4-12,12-12h283.5
	C568.3,561.1,573.7,566.5,573.7,573.1z"/>
<path d="M298.6,730.2c-1-4.4-2.6-8.7-4.6-12.7s-4.4-7.9-7.1-11.5c-2.8-3.6-5.8-7-9.7-9.5c-1-0.6-2-1.2-3.1-1.6
	c-1.1-0.4-2.5-0.5-3.7-0.1c-0.9,0.3-1.7,1-2.3,1.7c-2.2-2.2-4.7-4.3-7.3-6c-1.9-1.3-3.9-2.4-6.2-3.2c-2.2-0.8-4.6-1.3-7.1-0.9
	c-1.2,0.2-2.4,0.6-3.5,1.2c-1.1,0.6-2.1,1.3-2.9,2.1c-1.8,1.6-3.2,3.5-4.3,5.5c-1.2,2.1-2.1,4.3-2.8,6.7l-1.5-0.2
	c-1.1-0.2-2.3-0.2-3.4-0.2c-2.3,0-4.6,0.1-6.9,0.5c-4.5,0.7-9,2.3-12.7,5.2c-1.8,1.4-3.4,3.3-4.4,5.4c-1.1,2.1-1.5,4.5-1.5,6.8
	c0.1,4.7,1.9,9.1,4.1,13c2.3,3.9,5.2,7.5,8.5,10.6c1.7,1.6,3.4,3,5.3,4.3c1,0.6,1.9,1.2,3,1.7c1,0.5,2.1,0.9,3.3,1.1
	c0.3,0.1,0.6,0.1,0.9,0.1c0.3,0,0.6,0,0.9-0.1c0.6-0.1,1.2-0.4,1.7-0.8c0.9-0.8,1.4-2,1.8-3c0.7-2.2,0.9-4.5,0.9-6.8
	c0.1-4.2-0.2-8.5-0.7-12.6c0.7,2.8,1.6,5.6,2.8,8.2c1.9,4.2,4.5,8,7.4,11.6c1.5,1.8,3,3.5,4.7,5c1.7,1.5,3.5,3,5.9,3.9
	c0.6,0.2,1.3,0.3,2,0.3c0.4,0,0.7-0.1,1.1-0.2c0.3-0.2,0.7-0.3,1-0.5c1.1-0.9,1.8-2,2.3-3.1c1-2.2,1.4-4.5,1.6-6.8
	c0.5-4.6,0.2-9.2-0.6-13.7c-0.4-2.2-1-4.5-1.7-6.7c-0.7-2.2-1.6-4.3-2.7-6.3c-2.1-4.1-5-7.8-8.6-10.8c-1.8-1.4-3.8-2.7-5.9-3.6
	l-0.8-0.4l-0.8-0.3l-1.6-0.6c-1.1-0.3-2.2-0.7-3.4-0.8h0c0.7-2.1,1.5-4.2,2.6-6.1c1.1-1.9,2.3-3.7,3.9-5.1c0.8-0.7,1.6-1.3,2.5-1.8
	c0.9-0.5,1.9-0.9,2.9-1c2-0.4,4.2,0.1,6.2,0.8c2,0.7,4,1.8,5.8,3c2.6,1.7,5,3.8,7.3,6c-0.5,0.8-0.8,1.6-1.1,2.4
	c-0.8,2.2-1.2,4.5-1.3,6.8c-0.1,2.3,0.1,4.6,0.7,6.9c0.6,2.2,1.7,4.5,3.6,6.1c2,1.5,4.4,2.1,6.8,2.1c1.2,0,2.5-0.2,3.6-1.1
	c0.3-0.2,0.5-0.5,0.8-0.8c0.2-0.3,0.4-0.6,0.5-1c0.2-0.7,0.3-1.3,0.2-2c0-1.3-0.4-2.4-0.8-3.5c-0.4-1.1-0.9-2.2-1.4-3.2
	c-2.1-4.1-4.9-7.8-7.9-11.2c-0.7-0.7-1.3-1.5-2-2.2c0.5-0.6,1.1-1.2,1.8-1.4c0.9-0.3,1.9-0.2,2.9,0.1c1,0.3,2,0.8,2.9,1.4
	c3.7,2.4,6.8,5.7,9.5,9.2c2.8,3.5,5.2,7.3,7.2,11.3c2,4,3.7,8.2,4.8,12.5c2.1,8.7,1.7,18-0.9,26.6C300,748.4,300.6,739,298.6,730.2z
	 M232.4,708.1c-0.5,3.3-0.7,6.6-0.5,10c-0.3-1.8-0.6-3.7-0.9-5.5c0.4,2.4,0.7,4.9,1,7.3c0.1,1.2,0.2,2.4,0.4,3.6
	c0.1,0.8,0.2,1.7,0.3,2.5c0.4,4.5,0.8,9,0.5,13.5c-0.1,2.2-0.4,4.5-1,6.6c-0.4,1-0.8,2-1.6,2.7c-0.8,0.7-1.8,0.8-2.9,0.6
	c-1.1-0.2-2.1-0.6-3.1-1.1c-1-0.5-1.9-1.1-2.8-1.7c-1.8-1.3-3.5-2.7-5.1-4.3c-3.2-3.1-6-6.7-8.2-10.5c-2.2-3.8-3.8-8.1-3.9-12.5
	c0-2.2,0.4-4.3,1.4-6.2c1-1.9,2.4-3.6,4.1-4.9c3.5-2.6,7.7-4.1,12.1-4.8c2.2-0.4,4.4-0.4,6.6-0.4c1.1,0.1,2.2,0.1,3.3,0.2l1.2,0.2
	C233,704.8,232.7,706.4,232.4,708.1z M237,704l1.6,0.4l1.5,0.6l0.8,0.3l0.7,0.4c2,0.9,3.8,2.1,5.5,3.4c1.7,1.3,3.2,3,4.6,4.7
	c1.4,1.7,2.5,3.6,3.5,5.5c1,2,1.8,4,2.5,6.1c0.7,2.1,1.2,4.2,1.6,6.4c0.8,4.3,1,8.8,0.6,13.2c-0.3,2.2-0.6,4.3-1.5,6.2
	c-0.4,1-1,1.8-1.6,2.3c-0.3,0.2-0.6,0.4-1.1,0.4c-0.4,0-0.8-0.1-1.3-0.2c-1.9-0.7-3.6-2.1-5.2-3.5c-1.6-1.5-3.1-3.1-4.5-4.8
	c-2.8-3.4-5.2-7.2-7-11.2c-3.6-8-4.7-17.1-3.4-25.9c0.2-1.6,0.6-3.2,1-4.8l0.1,0C236,703.7,236.5,703.8,237,704z M269.6,700.6
	c3,3.3,5.6,6.9,7.7,10.8c1,1.9,1.9,4,2,6c0,1-0.1,1.9-0.8,2.3c-0.7,0.5-1.7,0.8-2.8,0.8c-2.1,0.1-4.3-0.5-5.8-1.7
	c-1.6-1.3-2.6-3.2-3.2-5.3c-0.6-2.1-0.8-4.3-0.8-6.5c0.1-2.2,0.4-4.4,1.1-6.4c0.2-0.7,0.5-1.3,0.8-1.9
	C268.4,699.3,269,700,269.6,700.6z"/>
<g>
	<polygon points="800.3,791 800.3,813 731.1,813 731.1,882.2 709,882.2 709,813 639.8,813 639.8,791 709,791 709,721.7 731.1,721.7 
		731.1,791 	"/>
</g>
</svg>
