<?xml version="1.0" encoding="utf-8"?>
<!-- Generator: Adobe Illustrator 21.0.2, SVG Export Plug-In . SVG Version: 6.00 Build 0)  -->
<svg version="1.1" id="Layer_1" xmlns="http://www.w3.org/2000/svg" xmlns:xlink="http://www.w3.org/1999/xlink" x="0px" y="0px"
	 viewBox="0 0 512 512" enable-background="new 0 0 512 512" xml:space="preserve">
<path d="M226.4,233.6c58.9,0,106.8-47.9,106.8-106.8S285.3,20,226.4,20c-58.9,0-106.8,47.9-106.8,106.8S167.5,233.6,226.4,233.6z
	 M226.4,52.2c41.1,0,74.5,33.4,74.5,74.5s-33.4,74.5-74.5,74.5s-74.5-33.4-74.5-74.5S185.3,52.2,226.4,52.2z"/>
<path d="M350,316l10.8-30.4c-14.7-5.2-30.1-7.8-45.8-7.8H137.7c-75.5,0-137,61.5-137,137v56.5H33v-56.5C33,357,80,310,137.7,310H315
	C327,310,338.8,312,350,316z"/>
<polygon points="487.5,324.4 373.5,438.4 322.1,387 299.3,409.8 373.5,484 510.3,347.2 "/>
</svg>
