<?xml version="1.0" encoding="utf-8"?>
<!-- Generator: Adobe Illustrator 19.1.0, SVG Export Plug-In . SVG Version: 6.00 Build 0)  -->
<svg version="1.1" id="Layer_1" xmlns="http://www.w3.org/2000/svg" xmlns:xlink="http://www.w3.org/1999/xlink" x="0px" y="0px"
	 viewBox="0 0 512 512" style="enable-background:new 0 0 512 512;" xml:space="preserve">
<path d="M256,32c30.3,0,59.6,5.9,87.2,17.6c26.7,11.3,50.6,27.4,71.2,48c20.6,20.6,36.7,44.5,48,71.2c11.7,27.6,17.6,56.9,17.6,87.2
	s-5.9,59.6-17.6,87.2c-11.3,26.7-27.4,50.6-48,71.2c-20.6,20.6-44.5,36.7-71.2,48C315.6,474.1,286.3,480,256,480
	s-59.6-5.9-87.2-17.6c-26.7-11.3-50.6-27.4-71.2-48c-20.6-20.6-36.7-44.5-48-71.2C37.9,315.6,32,286.3,32,256s5.9-59.6,17.6-87.2
	c11.3-26.7,27.4-50.6,48-71.2c20.6-20.6,44.5-36.7,71.2-48C196.4,37.9,225.7,32,256,32 M256,0C114.6,0,0,114.6,0,256
	s114.6,256,256,256s256-114.6,256-256S397.4,0,256,0L256,0z"/>
<path d="M288.8,356.4c-3.9,0-7.7-1.5-10.6-4.4c-5.8-5.8-5.8-15.4,0-21.3l74.5-74.6l-74.5-74.6c-5.8-5.8-5.8-15.4,0-21.3
	c5.8-5.8,15.4-5.8,21.3,0l85.2,85.2c5.8,5.8,5.8,15.4,0,21.3l-85.2,85.2C296.5,354.8,292.7,356.4,288.8,356.4z"/>
<path d="M366,272H119c-8.8,0-16-7.2-16-16c0-8.8,7.2-16,16-16h247c8.8,0,16,7.2,16,16C382,264.8,374.8,272,366,272z"/>
</svg>
