<?xml version="1.0" encoding="utf-8"?>
<!-- Generator: Adobe Illustrator 19.2.0, SVG Export Plug-In . SVG Version: 6.00 Build 0)  -->
<svg version="1.1" id="Layer_1" xmlns="http://www.w3.org/2000/svg" xmlns:xlink="http://www.w3.org/1999/xlink" x="0px" y="0px"
	 viewBox="0 0 512 512" style="enable-background:new 0 0 512 512;" xml:space="preserve">
<path d="M501.2,265.4l-105.4,62.8c-7,4.2-15.8-0.8-15.8-9v-30.7h-50.7c-3.1,0-6.3,1.3-8.6,3.4L287.5,323c-2.5,2.4-4,5.7-4,9.2V385
	h33.2c8.2,0,13.2,8.9,9,15.8l-63,105.1c-4.1,6.8-13.9,6.8-17.9,0l-63-105.1c-4.2-7,0.8-15.8,9-15.8H225v-52.6c0-3.6-1.5-6.9-4.1-9.2
	l-34.1-31.3c-2.3-2.1-5.3-3.4-8.5-3.4h-49.8v30.7c0,8.2-8.9,13.2-15.8,9L7,265.4c-6.8-4.1-6.8-13.9,0-18l105.4-62.8
	c7-4.2,15.8,0.8,15.8,9v30.9H178c3.1,0,6.2-1.2,8.5-3.4l34.1-31.5c2.6-2.4,4.1-5.8,4.1-9.2V128h-34.2c-8.2,0-13.2-8.9-9-15.8
	l63-105.1c4.1-6.8,13.9-6.8,17.9,0l63,105.1c4.2,7-0.8,15.8-9,15.8h-33.2v52.5c0,3.5,1.5,6.8,4,9.1l33.2,31.4
	c2.3,2.2,5.5,3.5,8.6,3.5h50.7v-30.9c0-8.2,8.9-13.2,15.8-9L501,247.4C508,251.5,508,261.3,501.2,265.4z"/>
</svg>
