<?xml version="1.0" encoding="utf-8"?>
<!-- Generator: Adobe Illustrator 19.2.0, SVG Export Plug-In . SVG Version: 6.00 Build 0)  -->
<svg version="1.1" id="Layer_1" xmlns="http://www.w3.org/2000/svg" xmlns:xlink="http://www.w3.org/1999/xlink" x="0px" y="0px"
	 viewBox="0 0 512 512" style="enable-background:new 0 0 512 512;" xml:space="preserve">
<path d="M189.5,116.9c4.2,0,8.3,1.6,11.5,4.5c3.3,3,5.1,7.1,5.3,11.6c0.1,4.5-1.4,8.7-4.5,12L64.5,292.4l-9.7,10.4H69h426.3
	c9.2,0,16.7,7.5,16.7,16.7c0,9.2-7.5,16.7-16.7,16.7H71H56.3l10.4,10.5l135.1,136.9c6.4,6.5,6.3,17.1-0.3,23.6
	c-3.1,3.1-7.2,4.8-11.6,4.8c-4.5,0-8.8-1.8-11.9-5L5.4,331.6c-0.2-0.3-0.4-0.5-0.6-0.8c-0.4-0.5-0.8-0.9-1.1-1.2
	c-0.1-0.1-0.2-0.2-0.3-0.4c-0.1-0.1-0.2-0.2-0.2-0.3c-0.1-0.2-0.2-0.4-0.3-0.5c0-0.1-0.1-0.1-0.1-0.2l-0.4-0.8L2,327.1l-0.3-0.6
	l-0.1-0.1c-0.2-0.4-0.3-0.7-0.4-0.9l-0.1-0.1c-0.1-0.2-0.2-0.5-0.4-0.9l-0.1-0.1c0-0.1,0-0.1-0.1-0.2c-0.1-0.2-0.1-0.6-0.2-1
	c0-0.2-0.1-0.4-0.2-0.7c0-0.1,0-0.2,0-0.3c0-0.3-0.1-0.6-0.1-1V321v-0.8L0,319.7c0-0.1,0-0.2,0-0.2v-0.1v-0.7v-1
	c0.1-0.3,0.1-0.7,0.1-1.2c0.1-0.2,0.1-0.4,0.1-0.5c0.1-0.3,0.2-0.7,0.2-0.9l0.3-0.7v-0.5c0-0.1,0-0.1,0.1-0.1l0.1-0.1
	c0.2-0.3,0.3-0.6,0.4-0.9l0.1-0.1c0.1-0.3,0.3-0.6,0.3-0.8c0.3-0.5,0.5-0.9,0.6-1.1l0.1-0.1c0.1-0.2,0.2-0.4,0.4-0.6
	c0.2-0.2,0.3-0.4,0.4-0.5l0.5-0.5l0.1-0.3l0.3-0.3l0.1-0.1l0.1-0.1l173-185.9C180.5,118.8,184.8,116.9,189.5,116.9L189.5,116.9"/>
</svg>
