<svg data-name="e65c233b-c291-4da2-ae17-7255a2bbc178" xmlns="http://www.w3.org/2000/svg" viewBox="0 0 683.72 619.6"><path d="M606.5,33V61.7c-16.2-.1-32.3-.3-48.5-.3V48.5H48.5V339.6h8.4a373.65,373.65,0,0,1,1,48.5H33a33,33,0,0,1-33-33V33A33,33,0,0,1,33,0H573.5A33,33,0,0,1,606.5,33Z" /><polygon points="557 619.6 207.1 619.6 240.5 560.4 273.8 501.3 490.3 501.3 523.7 560.4 557 619.6" />
<path d="M683.6,112.4c-.1-.6-.1-1.1-.2-1.7l-.3-1.5a.37.37,0,0,0-.1-.3l-.3-1.5a26.54,26.54,0,0,0-1.2-3.7c-.1-.1-.1-.3-.2-.4-.2-.4-.3-.8-.5-1.3s-.5-1-.7-1.4a2.51,2.51,0,0,0-.4-.7,10,10,0,0,0-.8-1.4c-.3-.5-.6-.9-.9-1.4l-.53-.75c-.22-.32-.46-.63-.71-.94-.54-.71-1.1-1.39-1.66-2-.2-.2-.3-.4-.5-.6l-.6-.6a15.07,15.07,0,0,0-2.3-2.1c-.4-.3-.8-.7-1.2-1s-.9-.6-1.3-.9a1.61,1.61,0,0,0-.7-.4,10,10,0,0,0-1.4-.8,33.7,33.7,0,0,0-9.9-3.7l-1.5-.3a8.81,8.81,0,0,0-1.7-.2c-1.1-.1-2.2-.2-3.4-.2H110.3c-1.2,0-2.3.1-3.5.2a8.75,8.75,0,0,0-1.6.2l-1.5.3A33.7,33.7,0,0,0,93.8,87c-.5.3-.9.5-1.4.8-.2.1-.5.3-.7.4-.4.3-.9.6-1.3.9s-.8.7-1.2,1c-.8.7-1.6,1.4-2.3,2.1l-.6.6a2.65,2.65,0,0,0-.5.6,33.66,33.66,0,0,0-2.9,3.7c-.3.5-.6.9-.9,1.4s-.5.9-.8,1.4c-.1.2-.3.5-.4.7-.2.5-.5,1-.7,1.4a5,5,0,0,0-.5,1.3c-.1.1-.1.3-.2.4a22.85,22.85,0,0,0-1.2,3.7l-.3,1.5a.37.37,0,0,1-.1.3l-.3,1.5a8.81,8.81,0,0,0-.2,1.7c-.1,1.1-.2,2.2-.2,3.4V438a33,33,0,0,0,33,33H650.6a33,33,0,0,0,33-33V115.8A12.9,12.9,0,0,0,683.6,112.4ZM635.3,422.5H125.8V131.3H635.3Z" /></svg>
