<svg id="30726b4f-80df-40e8-8b3b-f1bb40d17881" data-name="ce194fe3-0fcd-4b61-9a41-8c31c15a270e" xmlns="http://www.w3.org/2000/svg" viewBox="0 0 69.6 74.9"><title>Associate-Sites</title><path d="M2.7,57.1a18,18,0,0,0,.8,2.1L4.4,61a5.94,5.94,0,0,1,.4.8c.1.2.3.5.4.7.5.8,1,1.6,1.6,2.4.2.1.4.4.6.6s.4.5.6.8A37.58,37.58,0,0,0,36.5,80.5h1.9A37.57,37.57,0,0,0,72.2,57.1Zm5.4,2.3H21.3A53.43,53.43,0,0,0,31.8,76.2,33.54,33.54,0,0,1,8.1,59.4ZM35.4,74a53.62,53.62,0,0,1-9.7-14.7h9.7Zm4-14.6h9.4a51.6,51.6,0,0,1-9.4,14.2Zm3,16.9a54,54,0,0,0,6.15-7.92,57.77,57.77,0,0,0,4.65-9H66.5A33.36,33.36,0,0,1,42.4,76.3Z" transform="translate(-2.6 -5.6)"/><path d="M41.5,5.8a28.15,28.15,0,0,0-4.1-.2A37.51,37.51,0,0,0,2.6,29H72.2A37.41,37.41,0,0,0,41.5,5.8ZM8.3,27a33.55,33.55,0,0,1,24-16.6A65.61,65.61,0,0,0,21.8,27Zm27.1,0H26.2a62.2,62.2,0,0,1,9.2-14.1Zm4,0V13a59.1,59.1,0,0,1,9.1,14Zm3-16.6A33.55,33.55,0,0,1,66.4,27H52.8A65.25,65.25,0,0,0,42.4,10.4Z" transform="translate(-2.6 -5.6)"/><polygon points="23.43 30.52 19.78 45.55 16.56 45.55 13.56 34.32 10.58 45.55 7.29 45.55 3.7 30.52 6.8 30.52 9.07 40.85 11.82 30.52 15.43 30.52 18.06 41.02 20.37 30.52 23.43 30.52"/><polygon points="45.24 30.52 41.59 45.55 38.37 45.55 35.38 34.32 32.39 45.55 29.1 45.55 25.51 30.52 28.62 30.52 30.89 40.85 33.63 30.52 37.24 30.52 39.88 41.02 42.19 30.52 45.24 30.52"/><polygon points="67.06 30.52 63.41 45.55 60.19 45.55 57.19 34.32 54.21 45.55 50.92 45.55 47.33 30.52 50.44 30.52 52.7 40.85 55.45 30.52 59.06 30.52 61.69 41.02 64 30.52 67.06 30.52"/></svg>