<?xml version="1.0" encoding="utf-8"?>
<!-- Generator: Adobe Illustrator 21.0.2, SVG Export Plug-In . SVG Version: 6.00 Build 0)  -->
<svg version="1.1" id="Layer_1" xmlns="http://www.w3.org/2000/svg" xmlns:xlink="http://www.w3.org/1999/xlink" x="0px" y="0px"
	 viewBox="0 0 1000 1000" enable-background="new 0 0 1000 1000" xml:space="preserve">
<path d="M927.5,319.4c-23.4-55.2-56.8-104.9-99.4-147.5c-42.6-42.6-92.2-76.1-147.5-99.4C623.4,48.3,562.7,36,500,36
	S376.6,48.3,319.4,72.5c-55.2,23.4-104.9,56.8-147.5,99.4c-42.6,42.6-76.1,92.2-99.4,147.5C48.3,376.6,36,437.3,36,500
	s12.3,123.4,36.5,180.6c23.4,55.2,56.8,104.9,99.4,147.5c42.6,42.6,92.2,76.1,147.5,99.4c57.2,24.2,118,36.5,180.6,36.5
	s123.4-12.3,180.6-36.5c55.2-23.4,104.9-56.8,147.5-99.4c42.6-42.6,76.1-92.2,99.4-147.5c24.2-57.2,36.5-118,36.5-180.6
	S951.7,376.6,927.5,319.4z M315.2,276.2c7.5-7.5,17.9-12.2,29.3-12.2h311c22.9,0,41.5,18.6,41.5,41.5c0,11.5-4.6,21.8-12.2,29.3
	c-7.5,7.5-17.9,12.2-29.3,12.2h-311c-22.9,0-41.5-18.6-41.5-41.5C303,294,307.6,283.7,315.2,276.2z M240.7,453.2
	c7.5-7.5,17.9-12.2,29.3-12.2h460c22.9,0,41.5,18.6,41.5,41.5c0,11.5-4.6,21.8-12.2,29.3c-7.5,7.5-17.9,12.2-29.3,12.2H270
	c-22.9,0-41.5-18.6-41.5-41.5C228.5,471,233.1,460.7,240.7,453.2z M830.3,688.8c-7.5,7.5-17.9,12.2-29.3,12.2H199
	c-22.9,0-41.5-18.6-41.5-41.5c0-11.5,4.6-21.8,12.2-29.3c7.5-7.5,17.9-12.2,29.3-12.2h602c22.9,0,41.5,18.6,41.5,41.5
	C842.5,671,837.9,681.3,830.3,688.8z"/>
</svg>
