<?xml version="1.0" encoding="utf-8"?>
<!-- Generator: Adobe Illustrator 21.0.2, SVG Export Plug-In . SVG Version: 6.00 Build 0)  -->
<svg version="1.1" id="Layer_1" xmlns="http://www.w3.org/2000/svg" xmlns:xlink="http://www.w3.org/1999/xlink" x="0px" y="0px"
	 viewBox="0 0 1000 1000" enable-background="new 0 0 1000 1000" xml:space="preserve">
<path d="M936.8,315.5L936.8,315.5c-23.9-56.4-58-107.1-101.6-150.7c-43.5-43.5-94.2-77.7-150.7-101.6C626.1,38.5,564,26,500,26
	S373.9,38.5,315.5,63.2c-56.4,23.9-107.1,58-150.7,101.6c-43.5,43.5-77.7,94.2-101.6,150.7C38.5,373.9,26,436,26,500
	s12.5,126.1,37.2,184.5c23.9,56.4,58,107.1,101.6,150.7c43.5,43.5,94.2,77.7,150.7,101.6C373.9,961.5,436,974,500,974
	s126.1-12.5,184.5-37.2c56.4-23.9,107.1-58,150.7-101.6c43.5-43.5,77.7-94.2,101.6-150.7C961.5,626.1,974,564,974,500
	S961.5,373.9,936.8,315.5z M918.3,676.7C895.5,730.8,862.7,779.3,821,821c-41.7,41.7-90.3,74.4-144.3,97.3
	C620.8,942,561.3,954,500,954s-120.8-12-176.7-35.7c-54-22.9-102.6-55.6-144.3-97.3c-41.7-41.7-74.4-90.3-97.3-144.3
	C58,620.8,46,561.3,46,500s12-120.8,35.7-176.7c22.9-54,55.6-102.6,97.3-144.3c41.7-41.7,90.3-74.4,144.3-97.3
	C379.2,58,438.7,46,500,46s120.8,12,176.7,35.7c54,22.9,102.6,55.6,144.3,97.3c41.7,41.7,74.4,90.3,97.3,144.3
	C942,379.2,954,438.7,954,500S942,620.8,918.3,676.7z"/>
<path d="M842.5,659.5c0,11.5-4.6,21.8-12.2,29.3c-7.5,7.5-17.9,12.2-29.3,12.2H199c-22.9,0-41.5-18.6-41.5-41.5
	c0-11.5,4.6-21.8,12.2-29.3c7.5-7.5,17.9-12.2,29.3-12.2h602C823.9,618,842.5,636.6,842.5,659.5z"/>
<path d="M771.5,482.5c0,11.5-4.6,21.8-12.2,29.3c-7.5,7.5-17.9,12.2-29.3,12.2H270c-22.9,0-41.5-18.6-41.5-41.5
	c0-11.5,4.6-21.8,12.2-29.3c7.5-7.5,17.9-12.2,29.3-12.2h460C752.9,441,771.5,459.6,771.5,482.5z"/>
<path d="M697,305.5c0,11.5-4.6,21.8-12.2,29.3c-7.5,7.5-17.9,12.2-29.3,12.2h-311c-22.9,0-41.5-18.6-41.5-41.5
	c0-11.5,4.6-21.8,12.2-29.3c7.5-7.5,17.9-12.2,29.3-12.2h311C678.4,264,697,282.6,697,305.5z"/>
</svg>
