<?xml version="1.0" encoding="utf-8"?>
<!-- Generator: Adobe Illustrator 19.2.0, SVG Export Plug-In . SVG Version: 6.00 Build 0)  -->
<svg version="1.1" id="Layer_1" xmlns="http://www.w3.org/2000/svg" xmlns:xlink="http://www.w3.org/1999/xlink" x="0px" y="0px"
	 viewBox="0 0 512 512" style="enable-background:new 0 0 512 512;" xml:space="preserve">
<g>
	<path d="M104,64h16c4.4,0,8-3.6,8-8V8c0-4.4-3.6-8-8-8h-16c-4.4,0-8,3.6-8,8v48C96,60.4,99.6,64,104,64z"/>
	<path d="M264,64h16c4.4,0,8-3.6,8-8V8c0-4.4-3.6-8-8-8h-16c-4.4,0-8,3.6-8,8v48C256,60.4,259.6,64,264,64z"/>
	<path d="M72,160h88h64h96h56c4.4,0,8-3.6,8-8V96V72c0-4.4-3.6-8-8-8h-48c-4.4,0-8,3.6-8,8v16c0,4.4-3.6,8-8,8h-80c-4.4,0-8-3.6-8-8
		V72c0-4.4-3.6-8-8-8h-48c-4.4,0-8,3.6-8,8v16c0,4.4-3.6,8-8,8H72c-4.4,0-8-3.6-8-8V72c0-4.4-3.6-8-8-8H8c-4.4,0-8,3.6-8,8v24v64
		v248c0,4.4,3.6,8,8,8h24h32h88c4.4,0,8-3.6,8-8v-48c0-4.4-3.6-8-8-8H72c-4.4,0-8-3.6-8-8V168C64,163.6,67.6,160,72,160z"/>
	<path d="M512,371.2v-43.8l-38-13.9c-2.7-9.3-6-18.2-10.6-26.5l17.9-37.2l-30.8-31l-37.2,17.8c-8.3-4.6-17.2-7.7-26.4-10.4L373,188
		h-43.8l-13.8,38.3c-9.3,2.7-18.2,6.1-26.5,10.7l-37.3-17.9L220.7,250l17.7,37.2c-4.6,8.3-8.6,17.2-11.3,26.4L188,327.5v43.8
		l39.1,13.8c2.7,9.3,6.5,18.2,11.2,26.5l-17.7,37.3l31,31l37.3-17.8c8.3,4.6,17.2,8.3,26.5,11l13.8,38.9H373l13.9-38.9
		c9.2-2.7,18.1-6.4,26.4-11l37.3,17.7l30.9-31l-17.7-37.3c4.6-8.3,7.5-17.2,10.2-26.5L512,371.2z M410.7,349.4
		c0,32.9-26.7,59.6-59.6,59.6c-33,0-59.6-26.6-59.6-59.6c0-32.9,26.7-59.6,59.6-59.6C384,289.8,410.7,316.5,410.7,349.4z"/>
</g>
</svg>
