<?xml version="1.0" encoding="utf-8"?>
<!-- Generator: Adobe Illustrator 19.1.0, SVG Export Plug-In . SVG Version: 6.00 Build 0)  -->
<svg version="1.1" id="Layer_1" xmlns="http://www.w3.org/2000/svg" xmlns:xlink="http://www.w3.org/1999/xlink" x="0px" y="0px"
	 viewBox="0 0 512 512" style="enable-background:new 0 0 512 512;" xml:space="preserve">
<path d="M436.9,75.1C388.6,26.8,324.3,0.2,256,0.2S123.4,26.8,75.1,75.1S0.2,187.7,0.2,256s26.6,132.6,74.9,180.9
	c48.3,48.3,112.6,74.9,180.9,74.9s132.6-26.6,180.9-74.9c48.3-48.3,74.9-112.6,74.9-180.9S485.2,123.4,436.9,75.1z M414.3,414.3
	c-42.3,42.3-98.5,65.6-158.3,65.6c-59.8,0-116-23.3-158.3-65.6C55.4,372,32.2,315.8,32.2,256c0-59.8,23.3-116,65.6-158.3
	S196.2,32.2,256,32.2c59.8,0,116,23.3,158.3,65.6c42.3,42.3,65.6,98.5,65.6,158.3C479.8,315.8,456.6,372,414.3,414.3z"/>
<path d="M373.8,236.7c-8.8,0-16,7.2-16,16v78.6H154.2v-78.6c0-8.8-7.2-16-16-16s-16,7.2-16,16v94.6c0,8.8,7.2,16,16,16h235.6
	c8.8,0,16-7.2,16-16v-94.6C389.8,243.9,382.6,236.7,373.8,236.7z"/>
<path d="M244.7,285.9c0.4,0.4,0.8,0.7,1.2,1.1c0.2,0.1,0.4,0.3,0.5,0.4c0.2,0.2,0.5,0.4,0.7,0.5c0.2,0.1,0.4,0.3,0.7,0.4
	c0.2,0.1,0.4,0.3,0.7,0.4c0.2,0.1,0.5,0.2,0.7,0.3c0.2,0.1,0.5,0.2,0.7,0.3c0.2,0.1,0.5,0.2,0.7,0.3c0.3,0.1,0.5,0.2,0.8,0.3
	c0.2,0.1,0.5,0.1,0.7,0.2c0.3,0.1,0.5,0.1,0.8,0.2c0.3,0.1,0.6,0.1,0.8,0.1c0.2,0,0.5,0.1,0.7,0.1c0.5,0.1,1.1,0.1,1.6,0.1
	s1.1,0,1.6-0.1c0.2,0,0.5-0.1,0.7-0.1c0.3,0,0.6-0.1,0.8-0.1c0.3-0.1,0.5-0.1,0.8-0.2c0.2-0.1,0.5-0.1,0.7-0.2
	c0.3-0.1,0.5-0.2,0.8-0.3c0.2-0.1,0.5-0.2,0.7-0.3c0.2-0.1,0.5-0.2,0.7-0.3c0.2-0.1,0.5-0.2,0.7-0.3c0.2-0.1,0.5-0.3,0.7-0.4
	c0.2-0.1,0.4-0.3,0.7-0.4c0.3-0.2,0.5-0.4,0.7-0.5c0.2-0.1,0.4-0.3,0.5-0.4c0.4-0.3,0.8-0.7,1.2-1.1l50.2-50.2
	c6.2-6.2,6.2-16.4,0-22.6c-6.2-6.2-16.4-6.2-22.6,0L272,236v-90.5c0-8.8-7.2-16-16-16c-8.8,0-16,7.2-16,16V236l-22.9-22.9
	c-6.2-6.2-16.4-6.2-22.6,0c-6.2,6.2-6.2,16.4,0,22.6L244.7,285.9z"/>
</svg>
