<svg xmlns="http://www.w3.org/2000/svg" viewBox="0 0 512 512"><path d="M436.3 75.7C388.1 27.6 324.1 1 256 1 187.9 1 123.9 27.6 75.7 75.7 27.6 123.9 1 187.9 1 256c0 68.1 26.5 132.1 74.7 180.3C123.9 484.4 187.9 511 256 511c68.1 0 132.1-26.5 180.3-74.7S511 324.1 511 256c0-68.1-26.6-132.1-74.7-180.3zm-14.2 346.4C377.8 466.5 318.8 491 256 491s-121.8-24.4-166.1-68.8C45.5 377.8 21 318.8 21 256S45.5 134.2 89.9 89.9C134.2 45.5 193.2 21 256 21s121.8 24.4 166.1 68.8C466.5 134.2 491 193.2 491 256s-24.5 121.8-68.9 166.1z"/><path d="M356.1 240H194.5l57.5-57.5c6.2-6.2 6.2-16.4 0-22.6-6.2-6.2-16.4-6.2-22.6 0l-84.8 84.8c-.4.4-.7.8-1.1 1.2-.1.2-.3.4-.4.6-.2.2-.4.5-.5.7-.2.2-.3.5-.4.7-.1.2-.3.4-.4.7-.1.2-.2.5-.3.7-.1.2-.2.5-.3.7-.1.2-.2.5-.3.7-.1.3-.2.5-.3.8-.1.2-.1.5-.2.7-.1.3-.1.5-.2.8-.1.3-.1.6-.1.8 0 .2-.1.5-.1.7-.1.5-.1 1-.1 1.6 0 .5 0 1 .1 1.6 0 .2.1.5.1.7 0 .3.1.6.1.8.1.3.1.5.2.8.1.2.1.5.2.7.1.3.2.5.3.8.1.2.2.5.3.7.1.2.2.5.3.7.1.2.2.5.3.7.1.2.3.4.4.6.1.2.3.5.4.7.2.2.3.5.5.7.1.2.3.4.4.6.3.4.7.8 1.1 1.2l84.8 84.8c3.1 3.1 7.2 4.7 11.3 4.7 4.1 0 8.2-1.6 11.3-4.7 6.2-6.2 6.2-16.4 0-22.6L194.5 272h161.7c8.8 0 16-7.2 16-16-.1-8.8-7.2-16-16.1-16z"/></svg>
