<svg xmlns="http://www.w3.org/2000/svg" viewBox="0 0 512 512"><path d="M15.8 128h64.3c8.7 0 15.8-7.1 15.8-15.8v-.3c0-8.7-7.1-15.8-15.8-15.8H15.8C7.1 96 0 103.1 0 111.8v.3c0 8.8 7.1 15.9 15.8 15.9zm64.4 64H47.8c-8.7 0-15.8-7.1-15.8-15.8v-.3c0-8.7 7.1-15.8 15.8-15.8h32.3c8.7 0 15.8 7.1 15.8 15.8v.3c.1 8.7-7 15.8-15.7 15.8zM352 96v73.5c0 3-3.1 4.9-5.8 3.6l-24.4-12.2c-1.1-.6-2.5-.6-3.6 0l-24.4 12.2c-2.7 1.3-5.8-.6-5.8-3.6V96h-32v115.1c0 5.9 6.3 9.8 11.6 7.2l48.8-24.4c2.3-1.1 4.9-1.1 7.2 0l48.8 24.4c5.3 2.7 11.6-1.2 11.6-7.2V96h-32z"/><path d="M128 96v320c0 17.7 14.3 32 32 32h320c17.7 0 32-14.3 32-32V96c0-17.7-14.3-32-32-32H160c-17.7 0-32 14.3-32 32zm336 320H176c-8.8 0-16-7.2-16-16V112c0-8.8 7.2-16 16-16h288c8.8 0 16 7.2 16 16v288c0 8.8-7.2 16-16 16z"/></svg>