<?xml version="1.0" encoding="utf-8"?>
<!-- Generator: Adobe Illustrator 19.1.0, SVG Export Plug-In . SVG Version: 6.00 Build 0)  -->
<svg version="1.1" id="Layer_1" xmlns="http://www.w3.org/2000/svg" xmlns:xlink="http://www.w3.org/1999/xlink" x="0px" y="0px"
	 viewBox="0 0 512 512" style="enable-background:new 0 0 512 512;" xml:space="preserve">
<path d="M485.9,409.5l-4.9-4.9c-30.4-30.3-47.8-72.4-47.8-115.4v-75.3c0-77.3-50.2-145.4-123.2-168.5C305.7,19.6,283.3,0,256.4,0
	c-26.9,0-49.3,19.6-53.5,45.3c-73,22.9-123.2,91-123.2,168.4v69.4c0,47.4-18.5,92.1-52,125.8l-0.6,0.6c-5.8,5.8-7.5,14.3-4.4,21.9
	c3.1,7.5,10.4,12.3,18.5,12.3h128.7C180,483,215.5,512,256.4,512c40.9,0,76.4-29,86.5-68.4h128.7c8.2,0,15.5-4.9,18.6-12.4
	C493.3,423.7,491.6,415.2,485.9,409.5z M256.4,479.9c-23.4,0-44.1-15-52.9-36.3h105.7C300.5,465,279.8,479.9,256.4,479.9z
	 M347,411.6H165.9h-98c11.4-14.7,20.8-30.9,27.9-48.2c10.6-25.6,16-52.6,16-80.3v-69.4c0-65.7,44.2-123.2,107.5-139.8
	c8.9-2.3,15.1-10.5,15.1-19.8V54c0-12.1,9.9-21.9,22.1-21.9c12.2,0,22.1,9.8,22.1,21.9v0.1c0,9.3,6.2,17.5,15,19.8
	c63.3,16.7,107.5,74.2,107.5,139.9v75.3c0,44.5,15.6,88.1,43.2,122.5H347z"/>
</svg>
