<?xml version="1.0" encoding="utf-8"?>
<!-- Generator: Adobe Illustrator 19.2.0, SVG Export Plug-In . SVG Version: 6.00 Build 0)  -->
<svg version="1.1" id="Layer_1" xmlns="http://www.w3.org/2000/svg" xmlns:xlink="http://www.w3.org/1999/xlink" x="0px" y="0px"
	 viewBox="0 0 512 512" style="enable-background:new 0 0 512 512;" xml:space="preserve">
<path d="M256,0C114.6,0,0,114.6,0,256s114.6,256,256,256s256-114.6,256-256S397.4,0,256,0z M256,405c-22.3,0-40.6-17.8-42.3-39.7
	c-0.1-1.4,0.9-2.4,2.3-2.4h80c1.4,0,2.4,1,2.3,2.4C296.6,387.2,278.3,405,256,405z M380.6,346H256H131.5c-2.1,0-3.1-2.3-1.6-3.8
	l0.3-0.3c21-21.1,32.8-49.5,32.8-79.2v-40.2c0-43.1,29.3-79.4,69.2-89.9c1.1-0.3,1.8-1.3,1.8-2.5c0,0,0,0,0-0.1c0-12.1,9.9-22,22-22
	c12.1,0,22,9.8,22,22c0,0,0,0,0,0.1c0,1.2,0.7,2.2,1.8,2.5c39.8,10.5,69.2,46.8,69.2,89.9v43.6c0,27.5,10.9,53.9,30.4,73.3l2.8,2.7
	C383.7,343.7,382.7,346,380.6,346z"/>
</svg>
