<?xml version="1.0" encoding="utf-8"?>
<!-- Generator: Adobe Illustrator 19.2.0, SVG Export Plug-In . SVG Version: 6.00 Build 0)  -->
<svg version="1.1" id="Layer_1" xmlns="http://www.w3.org/2000/svg" xmlns:xlink="http://www.w3.org/1999/xlink" x="0px" y="0px"
	 viewBox="0 0 512 512" style="enable-background:new 0 0 512 512;" xml:space="preserve">
<style type="text/css">
	.st0{display:none;}
	.st1{display:inline;fill:none;stroke:#000000;stroke-width:205;stroke-linecap:round;stroke-linejoin:round;stroke-miterlimit:10;}
	.st2{display:inline;stroke:#000000;stroke-width:6;stroke-miterlimit:10;}
</style>
<g id="_x32_">
	<g id="Path_1_" class="st0">
		<path class="st1" d="M429.5,496V32c0-8.8-6.7-15.5-15.5-15.5H94c-8.8,0-16.5,6.7-16.5,15.5v464l63.3-64l50.1,64l63.1-64l64,64
			l49.8-64L429.5,496z"/>
		<path class="st2" d="M254,145.2c0,8.7-7.1,15.8-15.8,15.8h-64.4c-8.7,0-15.8-7.1-15.8-15.8v-0.4c0-8.7,7.1-15.8,15.8-15.8h64.4
			c8.7,0,15.8,7.1,15.8,15.8L254,145.2L254,145.2z"/>
		<path class="st2" d="M333.7,256H173.3c-8.7,0-16.3-7.6-16.3-16.3v-0.3c0-8.7,7.6-15.4,16.3-15.4h160.3c8.7,0,15.4,6.7,15.4,15.4
			v0.3C349,248.4,342.4,256,333.7,256z"/>
		<path class="st2" d="M333.7,320H173.3c-8.7,0-16.3-7.6-16.3-16.3v-0.3c0-8.7,7.6-15.4,16.3-15.4h160.3c8.7,0,15.4,6.7,15.4,15.4
			v0.3C349,312.4,342.4,320,333.7,320z"/>
	</g>
	<g id="EXP">
		<path d="M430,512c-4.3,0-8.4-1.7-11.5-4.9l-49.2-50.8l-38.7,49.5c-2.8,3.6-7.1,5.8-11.6,6.1c-4.6,0.3-9-1.4-12.3-4.7l-52.6-52.6
			l-51.7,52.5c-3.2,3.3-7.7,5-12.3,4.7c-4.6-0.3-8.9-2.5-11.7-6.1l-38.8-49.6l-50.2,51c-4.6,4.6-11.5,6-17.5,3.6
			c-6-2.5-9.9-8.3-9.9-14.8V32C62,14.4,76.4,0,94,0h320c17.6,0,32,14.4,32,32v464c0,6.5-4,12.4-10,14.8C434.1,511.6,432,512,430,512
			z M254,416c4.2,0,8.3,1.7,11.3,4.7l44.8,44.8c3.4,3.4,9,3.1,12-0.7l33.3-42.6c2.8-3.6,7.1-5.9,11.8-6.1c4.6-0.2,9.1,1.5,12.3,4.8
			l31.1,32.1c1.3,1.3,3.4,0.4,3.4-1.4V48c0-8.8-7.2-16-16-16H110c-8.8,0-16,7.2-16,16v404.1c0,1.8,2.2,2.7,3.4,1.4l32.2-32.7
			c3.2-3.3,7.7-5,12.3-4.7s8.9,2.5,11.7,6.1l33.2,42.5c3,3.8,8.6,4.1,12,0.7l43.8-44.5C245.6,417.7,249.7,416,254,416L254,416z"/>
		<path d="M253,145.2c0,8.7-7.1,15.8-15.8,15.8h-64.4c-8.7,0-15.8-7.1-15.8-15.8v-0.4c0-8.7,7.1-15.8,15.8-15.8h64.4
			c8.7,0,15.8,7.1,15.8,15.8L253,145.2L253,145.2z"/>
		<path d="M349,240c0,9-7.1,16-15.8,16H172.8c-8.7,0-15.8-7.1-15.8-15.8v-0.3c0-8.7,7.1-15.9,15.8-15.9h160.3
			c8.7,0,15.9,7.2,15.9,15.9V240L349,240z"/>
		<path d="M349,304c0,9-7.1,16-15.8,16H172.8c-8.7,0-15.8-7.1-15.8-15.8v-0.3c0-8.7,7.1-15.9,15.8-15.9h160.3
			C341.8,288,349,295.2,349,304L349,304L349,304z"/>
	</g>
</g>
</svg>
