<?xml version="1.0" encoding="utf-8"?>
<!-- Generator: Adobe Illustrator 21.0.2, SVG Export Plug-In . SVG Version: 6.00 Build 0)  -->
<svg version="1.1" id="Layer_1" xmlns="http://www.w3.org/2000/svg" xmlns:xlink="http://www.w3.org/1999/xlink" x="0px" y="0px"
	 viewBox="0 0 1000 1000" enable-background="new 0 0 1000 1000" xml:space="preserve">
<g>
	<path fill="#FFFFFF" stroke="#000000" stroke-width="42" stroke-miterlimit="10" d="M173.7,629.5"/>
</g>
<g>
	<path fill="#FFFFFF" stroke="#000000" stroke-width="42" stroke-miterlimit="10" d="M107.3,668.3"/>
</g>
<g>
	<g>
		<g>
			<path d="M442.5,728c0,46.5-20.3,93.5-55.8,128.9c-35.5,35.5-82.5,55.9-128.9,55.9c-46.2,0-89.1-19.8-120.8-55.8
				c-30-34.1-47.5-80.5-47.8-127.5c0-0.2,0-0.4,0-0.5V388.5c0-15.4,12.5-27.9,27.9-27.9s27.9,12.5,27.9,27.9V728
				c0,66.7,54.2,120.9,120.9,120.9S386.7,794.6,386.7,728s-54.2-120.9-120.9-120.9c-10.2,0-20.2,1.3-30,3.7
				c-11.8,3-24.1-1.9-30.5-12.2c-1.5-2.5-2.7-5.1-3.4-8c-3.8-14.9,5.2-30.2,20.2-34c14.2-3.6,29-5.5,43.8-5.5
				C363.2,551.2,442.5,630.5,442.5,728z"/>
		</g>
	</g>
</g>
<g>
	<path d="M717.4,750l-60.5,0.2c-0.3-101.7-39.6-197.9-110.5-270.8c-70.8-72.8-165.6-114.7-266.9-118l2-60.4
		c117,3.8,226.5,52.2,308.2,136.2C671.7,521.4,717,632.5,717.4,750z"/>
</g>
<g>
	<path d="M964.5,757l-60.5,0.2c-0.5-169-65.7-328.7-183.5-449.9c-117.6-120.9-275-190.5-443.2-195.9l2-60.4
		c92.9,3,182.8,23.8,267.1,61.7c81.6,36.7,154.8,88,217.5,152.5C892.6,397.6,963.9,572.3,964.5,757z"/>
</g>
</svg>
