<?xml version="1.0" encoding="utf-8"?>
<!-- Generator: Adobe Illustrator 21.0.2, SVG Export Plug-In . SVG Version: 6.00 Build 0)  -->
<svg version="1.1" id="Layer_1" xmlns="http://www.w3.org/2000/svg" xmlns:xlink="http://www.w3.org/1999/xlink" x="0px" y="0px"
	 viewBox="0 0 512 512" enable-background="new 0 0 512 512" xml:space="preserve">
<g>
	<g>
		<path d="M488.8,318v154.5c0,3.1-2.7,5.7-5.9,5.7H30.1c-3.2,0-5.8-2.6-5.8-5.8V318h-0.1v154.4c0,3.3,2.7,5.9,5.9,5.9h452.8
			c3.3,0,6-2.7,6-5.8V318H488.8z M483,154.7H30.1c-3.3,0-5.9,2.7-5.9,5.9v137.9h0.1V160.6c0-3.2,2.6-5.8,5.8-5.8H483
			c3.2,0,5.8,2.6,5.8,5.8v137.9h0.1V160.6C488.9,157.3,486.3,154.7,483,154.7z M488.8,318v154.5c0,3.1-2.7,5.7-5.9,5.7H30.1
			c-3.2,0-5.8-2.6-5.8-5.8V318h-0.1v154.4c0,3.3,2.7,5.9,5.9,5.9h452.8c3.3,0,6-2.7,6-5.8V318H488.8z M483,154.7H30.1
			c-3.3,0-5.9,2.7-5.9,5.9v137.9h0.1V160.6c0-3.2,2.6-5.8,5.8-5.8H483c3.2,0,5.8,2.6,5.8,5.8v137.9h0.1V160.6
			C488.9,157.3,486.3,154.7,483,154.7z M187.4,131.6v0.1h141.2v-0.1H187.4z M488.7,131.6H352v0.1h136.7c12.7,0,23.1,10.4,23.1,23.1
			v323.5c0,12.7-10.4,23.1-23.1,23.1H24.2c-12.7,0-23.1-10.4-23.1-23.1V154.8c0-6.2,2.4-12.1,6.8-16.5c4.3-4.3,10-6.6,16.1-6.6
			c0.1,0,0.1,0,0.2,0H164v-0.1H24.2C11.4,131.5,1,141.9,1,154.8v323.5c0,12.9,10.4,23.2,23.2,23.2h464.5c12.9,0,23.2-10.4,23.2-23.2
			V154.8C511.9,141.9,501.5,131.6,488.7,131.6z M488.8,318v154.5c0,3.1-2.7,5.7-5.9,5.7H30.1c-3.2,0-5.8-2.6-5.8-5.8V318h-0.1v154.4
			c0,3.3,2.7,5.9,5.9,5.9h452.8c3.3,0,6-2.7,6-5.8V318H488.8z M483,154.7H30.1c-3.3,0-5.9,2.7-5.9,5.9v137.9h0.1V160.6
			c0-3.2,2.6-5.8,5.8-5.8H483c3.2,0,5.8,2.6,5.8,5.8v137.9h0.1V160.6C488.9,157.3,486.3,154.7,483,154.7z"/>
		<path fill="#FFFFFF" d="M488.7,318v154.5c0,3-2.6,5.6-5.8,5.6H30.1c-3.1,0-5.7-2.5-5.7-5.7V318h-0.2v154.4c0,3.3,2.7,5.9,5.9,5.9
			h452.8c3.3,0,6-2.7,6-5.8V318H488.7z M483,154.7H30.1c-3.3,0-5.9,2.7-5.9,5.9v137.9h0.2V160.6c0-3.1,2.5-5.7,5.7-5.7H483
			c3.1,0,5.7,2.5,5.7,5.7v137.9h0.2V160.6C488.9,157.3,486.3,154.7,483,154.7z M488.7,318v154.5c0,3-2.6,5.6-5.8,5.6H30.1
			c-3.1,0-5.7-2.5-5.7-5.7V318h-0.2v154.4c0,3.3,2.7,5.9,5.9,5.9h452.8c3.3,0,6-2.7,6-5.8V318H488.7z M483,154.7H30.1
			c-3.3,0-5.9,2.7-5.9,5.9v137.9h0.2V160.6c0-3.1,2.5-5.7,5.7-5.7H483c3.1,0,5.7,2.5,5.7,5.7v137.9h0.2V160.6
			C488.9,157.3,486.3,154.7,483,154.7z M488.7,318v154.5c0,3-2.6,5.6-5.8,5.6H30.1c-3.1,0-5.7-2.5-5.7-5.7V318h-0.2v154.4
			c0,3.3,2.7,5.9,5.9,5.9h452.8c3.3,0,6-2.7,6-5.8V318H488.7z M483,154.7H30.1c-3.3,0-5.9,2.7-5.9,5.9v137.9h0.2V160.6
			c0-3.1,2.5-5.7,5.7-5.7H483c3.1,0,5.7,2.5,5.7,5.7v137.9h0.2V160.6C488.9,157.3,486.3,154.7,483,154.7z M488.7,131.5H352v0.2
			h136.7c12.7,0,23.1,10.4,23.1,23.1v323.5c0,12.7-10.4,23.1-23.1,23.1H24.2c-12.7,0-23.1-10.4-23.1-23.1V154.8
			c0-6.2,2.4-12.1,6.8-16.5c4.3-4.3,10-6.6,16.1-6.6c0.1,0,0.1,0,0.2,0H164v-0.2H24.2c-0.1,0-0.1,0-0.2,0c-6.1,0-11.9,2.4-16.2,6.7
			c-4.5,4.4-6.9,10.3-6.9,16.6v323.5c0,12.9,10.5,23.3,23.3,23.3h464.5c12.9,0,23.3-10.5,23.3-23.3V154.8
			C512,141.9,501.6,131.5,488.7,131.5z M187.4,131.5v0.2h141.2v-0.2H187.4z M488.7,318v154.5c0,3-2.6,5.6-5.8,5.6H30.1
			c-3.1,0-5.7-2.5-5.7-5.7V318h-0.2v154.4c0,3.3,2.7,5.9,5.9,5.9h452.8c3.3,0,6-2.7,6-5.8V318H488.7z M483,154.7H30.1
			c-3.3,0-5.9,2.7-5.9,5.9v137.9h0.2V160.6c0-3.1,2.5-5.7,5.7-5.7H483c3.1,0,5.7,2.5,5.7,5.7v137.9h0.2V160.6
			C488.9,157.3,486.3,154.7,483,154.7z M488.7,318v154.5c0,3-2.6,5.6-5.8,5.6H30.1c-3.1,0-5.7-2.5-5.7-5.7V318h-0.2v154.4
			c0,3.3,2.7,5.9,5.9,5.9h452.8c3.3,0,6-2.7,6-5.8V318H488.7z M483,154.7H30.1c-3.3,0-5.9,2.7-5.9,5.9v137.9h0.2V160.6
			c0-3.1,2.5-5.7,5.7-5.7H483c3.1,0,5.7,2.5,5.7,5.7v137.9h0.2V160.6C488.9,157.3,486.3,154.7,483,154.7z"/>
		<path d="M488.7,131.7H352V85.4c0-12.9-10.5-23.4-23.4-23.4H187.4C174.5,62,164,72.4,164,85.4v46.3H24.2c-0.1,0-0.1,0-0.2,0
			c-6.1,0-11.8,2.4-16.1,6.6c-4.4,4.4-6.8,10.2-6.8,16.5v323.5c0,12.7,10.4,23.1,23.1,23.1h464.5c12.7,0,23.1-10.4,23.1-23.1V154.8
			C511.8,142.1,501.4,131.7,488.7,131.7z M187.4,91.2c0-3.3,2.7-5.9,5.9-5.9h129.4c3.3,0,5.9,2.7,5.9,5.9v40.5H187.4V91.2z
			 M488.9,472.5c0,3.2-2.8,5.8-6,5.8H30.1c-3.3,0-5.9-2.7-5.9-5.9V318H164v41.7c0,13,10.5,23.4,23.4,23.4h141.2
			c12.9,0,23.4-10.4,23.4-23.4V318h136.9V472.5z M187.4,353.9V318h141.2v35.9c0,3.3-2.7,5.9-5.9,5.9H193.3
			C190,359.8,187.4,357.1,187.4,353.9z M488.9,298.5H24.2V160.6c0-3.3,2.7-5.9,5.9-5.9H483c3.3,0,5.9,2.7,5.9,5.9V298.5z"/>
	</g>
</g>
</svg>
