<svg id="7412f05e-c864-4c07-a45a-ed2729151103" data-name="Layer 1" xmlns="http://www.w3.org/2000/svg" viewBox="0 0 90 76">
  <title>Browser_router</title>
  <path d="M86,0H4A4,4,0,0,0,0,4V76H90V4A4,4,0,0,0,86,0ZM15.57,3.08h0A2.08,2.08,0,1,1,13.5,5.17,2.08,2.08,0,0,1,15.58,3.08Zm-6.33,0h0A2.08,2.08,0,1,1,7.17,5.17,2.08,2.08,0,0,1,9.25,3.08ZM86,72H4V9.4H86Z"/>
  <path d="M45,17.89A23.11,23.11,0,1,0,68.12,41,23.13,23.13,0,0,0,45,17.89Zm0,43.23A20.11,20.11,0,1,1,65.12,41,20.14,20.14,0,0,1,45,61.12Z"/>
  <polygon points="33.78 45.28 33.78 42.44 28.48 42.44 28.48 39.55 33.78 39.55 33.78 36.72 41.2 41 33.78 45.28"/>
  <polygon points="56.22 36.72 56.22 39.56 61.52 39.56 61.52 42.45 56.22 42.45 56.22 45.28 48.8 41 56.22 36.72"/>
  <polygon points="49.28 52.22 46.44 52.22 46.44 57.52 43.55 57.52 43.55 52.22 40.72 52.22 45 44.8 49.28 52.22"/>
  <polygon points="40.72 29.78 43.56 29.78 43.56 24.48 46.45 24.48 46.45 29.78 49.28 29.78 45 37.2 40.72 29.78"/>
</svg>
