<svg data-name="1cf4aec3-930e-40b4-8414-08f04c08c2be" xmlns="http://www.w3.org/2000/svg" viewBox="0 0 90 76"><path d="M63,27.6v3.6H59.09a5.4,5.4,0,0,1-10.18,0H27V27.6H48.91a5.4,5.4,0,0,1,10.18,0Z" /><path d="M63,40.2v3.6H42a5.4,5.4,0,0,1-10.18,0H27V40.2h4.81A5.4,5.4,0,0,1,42,40.2Z" /><path d="M63,52.8v3.6H56.39a5.4,5.4,0,0,1-10.18,0H27V52.8H46.21a5.4,5.4,0,0,1,10.18,0Z" /><path d="M86,0H4A4,4,0,0,0,0,4V76H90V4A4,4,0,0,0,86,0ZM15.58,3.08A2.08,2.08,0,1,1,13.5,5.17a2.08,2.08,0,0,1,2.08-2.09Zm-6.33,0A2.08,2.08,0,1,1,7.17,5.17,2.08,2.08,0,0,1,9.25,3.08ZM86,72H4V9.4H86Z" /></svg>
