<svg data-name="ab187497-800d-41a0-9c62-6ce716e9310c" xmlns="http://www.w3.org/2000/svg" viewBox="0 0 90 76"><path d="M86,0H4A4,4,0,0,0,0,4V76H90V4A4,4,0,0,0,86,0ZM15.57,3.08h0A2.08,2.08,0,1,1,13.5,5.17,2.08,2.08,0,0,1,15.58,3.08Zm-6.33,0h0A2.08,2.08,0,1,1,7.17,5.17,2.08,2.08,0,0,1,9.25,3.08ZM86,72H4V9.4H86Z" /><path d="M18.56,46.84l-3.25-13.6h2.81l2,9.34,2.49-9.34h3.27l2.38,9.5,2.09-9.5h2.76l-3.3,13.6H27L24.24,36.67l-2.7,10.17Z"/><path d="M39.35,46.84,36.1,33.24h2.81L41,42.58l2.49-9.34h3.27l2.38,9.5,2.09-9.5H54l-3.3,13.6h-3L45,36.67,42.3,46.84Z"/><path d="M60.13,46.84l-3.25-13.6h2.81l2,9.34,2.49-9.34h3.27l2.38,9.5L72,33.24h2.76l-3.3,13.6H68.52L65.81,36.67l-2.7,10.17Z"/></svg>
