<svg data-name="d2ab3a42-bf3c-4dc7-990d-3df3c23fcff4" xmlns="http://www.w3.org/2000/svg" viewBox="0 0 90 76"><path d="M86,0H4A4,4,0,0,0,0,4V76H90V4A4,4,0,0,0,86,0ZM15.58,3.08A2.08,2.08,0,1,1,13.5,5.17a2.08,2.08,0,0,1,2.08-2.09Zm-6.33,0A2.08,2.08,0,1,1,7.17,5.17,2.08,2.08,0,0,1,9.25,3.08ZM86,72H4V9.4H86Z"/><path d="M56.66,34.78H54.73c.08-1.06.1-2.31.1-3.78a9.83,9.83,0,0,0-19.66,0c0,1.47,0,2.72.1,3.78H33.34a4.59,4.59,0,0,0-4.58,4.58V59.15a4.59,4.59,0,0,0,4.58,4.58H56.66a4.59,4.59,0,0,0,4.58-4.58V39.36A4.59,4.59,0,0,0,56.66,34.78ZM47,55H43V46.31h4Zm3.75-20.26H39.24c-.07-1-.07-2.42-.07-3.78a5.83,5.83,0,0,1,11.66,0c0,1.4,0,2.79-.07,3.82Z" /></svg>
