<svg data-name="7569500f-b63b-4f4e-81cb-88e91844275b" xmlns="http://www.w3.org/2000/svg" viewBox="0 0 90 76"><path d="M54.91,44.09A5,5,0,0,0,63,47.84v8.63A3.56,3.56,0,0,1,59.41,60h-6a4.7,4.7,0,0,0,.4-1.91,4.95,4.95,0,0,0-9.89,0,4.7,4.7,0,0,0,.4,1.91H35.59A3.56,3.56,0,0,1,32,56.47h0v-8a4.86,4.86,0,1,1,0-8.74V33a3.56,3.56,0,0,1,3.58-3.54h8a4.81,4.81,0,0,1-.8-2.65,4.95,4.95,0,0,1,9.89,0,4.81,4.81,0,0,1-.8,2.65h7.54A3.56,3.56,0,0,1,63,33h0v7.29a5,5,0,0,0-3.15-1.11,4.91,4.91,0,0,0-4.94,4.88h0Z" /><path d="M86,0H4A4,4,0,0,0,0,4V76H90V4A4,4,0,0,0,86,0ZM15.58,3.08A2.08,2.08,0,1,1,13.5,5.17a2.08,2.08,0,0,1,2.08-2.09Zm-6.33,0A2.08,2.08,0,1,1,7.17,5.17,2.08,2.08,0,0,1,9.25,3.08ZM86,72H4V9.4H86Z" /></svg>
