<?xml version="1.0" encoding="utf-8"?>
<!-- Generator: Adobe Illustrator 21.0.2, SVG Export Plug-In . SVG Version: 6.00 Build 0)  -->
<svg version="1.1" id="Layer_1" xmlns="http://www.w3.org/2000/svg" xmlns:xlink="http://www.w3.org/1999/xlink" x="0px" y="0px"
	 viewBox="0 0 20 20" enable-background="new 0 0 20 20" xml:space="preserve">
<g>
	<path d="M14.9,17.5c0,0.2-0.2,0.4-0.4,0.4h-10c-0.2,0-0.4-0.2-0.4-0.4s0.2-0.4,0.4-0.4h10C14.7,17.1,14.9,17.3,14.9,17.5z"/>
</g>
<g>
	<path d="M16.5,3.1c-0.2,0-0.4,0.2-0.4,0.4v15c0,0.4-0.2,0.6-0.6,0.6h-11c-0.9,0-1.6-0.8-1.6-1.6s0.8-1.6,1.6-1.6h9
		c0.7,0,1.4-0.7,1.4-1.4v-12c0-0.7-0.7-1.4-1.4-1.4h-10c-0.7,0-1.4,0.7-1.4,1.4v15c0,1.3,1,2.4,2.4,2.4h11c0.7,0,1.4-0.7,1.4-1.4
		v-15C16.9,3.3,16.7,3.1,16.5,3.1z M2.9,2.5c0-0.4,0.2-0.6,0.6-0.6h10c0.4,0,0.6,0.2,0.6,0.6v12c0,0.4-0.2,0.6-0.6,0.6h-9
		c-0.5,0-1,0.2-1.4,0.5l-0.2,0.2V2.5z"/>
</g>
</svg>
