<?xml version="1.0" encoding="utf-8"?>
<!-- Generator: Adobe Illustrator 19.2.0, SVG Export Plug-In . SVG Version: 6.00 Build 0)  -->
<svg version="1.1" id="Layer_1" xmlns="http://www.w3.org/2000/svg" xmlns:xlink="http://www.w3.org/1999/xlink" x="0px" y="0px"
	 viewBox="0 0 512 512" style="enable-background:new 0 0 512 512;" xml:space="preserve">
<path d="M480,480V264c0-4.4-3.6-8-8-8h-16c-4.4,0-8-3.6-8-8v-16c0-4.4-3.6-8-8-8H328c-4.4,0-8,3.6-8,8v16c0,4.4-3.6,8-8,8h-16
	c-4.4,0-8,3.6-8,8v216h-32V72c0-4.4-3.6-8-8-8h-16c-4.4,0-8-3.6-8-8V40c0-4.4-3.6-8-8-8h-24V0H96v32H72c-4.4,0-8,3.6-8,8v16
	c0,4.4-3.6,8-8,8H40c-4.4,0-8,3.6-8,8v408H0v32h512v-32H480z M64,96h64v64H64V96z M64,192h64v64H64V192z M64,288h64v64H64V288z
	 M192,480H96v-96h96V480z M224,352h-64v-64h64V352z M224,256h-64v-64h64V256z M224,160h-64V96h64V160z M320,288h64v32h-64V288z
	 M320,352h64v32h-64V352z M416,480h-64v-64h64V480z M448,384h-32v-32h32V384z M448,320h-32v-32h32V320z"/>
</svg>
