<svg width="512" height="512" viewBox="0 0 512 512" xmlns="http://www.w3.org/2000/svg"><title>automatic shipment</title><g fill-rule="evenodd"><path d="M91 21.712C91 15.238 96.196 10 102.573 10H489.72c6.385 0 11.573 5.228 11.573 11.703V408.59c0 6.47-5.194 11.703-11.571 11.703h-150.2a5 5 0 1 0 0 10h150.2c11.917 0 21.571-9.727 21.571-21.703V21.703C511.293 9.722 501.645 0 489.72 0H102.573C90.655 0 81 9.733 81 21.712v203.536a5 5 0 1 0 10 0V21.712z"/><path d="M237 135.208c0 3.84 4.147 6.246 7.48 4.342l55.207-31.986 55.207 31.986c3.333 1.904 7.48-.502 7.48-4.342V5a5 5 0 0 0-5-5H242a5 5 0 0 0-5 5v130.208zM247 10h105.375v116.564l-50.207-28.66a5 5 0 0 0-4.961 0L247 126.563V10zM135.075 283.908l-99.687 69.697c-6.846 4.789-7.904 14.51-2.22 20.61 11.208 12.03 25.87 19.907 41.844 22.724 19.485 3.435 39.629-.904 56.243-12.526 30.855-21.584 40.915-62.313 23.952-95.54a13.731 13.731 0 0 0-9.838-7.239 13.814 13.814 0 0 0-10.295 2.274zm5.73 8.195a3.817 3.817 0 0 1 2.827-.62 3.72 3.72 0 0 1 2.682 1.964c14.685 28.763 5.968 64.053-20.791 82.771-14.425 10.091-31.88 13.851-48.774 10.872-13.85-2.442-26.55-9.263-36.265-19.692-1.53-1.643-1.243-4.284.635-5.599l99.686-69.696z"/><path d="M108.65 340.129c5.521.973 9.209 6.234 8.236 11.75-.972 5.516-6.237 9.199-11.758 8.225-5.521-.973-9.209-6.234-8.236-11.75.973-5.516 6.237-9.199 11.758-8.225zm18.742 45.372c9.323 11.98 35.334 47.801 38.668 52.153 12.964 16.919 22.18 26.064 31.82 30.184 9.496 4.058 18.922 2.7 28.406-4.221 6.043-4.233 10.055-9.886 12.47-16.945 1.81-5.294 2.606-10.527 3.27-19.088.055-.704.093-1.208.193-2.548.679-9.137 1.186-13.05 2.507-17.238 1.602-5.081 4.181-8.684 8.363-11.296 8.67-5.415 17.658-5.141 26.78-.77a43.23 43.23 0 0 1 4.155 2.288c2 1.247 3.81 2.584 5.39 3.916.544.459 1.017.88 1.413 1.253.222.208.357.341.403.388a5 5 0 1 0 7.157-6.984c-.493-.505-1.345-1.305-2.527-2.301a56.653 56.653 0 0 0-6.548-4.759 53.031 53.031 0 0 0-5.12-2.818c-11.971-5.737-24.512-6.12-36.4 1.306-6.326 3.95-10.32 9.53-12.603 16.77-1.636 5.186-2.205 9.575-2.943 19.503-.098 1.33-.136 1.827-.19 2.516-1.231 15.866-3.73 23.168-11.586 28.673-6.8 4.962-12.516 5.785-18.66 3.16-7.552-3.228-15.859-11.47-27.812-27.071-3.221-4.204-29.262-40.066-38.714-52.213a5 5 0 1 0-7.892 6.142zM28.13 298.908C30.954 296.932 34 299 34 299l30.009 42.43-8.192 5.736L26 304s-.691-3.116 2.13-5.092zm55-36C85.954 260.932 89 263 89 263l30.009 42.43-8.192 5.736L81 268s-.691-3.116 2.13-5.092z"/></g></svg>