<?xml version="1.0" encoding="utf-8"?>
<!-- Generator: Adobe Illustrator 19.1.0, SVG Export Plug-In . SVG Version: 6.00 Build 0)  -->
<svg version="1.1" id="Layer_1" xmlns="http://www.w3.org/2000/svg" xmlns:xlink="http://www.w3.org/1999/xlink" x="0px" y="0px"
	 viewBox="0 0 512 512" style="enable-background:new 0 0 512 512;" xml:space="preserve">
<path d="M384,352H148.5c-6.9,0-13-4.4-15.2-10.9l-61.4-175c-1.6-3.7-5.2-6.1-9.2-6.1H48.5c-8.6,0-16-6.6-16.4-15.2
	c-0.4-9.2,6.9-16.8,16-16.8h32.8c6.9,0,13,4.4,15.2,10.9l61.4,175c1.6,3.7,5.2,6.1,9.2,6.1h199.6c4.2,0,7.9-2.6,9.4-6.6l27.9-108
	c2.4-6.5-2.4-13.4-9.4-13.4H176.5c-8.6,0-16-6.6-16.4-15.2c-0.4-9.2,6.9-16.8,16-16.8h255.6c4,0,8,1.4,11,4.1
	c5.1,4.6,6.6,11.8,4.2,17.9l-48,160C396.4,348,390.5,352,384,352z"/>
<circle cx="192" cy="416" r="32"/>
<circle cx="352" cy="416" r="32"/>
<path d="M192,295.5c-1.1,0-2.3-0.3-3.3-0.8c-3.7-1.9-5.2-6.4-3.4-10.1l32-64c1.9-3.7,6.4-5.2,10.1-3.4c3.7,1.9,5.2,6.4,3.4,10.1
	l-32,64C197.4,294,194.7,295.5,192,295.5z"/>
<path d="M256,295.5c-1.1,0-2.3-0.3-3.3-0.8c-3.7-1.9-5.2-6.4-3.4-10.1l32-64c1.9-3.7,6.4-5.2,10.1-3.4c3.7,1.9,5.2,6.4,3.4,10.1
	l-32,64C261.4,294,258.7,295.5,256,295.5z"/>
<path d="M320,295.5c-1.1,0-2.3-0.3-3.3-0.8c-3.7-1.9-5.2-6.4-3.4-10.1l32-64c1.9-3.7,6.4-5.2,10.1-3.4c3.7,1.9,5.2,6.4,3.4,10.1
	l-32,64C325.4,294,322.7,295.5,320,295.5z"/>
</svg>
