<?xml version="1.0" encoding="utf-8"?>
<!-- Generator: Adobe Illustrator 19.2.0, SVG Export Plug-In . SVG Version: 6.00 Build 0)  -->
<svg version="1.1" id="Layer_1" xmlns="http://www.w3.org/2000/svg" xmlns:xlink="http://www.w3.org/1999/xlink" x="0px" y="0px"
	 viewBox="0 0 512 512" style="enable-background:new 0 0 512 512;" xml:space="preserve">
<g>
	<path d="M200,413.3c-24.3,0-43.8,19.6-43.8,43.8s19.6,43.8,43.8,43.8s43.8-19.6,43.8-43.8S224.2,413.3,200,413.3z"/>
	<path d="M382.9,413.3c-24.3,0-43.8,19.6-43.8,43.8s19.6,43.8,43.8,43.8c24.2,0,43.8-19.6,43.8-43.8S407.1,413.3,382.9,413.3z"/>
	<path d="M508.6,105.7c-3-4-7.8-6.2-12.8-6.2H187.9c-8.9,0-16.3,7.3-16.3,16.3S179,132,187.9,132H475l-51.8,201.2H164.4L78.5,27.7
		c-2.1-6.8-8.4-11.5-15.5-11.5H16.2C7.3,16.2,0,23.5,0,32.4s7.3,16.3,16.3,16.3H51l85.8,305.5c2.1,6.8,8.4,11.5,15.5,11.5H436
		c7.5,0,14-5.1,15.7-12.4l59.7-233.7C512.7,114.7,511.6,109.7,508.6,105.7z"/>
	<path d="M356.6,246.8c8.9,0,16.3-7.3,16.3-16.3c0-8.9-7.3-16.3-16.3-16.3H224.5c-8.9,0-16.3,7.3-16.3,16.3
		c0,8.9,7.3,16.3,16.3,16.3H356.6z"/>
</g>
</svg>
