<?xml version="1.0" encoding="utf-8"?>
<!-- Generator: Adobe Illustrator 19.2.0, SVG Export Plug-In . SVG Version: 6.00 Build 0)  -->
<svg version="1.1" id="Layer_1" xmlns="http://www.w3.org/2000/svg" xmlns:xlink="http://www.w3.org/1999/xlink" x="0px" y="0px"
	 viewBox="0 0 512 512" style="enable-background:new 0 0 512 512;" xml:space="preserve">
<path d="M242,455v-22.6c-13-1.4-23.3-5.3-30.8-10.6l-4.9-3.4l10.5-29.6l8.2,5.5c7.7,5.1,18,8.2,27.5,8.2c11.1,0,18.5-5.6,18.5-13.9
	c0-6.6-3.4-12.3-20.1-19.1c-20.4-8-41.3-19.7-41.3-45.4c0-20.2,12.3-36.1,33.3-41.8V259h29v21.4c9,1.1,17.6,3.9,25,8.2l5.7,3.3
	l-11,29.2l-7.8-4.5c-3.4-1.9-11.4-6.5-24-6.5c-14.6,0-15.7,8.6-15.7,11.3c0,6,3.3,10,22.6,18c18.1,7.4,39.1,19.5,39.1,47.6
	c0,17.6-10.8,37.1-34.8,43.8V455H242z M512,491c0,0,1,21-19,21H21c-20,0-21-21-21-21v-270c0,0,1-19,21-19h472c20,0,19,19.1,19,19.1
	V491z M476,420.2v-127c-3.2,0.7-6.4,1.1-9.8,1.1c-25.3,0-45.8-20.6-45.8-46.1c0-3.8,0.5-7.5,1.3-11H90.3c0.9,3.5,1.3,7.2,1.3,11
	c0,25.5-20.5,46.1-45.8,46.1c-3.4,0-6.6-0.4-9.8-1.1v127c3.2-0.7,6.4-1.1,9.8-1.1c25.3,0,45.8,20.6,45.8,46.1
	c0,4.1-0.5,8.1-1.5,11.9c82.4,0,248.8,0,331.9,0c-1-3.8-1.5-7.8-1.5-11.9c0-25.5,20.5-46.1,45.8-46.1
	C469.6,419,472.8,419.5,476,420.2z"/>
</svg>
