<?xml version="1.0" encoding="utf-8"?>
<!-- Generator: Adobe Illustrator 19.2.0, SVG Export Plug-In . SVG Version: 6.00 Build 0)  -->
<svg version="1.1" id="Layer_1" xmlns="http://www.w3.org/2000/svg" xmlns:xlink="http://www.w3.org/1999/xlink" x="0px" y="0px"
	 viewBox="0 0 512 512" style="enable-background:new 0 0 512 512;" xml:space="preserve">
<style type="text/css">
	.st0{display:none;}
</style>
<path class="st0" d="M373.1,512.5H168.3c-22.6,0-40.3-21.1-40.3-44.1v-429c0-22.9,17.7-38.9,40.3-38.9h204.8
	c22.6,0,41.6,16,41.6,38.9v429C414.7,491.4,395.7,512.5,373.1,512.5z M270.7,496.1c11.3,0,20.5-9.3,20.5-20.8s-9.2-20.8-20.5-20.8
	s-20.5,9.3-20.5,20.8C250.2,486.8,259.4,496.1,270.7,496.1z M298,41.5h-54.6c-3.8,0-6.8,1.3-6.8,5.1s3.1,5.1,6.8,5.1H298
	c3.8,0,6.8-1.3,6.8-5.1S301.8,41.5,298,41.5z M373.8,67.1H169v373.8h204.8V67.1z"/>
<path d="M364,0H140c-17.7,0-32,14.3-32,32v448c0,17.7,14.3,32,32,32h224c17.7,0,32-14.3,32-32V32C396,14.3,381.7,0,364,0z M204,24
	h96c4.4,0,8,3.6,8,8s-3.6,8-8,8h-96c-4.4,0-8-3.6-8-8S199.6,24,204,24z M252,490c-14.3,0-26-11.7-26-26s11.7-26,26-26s26,11.7,26,26
	S266.3,490,252,490z M364,400c0,8.8-7.2,16-16,16H156c-8.8,0-16-7.2-16-16V80c0-8.8,7.2-16,16-16h192c8.8,0,16,7.2,16,16V400z"/>
</svg>
