<?xml version="1.0" encoding="utf-8"?>
<!-- Generator: Adobe Illustrator 19.2.0, SVG Export Plug-In . SVG Version: 6.00 Build 0)  -->
<svg version="1.1" id="Layer_1" xmlns="http://www.w3.org/2000/svg" xmlns:xlink="http://www.w3.org/1999/xlink" x="0px" y="0px"
	 viewBox="0 0 512 512" style="enable-background:new 0 0 512 512;" xml:space="preserve">
<g>
	<rect x="119.5" y="266.5" width="224" height="30"/>
	<polygon points="119.5,424.5 264.3,424.5 239.7,393.5 119.5,393.5 	"/>
	<path d="M268.1,339.3l24.6,18.2h50.8v-25h-224v25h99.2c0,0,0-0.4,0.1-0.7c1.8-9.2,8.2-16.9,17-20.8c4.1-1.8,8.6-2.8,13.2-2.8
		C256,333.2,262.8,335.3,268.1,339.3z"/>
	<rect x="119.5" y="77.5" width="109" height="26"/>
	<rect x="119.5" y="205.5" width="224" height="25"/>
	<rect x="119.5" y="138.5" width="164" height="31"/>
	<path d="M378.4,469.5h-51.3h-0.1H84.5v-427h219v76h75v213.2l40-34.1V115.9L305.5,1.5h-237c-13.8,0-24.1,11.1-24.1,25.2v458.7
		c0,14.1,10.3,25.2,24.1,25.2h324.3c13.8,0,25.7-11.1,25.7-25.2v-95.6l-40,40.4V470L378.4,469.5z"/>
	<path d="M465,294.8c-2.7-1-6.2-0.6-7.9,1L326.6,414.9l-73.2-54.8c-1.9-1.4-5.3-1.7-7.8-0.6c-2.5,1.1-3.2,3.2-1.6,4.8l78.1,82.3
		c1.1,1.1,3,2.9,5,2.9c0,0,0,0,0.1,0c2,0,3.9-1.9,5-3l134.8-146.3C468.5,298.5,467.6,295.8,465,294.8z"/>
</g>
</svg>
