<?xml version="1.0" encoding="utf-8"?>
<!-- Generator: Adobe Illustrator 19.2.0, SVG Export Plug-In . SVG Version: 6.00 Build 0)  -->
<svg version="1.1" id="Layer_1" xmlns="http://www.w3.org/2000/svg" xmlns:xlink="http://www.w3.org/1999/xlink" x="0px" y="0px"
	 viewBox="0 0 512 512" style="enable-background:new 0 0 512 512;" xml:space="preserve">
<g>
	<path d="M212,320H76c-6.6,0-12,5.4-12,12v8c0,6.6,5.4,12,12,12h136c6.6,0,12-5.4,12-12v-8C224,325.4,218.6,320,212,320z"/>
	<path d="M76,416h104c6.6,0,12-5.4,12-12v-8c0-6.6-5.4-12-12-12H76c-6.6,0-12,5.4-12,12v8C64,410.6,69.4,416,76,416z"/>
	<path d="M448,404v-8c0-6.6-5.4-12-12-12h-52l-32,32h84C442.6,416,448,410.6,448,404z"/>
	<path d="M468,478H44c-6.6,0-12-5.4-12-12V278c0-6.6,5.4-12,12-12h276l32-32H12c-6.6,0-12,5.4-12,12v252c0,6.6,5.4,12,12,12h488
		c6.6,0,12-5.4,12-12V286c0-10.7-12.9-16-20.5-8.5l-8,8c-2.3,2.3-3.5,5.3-3.5,8.5v172C480,472.6,474.6,478,468,478z"/>
	<path d="M266,410l60-20c3.2,0,6.2-1.3,8.5-3.5l169-169c4.7-4.7,4.7-12.3,0-17l-28.3-28.3c-4.7-4.7-12.3-4.7-17,0l-169,169
		c-2.3,2.3-3.5,5.3-3.5,8.5L266,410z"/>
</g>
</svg>
