<?xml version="1.0" encoding="utf-8"?>
<!-- Generator: Adobe Illustrator 21.0.2, SVG Export Plug-In . SVG Version: 6.00 Build 0)  -->
<svg version="1.1" id="_x36_d4e9106-a693-4e65-af7d-01b47d9dae1e"
	 xmlns="http://www.w3.org/2000/svg" xmlns:xlink="http://www.w3.org/1999/xlink" x="0px" y="0px" viewBox="0 0 512 512.1"
	 enable-background="new 0 0 512 512.1" xml:space="preserve">
<title>checked box</title>
<path fill="#1B8ACE" d="M411.1,163.4L204.7,368c-8.5,8.5-22.2,8.6-30.9,0.3l-87.6-83.9c-8.4-8.8-8.1-22.9,0.7-31.2
	c8.3-7.9,21.2-8.2,29.9-0.6l72,68.9L380,131.9c8.7-8.6,22.7-8.6,31.2,0.2C419.9,140.8,419.8,154.8,411.1,163.4z"/>
<path fill="#AAAAAA" d="M475.1,5.3H36.9C19.5,5.3,5.2,19.5,5.2,37v438.2c0,17.5,14.2,31.7,31.7,31.7h438.2
	c17.5,0,31.7-14.2,31.7-31.7V37C506.8,19.5,492.5,5.3,475.1,5.3z M495.8,475.1c0,11.4-9.3,20.7-20.7,20.7H36.9
	c-11.4,0-20.7-9.3-20.7-20.7V37c0-11.4,9.3-20.7,20.7-20.7h438.2c11.4,0,20.7,9.3,20.7,20.7L495.8,475.1L495.8,475.1z"/>
</svg>
