<svg id="6d4e9106-a693-4e65-af7d-01b47d9dae1e" data-name="Layer 1" xmlns="http://www.w3.org/2000/svg" viewBox="0 0 512 512.1">
  <title>checked box</title>
  <path d="M423.9,156l-224,222a23.91,23.91,0,0,1-33.5.3l-95-91a24,24,0,0,1,33.2-34.6l78.1,74.8L390.1,121.9A24,24,0,0,1,423.9,156Z" transform="translate(1)"/>
  <path d="M474.3,0H35.7A36.79,36.79,0,0,0-1,36.7V475.3A36.79,36.79,0,0,0,35.7,512v-.1H423.8a19,19,0,0,0,2,.1v.1h48.4a36.79,36.79,0,0,0,36.7-36.7V87.2a19,19,0,0,0,.1-2V36.7A36.79,36.79,0,0,0,474.3,0ZM469,459.1a11,11,0,0,1-11,11H436.1a19,19,0,0,0-2-.1H51.9a11,11,0,0,1-11-11V447.2a19,19,0,0,0,.1-2V53A11,11,0,0,1,52,42H458a11,11,0,0,1,11,11Z" transform="translate(1)"/>
</svg>
