<?xml version="1.0" encoding="utf-8"?>
<!-- Generator: Adobe Illustrator 19.2.0, SVG Export Plug-In . SVG Version: 6.00 Build 0)  -->
<svg version="1.1" id="Layer_1" xmlns="http://www.w3.org/2000/svg" xmlns:xlink="http://www.w3.org/1999/xlink" x="0px" y="0px"
	 viewBox="0 0 512 512" style="enable-background:new 0 0 512 512;" xml:space="preserve">
<g>
	<path d="M193.7,488.5c-62.5-12-116.5-47.6-152.2-100.2C5.8,335.7-7.2,272.4,4.8,209.9S52.3,93.4,104.9,57.7
		C157.6,22.1,220.9,9,283.4,21c94.2,18.1,168,90.3,188,184.1c6.7,31.2,7,63,0.9,94.5c-1.7,8.7-10,14.4-18.7,12.7
		c-8.7-1.7-14.4-10-12.7-18.7c5.2-27.3,5-54.9-0.8-81.8C422.8,130.6,358.9,68,277.4,52.4C223.3,42,168.4,53.3,122.9,84.2
		C77.3,115.1,46.6,161.9,36.2,216C25.8,270,37.1,324.9,68,370.4c30.9,45.5,77.7,76.3,131.7,86.7c18.9,3.6,38.2,4.6,57.2,2.9
		c8.8-0.8,16.6,5.7,17.4,14.5c0.8,8.8-5.7,16.6-14.5,17.4C237.8,493.9,215.6,492.7,193.7,488.5z"/>
</g>
<path d="M370.5,492.8c-4.2,0-8.3-1.7-11.3-4.7l-49.7-49.7c-6.2-6.2-6.2-16.4,0-22.6s16.4-6.2,22.6,0l38.4,38.4l114.2-114.1
	c6.2-6.2,16.4-6.2,22.6,0c6.2,6.2,6.2,16.4,0,22.6L381.8,488.2C378.8,491.2,374.8,492.8,370.5,492.8z"/>
<path d="M293.6,264.5c-10.3-9-25.9-16.9-47-23.7c-13.9-4.4-23.5-9.1-28.8-13.9c-5.3-4.9-8-11.2-8-18.9c0-8.3,2.5-14.9,7.6-19.8
	s12.7-7.4,22.9-7.4c9.8,0,17.4,3.3,23,9.9c3.2,3.8,5.6,8.3,7.1,13.7c2.2,7.7,9.1,13.2,17.2,13.2c12.1,0,20.6-11.7,17-23.2
	c-2.4-7.5-6.1-14.1-11.1-19.8c-9.6-10.8-19.3-17.4-36.3-19.7v-24.6c0-8.6-6.9-15.5-15.5-15.5s-15.5,6.9-15.5,15.5v24.3
	c-17.2,1.8-27.5,7.5-37.6,17.1s-15.1,21.8-15.1,36.7c0,15.7,5.3,28.1,15.8,37.2s26.3,16.9,47.3,23.3c13,4.1,22.2,8.7,27.7,13.8
	c5.5,5,8.3,11.4,8.3,19c0,8.4-3,15-9.1,19.8c-6.1,4.9-14.7,7.3-25.7,7.3c-10.4,0-19-2.7-25.9-8.2c-4.3-3.4-7.2-8.1-8.9-14.3
	c-2.1-7.8-9-13.2-17-13.3l0,0c-12-0.1-20.7,11.5-17.2,23c2.7,8.8,7.3,16.1,13.7,21.7c11.5,9.9,22.8,15.7,40.6,17.4v26.7
	c0,8.6,6.9,15.5,15.5,15.5s15.6-6.9,15.6-15.5V355c18.1-1.7,28.7-7.2,39.1-16.4c10.5-9.2,15.7-21.6,15.7-37.1
	C309,285.8,303.9,273.5,293.6,264.5z"/>
</svg>
