<?xml version="1.0" encoding="utf-8"?>
<!-- Generator: Adobe Illustrator 19.2.0, SVG Export Plug-In . SVG Version: 6.00 Build 0)  -->
<svg version="1.1" id="Layer_1" xmlns="http://www.w3.org/2000/svg" xmlns:xlink="http://www.w3.org/1999/xlink" x="0px" y="0px"
	 viewBox="0 0 512 512" style="enable-background:new 0 0 512 512;" xml:space="preserve">
<path d="M480,128.1H32h-0.3C14.2,128.1,0,142.3,0,159.8v64.3v256c0,17.7,14.3,32,32,32h448c17.7,0,32-14.3,32-32v-256v-64.3
	c0-17.5-14.2-31.7-31.7-31.7C480.3,128.1,480,128.1,480,128.1z M177,160.1c8.8,0,16,7.2,16,16s-7.2,16-16,16s-16-7.2-16-16
	S168.2,160.1,177,160.1z M113,160.1c8.8,0,16,7.2,16,16s-7.2,16-16,16s-16-7.2-16-16S104.2,160.1,113,160.1z M49,160.1
	c8.8,0,16,7.2,16,16s-7.2,16-16,16s-16-7.2-16-16S40.2,160.1,49,160.1z M464,480.1H48c-8.8,0-16-7.2-16-16v-224c0-8.8,7.2-16,16-16
	h416c8.8,0,16,7.2,16,16v224C480,472.9,472.8,480.1,464,480.1z"/>
<g>
	<path d="M160.7,351.7c-18.2,0-33-14.8-33-33s14.8-33,33-33s33,14.8,33,33S178.9,351.7,160.7,351.7z"/>
	<path d="M214.4,417.1H107c-4.6,0-8.8-2.5-11-6.6c-2.2-4-2-8.9,0.4-12.8c6.8-10.6,16.2-19.4,27.1-25.6c11.3-6.3,24.2-9.7,37.2-9.7
		s25.9,3.3,37.2,9.7c11,6.1,20.3,15,27.1,25.5c2.5,3.9,2.6,8.8,0.4,12.8C223.2,414.6,219,417.1,214.4,417.1z"/>
</g>
<path d="M336.2,352.1h-64.3c-8.7,0-15.8-7.1-15.8-15.8V336c0-8.7,7.1-15.8,15.8-15.8h64.3c8.7,0,15.8,7.1,15.8,15.8v0.3
	C352,345,344.9,352.1,336.2,352.1z"/>
<path d="M400.2,416.1H271.8c-8.7,0-15.8-7.1-15.8-15.8V400c0-8.7,7.1-15.8,15.8-15.8h128.3c8.7,0,15.8,7.1,15.8,15.8v0.3
	C416,409,408.9,416.1,400.2,416.1z"/>
</svg>
