<?xml version="1.0" encoding="utf-8"?>
<!-- Generator: Adobe Illustrator 19.2.0, SVG Export Plug-In . SVG Version: 6.00 Build 0)  -->
<svg version="1.1" id="Layer_1" xmlns="http://www.w3.org/2000/svg" xmlns:xlink="http://www.w3.org/1999/xlink" x="0px" y="0px"
	 viewBox="0 0 512 512" style="enable-background:new 0 0 512 512;" xml:space="preserve">
<g>
	<path d="M336.5,215.5h-157c-6.6,0-12,5.4-12,12v11c0,6.6,5.4,12,12,12h157c6.6,0,12-5.4,12-12v-11
		C348.5,220.9,343.1,215.5,336.5,215.5z"/>
	<path d="M356.2,123.8l-39.9-47.2c-1.8-2.2-2.8-4.9-2.8-7.7v-4.4c0-35.6-24.3-64.4-55-64.4c-30.7,0-55,28.8-55,64.4v4.2
		c0,3-1.1,5.8-3.1,8l-42.2,46.8c-6.9,7.7-1.5,20,8.9,20H347C357.2,143.5,362.8,131.6,356.2,123.8z M256.8,40.4
		c10.6,0,19.1,9.9,19.1,22.1c0,12.2-8.5,22.2-19.1,22.2c-10.5,0-19.1-9.9-19.1-22.2C237.7,50.3,246.3,40.4,256.8,40.4z"/>
	<path d="M377.1,96.5l21.3,24c2,2.2,3,5,3,8v320c0,6.6-5.4,12-12,12h-267c-6.6,0-12-5.4-12-12V128.4c0-2.9,1.1-5.7,3-7.9l21.2-24.1
		c6.8-7.8,1.3-19.9-9-19.9H78.5c-6.6,0-12,5.4-12,12v412c0,6.6,5.4,12,12,12h355c6.6,0,12-5.4,12-12v-412c0-6.6-5.4-12-12-12h-47.4
		C375.7,76.5,370.2,88.7,377.1,96.5z"/>
	<path d="M336.5,281.5h-157c-6.6,0-12,5.4-12,12v17c0,6.6,5.4,12,12,12h157c6.6,0,12-5.4,12-12v-17
		C348.5,286.9,343.1,281.5,336.5,281.5z"/>
	<path d="M179.5,389.5h157c6.6,0,12-5.4,12-12v-12c0-6.6-5.4-12-12-12h-157c-6.6,0-12,5.4-12,12v12
		C167.5,384.1,172.9,389.5,179.5,389.5z"/>
</g>
</svg>
