<?xml version="1.0" encoding="utf-8"?>
<!-- Generator: Adobe Illustrator 19.1.0, SVG Export Plug-In . SVG Version: 6.00 Build 0)  -->
<svg version="1.1" id="Layer_1" xmlns="http://www.w3.org/2000/svg" xmlns:xlink="http://www.w3.org/1999/xlink" x="0px" y="0px"
	 viewBox="0 0 512 512" enable-background="new 0 0 512 512" xml:space="preserve">
<path d="M256.3,0.4C115,0.4,0.5,114.9,0.5,256.2S115,512,256.3,512s255.8-114.5,255.8-255.8S397.6,0.4,256.3,0.4z
	 M414.6,414.5c-20.6,20.6-44.5,36.7-71.1,48c-27.6,11.7-56.8,17.6-87.1,17.6c-30.3,0-59.5-5.9-87.1-17.6
	c-26.7-11.3-50.6-27.4-71.1-48c-20.6-20.6-36.7-44.5-48-71.1c-11.7-27.6-17.6-56.9-17.6-87.1c0-30.3,5.9-59.5,17.6-87.1
	c11.3-26.7,27.4-50.6,48-71.1c20.6-20.6,44.5-36.7,71.1-48c27.6-11.7,56.8-17.6,87.1-17.6c30.3,0,59.5,5.9,87.1,17.6
	c26.7,11.3,50.6,27.4,71.1,48c20.6,20.6,36.7,44.5,48,71.1c11.7,27.6,17.6,56.9,17.6,87.1s-5.9,59.5-17.6,87.1
	C451.2,370,435.2,393.9,414.6,414.5z"/>
<path d="M383,274.5H271V111c0-8.8-7.2-16-16-16c-8.8,0-16,7.2-16,16v179.5c0,8.8,7.2,16,16,16h128
	c8.8,0,16-7.2,16-16S391.8,274.5,383,274.5z"/>
</svg>
