<?xml version="1.0" encoding="utf-8"?>
<!-- Generator: Adobe Illustrator 19.2.0, SVG Export Plug-In . SVG Version: 6.00 Build 0)  -->
<svg version="1.1" id="Layer_1" xmlns="http://www.w3.org/2000/svg" xmlns:xlink="http://www.w3.org/1999/xlink" x="0px" y="0px"
	 viewBox="0 0 512 512" style="enable-background:new 0 0 512 512;" xml:space="preserve">
<path d="M496,127H16c-8.8,0-16-7.2-16-16V80c0-8.8,7.2-16,16-16h480c8.8,0,16,7.2,16,16v31C512,119.8,504.8,127,496,127z"/>
<path d="M320,386.1V336c0-8.8-7.2-16-16-16H16c-8.8,0-16-7.2-16-16v-32c0-8.8,7.2-16,16-16h288c8.8,0,16-7.2,16-16v-50.1
	c0-12.8,14.2-20.4,24.9-13.3L492,274.7c9.5,6.3,9.5,20.3,0,26.6l-147.2,98.1C334.2,406.5,320,398.9,320,386.1z"/>
<path d="M496,512H16c-8.8,0-16-7.2-16-16v-31c0-8.8,7.2-16,16-16h480c8.8,0,16,7.2,16,16v31C512,504.8,504.8,512,496,512z"/>
</svg>
