<?xml version="1.0" encoding="utf-8"?>
<!-- Generator: Adobe Illustrator 19.1.0, SVG Export Plug-In . SVG Version: 6.00 Build 0)  -->
<svg version="1.1" id="Layer_1" xmlns="http://www.w3.org/2000/svg" xmlns:xlink="http://www.w3.org/1999/xlink" x="0px" y="0px"
	 viewBox="0 0 512 512" style="enable-background:new 0 0 512 512;" xml:space="preserve">
<path d="M258.3,149.8c-57.3,0-103.9,46.6-103.9,103.9c0,57.3,46.6,103.9,103.9,103.9S362.3,311,362.3,253.7
	C362.3,196.4,315.7,149.8,258.3,149.8z M258.3,325.7c-39.7,0-71.9-32.3-71.9-71.9c0-39.7,32.3-71.9,71.9-71.9
	c39.7,0,71.9,32.3,71.9,71.9C330.3,293.4,298,325.7,258.3,325.7z"/>
<path d="M491.4,202.9l-38.7-14c-3-9.5-6.6-18.6-10.7-27.1l18.3-38.3c5.6-11.8,3.2-26-6-35.2l-30.5-30.6c-9.3-9.3-23.4-11.7-35.2-6.1
	l-38.2,18.1c-8.1-3.8-16.7-7.1-27.1-10.3l-14-38.7c-4.4-12.2-16.1-20.3-29.1-20.3h-43.6c-12.9,0-24.6,8.2-29.1,20.4l-14.1,38.8
	c-9.7,3.1-18.8,6.7-27.1,10.7l-38.2-18.4c-11.8-5.6-26-3.2-35.2,6L62.1,88.3c-9.3,9.3-11.7,23.5-6,35.3l18,37.8
	c-5.2,9.8-9.2,18.7-12.2,27l-40.8,14.2C8.6,207,0.2,218.7,0.2,232v43.3c0,13.2,8.4,25,20.7,29.2l40.9,14.3
	c3.1,8.8,6.9,17.7,11.7,27.1L55.6,384c-5.6,11.9-3.2,26,6.2,35.2l30.8,30.8c9.2,9.2,23.4,11.7,35.2,6l38.1-18.1
	c9.7,5.2,18.6,9.2,27.1,12.2l14.2,40.8c4.3,12.5,16,20.8,29.3,20.8h43.3c13.2,0,25-8.4,29.3-20.8l14.2-40.9c8.9-3.1,18-7,27.1-11.7
	l38.1,17.9c11.8,5.6,26,3.1,35.3-6.2l30.7-30.9c9.2-9.2,11.6-23.3,6-35.2l-18.2-38.4c3.8-8,7.1-16.6,10.3-27.1l38.6-14
	c12.3-4.3,20.6-16,20.6-29V232C511.8,219,503.6,207.3,491.4,202.9z M479.8,274.7l-38.5,14c-9.2,3.3-16.1,10.6-19,19.9l0,0.1
	c-2.8,9.3-5.7,16.8-8.9,23.5c-4.1,8.5-4.2,18.3-0.1,26.7l18.2,38.3l-29.7,29.9l-38-17.9c-8.9-4.1-18.8-4-27.3,0.5
	c-8,4.1-16,7.6-23.7,10.3c-8.9,2.9-16.1,10.1-19.3,19.1l-14.2,40.7h-41.8L223.2,439c-3.1-8.9-10-15.9-19-19
	c-7.3-2.6-15-6.1-23.7-10.7c-8.7-4.6-19.1-4.8-27.9-0.6l-37.9,18l-29.9-29.8l17.9-37.9c4.1-8.9,4-18.9-0.5-27.3
	c-4.3-8.3-7.7-16.1-10.3-23.9c-3.1-8.9-10.2-16-19.1-19.1l-40.6-14.2v-41.8l40.7-14.2c8.9-3.1,15.9-10,19-18.9
	c2.5-7,6-14.7,10.7-23.5c4.6-8.6,4.9-19,0.6-27.9l-18-37.8l29.8-29.5l38,18.3c8.5,4.1,18.6,4,27.1-0.2c7.1-3.5,15.1-6.6,23.6-9.3
	c9-2.9,16.3-9.9,19.6-19l14-38.5h42.1l13.9,38.4c3.3,9.2,10.6,16.1,19.9,19l0.1,0c9.2,2.8,16.6,5.6,23.4,8.9
	c8.6,4.1,18.3,4.1,26.8,0.1l38-18l29.5,29.6l-18.2,38l-0.1,0.2c-4,8.7-4,18.5,0.2,26.9c3.6,7.4,6.7,15.3,9.3,23.5
	c2.7,9,9.8,16.4,18.9,19.8l38.5,14V274.7z"/>
</svg>
