<?xml version="1.0" encoding="utf-8"?>
<!-- Generator: Adobe Illustrator 19.2.0, SVG Export Plug-In . SVG Version: 6.00 Build 0)  -->
<svg version="1.1" id="Layer_1" xmlns="http://www.w3.org/2000/svg" xmlns:xlink="http://www.w3.org/1999/xlink" x="0px" y="0px"
	 viewBox="0 0 512 512" style="enable-background:new 0 0 512 512;" xml:space="preserve">
<g>
	<path d="M256.7,0.2C116.9,0.2,3.1,115,3.1,255.9C3.1,323.5,29.2,385,72,430.8c-13.5,17.1-45.6,56.7-59.8,63.7
		c-27.6,13.7,9.6,21.3,52.4,12.5c23.1-4.8,47.8-14.2,64.9-30.1c37.5,22,81,34.7,127.3,34.7c139.9,0,253.7-114.8,253.7-255.7
		S396.6,0.2,256.7,0.2z M256.7,471.7c-118,0-214.1-96.9-214.1-215.8S138.7,40.1,256.7,40.1s214.1,96.9,214.1,215.8
		S374.7,471.7,256.7,471.7z"/>
	<path d="M115.4,220.7h279.8c10.9,0,19.7-8.9,19.6-19.9c0-11-8.8-19.9-19.7-19.9H115.4c-10.9,0-19.7,8.9-19.7,19.9
		C95.7,211.8,104.5,220.7,115.4,220.7z"/>
	<path d="M395.2,291.2H115.4c-10.9,0-19.7,8.9-19.7,19.9c0,11,8.8,19.9,19.7,19.9h279.8c10.9,0,19.6-8.9,19.6-19.9
		C414.9,300.1,406.1,291.2,395.2,291.2z"/>
</g>
</svg>
