<?xml version="1.0" encoding="utf-8"?>
<!-- Generator: Adobe Illustrator 19.1.0, SVG Export Plug-In . SVG Version: 6.00 Build 0)  -->
<svg version="1.1" id="Layer_1" xmlns="http://www.w3.org/2000/svg" xmlns:xlink="http://www.w3.org/1999/xlink" x="0px" y="0px"
	 viewBox="0 0 512 512" enable-background="new 0 0 512 512" xml:space="preserve">
<path fill="#1D1D1B" d="M509.8,458.2c-9.4-11.9-20.7-22.3-33.7-30.9l-103.7-68.7l-7.2-4.8c-8.4-5.6-16-12-22.8-19.2
	c-6.8-7.2-12.6-15-17.4-23.4c-0.5-0.9-1.2-1.7-2-2.3c10.3-17.9,19-36.8,25.9-56.3c3.4-9.5,14.7-43.5,19.8-79.9
	c7.1-50.9-0.8-85.4-23.5-102.6c-8.7-6.6-19.4-10.5-32-11.6c-7.1-4.4-14.6-8-22.4-10.6c-23.1-7.9-42.7-5.5-53.3-4.3
	c-14.1,1.7-51.6,6.1-76.7,30.2c-58,55.7-7.9,176.3-2,189.8c7.5,17.3,17,33.8,28.2,49.3c-4.6,7.8-10.1,15.2-16.5,21.9
	c-6.8,7.1-14.4,13.6-22.8,19.2l-7.2,4.8L36.9,427.3c-13,8.6-24.4,19-33.7,30.9c-2.7,3.5-2.2,8.5,1.3,11.3c1.5,1.2,3.2,1.7,5,1.7
	c2.4,0,4.7-1,6.3-3.1c8.3-10.6,18.4-19.8,30-27.5l94.2-62.4c24.6,14.4,64.2,31.3,114.9,31.8c0.6,0,1.3,0,1.9,0
	c51.5,0,91.6-17.1,116.3-31.5c0.1,0,0.1-0.1,0.2-0.1l93.9,62.2c11.6,7.7,21.7,16.9,30,27.5c1.6,2,3.9,3.1,6.3,3.1
	c1.7,0,3.5-0.6,5-1.7C511.9,466.7,512.5,461.7,509.8,458.2z M171.9,85.3c21.2-20.3,54.8-24.3,67.5-25.8c9.9-1.2,26.5-3.1,46.2,3.5
	c7.2,2.4,14.1,5.8,20.6,10c1.2,0.8,2.5,1.2,3.9,1.3c10.3,0.7,18.8,3.5,25.4,8.5c20.7,15.8,21.6,52.1,18.1,81.9
	c-7.5-7.8-14.8-11.9-20.7-15.2c-5.8-3.2-9.9-5.5-13.3-10.3c-3.2-4.5-5.2-10.3-6.1-17.1c0.3-1.8,0-3.8-1-5.6c-1.5-2.6-4.3-4-7.1-3.9
	c0,0-0.1,0-0.1,0c0,0,0,0-0.1,0c-0.2,0-0.5,0-0.7,0c-1.8,0.2-3.4,0.9-4.6,2c-9,5.1-18.4,8.9-28.1,11.1c-15.5,3.5-27,2.1-38.2,0.8
	c-7-0.8-14.2-1.7-21.8-1.3c-21.2,1.2-42.1,11.9-62.4,32C148.3,130,153.4,103.1,171.9,85.3z M173.5,257.1
	c-1.2-2.7-16.5-38.5-22.2-78.5c20.5-23.7,41.1-36.3,61.3-37.4c6.3-0.3,12.5,0.4,19.1,1.2c11.9,1.4,25.5,3.1,43.7-1.1
	c8.2-1.9,16.2-4.7,23.9-8.3c1.6,5.8,4,10.9,7.2,15.5c5.5,7.7,12.1,11.4,18.6,15c5.6,3.1,11.4,6.4,17.5,12.8c2.9,3.1,5.5,6.4,7.7,10
	c-5.4,28.6-13.7,53.2-16.4,60.9c-8.7,24.6-20.3,48.1-34.6,69.9c-9.9,5.6-25.2,11.9-44.6,11.9c-0.1,0-0.3,0-0.4,0
	c-18.5-0.1-33.2-5.9-42.7-11.1C195.8,299.4,183,279,173.5,257.1z M255,394c-42.7-0.4-76.9-13.3-100-25.7l1.7-1.1
	c16.5-10.9,30.5-24.9,40.9-40.9c0.9,1.1,1.8,2.1,2.7,3.2c0.6,0.7,1.3,1.3,2.1,1.8c11.1,6.3,29,13.7,51.8,13.8c0.2,0,0.3,0,0.5,0
	c24,0,42.8-8.2,54.3-15.1c1-0.6,1.9-1.5,2.6-2.5c0.8-1.2,1.6-2.4,2.4-3.7c10.6,16.9,25.1,31.8,42.4,43.3l1.9,1.3
	C334.6,381.1,299.2,394.3,255,394z"/>
</svg>
