<?xml version="1.0" encoding="utf-8"?>
<!-- Generator: Adobe Illustrator 19.1.0, SVG Export Plug-In . SVG Version: 6.00 Build 0)  -->
<svg version="1.1" id="Layer_1" xmlns="http://www.w3.org/2000/svg" xmlns:xlink="http://www.w3.org/1999/xlink" x="0px" y="0px"
	 viewBox="0 0 512 512" style="enable-background:new 0 0 512 512;" xml:space="preserve">
<rect x="103.9" y="85.8" class="st0" width="32" height="47.2"/>
<rect x="103.9" y="163" class="st0" width="32" height="216.2"/>
<polygon points="511,378.2 463.9,378.2 463.9,331.1 431.9,331.1 431.9,378.2 384.8,378.2 384.8,410.2 431.9,410.2
	431.9,457.3 463.9,457.3 463.9,410.2 511,410.2 "/>
<path d="M103.9,378.2H33.2V164h70.7h32h296v119.5h32V54.8H1.2v355.4h335.6v-32h-201H103.9z M103.9,86.8h32h296V132h-296
	h-32H33.2V86.8H103.9z"/>
</svg>
