<?xml version="1.0" encoding="utf-8"?>
<!-- Generator: Adobe Illustrator 19.2.0, SVG Export Plug-In . SVG Version: 6.00 Build 0)  -->
<svg version="1.1" id="Layer_1" xmlns="http://www.w3.org/2000/svg" xmlns:xlink="http://www.w3.org/1999/xlink" x="0px" y="0px"
	 viewBox="0 0 512 512" style="enable-background:new 0 0 512 512;" xml:space="preserve">
<g>
	<path d="M91.6,418.7h140.1c7.4,0,13.4-6,13.4-13.4c0-7.4-6-13.4-13.4-13.4H91.6c-7.4,0-13.4,6-13.4,13.4
		C78.2,412.7,84.2,418.7,91.6,418.7z"/>
	<path d="M361.6,418.7h60.1c7.4,0,13.4-6,13.4-13.4c0-7.4-6-13.4-13.4-13.4h-60.1c-7.4,0-13.4,6-13.4,13.4
		C348.2,412.7,354.2,418.7,361.6,418.7z"/>
	<path d="M479.7,193.7h-443c-20.9,0-36.7,13-36.7,33.9V473c0,20.8,15.9,39,36.7,39h443c20.9,0,32.3-18.2,32.3-39V227.6
		C512,206.7,500.6,193.7,479.7,193.7z M487,466.2c0,7.3-2,15.2-9.3,15.2H38.8c-7.3,0-11.7-7.9-11.7-15.2V324.3H487V466.2z
		 M487,271.8H27.1v-38c0-7.3,4.4-9.9,11.7-9.9h438.9c7.3,0,9.3,2.6,9.3,9.9V271.8z"/>
</g>
</svg>
