<?xml version="1.0" encoding="utf-8"?>
<!-- Generator: Adobe Illustrator 19.2.0, SVG Export Plug-In . SVG Version: 6.00 Build 0)  -->
<svg version="1.1" id="Layer_1" xmlns="http://www.w3.org/2000/svg" xmlns:xlink="http://www.w3.org/1999/xlink" x="0px" y="0px"
	 viewBox="0 0 512 512" style="enable-background:new 0 0 512 512;" xml:space="preserve">
<path d="M480,95.5H32c-17.9,0-32.5,14.6-32.5,32.5v256c0,17.9,14.6,32.5,32.5,32.5l448-0.4c17.9,0,32.5-14.6,32.5-32.5V128
	C512.5,110.1,497.9,95.5,480,95.5z M472,191.5H40c-4.1,0-7.5-3.4-7.5-7.5v-40c0-8.5,7-15.5,15.5-15.5h416c8.5,0,15.5,7,15.5,15.5v40
	C479.5,188.1,476.1,191.5,472,191.5z M32.5,264c0-4.1,3.4-7.5,7.5-7.5h432c4.1,0,7.5,3.4,7.5,7.5v104c0,8.5-7,15.5-15.5,15.5H48
	c-8.5,0-15.5-7-15.5-15.5V264z"/>
<path d="M132.6,352.5c10.4,0,20.4-4.4,27.4-12.1c7,7.7,17,12.1,27.4,12.1c20.5,0,37.1-16.6,37.1-37.1s-16.6-37.1-37.1-37.1
	c-10.4,0-20.4,4.4-27.4,12.1c-7-7.7-17-12.1-27.4-12.1c-20.5,0-37.1,16.6-37.1,37.1S112.1,352.5,132.6,352.5z"/>
</svg>
