<?xml version="1.0" encoding="utf-8"?>
<!-- Generator: Adobe Illustrator 19.2.0, SVG Export Plug-In . SVG Version: 6.00 Build 0)  -->
<svg version="1.1" id="Layer_1" xmlns="http://www.w3.org/2000/svg" xmlns:xlink="http://www.w3.org/1999/xlink" x="0px" y="0px"
	 viewBox="0 0 512 512" style="enable-background:new 0 0 512 512;" xml:space="preserve">
<g>
	<path d="M448,32c0-17.7-14.3-32-32-32H96C78.3,0,64,14.3,64,32v448c0,17.7,14.3,32,32,32h192c14.3-4.7,17.2-6.8,27.2-15.2
		l122-120.8c0.9-0.8,1.8-1.7,2.7-2.6l0.1-0.1c0.6-0.6,1.1-1.2,1.5-1.9c4.1-5.4,6.5-12,6.5-19.3L448,32z M320,449.3V416
		c0-17.7,14.3-32,32-32h34.1L320,449.3z M416,352h-64c-35.3,0-64,28.7-64,64v64H96V32h320V352z"/>
</g>
<path d="M312.3,217.8c-10.5-9.2-26.4-17.4-48-24.4c-14.2-4.5-24-9.4-29.4-14.3c-5.4-5-8.2-11.5-8.2-19.4c0-8.5,2.6-15.3,7.8-20.3
	s13-7.6,23.4-7.6c10,0,17.8,3.4,23.5,10.2c3.3,3.9,5.7,8.5,7.2,14.1c2.2,7.9,9.3,13.6,17.6,13.6c12.3,0,21-12,17.3-23.8
	c-2.4-7.7-6.2-14.5-11.3-20.3c-9.8-11.1-17.8-17.9-35.2-20.2V79.9c0-8.8-8.9-15.9-17.7-15.9s-16.2,7.1-16.2,15.9v25
	c-17.6,1.8-27.7,7.7-38,17.6s-15.4,22.4-15.4,37.7c0,16.1,5.4,28.9,16.1,38.2c10.7,9.4,26.8,17.4,48.3,23.9
	c13.3,4.2,22.7,8.9,28.3,14.2c5.6,5.1,8.5,11.7,8.5,19.5c0,8.6-3.1,15.4-9.3,20.3c-6.2,5-15,7.5-26.2,7.5c-10.6,0-19.4-2.8-26.4-8.4
	c-4.4-3.5-7.3-8.3-9.1-14.7c-2.1-8-9.2-13.6-17.3-13.7l0,0c-12.2-0.1-21.1,11.8-17.6,23.6c2.8,9,7.4,16.5,14,22.3
	c11.7,10.2,23.9,16.1,42.1,17.9v27.4c0,8.8,6.4,15.9,15.2,15.9c8.8,0,16.8-7.1,16.8-15.9v-27.5c18.5-1.7,28.4-7.4,39-16.9
	c10.7-9.5,16-22.2,16-38.1C328,239.7,322.8,227.1,312.3,217.8z"/>
</svg>
