<?xml version="1.0" encoding="utf-8"?>
<!-- Generator: Adobe Illustrator 19.2.0, SVG Export Plug-In . SVG Version: 6.00 Build 0)  -->
<svg version="1.1" id="Layer_1" xmlns="http://www.w3.org/2000/svg" xmlns:xlink="http://www.w3.org/1999/xlink" x="0px" y="0px"
	 viewBox="0 0 512 512" style="enable-background:new 0 0 512 512;" xml:space="preserve">
<path d="M441.6,116.6L329,4.7c-3-3-7.1-4.7-11.3-4.7h-31.4H94.1C76.5,0,62.4,14.2,62.4,31.7V32v448.2c0,17.5,14.2,31.7,31.7,31.7
	h0.3h320h0.3c17.3,0,31.3-14,31.4-31.3l0.3-352.7C446.3,123.8,444.6,119.7,441.6,116.6z M307.2,24.6c0-4.4,5.3-6.5,8.3-3.4
	l106.6,106.5c3.1,3.1,0.9,8.3-3.4,8.3h-91.9c-10.8,0-19.6-8.8-19.6-19.6V24.6z M409.4,491.7H99.2c-9.5,0-17.3-7.7-17.3-17.1V36.3
	c0-9.4,7.8-17.1,17.3-17.1h172.4c9.5,0,17.3,7.7,17.3,17.1v83.2v0.3c0,18.7,14.7,33.8,34.1,33.8h86.5c9.5,0,17.3,7.7,17.3,17.1
	l0,56.5H210.6c-6.9,0-12.5,5.6-12.5,12.5V318c0,6.9,5.6,12.5,12.5,12.5h216.1l0,144.1C426.7,484,418.9,491.7,409.4,491.7z
	 M412.1,240.3L386.4,316h-17.5l-25.7-75.7h16.2l14.2,45c0.8,2.7,1.6,5.8,2.5,9.3c0.8,3.5,1.4,6,1.6,7.4c0.4-3.2,1.7-8.7,3.9-16.7
	l14.3-45H412.1z M322.1,291.8c-0.8-1.2-2-2.3-3.6-3.3c-1.6-1.1-4.9-2.8-9.8-5.1c-4.6-2.2-8.1-4.3-10.4-6.3c-2.3-2-4.2-4.3-5.5-7
	c-1.4-2.7-2.1-5.8-2.1-9.3c0-6.7,2.3-12,6.8-15.8s10.8-5.7,18.8-5.7c3.9,0,7.7,0.5,11.3,1.4c3.6,0.9,7.3,2.2,11.2,3.9l-5.2,12.5
	c-4-1.7-7.4-2.8-10-3.5c-2.6-0.7-5.2-1-7.8-1c-3,0-5.4,0.7-7,2.1c-1.6,1.4-2.4,3.3-2.4,5.5c0,1.4,0.3,2.6,1,3.7
	c0.7,1.1,1.7,2.1,3.1,3.1c1.4,1,4.8,2.8,10.2,5.3c7.1,3.4,11.9,6.8,14.5,10.2c2.6,3.4,3.9,7.6,3.9,12.5c0,6.8-2.5,12.2-7.4,16.1
	c-4.9,3.9-11.8,5.9-20.5,5.9c-8.1,0-15.2-1.5-21.4-4.6v-14.9c5.1,2.3,9.4,3.9,13,4.8s6.8,1.4,9.7,1.4c3.5,0,6.2-0.7,8.1-2
	s2.8-3.3,2.8-6C323.3,294.3,322.9,293,322.1,291.8z M259,303.7c5.3,0,11.7-1.3,19.3-4v13.5c-6.2,2.6-13.1,3.9-20.8,3.9
	c-11,0-19.4-3.3-25.3-10c-5.8-6.7-8.7-16.3-8.7-28.8c0-7.9,1.4-14.8,4.3-20.7c2.9-5.9,7-10.5,12.3-13.6s11.7-4.7,18.9-4.7
	c7.4,0,14.7,1.8,22.2,5.3l-5.2,13c-2.8-1.3-5.7-2.5-8.5-3.5c-2.9-1-5.7-1.5-8.4-1.5c-6,0-10.7,2.3-14,6.8c-3.3,4.5-5,10.9-5,19
	C240,295.2,246.3,303.7,259,303.7z"/>
</svg>
