<?xml version="1.0" encoding="utf-8"?>
<!-- Generator: Adobe Illustrator 19.2.0, SVG Export Plug-In . SVG Version: 6.00 Build 0)  -->
<svg version="1.1" id="Layer_1" xmlns="http://www.w3.org/2000/svg" xmlns:xlink="http://www.w3.org/1999/xlink" x="0px" y="0px"
	 viewBox="0 0 512 512" style="enable-background:new 0 0 512 512;" xml:space="preserve">
<path d="M256,0C114.6,0,0,114.6,0,256s114.6,256,256,256s256-114.6,256-256S397.4,0,256,0z M414.4,414.4
	c-20.6,20.6-44.5,36.7-71.2,48C315.6,474.1,286.3,480,256,480s-59.6-5.9-87.2-17.6c-26.7-11.3-50.6-27.4-71.2-48
	c-20.6-20.6-36.7-44.5-48-71.2C37.9,315.6,32,286.3,32,256s5.9-59.6,17.6-87.2c11.3-26.7,27.4-50.6,48-71.2
	c20.6-20.6,44.5-36.7,71.2-48C196.4,37.9,225.7,32,256,32s59.6,5.9,87.2,17.6c26.7,11.3,50.6,27.4,71.2,48
	c20.6,20.6,36.7,44.5,48,71.2c11.7,27.6,17.6,56.9,17.6,87.2c0,30.3-5.9,59.6-17.6,87.2C451.1,369.9,435,393.8,414.4,414.4z"/>
<path d="M310,268.2c-10.1-9.8-25.4-18.4-46-25.8c-13.6-4.9-23-9.9-28.2-15.2c-5.2-5.3-7.8-12.2-7.8-20.6c0-9.1,2.5-16.3,7.5-21.6
	c5-5.3,12.4-8,22.4-8c9.6,0,17.1,3.6,22.6,10.8c3.3,4.2,5.6,9.5,6.9,15.6c1.7,7.9,8.8,13.6,17,13.6h0.5c11.2,0,19.6-10.4,17.1-21.3
	c-2.2-9.9-6.1-18.4-11.8-25.5c-9.5-11.8-22.1-19-39.1-21.5V128c0-6.3-5.3-11-11.7-11H259c-6.3,0-10.9,4.6-10.9,11v20.5
	c-17,2-30.6,8.2-40.5,18.6c-9.8,10.5-15.1,23.8-15.1,40c0,17.1,5.2,30.6,15.5,40.5c10.3,9.9,25.8,18.4,46.4,25.4
	c12.7,4.5,21.8,9.5,27.2,15c5.4,5.5,8.1,12.4,8.1,20.7c0,9.1-2.9,16.3-8.9,21.6s-14.4,7.9-25.2,7.9c-10.1,0-18.6-3-25.4-9
	c-4.4-3.8-7.5-9.5-9.1-16.7c-1.7-7.8-8.8-13.5-16.9-13.5h-0.3c-11.2,0-19.5,10.7-16.9,21.7c2.6,11.1,7.6,20.4,14.7,27.2
	c11.3,10.8,25.3,17.1,43.3,19v16.9c0,6.3,4.9,11.2,11.3,11.2h0.2c6.4,0,11.5-4.8,11.5-11.2v-17c18-1.9,31.8-7.8,42.1-17.9
	c10.2-10.1,15.4-23.6,15-40.6C325.1,291.3,320.1,278,310,268.2z"/>
</svg>
