<?xml version="1.0" encoding="utf-8"?>
<!-- Generator: Adobe Illustrator 19.2.0, SVG Export Plug-In . SVG Version: 6.00 Build 0)  -->
<svg version="1.1" id="Layer_1" xmlns="http://www.w3.org/2000/svg" xmlns:xlink="http://www.w3.org/1999/xlink" x="0px" y="0px"
	 viewBox="0 0 512 512" style="enable-background:new 0 0 512 512;" xml:space="preserve">
<g>
	<path d="M255.7,469.5H48.5c-6.6,0-12-5.4-12-12v-405c0-6.6,5.4-12,12-12h222v65c0,6.6,5.4,12,12,12h65v225.9
		c10-10.1,20-24.8,36-40.9V113.6L272.6,0.5H31.2c-14,0-31.7,10.2-31.7,24.2v457.4c0,15.6,12.8,28.4,28.4,28.4h200.3
		C228.3,510.5,255.4,469.5,255.7,469.5z"/>
	<path d="M338.4,352.5l-0.1-1.2C338.3,351.9,338.4,352.6,338.4,352.5z"/>
	<polygon points="337.1,438.8 379.7,409.8 341,375.9 317,416.9 	"/>
	<path d="M330.7,463c4.6-33.4-21.2-39-21.2-39c-26.8-0.9-40.7,48-40.7,48c-3.5,13.5-21.3,39.5-21.3,39.5
		C261.7,515.4,326,496.4,330.7,463z"/>
	<path d="M509.3,210c-24.5-9.6-162.6,157.2-162.6,157.2l37.2,34.3C384,401.5,533.8,219.7,509.3,210z"/>
	<path d="M345.1,469.5c-4,16-18.2,31-34.9,41h51.4c14,0,22-14.4,22-28.4v-55.7l-36,24.1L345.1,469.5z"/>
	<path d="M76.5,92L76.5,92c0,5.8,4.7,10.5,10.5,10.5h97c5.8,0,10.5-4.7,10.5-10.5v0c0-5.8-4.7-10.5-10.5-10.5H87
		C81.2,81.5,76.5,86.2,76.5,92z"/>
	<path d="M88.5,153.5h145c6.6,0,12-5.4,12-12v-2c0-6.6-5.4-12-12-12h-145c-6.6,0-12,5.4-12,12v2C76.5,148.1,81.9,153.5,88.5,153.5z"
		/>
	<path d="M271,434.5c11.9-21,25.4-23.4,33-24.7l7.5-13.3v-180c0-6.6-5.4-12-12-12h-211c-6.6,0-12,5.4-12,12v155c0,6.6,5.4,12,12,12
		h131v39c0,6.6,5.4,12,12,12H271z M245.5,229.5h35v36h-35V229.5z M245.5,296.5h35v61h-35V296.5z M245.5,383.5h35v25h-35V383.5z
		 M103.5,229.5h116v36h-116V229.5z M103.5,357.5v-61h116v61H103.5z"/>
</g>
</svg>
