<?xml version="1.0" encoding="utf-8"?>
<!-- Generator: Adobe Illustrator 19.1.0, SVG Export Plug-In . SVG Version: 6.00 Build 0)  -->
<svg version="1.1" id="Layer_1" xmlns="http://www.w3.org/2000/svg" xmlns:xlink="http://www.w3.org/1999/xlink" x="0px" y="0px"
	 viewBox="0 0 512 512" enable-background="new 0 0 512 512" xml:space="preserve">
<path d="M224,229c58.4,0,106-47.6,106-106S282.4,17,224,17c-58.4,0-106,47.6-106,106S165.6,229,224,229z M224,49
	c40.8,0,74,33.2,74,74s-33.2,74-74,74s-74-33.2-74-74S183.2,49,224,49z"/>
<path d="M346.7,310.9l10.7-30.1c-14.6-5.2-29.8-7.8-45.4-7.8H136C61,273,0,333.9,0,408.9V465h32v-56.1C32,351.6,78.7,305,136,305
	h176C323.9,305,335.6,307,346.7,310.9z"/>
<polygon points="426.2,322.8 403.5,345.4 451.1,393 289,393 289,425 451.1,425 403.5,472.6 426.2,495.2 512.4,409 "/>
</svg>
