<?xml version="1.0" encoding="utf-8"?>
<!-- Generator: Adobe Illustrator 19.1.0, SVG Export Plug-In . SVG Version: 6.00 Build 0)  -->
<svg version="1.1" id="Layer_1" xmlns="http://www.w3.org/2000/svg" xmlns:xlink="http://www.w3.org/1999/xlink" x="0px" y="0px"
	 viewBox="0 0 512 512" enable-background="new 0 0 512 512" xml:space="preserve">
<path fill="#1D1D1B" d="M380.6,335.9c-0.2,0-0.4,0-0.6,0l-70-75.6L463.1,25.8c4.7-7.2,3.1-16.9-3.7-22.2C452.6-1.8,442.9-1,437,5.3
	l-181.4,196L74.1,5.3C68.2-1,58.4-1.8,51.6,3.5c-6.8,5.3-8.4,15-3.7,22.2L201,260.3l-70,75.6c-0.2,0-0.4,0-0.6,0
	c-48.4,0-87.8,39.4-87.8,87.8s39.4,87.8,87.8,87.8s87.8-39.4,87.8-87.8c0-6.6-0.8-13.1-2.2-19.3l39.5-60.5l39.5,60.5
	c-1.4,6.2-2.2,12.7-2.2,19.3c0,48.4,39.4,87.8,87.8,87.8s87.8-39.4,87.8-87.8S429,335.9,380.6,335.9z M241.1,265.4
	c0-8.8,7.2-16,16-16c8.8,0,16,7.2,16,16s-7.2,16-16,16C248.3,281.3,241.1,274.2,241.1,265.4z M290.5,229.3c-2.8-2.6-5.9-4.9-9.2-6.8
	l46.2-49.9L290.5,229.3z M230.8,223.7c-3.3,2.1-6.4,4.6-9.1,7.4l-38.2-58.5L230.8,223.7z M130.4,478.1c-30,0-54.5-24.4-54.5-54.5
	c0-30,24.4-54.5,54.5-54.5c30,0,54.5,24.4,54.5,54.5C184.9,453.7,160.5,478.1,130.4,478.1z M199.2,369.2
	c-8.2-10.4-18.8-18.9-30.8-24.7l47.8-51.6c4.1,6.1,9.5,11.2,15.8,14.9l3.7,5.6L199.2,369.2z M275.4,313.4l2.1-3.2
	c7.6-3.5,14.2-8.8,19.1-15.5l46.1,49.8c-12.1,5.8-22.6,14.3-30.8,24.7L275.4,313.4z M380.6,478.1c-30,0-54.5-24.4-54.5-54.5
	c0-30,24.4-54.5,54.5-54.5c30,0,54.5,24.4,54.5,54.5C435.1,453.7,410.7,478.1,380.6,478.1z"/>
</svg>
