<?xml version="1.0" encoding="utf-8"?>
<!-- Generator: Adobe Illustrator 19.2.0, SVG Export Plug-In . SVG Version: 6.00 Build 0)  -->
<svg version="1.1" id="Layer_1" xmlns="http://www.w3.org/2000/svg" xmlns:xlink="http://www.w3.org/1999/xlink" x="0px" y="0px"
	 viewBox="0 0 512 512" style="enable-background:new 0 0 512 512;" xml:space="preserve">
<g>
	<path d="M256,180c8.8,0,16-7.2,16-16v-22c0-8.8-7.2-16-16-16s-16,7.2-16,16v22C240,172.8,247.2,180,256,180z"/>
	<path d="M123,320h-21c-8.8,0-16,7.2-16,16s7.2,16,16,16h21c8.8,0,16-7.2,16-16S131.8,320,123,320z"/>
	<path d="M411,320h-21c-8.8,0-16,7-16,15.8s7.2,16,16,16h21c8.8,0,16-7.2,16-16S419.8,320,411,320z"/>
	<path d="M272,336.5v-64.6c0-8.8-7.2-16-16-16s-16,7.2-16,16v64.6c-10.3,5.7-17.4,16.9-17.4,29.7c0,18.7,14.9,33.8,33.4,33.8
		s33.4-15.1,33.4-33.8C289.4,353.4,282.3,342.2,272,336.5z"/>
	<path d="M155.7,195.9c-6.1-6.4-16.2-6.7-22.6-0.6c-6.4,6.1-6.7,16.2-0.6,22.6l14.7,15.4c6.1,6.4,16.2,6.7,22.6,0.6
		c6.4-6.1,6.7-16.2,0.6-22.6L155.7,195.9z"/>
	<path d="M379,197.4c-6.1-6.4-16.2-6.6-22.6-0.5l-16.3,15.6c-6.4,6.1-6.6,16.2-0.5,22.6c6.1,6.4,16.2,6.6,22.6,0.5l16.3-15.6
		C384.9,213.9,385.1,203.8,379,197.4z"/>
	<path d="M436.7,122.8C388.4,74.6,324.3,48,256,48S123.6,74.6,75.3,122.8C27.1,171.1,0.5,231,0.5,299.3
		c0,64.6,16.6,112.8,59.1,158.7c4.7,5.1,11.4,6,18.3,6H438c7.1,0,13.8-1,18.5-6.2c42-45.8,55-94.1,55-158.5
		C511.5,231,485,171.1,436.7,122.8z M442.9,421c-4.6,7-12.5,11.2-20.9,11.2L90,432c-8.4,0-16.3-2.9-20.9-10
		c-23.8-36.1-36.6-78.4-36.6-122.7c0-59.7,23.2-115.8,65.4-158C140.2,99.1,196.3,80,256,80s115.8,19,158.2,61.2
		c42.2,42.3,65.5,98.4,65.5,158.1C479.7,329.7,466.9,384.8,442.9,421z"/>
</g>
</svg>
