<?xml version="1.0" encoding="utf-8"?>
<!-- Generator: Adobe Illustrator 21.0.2, SVG Export Plug-In . SVG Version: 6.00 Build 0)  -->
<svg version="1.1" id="_x33_f78df33-bbda-4dda-98dd-9d72c1e1bb98"
	 xmlns="http://www.w3.org/2000/svg" xmlns:xlink="http://www.w3.org/1999/xlink" x="0px" y="0px" viewBox="0 0 85 85">
<path d="M40.6,71.2c0,1.2,0.2,2.3,0.6,3.3c-2.9,0.4-5.8,0.6-8.7,0.6C14.5,75,0,68.2,0,59.9v-7.6c7.5,9.1,17.8,11.4,27.5,11.9
	c0.9,0,1.7,0.1,2.5,0.1c0.8,0,1.7,0,2.5,0c2.6,0,5.3-0.1,8.1-0.3V71.2z"/>
<path d="M42.6,48.6c-1.3,1.6-2,3.7-2,5.9v4.8c-1.6,0.2-3.2,0.3-4.9,0.4c0,0,0,0,0,0c-1,0-2.1,0.1-3.2,0.1C14.5,59.9,0,53.1,0,44.8
	v-7.6c8.6,10.6,21.2,12,32.1,12c0,0,0,0,0,0h0.4C35.8,49.2,39.2,49.1,42.6,48.6z"/>
<path d="M51.1,32.2c-1.5,1.4-2.8,3.2-3.6,5.1c-0.5,1.1-0.9,2-1.2,2.8c-0.5,1.3-0.7,2.6-0.5,3.9c-4.1,0.8-8.5,1.3-13.3,1.3
	C14.5,45.4,0,38.6,0,30.3v-7.6c1.5,1.9,3.2,3.4,4.9,4.8c5.4,4.1,11.6,5.9,17.8,6.7c0.1,0,0.1,0,0.2,0c3.2,0.4,6.4,0.5,9.6,0.5
	C38.5,34.7,45,34.3,51.1,32.2z"/>
<path d="M65,22.1v6.2c-1.1-0.3-2.2-0.4-3.3-0.4c-0.8,0-1.7,0.1-2.5,0.2c0.5-0.3,0.9-0.7,1.4-1.1C62.3,25.6,63.8,23.9,65,22.1z"/>
<path d="M65,15.1c0,0.8-0.1,1.5-0.4,2.3c-0.2,0.5-0.3,0.9-0.6,1.3c-0.7,1.2-1.6,2.4-2.9,3.5c0,0,0,0,0,0c-0.6,0.5-1.3,1.1-2.1,1.6
	c0,0,0,0,0,0c-5.9,3.9-15.6,6.4-26.5,6.4S11.8,27.7,6,23.9c0,0,0,0,0,0c-0.8-0.5-1.5-1-2.1-1.6c0,0,0,0,0,0
	c-1.3-1.1-2.2-2.3-2.9-3.5c-0.2-0.4-0.4-0.9-0.6-1.3C0.1,16.7,0,15.9,0,15.1c0-0.4,0-0.8,0.1-1.2c0.1-0.4,0.2-0.8,0.3-1.1
	c0.2-0.5,0.3-0.9,0.6-1.3C4.4,4.9,17.2,0,32.5,0c7.9,0,15.2,1.3,20.8,3.5c0,0,0,0,0,0c0.8,0.3,1.5,0.6,2.2,1
	c0.5,0.2,0.9,0.4,1.4,0.7c0.2,0.1,0.4,0.2,0.7,0.4c0.2,0.1,0.4,0.2,0.6,0.4c0.6,0.4,1.2,0.8,1.7,1.2c0,0,0,0,0,0
	c0.2,0.2,0.5,0.3,0.7,0.5c0.1,0,0.1,0.1,0.2,0.2c0.3,0.2,0.6,0.5,0.8,0.7c0.2,0.2,0.3,0.3,0.5,0.5c0.2,0.2,0.4,0.4,0.6,0.7
	c0,0,0,0,0,0c0.1,0.2,0.3,0.3,0.4,0.5c0.2,0.3,0.4,0.5,0.6,0.8c0.2,0.3,0.3,0.5,0.5,0.8c0,0,0,0,0,0c0.1,0.2,0.2,0.5,0.3,0.7
	c0,0,0,0,0,0c0,0.1,0.1,0.2,0.1,0.4C64.9,13.6,65,14.4,65,15.1z"/>
<path d="M70,50.7h-1.6c-0.1,0,0,0-0.1,0s-0.2,0-0.2,0c0.2-0.4,0.4-0.8,0.6-1.3c0.3-0.6,0.6-1.3,0.9-2c2.2-4.9,0.3-10.7-4.2-12.7
	c-0.5-0.2-0.9-0.4-1.4-0.5c-0.7-0.2-1.4-0.3-2.2-0.3c-1.2,0-2.4,0.2-3.6,0.8c-2.3,1-4.2,2.8-5.2,5.2c-0.4,1-0.8,1.8-1.1,2.6
	c0,0,0,0.1,0,0.1c-0.4,0.9,0,1.8,0.9,2.2c0.2,0.1,0.4,0.1,0.7,0.1c0.7,0,1.3-0.4,1.5-1c0.3-0.8,0.7-1.6,1.2-2.6
	c0.1-0.3,0.2-0.5,0.4-0.8c0.7-1.2,1.8-2.2,3.1-2.8c0.6-0.2,1.2-0.4,1.8-0.4c0.2,0,0.3,0,0.5,0c0.8,0,1.5,0.2,2.2,0.5
	c0.2,0.1,0.3,0.2,0.5,0.2c0.2,0.1,0.5,0.3,0.7,0.5c2,1.7,2.7,4.8,1.5,7.6c-0.4,0.8-0.7,1.5-0.9,2.1c-0.5,1.1-0.9,2-1.2,2.6h-8.5
	c-0.2,0-0.4,0-0.5,0c-1.1,0-2.2,0-3.2,0h0l-1.6,0c-2.1,0-3.8,1.7-3.8,3.8v16.6c0,0.8,0.3,1.6,0.7,2.2c0.7,1,1.8,1.6,3.1,1.7H70
	c2.1,0,3.8-1.7,3.8-3.8V54.6C73.8,52.5,72.1,50.8,70,50.7z M61.9,67.7h-3.4v-7.3h3.4V67.7z"/>
</svg>
