<?xml version="1.0" encoding="utf-8"?>
<!-- Generator: Adobe Illustrator 19.2.0, SVG Export Plug-In . SVG Version: 6.00 Build 0)  -->
<svg version="1.1" id="Layer_1" xmlns="http://www.w3.org/2000/svg" xmlns:xlink="http://www.w3.org/1999/xlink" x="0px" y="0px"
	 viewBox="0 0 512 512" style="enable-background:new 0 0 512 512;" xml:space="preserve">
<path d="M484.8,511.9c-6.9,0-14-2.7-19.4-8.1L8.1,46.8c-10.8-10.7-10.8-28,0-38.6s28-10.7,38.6,0L504,465.3
	c10.8,10.7,10.8,28,0,38.6C498.8,509.3,491.8,511.9,484.8,511.9z"/>
<path d="M27.5,512c-6.9,0-14-2.7-19.4-8.1c-10.8-10.7-10.8-28,0-38.6L465.4,8.2c10.8-10.7,28-10.7,38.6,0c10.8,10.7,10.8,28,0,38.6
	L46.7,504C41.5,509.4,34.4,512,27.5,512z"/>
</svg>
