<svg xmlns="http://www.w3.org/2000/svg" viewBox="0 0 512 512"><path d="M487.3 246.6l-77.5-89c-3-3.5-7.4-5.5-12.1-5.5h-65.9V60.5c0-8.8-7.2-16-16-16H36.7c-8.8 0-16 7.2-16 16v329.6c0 8.8 7.2 16 16 16h34c.4 33.9 28 61.3 62 61.3 33.9 0 61.6-27.4 62-61.3h138.9c.4 33.9 28 61.3 62 61.3 33.9 0 61.6-27.4 62-61.3h17.7c8.8 0 16-7.2 16-16v-133c0-3.9-1.4-7.6-4-10.5zM54.7 76.5h243.1c1.1 0 2 .9 2 2v293.6c0 1.1-.9 2-2 2H54.7c-1.1 0-2-.9-2-2V78.5c0-1.1.9-2 2-2zm78 359c-16.3 0-29.6-13.1-30-29.3h59.9c-.3 16.2-13.6 29.3-29.9 29.3zm262.9 0c-16.3 0-29.6-13.1-30-29.3h59.9c-.3 16.2-13.6 29.3-29.9 29.3zm61.7-61.3H333.9c-1.1 0-2-.9-2-2V184.1h57.7c.6 0 1.1.3 1.5.7l67.7 77.8c.3.4.5.8.5 1.3v108.3c0 1.1-.9 2-2 2z"/><path d="M376.5 216.5c-.4-.4-.9-.7-1.5-.7h-10.4c-1.1 0-2 .9-2 2v43c0 1.1.9 2 2 2h49c1.7 0 2.6-2 1.5-3.3l-38.6-43z"/></svg>