<svg xmlns="http://www.w3.org/2000/svg" viewBox="-224 -256 512 512"><path d="M32 150.8c0-2.1-2.1 0 0 0z"/><path d="M208.7-196.8h-353.4c-10.9 0-19.7 9-19.7 19.9l.1 140.8.1 213c0 11 8.8 19.8 19.7 19.8h353.2c10.9 0 19.7-9.5 19.7-20.5V-177c0-10.9-8.8-19.8-19.7-19.8zM38-107.4c-1.4-.8-3.1-.8-4.5 0l-46.1 26.2v-106.4h96.1v106.2l-45.5-26zm181.2 283.7c0 5.9-4.7 12.2-10.5 12.2h-353.1c-5.8 0-10.5-5.6-10.5-11.4l-.2-213-.1-140.8c0-5.9 4.7-10.7 10.5-10.7h122.8v114.2c0 3.5 4 5.6 7.1 3.8l50.5-29 50.2 29c3.1 1.8 6.7-.3 6.7-3.8v-114.2h116c5.8 0 10.5 4.7 10.5 10.6v353.1z"/><path d="M7.4 118.2c-1.2 0-2.4-.5-3.2-1.4l-36.1-36.1c-1.6-1.6-2-4-.8-5.9.9-1.3 2.3-2.1 3.9-2.1 1.2 0 2.4.5 3.2 1.3l33 33 95-95c.9-.9 2-1.3 3.2-1.3s2.4.5 3.2 1.3 1.3 2 1.3 3.2-.5 2.4-1.3 3.2l-98.2 98.2c-.8 1.1-1.9 1.6-3.2 1.6z"/></svg>