<?xml version="1.0" encoding="utf-8"?>
<!-- Generator: Adobe Illustrator 19.2.0, SVG Export Plug-In . SVG Version: 6.00 Build 0)  -->
<svg version="1.1" id="Layer_1" xmlns="http://www.w3.org/2000/svg" xmlns:xlink="http://www.w3.org/1999/xlink" x="0px" y="0px"
	 viewBox="0 0 512 512" style="enable-background:new 0 0 512 512;" xml:space="preserve">
<g>
	<path d="M243,197.8l-12.7,14.4c-2.3,2.7-6.7,1.2-7-2.4l-7.1-95.4c-0.3-3.6,4-5.7,6.6-3.3l71.6,63.4c2.6,2.3,1.2,6.7-2.4,7
		l-19.5,1.5c-2.9,0.2-4.6,3.3-3.3,5.8l22.1,42.8c1,2,0.2,4.4-1.7,5.4l-12.5,6.5c-2,1-4.4,0.3-5.4-1.7l-22.1-43.2
		C248.3,196.1,244.9,195.7,243,197.8z"/>
	<path d="M480,0H32C14.3,0,0,14.4,0,32v352c0,17.7,14.3,32,32,32h120c4.4,0,8,3.6,8,8v24c0,8.8,7.2,16,16,16h160c8.8,0,16-7.1,16-16
		v-24c0-4.4,3.6-8,8-8h120c17.7,0,32-14.2,32-32V32C512,14.4,497.7,0,480,0z M256,401c-8.8,0-16-7.2-16-16s7.2-16,16-16
		c8.8,0,16,7.2,16,16S264.8,401,256,401z M480,304c0,8.8-7.2,16-16,16H48c-8.8,0-16-7.2-16-16V48c0-8.8,7.2-16,16-16h416
		c8.8,0,16,7.2,16,16V304z"/>
	<path d="M416,496.2c0,8.7-7.1,15.8-15.8,15.8H111.8c-8.7,0-15.8-7.1-15.8-15.8v-0.4c0-8.7,7.1-15.8,15.8-15.8h288.4
		c8.7,0,15.8,7.1,15.8,15.8V496.2z"/>
</g>
</svg>
