<?xml version="1.0" encoding="utf-8"?>
<!-- Generator: Adobe Illustrator 19.2.0, SVG Export Plug-In . SVG Version: 6.00 Build 0)  -->
<svg version="1.1" id="Layer_3" xmlns="http://www.w3.org/2000/svg" xmlns:xlink="http://www.w3.org/1999/xlink" x="0px" y="0px"
	 viewBox="0 0 512 512" style="enable-background:new 0 0 512 512;" xml:space="preserve">
<g>
	<path d="M256,0C114.6,0,0,114.6,0,256s114.6,256,256,256c141.4,0,256-114.6,256-256S397.4,0,256,0z M268.5,457.1v-27.6h-25v27.6
		c-46-3.1-87.1-21-119.3-48.8c-0.8-0.7-2.3-1.5-3.1-2.2c-2.6-2.3-5.3-4.9-7.8-7.3c-2.4-2.4-5-4.8-7.2-7.3c-0.9-1-1.7-1.5-2.5-2.4
		c-27.7-32.1-45.7-71.5-48.8-117.5h30.7v-31H54.9c7.4-96,86.6-177.8,188.6-185v28h25v-28c31,2,54.9,9.4,78.4,21.4
		c0.4,0.2,1.2,0.4,1.6,0.6c4.9,2.6,10,5.4,14.8,8.4c1.1,0.7,2.2,1.4,3.3,2.1c3.9,2.6,7.9,5.3,11.6,8.1c1.7,1.3,3.3,2.7,4.9,4
		c3,2.4,6,4.9,8.8,7.5c2.1,2,4.2,4,6.2,6.1c2.2,2.2,4.3,4.3,6.4,6.6c2.5,2.7,4.9,5.6,7.3,8.5c1.4,1.7,2.9,3.4,4.3,5.2
		c2.7,3.6,5.3,7.3,7.9,11.2c0.8,1.2,1.6,2.3,2.4,3.5c2.9,4.6,5.6,9.4,8.2,14.2c0.3,0.5,0.5,0.4,0.8,0.9c12,23.4,19.4,51.8,21.4,76.8
		h-30v31h30C449.4,368.5,370.5,449.6,268.5,457.1z"/>
	<path d="M227.9,250.4l-57.8,121.3l103.1-92.5l-0.1,0c7.6-4.4,9.8-12.6,10.5-15.1l59.6-135.8l-104.9,105
		C233,237.5,227.9,243.4,227.9,250.4z M256,243.1c7.1,0,12.9,5.8,12.9,12.9c0,7.1-5.8,12.9-12.9,12.9c-7.1,0-12.9-5.8-12.9-12.9
		C243.1,248.9,248.9,243.1,256,243.1z"/>
</g>
</svg>
