<?xml version="1.0" encoding="utf-8"?>
<!-- Generator: Adobe Illustrator 19.1.0, SVG Export Plug-In . SVG Version: 6.00 Build 0)  -->
<svg version="1.1" id="Layer_1" xmlns="http://www.w3.org/2000/svg" xmlns:xlink="http://www.w3.org/1999/xlink" x="0px" y="0px"
	 viewBox="0 0 512 512" style="enable-background:new 0 0 512 512;" xml:space="preserve">
<path d="M505.8,187.8c-2.9-2.5-6.7-3.7-10.6-3.7l-59.5,0v-51.7c0-8.8-7.2-16-16-16H224.3c-1.1,0-2.1-0.6-2.7-1.6
	l-26.7-51.1c-2.8-5.3-8.2-8.6-14.2-8.6H15.4c-8.8,0-16,7.2-16,16v61.3v307.4c0,0.2,0,0.3,0,0.5c0,0.2,0,0.5,0,0.7
	c0,0.4,0.1,0.8,0.1,1.1c0,0.2,0.1,0.4,0.1,0.6c0.1,0.4,0.2,0.9,0.3,1.3c0,0.1,0.1,0.2,0.1,0.4c0.3,1.1,0.8,2.2,1.4,3.2
	c0.1,0.1,0.2,0.2,0.2,0.4c0.2,0.4,0.5,0.7,0.7,1.1c0.1,0.1,0.1,0.1,0.1,0.2c0.1,0.1,0.1,0.2,0.2,0.3c0.2,0.3,0.5,0.6,0.8,0.9
	c0.1,0.1,0.3,0.3,0.4,0.4c0.3,0.3,0.6,0.6,1,0.9c0.1,0.1,0.2,0.2,0.3,0.3c0.4,0.4,0.9,0.7,1.4,1c0.1,0.1,0.2,0.1,0.3,0.2
	c0.4,0.3,0.8,0.5,1.2,0.7c0.1,0.1,0.3,0.1,0.4,0.2c0.4,0.2,0.8,0.4,1.2,0.5c0.3,0.1,0.5,0.2,0.8,0.3c0.3,0.1,0.7,0.2,1,0.3
	c0.1,0,0.3,0.1,0.4,0.1c0.4,0.1,0.9,0.2,1.3,0.2c0.2,0,0.3,0.1,0.5,0.1c0.6,0.1,1.2,0.1,1.8,0.1h404.3h1.9c7,0,13.2-4.6,15.3-11.3
	l74-239.8C512.8,198.7,510.9,192,505.8,187.8z M34.4,87.1h134.9c1.1,0,2.1,0.6,2.7,1.6l26.7,51.1c0,0,0,0.1,0,0.1
	c0.1,0.1,0.2,0.3,0.2,0.4c0.2,0.3,0.3,0.6,0.5,0.8c0.1,0.1,0.2,0.2,0.2,0.3c0.5,0.8,1.1,1.5,1.8,2.2c0,0,0.1,0.1,0.1,0.1
	c0.3,0.3,0.6,0.6,1,0.9c0,0,0.1,0.1,0.1,0.1c0.4,0.3,0.8,0.6,1.2,0.9c0,0,0.1,0.1,0.1,0.1c0.3,0.2,0.7,0.4,1,0.6
	c0.1,0.1,0.2,0.1,0.3,0.2c0.4,0.2,0.7,0.4,1.1,0.5c0.1,0.1,0.2,0.1,0.4,0.1c0.3,0.1,0.7,0.3,1,0.4c0.2,0.1,0.3,0.1,0.5,0.2
	c0.4,0.1,0.7,0.2,1.1,0.3c0.1,0,0.2,0,0.3,0.1c0.4,0.1,0.9,0.2,1.4,0.2c0.1,0,0.2,0,0.3,0c0.5,0,1,0.1,1.5,0.1c0,0,0.1,0,0.1,0
	h187.7c1.7,0,3,1.3,3,3v32.7H89.4c-7,0-13.2,4.6-15.3,11.3L31.4,333.8V132.4V90.1C31.4,88.5,32.7,87.1,34.4,87.1z M407.6,423.9H41.1
	c-2,0-3.5-2-2.9-3.9l62.3-201.8c0.4-1.3,1.6-2.1,2.9-2.1h366.5c2,0,3.5,2,2.9,3.9l-62.3,201.8C410.1,423,408.9,423.9,407.6,423.9z"
	/>
</svg>
