<?xml version="1.0" encoding="utf-8"?>
<!-- Generator: Adobe Illustrator 21.0.2, SVG Export Plug-In . SVG Version: 6.00 Build 0)  -->
<svg version="1.1" id="Layer_1" xmlns="http://www.w3.org/2000/svg" xmlns:xlink="http://www.w3.org/1999/xlink" x="0px" y="0px"
	 viewBox="0 0 512 512" enable-background="new 0 0 512 512" xml:space="preserve">
<g>
	<g>
		<path fill="#FFFFFF" d="M67,429h-8.1c-4.4,0-7.9-3.5-7.9-7.9V13.6c0-2,0.8-3.9,2.2-5.3c1.4-1.4,3.4-2.2,5.6-2.2h197.5
			c1.4,0.5,2.6,1.3,3.6,2.5L273.3,22H67V429z"/>
		<path d="M273.3,22H67v407h-8.1c-4.4,0-7.9-3.5-7.9-7.9V13.6c0-2,0.8-3.9,2.2-5.3c1.4-1.4,3.4-2.2,5.6-2.2h197.5
			c1.4,0.5,2.6,1.3,3.6,2.5L273.3,22z"/>
	</g>
	<g>
		<path d="M461,209.7L461,209.7l-0.1-0.6v-0.5c0,0,0-0.1,0-0.1l-0.3-1.3c-0.1-0.2-0.2-0.4-0.2-0.6l-0.8-1.2v-0.2
			c0,0-0.1-0.1-0.1-0.1c-0.1-0.1-0.1-0.2-0.2-0.2c-0.1-0.1-0.2-0.2-0.2-0.3l-0.2-0.2l-108-107.9l-0.2-0.2c-0.9-1.1-2.1-1.9-3.4-2.3
			H155c-4.4,0-8,3.2-8,7.2v397.3c0,4,3.7,7.6,8,7.6h298.5c4.2,0,7.6-3.4,7.6-7.6V210.2C461.1,210,461,209.8,461,209.7z M353,119.5
			l82.7,82.6H353V119.5z M446,491H163V109h174v100.7c0,4.1,3.6,7.6,7.8,7.6H446V491z"/>
	</g>
</g>
</svg>
