<?xml version="1.0" encoding="utf-8"?>
<!-- Generator: Adobe Illustrator 21.0.2, SVG Export Plug-In . SVG Version: 6.00 Build 0)  -->
<svg version="1.1" id="Layer_1" xmlns="http://www.w3.org/2000/svg" xmlns:xlink="http://www.w3.org/1999/xlink" x="0px" y="0px"
	 viewBox="0 0 512 512" style="enable-background:new 0 0 512 512;" xml:space="preserve">
<path id="Oval-50_2_" d="M256,0C114.6,0,0,114.6,0,256s114.6,256,256,256s256-114.6,256-256S397.4,0,256,0z M374.6,246l-96.8,95.8
	c-6,5.9-13.9,8.9-21.8,8.9s-15.8-3-21.8-8.9L137.4,246c-8.2-8.2-8.3-21.5-0.2-29.7c8.1-8.2,21.5-8.3,29.7-0.2l89.1,88.1l89.1-88.1
	c8.2-8.2,21.5-8.1,29.7,0.2C383,224.5,382.9,237.8,374.6,246z"/>
</svg>
