<?xml version="1.0" encoding="utf-8"?>
<!-- Generator: Adobe Illustrator 19.1.0, SVG Export Plug-In . SVG Version: 6.00 Build 0)  -->
<svg version="1.1" id="Layer_1" xmlns="http://www.w3.org/2000/svg" xmlns:xlink="http://www.w3.org/1999/xlink" x="0px" y="0px"
	 viewBox="0 0 512 512" style="enable-background:new 0 0 512 512;" xml:space="preserve">
<rect x="160.3" y="96" width="159.9" height="32"/>
<rect x="160.3" y="160" width="95.9" height="32"/>
<path d="M448,128V32.1v-32h-32H64.3v32V128l-64,64v47v240.8v32h32H480h32v-32V238.9v-47L448,128z M471.5,198.5l-23.5,18V175
	L471.5,198.5z M416.1,32.1v209L256.2,363.9L96.3,241.1v-209H416.1z M64.3,216.5l-23.5-18L64.3,175V216.5z M32.3,479.8V235.1
	l223.9,171.7L480,235.1v244.7H32.3z"/>
</svg>
