<?xml version="1.0" encoding="utf-8"?>
<!-- Generator: Adobe Illustrator 19.1.0, SVG Export Plug-In . SVG Version: 6.00 Build 0)  -->
<svg version="1.1" id="Layer_1" xmlns="http://www.w3.org/2000/svg" xmlns:xlink="http://www.w3.org/1999/xlink" x="0px" y="0px"
	 viewBox="0 0 512 512" enable-background="new 0 0 512 512" xml:space="preserve">
<path d="M256.6,130.2c-0.3,0-0.5-0.2-0.5-0.5s0.2-0.5,0.5-0.5h0c0.3,0,0.5,0.2,0.5,0.5S256.8,130.2,256.6,130.2z"/>
<path d="M256.5,256c-62,0-112.4-50.4-112.4-112.4S194.6,31.2,256.5,31.2c62,0,112.4,50.4,112.4,112.4
	S318.5,256,256.5,256z M256.5,63.2c-44.3,0-80.4,36.1-80.4,80.4s36.1,80.4,80.4,80.4s80.4-36.1,80.4-80.4S300.9,63.2,256.5,63.2z"/>
<path d="M49.2,512c-8.8,0-16-7.2-16-16v-87.4c0-68.6,55.8-124.5,124.5-124.5h197.7c68.6,0,124.5,55.8,124.5,124.5
	v86.9c0,8.8-7.2,16-16,16s-16-7.2-16-16v-86.9c0-51-41.5-92.5-92.5-92.5H157.7c-51,0-92.5,41.5-92.5,92.5V496
	C65.2,504.8,58.1,512,49.2,512z"/>
</svg>
