<?xml version="1.0" encoding="utf-8"?>
<!-- Generator: Adobe Illustrator 19.1.0, SVG Export Plug-In . SVG Version: 6.00 Build 0)  -->
<svg version="1.1" id="Layer_1" xmlns="http://www.w3.org/2000/svg" xmlns:xlink="http://www.w3.org/1999/xlink" x="0px" y="0px"
	 viewBox="0 0 512 512" style="enable-background:new 0 0 512 512;" xml:space="preserve">
<style type="text/css">
	.st0{display:none;}
	.st1{display:inline;}
	.st2{fill:none;}
</style>
<g class="st0">
	<path class="st1" d="M387.1,156.1V-1.8H124.4v157.7H-1.7v352.3h4.9v4.9h505.1v-4.9h4.9V161L387.1,156.1z M30.3,481.1V187.8h94.2
		v293.3L30.3,481.1L30.3,481.1z M292,345.5v135.6h-72.5V345.5H292z M187.5,313.6v167.6h-31.1v-451h198.7v451H324V313.6H187.5z
		 M387.1,481.1V187.8h94.2v293.3L387.1,481.1L387.1,481.1z"/>
	<rect x="187.5" y="61.2" class="st1" width="41.8" height="41.8"/>
	<rect x="408.3" y="218.9" class="st1" width="41.8" height="41.8"/>
	<rect x="408.3" y="282" class="st1" width="41.8" height="41.8"/>
	<rect x="408.3" y="345.1" class="st1" width="41.8" height="41.8"/>
	<rect x="408.3" y="408.2" class="st1" width="41.8" height="41.8"/>
	<rect x="61.4" y="218.9" class="st1" width="41.8" height="41.8"/>
	<rect x="61.4" y="282" class="st1" width="41.8" height="41.8"/>
	<rect x="61.4" y="345.1" class="st1" width="41.8" height="41.8"/>
	<rect x="61.4" y="408.2" class="st1" width="41.8" height="41.8"/>
	<rect x="282.1" y="61.2" class="st1" width="41.8" height="41.8"/>
	<rect x="187.5" y="124.3" class="st1" width="41.8" height="41.8"/>
	<rect x="282.1" y="187.4" class="st1" width="41.8" height="41.8"/>
	<rect x="282.1" y="124.3" class="st1" width="41.8" height="41.8"/>
	<rect x="187.5" y="187.4" class="st1" width="41.8" height="41.8"/>
	<rect x="282.1" y="250.5" class="st1" width="41.8" height="41.8"/>
	<rect x="187.5" y="250.5" class="st1" width="41.8" height="41.8"/>
</g>
<g>
	<rect x="333.1" y="343.7" class="st2" width="50" height="136.3"/>
	<path class="st2" d="M31.7,480.1H71V355.5h92.7v124.6H203V157H31.7V480.1z M133.9,183h39.6v37.2h-39.6V183z M133.9,240.6h39.6v37.2
		h-39.6V240.6z M133.9,298.1h39.6v37.2h-39.6V298.1z M62.8,183h39.6v37.2H62.8V183z M62.8,240.6h39.6v37.2H62.8V240.6z M62.8,298.1
		h39.6v37.2H62.8V298.1z"/>
	<rect x="103" y="387.5" class="st2" width="28.7" height="92.6"/>
	<path class="st2" d="M236.8,480h64.3V311.7h114V480h64.3V32.5H236.8V480z M380.5,73.3h53.5v50.2h-53.5V73.3z M380.5,151h53.5v50.2
		h-53.5V151z M380.5,228.7h53.5v50.2h-53.5V228.7z M284.4,73.3h53.5v50.2h-53.5V73.3z M284.4,151h53.5v50.2h-53.5V151z M284.4,228.7
		h53.5v50.2h-53.5V228.7z"/>
	<path d="M204.8,0.5V125H-0.3v387.2H71v0h92.7v0H235V512h66.1h114h96.3V0.5H204.8z M131.7,480.1H103v-92.6h28.7V480.1z M203,480.1
		h-39.3V355.5H71v124.6H31.7V157H203V480.1z M333.1,480V343.7h50V480H333.1z M479.4,480h-64.3V311.7h-114V480h-64.3V32.5h242.6V480z
		"/>
	<rect x="380.5" y="73.3" width="53.5" height="50.2"/>
	<rect x="380.5" y="151" width="53.5" height="50.2"/>
	<rect x="380.5" y="228.7" width="53.5" height="50.2"/>
	<rect x="284.4" y="73.3" width="53.5" height="50.2"/>
	<rect x="284.4" y="151" width="53.5" height="50.2"/>
	<rect x="284.4" y="228.7" width="53.5" height="50.2"/>
	<rect x="133.9" y="183" width="39.6" height="37.2"/>
	<rect x="133.9" y="240.6" width="39.6" height="37.2"/>
	<rect x="133.9" y="298.1" width="39.6" height="37.2"/>
	<rect x="62.8" y="183" width="39.6" height="37.2"/>
	<rect x="62.8" y="240.6" width="39.6" height="37.2"/>
	<rect x="62.8" y="298.1" width="39.6" height="37.2"/>
</g>
</svg>
