<?xml version="1.0" encoding="utf-8"?>
<!-- Generator: Adobe Illustrator 19.2.0, SVG Export Plug-In . SVG Version: 6.00 Build 0)  -->
<svg version="1.1" id="Layer_1" xmlns="http://www.w3.org/2000/svg" xmlns:xlink="http://www.w3.org/1999/xlink" x="0px" y="0px"
	 viewBox="0 0 512 512" style="enable-background:new 0 0 512 512;" xml:space="preserve">
<g>
	<g>
		<path d="M448,64v384H64V64H448 M448,32H64c-17.7,0-32,14.3-32,32v384c0,17.7,14.3,32,32,32h384c17.7,0,32-14.3,32-32V64
			C480,46.3,465.7,32,448,32L448,32z"/>
	</g>
	<path d="M288,368c0,8.8,7.2,16,16,16h80c8.8,0,16-7.2,16-16s-7.2-16-16-16h-80C295.2,352,288,359.2,288,368z"/>
	<path d="M128,192l32,0v32.7c0,8.7,8.1,15.9,16.9,15.9s16.1-7.1,16.1-15.9V192h31.1c8.7,0,15.8-7.8,15.8-16.5
		c0-8.7-7.1-15.4-15.9-15.4h-31.1v-32.8c0-8.7-7.2-15.8-16.1-15.8s-16.7,7-16.7,15.8v32.8l-32.3,0c-8.7,0-15.9,7.2-15.9,15.9
		C112,184.7,119.3,192,128,192z"/>
	<path d="M133,379.2c3,3,7,4.6,11.1,4.6c4,0,8-1.6,11.1-4.6l192.1-192.4c6.1-6.1,6.1-16.1,0-22.2c-6.1-6.1-16.1-6.1-22.2,0L133,357
		C126.8,363.1,126.8,373.1,133,379.2z"/>
</g>
</svg>
