<svg xmlns="http://www.w3.org/2000/svg" viewBox="0 0 512 512"><path d="M97 65v31c0 17.7-14.3 32-32 32H32c-17.7 0-32-14.3-32-32V65c0-17.7 14.3-32 32-32h33c17.7 0 32 14.3 32 32zm367 159H336c-8.8 0-16 7.2-16 16s7.2 16 16 16h128c8.8 0 16-7.2 16-16s-7.2-16-16-16zm0 159H336c-8.8 0-16 7.2-16 16s7.2 16 16 16h128c8.8 0 16-7.2 16-16s-7.2-16-16-16zM144.8 96h319.4c8.7 0 15.8-7.1 15.7-15.8v-.3c0-8.7-7.1-15.8-15.8-15.8H144.8c-8.7 0-15.8 7.1-15.8 15.8v.3c0 8.7 7.1 15.8 15.8 15.8zM176 256c8.8 0 16-7.2 16-16s-7.2-16-16-16h-16v-80.2c0-8.7-7.1-15.8-15.8-15.8h-.3c-8.7 0-15.8 7.1-15.8 15.8v94.5c-.1.6-.1 1.2-.1 1.7s0 1.2.1 1.7v156.5c-.1.6-.1 1.2-.1 1.7 0 8.8 7.2 16 16 16h32c8.8 0 16-7.2 16-16s-7.2-16-16-16h-16V256h16zm78.2-58.5h-28.3c-15.6 0-28.3 12.7-28.3 28.3v28.3c0 15.6 12.7 28.3 28.3 28.3h28.3c15.6 0 28.3-12.7 28.3-28.3v-28.3c0-15.6-12.7-28.3-28.3-28.3zm0 160h-28.3c-15.6 0-28.3 12.7-28.3 28.3v28.3c0 15.6 12.7 28.3 28.3 28.3h28.3c15.6 0 28.3-12.7 28.3-28.3v-28.3c0-15.6-12.7-28.3-28.3-28.3z"/></svg>