<?xml version="1.0" encoding="utf-8"?>
<!-- Generator: Adobe Illustrator 19.2.0, SVG Export Plug-In . SVG Version: 6.00 Build 0)  -->
<svg version="1.1" id="Layer_1" xmlns="http://www.w3.org/2000/svg" xmlns:xlink="http://www.w3.org/1999/xlink" x="0px" y="0px"
	 viewBox="0 0 512 512" style="enable-background:new 0 0 512 512;" xml:space="preserve">
<g>
	<circle cx="72.8" cy="182.9" r="40.8"/>
	<circle cx="72.8" cy="327" r="40.8"/>
	<circle cx="72.8" cy="471.2" r="40.8"/>
	<path d="M189.5,356h261.7c15.9,0,28.7-12.9,28.7-28.7v-0.5c0-15.9-12.9-28.7-28.7-28.7H189.5c-15.9,0-28.7,12.9-28.7,28.7v0.5
		C160.8,343.1,173.7,356,189.5,356z"/>
	<path d="M160.8,182.6v0.5c0,15.9,12.9,28.7,28.7,28.7h261.7c15.9,0,28.7-12.9,28.7-28.7v-0.5c0-15.9-12.9-28.7-28.7-28.7H189.5
		C173.7,153.9,160.8,166.7,160.8,182.6z"/>
	<path d="M189.5,500.2h261.7c15.9,0,28.7-12.9,28.7-28.7V471c0-15.9-12.9-28.7-28.7-28.7H189.5c-15.9,0-28.7,12.9-28.7,28.7v0.5
		C160.8,487.4,173.7,500.2,189.5,500.2z"/>
</g>
</svg>
