<?xml version="1.0" encoding="utf-8"?>
<!-- Generator: Adobe Illustrator 19.1.0, SVG Export Plug-In . SVG Version: 6.00 Build 0)  -->
<svg version="1.1" xmlns="http://www.w3.org/2000/svg" xmlns:xlink="http://www.w3.org/1999/xlink" x="0px" y="0px"
	 viewBox="0 0 512 512" style="enable-background:new 0 0 512 512;" xml:space="preserve">
<g id="Layer_1">
	<path  d="M437.9,508.6H338c-8.8,0-16-7.2-16-16v-99.9c0-8.8,7.2-16,16-16h99.9c8.8,0,16,7.2,16,16v99.9
		C453.9,501.5,446.8,508.6,437.9,508.6z M354,476.6h67.9v-67.9H354V476.6z"/>
	<path  d="M437.9,335.8H338c-8.8,0-16-7.2-16-16v-99.9c0-8.8,7.2-16,16-16h99.9c8.8,0,16,7.2,16,16v99.9
		C453.9,328.6,446.8,335.8,437.9,335.8z M354,303.8h67.9v-67.9H354V303.8z"/>
	<path  d="M224.7,186H74.1c-8.8,0-16-7.2-16-16V19.4c0-8.8,7.2-16,16-16h150.6c8.8,0,16,7.2,16,16V170
		C240.7,178.8,233.5,186,224.7,186z M90.1,154h118.6V35.4H90.1V154z"/>
	<path  d="M149.4,455.9c-8.8,0-16-7.2-16-16V170c0-8.8,7.2-16,16-16s16,7.2,16,16v269.9
		C165.4,448.7,158.2,455.9,149.4,455.9z"/>
	<path  d="M338,285.9H149.4c-8.8,0-16-7.2-16-16s7.2-16,16-16H338c8.8,0,16,7.2,16,16S346.8,285.9,338,285.9z"/>
	<path  d="M338,458.7H149.4c-8.8,0-16-7.2-16-16s7.2-16,16-16H338c8.8,0,16,7.2,16,16S346.8,458.7,338,458.7z"/>
</g>
<g id="Layer_3">
</g>
<g id="Layer_2">
</g>
</svg>
