<?xml version="1.0" encoding="utf-8"?>
<!-- Generator: Adobe Illustrator 21.0.2, SVG Export Plug-In . SVG Version: 6.00 Build 0)  -->
<svg version="1.1" id="Layer_1" xmlns="http://www.w3.org/2000/svg" xmlns:xlink="http://www.w3.org/1999/xlink" x="0px" y="0px"
	 viewBox="0 0 1000 1000" enable-background="new 0 0 1000 1000" xml:space="preserve">
<g>
	<path d="M715.2,154.9v225.7h-38V154.9c0-13.1-10.7-23.8-23.8-23.8H296.6v171.1H125.5v532.4c0,13.1,10.7,23.8,23.8,23.8h301.8v38
		H149.4c-34.1,0-61.9-27.8-61.9-61.9V282.1L276.6,93h376.8C687.5,93,715.2,120.8,715.2,154.9z"/>
	<path d="M908.8,656.8l-11.3-1.1l-35-3.2l-10.8-1.1c-3.8-15.6-10.2-31.3-18.9-45.3l7-8.1l22.6-26.9l7.5-9.2c5.9-7,5.4-17.8-1.1-24.3
		l-21.6-21.6c-6.5-6.5-17.2-7-24.3-1.1l-9.2,7.6l-3.1,2.6L787,545.2l-8.1,7.6c-14-8.6-29.1-15.1-45.3-18.9l-1.1-10.8l-2.7-35
		l-1.1-11.3c-0.5-8.5-7.5-15.6-15.9-16.6c-0.6-0.1-1.3-0.1-1.9-0.1h-30.7c-1.8,0-3.6,0.3-5.2,0.8c-6.8,2.1-12.1,8.1-12.6,15.9
		l-1.1,11.3l-2.7,35l-1.1,10.8c-15.6,3.8-31.3,10.2-45.3,18.9l-8.1-7l-15-12.6l-12-10.1l-9.2-7.5c-7-5.9-17.8-5.4-24.3,1.1
		l-21.6,21.6c-6.5,6.5-7,17.2-1.1,24.3l7.6,9.2l22.6,26.9l7,8.1c-8.6,14-15.1,29.1-18.9,45.3l-10.8,1.1l-34.5,2.2l-11.3,1.1
		c-9.2,0.5-16.7,8.6-16.7,17.8v30.2c0,9.2,7,17.2,16.7,17.8l11.3,1.1l35,3.2l10.8,1.1c3.7,15.3,10,30.7,18.4,44.4
		c0.2,0.3,0.3,0.6,0.5,0.8l-7,8.1l-22.6,27l-8.1,9.2c-5.9,7-5.4,17.8,1.1,24.3l0.8,0.9l13.7,14.2l6.5,6.5c6.5,6.5,17.2,7,24.3,1.1
		l9.2-7.6l16.9-14.2l10-8.4l8.1-7c10.4,6.4,21.4,11.6,33,15.4c4,1.3,8.1,2.5,12.3,3.5l0.5,8.1v3.2l2.1,22.5l1.2,12.5l1.1,11.3
		c0.5,9.2,8.6,16.7,17.8,16.7h30.2c9.2,0,17.2-7,17.8-16.7l1.1-11.3l3.2-35l1.1-10.8c15.6-3.8,31.3-10.2,45.3-18.9l8.1,7l26.9,22.6
		l9.2,7.5c7,5.9,17.8,5.4,24.3-1.1l21.6-21.6c6.5-6.5,7-17.2,1.1-24.3l-7.6-9.2l-22.6-26.9l-7-8.1c8.6-14,15.1-29.1,18.9-45.3
		l10.8-1.1l35-3.2l11.3-1.1c9.2-0.5,16.7-8.6,16.7-17.8v-30.7C925,665.4,918,657.4,908.8,656.8z M750.9,744.7
		c-10.9,10.9-24.1,17.9-38,21.1c-12.5,2.9-25.5,2.6-37.9-0.8c-12.7-3.5-24.6-10.2-34.7-20.3c-30.7-30.7-30.7-79.8,0-110.5
		c10-10,22-16.8,34.7-20.3c12.4-3.4,25.4-3.7,37.9-0.8c13.9,3.2,27.1,10.2,38,21.1c14.6,14.6,22.6,34.5,22.6,55
		C773.5,710.2,765.4,730.1,750.9,744.7z"/>
</g>
<polygon points="535.6,462.2 503.1,494.7 416.8,409.4 416.8,673.1 362.1,673.1 362.1,410.8 277.2,494.7 244.7,462.2 390,316.8 
	390.2,317 390.3,316.8 "/>
</svg>
