<?xml version="1.0" encoding="utf-8"?>
<!-- Generator: Adobe Illustrator 21.0.2, SVG Export Plug-In . SVG Version: 6.00 Build 0)  -->
<svg version="1.1" id="Layer_1" xmlns="http://www.w3.org/2000/svg" xmlns:xlink="http://www.w3.org/1999/xlink" x="0px" y="0px"
	 viewBox="0 0 1000 1000" enable-background="new 0 0 1000 1000" xml:space="preserve">
<path d="M750.7,862.1c-79.9,56.4-169.8,85.9-269.3,79.7c-24.2-1.5-52.2-2.3-51.5-34.3c0.6-31.5,28.7-28.2,50.8-28.1
	c151.9,0.6,266.5-64.7,343.7-195.2c106.8-180.6,22.2-435.3-171.1-517C416.7,67.3,174.3,199,126.3,453.4
	c-21.1,111.8,40,253.2,129.3,337.1c-1.2-46.2,0.1-57.9-0.1-88.2c0-3,1.7-5.9,3.2-8.7c10.1-18.3,35.2-20.8,49.6-5.6
	c3.9,4.2,6.7,8.4,7,12.9c3.8,49.4,2.2,99.4,0.6,149c-0.7,22.8-14.6,35-38.8,34.7c-47.1-0.7-94.4,1.7-141.3-2.2c-2.5-0.2-5-1-7.4-2.3
	c-20.6-10.5-21.8-39.5-2.8-52.6c3.1-2.1,6.2-3.9,9.6-5.3c13.2-5.2,56,5.4,72.2,5.4c-60.6-62.6-89-104.9-110.9-155.4
	C-3.1,442.2,116.6,176.9,354,95.3c206.7-71,431,18,531.3,210.9C985.3,498.5,929,736.2,750.7,862.1z"/>
<path d="M610.6,660.8c-7.2,7.2-16.7,10.8-26.2,10.8s-19-3.6-26.2-10.8L454.7,557.4c-7.9-7.9-11.5-18.5-10.7-28.9V301.9
	c0-20.4,16.7-37.1,37.1-37.1c10.2,0,19.5,4.2,26.2,10.9c6.7,6.7,10.9,16,10.9,26.2v214l92.4,92.4
	C625.1,622.7,625.1,646.4,610.6,660.8z"/>
</svg>
