<?xml version="1.0" encoding="utf-8"?>
<!-- Generator: Adobe Illustrator 21.0.2, SVG Export Plug-In . SVG Version: 6.00 Build 0)  -->
<svg version="1.1" id="Layer_1" xmlns="http://www.w3.org/2000/svg" xmlns:xlink="http://www.w3.org/1999/xlink" x="0px" y="0px"
	 viewBox="0 0 512 512" enable-background="new 0 0 512 512" xml:space="preserve">
<g>
	<g>
		<path d="M396.5,49.8H98c-4.3,0-8,3.5-8,7.6v397.3c0,4,3.6,7.2,8,7.2h192.3c1.3-0.4,2.4-1.2,3.4-2.3l0.4-0.4l30.9-30.9l12-12
			l33.9-33.9l12-12l19-18.9l0.1-0.2c0.1-0.1,0.2-0.2,0.2-0.3c0-0.1,0.1-0.2,0.2-0.2c0,0,0.1-0.1,0.1-0.1v-0.2l0.8-1.2
			c0.1-0.2,0.1-0.4,0.2-0.6l0.3-1.3c0,0,0-0.1,0-0.1v-0.3l0.1-0.7c0-0.2,0-0.4,0.1-0.6V57.4C404.1,53.2,400.7,49.8,396.5,49.8z
			 M362,370.4l-12,12l-13,12.9l-12,12l-29,29v-82.6h82.7L362,370.4z M389,338.5H287.8c-4.2,0-7.8,3.5-7.8,7.6v100.7H106v-382h283
			V338.5z"/>
	</g>
</g>
<g>
	<path d="M283,149.9c-10.4-9.6-24.7-14.4-42.5-14.4c-16.8,0-30.4,4.5-40.4,13.4c-9.6,8.6-15.7,20.9-18,36.7l19.4,2.3
		c2.2-12.5,6.7-21.9,13.3-28c7-6.5,15.8-9.8,26.2-9.8c10.7,0,19.7,3.6,27.3,10.9c7.6,7.5,11.3,15.7,11.3,25.3
		c0,5.4-1.3,10.3-3.9,14.9c-2.4,4.3-7.5,9.9-16,17.4c-8.1,7.2-13.3,12.3-16.4,15.8c-4.2,5.1-7,9.8-8.7,14.3
		c-2.5,6.4-3.7,14-3.7,22.7c0,1,0,2.6,0.1,4.4h17.6c0.2-8.1,0.9-14.2,1.9-18.2c1.1-4.2,2.9-8,5.5-11.6l0.1-0.1
		c2.7-3.5,7.9-8.7,15-15c11.2-9.9,18.4-18,22.1-24.7c3.6-6.5,5.4-13.8,5.4-21.6C298.6,171.1,293.3,159.4,283,149.9z M231.1,300.8
		v17.6h17.5v-17.6H231.1z"/>
</g>
</svg>
