<?xml version="1.0" encoding="utf-8"?>
<!-- Generator: Adobe Illustrator 19.1.0, SVG Export Plug-In . SVG Version: 6.00 Build 0)  -->
<svg version="1.1" id="Layer_1" xmlns="http://www.w3.org/2000/svg" xmlns:xlink="http://www.w3.org/1999/xlink" x="0px" y="0px"
	 viewBox="0 0 512 512" enable-background="new 0 0 512 512" xml:space="preserve">
<path d="M426,0H86C38.6,0,0,38.6,0,86v340c0,47.4,38.6,86,86,86h340c47.4,0,86-38.6,86-86V86C512,38.6,473.4,0,426,0z M312,32v124.3
	l-56-49.7l-56,49.7V32H312z M480,426c0,29.8-24.2,54-54,54H86c-29.8,0-54-24.2-54-54V86c0-29.8,24.2-54,54-54h82v195.7l88-78.3
	l88,78.3V32h82c29.8,0,54,24.2,54,54V426z"/>
</svg>
