<?xml version="1.0" encoding="utf-8"?>
<!-- Generator: Adobe Illustrator 19.2.0, SVG Export Plug-In . SVG Version: 6.00 Build 0)  -->
<svg version="1.1" id="Layer_1" xmlns="http://www.w3.org/2000/svg" xmlns:xlink="http://www.w3.org/1999/xlink" x="0px" y="0px"
	 viewBox="0 0 512 512" style="enable-background:new 0 0 512 512;" xml:space="preserve">
<g>
	<path d="M394.5,439.6v31.9h-302v-431h225v77h77v72.8l7.1-7.1c9.4-9.4,20.9-15.6,33.9-18v-52.6L322,0.5H78.8
		C64.7,0.5,51.5,8.9,51.5,23v460.8c0,14.1,13.2,28.7,27.3,28.7h332.8c14.2,0,23.9-14.5,23.9-28.7v-19.1c-13-2.4-24.5-8.6-33.9-18
		L394.5,439.6z"/>
	<path d="M395.8,315l59.1-59.5c7.9-8,7.9-20.9-0.1-28.8c-8-7.9-20.9-7.9-28.8,0.1l-57.3,57.7l-57.3-57.7c-7.9-8-20.8-8-28.8-0.1
		c-8,7.9-8,20.8-0.1,28.8l59.1,59.5l-59.1,59.5c-7.9,8-7.9,20.9,0.1,28.8c4,3.9,9.2,5.9,14.4,5.9c5.2,0,10.5-2,14.5-6l57.3-57.7
		l57.3,57.7c4,4,9.2,6,14.5,6c5.2,0,10.4-2,14.4-5.9c8-7.9,8-20.8,0.1-28.8L395.8,315z"/>
</g>
</svg>
