<?xml version="1.0" encoding="utf-8"?>
<!-- Generator: Adobe Illustrator 19.2.0, SVG Export Plug-In . SVG Version: 6.00 Build 0)  -->
<svg version="1.1" id="Layer_1" xmlns="http://www.w3.org/2000/svg" xmlns:xlink="http://www.w3.org/1999/xlink" x="0px" y="0px"
	 viewBox="0 0 512 512" style="enable-background:new 0 0 512 512;" xml:space="preserve">
<g>
	<path d="M366.5,471.5h-303v-431h226v77h77v43l41-41v-6.9L293.9,0.5H50.7C36.5,0.5,23.5,8.9,23.5,23v460.8c0,14.1,13,28.7,27.2,28.7
		h332.8c14.2,0,24-14.5,24-28.7V382.5l-41,41V471.5z"/>
	<path d="M469.4,193.6c-22.7-22.7-39.8-19.3-39.8-19.3l-79.6,79.6l-91,91l-15.9,75l75-15.9l91-91l79.6-79.6
		C488.8,233.4,492.2,216.3,469.4,193.6z M313.8,394.9l-25.6,5.5c-2.5-4.6-5.4-9.2-10.9-14.7c-5.4-5.4-10.1-8.4-14.7-10.9l5.5-25.6
		l7.4-7.4c0,0,13.9,0.3,29.6,16c15.7,15.7,16,29.6,16,29.6L313.8,394.9z"/>
</g>
</svg>
