<svg xmlns="http://www.w3.org/2000/svg" viewBox="0 0 512 512"><path d="M446.4 131.7L319.3 4.2c-2.6-2.6-6.4-4.2-10.1-4.2H75.6c-7.9 0-14.2 6.5-14.2 14.4v483.4c0 7.9 6.4 14.3 14.2 14.3h360.7c7.9 0 14.5-6.5 14.5-14.3v-356c-.2-3.8-1.8-7.4-4.4-10.1zm-129-88.8l91.5 91.7h-86.5c-2.8 0-5-2.2-5-5V42.9zM89.8 478.5v-445c0-2.8 2.2-5 5-5H284c2.8 0 5 2.2 5 5v115.2c0 7.9 6.5 14.4 14.3 14.4h113.8c2.8 0 5 2.2 5 5v310.4c0 2.8-2.2 5-5 5H94.8c-2.7 0-5-2.2-5-5z"/><path d="M323.3 207.4c-6.5-4.3-15.4-2.6-19.7 3.9l-111 165.6c-4.3 6.5-2.6 15.4 3.9 19.7 2.4 1.6 5.2 2.4 7.9 2.4 4.6 0 9.1-2.2 11.8-6.3l111-165.6c4.2-6.4 2.5-15.3-3.9-19.7z"/><circle cx="189.1" cy="255.5" r="31.6"/><circle cx="322.8" cy="356.4" r="31.6"/></svg>