<?xml version="1.0" encoding="utf-8"?>
<!-- Generator: Adobe Illustrator 19.1.0, SVG Export Plug-In . SVG Version: 6.00 Build 0)  -->
<svg version="1.1" id="Layer_1" xmlns="http://www.w3.org/2000/svg" xmlns:xlink="http://www.w3.org/1999/xlink" x="0px" y="0px"
	 viewBox="0 0 512 512" style="enable-background:new 0 0 512 512;" xml:space="preserve">
<g>
	<path d="M217.3,507c-5,0-9.7-1.4-13.8-4.2c-7-4.8-11.1-12.9-11.1-22.3V302.6c0-12.8-6.9-33.1-14.7-43.3L38.6,49.2
		C30,38,28,25.8,32.9,15.8c5-10,15.9-15.8,30-15.8h385.8c13.9,0,24.9,5.7,30.1,15.7c5.2,10,3.5,22.3-4.5,33.7L333.8,260.1
		c-7.5,10.7-14.1,31.5-14.1,44.6V453c0,14.6-10.2,29.7-23.8,35.2L228,504.9C224.5,506.3,220.8,507,217.3,507z M68.8,36.7
		l134.3,203.2c12.1,15.8,21.3,42.8,21.3,62.7v165.5c0,1.9,1.8,3.3,3.7,2.9l56-12.6c1.5-0.6,3.7-3.8,3.7-5.5V304.7
		c0-19.8,8.6-47,20-63.1l136.6-205c1.3-2-0.1-4.7-2.5-4.7H71.3C68.9,32,67.5,34.7,68.8,36.7z"/>
	<path d="M237.2,219.7c-4.8-0.2-9.4-2.6-12.4-6.9l-11.7-17c-5-7.3-3.2-17.2,4.1-22.2c7.3-5,17.2-3.2,22.2,4.1l11.7,17
		c5,7.3,3.2,17.2-4.1,22.2C244,219,240.6,219.9,237.2,219.7z M196.9,161.1c-4.8-0.2-9.5-2.6-12.4-6.9l-47.4-69
		c-5-7.3-3.2-17.2,4.1-22.2c7.3-5,17.2-3.2,22.2,4.1l47.4,69c5,7.3,3.2,17.2-4.1,22.2C203.7,160.4,200.3,161.3,196.9,161.1z"/>
</g>
</svg>
