<?xml version="1.0" encoding="utf-8"?>
<!-- Generator: Adobe Illustrator 19.1.0, SVG Export Plug-In . SVG Version: 6.00 Build 0)  -->
<svg version="1.1" id="Layer_1" xmlns="http://www.w3.org/2000/svg" xmlns:xlink="http://www.w3.org/1999/xlink" x="0px" y="0px"
	 viewBox="0 0 512 512" style="enable-background:new 0 0 512 512;" xml:space="preserve">
<path d="M19.8,420.1c-4-6.2-4.6-13.9-1.6-20.6L29,375.1c0-0.3,0-0.7,0-1V171.3c0-15.5,12.5-28,28-28h155.9h178.7
	c13,0,24,8.9,27.1,20.9h29.7v-5.5c0.1-24.5-19.8-44.3-44.2-44.3H273.5c-20.1,0-38.8-10.7-48.4-28.4c-11.1-20.7-32.9-34.7-58-34.7
	H30.8c-14.4,0-26,11.7-26.2,25.9l-1.7,65.7C1.1,147.8,0,153.1,0,158.6v228.2c0,19.6,12.7,36.2,30.3,42C26,427,22.3,424,19.8,420.1z"
	/>
<path d="M509,170.4c-2.9-3.9-7.5-6.3-12.4-6.3h-49h-29.7H132.2c-6.1,0-11.6,3.6-14.1,9.2l-90,201.8l-10.9,24.4
	c-3,6.7-2.4,14.4,1.6,20.6c2.5,3.9,6.2,6.9,10.5,8.8c3.3,1.4,6.9,2.2,10.8,2.2h1h364.4h4.1c15.9,0,29.8-9.5,34-23.1l67.8-223.9
	C512.8,179.4,511.9,174.3,509,170.4z M447.5,288.1L414,398.8c-0.4,0.4-2,1.4-4.4,1.4H401H55.3c-2.1,0-3.5-2.2-2.7-4.1l88.9-199.3
	c0.5-1,1.5-1.7,2.7-1.7h274.6h28.8h24.3c1.9,0,3.3,1.9,2.8,3.7L447.5,288.1z"/>
</svg>
