<?xml version="1.0" encoding="utf-8"?>
<!-- Generator: Adobe Illustrator 19.1.0, SVG Export Plug-In . SVG Version: 6.00 Build 0)  -->
<svg version="1.1" id="Layer_1" xmlns="http://www.w3.org/2000/svg" xmlns:xlink="http://www.w3.org/1999/xlink" x="0px" y="0px"
	 viewBox="0 0 512 512" style="enable-background:new 0 0 512 512;" xml:space="preserve">
<path d="M461.4,94.5H312.2c-22.9,0-44.3-12.2-55.2-32.4c-12.7-23.6-37.6-39.6-66.2-39.6H35.1
	c-16.4,0-29.7,13.3-29.9,29.6l-1.9,75c-2.1,5.6-3.3,11.7-3.3,18v260.5c0,28,22.7,50.6,50.6,50.6h410.7c28,0,50.6-22.7,50.6-50.6
	V145.1C512,117.1,489.3,94.5,461.4,94.5z M478.9,391.1c0,17.7-14.3,32-32,32H65.1c-17.7,0-32-14.3-32-32V159.5c0-17.7,14.3-32,32-32
	H243h204c17.7,0,32,14.3,32,32v231.6H478.9z"/>
</svg>
