<?xml version="1.0" encoding="utf-8"?>
<!-- Generator: Adobe Illustrator 19.2.0, SVG Export Plug-In . SVG Version: 6.00 Build 0)  -->
<svg version="1.1" id="Layer_1" xmlns="http://www.w3.org/2000/svg" xmlns:xlink="http://www.w3.org/1999/xlink" x="0px" y="0px"
	 viewBox="0 0 512 512" style="enable-background:new 0 0 512 512;" xml:space="preserve">
<path d="M201.6,136c-6.1,0-11.8-2.8-15.6-7.5l-20-25c-3.8-4.7-9.5-7.5-15.6-7.5H0v352.1C0,477,25.7,511,60,511h392c33,0,60-27,60-60
	V136H201.6z M480,449c0,16.5-13.5,30-30,30H62.9c-8.4,0-16.4-3.5-22.1-9.7l-0.9-1c-5.1-5.5-7.9-12.8-7.9-20.3V261h448V449z M32,229
	v-98.9V128h112.6l16.4,20.5c9.9,12.4,24.7,19.5,40.6,19.5H480v61H32z"/>
</svg>
