<?xml version="1.0" encoding="utf-8"?>
<!-- Generator: Adobe Illustrator 19.2.0, SVG Export Plug-In . SVG Version: 6.00 Build 0)  -->
<svg version="1.1" id="Layer_1" xmlns="http://www.w3.org/2000/svg" xmlns:xlink="http://www.w3.org/1999/xlink" x="0px" y="0px"
	 viewBox="0 0 512 512" style="enable-background:new 0 0 512 512;" xml:space="preserve">
<g>
	<path d="M370.7,488c-8.3-8.8-18.5-30.2-31.5-64.1c0,0-133.1-355.7-135.2-358.1c-2.1-2.4-3-2.4-5.1,0L76.8,383
		c-12.9,32.8-37.2,90.8-46,100.1C22,492.3,11.5,499.8-0.5,502v10h117v-10c-19-1.6-27.2-4.4-31.9-7.8c-8-5.4-12-13.9-12-25.5
		c0-8.7,2.4-19.7,7.3-33.1l8.4-22.5l9.8-26.1h147.6l19.6,54.8c5.2,14.2,8,22.3,8.3,24.3c1.1,4.1,2.2,7.8,2.2,11.7
		c0,6.4-2.5,11.4-6.6,14.8c-5.9,4.7-30.7,6.4-45.3,6.4h-7.3v12h180v-11.3C386.5,498.5,376.9,494.6,370.7,488z M107.9,363.9
		l68.4-189.1l61.1,189.1H107.9z"/>
	<path d="M498.3,498.6c-4.4-4.7-9.5-16.1-16.3-34.2c0,0-70.4-189.1-71.3-191.1s-2.5-2-3.4,0c-0.5,1.2-30.9,72.6-50.9,125.2
		c2,5.4,4.1,10.9,6,15.9l33.7-83.6l31.3,101.5h-58c1.8,4.8,3.5,9.4,5,12.9h58l10.5,28.6c2.7,7.5,4.2,11.9,4.4,13
		c0.6,2.2,0.9,4.3,0.9,6.3c0,3.5-1.1,6.2-3.2,8c-3.1,2.5-16.3,3.6-24,3.6h-4.5v6h95v-6.1C505.5,504.1,501.7,502.1,498.3,498.6z"/>
</g>
</svg>
