<?xml version="1.0" encoding="utf-8"?>
<!-- Generator: Adobe Illustrator 21.0.2, SVG Export Plug-In . SVG Version: 6.00 Build 0)  -->
<svg version="1.1" id="Layer_1" xmlns="http://www.w3.org/2000/svg" xmlns:xlink="http://www.w3.org/1999/xlink" x="0px" y="0px"
	 viewBox="0 0 1000 1000" enable-background="new 0 0 1000 1000" xml:space="preserve">
<path d="M511.2,59.4c236.1-10.6,441.3,206.1,440.9,438.7c-0.5,224.2-188.7,441.2-440.3,441.9C257.5,940.7,68.4,720.6,69,496.6
	C69.5,268.9,270,48.4,511.2,59.4z M519.5,871.5c200.4,0.5,364-166,364.6-370.9c0.6-214.2-162.3-375.2-380.4-376.1
	C303.5,123.7,137.9,290.6,137.1,494C136.3,711.3,298,870.9,519.5,871.5z"/>
<path d="M619.3,569.8c0,26.1-8,46.9-24,62.5c-16,15.6-37.8,24.8-65.4,27.6v44.5h-35.7v-44.3c-28-2.8-51.1-12.8-69.4-29.8
	c-18.3-17-27.1-42-26.5-74.9l0.4-1.1h64c0,20.1,4.6,34.5,13.8,43.1c9.2,8.7,20.9,13,35.2,13c13.6,0,24.1-3.6,31.4-10.9
	c7.3-7.3,10.9-17,10.9-29.3c0-12.1-3.5-22-10.5-29.7c-7-7.6-18.9-14.7-35.8-21.3c-33.3-12.1-57.9-25.6-74-40.6
	c-16.1-14.9-24.2-35.9-24.2-63c0-25.2,8.1-45.8,24.2-61.9c16.1-16.1,37.8-25.6,65-28.4v-48.3h35.7v48.8c26.4,3.9,47.1,14.9,62.1,33
	c15.1,18.1,22.4,41.6,22.1,70.5l-0.7,1.1h-64c0-17.7-3.6-31.3-10.9-40.9c-7.3-9.6-17.2-14.4-29.8-14.4c-12.9,0-22.5,3.7-28.8,11.1
	c-6.3,7.4-9.4,17.3-9.4,29.5c0,11.7,3.3,21.2,10,28.4c6.7,7.3,18.9,14.4,36.7,21.5c33.1,13,57.6,27,73.6,41.8
	C611.4,522.4,619.3,543.2,619.3,569.8z"/>
</svg>
