<?xml version="1.0" encoding="utf-8"?>
<!-- Generator: Adobe Illustrator 21.0.2, SVG Export Plug-In . SVG Version: 6.00 Build 0)  -->
<svg version="1.1" id="Layer_1" xmlns="http://www.w3.org/2000/svg" xmlns:xlink="http://www.w3.org/1999/xlink" x="0px" y="0px"
	 viewBox="0 0 512 512" enable-background="new 0 0 512 512" xml:space="preserve">
<path d="M208,0H16C7.2,0,0,7.2,0,16v196c0,8.8,7.2,16,16,16h192c8.8,0,16-7.2,16-16V16C224,7.2,216.8,0,208,0z M189,196H35
	c-1.7,0-3-1.3-3-3V35c0-1.7,1.3-3,3-3h154c1.7,0,3,1.3,3,3v158C192,194.7,190.7,196,189,196z"/>
<path d="M496,0H304c-8.8,0-16,7.2-16,16v196c0,8.8,7.2,16,16,16h192c8.8,0,16-7.2,16-16V16C512,7.2,504.8,0,496,0z M477,196.1H323
	c-1.7,0-3-1.3-3-3V35c0-1.7,1.3-3,3-3h154c1.7,0,3,1.3,3,3v158C480,194.7,478.7,196.1,477,196.1z"/>
<path d="M208,284H16c-8.8,0-16,7.2-16,16v196c0,8.8,7.2,16,16,16h192c8.8,0,16-7.2,16-16V300C224,291.2,216.8,284,208,284z M189,480
	H35c-1.7,0-3-1.3-3-3V319c0-1.7,1.3-3,3-3h154c1.7,0,3,1.3,3,3v158C192,478.7,190.7,480,189,480z"/>
<path d="M496,284H304c-8.8,0-16,7.2-16,16v196c0,8.8,7.2,16,16,16h192c8.8,0,16-7.2,16-16V300C512,291.2,504.8,284,496,284z
	 M477,480.1H323c-1.7,0-3-1.3-3-3V319c0-1.7,1.3-3,3-3h154c1.7,0,3,1.3,3,3v158C480,478.7,478.7,480.1,477,480.1z"/>
</svg>
