<?xml version="1.0" encoding="utf-8"?>
<!-- Generator: Adobe Illustrator 19.2.0, SVG Export Plug-In . SVG Version: 6.00 Build 0)  -->
<svg version="1.1" id="Layer_1" xmlns="http://www.w3.org/2000/svg" xmlns:xlink="http://www.w3.org/1999/xlink" x="0px" y="0px"
	 viewBox="0 0 512 512" style="enable-background:new 0 0 512 512;" xml:space="preserve">
<path d="M240,497.8v-232c0-6.6-5.4-12-12-12H28c-6.6,0-12,5.4-12,12v212c0,17.7,14.3,32,32,32h180C234.6,509.8,240,504.4,240,497.8z
	"/>
<path d="M284,509.8h180c17.7,0,32-14.3,32-32v-212c0-6.6-5.4-12-12-12H284c-6.6,0-12,5.4-12,12v232C272,504.4,277.4,509.8,284,509.8
	z"/>
<path d="M379.9,157.8c25.3-15.4,42.6-43.4,42.6-74.7c0-44.5-36.2-80.8-80.8-80.8c-21.2,0-42.5,10.8-58.5,29.7
	c-14.3,16.8-22.8,37.9-23.6,58.3c-0.1,1.9-1.6,3.4-3.5,3.4H256c-1.9,0-3.5-1.5-3.5-3.4c-0.8-20.4-9.2-41.4-23.2-58.2
	c-15.8-19-37-29.8-58.2-29.8c-44.5,0-80.8,36.2-80.8,80.8c0,21.5,7.2,43.1,19.8,59.2c4.8,6.1,10.2,11.3,16.1,15.5H48
	c-17.6,0-32,14.4-32,32v20c0,6.6,5.4,12,12,12h456c6.6,0,12-5.4,12-12v-20c0-17.6-14.4-32-32-32H379.9z M205.8,157.8
	c-74.8,0-90.5-44.8-90.5-74.7c0-30.8,24.8-55.8,55.5-55.8c25.6,0,56.2,29.6,56.2,66.4v56c0,4.4-3.6,8-8,8L205.8,157.8L205.8,157.8z
	 M302,48.2c11.3-13.3,25.8-20.9,39.6-20.9c30.8,0,55.8,25,55.8,55.8c0,16.7-21.9,74.7-100.7,74.7H292c-4.4,0-8-3.6-8-8v-56
	C284,78.3,290.9,61.3,302,48.2z"/>
</svg>
