<svg data-name="e2705a58-f860-4fb0-9b5d-ad27da5e7735" xmlns="http://www.w3.org/2000/svg" viewBox="0 0 96 69">
  <path d="M45,6v8H40V6a1,1,0,0,0-1-1H6A1,1,0,0,0,5,6V25.12a1,1,0,0,0,1,1H16v5H6a6,6,0,0,1-6-6V6A6,6,0,0,1,6,0H39A6,6,0,0,1,45,6Z" />
  <path d="M96,6V25.12a6,6,0,0,1-6,6H80v-5H90a1,1,0,0,0,1-1V6a1,1,0,0,0-1-1H57a1,1,0,0,0-1,1v8H51V6a6,6,0,0,1,6-6H90A6,6,0,0,1,96,6Z" />
  <polygon points="86 41 80 41 80 34 81.25 34 86 41" />
  <polygon points="16 34 16 41 10 41 14.75 34 16 34" />
  <polygon points="59.49 69 36.51 69 40.86 62.43 42.25 60.33 53.74 60.33 55.13 62.43 59.49 69" />
  <path d="M69.2,26.3a.83.83,0,0,1,.81.81V51.32a.83.83,0,0,1-.81.81H26.8a.83.83,0,0,1-.81-.81V27.11a.83.83,0,0,1,.81-.81H69.2m0-5H26.8A5.83,5.83,0,0,0,21,27.11V51.32a5.83,5.83,0,0,0,5.81,5.81H69.2A5.83,5.83,0,0,0,75,51.32V27.11A5.83,5.83,0,0,0,69.2,21.3Z" />
</svg>
