<?xml version="1.0" encoding="utf-8"?>
<!-- Generator: Adobe Illustrator 21.0.2, SVG Export Plug-In . SVG Version: 6.00 Build 0)  -->
<svg version="1.1" id="Layer_1" xmlns="http://www.w3.org/2000/svg" xmlns:xlink="http://www.w3.org/1999/xlink" x="0px" y="0px"
	 viewBox="0 0 512 512" enable-background="new 0 0 512 512" xml:space="preserve">
<path d="M432.3,76.3C384,29,320.1,3.5,252.2,4.5c-66.4,1-128.6,27.6-175.3,74.9C30.2,126.8,4.5,189.5,4.5,256
	c0,67.3,26.1,130.5,73.4,177.9s110.5,73.5,177.8,73.6h0.2c37.2,0,71.5-10,75.4-11.5c20.8-8.1,42.6-21,58.2-34.6
	c21.1-18.4,30.4-37.2,27-54.4c-1.7-8.9-8-21.3-26.8-32.6l0.1-0.1c7.1-8.3,12.7-17.9,12.3-29.4c-0.5-12.3-7.9-24.1-22.5-35.8
	C362.3,295.2,349.2,289,337,289c-15.1,0-24.8,9.9-34.2,19.4l-3.1,3.1c-0.4,0.4-1,0.6-1.9,0.6c-4.6,0-19.2-4-56.5-41.3
	c-27.4-27.4-36.9-42.7-40.1-50.7c-2.4-6-1.2-7.2-0.6-7.7l3-3c10-9.8,18.4-19.1,19.4-32.1c1-12.6-5-26-20-44.8
	c-12.2-15.2-24.4-22.6-37.2-22.6c-17.2,0-30.3,13.7-40.7,24.7c-1.7,1.8-3.5,3.7-5.1,5.3c-13.1,13.1-13.4,39.7-0.9,73.1
	c13.2,34.9,39.1,72.9,73.1,106.9c26,26,54.6,47.4,82.8,62.1c25.1,13,49,20.2,67.3,20.2c13,0,23.3-3.5,29.8-10c1.5-1.5,3.1-3,4.7-4.5
	l0.2-0.2c17.1,9.2,21.3,18.2,22.2,23c2.8,14.2-12.2,29.7-21.3,37.7c-14.2,12.4-34,24.1-52.9,31.5c-0.3,0.1-32.4,10.3-69.1,10.3h-0.2
	c-62.6-0.1-121.3-24.4-165.3-68.4S22.1,318.6,22.1,256c0-61.8,23.9-120.2,67.3-164.2s101.2-68.7,163-69.6
	c63.1-1,122.6,22.8,167.5,66.7c44.8,43.9,69.6,102.9,69.9,166c0.1,31.8-6,62.6-18.2,91.7c-1.9,4.5,0.2,9.7,4.7,11.6
	s9.7-0.2,11.6-4.7c13.1-31.2,19.7-64.4,19.6-98.6C507.2,187,480.5,123.6,432.3,76.3z M365.1,374.4l-0.4,0.3c-1.7,1.6-3.4,3.2-5,4.9
	c-3.1,3.1-9.3,4.9-17.3,4.9c-15.3,0-36.9-6.6-59.2-18.2c-26.6-13.8-53.7-34.2-78.4-58.9c-32.2-32.2-56.7-68-69.1-100.6
	c-11.6-30.8-9-48.6-3.2-54.4c1.8-1.8,3.6-3.7,5.4-5.6c8.6-9,18.3-19.2,27.9-19.2c7,0,14.9,5.4,23.4,16
	c11.8,14.7,16.8,24.7,16.2,32.3c-0.5,6.5-5,11.9-14.3,21l-3.1,3c-6.6,6.6-7.7,15.6-3.3,26.7c5.6,14.1,20,32.7,44,56.7
	c41.6,41.6,59.3,46.5,69,46.5c5.6,0,10.7-2,14.5-5.8l3.1-3.1c8.9-9.1,14.4-14.2,21.7-14.2c7.6,0,17.9,5.3,31.5,16.2
	c10.3,8.3,15.7,16,15.9,22.8C384.8,355.6,374.3,365.6,365.1,374.4z"/>
</svg>
