<?xml version="1.0" encoding="utf-8"?>
<!-- Generator: Adobe Illustrator 21.0.2, SVG Export Plug-In . SVG Version: 6.00 Build 0)  -->
<svg version="1.1" id="Layer_1" xmlns="http://www.w3.org/2000/svg" xmlns:xlink="http://www.w3.org/1999/xlink" x="0px" y="0px"
	 viewBox="0 0 1000 1000" enable-background="new 0 0 1000 1000" xml:space="preserve">
<ellipse transform="matrix(0.7071 -0.7071 0.7071 0.7071 -207.2817 500.5778)" fill="#333333" cx="500.6" cy="500.5" rx="489.5" ry="489.5"/>
<g>
	<path fill="#FFFFFF" d="M513.9,776.4c0,0-128.7-52.3-119.5-184.6c0,0,71.4,53,137.9,75.7C499,696.5,513.9,776.4,513.9,776.4z"/>
	<path fill="#FFFFFF" d="M776.5,513.8c0,0-79.9-14.8-108.9,18.4C645,465.7,592,394.3,592,394.3C724.2,385.1,776.5,513.8,776.5,513.8
		z"/>
	<polygon fill="#FFFFFF" points="680.8,743.9 657.4,767.2 590.3,700.1 613.6,676.7 	"/>
	<polygon fill="#FFFFFF" points="772,652.7 748.7,676 681.5,608.8 704.8,585.5 	"/>
	
		<rect x="680.9" y="622.3" transform="matrix(0.7073 -0.707 0.707 0.7073 -286.0084 695.9888)" fill="#FFFFFF" width="33" height="142"/>
	<path fill="#FFFFFF" d="M503.1,306.4c-101.8-101.8-247.5-50.9-247.5-50.9S204.7,401.1,306.5,503
		c101.8,101.8,265.2,167.6,265.2,167.6l99-99C670.7,571.6,604.9,408.2,503.1,306.4z M405.5,405.4c-18.7,18.8-49.1,18.8-67.9,0
		c-18.7-18.7-18.7-49.1,0-67.9c18.8-18.7,49.1-18.7,67.9,0C424.2,356.3,424.2,386.6,405.5,405.4z"/>
</g>
</svg>
