<?xml version="1.0" encoding="utf-8"?>
<!-- Generator: Adobe Illustrator 19.1.0, SVG Export Plug-In . SVG Version: 6.00 Build 0)  -->
<svg version="1.1" id="Layer_1" xmlns="http://www.w3.org/2000/svg" xmlns:xlink="http://www.w3.org/1999/xlink" x="0px" y="0px"
	 viewBox="0 0 512 512" style="enable-background:new 0 0 512 512;" xml:space="preserve">
<path d="M317.1,147.5c-15.1-13.8-35.5-20.8-60.5-20.8c-23.7,0-43.1,6.5-57.7,19.4c-14.6,12.9-23.5,31.5-26.4,55.5l-0.6,4.9l40.4,4.8
	l0.7-4.6c2.5-15.8,7.7-27.5,15.4-34.7c7.7-7.2,17.1-10.7,28.7-10.7c12,0,21.9,3.9,30.1,11.9c8.2,8,12.2,16.9,12.2,27.3
	c0,5.6-1.3,10.7-4,15.4c-2.8,4.9-9.3,11.9-19.3,20.7c-10.7,9.4-17.9,16.5-22.1,21.5c-5.8,7-10,14-12.6,20.8
	c-3.5,9.1-5.3,19.9-5.3,32.3c0,2.1,0.1,5.1,0.2,9l0.1,4.7v0h38.4l0.1-4.8c0.3-14.3,1.4-21.4,2.3-24.7c1.3-4.7,3.2-8.8,5.9-12.5
	c2.8-3.8,9-10,18.5-18.4c15.1-13.4,25.1-24.6,30.4-34.2c5.4-9.7,8.1-20.4,8.1-31.9C340.1,178.5,332.4,161.4,317.1,147.5z"/>
<path d="M256.3,385.3L256.3,385.3c12.1,0,22-9.8,22-22v0c0-12.1-9.8-22-22-22h0c-12.1,0-22,9.8-22,22v0
	C234.3,375.5,244.1,385.3,256.3,385.3z"/>
<path d="M437.4,74.6C388.9,26.1,324.5-0.5,256-0.5c-68.5,0-132.9,26.7-181.4,75.1C26.1,123.1-0.5,187.5-0.5,256
	c0,68.5,26.7,132.9,75.1,181.4c48.5,48.5,112.9,75.1,181.4,75.1c68.5,0,132.9-26.7,181.4-75.1c48.5-48.5,75.1-112.9,75.1-181.4
	C512.5,187.5,485.9,123.1,437.4,74.6z M414.8,414.8c-42.4,42.4-98.8,65.8-158.8,65.8s-116.4-23.4-158.8-65.8
	C54.8,372.4,31.5,316,31.5,256S54.8,139.6,97.2,97.2C139.6,54.8,196,31.5,256,31.5s116.4,23.4,158.8,65.8
	c42.4,42.4,65.8,98.8,65.8,158.8S457.2,372.4,414.8,414.8z"/>
</svg>
