<?xml version="1.0" encoding="utf-8"?>
<!-- Generator: Adobe Illustrator 21.0.2, SVG Export Plug-In . SVG Version: 6.00 Build 0)  -->
<svg version="1.1" id="Layer_1" xmlns="http://www.w3.org/2000/svg" xmlns:xlink="http://www.w3.org/1999/xlink" x="0px" y="0px"
	 viewBox="0 0 1000 1000" style="enable-background:new 0 0 1000 1000;" xml:space="preserve">
<path d="M498.9,11.6c-270.1,0-489,218.9-489,489s218.9,489,489,489s489-218.9,489-489S769,11.6,498.9,11.6z M550.4,786.1
	c-4,9.4-9.6,17.5-16.7,24.3c-7.1,6.8-15.5,12.2-25,16.1s-19.8,5.8-30.8,5.8c-11.3,0-21.7-1.9-31.2-5.8s-17.8-9.2-24.8-16.1
	c-7-6.8-12.5-14.9-16.5-24.3c-4-9.4-6-19.4-6-30.1s2-20.7,6-29.9c4-9.2,9.5-17.2,16.5-24.1c7-6.8,15.2-12.3,24.8-16.3
	c9.5-4,19.9-6,31.2-6c11,0,21.3,2,30.8,6s17.8,9.4,25,16.3c7.1,6.8,12.7,14.9,16.7,24.1c4,9.2,6,19.2,6,29.9
	S554.4,776.7,550.4,786.1z M670.9,385.7c-6.2,16.5-14.1,30.9-23.6,43c-9.5,12.2-20,22.7-31.4,31.7c-11.4,8.9-22.3,17.2-32.6,24.8
	c-10.3,7.6-19.2,15.1-26.8,22.5c-7.6,7.4-12.4,15.8-14.5,25L529.6,595H435l-9.8-71.8c-2.4-14.6-0.9-27.3,4.5-38.1
	c5.4-10.9,12.7-20.7,22.1-29.4c9.4-8.8,19.8-17.1,31.4-25c11.6-7.9,22.4-16.3,32.6-25.4c10.1-9.1,18.7-19.2,25.6-30.3
	c7-11.2,10.5-24.5,10.5-39.9c0-17.8-5.9-32-17.6-42.6c-11.8-10.6-27.9-15.8-48.4-15.8c-15.8,0-28.9,1.6-39.5,4.9
	c-10.6,3.3-19.6,6.9-27.2,10.9c-7.6,4-14.2,7.7-19.8,10.9c-5.7,3.3-11.3,4.9-16.9,4.9c-12.8,0-22.3-5.5-28.5-16.5l-36.7-56.3
	c11-9.2,23-17.8,35.9-25.9c12.9-8,26.8-15.1,41.7-21.2c14.9-6.1,30.8-10.9,47.9-14.3c17.1-3.4,35.6-5.1,55.5-5.1
	c27.9,0,53.1,3.7,75.6,11.2c22.4,7.4,41.6,18.1,57.3,31.9c15.8,13.8,27.9,30.5,36.4,50s12.7,41.1,12.7,64.9
	C680.3,349.6,677.2,369.2,670.9,385.7z"/>
</svg>
