<?xml version="1.0" encoding="utf-8"?>
<!-- Generator: Adobe Illustrator 21.0.2, SVG Export Plug-In . SVG Version: 6.00 Build 0)  -->
<svg version="1.1" id="Layer_1" xmlns="http://www.w3.org/2000/svg" xmlns:xlink="http://www.w3.org/1999/xlink" x="0px" y="0px"
	 viewBox="0 0 512 512" enable-background="new 0 0 512 512" xml:space="preserve">
<title>Help</title>
<g>
	<g>
		<path fill="#F2F2F2" d="M486,256c0,61.4-23.9,119.2-67.4,162.6C375.2,462.1,317.4,486,256,486s-119.2-23.9-162.6-67.4
			C50,375.1,26,317.4,26,256S49.9,136.8,93.4,93.4C136.9,50,194.6,26,256,26s119.2,23.9,162.6,67.4C462,136.9,486,194.6,486,256z"/>
		<path d="M432.8,79.2C385.6,32,322.8,6,256,6S126.4,32,79.2,79.2S6,189.2,6,256s26,129.6,73.2,176.8S189.2,506,256,506
			s129.6-26,176.8-73.2S506,322.8,506,256S480,126.4,432.8,79.2z M418.6,418.6C375.2,462.1,317.4,486,256,486
			s-119.2-23.9-162.6-67.4C50,375.1,26,317.4,26,256S49.9,136.8,93.4,93.4C136.9,50,194.6,26,256,26s119.2,23.9,162.6,67.4
			C462,136.9,486,194.6,486,256S462.1,375.2,418.6,418.6z"/>
		<rect x="242.2" y="349.5" width="26" height="26"/>
		<path d="M332.8,201.9c0,10.3-2.4,20-7.2,28.7c-5,8.9-14.4,19.4-28.8,32.2c-9.7,8.6-16,14.9-19.2,19.2c-3.2,4.4-5.4,9.1-6.7,14.4
			c-1.4,5-2.2,13.3-2.5,24.8h-26.3v-1.6c-0.1-2.6-0.1-4.6-0.1-6.1c0-11.4,1.6-21.4,4.9-29.8c2.4-6.1,6.2-12.5,11.5-18.9
			c4.1-4.9,11-11.6,21.3-20.5c10.5-9.2,17.2-16.4,20.3-22c3.2-5.6,4.8-11.6,4.8-18.3c0-11.9-4.5-22.2-13.9-31.3s-20.5-13.5-34-13.5
			c-13.1,0-23.7,4-32.5,12.2c-8.4,7.8-14,20.2-16.8,36.7l-28.4-3.4c2.9-21.5,10.9-38.4,24-50c13.3-11.7,31.2-17.7,53.1-17.7
			c23.3,0,42.1,6.4,55.8,19C325.8,168.6,332.8,184,332.8,201.9z"/>
	</g>
</g>
</svg>
