<?xml version="1.0" encoding="utf-8"?>
<!-- Generator: Adobe Illustrator 19.1.0, SVG Export Plug-In . SVG Version: 6.00 Build 0)  -->
<svg version="1.1" id="Layer_1" xmlns="http://www.w3.org/2000/svg" xmlns:xlink="http://www.w3.org/1999/xlink" x="0px" y="0px"
	 viewBox="0 0 512 512" style="enable-background:new 0 0 512 512;" xml:space="preserve">
<path d="M438.1,73.9C389.5,25.2,324.8-1.5,256-1.5c-68.8,0-133.5,26.8-182.1,75.4S-1.5,187.2-1.5,256c0,41,9.4,80.3,27.8,116.6
	c11.1,21.9,25.5,42.2,42.4,60.1h-53c-8.8,0-16,7.2-16,16s7.2,16,16,16h94.6c0.2,0,0.4,0,0.7,0c0,0,0,0,0.1,0
	c2.1-0.1,4.1-0.6,5.9-1.4c0,0,0.1,0,0.1-0.1c0.4-0.2,0.8-0.4,1.2-0.6c0.1-0.1,0.2-0.1,0.3-0.2c0.3-0.2,0.6-0.4,1-0.6
	c0.1-0.1,0.3-0.2,0.4-0.3c0.3-0.2,0.5-0.4,0.8-0.6c0.2-0.1,0.3-0.3,0.5-0.4c0.2-0.2,0.5-0.4,0.7-0.7c0.1-0.2,0.3-0.3,0.4-0.5
	c0.2-0.2,0.4-0.5,0.6-0.7c0.1-0.1,0.1-0.1,0.2-0.2c0.1-0.1,0.1-0.2,0.2-0.3c0.2-0.2,0.3-0.5,0.5-0.7c0.1-0.2,0.3-0.4,0.4-0.7
	c0.1-0.2,0.2-0.4,0.4-0.7c0.1-0.3,0.3-0.5,0.4-0.8c0.1-0.2,0.2-0.4,0.2-0.6c0.1-0.3,0.2-0.6,0.4-1c0-0.1,0.1-0.3,0.1-0.4
	c0.1-0.4,0.2-0.8,0.3-1.1c0-0.1,0-0.2,0.1-0.3c0.1-0.4,0.2-0.9,0.2-1.3c0-0.1,0-0.1,0-0.2c0-0.5,0.1-1,0.1-1.5c0,0,0,0,0-0.1v-0.5
	c0-0.1,0-0.1,0-0.2v-93.9c0-8.8-7.2-16-16-16s-16,7.2-16,16v59.1c-15.8-16.3-29.3-35-39.5-55.1C38.7,326.3,30.5,291.9,30.5,256
	c0-60.2,23.5-116.9,66.1-159.5S195.8,30.5,256,30.5s116.9,23.5,159.5,66.1s66.1,99.2,66.1,159.5s-23.5,116.9-66.1,159.5
	s-99.2,66.1-159.5,66.1c-8.8,0-16,7.2-16,16s7.2,16,16,16c68.8,0,133.5-26.8,182.1-75.4s75.4-113.3,75.4-182.1
	C513.5,187.2,486.8,122.5,438.1,73.9z"/>
<path d="M256,83.8c-8.8,0-16,7.2-16,16V256c0,0.1,0,0.3,0,0.4c0,0.3,0,0.7,0,1c0,0.2,0,0.5,0.1,0.7c0,0.3,0.1,0.5,0.1,0.8
	c0,0.3,0.1,0.5,0.2,0.8c0.1,0.2,0.1,0.4,0.2,0.7c0.1,0.3,0.2,0.6,0.3,0.9c0.1,0.2,0.1,0.4,0.2,0.6c0.1,0.3,0.2,0.6,0.4,0.8
	c0.1,0.2,0.2,0.4,0.3,0.6c0.1,0.3,0.3,0.5,0.4,0.7c0.1,0.2,0.3,0.4,0.4,0.6c0.1,0.2,0.3,0.4,0.4,0.6c0.2,0.2,0.3,0.5,0.5,0.7
	c0.1,0.2,0.3,0.3,0.4,0.5c0.2,0.2,0.4,0.5,0.6,0.7c0.1,0.2,0.3,0.3,0.4,0.4c0.2,0.2,0.4,0.4,0.7,0.6c0.2,0.1,0.4,0.3,0.5,0.4
	c0.2,0.2,0.4,0.3,0.7,0.5c0.2,0.2,0.5,0.3,0.7,0.5c0.2,0.1,0.4,0.2,0.6,0.4c0.3,0.2,0.6,0.3,0.9,0.5c0.1,0.1,0.2,0.1,0.3,0.2
	l105.8,49.1c2.2,1,4.5,1.5,6.7,1.5c6,0,11.8-3.4,14.5-9.3c3.7-8,0.2-17.5-7.8-21.2L272,245.8v-146C272,90.9,264.8,83.8,256,83.8z"/>
</svg>
