<?xml version="1.0" encoding="utf-8"?>
<!-- Generator: Adobe Illustrator 19.2.0, SVG Export Plug-In . SVG Version: 6.00 Build 0)  -->
<svg version="1.1" id="Layer_1" xmlns="http://www.w3.org/2000/svg" xmlns:xlink="http://www.w3.org/1999/xlink" x="0px" y="0px"
	 viewBox="0 0 512 512" style="enable-background:new 0 0 512 512;" xml:space="preserve">
<g>
	<path d="M255.4,31.9c30.2,0,59.4,5.9,87,17.5c26.6,11.2,50.4,27.4,71,47.9c20.5,20.5,36.6,44.3,47.9,71
		c11.6,27.6,17.5,56.7,17.5,87s-5.9,59.4-17.5,87c-11.2,26.6-27.4,50.4-47.9,71c-20.5,20.5-44.3,36.6-71,47.9
		c-27.6,11.6-56.7,17.5-87,17.5s-59.4-5.9-87-17.5c-26.6-11.2-50.4-27.4-71-47.9c-20.5-20.5-36.6-44.3-47.9-71
		c-11.6-27.6-17.5-56.7-17.5-87s5.9-59.4,17.5-87c11.2-26.6,27.4-50.4,47.9-71s44.3-36.6,71-47.9C195.9,37.8,225.1,31.9,255.4,31.9
		 M255.4,0C114.3,0,0,114.3,0,255.4s114.3,255.4,255.4,255.4s255.4-114.3,255.4-255.4S396.4,0,255.4,0L255.4,0z"/>
</g>
<path d="M303.4,351.1h-8.2c-4.4,0-8-3.6-8-8v-87.7v-6.7c0-15.3-11.4-28-26.6-29.7c-2.5-0.3-4.8-0.5-6.7-0.5
	c-23.6,0-44.4,11.9-56.8,30l-0.1,0.1l0,0v-0.1l0,0c-1,2-1.7,5.2,0.7,6.5c0.6,0.3,1.2,0.5,1.8,0.5h15.9c4.4,0,8,3.6,8,8v79.8
	c0,4.4-3.6,8-8,8h-8.1c-8.7,0-15.8,7.1-15.8,15.8v0.3c0,8.7,7.1,15.8,15.8,15.8h16.1h63.9h16.1c8.7,0,15.8-7.1,15.8-15.8v-0.3
	C319.2,358.2,312.1,351.1,303.4,351.1z"/>
<path d="M255.4,127.7c-17.6,0-31.9,14.3-31.9,31.9s14.3,31.9,31.9,31.9s31.9-14.3,31.9-31.9S273,127.7,255.4,127.7z"/>
</svg>
