<svg id="f1034047-aa6a-49b3-b400-f48050e3af20" data-name="Layer 1" xmlns="http://www.w3.org/2000/svg" viewBox="0 0 449.87 375.5">
  <title>insights</title>
  <polygon points="172.16 324.39 276.15 310.18 276.15 293.87 172.16 308.07 172.16 324.39"/>
  <path d="M251.35,430c27.46,0,50.5-6.32,55.19-32.49l-97.81,12.64A55.39,55.39,0,0,0,251.35,430Z" transform="translate(-31.47 -54.5)"/>
  <polygon points="172.16 348.86 276.15 334.65 276.15 318.34 172.16 332.54 172.16 348.86"/>
  <path d="M338.14,116.94A114,114,0,0,0,256,82c-31,0-60.15,12.44-82.17,34.94A118.13,118.13,0,0,0,140,199.86a106.73,106.73,0,0,0,10.26,46.63,116.27,116.27,0,0,0,18,28.07c3.13,3.94,6.25,7.75,9.31,11.49C192.28,303.78,205,319.14,205,341.1v13.32L309.26,340l1.84-18.49c4.83-12.85,14.14-24.26,23.93-36.3,2.31-2.79,4.62-5.71,6.93-8.63a115.39,115.39,0,0,0,22.29-36.23A105.19,105.19,0,0,0,371.79,200,117.72,117.72,0,0,0,338.14,116.94ZM264.8,321.86l-16.31,2.45V254.84L230,224.05H283.5L264.8,254.84Zm80.61-89.31-.07.2a95.15,95.15,0,0,1-18.62,30.18l-.48.61c-2.31,2.92-4.69,5.85-7,8.7-9.31,11.49-19,31.4-25.15,45.2l-13,2V259.26l30.52-50.84H201.93l30.25,50.84v67.56L224.29,328c-3.94-22.36-17.67-38.95-31-55.05-3.06-3.67-6.19-7.48-9.18-11.28l-.34-.41a94,94,0,0,1-15-23.38l-.07-.2a86.11,86.11,0,0,1-8.29-37.86,98,98,0,0,1,28-68.72c18.15-18.56,42.14-28.82,67.56-28.82a93.67,93.67,0,0,1,67.49,28.75,98,98,0,0,1,28,68.72A85.51,85.51,0,0,1,345.42,232.55Z" transform="translate(-31.47 -54.5)"/>
  <rect y="149.1" width="78.91" height="19"/>
  <rect x="370.96" y="144.1" width="78.91" height="19"/>
  <rect x="69.28" y="315.72" width="78.91" height="19" transform="matrix(0.77, -0.64, 0.64, 0.77, -213.4, 88.77)"/>
  <rect x="374.07" y="77.48" width="78.91" height="19" transform="translate(7.52 228.17) rotate(-39.46)"/>
  <polygon points="101.11 47.91 89.57 63.01 26.87 15.1 38.4 0 101.11 47.91"/>
  <rect x="396.3" y="286.01" width="19" height="78.91" transform="translate(-130.66 395.83) rotate(-52.62)"/>
</svg>
