<?xml version="1.0" encoding="utf-8"?>
<!-- Generator: Adobe Illustrator 19.1.0, SVG Export Plug-In . SVG Version: 6.00 Build 0)  -->
<svg version="1.1" id="Layer_1" xmlns="http://www.w3.org/2000/svg" xmlns:xlink="http://www.w3.org/1999/xlink" x="0px" y="0px"
	 viewBox="0 0 512 512" style="enable-background:new 0 0 512 512;" xml:space="preserve">
<path d="M66.9,439.2c18.4,20.6,53.7,20.7,94.6,0.2c33.6-16.7,61.8-12.5,68.6-3.1c6.4,8.9-6,28.2-21.1,43.2c-6.5,6.5-6.5,17.1,0,23.6
	c3.1,3.3,7.4,5,11.7,5c4.2,0,8.6-1.7,11.8-4.9c15.5-15.5,25.6-30.6,30-44.9c4.7-15.4,2.8-30.1-5.4-41.5c-9.6-13.4-26.8-21.2-48.3-22
	c-19.6-0.7-41.7,4.5-62.2,14.8c-18.9,9.4-31.9,11.6-39.6,11.7c-7.1,0.1-12.6-1.5-15.3-4.3c-3.8-4.2-3.3-15.2,6.3-30
	c28.4-43.9,113.7-113.5,114.6-114.2c0.5-0.4,0.9-0.8,1.4-1.3c30.7,25.2,68.2,37.9,105.7,37.9c35.2,0,70.5-11.1,100.2-33.6
	c10-7.6,11-22.3,2.1-31.3l-31.5-31.4l62.8-62.8c2.5-2.5,3.8-5.7,3.8-9.3c0-3.4-1.4-6.8-3.8-9.3l-5.9-5.9c-2.5-2.5-5.7-3.8-9.3-3.8
	c-3.4,0-6.8,1.4-9.3,3.8l-62.8,62.8L272.5,95l62.8-62.8c2.5-2.5,3.8-5.7,3.8-9.3c0-3.5-1.4-6.8-3.8-9.3l-5.9-5.9
	c-2.5-2.5-5.7-3.8-9.3-3.8c-3.4,0-6.8,1.4-9.3,3.8L248,70.6L217.4,40c-4-4-9.4-6.1-14.8-6.1c-6.2,0-12.4,2.8-16.5,8.2
	c-46.2,61.2-44.5,146.3,4.3,205.8c-11.3,9.3-90.6,75-120.3,120.9C52.6,395.6,51.4,422,66.9,439.2z M225.2,236.7
	c-22.9-22.9-36.8-53.3-39-85.4c-1.9-27.1,4.6-53.8,18.3-76.9l183,183c-20.5,12.2-43.6,18.6-67.8,18.6
	C284.1,275.9,250.5,262,225.2,236.7z"/>
<path d="M263.4,174.9c13.8,0,25.1,11.3,25.1,25.1c0,13.8-11.3,25.1-25.1,25.1c-13.8,0-25.1-11.3-25.1-25.1
	C238.3,186.2,249.6,174.9,263.4,174.9z"/>
</svg>
