<?xml version="1.0" encoding="utf-8"?>
<!-- Generator: Adobe Illustrator 19.2.0, SVG Export Plug-In . SVG Version: 6.00 Build 0)  -->
<svg version="1.1" id="Layer_1" xmlns="http://www.w3.org/2000/svg" xmlns:xlink="http://www.w3.org/1999/xlink" x="0px" y="0px"
	 viewBox="0 0 512 512" style="enable-background:new 0 0 512 512;" xml:space="preserve">
<path class="st0" d="M448,0H64C28.8,0,0,28.8,0,64v384c0,35.2,28.8,64,64,64h384c35.2,0,64-28.8,64-64V64C512,28.8,483.2,0,448,0z
	 M208,32h96v128l-48-32l-48,32V32z M480,448c0,17.6-14.4,32-32,32H64c-17.6,0-32-14.4-32-32V64c0-17.6,14.4-32,32-32h112v176l80-48
	l80,48V32h112c17.6,0,32,14.4,32,32V448z M352,268.8c6.4,6.4,4.8,16-1.6,22.4L224,404.8c-3.2,3.2-6.4,4.8-11.2,4.8h-1.6
	c-4.8,0-8-3.2-11.2-6.4l-41.6-56c-4.8-6.4-3.2-17.6,3.2-22.4s17.6-3.2,22.4,3.2l32,43.2l113.6-100.8
	C336,262.4,347.2,262.4,352,268.8z"/>
</svg>
