<?xml version="1.0" encoding="utf-8"?>
<!-- Generator: Adobe Illustrator 19.2.0, SVG Export Plug-In . SVG Version: 6.00 Build 0)  -->
<svg version="1.1" id="Layer_1" xmlns="http://www.w3.org/2000/svg" xmlns:xlink="http://www.w3.org/1999/xlink" x="0px" y="0px"
	 viewBox="0 0 512 512" style="enable-background:new 0 0 512 512;" xml:space="preserve">
<g>
	<path d="M352,256.1H160c-8.7,0-15.8,7.1-15.8,15.8v0.3c0,8.7,7.1,15.8,15.8,15.8h192c8.7,0,15.8-7.1,15.8-15.8v-0.3
		C367.8,263.2,360.7,256.1,352,256.1z"/>
	<path d="M352,352H160c-8.7,0-15.8,7.1-15.8,15.8v0.3c0,8.7,7.1,15.8,15.8,15.8h192c8.7,0,15.8-7.1,15.8-15.8v-0.3
		C367.8,359.1,360.7,352,352,352z"/>
	<path d="M442.9,132.3c-0.2-0.2-0.4-0.4-0.6-0.7l-126-126c-0.2-0.2-0.4-0.4-0.7-0.6c-2.9-3-7-5-11.6-5H96C78.3,0,64,14.3,64,32v448
		c0,17.7,14.3,32,32,32h320c17.7,0,32-14.3,32-32V144C448,139.4,446,135.3,442.9,132.3z M320,54.6l73.4,73.4H336
		c-8.8,0-16-7.2-16-16V54.6z M416,464c0,8.8-7.2,16-16,16H112c-8.8,0-16-7.2-16-16V48c0-8.8,7.2-16,16-16h168c4.4,0,8,3.6,8,8v88
		c0,17.7,14.3,32,32,32h88c4.4,0,8,3.6,8,8V464z"/>
</g>
</svg>
