<svg id="003a44fc-e18c-46db-a968-0b687ad4d692" data-name="3dedf0a9-b648-4d44-a181-ea852f66f717" xmlns="http://www.w3.org/2000/svg" viewBox="0 0 62.98 84">
  <path d="M40.71,14.19c-2,3.17-5.36,5.88-8.34,8.27C29.12,25.07,26,27.53,26,29.71c-.17,6.23,4.36,14.93,4.41,15a.68.68,0,0,1-.17.84.72.72,0,0,1-.88,0c-.54-.41-13.15-10.15-9-19.08,2.39-5.12,6.84-8.22,10.76-11,2.74-1.9,5.1-3.54,6.18-5.47A14.52,14.52,0,0,0,38.93.83a.68.68,0,0,1,.4-.77.7.7,0,0,1,.85.23C40.23.36,45,7.22,40.71,14.19Z" transform="translate(0 0)" />
  <path d="M37.8,27.8c-1.5,2.7-.51,4.16.86,6.17A13,13,0,0,1,41,38.77c1.13,5.32-5.18,9.73-5.45,9.92a.71.71,0,0,1-.39.12.68.68,0,0,1-.63-1c.49-1,1.66-3.87,1.17-5.47a7.5,7.5,0,0,0-1.32-2,13.67,13.67,0,0,1-3.72-9.52c0-7.21,15.66-13.18,16.33-13.44a.71.71,0,0,1,.86.32.7.7,0,0,1-.19.88C47.54,18.7,39.56,24.66,37.8,27.8Z" transform="translate(0 0)" />
  <path d="M48.52,49.5c-.23.19-5.69,4.73-20.44,5.26-1.35,0-2.67.07-3.92.07-9.22,0-15.24-1.29-16.94-3.62a2.43,2.43,0,0,1-.36-2.28C8,45.55,18.81,45.38,21,45.38a.7.7,0,0,1,.7.62.69.69,0,0,1-.56.74c-3.68.72-6.65,1.89-7.13,2.54.94.4,4.77.93,12.29.93,6.73,0,16.43-.49,21.62-1.9a.71.71,0,0,1,.8.34A.69.69,0,0,1,48.52,49.5Z" transform="translate(0 0)" />
  <path d="M49.42,61.94h-.14a.7.7,0,0,1-.65-.42.68.68,0,0,1,.26-.84c2.59-1.69,9.18-6.76,8.66-9.89-.58-3.63-7-3.68-7.07-3.68a.7.7,0,0,1-.67-.52.68.68,0,0,1,.35-.78,14.7,14.7,0,0,1,6-1.57c2.55,0,5.77,1.07,6.7,6.14C64.42,58.67,50,61.81,49.42,61.94Z" transform="translate(0 0)" />
  <path d="M46.34,59.68a.67.67,0,0,1-.52.54c-.11,0-11,2.66-19.44,2.66h0A22.1,22.1,0,0,1,24,62.8c-5.1-.34-11.13-1.67-11.34-4.24-.13-1.45,1.57-2.6,5-3.43a.68.68,0,0,1,.82.47.67.67,0,0,1-.42.84,1.79,1.79,0,0,0-.89.67.25.25,0,0,0,0,.21c.5.45,3.93,1.06,9.16,1.06A62.5,62.5,0,0,0,33.15,58,68,68,0,0,0,42,56.5a.72.72,0,0,1,.57.1L46,59A.68.68,0,0,1,46.34,59.68Z" transform="translate(0 0)" />
  <path d="M45,68.65a.7.7,0,0,1-.4.58A36.69,36.69,0,0,1,30.22,72c-.8,0-1.6,0-2.38-.07-6.66-.38-10.61-1.4-12.07-3.11a2.6,2.6,0,0,1-.66-2.08c.28-2.57,4.36-2.75,4.82-2.76a.7.7,0,0,1,.68.48.67.67,0,0,1-.28.78.28.28,0,0,0-.13.28c.89.44,5.53,1.12,9.71,1.12a23.91,23.91,0,0,0,2.94-.16c4.17-.56,6.94-1.13,7-1.14a.73.73,0,0,1,.5.09L44.68,68A.7.7,0,0,1,45,68.65Z" transform="translate(0 0)" />
  <path d="M58.07,74.3c-2,2.15-12.41,5.56-31.8,5.57C6.52,79.87,2.27,77.69.79,76A2.83,2.83,0,0,1,0,73.76C.36,71,6.69,70.23,12.16,69.9l.78-.05a.69.69,0,0,1,.78.57.7.7,0,0,1-.57.79c-3.32.57-6.44,1.58-6.88,2.22,1.16,1,10,2.58,22,2.58,2,0,3.91,0,5.75-.14,13.46-.68,21.54-2.93,22.34-3.67.36-.35.29-.61.17-.77a.66.66,0,0,1,0-.89.7.7,0,0,1,.91-.12,3,3,0,0,1,1.33,1.94A2.34,2.34,0,0,1,58.07,74.3Z" transform="translate(0 0)" />
  <path d="M62.28,75.61c0,.21-.74,5.2-10.92,7A101.61,101.61,0,0,1,34.18,84a104.74,104.74,0,0,1-21.53-2.12.7.7,0,0,1-.53-.77.68.68,0,0,1,.72-.59c.08,0,8.72.36,17.81.36s15.36-.34,18.72-1c8.76-1.77,11.68-4.78,11.7-4.81a.72.72,0,0,1,.81-.16A.71.71,0,0,1,62.28,75.61Z" transform="translate(0 0)" />
</svg>
