<?xml version="1.0" encoding="utf-8"?>
<!-- Generator: Adobe Illustrator 19.2.0, SVG Export Plug-In . SVG Version: 6.00 Build 0)  -->
<svg version="1.1" id="Layer_1" xmlns="http://www.w3.org/2000/svg" xmlns:xlink="http://www.w3.org/1999/xlink" x="0px" y="0px"
	 viewBox="0 0 512 512" style="enable-background:new 0 0 512 512;" xml:space="preserve">
<g>
	<path d="M320.5,107.5h-140c-6.6,0-12,5.4-12,12v12c0,6.6,5.4,12,12,12h140c6.6,0,12-5.4,12-12v-12
		C332.5,112.9,327.1,107.5,320.5,107.5z"/>
	<path d="M320.5,184.5h-140c-6.6,0-12,5.4-12,12v12c0,6.6,5.4,12,12,12h140c6.6,0,12-5.4,12-12v-12
		C332.5,189.9,327.1,184.5,320.5,184.5z"/>
	<path d="M180.5,296.5h140c6.6,0,12-5.4,12-12v-11c0-6.6-5.4-12-12-12h-140c-6.6,0-12,5.4-12,12v11
		C168.5,291.1,173.9,296.5,180.5,296.5z"/>
	<path d="M58.5,46.5h313c6.6,0,12,5.4,12,12v172.4l47-45.4v-173c0-6.6-5.4-12-12-12h-407c-6.6,0-12,5.4-12,12v462
		c0,6.6,5.4,12,12,12h175l9.6-46H58.5c-6.6,0-12-5.4-12-12v-370C46.5,51.9,51.9,46.5,58.5,46.5z"/>
	<path d="M432.6,226.3l-21.2,20.9c-4.8,4.7-4.8,12.4,0,17.1l53.9,53.2c4.7,4.6,12.2,4.6,16.9,0l21.2-20.9c4.8-4.7,4.8-12.4,0-17.1
		l-53.9-53.2C444.7,221.6,437.2,221.6,432.6,226.3z"/>
	<ellipse cx="116.5" cy="127.1" rx="20.8" ry="20.5"/>
	<path d="M230.4,425.7L212.5,512l89-16.2l141.9-140.1c4.8-4.7,4.8-12.4,0-17.1l-53.9-53.2c-4.7-4.6-12.2-4.6-16.9,0L230.4,425.7z"/>
	<ellipse cx="116.5" cy="280.3" rx="20.8" ry="20.5"/>
	<ellipse cx="116.5" cy="204" rx="20.8" ry="20.5"/>
</g>
</svg>
