<?xml version="1.0" encoding="utf-8"?>
<!-- Generator: Adobe Illustrator 21.0.2, SVG Export Plug-In . SVG Version: 6.00 Build 0)  -->
<svg version="1.1" id="Layer_1" xmlns="http://www.w3.org/2000/svg" xmlns:xlink="http://www.w3.org/1999/xlink" x="0px" y="0px"
	 viewBox="0 0 512 512" enable-background="new 0 0 512 512" xml:space="preserve">
<path fill="#161616" d="M496.5,96h-481c-8.8,0-16,7.2-16,16v288c0,8.8,7.2,16,16,16h481c8.8,0,16-7.2,16-16V112
	C512.5,103.2,505.3,96,496.5,96z M476.5,384h-441c-2.2,0-4-1.8-4-4V132c0-2.2,1.8-4,4-4h441c2.2,0,4,1.8,4,4v248
	C480.5,382.2,478.7,384,476.5,384z"/>
<path fill="#161616" d="M96.5,278v40c0,1.1,0.9,2,2,2h60c1.1,0,2-0.9,2-2v-40c0-1.1-0.9-2-2-2h-60C97.4,276,96.5,276.9,96.5,278z"/>
<path fill="#161616" d="M73.5,236h60c1.1,0,2-0.9,2-2v-40c0-1.1-0.9-2-2-2h-60c-1.1,0-2,0.9-2,2v40C71.5,235.1,72.4,236,73.5,236z"
	/>
<path fill="#161616" d="M173.5,236h60c1.1,0,2-0.9,2-2v-40c0-1.1-0.9-2-2-2h-60c-1.1,0-2,0.9-2,2v40
	C171.5,235.1,172.4,236,173.5,236z"/>
<path fill="#161616" d="M277.5,236h60c1.1,0,2-0.9,2-2v-40c0-1.1-0.9-2-2-2h-60c-1.1,0-2,0.9-2,2v40
	C275.5,235.1,276.4,236,277.5,236z"/>
<path fill="#161616" d="M377.5,236h60c1.1,0,2-0.9,2-2v-40c0-1.1-0.9-2-2-2h-60c-1.1,0-2,0.9-2,2v40
	C375.5,235.1,376.4,236,377.5,236z"/>
<path fill="#161616" d="M354.5,320h60c1.1,0,2-0.9,2-2v-40c0-1.1-0.9-2-2-2h-60c-1.1,0-2,0.9-2,2v40
	C352.5,319.1,353.4,320,354.5,320z"/>
<path fill="#161616" d="M317.5,276h-124c-1.1,0-2,0.9-1,2v40c-1,1.1-0.1,2,1,2h124c1.1,0,2-0.9,2-2v-40
	C319.5,276.9,318.6,276,317.5,276z"/>
</svg>
