<svg xmlns="http://www.w3.org/2000/svg" viewBox="0 0 512 512">
  <path d="M449.7 105.1c-.6-1.2-1.4-2.3-2.3-3.3L348.5 3.7c-.2-.2-.4-.3-.7-.5L344.6 0H120.3C88.1 0 62 26.2 62 58.3v395.3c0 32.2 26.2 58.3 58.3 58.3h272.4c32.2 0 58.3-26.2 58.3-58.3V106.5l-1.3-1.4zm-97.5-61.7l54.7 54.7h-54.7V43.4zm73.6 410.3c0 18.2-14.8 33-33 33H120.3c-18.2 0-33-14.8-33-33V58.3c0-18.2 14.8-33 33-33h206.6v85.5c0 7 5.7 12.7 12.7 12.7h86.2v330.2z"/>
  <path d="M237.9 302.4c-.2-.5-.6-1-.9-1.4-.1-.2-.2-.4-.4-.6-.6-.6-1.3-1-2-1.4-.8-.3-1.6-.5-2.4-.5h-83.6c-3.5 0-6.3 2.8-6.3 6.3v82.5c0 .2.1.3.1.5 0 .7.1 1.3.4 1.9.2.5.6 1 .9 1.4.1.2.2.4.4.6.6.6 1.3 1.1 2.1 1.4.8.3 1.6.5 2.4.5h83.6c.8 0 1.6-.2 2.4-.5.5-.2.9-.5 1.3-.8.2-.2.5-.3.7-.5.6-.6 1.1-1.4 1.4-2.3.3-.7.4-1.4.4-2.2v-82.5c0-.2-.1-.3-.1-.5-.1-.6-.1-1.3-.4-1.9zm-21.3 8.7l-25.4 25.1-24.4-25.1h49.8zm-61.8 5.9l27.4 28.2-27.4 27.1V317zm9.1 64l27.1-26.8 26 26.8h-53.1zm61.8-9.2L200 345.3l25.7-25.4v51.9zM152.9 147.2c-.5.1-.9.1-1.3.3-.4.2-.7.4-1.1.6-.3.2-.7.4-.9.6-.4.3-.6.7-.9 1.2-.2.2-.4.4-.5.7v.1c-.2.4-.2.8-.3 1.3-.1.4-.2.8-.2 1.2v102.4c0 3.5 2.8 6.3 6.3 6.3h210.8c1.1 0 2.1-.4 3-.8.2-.1.4-.3.7-.4.7-.5 1.4-1.2 1.8-2l.3-.3v-.2c.2-.4.2-.8.3-1.2.1-.4.2-.8.3-1.3V153.4v-.1c0-.4-.2-.8-.2-1.2-.1-.4-.1-.9-.3-1.3v-.1c-.1-.3-.3-.4-.5-.7-.3-.4-.5-.9-.9-1.3-.3-.3-.6-.4-.9-.6-.4-.3-.7-.5-1.2-.7-.4-.2-.8-.2-1.2-.2-.4-.1-.7-.2-1.1-.2H153.8c-.4.1-.6.2-.9.2zm20.7 102.1l83.4-38.8 80.1 38.8H173.6zm184.7-3.8l-86.5-41.9 86.5-40.3v82.2zM336 159.7l-78.9 36.7-75.8-36.7H336zm-175.9 3.8l82.2 39.8-82.2 38.3v-78.1zM364.6 374.5H256c-3.5 0-6.3 2.8-6.3 6.3s2.8 6.3 6.3 6.3h108.6c3.5 0 6.3-2.8 6.3-6.3s-2.8-6.3-6.3-6.3zM364.6 336.5H256c-3.5 0-6.3 2.8-6.3 6.3s2.8 6.3 6.3 6.3h108.6c3.5 0 6.3-2.8 6.3-6.3s-2.8-6.3-6.3-6.3zM364.6 298.5H256c-3.5 0-6.3 2.8-6.3 6.3s2.8 6.3 6.3 6.3h108.6c3.5 0 6.3-2.8 6.3-6.3s-2.8-6.3-6.3-6.3z"/>
</svg>
