<svg id="6d44b1af-a1fc-4254-a9d7-3f3d6e6b59c9" data-name="Layer 1" xmlns="http://www.w3.org/2000/svg" viewBox="0 0 701.97 818.81"><title>Learn-More</title><path d="M0,768.7V52.7c.4-1.2.8-2.5,1.2-3.8,2.9-9.7,8.6-17.4,16.5-23.6C31.8,14,48.5,8.2,65.9,5.2,80,2.7,94.5,2.1,108.8.6c4,0,7.9.1,11.9.1H581.3c2.3,0,4.7-.1,7-.1,14.9,2,26.3,9.8,35.9,20.8,9.5,10.8,17.4,22.4,19.2,37.5h-5q-249.9,0-499.8.1c-14.5,0-29.1.4-43.6,1.4-10,.7-19.6,3.5-27.7,9.9-12,9.5-12.6,26,1,34.9a59.07,59.07,0,0,0,16.4,7.4c7.5,2.1,15.4,4.1,23.2,4.3,21.2.6,42.3.3,63.5.3h4.2V526l.8.4L293.5,409.5,409.6,526V117.4h4.5q111.45,0,222.9.1a135.2,135.2,0,0,1,19.1,1.3c15,2.3,27.1,9.5,35.4,22.5a66.05,66.05,0,0,1,10.3,36.4q.3,291.3.1,582.6a62.38,62.38,0,0,1-4.1,22.2,58,58,0,0,1-53.6,36.9H57.7a51.69,51.69,0,0,1-18.3-3C23.6,810.5,11.7,800.2,5,784.6,2.9,779.4,1.6,774,0,768.7Z" transform="translate(0 -0.6)"/></svg>