<svg xmlns="http://www.w3.org/2000/svg" viewBox="0 0 512 512"><path d="M162.7 143.8h287.9c9 0 16.4-7.3 16.4-16.4s-7.3-16.4-16.4-16.4H162.7c-9 0-16.4 7.3-16.4 16.4s7.4 16.4 16.4 16.4zm-92.8-40.3c-13.7 0-24.9 11.2-24.9 24.9s11.2 24.9 24.9 24.9 24.9-11.2 24.9-24.9-11.2-24.9-24.9-24.9zm380.7 135.3H162.7c-9 0-16.4 7.3-16.4 16.4 0 9 7.3 16.4 16.4 16.4h287.9c9 0 16.4-7.3 16.4-16.4 0-9.1-7.3-16.4-16.4-16.4zm-380.7-7.7C56.2 231.1 45 242.3 45 256s11.2 24.9 24.9 24.9 24.9-11.2 24.9-24.9c-.1-13.7-11.2-24.9-24.9-24.9zm380.7 135.3H162.7c-9 0-16.4 7.3-16.4 16.4 0 9 7.3 16.4 16.4 16.4h287.9c9 0 16.4-7.3 16.4-16.4 0-9.1-7.3-16.4-16.4-16.4zm-380.7-7.6C56.2 358.8 45 370 45 383.7s11.2 24.9 24.9 24.9 24.9-11.2 24.9-24.9c-.1-13.8-11.2-24.9-24.9-24.9z"/></svg>