<svg xmlns="http://www.w3.org/2000/svg" viewBox="0 0 512 512"><path class="st0" d="M256.2 511.1s-.1 0 0 0c-4.8 0-9.3-2.1-12.3-5.8-5.7-6.9-11.6-13.7-17.2-20.2-7.8-9.1-15.9-18.5-23.7-28.1-40.6-50.2-71.2-93.5-96.3-136-12.2-20.7-23.2-42.9-32.6-65.7-16.5-40.6-16.5-82.5 0-124.5 28-71.2 81.2-115 153.8-126.7l2.3-.4c8.2-1.4 16-2.6 25-2.6 89.9 0 172.1 67.1 191.2 156.2 8 37.6 3.3 74.9-14.6 114-14 30.7-32.3 62.4-57.8 99.7-29.1 42.5-62 84.8-100.5 129.2-1.1 1.3-2 2.2-2.9 3.1-.8.8-1.4 1.4-2.2 2.3-3.1 3.4-7.5 5.5-12.2 5.5zm-.9-478.2c-6.4 0-12.6 1-19.8 2.2l-2.3.4C171.5 45.4 128 81.3 104 142.3c-13.4 34.2-13.5 68.1-.2 100.7 8.8 21.4 19.1 42.2 30.5 61.6 24.3 41.2 54.1 83.2 93.6 132.2 7.4 9.2 15 18 23 27.4 1.8 2.1 3.7 4.3 5.6 6.5 34.7-40.5 64.5-79.2 91.1-118 24.4-35.7 41.9-65.8 55.1-94.9 14.9-32.6 19-63.4 12.5-94-16-74.6-84.8-130.9-159.9-130.9zm.9 255.6c-28.3-.1-54.6-11.1-74.4-30.8-19.7-19.8-30.7-46.3-30.8-74.6-.1-27.8 10.8-54.1 30.7-74 19.9-20 46.3-30.9 74.3-30.9h.2c57.9.1 105.1 47.2 105.2 105.1.1 28.1-10.9 54.6-30.8 74.4-19.8 19.8-46.2 30.8-74.4 30.8zm-.2-178.3c-19.4 0-37.7 7.6-51.6 21.5-13.8 13.8-21.4 32.1-21.3 51.3.2 41.1 32.3 73.4 73.2 73.5 19.6 0 38-7.7 51.8-21.5 13.8-13.8 21.4-32.2 21.4-51.7-.1-40.2-33-73-73.3-73.1h-.2z"/></svg>