<?xml version="1.0" encoding="utf-8"?>
<!-- Generator: Adobe Illustrator 19.2.0, SVG Export Plug-In . SVG Version: 6.00 Build 0)  -->
<svg version="1.1" id="Layer_2_2_" xmlns="http://www.w3.org/2000/svg" xmlns:xlink="http://www.w3.org/1999/xlink" x="0px" y="0px"
	 viewBox="0 0 512 512" style="enable-background:new 0 0 512 512;" xml:space="preserve">
<g>
	<path d="M197.8,436.3c0,0-38.4-10.7-42.7-25.5c-4.3-14.8,12.8-42.2,12.8-42.2s25.6-25.3,8.5-38c0,0,17.1-67.5-51.2-67.5
		c-68.6,0-51.4,67.5-51.4,67.5c-17.1,12.7,8.6,38,8.6,38s17.1,27.4,12.9,42.2c-4.3,14.8-42.8,25.6-42.8,25.6
		c-60,4.2-51.4,76.2-51.4,76.2H249C249,512.5,257.6,440.5,197.8,436.3z"/>
	<path d="M349.6,0c-89.4,0-161.9,72.5-161.9,161.9c0,89.4,70.8,193.3,161.9,349.1c91-155.9,161.9-259.7,161.9-349.1
		C511.5,72.5,439,0,349.6,0z M349.6,216c-32.1,0-58-26-58-58c0-32.1,26-58,58-58c32.1,0,58,26,58,58C407.7,190,381.7,216,349.6,216z
		"/>
</g>
</svg>
