<?xml version="1.0" encoding="utf-8"?>
<!-- Generator: Adobe Illustrator 19.1.0, SVG Export Plug-In . SVG Version: 6.00 Build 0)  -->
<svg version="1.1" id="Layer_1" xmlns="http://www.w3.org/2000/svg" xmlns:xlink="http://www.w3.org/1999/xlink" x="0px" y="0px"
	 viewBox="0 0 512 512" enable-background="new 0 0 512 512" xml:space="preserve">
<rect x="95.9" y="96.3" width="179" height="32"/>
<rect x="95.8" y="192.3" transform="matrix(-1 -3.219337e-04 3.219337e-04 -1 303.8543 416.5724)" width="112.2" height="32"/>
<polygon points="63.7,32.3 368.4,32.4 368.4,224 400.4,224 400.4,0.4 31.7,0.3 31.6,512.3 127.9,512.3 127.9,480.3 63.6,480.3 "/>
<path d="M160,272v240h352V272H160z M192,480V316.4l144,87.3l144-87.3V480H192z M439.2,304l-102.9,62.3L233.4,304H439.2z"/>
</svg>
