<?xml version="1.0" encoding="utf-8"?>
<!-- Generator: Adobe Illustrator 19.2.0, SVG Export Plug-In . SVG Version: 6.00 Build 0)  -->
<svg version="1.1" id="Layer_1" xmlns="http://www.w3.org/2000/svg" xmlns:xlink="http://www.w3.org/1999/xlink" x="0px" y="0px"
	 viewBox="0 0 512 512" style="enable-background:new 0 0 512 512;" xml:space="preserve">
<path d="M480.1,125.6H31.8c-17.5,0-31.7,14.2-31.7,31.7v320.6c0,17.5,14.2,31.7,31.7,31.7h448.6c17.5,0,31.7-14.2,31.7-31.7V157.3
	c0-17.5-14.2-31.7-31.7-31.7L480.1,125.6L480.1,125.6z M464.1,477.6h-416c-8.8,0-16-7.2-16-16v-288c0-8.8,7.2-16,16-16h416
	c8.8,0,16,7.2,16,16v288C480.1,470.4,472.9,477.6,464.1,477.6z"/>
<path d="M256.1,339.2c-7.4,0-14.5-2.2-20.5-6.3L67.2,220.7c-5.1-3.3-8.1-8.9-8.1-15.1v-0.3c0-10,8.2-18.2,18.2-18.2
	c3.5,0,7,1.1,10,3l153.9,102.5c4.4,3,9.6,4.6,15,4.6c5.4,0,10.5-1.6,15-4.5L425,190.1c3-2,6.5-3.1,10-3.1c10.1,0,18.2,8.2,18.2,18.2
	v0.3c0,6.1-3.1,11.9-8.2,15.2L276.7,333C270.6,337,263.5,339.2,256.1,339.2z"/>
</svg>
