<svg id="b745c11d-8260-463f-8e7c-9fe47e632ee1" data-name="5549c922-2c72-4de9-b2d2-27f27946c7fb" xmlns="http://www.w3.org/2000/svg" viewBox="0 0 81 79">
  <polygon points="81 0 81 55.71 63.79 55.71 63.79 50.71 76 50.71 76 6.23 63.78 14.18 54.61 14.18 68.72 5 12.28 5 26.4 14.18 17.22 14.18 5 6.23 5 50.71 17.21 50.71 17.21 55.71 0 55.71 0 0 81 0" />
  <path d="M25.32,18.23V48.61H55.69V18.23ZM40.51,40a1.87,1.87,0,1,1,1.86-1.87A1.87,1.87,0,0,1,40.51,40Zm11.3-6H29.19V30.69H51.81Zm0-6.14H29.19V24.54H51.81Z" />
  <rect x="25.32" y="51.65" width="30.37" height="27.35" />
</svg>
