<svg id="2618c349-9bc2-43ce-8790-d3a039049dee" data-name="Layer 1" xmlns="http://www.w3.org/2000/svg" viewBox="0 0 92.5 79.95">
  <title>manage</title>
  <path d="M59.18,89.65,59,88.17l-.38-4.52-.11-1.39a20,20,0,0,1-5.75-2.42l-1.06.91L48.3,83.68l-1.15,1A2.28,2.28,0,0,1,44,84.52l-2.73-2.75a2.34,2.34,0,0,1-.13-3.15l1-1.16L45,74l.9-1.07a20.51,20.51,0,0,1-2.39-5.81L42.17,67l-4.5-.38-1.47-.13a2.31,2.31,0,0,1-2.1-2.32V60.19a2.31,2.31,0,0,1,2.1-2.32l1.47-.13,4.45-.37,1.38-.12a20.51,20.51,0,0,1,2.39-5.81L45,50.37l-2.91-3.49-1-1.16a2.34,2.34,0,0,1,.13-3.15L44,39.82a2.28,2.28,0,0,1,3.12-.13l1.15,1,3.45,2.94,1.06.91a20,20,0,0,1,5.75-2.42l.11-1.39L59,36.14l.13-1.49a2.31,2.31,0,0,1,2.3-2.13h3.86a2.31,2.31,0,0,1,2.3,2.13l.13,1.49.38,4.54.11,1.39A20,20,0,0,1,74,44.5L75,43.59l3.45-2.94,1.15-1a2.28,2.28,0,0,1,3.12.13l1.93,1.91.83.84a2.34,2.34,0,0,1,.13,3.15l-.94,1.16-2.91,3.49-.9,1.07a20.51,20.51,0,0,1,2.39,5.81l1,.09h.4l4.5.38,1.47.13a2.31,2.31,0,0,1,2.1,2.32v3.91a2.31,2.31,0,0,1-2.1,2.32l-1.47.13-4.5.4L83.29,67a20.51,20.51,0,0,1-2.39,5.81l.9,1.07L84.7,77.4l1,1.16a2.34,2.34,0,0,1-.13,3.15L82.8,84.47a2.28,2.28,0,0,1-3.12.13l-1.15-1-3.45-2.94L74,79.79a20,20,0,0,1-5.75,2.42l-.11,1.39-.38,4.54-.13,1.49a2.31,2.31,0,0,1-2.3,2.13h-3.9A2.31,2.31,0,0,1,59.18,89.65ZM70.44,69.27a10.15,10.15,0,0,0,0-14.25,9.89,9.89,0,0,0-14.1,0,10.15,10.15,0,0,0,0,14.25,9.89,9.89,0,0,0,14.1,0Z" transform="translate(-0.24 -11.81)"/>
  <path d="M19.27,55.15,19.17,54l-.29-3.43-.09-1.06a15.21,15.21,0,0,1-4.36-1.83l-.8.69L11,50.62l-.87.73a1.73,1.73,0,0,1-2.36-.1L5.71,49.16a1.78,1.78,0,0,1-.1-2.39l.72-.88,2.21-2.65.68-.81A15.56,15.56,0,0,1,7.41,38l-1-.09L3,37.65l-1.12-.1a1.76,1.76,0,0,1-1.6-1.76v-3A1.76,1.76,0,0,1,1.84,31L3,30.94l3.38-.28,1-.09a15.56,15.56,0,0,1,1.81-4.41l-.68-.81L6.3,22.7l-.72-.88a1.78,1.78,0,0,1,.1-2.39l2.07-2.09a1.73,1.73,0,0,1,2.36-.1L11,18l2.62,2.23.8.69a15.21,15.21,0,0,1,4.36-1.83L18.85,18l.29-3.45.1-1.13A1.75,1.75,0,0,1,21,11.81h2.93a1.75,1.75,0,0,1,1.74,1.61l.1,1.13L26,18l.09,1.06a15.21,15.21,0,0,1,4.36,1.83l.8-.69L33.9,18l.87-.73a1.73,1.73,0,0,1,2.36.1l1.47,1.45.63.63a1.78,1.78,0,0,1,.1,2.39l-.72.88-2.21,2.65-.68.81a15.56,15.56,0,0,1,1.81,4.41l.76.07h.31l3.41.29,1.12.1a1.76,1.76,0,0,1,1.6,1.76v3a1.76,1.76,0,0,1-1.6,1.76L42,37.6l-3.41.3-1,.09a15.56,15.56,0,0,1-1.81,4.41l.68.81,2.21,2.65.72.88a1.78,1.78,0,0,1-.1,2.39l-2.07,2.09a1.73,1.73,0,0,1-2.36.1L34,50.58l-2.62-2.23-.8-.69a15.21,15.21,0,0,1-4.36,1.83l-.09,1.06L25.8,54l-.1,1.13A1.75,1.75,0,0,1,24,56.75H21A1.75,1.75,0,0,1,19.27,55.15Zm8.55-15.47a7.7,7.7,0,0,0,0-10.81,7.51,7.51,0,0,0-10.7,0,7.7,7.7,0,0,0,0,10.81,7.51,7.51,0,0,0,10.7,0Z" transform="translate(-0.24 -11.81)"/>
</svg>
