<svg width="512" height="512" viewBox="0 0 512 512" xmlns="http://www.w3.org/2000/svg"><title>manual shipment</title><g fill-rule="evenodd"><path d="M91 21.712C91 15.238 96.196 10 102.573 10H489.72c6.385 0 11.573 5.228 11.573 11.703V408.59c0 6.47-5.194 11.703-11.571 11.703h-175.2a5 5 0 1 0 0 10h175.2c11.917 0 21.571-9.727 21.571-21.703V21.703C511.293 9.722 501.645 0 489.72 0H102.573C90.655 0 81 9.733 81 21.712V300a5 5 0 1 0 10 0V21.712z"/><path d="M237 135.208c0 3.84 4.147 6.246 7.48 4.342l55.207-31.986 55.207 31.986c3.333 1.904 7.48-.502 7.48-4.342V5a5 5 0 0 0-5-5H242a5 5 0 0 0-5 5v130.208zM247 10h105.375v116.564l-50.207-28.66a5 5 0 0 0-4.961 0L247 126.563V10zM54.912 347.215h37.06a4.633 4.633 0 0 1 4.643 4.626l.927 107.352c0 2.552-2.08 4.626-4.643 4.626H55.84c-2.566 0-4.643-2.072-4.643-4.626l-.927-107.352c0-2.552 2.08-4.626 4.643-4.626zM41 459.193c0 7.668 6.23 13.88 13.912 13.88h37.06c7.68 0 13.913-6.214 13.913-13.88V351.841c0-7.668-6.23-13.88-13.912-13.88h-37.06c-7.68 0-13.913 6.214-13.913 13.88v107.352zm105.317-113.402c1.14-.142 1.98-.317 2.675-.577.63-.306 1.012-.482 1.498-.733.746-.386 1.56-.86 2.426-1.43 2.417-1.59 4.814-3.642 7.042-6.206.157-.181.313-.364.468-.55 1.338-1.603 2.525-3.445 3.584-5.482 1.179-2.265 2.144-4.657 2.923-7.045.469-1.44.778-2.58.939-3.285.112-.318.217-.658.336-1.04a1168.64 1168.64 0 0 1 4.654-14.62c.172-.528.343-1.047.51-1.556 1.986-6.022 3.543-10.448 4.438-12.532 1.692-3.942 2.657-6.952 4.082-9.226 3.916-6.247 8.567-9.255 15.728-9.255 4.962 0 7.376 2.652 8.405 6.073.84 2.795.72 6.365.057 9.678-.326 1.629-2.073 7.514-4.684 15.874l-.256.819a1952.472 1952.472 0 0 1-5.008 15.755 18.95 18.95 0 0 0-.663 2.142c-.887 3.563-.911 7.38.571 11.109a15.869 15.869 0 0 0 2.724 4.492c2.017 2.349 4.672 4.135 7.786 5.478 2.239.967 4.591 1.652 6.936 2.116 1.414.28 2.541.427 3.253.484 1.765.015 1.765.015 7.584.015h37.283c6.574 0 9.227 1.726 10.12 4.607.409 1.318.047 6.106.047 6.403 0 .434-2.358 6.138-6.553 8.082-1.698.788-3.563 1.382-5.433 1.799a27.553 27.553 0 0 1-2.361.419c-5.842.597-5.4 9.23.472 9.23.268 0 .916.049 1.804.205 1.51.265 3.013.74 4.375 1.458 3.725 1.963 5.871 5.355 5.871 11.293 0 5.753-2.688 9.352-7.558 11.672-1.837.876-3.853 1.489-5.876 1.871a24.62 24.62 0 0 1-1.941.29c-.193.022-.36.037-.497.047-6.028.276-5.98 9.05-.045 9.253.046.002.21.012.474.037.482.047 1.03.12 1.626.226 1.695.3 3.383.794 4.912 1.503 3.689 1.711 5.794 4.288 6.089 8.34.023.323.035.658.035 1.002 0 4.32-2.518 7.177-7.316 9.136-1.88.768-3.945 1.312-6.017 1.657-.729.12-1.402.208-1.998.266-.336.032-.555.048-.637.051-5.6.255-6.021 8.368-.477 9.199a23.7 23.7 0 0 1 1.85.423c1.494.412 2.983.971 4.336 1.684 4.255 2.24 6 5.13 4.836 9.778-1.423 5.683-6.948 7.947-17.938 8.01-2.187.013-4.16-.045-7.77-.2-3.952-.17-5.127-.21-6.873-.21h-93.618c-5.227 0-8.271-.379-10.22-5.133-.75-1.83-1.245-3.847-1.522-5.872-.097-.712-.16-1.37-.193-1.951-.024-.571-.064-93.85 0-94.432.167-1.53.49-3.027.989-4.378 1.401-3.798 3.785-5.765 8.164-5.765 6.665 0 11.005-.18 13.552-.498zm-30.414 3.063c-.783 2.122-1.261 4.34-1.506 6.572a28.19 28.19 0 0 0-.174 3.792c.003.115 0 93.497 0 93.497s.077 2.151.303 3.806c.375 2.747 1.053 5.503 2.128 8.126 3.265 7.97 9.52 8.428 18.892 8.428h93.619c1.558 0 2.68.038 6.475.201 3.753.16 5.84.222 8.222.208 6.408-.037 11.476-.728 15.771-2.487 5.696-2.334 9.592-6.49 11.106-12.533 1.983-7.92-.722-14.065-5.883-17.91 7.274-3.063 11.582-8.612 11.582-16.528 0-.567-.02-1.125-.06-1.673-.47-6.472-3.598-11.254-8-14.133 6.89-3.624 10.841-9.837 10.841-18.435 0-8.256-2.25-13.843-7.514-17.473 5.587-3.205 9.137-8.108 9.365-14.759-.033-.008.06-.693.098-1.001.352-2.915.283-5.592-.584-8.391-2.164-6.982-8.537-11.126-18.976-11.126h-44.493c-.647-.11-1.212-.202-1.826-.323-1.744-.345-3.482-.852-5.06-1.533-1.915-.826-3.427-1.843-4.426-3.006a6.622 6.622 0 0 1-1.145-1.883c-.664-1.67-.652-3.612-.191-5.46.069-.278.14-.521.21-.723.185-.522.185-.522.28-.819a1507.676 1507.676 0 0 0 1.494-4.652c1.206-3.773 2.412-7.58 3.539-11.178l.257-.824c2.767-8.858 4.502-14.703 4.925-16.814.934-4.667 1.099-9.602-.27-14.153-2.187-7.279-8.11-12.342-19.106-11.742-10.995.6-16.442 5.252-21.914 13.982-1.76 2.808-2.715 4.81-4.592 9.183-1.039 2.42-2.649 6.994-4.722 13.284l-.518 1.577a1177.778 1177.778 0 0 0-5.013 15.774 9.685 9.685 0 0 0-.201.696c-.02.087-.073.299-.159.617-.15.558-.337 1.186-.558 1.866-.632 1.937-1.413 3.871-2.335 5.643-.77 1.482-1.603 2.774-2.479 3.824-1.998 2.308-3.754 3.81-5.49 4.953-.987.65-1.694 1.015-1.985 1.135-.112.072-.345.11-.663.15-2.087.26-6.09.426-12.402.426-8.597 0-14.208 4.628-16.862 11.82z"/></g></svg>