<?xml version="1.0" encoding="utf-8"?>
<!-- Generator: Adobe Illustrator 19.1.0, SVG Export Plug-In . SVG Version: 6.00 Build 0)  -->
<svg version="1.1" id="Layer_1" xmlns="http://www.w3.org/2000/svg" xmlns:xlink="http://www.w3.org/1999/xlink" x="0px" y="0px"
	 viewBox="0 0 512 512" style="enable-background:new 0 0 512 512;" xml:space="preserve">
<path d="M512,24H0v152h40v312h432V176h40V24z M444,456H72V176h372V456z M480,144H32V56h448V144z"/>
<path d="M235.5,320l-39.2,39.5c-5.7,5.7-5.7,15,0,20.6c2.8,2.8,6.6,4.3,10.2,4.3s7.4-1.5,10.2-4.3l39.2-39.5l39.2,39.5
	c2.8,2.8,6.6,4.3,10.2,4.3c3.7,0,7.4-1.5,10.2-4.3c5.7-5.7,5.7-15,0-20.6L276.5,320l39.2-39.5c5.7-5.7,5.7-15,0-20.6
	c-5.7-5.7-14.9-5.7-20.5,0L256,299.3l-39.2-39.5c-5.7-5.7-14.9-5.7-20.5,0c-5.7,5.7-5.7,15,0,20.6L235.5,320z"/>
</svg>
