<?xml version="1.0" encoding="utf-8"?>
<!-- Generator: Adobe Illustrator 19.2.0, SVG Export Plug-In . SVG Version: 6.00 Build 0)  -->
<svg version="1.1" id="Layer_1" xmlns="http://www.w3.org/2000/svg" xmlns:xlink="http://www.w3.org/1999/xlink" x="0px" y="0px"
	 viewBox="0 0 512 512" style="enable-background:new 0 0 512 512;" xml:space="preserve">
<g>
	<path d="M426.3,229.9H33.5c-18.5,0-34,15.3-34,33.8v215.2c0,18.5,15.5,33.1,34,33.1h392.8c18.5,0,33.2-14.6,33.2-33.1V263.7
		C459.5,245.2,444.8,229.9,426.3,229.9z M125.5,460.1l-0.1-0.2H67.5v-21h58V460.1z M219.5,459.9h-63v-21h63V459.9z M198.4,382.9
		c-31.6,0-57.3-25.7-57.3-57.3s25.7-57.3,57.3-57.3c11.1,0,21.5,3.2,30.2,8.6c-12.1,12.6-19.6,29.8-19.6,48.6
		c0,18.9,7.5,36,19.6,48.7C219.9,379.7,209.5,382.9,198.4,382.9z M308.5,459.9h-58v-21h58V459.9z M279.3,382.9
		c-31.7,0-57.3-25.7-57.3-57.3s25.6-57.3,57.3-57.3c31.6,0,57.3,25.7,57.3,57.3C336.6,357.2,310.9,382.9,279.3,382.9z M397.5,459.9
		h-58v-21h58V459.9z"/>
	<path d="M481.1,120.9H88.3c-18.5,0-35.8,14.6-35.8,33.1v60.9h26v-11h407v165.2c0,4.1-0.5,7.5-4.5,7.5l-5.5,26.3h5.6
		c18.5,0,30.4-15.3,30.4-33.8V154C511.5,135.5,499.6,120.9,481.1,120.9z M485.5,177.9h-407V154c0-4.1,5.8-7.1,9.8-7.1h392.8
		c4.1,0,4.4,3,4.4,7.1L485.5,177.9L485.5,177.9z"/>
</g>
</svg>
