<?xml version="1.0" encoding="utf-8"?>
<!-- Generator: Adobe Illustrator 19.1.0, SVG Export Plug-In . SVG Version: 6.00 Build 0)  -->
<svg version="1.1" id="Layer_1" xmlns="http://www.w3.org/2000/svg" xmlns:xlink="http://www.w3.org/1999/xlink" x="0px" y="0px"
	 viewBox="0 0 512 512" style="enable-background:new 0 0 512 512;" xml:space="preserve">
<path d="M464,480H48c-8.8,0-16-7.2-16-16V48c0-8.8,7.2-16,16-16h416c8.8,0,16,7.2,16,16v416C480,472.8,472.8,480,464,480z M480,0H32
	C14.3,0,0,14.3,0,32v448c0,17.7,14.3,32,32,32h448c17.7,0,32-14.3,32-32V32C512,14.3,497.7,0,480,0L480,0z M416,256L416,256
	c0-17.7-14.3-32-32-32H128c-17.7,0-32,14.3-32,32v0c0,17.7,14.3,32,32,32h256C401.7,288,416,273.7,416,256z"/>
</svg>
