<?xml version="1.0" encoding="utf-8"?>
<!-- Generator: Adobe Illustrator 17.1.0, SVG Export Plug-In . SVG Version: 6.00 Build 0)  -->
<!DOCTYPE svg PUBLIC "-//W3C//DTD SVG 1.1//EN" "http://www.w3.org/Graphics/SVG/1.1/DTD/svg11.dtd">
<svg version="1.1" id="Layer_1" xmlns="http://www.w3.org/2000/svg" xmlns:xlink="http://www.w3.org/1999/xlink" x="0px" y="0px"
	 viewBox="0 0 512 512" enable-background="new 0 0 512 512" xml:space="preserve">
<g>
	<path d="M256,32c30.3,0,59.6,5.9,87.2,17.6c26.7,11.3,50.6,27.4,71.2,48c20.6,20.6,36.7,44.5,48,71.2
		c11.7,27.6,17.6,56.9,17.6,87.2s-5.9,59.6-17.6,87.2c-11.3,26.7-27.4,50.6-48,71.2c-20.6,20.6-44.5,36.7-71.2,48
		C315.6,474.1,286.3,480,256,480s-59.6-5.9-87.2-17.6c-26.7-11.3-50.6-27.4-71.2-48s-36.7-44.5-48-71.2C37.9,315.6,32,286.3,32,256
		s5.9-59.6,17.6-87.2c11.3-26.7,27.4-50.6,48-71.2c20.6-20.6,44.5-36.7,71.2-48C196.4,37.9,225.7,32,256,32 M256,0
		C114.6,0,0,114.6,0,256s114.6,256,256,256s256-114.6,256-256S397.4,0,256,0L256,0z"/>
</g>
<path d="M384.3,288H127.7c-17.5,0-31.7-14.2-31.7-31.7v-0.6c0-17.5,14.2-31.7,31.7-31.7h256.6c17.5,0,31.7,14.2,31.7,31.7v0.6
	C416,273.8,401.8,288,384.3,288z"/>
</svg>
