<?xml version="1.0" encoding="UTF-8" standalone="no"?>
<svg width="512px" height="512px" viewBox="0 0 512 512" version="1.1" xmlns="http://www.w3.org/2000/svg" xmlns:xlink="http://www.w3.org/1999/xlink">
    <g>
            <path d="M162,224 C179.7,224 194,238.3 194,256 C194,273.7 179.7,288 162,288 C144.3,288 130,273.7 130,256 C130,238.3 144.3,224 162,224" id="Path"></path>
            <path d="M256,224 C273.7,224 288,238.3 288,256 C288,273.7 273.7,288 256,288 C238.3,288 224,273.7 224,256 C224,238.3 238.3,224 256,224" id="Path"></path>
            <path d="M350,224 C367.7,224 382,238.3 382,256 C382,273.7 367.7,288 350,288 C332.3,288 318,273.7 318,256 C318,238.3 332.3,224 350,224" id="Path"></path>
            <path d="M256,480 L256,480 C379.711784,480 480,379.711784 480,256 C480,132.288216 379.711784,32 256,32 C132.288216,32 32,132.288216 32,256 C32,379.711784 132.288216,480 256,480 L256,480 Z M256,512 L256,512 C114.615104,512 0,397.384896 0,256 C0,114.615104 114.615104,0 256,0 C397.384896,0 512,114.615104 512,256 C512,397.384896 397.384896,512 256,512 L256,512 Z" id="Oval-1"></path>
    </g>
</svg>
