<?xml version="1.0" encoding="utf-8"?>
<!-- Generator: Adobe Illustrator 21.0.2, SVG Export Plug-In . SVG Version: 6.00 Build 0)  -->
<svg version="1.1" id="Layer_1" xmlns="http://www.w3.org/2000/svg" xmlns:xlink="http://www.w3.org/1999/xlink" x="0px" y="0px"
	 viewBox="0 0 1000 1000" enable-background="new 0 0 1000 1000" xml:space="preserve">
<g>
	<path d="M746,259V16H17v729h243v243h729V259H746z M891.8,890.8H357.2v-268C322,587.3,287,544.5,260,495.4v152.4H114.2V113.2h534.6
		V259H303.5c35,38.6,68,70.7,98.9,97.2h489.4V890.8z"/>
	<g>
		<path d="M503.4,794.8l24.4-97.4c0,0-93.5-54.6-170.5-146.1c-48-57.2-89.6-129.1-97.4-210.9v-57c34.1,38.5,66.7,70.9,97.4,98.2
			c144.2,128.9,243.6,145.4,243.6,145.4l24.4-97.4L747,673L503.4,794.8z"/>
		<path d="M259.9,283.3v51.2C258.1,317.9,258.1,300.8,259.9,283.3z"/>
	</g>
</g>
</svg>
