<?xml version="1.0" encoding="utf-8"?>
<!-- Generator: Adobe Illustrator 19.2.0, SVG Export Plug-In . SVG Version: 6.00 Build 0)  -->
<svg version="1.1" id="Layer_1" xmlns="http://www.w3.org/2000/svg" xmlns:xlink="http://www.w3.org/1999/xlink" x="0px" y="0px"
	 viewBox="0 0 512 512" style="enable-background:new 0 0 512 512;" xml:space="preserve">
<path d="M247.7,75.1c-5.2,0-10-2.4-13.3-6.4l-17-21.3c-3.2-4-8.1-6.4-13.3-6.4H76v299.8c0,24.6,21.9,53.6,51.1,53.6h333.8
	c28.1,0,51.1-23,51.1-51.1V75.1H247.7z M196.9,73l12.5,15.7l0.1,0.1l0.1,0.1c9.4,11.6,23.3,18.3,38.2,18.3H480v48.4H108V73H196.9z
	 M460.9,362.4H127.1c-10.2,0-19.1-13.4-19.1-21.6V187.5h372v155.8C480,353.7,471.3,362.4,460.9,362.4z"/>
<path d="M426.8,422c-7.3-5-17.2-3.2-22.3,4.1c-6.3,9.1-16.6,14.3-28.5,14.3H62.7c-15.9,0-30-19.2-30-34.3V140.6h10.2
	c8.8,0,16-7.2,16-16s-7.2-16-16-16H0.8v297.4c0,15.3,6.3,31.4,17.3,44.2c12.2,14.2,28.1,22.1,44.7,22.1h313.3
	c22.2,0,42.6-10.5,54.8-28.1C435.9,437,434.1,427,426.8,422z"/>
</svg>
