<?xml version="1.0" encoding="utf-8"?>
<!-- Generator: Adobe Illustrator 21.0.2, SVG Export Plug-In . SVG Version: 6.00 Build 0)  -->
<svg version="1.1" id="Layer_1" xmlns="http://www.w3.org/2000/svg" xmlns:xlink="http://www.w3.org/1999/xlink" x="0px" y="0px"
	 viewBox="0 0 1000 1000" enable-background="new 0 0 1000 1000" xml:space="preserve">
<path d="M552.2,880v58c0,14.8-6.6,29.1-18.7,39.8c-12.3,10.9-28.6,16.9-46,16.9c-35.6,0-64.7-25.5-64.7-56.8V880H552.2z"/>
<path d="M877,850.8c-10.6,12-26,18.9-42,18.9H164.7c-16,0-31.4-6.9-42-18.9c-10.3-11.7-15.3-27.1-13.9-42.5
	c17.3-24.3,32.3-50.4,44.4-77.6c12.3-27.8,21.7-56.9,27.9-86.5c11.4-54.3,24.5-125.7,25.2-197.1l0.6-60.6c0.3-2.4,0.4-4.7,0.4-6.7
	v-0.7c0.8-66.5,24.5-131.4,66.8-182.7c41.8-50.6,99.9-86.1,163.6-99.9l5.2-1.1l-0.6-5.3c-0.2-2-0.3-4.1-0.3-6.2c0-32,26-58,58-58
	S558.1,52,558.1,84c0,2.1-0.1,4.2-0.3,6.2l-0.6,5.3l5.2,1.1C626,110.5,684,146,725.9,196.5c42.2,51.2,65.8,116.1,66.6,182.6v0.7
	c0,2.1,0,4.4,0.4,6.7l0.6,60.6c0.6,71.4,13.8,142.9,25.2,197.1c6.2,29.6,15.6,58.7,27.9,86.5c12,27.2,26.9,53.3,44.3,77.6
	C892.3,823.8,887.3,839.2,877,850.8z"/>
<g>
	<path fill="#FFFFFF" d="M450.8,173.8c-1.2,2.7-3.3,4.7-6,5.7c-5.1,2-101.8,41.5-129.9,120.3c-1.7,4.4-5.7,7.2-10.3,7.2
		c-1.1,0-2.2-0.2-3.4-0.5l-0.3-0.1c-2.8-1-5-3-6.2-5.6c-1.2-2.6-1.4-5.6-0.4-8.4c16.9-47.5,54.9-81.2,83.8-101.1
		c30.9-21.4,57.1-31.5,58.8-32.1c5.6-2.2,11.9,0.6,14.1,6.2C452.1,168.1,452,171.1,450.8,173.8z"/>
</g>
<g>
	<path fill="#FFFFFF" d="M301.6,344c0,6.7-5.4,12.1-12.1,12.1s-12.1-5.4-12.1-12.1s5.4-12.1,12.1-12.1S301.6,337.3,301.6,344z"/>
</g>
</svg>
