<?xml version="1.0" encoding="utf-8"?>
<!-- Generator: Adobe Illustrator 19.2.0, SVG Export Plug-In . SVG Version: 6.00 Build 0)  -->
<svg version="1.1" id="Layer_1" xmlns="http://www.w3.org/2000/svg" xmlns:xlink="http://www.w3.org/1999/xlink" x="0px" y="0px"
	 viewBox="0 0 512 512" style="enable-background:new 0 0 512 512;" xml:space="preserve">
<g>
	<path d="M304.1,266.1c0,0-131.9-43.4-176.8-139.1c-13.1,150.8,146.2,234.2,146.2,234.2l-13.9,43.6L380.5,343l-62-120.7L304.1,266.1
		z"/>
	<path d="M383.5,128.5v-116c0-6.6-5.4-12-12-12h-360c-6.6,0-12,5.4-12,12v360c0,6.6,5.4,12,12,12h116v116c0,6.6,5.4,12,12,12h360
		c6.6,0,12-5.4,12-12v-360c0-6.6-5.4-12-12-12H383.5z M174.5,448.5V334.1c-21-20.2-36-41-47-61.8v65.3h-64c-6.6,0-12-5.4-12-12v-262
		c0-6.6,5.4-12,12-12h262c6.6,0,12,5.4,12,12v65h-168c12.2,15,28.8,35,46.5,46h232.5c6.6,0,12,5.4,12,12v262c0,6.6-5.4,12-12,12
		h-262C179.9,460.5,174.5,455.1,174.5,448.5z"/>
</g>
</svg>
