<?xml version="1.0" encoding="utf-8"?>
<!-- Generator: Adobe Illustrator 19.1.0, SVG Export Plug-In . SVG Version: 6.00 Build 0)  -->
<svg version="1.1" id="Layer_1" xmlns="http://www.w3.org/2000/svg" xmlns:xlink="http://www.w3.org/1999/xlink" x="0px" y="0px"
	 viewBox="0 0 512 512" style="enable-background:new 0 0 512 512;" xml:space="preserve">
<path d="M422.2,0.9h-6H125.4h-0.1c0,0,0,0-0.1,0C90.7,0.9,62.6,29.1,62.6,63.7v431.5c0,6.2,3.4,12.1,8.9,14.8
	c2.3,1.1,4.7,1.6,7.1,1.6c4.7,0,9.3-2.1,12.4-5.9l38.2-47.2c1-1.3,2.9-1.3,4-0.1l44.5,48.1c3,3.3,7.3,5.1,11.7,5.1s8.7-1.9,11.7-5.1
	l44.8-48.5c1.1-1.1,2.9-1.1,3.9,0l44.8,48.5c3,3.3,7.3,5.1,11.7,5.1s8.7-1.9,11.7-5.1l43.8-47.4c1.1-1.2,3-1.1,4,0.1l37.6,46.5
	c4.7,5.8,12.7,7.6,19.5,4.3c5.6-2.7,8.9-8.6,8.9-14.8V128.3c31.2-4.4,55.2-31.3,55-63.7C486.9,29.2,457.5,0.9,422.2,0.9z
	 M400.1,450.4l-22.7-28.1c-2.9-3.6-7.3-5.8-11.9-5.9c-4.7-0.2-9.1,1.7-12.3,5.1l-46.7,50.5l-46.8-50.6c-3-3.3-7.3-5.1-11.7-5.1
	s-8.7,1.9-11.7,5.1l-46.8,50.6l-47.4-51.3c-3.2-3.4-7.6-5.3-12.3-5.1c-4.6,0.2-9,2.3-11.9,5.9l-23.3,28.8V63.7
	c0-17,13.8-30.8,30.8-30.8c17.6,0,32,14.4,32,32c0,17.7-14.4,32-32,32c-8.8,0-16,7.2-16,16s7.2,16,16,16h274.8V450.4z M423.1,96.9
	C423.1,96.9,423.1,96.9,423.1,96.9H180.8c5.5-9.4,8.6-20.4,8.6-32s-3.1-22.6-8.6-32h219.3h23c0,0,0,0,0,0c17.7,0,32,14.4,32,32
	S440.8,96.9,423.1,96.9z"/>
<path d="M190.7,289h40.6v40.6c0,8.8,7.2,16,16,16s16-7.2,16-16V289H304c8.8,0,16-7.2,16-16s-7.2-16-16-16h-40.6v-40.6
	c0-8.8-7.2-16-16-16s-16,7.2-16,16V257h-40.6c-8.8,0-16,7.2-16,16S181.9,289,190.7,289z"/>
</svg>
