<svg xmlns="http://www.w3.org/2000/svg" viewBox="-192 -240 512 512"><path d="M-161.7 84.8c0 5.5 2.5 10.7 7.2 13.6l209.4 131c5.2 3.2 11.9 3.2 17.1-.1L281.7 98.4c4.7-2.9 7.3-8 7.3-13.5V-95.2c0-6.4-3.1-12.3-9-14.8L70.7-198.6c-4-1.7-8.4-1.7-12.4 0l-209.9 89.1c-5.8 2.4-10 8.2-10.1 14.5M64 6.5L-7.5-34.3l177-87.8 68.5 29L64 6.5zm.6-173l66 27.9L-41-53.5l-68.4-39.1 174-73.9zM-130-67.2l73 41.3V8.2c0 8.7 7.3 16 16 16s16-7.3 16-16V-7.6l73 41.9V187L-130 76V-67.2zM79 186.9V34.3L257-67.6V75.9l-178 111z"/></svg>