<?xml version="1.0" encoding="utf-8"?>
<!-- Generator: Adobe Illustrator 21.0.2, SVG Export Plug-In . SVG Version: 6.00 Build 0)  -->
<svg version="1.1" id="Layer_1" xmlns="http://www.w3.org/2000/svg" xmlns:xlink="http://www.w3.org/1999/xlink" x="0px" y="0px"
	 viewBox="0 0 512 512" enable-background="new 0 0 512 512" xml:space="preserve">
<g>
	<g>
		<polygon points="326,398.8 326,410.7 185,429.9 185,418 		"/>
	</g>
	<g>
		<path d="M372.6,55.6c-15.6-16-33.8-28.4-53.5-36.8C299.4,10.4,278.1,6,256.1,6c-43.9,0-85.3,17.6-116.6,49.6
			c-31,31.8-48.1,73.6-48.1,117.8c0,23.8,4.9,46,14.5,66l0.1,0.1c6.5,14.3,15.1,27.7,25.6,39.9l0.2,0.2c4.1,5.2,8.3,10.3,12.3,15.2
			l1.3,1.6c22.3,27,41.7,50.3,41.7,84.8v12.7l141.9-19.6l2.3-23.3l0.3-0.7c7.4-19.7,21.3-36.8,36-54.9l0.2-0.2
			c3.3-4,6.8-8.3,10-12.5l0.4-0.5c13.6-14.9,24.2-32.2,31.6-51.4l0-0.1c7.1-17.1,10.7-36.3,10.7-57.1
			C420.6,129.4,403.6,87.5,372.6,55.6z M275,358.1l-36,5.4V256l-31.8-53h100L275,256V358.1z M393.2,223.6l-0.1,0.4
			c-6.6,17.2-16.2,32.7-28.4,46.1l-0.5,0.7c-2.9,3.7-5.9,7.3-8.8,10.9l-1.6,2c-10.2,12.6-22.7,35.1-36.2,65.2l-1.3,3l-29.2,4.4
			v-97.1l40.3-67.1H187l40,67.2v106.2l-22.5,3.5l-1-5.8c-5.5-31.3-25.2-55.1-44.2-78.1c-3.5-4.2-8.6-10.4-13.6-16.7l-0.4-0.5
			c-9.5-10.8-17.2-22.9-23-35.8l-0.2-0.5c-8.4-17.4-12.6-36.9-12.6-58c0-39.5,15.2-76.9,42.9-105.3C180.2,39.6,217,23.9,256,23.9
			c39.1,0,75.9,15.7,103.6,44.1c27.7,28.4,42.9,65.8,42.9,105.3C402.5,191.7,399.4,208.6,393.2,223.6z"/>
	</g>
	<g>
		<path d="M322.5,471.3c-8,23.9-31,34.7-73.2,34.7c-18.6,0-36.3-6.7-50-18.8L322.5,471.3z"/>
	</g>
	<g>
		<polygon points="326,434.8 326,446.7 185,465.9 185,454 		"/>
	</g>
</g>
</svg>
