<?xml version="1.0" encoding="utf-8"?>
<!-- Generator: Adobe Illustrator 19.2.0, SVG Export Plug-In . SVG Version: 6.00 Build 0)  -->
<svg version="1.1" id="Layer_1" xmlns="http://www.w3.org/2000/svg" xmlns:xlink="http://www.w3.org/1999/xlink" x="0px" y="0px"
	 viewBox="0 0 512 512" style="enable-background:new 0 0 512 512;" xml:space="preserve">
<g>
	<path d="M161.3,512l30.1-19.2l26.1,18.3l3-0.1l37-18.3l35,17.3l6.9-0.1l26.3-17.2l24.9,16.4V251H161.3V512z M176.6,266h158.9v215.1
		l-9.7-6.5L295,494.3l-37.6-18.7l-37,18.4l-28.7-19.9l-15.1,9.2L176.6,266L176.6,266z"/>
	<path d="M253.5,351.3c-6.7,0-12.7-2.2-17-4.5l-4.3,12c3.9,2.2,11.2,4.1,16.2,4.4V374h10v-11.5c15-2,19.4-9.8,19.4-18.9
		c0-9.2-4.3-14.9-16.5-19.2c-8.7-3.3-12-5.4-12-8.8c0-2.9,2.3-5.7,9-5.7c7.4,0,12.2,2.4,14.8,3.5l4-11.6c-3.4-1.6-8.8-3.1-13.8-3.4
		V292h-10v7.1c-15,2.1-18.4,9.2-18.4,18.2c0,9.9,6.9,15.1,17.9,18.7c7.6,2.6,10.6,5,10.6,8.9C263.6,349.1,259.4,351.3,253.5,351.3z"
		/>
	<rect x="207.5" y="399" width="102" height="16"/>
	<rect x="207.5" y="435" width="102" height="15"/>
	<path d="M442.5,251.5c-10.2-126.9-179.8-168.7-249.2-60c-45-25-102.3,4.4-105.9,56.2C38.2,253.6,0,295.7,0,345.9
		C0,400.2,44.7,445,99.7,445h51.8V241h209v204h51.8c55.1,0,99.7-44.9,99.7-99.1C512,302,482.8,264.1,442.5,251.5z"/>
</g>
</svg>
