<?xml version="1.0" encoding="utf-8"?>
<!-- Generator: Adobe Illustrator 19.2.0, SVG Export Plug-In . SVG Version: 6.00 Build 0)  -->
<svg version="1.1" id="Layer_1" xmlns="http://www.w3.org/2000/svg" xmlns:xlink="http://www.w3.org/1999/xlink" x="0px" y="0px"
	 viewBox="0 0 512 512" style="enable-background:new 0 0 512 512;" xml:space="preserve">
<path d="M230.5,301.1c-7.5-3.9-15.4-6.8-23.1-10.2c-5.6-2.5-11.8-5.5-15.6-10.5c-8-10.4-4.9-30.4,8.9-34.1c6.5-1.7,14-1,19.3,3.4
	c2.8,2.3,4.8,5.3,6.2,8.6c1.3,3.1,1.7,6.6,3.4,9.5c3,5.1,8,7,13.7,7c5.2,0,10-0.2,13.9-4.2c5.1-5.2,4.6-11.7,2.5-18.2
	c-2.4-7.2-6.2-13.8-11.7-19.2c-4.9-4.7-10.8-8.4-17.2-10.7c-1.9-0.7-3.8-1.3-5.8-1.8c-1.5-0.4-3.7-0.4-4.9-1.4
	c-1.3-1.1-1.2-2.7-1.2-4.2c0-7.7,2-21.3-9.6-21.3c-11.4,0-9.4,13.7-9.4,21.3c0,1.7-0.1,3.6-2.1,4.3c-3.3,1.2-7.2,1.3-10.6,2.3
	c-6.7,2-13,5.2-18.4,9.7c-11.4,9.5-16.2,23.4-15.6,38c0.5,13.7,5.9,25.4,16.8,33.8c5.3,4.2,11.2,7.5,17.3,10.5
	c7.5,3.6,15.4,6.1,22.9,9.6c5.6,2.6,11.7,6,15.2,11.4c3.9,5.9,4.5,14,2.5,20.6c-4.3,14-22.5,16.8-34.3,10.7
	c-6.5-3.4-9.6-8.8-11.6-15.5c-1.8-6-7.5-9.7-13.7-9.7c-4.3,0-8.8-0.4-12.7,1.8c-5.4,3-8.1,9.2-6.7,15.1c2.4,10.7,8.6,19.5,17.5,25.9
	c4.4,3.2,9.3,5.8,14.4,7.6c2.5,0.9,5.1,1.6,7.7,2.2c2.3,0.5,5.7,0.4,7.7,1.6c2.5,1.4,1.7,5.3,1.7,7.7c0,2.5-0.3,5.1,0.1,7.6
	c1.5,10.4,15.3,11.1,17.6,0.7c0.7-3.5,0.2-7.6,0.2-11.2c0-1.6-0.3-3.4,1.1-4.6c1.3-1.1,3.2-1,4.7-1.3c1.9-0.4,3.7-0.7,5.5-1.2
	c13.4-3.5,25.8-11.5,31.8-24.3c5.9-12.6,6-29.3,0.3-41.8C253.8,314.5,241.8,307,230.5,301.1z"/>
<path d="M508.5,90.8l-61-61L421.4,3.6c-4.8-4.8-12.6-4.8-17.4,0l-26.2,26.2l-61,61c-4.8,4.8-4.8,12.6,0,17.4l17.4,17.4
	c4.8,4.8,12.6,4.8,17.4,0l23.7-22.5c3.9-3.7,10.4-0.9,10.4,4.5v145.2c0,3.4,2.8,6.2,6.2,6.2h37c3.4,0,6.2-2.8,6.2-6.2V106.4
	c0-5.2,6.1-8.1,10.1-4.7l28.4,23.9c4.8,4.8,12.6,4.8,17.4,0l17.4-17.4C513.2,103.4,513.2,95.6,508.5,90.8z"/>
<path d="M403.8,289h-42c-3.4,0-6.2-2.8-6.2-6.2v-115c0-2.1-0.8-4.1-2.2-5.5c-13.1-13.4-27.9-25.1-44.2-34.6
	c-31.5-18.3-67.5-27.7-103.6-27.7c-20.1,0-40.2,2.9-59.5,8.8C98,123.5,56.2,156,30,198.8C3.1,243-6.2,296.7,4.1,347.4
	C14,396.1,42,440.2,81.5,470.2c35.8,27.2,80,41.8,124.7,41.8c7.1,0,14.1-0.4,21.2-1.1c51.2-5.2,99.3-30,133.3-68.7
	c35.1-39.8,53.5-92.6,51-145.6C411.5,292.3,408,289,403.8,289z M336.7,420.9c-14.3,16.2-31.4,29.6-50.8,39.6
	c-19.5,10-40.2,16.2-61.7,18.4h-0.1c-5.9,0.6-11.9,0.9-17.9,0.9c-37.9,0-75.4-12.5-105.3-35.3c-16.6-12.6-30.8-28.1-42.1-46
	s-19.2-37.3-23.3-57.7c-8.7-42.7-0.7-88.5,21.9-125.6c11-18,25.2-33.8,42.1-46.9c17-13.2,35.8-23,56-29.1c16.1-4.7,33-7.2,50.1-7.2
	c30.9,0,61.2,8.1,87.5,23.3c10.8,6.3,21,13.9,30.5,22.6v104.8c0,21.1,17.1,38.2,38.2,38.2h17.5C376.1,357.7,361.1,393.2,336.7,420.9
	z"/>
</svg>
