<?xml version="1.0" encoding="utf-8"?>
<!-- Generator: Adobe Illustrator 19.2.0, SVG Export Plug-In . SVG Version: 6.00 Build 0)  -->
<svg version="1.1" id="Layer_1" xmlns="http://www.w3.org/2000/svg" xmlns:xlink="http://www.w3.org/1999/xlink" x="0px" y="0px"
	 viewBox="0 0 512 512" style="enable-background:new 0 0 512 512;" xml:space="preserve">
<path d="M480,192H32c-17.7,0-32,14.3-32,32v256c0,17.7,14.3,32,32,32h448c17.7,0,32-14.3,32-32V224C512,206.3,497.7,192,480,192z
	 M480,464c0,8.8-7.2,16-16,16H48c-8.8,0-16-7.2-16-16V358c0-3.3,2.7-6,6-6h436c3.3,0,6,2.7,6,6V464z M474,288H38c-3.3,0-6-2.7-6-6
	v-42c0-8.8,7.2-16,16-16h416c8.8,0,16,7.2,16,16v42C480,285.3,477.3,288,474,288z"/>
<path d="M176.2,416H79.8c-8.7,0-15.8-7.1-15.8-15.8v-0.3c0-8.7,7.1-15.8,15.8-15.8h96.3c8.7,0,15.8,7.1,15.8,15.8v0.3
	C192,408.9,184.9,416,176.2,416z"/>
<path d="M367.8,416h32.3c8.7,0,15.8-7.1,15.8-15.8v-0.3c0-8.7-7.1-15.8-15.8-15.8h-32.3c-8.7,0-15.8,7.1-15.8,15.8v0.3
	C352,408.9,359.1,416,367.8,416z"/>
</svg>
