<?xml version="1.0" encoding="utf-8"?>
<!-- Generator: Adobe Illustrator 19.2.0, SVG Export Plug-In . SVG Version: 6.00 Build 0)  -->
<svg version="1.1" id="Layer_1" xmlns="http://www.w3.org/2000/svg" xmlns:xlink="http://www.w3.org/1999/xlink" x="0px" y="0px"
	 viewBox="0 0 512 512" style="enable-background:new 0 0 512 512;" xml:space="preserve">
<g>
	<path d="M256,400c8.8,0,16-7.2,16-16v-26.3c18.5-1.7,26.4-7.4,37-16.8c10.7-9.4,16-22.1,16-38c0-16.1-5.2-28.7-15.8-37.9
		c-10.5-9.2-26.4-17.3-48-24.3c-14.2-4.5-24-9.3-29.4-14.2c-5.4-5-8.2-11.5-8.2-19.4c0-8.5,2.6-15.3,7.8-20.3c5.2-5,13-7.6,23.4-7.6
		c10,0,17.8,3.4,23.5,10.1c3.3,3.9,5.7,8.5,7.2,14c2.2,7.9,9.3,13.5,17.6,13.5c12.3,0,21-12,17.3-23.8c-2.4-7.7-6.2-14.4-11.3-20.3
		c-9.8-11.1-19.8-17.8-37.1-20.2V128c0-8.8-6.9-16-15.7-16s-16.3,7.2-16.3,16v24.2c-17.6,1.8-27.6,7.7-37.9,17.5
		c-10.3,9.8-15.4,22.3-15.4,37.6c0,16.1,5.4,28.8,16.1,38.1c10.7,9.3,26.8,17.3,48.3,23.9c13.3,4.2,22.7,8.9,28.3,14.1
		c5.6,5.1,8.5,11.7,8.5,19.5c0,8.6-3.1,15.4-9.3,20.3c-6.2,5-15,7.5-26.2,7.5c-10.6,0-19.4-2.8-26.4-8.4c-4.4-3.5-7.3-8.3-9.1-14.6
		c-2.1-8-9.2-13.5-17.3-13.6c-12.2-0.1-21.1,11.8-17.6,23.6c2.8,9,7.4,16.5,14,22.2c11.7,10.1,24.9,16.1,43,17.8V384
		C239,392.8,247.2,400,256,400z"/>
	<path d="M257.5,0C114.1-0.8-2.8,117.2,0.1,261.1C2.8,400.3,117.4,512.3,256.6,512c17.3,0,34.1-1.8,50.5-5.1
		c7.5-1.5,12.9-8.1,12.9-15.7v0c0-10.2-9.3-17.7-19.3-15.6c-14.6,3-29.5,4.5-44.7,4.5c-30.3,0-59.6-5.9-87.2-17.6
		c-26.7-11.3-50.6-27.4-71.2-48c-20.6-20.6-36.7-44.5-48-71.2C37.9,315.6,32,286.3,32,256s5.9-59.6,17.6-87.2
		c11.3-26.7,27.4-50.6,48-71.2c20.6-20.6,44.5-36.7,71.2-48C196.4,37.9,225.7,32,256,32s59.6,5.9,87.2,17.6
		c26.7,11.3,50.6,27.4,71.2,48c20.6,20.6,36.7,44.5,48,71.2c11.7,27.6,17.6,56.9,17.6,87.2c0,25.6-4.2,50.5-12.6,74.3
		c-2.9,8.2,1.4,17.2,9.6,20.2c0.1,0,0.2,0.1,0.4,0.1c8.3,2.9,17.3-1.4,20.2-9.7c9.1-25.7,14.1-53.4,14.4-82.1
		C513.5,117.4,399,0.8,257.5,0z"/>
	<path d="M452.7,420.7L416,457.4V352c0-8.8-7.2-16-16-16s-16,7.2-16,16v105.4l-36.7-36.7c-6.2-6.2-16.4-6.2-22.6,0
		c-6.2,6.2-6.2,16.4,0,22.6l64,64c3.1,3.1,7.2,4.7,11.3,4.7s8.2-1.6,11.3-4.7l64-64c6.2-6.2,6.2-16.4,0-22.6
		C469.1,414.4,458.9,414.4,452.7,420.7z"/>
</g>
</svg>
