<?xml version="1.0" encoding="utf-8"?>
<!-- Generator: Adobe Illustrator 19.1.0, SVG Export Plug-In . SVG Version: 6.00 Build 0)  -->
<svg version="1.1" id="Layer_1" xmlns="http://www.w3.org/2000/svg" xmlns:xlink="http://www.w3.org/1999/xlink" x="0px" y="0px"
	 viewBox="0 0 512 512" enable-background="new 0 0 512 512" xml:space="preserve">
<path d="M276.4,230.5L276.4,230.5l-0.2-0.1c-44.8-17.8-66.1-30.7-66.1-55.7c0-11.2,4.5-21.4,12.7-28.6c9.6-8.5,23.6-12.8,41.7-12.8
	c17.2,0,33.5,2.7,48.6,8c2.4,0.8,4.6,1.2,6.7,1.2c9,0,16.9-5.8,19.5-14.6c3.1-10.8-2.6-21.8-13-25h-0.1h-0.1
	c-14.1-4.6-28.5-7.1-45.5-7.8l-7.6-0.3v-7.7V63.3c0-9.3-8-16.8-17.8-16.8s-17.8,7.4-17.8,16.5v27v6.6l-6.4,1.3
	c-23.4,4.7-42.8,14.7-56.2,29.1c-13.7,14.7-20.9,33.6-20.9,54.8c0,21.6,7.9,39.9,23.4,54.4c14.2,13.3,34.6,24.4,64.4,35.2
	c23.3,8.5,39.3,17.7,48.9,28.1c10.3,11.2,11.5,21.9,11.5,29c0,13.8-6.2,26-17.5,34.2c-10.6,7.7-25.3,11.8-42.5,11.8
	c-19.2,0-38.9-3.7-58.3-11c-2.5-1-5-1.4-7.5-1.4c-9.2,0-17.4,6.3-20,15.3v0.1v0.1c-2.6,8.6,1.5,20.8,11.5,24.7l0,0l0,0
	c17.4,6.8,38.8,11.3,58.8,12.2l7.6,0.3v7.6v26.2c0,9.2,8.1,17,17.8,17s17.8-7.8,17.8-17v-29.5v-6.6l6.5-1.2
	c25-4.7,45.8-15.6,60.3-31.5c14-15.5,21.4-35.1,21.4-56.8c0-22.4-6.1-39.7-19.2-54.6C325.9,253.7,305.5,241.3,276.4,230.5z"/>
</svg>
