<?xml version="1.0" encoding="utf-8"?>
<!-- Generator: Adobe Illustrator 19.2.0, SVG Export Plug-In . SVG Version: 6.00 Build 0)  -->
<svg version="1.1" id="Layer_1" xmlns="http://www.w3.org/2000/svg" xmlns:xlink="http://www.w3.org/1999/xlink" x="0px" y="0px"
	 viewBox="0 0 512 512" style="enable-background:new 0 0 512 512;" xml:space="preserve">
<g>
	<path d="M342.8,150.5V40.2c0-9-6-16.7-14.5-19.4c-25-8-51.1-12.1-77.4-12.1c-24.5,0-49.1,3.6-72.7,10.8
		C119.4,37.3,68.5,77,36.5,129.4C3.6,183.4-7.7,249,5,310.9c12.1,59.4,46.2,113.2,94.4,150c44,33.3,98.2,51.1,153.1,51.1
		c8.4,0,16.8-0.4,25.2-1.3c62.5-6.5,121.3-36.8,162.8-83.9c42.2-48,64.5-111.3,62.4-175.1h-58.8
		C388.2,251.7,342.8,206.4,342.8,150.5z M349.9,244.7c25.2,25.2,58.6,39,94.2,39h25.7c-1.8,17.2-5.7,34.2-11.6,50.8
		c-9.4,26.5-23.4,50.5-41.7,71.2c-18,20.4-39.6,37.2-64.2,49.9c-24.5,12.7-50.7,20.5-77.9,23.3c-7.3,0.7-14.7,1.1-22,1.1
		c-48.2,0-95.8-15.8-133.8-44.6c-21-16-38.8-35.6-53.1-58.1c-14.3-22.6-24.1-47.1-29.4-72.8c-5.5-26.9-5.9-54.5-1.2-81.9
		c4.8-27.4,14.4-53.2,28.6-76.6c14.2-22.7,32.1-42.7,53.4-59.3C138.3,70.1,162,57.8,187.4,50c20.5-6.1,41.9-9.3,63.5-9.3
		c20.3,0,40.4,2.8,59.9,8.2v101.6C310.8,186.1,324.7,219.5,349.9,244.7z"/>
	<path d="M262.2,245.5c-22.2-8.9-35.7-10.2-35.7-25.2c0-13.9,10.6-18.6,28.9-18.6c9.6,0,17.4,1.8,23.5,3.8
		c6.7,2.3,13.9-1.5,15.9-8.2c1.9-6.5-1.7-13.3-8.1-15.3c-6.7-2.1-14.8-3.7-24.8-4v-13.6c0-5.9-4.8-10.7-10.7-10.7
		c-5.9,0-10.7,4.8-10.7,10.7v14.9c-26.4,4.7-42,21.9-42,44.4c0,24.3,17.7,36.8,45.2,46.7c19.3,7,34.7,9,34.7,25.9
		c0,16.5-17.5,21.1-33.9,21.1c-10.2,0-19.9-2.3-28.2-5.5c-6.9-2.7-14.6,1.3-16.6,8.4c-1.8,6.2,1.3,12.9,7.2,15.2
		c9.1,3.6,20.6,6,32.1,6.3v14.6c0,5.9,4.8,10.7,10.7,10.7s10.7-4.8,10.7-10.7v-16.2c28.7-4.7,44.1-24.3,44.1-46.5
		C304.5,270.5,291.4,256.4,262.2,245.5z"/>
	<path d="M507.4,95.6c-6.2,6.2-16.4,6.2-22.6,0l-28.4-28.4v119.5c0,8.8-7.2,16-16,16s-16-7.2-16-16V68.5L396,96.9
		c-6.2,6.2-16.4,6.2-22.6,0s-6.2-16.4,0-22.6L429.7,18c3-3,7.1-4.7,11.3-4.7s8.3,1.7,11.3,4.7l55,55
		C513.7,79.2,513.7,89.3,507.4,95.6z"/>
</g>
</svg>
