<?xml version="1.0" encoding="utf-8"?>
<!-- Generator: Adobe Illustrator 19.1.0, SVG Export Plug-In . SVG Version: 6.00 Build 0)  -->
<svg version="1.1" id="Layer_1" xmlns="http://www.w3.org/2000/svg" xmlns:xlink="http://www.w3.org/1999/xlink" x="0px" y="0px"
	 viewBox="0 0 512 512" style="enable-background:new 0 0 512 512;" xml:space="preserve">
<path d="M497,257.6c0-21.9-2.8-43.1-8.1-63.2c-3-11.3-16.9-15.9-25.9-8.4c-0.2,0.2-0.4,0.3-0.6,0.5c-4.8,4-6.8,10.4-5.2,16.5
	c4.6,17.3,7,35.4,7,53.8c0,55.4-22,108.8-60.9,148.1c-39.2,39.7-91.4,61.7-147.1,62.2c-55.9,0.5-109.4-21.1-149.4-60.2
	C66,366.6,43.6,312.6,44.1,255.3c0.4-55.6,23.1-109.1,62.8-148.1c39.5-38.9,91.8-60.3,147.3-60.3c22.9,0,45.2,3.7,66.4,10.7
	c8.3,2.7,17.5-1.8,20.3-10.2c0-0.1,0.1-0.2,0.1-0.3c2.9-8.7-1.7-17.9-10.3-20.8C307.2,18.5,282.1,14.2,256,14
	C121.6,13,11.1,122.4,11.1,256.9c0,134.2,108.8,243,243,243C388.4,499.9,496.7,391.9,497,257.6z"/>
<path d="M486.9,77L434,25.2c-2.7-2.9-6.7-4.4-10.6-4.4s-7.8,1.6-10.6,4.4l-51.6,51.7c-5.9,5.8-5.9,15.3,0,21.2
	c5.8,5.9,15.3,5.9,21.2,0L408,72.4v95.5c0,8.2,6.8,15,15,15s15-6.7,15-15V71.4l27.7,26.7c5.8,5.9,15.4,5.9,21.3,0
	C492.8,92.3,492.8,82.9,486.9,77z"/>
<path d="M310.7,268c-10.6-9.2-26.6-17.4-48.3-24.4c-14.3-4.5-24.1-9.4-29.6-14.3c-5.4-5-8.2-11.5-8.2-19.4c0-8.5,2.6-15.3,7.8-20.3
	s13-7.6,23.5-7.6c10.1,0,17.9,3.4,23.6,10.2c3.3,3.9,5.8,8.5,7.3,14.1c2.3,7.9,9.4,13.6,17.7,13.6c12.4,0,21.2-12,17.5-23.8
	c-2.5-7.7-6.3-14.5-11.4-20.3c-9.9-11.1-19.8-17.9-37.3-20.2v-25.3c0-8.8-7.1-15.9-15.9-15.9c-8.8,0-15.9,7.1-15.9,15.9v25
	c-17.7,1.8-28.3,7.7-38.6,17.6c-10.4,9.9-15.5,22.4-15.5,37.7c0,16.1,5.4,28.9,16.2,38.2c10.8,9.4,27,17.4,48.6,23.9
	c13.4,4.2,22.8,8.9,28.5,14.2c5.7,5.1,8.5,11.7,8.5,19.5c0,8.6-3.1,15.4-9.4,20.3c-6.3,5-15.1,7.5-26.4,7.5
	c-10.7,0-19.5-2.8-26.6-8.4c-4.4-3.5-7.4-8.3-9.1-14.7c-2.2-8-9.2-13.6-17.5-13.7l0,0c-12.3-0.1-21.3,11.8-17.7,23.6
	c2.8,9,7.5,16.5,14.1,22.3c11.8,10.2,23.4,16.1,41.7,17.9v27.4c0,8.8,7.1,15.9,15.9,15.9s16-7.1,16-15.9V361
	c18.6-1.7,29.5-7.4,40.2-16.9c10.8-9.5,16.1-22.2,16.1-38.1C326.5,289.9,321.2,277.2,310.7,268z"/>
</svg>
