<?xml version="1.0" encoding="utf-8"?>
<!-- Generator: Adobe Illustrator 19.1.0, SVG Export Plug-In . SVG Version: 6.00 Build 0)  -->
<svg version="1.1" id="Layer_1" xmlns="http://www.w3.org/2000/svg" xmlns:xlink="http://www.w3.org/1999/xlink" x="0px" y="0px"
	 viewBox="0 0 512 512" enable-background="new 0 0 512 512" xml:space="preserve">
<path d="M423.8,185.8H88.2c-20.8,0-37.7,16.9-37.7,37.7v237c0,20.8,16.9,37.7,37.7,37.7h335.5c20.8,0,37.7-16.9,37.7-37.7v-237
	C461.4,202.7,444.5,185.8,423.8,185.8z M429.4,460.4c0,3.1-2.5,5.7-5.7,5.7H88.2c-3.1,0-5.7-2.5-5.7-5.7v-237c0-3.1,2.5-5.7,5.7-5.7
	h335.5c3.1,0,5.7,2.5,5.7,5.7V460.4z"/>
<path d="M256,172.2c44.2,0,80.1-35.9,80.1-80.1c0-44.2-35.9-80.1-80.1-80.1c-44.2,0-80.1,35.9-80.1,80.1
	C175.9,136.2,211.8,172.2,256,172.2z M256,44c26.5,0,48.1,21.6,48.1,48.1s-21.6,48.1-48.1,48.1c-26.5,0-48.1-21.6-48.1-48.1
	S229.5,44,256,44z"/>
<path d="M262.4,331.6c-13.7-4.7-19.4-8.7-21.7-11.2c-2.9-3-4.3-7.1-4.3-12.5c0-5.7,1.7-10,5.1-13.7c3.3-3.5,8.7-5.2,15.9-5.2
	c6.8,0,11.8,2.1,15.4,6.5c3.9,4.8,5.8,11.1,5.8,19.2v2.1c0,3,2.3,5.5,5.3,5.5h15.2c2.9,0,5.3-2.4,5.3-5.5v-2.5
	c0-14.7-3.1-26.7-10.4-35.7c-5.7-7-13-11.8-22.1-14.1c-0.9-0.2-1.7-1.2-1.7-2.3v-6.4c0-7.1-5.5-12.8-12.4-12.8h-0.2
	c-6.8,0-12.4,5.8-12.4,12.8v6.3c0,1.2-0.7,2.1-1.8,2.3c-9,2.1-16.1,6.2-21.9,12.4c-7.7,8.2-11.6,18.7-11.6,31.4
	c0,13.3,4,23.9,11.9,31.5c7.2,6.9,17.7,12.6,31.9,17.3c12.9,4.8,18.6,8.9,21.2,11.5c3.1,3.1,4.6,7,4.6,12.1c0,5.5-1.8,9.9-5.7,13.5
	c-4,3.9-9.6,5.7-17.2,5.7c-7.3,0-13.4-2-18.5-6.1c-4.5-3.7-6.7-9.8-6.7-19v-2.1c0-3-2.3-5.5-5.3-5.5h-15.4c-2.9,0-5.3,2.4-5.3,5.5
	v2.4c-0.3,16.2,4.3,28.7,13.6,37.1c6.8,6.2,14.5,10.2,24.2,12.1c1,0.2,1.8,1.2,1.8,2.3l-0.1,5.3c0,6.8,5.4,12.5,12,12.5h0.2
	c6.6,0,12-5.5,12-12.5v-5.4c0-1.2,0.7-2.1,1.8-2.3c9-2,16.5-6.1,22.5-11.9c8.1-8.1,12.4-18.7,12.4-31.7c0-13.2-4-23.7-11.9-31.2
	C287.1,342.3,276.7,336.6,262.4,331.6z"/>
</svg>
