<?xml version="1.0" encoding="utf-8"?>
<!-- Generator: Adobe Illustrator 19.2.0, SVG Export Plug-In . SVG Version: 6.00 Build 0)  -->
<svg version="1.1" id="Layer_1" xmlns="http://www.w3.org/2000/svg" xmlns:xlink="http://www.w3.org/1999/xlink" x="0px" y="0px"
	 viewBox="0 0 512 512" style="enable-background:new 0 0 512 512;" xml:space="preserve">
<path d="M305.4,339c-6.6-3.8-13.3-7.9-18.6-12.8c-14.2-13.3-26.1-31.8-33.5-52c0.5-1.9,0.9-3.6,1.3-5.3c0,0,8-45.6,5.9-61
	c-0.3-2.1-0.5-2.7-1-4.4l-0.7-1.8c-2.2-5-6.5-10.9-13.2-10.6l-3.9-0.6h-0.1c-7.5,0-13.6,4.3-15.2,10.1c-4.9,17.9,0.2,45,9.2,79.8
	l-2.3,5.8c-6.5,15.9-14.7,31.9-21.9,46l-0.9,1.9c-7.6,14.8-14.5,27.4-20.7,38.1l-6.4,3.4c-0.5,0.2-11.5,6.1-14.1,7.6
	c-21.9,13.1-36.5,28-38.9,39.8c-0.8,3.8-0.2,8.6,3.7,10.8l6.2,3.1c2.7,1.4,5.5,2,8.5,2c15.6,0,33.8-19.5,58.8-63
	c28.9-9.4,61.7-17.2,90.5-21.5c21.9,12.3,48.9,20.9,66,20.9c3,0,5.6-0.3,7.8-0.9c3.3-0.8,6-2.7,7.7-5.2c3.3-5,4-11.8,3.1-18.9
	c-0.3-2.1-1.9-4.7-3.7-6.4c-5-5-16.3-7.6-33.3-7.8C333.9,335.9,320,336.9,305.4,339z M145.4,427.1c2.9-7.8,14.1-23.2,30.8-36.9
	c1.1-0.8,3.6-3.3,6-5.5C164.8,412.5,153.1,423.6,145.4,427.1z M244.2,199.6c5,0,7.9,12.7,8.1,24.5c0.2,11.9-2.5,20.2-6,26.4
	c-2.9-9.1-4.2-23.5-4.2-32.9C242.1,217.6,241.9,199.6,244.2,199.6z M214.7,361.7c3.5-6.3,7.1-12.9,10.9-19.9
	c9.1-17.1,14.8-30.6,19.1-41.6c8.5,15.4,19,28.5,31.5,39.1c1.5,1.3,3.2,2.6,4.9,3.9C255.7,348.2,233.9,354.3,214.7,361.7z
	 M366.4,352.4c9,2.3,9.1,6.9,7.6,7.9c-1.5,1-5.9,1.5-8.8,1.5c-9.1,0-20.5-4.2-36.3-11c6.1-0.5,11.7-0.7,16.7-0.7
	C354.7,350.1,357.4,350.1,366.4,352.4z"/>
<path d="M320,0H64v512h384V128L320,0z M416,480H96V32h192v128h128V480z"/>
</svg>
