<?xml version="1.0" encoding="utf-8"?>
<!-- Generator: Adobe Illustrator 19.1.0, SVG Export Plug-In . SVG Version: 6.00 Build 0)  -->
<svg version="1.1" id="Layer_1" xmlns="http://www.w3.org/2000/svg" xmlns:xlink="http://www.w3.org/1999/xlink" x="0px" y="0px"
	 viewBox="0 0 512 512" style="enable-background:new 0 0 512 512;" xml:space="preserve">
<path d="M147.9,358.4L147.9,358.4c-6.2-6.3-6.2-16.4,0-22.6l196.9-196.2c6.3-6.2,16.4-6.2,22.6,0l0,0c6.2,6.3,6.2,16.4,0,22.6
	L170.6,358.4C164.3,364.6,154.2,364.6,147.9,358.4z"/>
<circle cx="188.5" cy="179.5" r="39.5"/>
<circle cx="326.9" cy="318.4" r="39.5"/>
<path d="M254.6,511.6c-68.5,0-132.9-26.7-181.4-75.1C24.8,388.1-1.8,323.7-1.8,255.1S24.8,122.2,73.3,73.8
	C121.7,25.3,186.1-1.3,254.6-1.3c68.5,0,132.9,26.7,181.4,75.1s75.1,112.9,75.1,181.4S484.5,388.1,436,436.5
	S323.2,511.6,254.6,511.6z M254.6,30.7c-60,0-116.3,23.4-158.7,65.8c-42.4,42.4-65.8,98.8-65.8,158.7s23.4,116.3,65.8,158.7
	c42.4,42.4,98.8,65.8,158.7,65.8s116.3-23.4,158.7-65.8c42.4-42.4,65.8-98.8,65.8-158.7c0-60-23.4-116.3-65.8-158.7
	C371,54,314.6,30.7,254.6,30.7z"/>
</svg>
