<?xml version="1.0" encoding="utf-8"?>
<!-- Generator: Adobe Illustrator 19.2.0, SVG Export Plug-In . SVG Version: 6.00 Build 0)  -->
<svg version="1.1" id="Layer_1" xmlns="http://www.w3.org/2000/svg" xmlns:xlink="http://www.w3.org/1999/xlink" x="0px" y="0px"
	 viewBox="0 0 512 512" style="enable-background:new 0 0 512 512;" xml:space="preserve">
<path d="M64,439.1V388c0-3.2,1-6.3,2.7-9l56.2-83.2c3.1-4.6,9.3-5.8,13.8-2.7l80.9,53.9c4,2.6,9.2,2.1,12.6-1.2l115.1-115.1
	c3.9-3.9,10.2-3.9,14.1,0l83.8,83.7c3,3,4.8,7.1,4.8,11.3v113.4c0,4.4-3.8,8-8.2,8H72C67.6,447.1,64,443.5,64,439.1z"/>
<circle cx="208" cy="239.1" r="48"/>
<path d="M0,159.1v320.5c0,17.7,14.3,32,32,32l448-0.4c17.7,0,32-14.3,32-32V159.1c0-17.7-14.3-32-32-32H32
	C14.3,127.1,0,141.4,0,159.1z M464,479.1H48c-8.8,0-16-7.2-16-16v-288c0-8.8,7.2-16,16-16h416c8.8,0,16,7.2,16,16v288
	C480,471.9,472.8,479.1,464,479.1z"/>
</svg>
