<?xml version="1.0" encoding="utf-8"?>
<!-- Generator: Adobe Illustrator 19.2.0, SVG Export Plug-In . SVG Version: 6.00 Build 0)  -->
<svg version="1.1" id="Layer_1" xmlns="http://www.w3.org/2000/svg" xmlns:xlink="http://www.w3.org/1999/xlink" x="0px" y="0px"
	 viewBox="0 0 512 512" style="enable-background:new 0 0 512 512;" xml:space="preserve">
<g>
	<path d="M256,32c30.3,0,59.6,5.9,87.2,17.6c26.7,11.3,50.6,27.4,71.2,48s36.7,44.5,48,71.2c11.7,27.6,17.6,56.9,17.6,87.2
		s-5.9,59.6-17.6,87.2c-11.3,26.7-27.4,50.6-48,71.2c-20.6,20.6-44.5,36.7-71.2,48C315.6,474.1,286.3,480,256,480
		s-59.6-5.9-87.2-17.6c-26.7-11.3-50.6-27.4-71.2-48s-36.7-44.5-48-71.2C37.9,315.6,32,286.3,32,256s5.9-59.6,17.6-87.2
		c11.3-26.7,27.4-50.6,48-71.2s44.5-36.7,71.2-48C196.4,37.9,225.7,32,256,32 M256,0C114.6,0,0,114.6,0,256s114.6,256,256,256
		s256-114.6,256-256S397.4,0,256,0L256,0z"/>
</g>
<path d="M368.1,224.1H288v-80.2c0-17.6-14.3-31.8-31.8-31.8h-0.3c-17.6,0-31.8,14.3-31.8,31.8V224l-80.2,0.1
	c-17.6,0-31.8,14.3-31.8,31.8v0.3c0,17.6,14.3,31.8,31.8,31.8H224l0.1,80.2c0,17.6,14.3,31.8,31.8,31.8h0.3
	c17.6,0,31.8-14.3,31.8-31.8v-80.1h80.1c17.6,0,31.8-14.3,31.8-31.8v-0.3C399.9,238.4,385.6,224.1,368.1,224.1z"/>
</svg>
