<svg id="cc4049c8-248f-42e0-9e73-1ae7b3d400c2" data-name="Layer 1" xmlns="http://www.w3.org/2000/svg" viewBox="0 0 887.21 819.29">
  <title>policies</title>
  <path d="M594.66,352.07v62H327.23v-62Z" transform="translate(-50.79 -75.84)"/>
  <path d="M325.91,551.24V488.85H594.61v62.39Z" transform="translate(-50.79 -75.84)"/>
  <path d="M492.46,625.09v62.83H326.87V625.09Z" transform="translate(-50.79 -75.84)"/>
  <path d="M154.34,317.54h66.73v25q0,217.08,0,434.17c0,40.33,10,50.66,49.35,50.67q223.15,0,446.3,0h20.92c-1.06-17.39-2.83-33.16-2.85-48.94q-.29-289.85-.13-579.7c0-6.47.38-13-.15-19.4-1.68-20.26-12.16-33.25-32.84-35.39-19.25-2-35.42,12-36.83,33.45-1.58,24.15-.52,48.48-.59,72.74,0,8.83,0,17.65,0,28H51.72c0-35.73-2.43-72,.57-107.9,4.55-54.45,46.22-93.24,102-93.58q272.86-1.64,545.73.11c62,.49,101.17,46.28,101.27,111.87q.34,236.49.08,473c0,8.86,0,17.71,0,29H936.63c0,40.15,3.6,78.31-.86,115.49-6.43,53.6-46.78,88-101.24,88.27q-288.63,1.32-577.27,0c-57.94-.29-101.64-40.89-102.29-98.11C153.16,637.2,154.34,478,154.34,317.54Zm443-105,3.62-68.81q-222.74,0-444,.15c-24.45,0-37,13.25-37.82,37.34-.34,10.25-.06,20.52-.06,31.32ZM801.95,758.76c1.27,23.19-9.28,49,17.08,62.75,9.41,4.89,26.21,4.69,35.27-.63,25-14.7,15.07-40.09,15.83-62.12Z" transform="translate(-50.79 -75.84)"/>
</svg>
