<?xml version="1.0" encoding="utf-8"?>
<!-- Generator: Adobe Illustrator 19.2.0, SVG Export Plug-In . SVG Version: 6.00 Build 0)  -->
<svg version="1.1" id="Layer_1" xmlns="http://www.w3.org/2000/svg" xmlns:xlink="http://www.w3.org/1999/xlink" x="0px" y="0px"
	 viewBox="0 0 512 512" style="enable-background:new 0 0 512 512;" xml:space="preserve">
<path d="M480,96H352V64c0-17.7-14.3-32-32-32H192c-17.7,0-32,14.3-32,32v32H32c-17.7,0-32,14.3-32,32v128v32v160
	c0,17.7,14.3,32,32,32h448c17.7,0,32-14.3,32-32V288v-32V128C512,110.3,497.7,96,480,96z M192,72c0-4.4,3.6-8,8-8h112
	c4.4,0,8,3.6,8,8v24H192V72z M480,440c0,4.4-3.6,8-8,8H40c-4.4,0-8-3.6-8-8V288h128v32c0,17.7,14.3,32,32,32h128
	c17.7,0,32-14.3,32-32v-32h128V440z M192,288h128v24c0,4.4-3.6,8-8,8H200c-4.4,0-8-3.6-8-8V288z M352,256h-32H192h-32H32V136
	c0-4.4,3.6-8,8-8h120h32h128h32h120c4.4,0,8,3.6,8,8v120H352z"/>
</svg>
