<svg data-name="ce194fe3-0fcd-4b61-9a41-8c31c15a270e" xmlns="http://www.w3.org/2000/svg" viewBox="0 0 74.57 86.96">
  <polygon points="70.87 78.96 70.87 82.96 46.87 82.96 46.87 86.96 27.87 86.96 27.87 82.96 3.87 82.96 3.87 78.96 27.87 78.96 27.87 75.96 46.87 75.96 46.87 78.96 70.87 78.96"/>
  <path d="M40.19-.09l-.9.12C38.63,0,38,0,37.29,0S36,0,35.29,0A37.33,37.33,0,0,0,0,35.41l0,.92c0,.25,0,.51,0,.76v.35c0,.28,0,.56,0,.84L0,39A37.28,37.28,0,1,0,40.19-.09Zm-7.9,4.5A63,63,0,0,0,21.84,21H8.3A33.46,33.46,0,0,1,32.29,4.41ZM6.4,25h14a43,43,0,0,0-1.91,10.24H4.11A32.81,32.81,0,0,1,6.4,25ZM4.11,39.31H18.43v1a42.92,42.92,0,0,0,1.54,9H6.31A33,33,0,0,1,4.11,39.31ZM8.19,53.4H21.34A54.13,54.13,0,0,0,31.85,70.2,33.35,33.35,0,0,1,8.19,53.4ZM35.37,68A52.15,52.15,0,0,1,25.7,53.36h9.67Zm0-18.69H24.21A38.05,38.05,0,0,1,22.46,40v-.77H35.37Zm0-14.09H22.48A39.4,39.4,0,0,1,24.61,25H35.37Zm0-14.24H26.2A60.82,60.82,0,0,1,35.37,7ZM70.61,35.31H56.1A41.85,41.85,0,0,0,54.23,25H68.34A33,33,0,0,1,70.61,35.31ZM66.44,21H52.8A63.26,63.26,0,0,0,42.4,4.4,33.43,33.43,0,0,1,66.44,21ZM39.37,7a60,60,0,0,1,9.07,14H39.37Zm0,18H50a39.18,39.18,0,0,1,2,10.28H39.37Zm0,14.24H52.13v.56a38.25,38.25,0,0,1-1.82,9.53H39.37Zm0,14.09h9.4a51.94,51.94,0,0,1-9.4,14.25Zm3,16.92,0,0A54.43,54.43,0,0,0,53.13,53.4H66.55A33.38,33.38,0,0,1,42.42,70.28Zm26-20.88-.06,0H54.49A42.71,42.71,0,0,0,56,40.12v-.84H70.61A33.14,33.14,0,0,1,68.43,49.4Z" transform="translate(0 0.09)"/>
</svg>
