<svg  data-name="Layer 1" xmlns="http://www.w3.org/2000/svg" viewBox="0 0 664 718"><path d="M248.93,588.88a297.09,297.09,0,0,1,23.63-360.54c8.8,26.55,32.76,86,86.34,148.49,41.44,48.34,92.1,88.39,150.55,119q5,2.63,10.08,5.15-14.84,10-31.21,19c-61.14,33.49-139.09,56.57-231.67,68.61A77.17,77.17,0,0,1,248.93,588.88Z" transform="translate(-173 -127)" style="fill:#939393"/><path d="M306.45,256.74c-10.72-23.47-15.79-40.51-17.26-45.89A297.15,297.15,0,0,1,638.8,163.52c4.2,6.48,7.1,17.36,7.1,17.36.09.31,8.71,31.17,8.14,75.32-.53,40.4-9.09,100.62-46.93,158.08-17.83,27.07-40.68,51.42-68.27,72.77q-9.63-4.56-19-9.44c-56-29.28-104.58-67.5-144.31-113.62A458.69,458.69,0,0,1,306.45,256.74Z" transform="translate(-173 -127)" style="fill:#939393"/><path d="M667.72,181.64a297.29,297.29,0,0,1,99.52,363.52c-2.23-.11-2.73-.13-2.82-.12h0c-74.87-6.56-143.28-22.79-204-48.36a320.12,320.12,0,0,0,64.4-71.12c40.68-61.94,49.76-126.62,50.22-170C675.42,220.36,670.41,193.45,667.72,181.64Z" transform="translate(-173 -127)" style="fill:#939393"/>
<path d="M837,761v68H604v16H407V829H173V761H407V745h64V720a296.44,296.44,0,0,1-207.46-111.1C357,596.32,436.06,572.58,498.6,538.29a411,411,0,0,0,42.84-27c64,28.49,136.34,46.67,215.76,54.13C713.59,645.83,634,703.81,540,717.76V745h64v16Z" transform="translate(-173 -127)" style="fill:#939393"/>
<circle cx="504" cy="582" r="103" style="fill:#53b51f"/>
<polyline points="458.5 576.5 495.5 613.5 557.5 551.5" style="fill:none;stroke:#fff;stroke-miterlimit:10;stroke-width:23px"/></svg>
