<?xml version="1.0" encoding="utf-8"?>
<!-- Generator: Adobe Illustrator 21.0.2, SVG Export Plug-In . SVG Version: 6.00 Build 0)  -->
<svg version="1.1" id="Layer_1" xmlns="http://www.w3.org/2000/svg" xmlns:xlink="http://www.w3.org/1999/xlink" x="0px" y="0px"
	 viewBox="0 0 1000 1000" enable-background="new 0 0 1000 1000" xml:space="preserve">
<path fill="#AAAAAA" d="M971.4,404.3c-6.3-31.3-15.8-61.8-28.3-91.5c-24.2-57.3-58.9-108.7-103-152.9
	c-44.2-44.2-95.6-78.8-152.9-103C627.9,31.8,564.9,19.1,500,19.1S372.1,31.8,312.8,56.9C255.6,81.1,204.1,115.8,160,160
	c-44.2,44.2-78.8,95.6-103,152.9C31.8,372.1,19.1,435.1,19.1,500s12.7,127.9,37.8,187.2c24.2,57.3,58.9,108.7,103,152.9
	c44.2,44.2,95.6,78.8,152.9,103c59.3,25.1,122.3,37.8,187.2,37.8s127.9-12.7,187.2-37.8c57.3-24.2,108.7-58.9,152.9-103
	c44.2-44.2,78.8-95.6,103-152.9c25.1-59.3,37.8-122.3,37.8-187.2C980.9,467.5,977.7,435.6,971.4,404.3z M925.6,679.8
	c-23.3,55-56.6,104.4-99,146.8c-42.4,42.4-91.8,75.7-146.8,99c-57,24.1-117.5,36.3-179.8,36.3s-122.8-12.2-179.8-36.3
	c-55-23.3-104.4-56.6-146.8-99c-42.4-42.4-75.7-91.8-99-146.8c-24.1-57-36.3-117.4-36.3-179.8c0-62.3,12.2-122.8,36.3-179.8
	c23.3-55,56.6-104.4,99-146.8c42.4-42.4,91.8-75.7,146.8-99c57-24.1,117.5-36.3,179.8-36.3s122.8,12.2,179.8,36.3
	c55,23.3,104.4,56.6,146.8,99c42.4,42.4,75.7,91.8,99,146.8c24.1,56.9,36.3,117.4,36.3,179.8C961.9,562.3,949.7,622.8,925.6,679.8z"
	/>
<circle fill="#F4F4F4" cx="500" cy="500" r="461.8"/>
</svg>
