<?xml version="1.0" encoding="utf-8"?>
<!-- Generator: Adobe Illustrator 21.0.2, SVG Export Plug-In . SVG Version: 6.00 Build 0)  -->
<svg version="1.1" id="Layer_1" xmlns="http://www.w3.org/2000/svg" xmlns:xlink="http://www.w3.org/1999/xlink" x="0px" y="0px"
	 viewBox="0 0 1000 1000" enable-background="new 0 0 1000 1000" xml:space="preserve">
<circle fill="#1B8ACE" cx="500" cy="500" r="260"/>
<g>
	<g>
		<path fill="#AAAAAA" d="M970.4,403.3c-6.3-31.3-15.8-61.8-28.3-91.5c-24.2-57.3-58.9-108.7-103-152.9
			c-44.2-44.2-95.6-78.8-152.9-103C626.9,30.8,563.9,18.1,499,18.1S371.1,30.8,311.8,55.9C254.6,80.1,203.1,114.8,159,159
			c-44.2,44.2-78.8,95.6-103,152.9C30.8,371.1,18.1,434.1,18.1,499s12.7,127.9,37.8,187.2c24.2,57.3,58.9,108.7,103,152.9
			c44.2,44.2,95.6,78.8,152.9,103c59.3,25.1,122.3,37.8,187.2,37.8s127.9-12.7,187.2-37.8c57.3-24.2,108.7-58.9,152.9-103
			c44.2-44.2,78.8-95.6,103-152.9c25.1-59.3,37.8-122.3,37.8-187.2C979.9,466.5,976.7,434.6,970.4,403.3z M499,960.9
			c-62.3,0-122.8-12.2-179.8-36.3c-55-23.3-104.4-56.6-146.8-99s-75.7-91.8-99-146.8c-24.1-57-36.3-117.4-36.3-179.8
			c0-62.3,12.2-122.8,36.3-179.8c23.3-55,56.6-104.4,99-146.8s91.8-75.7,146.8-99c57-24.1,117.5-36.3,179.8-36.3
			s122.8,12.2,179.8,36.3c55,23.3,104.4,56.6,146.8,99c42.4,42.4,75.7,91.8,99,146.8c24.1,56.9,36.3,117.4,36.3,179.8
			c0,62.3-12.2,122.8-36.3,179.8c-23.3,55-56.6,104.4-99,146.8c-42.4,42.4-91.8,75.7-146.8,99C621.8,948.7,561.3,960.9,499,960.9z"
			/>
	</g>
</g>
</svg>
