<?xml version="1.0" encoding="utf-8"?>
<!-- Generator: Adobe Illustrator 19.2.0, SVG Export Plug-In . SVG Version: 6.00 Build 0)  -->
<svg version="1.1" id="Layer_1" xmlns="http://www.w3.org/2000/svg" xmlns:xlink="http://www.w3.org/1999/xlink" x="0px" y="0px"
	 viewBox="0 0 512 512" style="enable-background:new 0 0 512 512;" xml:space="preserve">
<path d="M508.4,403.8L491,386.4c-4.8-4.8-12.6-4.8-17.4,0l-28.4,23.9c-4,3.4-10.1,0.5-10.1-4.7V259.2c0-3.4-2.8-6.2-6.2-6.2h-37
	c-3.4,0-6.2,2.8-6.2,6.2v145.3c0,5.4-6.5,8.2-10.4,4.5l-23.7-22.5c-4.8-4.8-12.6-4.8-17.4,0l-17.4,17.4c-4.8,4.8-4.8,12.6,0,17.4
	l61,61l0,0l26.2,26.2c4.8,4.8,12.6,4.8,17.4,0l26.1-26.2l0,0l61-61C513.2,416.4,513.2,408.6,508.4,403.8z"/>
<path d="M206.9,32c5.8,0,11.7,0.3,17.4,0.9c21.5,2.2,42.2,8.4,61.7,18.5c19.5,10,36.6,23.3,50.8,39.5
	c24.4,27.7,39.3,63.3,42.6,100.2H362c-18.1,0-33.2,12.6-37.2,29.4c-0.8,2.8-1.2,5.7-1.2,8.8v104.9c-9.3,8.6-19.5,16.2-30.5,22.6
	c-26.3,15.3-56.5,23.4-87.5,23.4c-17.2,0-34.1-2.5-50.3-7.4c-20.1-6.1-38.9-15.9-55.9-29c-16.9-13.1-31.1-29-42.1-47
	C34.7,259.4,26.8,213.7,35.6,171c4.1-20.3,12-39.7,23.3-57.7c11.3-17.9,25.4-33.4,42-46C131,44.5,168.6,32,206.9,32 M206.9,0
	c-45,0-89.4,14.6-125.4,41.8C42,71.9,14.1,116,4.2,164.6C-6.2,215.3,3.1,269,30,313.2c26.2,42.9,67.9,75.4,116,90
	c19.4,5.9,39.5,8.8,59.6,8.8c36.1,0,72.1-9.4,103.5-27.7c16.3-9.5,31.2-21.2,44.2-34.6c1.4-1.5,2.2-3.5,2.2-5.5v-115h0.2
	c0-3.4,2.8-6.2,6.2-6.2h42c4.2,0,7.7-3.3,7.9-7.5v-0.1c2.4-53-15.9-105.8-51-145.7C326.8,31.1,278.7,6.3,227.5,1
	C220.6,0.3,213.7,0,206.9,0L206.9,0z"/>
<path d="M259.1,268.7c-6,12.8-18.4,20.8-31.8,24.3c-1.8,0.5-3.6,0.8-5.5,1.2c-1.5,0.3-3.4,0.2-4.7,1.3c-1.4,1.2-1.1,3-1.1,4.6
	c0,3.6,0.5,7.7-0.2,11.2c-2.3,10.4-16.1,9.7-17.6-0.7c-0.4-2.5-0.1-5.1-0.1-7.6c0-2.4,0.8-6.3-1.7-7.7c-2-1.2-5.4-1.1-7.7-1.6
	c-2.6-0.6-5.2-1.3-7.7-2.2c-5.1-1.8-10-4.4-14.4-7.6c-8.9-6.4-15.1-15.2-17.5-25.9c-1.4-5.9,1.3-12.1,6.7-15.1
	c3.9-2.2,8.4-1.8,12.7-1.8c6.2,0,11.9,3.7,13.7,9.7c2,6.7,5.1,12.1,11.6,15.5c11.8,6.1,30,3.3,34.3-10.7c2-6.6,1.4-14.7-2.5-20.6
	c-3.5-5.4-9.6-8.8-15.2-11.4c-7.5-3.5-15.4-6-22.9-9.6c-6.1-3-12-6.3-17.3-10.5c-10.9-8.4-16.3-20.1-16.8-33.8
	c-0.6-14.6,4.2-28.5,15.6-38c5.4-4.5,11.7-7.7,18.4-9.7c3.4-1,7.3-1.1,10.6-2.3c2-0.7,2.1-2.6,2.1-4.3c0-7.6-2-21.3,9.4-21.3
	c11.6,0,9.6,13.6,9.6,21.3c0,1.5-0.1,3.1,1.2,4.2c1.2,1,3.4,1,4.9,1.4c2,0.5,3.9,1.1,5.8,1.8c6.4,2.3,12.3,6,17.2,10.7
	c5.5,5.4,9.3,12,11.7,19.2c2.1,6.5,2.6,13-2.5,18.2c-3.9,4-8.7,4.2-13.9,4.2c-5.7,0-10.7-1.9-13.7-7c-1.7-2.9-2.1-6.4-3.4-9.5
	c-1.4-3.3-3.4-6.3-6.2-8.6c-5.3-4.4-12.8-5.1-19.3-3.4c-13.8,3.7-16.9,23.7-8.9,34.1c3.8,5,10,8,15.6,10.5
	c7.7,3.4,15.6,6.3,23.1,10.2c11.3,5.9,23.3,13.4,28.7,25.5C265,239.5,264.9,256.1,259.1,268.7z"/>
</svg>
