<?xml version="1.0" encoding="utf-8"?>
<!-- Generator: Adobe Illustrator 17.1.0, SVG Export Plug-In . SVG Version: 6.00 Build 0)  -->
<!DOCTYPE svg PUBLIC "-//W3C//DTD SVG 1.1//EN" "http://www.w3.org/Graphics/SVG/1.1/DTD/svg11.dtd">
<svg version="1.1" id="Layer_1" xmlns="http://www.w3.org/2000/svg" xmlns:xlink="http://www.w3.org/1999/xlink" x="0px" y="0px"
	 viewBox="0 0 512 512" enable-background="new 0 0 512 512" xml:space="preserve">
<path display="none" d="M382.9,32.9C333.1,4.4,274.3-6.6,217.3,1.9C151.5,11.8,92.2,46.7,52.1,98.7l3.4-66c0-2.8-1-5.6-2.8-7.3
	c-1.2-1.2-2.6-1.8-4.1-1.7l-0.5,0l-5-0.8c-0.2,0-0.4,0-0.6,0.1c-4.2,0.6-7.4,4.3-7.5,8.4l-4.6,97.2c0,0.3,0,0.5-0.1,0.8l-0.1,6.2
	c0,2.1,0.8,4.1,2.3,5.6c1.5,1.5,3.4,2.2,5.5,2.2l6.2-0.2c0,0,0.3,0,0.3,0l0.2,0l99.3-4.9c0.3,0,0.7,0,1-0.1c4.1-0.6,7.2-4.1,7.4-8.2
	l-0.4-5.1l0-0.3c0-1.4-0.5-2.7-1.7-3.8c-1.8-1.8-4.9-2.9-7.8-2.9l-75.4,3.9C103.3,71,159,36.8,221.1,27.5
	c51.2-7.7,104.1,2.2,148.9,27.9C423.5,86,461.8,135.7,478,195.3c16.2,59.6,8.2,121.8-22.4,175.3c-35.4,61.8-96.2,103.3-166.9,113.9
	c-51.8,7.8-103.2-1.8-148.5-27.8c-63.6-36.4-105.3-99.1-114.4-172c-0.9-7.1-7.4-12.1-14.5-11.3l-0.3,0c-7,1.1-11.8,7.4-10.9,14.4
	c10.1,81,56.5,150.7,127.2,191.3c50.4,28.9,107.5,39.6,165.1,30.9c0,0,0,0,0,0c37.7-5.7,74.2-19.8,105.8-40.9
	c33.1-22.2,59.9-51,79.8-85.7C548.5,260.5,505.8,103.3,382.9,32.9z"/>
<path d="M255.8,512c-7.8,0-15.6-0.4-23.3-1.1c-8.8-0.8-15.1-7.4-15.1-15.7c0-8.4,7-15.7,15-15.7c0.4,0,0.8,0,1.2,0.1
	c7.1,0.7,14.3,1,21.5,1c43.8,0,86.1-12.3,122.3-35.5c33.6-21.5,60.9-51.7,78.9-87.3c19.1-37.5,27.1-80,23.2-122.9
	c-3.9-43.2-19.7-83.4-45.6-116.4C391,63.9,324.3,31.3,255.4,31.3c-14.9,0-29.7,1.5-44.1,4.6C167.8,45,128.8,65.8,98.4,96
	c-29.8,29.6-50.7,66.4-60.5,106.7c-10.1,41.6-8.3,84.9,5.4,125.2c13.1,38.6,37.6,74.4,68.9,100.6l1.6,1.3l0.5-62.6
	c0.1-8.7,6.9-15.3,15.8-15.3c4.4,0,8.5,1.7,11.4,4.6c2.8,2.8,4.3,6.6,4.2,10.9l-0.8,95.1c-0.1,8.6-7.1,15.6-15.6,15.6l-93.3-0.8
	c-8.8-0.1-15.4-6.9-15.3-15.8c0-8.9,6.6-15.5,15.3-15.5l48.9,0.4l-1.9-1.7c-3.6-3.2-7-6.6-10.2-9.9c-33.8-34.9-56.9-78.9-67-127.2
	c-10.1-48.7-6.2-98.2,11.5-143.2c17.1-43.6,44.5-81.1,79.3-108.4c38-29.8,83-48.6,130.2-54.1c9.6-1.1,19.3-1.7,29-1.7
	c40.2,0,80.6,9.8,117,28.4c36.5,18.7,68.2,45.9,91.7,78.7c26.9,37.5,43,82.1,46.6,129c3.6,46.8-5.4,93.4-26,134.6
	c-20.6,41.1-51.8,75.9-90.1,100.5C353.2,497.9,305.2,512,255.8,512z M353.8,320.5c-2.5,0-4.9-0.6-7.2-1.8L248,269.6
	c-5.2-2.4-8.5-7.3-8.5-13.1V108.4c0-8.4,7.1-14.7,16-14.7c8.9,0,16,6.3,16,14.7v137.7l90.4,45.2c6.3,3.2,9.3,9.6,7.8,16.3
	C367.9,315.1,361.2,320.5,353.8,320.5z"/>
</svg>
