<svg id="Layer_1" xmlns="http://www.w3.org/2000/svg" viewBox="0 0 512 512">
  <path fill="#444" d="M399.2 174.2c0-.3 0-.6-.1-.9v-.1c-.1-.3-.1-.5-.2-.7 0-.1-.1-.2-.1-.3-.1-.2-.2-.4-.3-.5 0-.1-.1-.2-.2-.2-.2-.2-.3-.4-.5-.6l-.1-.1L303 76.6c-.2-.2-.4-.4-.7-.5-.1 0-.1-.1-.2-.1-.2-.1-.4-.2-.5-.3-.1 0-.2-.1-.3-.1-.2-.1-.5-.2-.7-.2h-.1c-.3-.1-.6-.1-.9-.1H117.8c-2.8 0-5 2.2-5 5V434c0 2.8 2.2 5 5 5h276.4c2.8 0 5-2.2 5-5V174.2zm-94.7-82l77.6 77.1h-77.6V92.2zM122.8 428.8V85.2h171.7v89.1c0 2.8 2.2 5 5 5h89.7v249.5H122.8z"/>
  <path fill="#FF9248" d="M256 229.9c-35.9 0-65.1 29.2-65.1 65.1s29.2 65.1 65.1 65.1c35.9 0 65.1-29.2 65.1-65.1s-29.2-65.1-65.1-65.1zm0 120.2c-30.4 0-55.1-24.7-55.1-55.1s24.7-55.1 55.1-55.1 55.1 24.7 55.1 55.1-24.7 55.1-55.1 55.1z"/>
  <path fill="#FF9248" d="M294.2 269.8c-2-2-5.1-2-7.1 0l-40.9 40.9-13.5-13.5c-2-2-5.1-2-7.1 0s-2 5.1 0 7.1l17.1 17.1c1 1 2.3 1.5 3.5 1.5 1.3 0 2.6-.5 3.5-1.5l44.4-44.4c2.1-2.1 2.1-5.2.1-7.2z"/>
</svg>
