<?xml version="1.0" encoding="utf-8"?>
<!-- Generator: Adobe Illustrator 19.2.0, SVG Export Plug-In . SVG Version: 6.00 Build 0)  -->
<svg version="1.1" id="Layer_1" xmlns="http://www.w3.org/2000/svg" xmlns:xlink="http://www.w3.org/1999/xlink" x="0px" y="0px"
	 viewBox="0 0 512 512" style="enable-background:new 0 0 512 512;" xml:space="preserve">
<g>
	<path d="M495.7,415.3h-62c-8.8,0-16,7.2-16,16s7.2,16,16,16h23.2c-18.2,20.9-44.8,33.2-72.9,33.2c-53.2,0-96.5-43.3-96.5-96.5
		s43.3-96.5,96.5-96.5c45.6,0,85.4,32.4,94.5,77c1.8,8.7,10.2,14.2,18.9,12.5c8.7-1.8,14.2-10.2,12.5-18.9
		c-5.9-28.6-21.5-54.6-44.1-73.2c-22.9-18.9-52-29.4-81.8-29.4c-70.9,0-128.5,57.6-128.5,128.5S313.1,512.5,384,512.5
		c36.7,0,71.5-15.7,95.7-42.7v23.5c0,8.8,7.2,16,16,16s16-7.2,16-16v-62C511.7,422.5,504.5,415.3,495.7,415.3z"/>
	<path d="M143.8,287h90.9c7.6-11.7,16.5-22.4,26.6-32H143.8c-8.7,0-15.8-7.1-15.8-15.8v-0.3c0-8.7,7.1-15.9,15.8-15.9H308
		c23-10.9,48.8-17,76-17c22.6,0,44.1,4.2,64,11.9V32c0-17.6-14.4-32-32-32H96C78.4,0,64,14.4,64,32v463.9c0,6.5,3.9,12.3,9.9,14.8
		c6,2.4,12.9,1,17.5-3.6l40.1-50.8c3.3-4.2,9.6-4,12.7,0.2l36.2,49.2c2.8,3.6,7.1,5.8,11.7,6.1c4.6,0.3,9.1-1.4,12.3-4.7l27.2-31.2
		C215.3,449.1,206,417.6,206,384c0-22.9,4.3-44.9,12.2-65h-74.4c-8.7,0-15.8-7.1-15.8-15.8v-0.3C128,294.2,135.1,287,143.8,287z
		 M128,143.8c0-8.7,7.1-15.8,15.8-15.8h96.4c8.7,0,15.8,7.1,15.8,15.8v0.4c0,8.7-7.1,15.8-15.8,15.8h-96.4
		c-8.7,0-15.8-7.1-15.8-15.8V143.8z"/>
</g>
</svg>
