<?xml version="1.0" encoding="utf-8"?>
<!-- Generator: Adobe Illustrator 19.2.0, SVG Export Plug-In . SVG Version: 6.00 Build 0)  -->
<svg version="1.1" id="Layer_1" xmlns="http://www.w3.org/2000/svg" xmlns:xlink="http://www.w3.org/1999/xlink" x="0px" y="0px"
	 viewBox="0 0 512 512" style="enable-background:new 0 0 512 512;" xml:space="preserve">
<g>
	<path d="M352,301c-6.6,0-12,5.4-12,12v59H216.1l21.8-22.1c4.7-4.7,4.7-12.3,0-17s-12.3-4.7-17,0l-40.6,42.6
		c-4.6,4.6-4.7,12-0.3,16.7l41.3,44c2.4,2.5,5.6,3.8,8.7,3.8c2.9,0,5.9-1.1,8.2-3.3c4.8-4.5,5.1-12.1,0.5-17L218.1,397H352
		c6.6,0,12-4.7,12-11.3V313C364,306.4,358.7,301,352,301z"/>
	<path d="M274.8,272.2c-4.7,4.7-4.7,12.3,0,17c2.3,2.3,5.4,3.5,8.5,3.5s6.1-1.2,8.5-3.5l40.7-40.7c4.6-4.6,4.7-12,0.3-16.7l-41.3-44
		c-4.5-4.8-12.1-5.1-17-0.5c-4.8,4.5-5.1,12.1-0.5,17l22.3,23.8H160c-6.6,0-12,5.4-12,12v70.7c0,6.6,5.4,12,12,12
		c11.4,0,12-5.4,12-12V252h122.9L274.8,272.2z"/>
</g>
<g>
	<path d="M442.9,132.3c-0.2-0.2-0.4-0.4-0.6-0.7l-126-126c-0.2-0.2-0.4-0.4-0.7-0.6c-2.9-3-7-5-11.6-5H95.8C78.1,0,64,14.3,64,32
		v448c0,17.7,14.1,32,31.8,32H416c17.7,0,32-14.3,32-32V144C448,139.4,446,135.3,442.9,132.3z M320,54.6l73.2,73.4H336
		c-8.8,0-16-7.2-16-16V54.6z M416,464c0,8.8-6.7,16-16,16H112c-10.3,0-16.2-7.2-16.2-16V48c0-8.8,7.2-16,16-16H280c4.4,0,8,3.6,8,8
		v88c0,17.7,14.3,32,32,32h88c4.4,0,8,3.6,8,8V464z"/>
</g>
</svg>
