<?xml version="1.0" encoding="utf-8"?>
<!-- Generator: Adobe Illustrator 19.2.0, SVG Export Plug-In . SVG Version: 6.00 Build 0)  -->
<svg version="1.1" id="Layer_1" xmlns="http://www.w3.org/2000/svg" xmlns:xlink="http://www.w3.org/1999/xlink" x="0px" y="0px"
	 viewBox="0 0 512 512" style="enable-background:new 0 0 512 512;" xml:space="preserve">
<g id="Layer_2_2_">
	<g id="recurring_expens_1_">
		<g>
			<path d="M113.6,307.4c0-79.9,64.3-145.7,143.7-145.7c29.8,0,57.4,8.6,80.3,23.8c13.4,8.9,31.2,7.4,42.6-4.1l0.5-0.5
				c14.9-15,12.5-40.1-5.1-51.8c-33.7-22.5-74.5-34.9-118.3-34.9c-116.8,0-211.3,96.3-211.3,213.3H6.2c-5.5,0-8.3,6.7-4.3,10.6
				l78.4,78.6l78.5-78.6c3.9-3.9,1.1-10.6-4.3-10.6h-40.9V307.4z"/>
			<path d="M431.7,213l-78.5,78.6c-3.9,3.9-1.1,10.6,4.3,10.6h40.9c0,79.8-64.3,141-143.7,141c-29.8,0-57.4-9.8-80.4-25.8
				c-13.3-9.2-31.2-7.9-42.8,3.4l-0.2,0.2c-14.8,14.6-12.9,39.2,4.1,51.2c33.9,24,75,39.1,119.3,39.1
				c116.8,0,211.3-92.1,211.3-209.2h39.7c5.5,0,8.3-6.7,4.3-10.6L431.7,213z"/>
		</g>
		<path d="M267.9,393.2v-18.7c20.7-3.4,44.5-18.2,44.5-44.2c0-33.8-36.1-43.3-61-54.7c-12.2-6.1-10.9-19.3,7.2-20.3
			c14.6-0.8,29.9,4.8,39.2,7.9c0,0,5.6-25.6,6.9-31.5c-13.4-4.2-26.5-6.3-36.8-7.1v-12.3H241v13.9c-32.1,6.4-41,28.2-41,44
			c0,38.2,45.7,44.5,59.1,50.5c15.6,6.7,12.4,18.8-0.9,21.7c-15.2,3.3-35.8-3.6-50-9.1l-9.1,30.8c12.5,6.9,26.4,11.5,41.9,12.6v21.1
			h27.3L267.9,393.2z"/>
	</g>
</g>
</svg>
