<?xml version="1.0" encoding="utf-8"?>
<!-- Generator: Adobe Illustrator 19.1.0, SVG Export Plug-In . SVG Version: 6.00 Build 0)  -->
<svg version="1.1" id="Layer_1" xmlns="http://www.w3.org/2000/svg" xmlns:xlink="http://www.w3.org/1999/xlink" x="0px" y="0px"
	 viewBox="0 0 512 512" style="enable-background:new 0 0 512 512;" xml:space="preserve">
<path d="M433,511c-4.3,0-8.4-1.7-11.5-4.9l-49.2-50.8l-38.7,49.5c-2.8,3.6-7.1,5.8-11.6,6.1c-4.6,0.3-9-1.4-12.3-4.7l-52.6-52.6
	l-51.7,52.5c-3.2,3.3-7.7,5-12.3,4.7s-8.9-2.5-11.7-6.1l-38.8-49.6l-50.2,51c-4.6,4.6-11.5,6-17.5,3.6c-6-2.5-9.9-8.3-9.9-14.8V31
	C65,13.4,79.4-1,97-1h320c17.6,0,32,14.4,32,32v464c0,6.5-4,12.4-10,14.8C437.1,510.6,435,511,433,511z M257,415
	c4.2,0,8.3,1.7,11.3,4.7l44.8,44.8c3.4,3.4,9,3.1,12-0.7l33.3-42.6c2.8-3.6,7.1-5.9,11.8-6.1c4.6-0.2,9.1,1.5,12.3,4.8l31.1,32.1
	c1.3,1.3,3.4,0.4,3.4-1.4V47c0-8.8-7.2-16-16-16H113c-8.8,0-16,7.2-16,16v404.1c0,1.8,2.2,2.7,3.4,1.4l32.2-32.7
	c3.2-3.3,7.7-5,12.3-4.7s8.9,2.5,11.7,6.1l33.2,42.5c3,3.8,8.6,4.1,12,0.7l43.8-44.5C248.6,416.7,252.7,415,257,415L257,415z"/>
<path d="M353,212.9c-6.6,0-12,5.4-12,12v59H215.3l21.8-22.1c4.7-4.7,4.7-12.3,0-17s-12.3-4.7-17,0l-40.6,42.6
	c-4.6,4.6-4.7,12-0.3,16.7l41.3,44c2.4,2.5,5.6,3.8,8.7,3.8c2.9,0,5.9-1.1,8.2-3.3c4.8-4.5,5.1-12.1,0.5-17l-20.6-22.7H353
	c6.6,0,12-4.7,12-11.3v-72.7C365,218.3,359.7,212.9,353,212.9z"/>
<path d="M274.2,184.1c-4.7,4.7-4.7,12.3,0,17c2.3,2.3,5.4,3.5,8.5,3.5s6.1-1.2,8.5-3.5l40.7-40.7c4.6-4.6,4.7-12,0.3-16.7l-41.3-44
	c-4.5-4.8-12.1-5.1-17-0.5c-4.8,4.5-5.1,12.1-0.5,17l22.3,23.8H161c-6.6,0-12,5.4-12,12v70.7c0,6.6,5.4,12,12,12s12-5.4,12-12v-58.8
	h121.3L274.2,184.1z"/>
</svg>
