<?xml version="1.0" encoding="utf-8"?>
<!-- Generator: Adobe Illustrator 19.2.0, SVG Export Plug-In . SVG Version: 6.00 Build 0)  -->
<svg version="1.1" id="Layer_1" xmlns="http://www.w3.org/2000/svg" xmlns:xlink="http://www.w3.org/1999/xlink" x="0px" y="0px"
	 viewBox="0 0 512 512" style="enable-background:new 0 0 512 512;" xml:space="preserve">
<g>
	<path d="M272,384v-26.3c18.5-1.7,26.4-7.4,37-16.8c10.7-9.4,16-22.1,16-38c0-16.1-5.2-28.7-15.8-37.9c-10.5-9.2-26.4-17.3-48-24.3
		c-14.2-4.5-24-9.3-29.4-14.2c-5.4-5-8.2-11.5-8.2-19.4c0-8.5,2.6-15.3,7.8-20.3c5.2-5,13-7.6,23.4-7.6c10,0,17.8,3.4,23.5,10.1
		c3.3,3.9,5.7,8.5,7.2,14c2.2,7.9,9.3,13.5,17.6,13.5c12.3,0,21-12,17.3-23.8c-2.4-7.7-6.2-14.4-11.3-20.3
		c-9.8-11.1-19.8-17.8-37.1-20.2V128c0-8.8-6.9-16-15.7-16s-16.3,7.2-16.3,16v24.2c-17.6,1.8-27.6,7.7-37.9,17.5
		c-10.3,9.8-15.4,22.3-15.4,37.6c0,16.1,5.4,28.8,16.1,38.1c10.7,9.3,26.8,17.3,48.3,23.9c13.3,4.2,22.7,8.9,28.3,14.1
		c5.6,5.1,8.5,11.7,8.5,19.5c0,8.6-3.1,15.4-9.3,20.3c-6.2,5-15,7.5-26.2,7.5c-10.6,0-19.4-2.8-26.4-8.4c-4.4-3.5-7.3-8.3-9.1-14.6
		c-2.1-8-9.2-13.5-17.3-13.6c-12.2-0.1-21.1,11.8-17.6,23.6c2.8,9,7.4,16.5,14,22.2c11.7,10.1,24.9,16.1,43,17.8V384
		c0,8.8,8.2,16,17,16S272,392.8,272,384z"/>
	<path d="M97.6,97.6c20.6-20.6,44.5-36.7,71.2-48c23-9.7,47.2-15.5,72.1-17.1c8.4-0.6,15-7.5,15-15.9v-0.1c0-9.2-7.7-16.5-16.9-15.9
		C105.6,9.3,0,120.3,0,256c0,76.5,33.5,145.1,86.7,192H48c-8.8,0-16,7.2-16,16s7.2,16,16,16h80c8.8,0,16-7.2,16-16v-80
		c0-8.8-7.2-16-16-16s-16,7.2-16,16v43.6c-5-4.2-9.8-8.6-14.4-13.2c-20.6-20.6-36.7-44.5-48-71.2C37.9,315.6,32,286.3,32,256
		s5.9-59.6,17.6-87.2C60.9,142.1,77,118.2,97.6,97.6z"/>
	<path d="M425.3,64H464c8.8,0,16-7.2,16-16s-7.2-16-16-16h-79c-8.8,0-16,7.2-16,16v80c0,8.8,7.2,16,16,16s16-7.2,16-16V85.3
		c4.6,3.9,9.1,8,13.4,12.3c20.6,20.6,36.7,44.5,48,71.2c11.7,27.6,17.6,56.9,17.6,87.2s-5.9,59.6-17.6,87.2
		c-11.3,26.7-27.4,50.6-48,71.2c-20.6,20.6-44.5,36.7-71.2,48c-23,9.7-47.2,15.5-72.1,17.1c-8.4,0.6-15,7.5-15,15.9v0.1
		c0,9.2,7.7,16.5,16.9,15.9C406.4,502.7,512,391.7,512,256C512,179.5,478.5,110.9,425.3,64z"/>
</g>
</svg>
