<?xml version="1.0" encoding="utf-8"?>
<!-- Generator: Adobe Illustrator 19.2.0, SVG Export Plug-In . SVG Version: 6.00 Build 0)  -->
<svg version="1.1" id="Layer_1" xmlns="http://www.w3.org/2000/svg" xmlns:xlink="http://www.w3.org/1999/xlink" x="0px" y="0px"
	 viewBox="0 0 512 512" style="enable-background:new 0 0 512 512;" xml:space="preserve">
<g>
	<path d="M38.7,27.9H20.4C9.2,27.9,0,38.6,0,51.7v204c0,13.3,9.2,23.8,20.4,23.8h18.2c11.3,0,20.4-10.7,20.4-23.8v-204
		C59.1,38.6,49.9,27.9,38.7,27.9z"/>
	<path d="M509.1,172.2c0-12.5-3.3-24.9-9.7-35.8L436.7,29.2c-8.4-14.7-24.3-23.8-41.5-23.8c-64.1,0.4-151.7,0-213.5-0.2l-19-0.1
		c-27.5,0-44.9,12-54.6,22.1C99.5,36,94.8,47.8,94.8,60.1v217c0,12.1,4.5,23.7,12.6,32.3c9.7,10.4,17.8,22.1,24,31.1
		c16.1,23.7,30.5,48.6,42.8,74c0.2,9.2,0.2,31.2,0.1,48.8c0,12.8,4.8,24.8,13.9,33.8c9,9,21.1,14,33.8,14h34.2
		c17.6,0,33.7-9.7,42-25.3c8.3-15.7,14.5-30.1,19.8-53.2c4.1-17.3,3.2-34.4,2.1-47.3c-0.9-9.9-3.5-23.9-6.2-36.6l147.8-0.1
		c26.3-0.1,47.6-21.6,47.6-47.8L509.1,172.2z M461.7,303.3l-176.3,0.1c-7.1,0-13.6,3.2-18,8.8c-4.3,5.5-5.8,12.6-4.2,19.5
		c2.7,11.2,10.2,43.5,11.5,58.1c1,10,1.6,21.7-1,32.7c-4.2,18.3-8.8,28.9-15.7,41.9c-0.4,0.6-1.1,1.1-1.9,1.1l-36.1-2
		c0.2-58.4,0.1-58.6-2.6-64.6c-13.9-29-30-57.2-48.2-84c-6.9-10.4-16.6-23.9-28.7-37.8L141,58.9c5.2-5.3,12.5-8.1,21.7-8.1l18.8,0.2
		c41.8,0.1,95.4,0.4,145.6,0.4c23.9-0.1,47.5-0.1,70.1,0.7l62.6,107.2c2.2,4,3.5,8.6,3.5,13.1L461.7,303.3z"/>
</g>
</svg>
