<?xml version="1.0" encoding="utf-8"?>
<!-- Generator: Adobe Illustrator 19.2.0, SVG Export Plug-In . SVG Version: 6.00 Build 0)  -->
<svg version="1.1" id="Layer_8" xmlns="http://www.w3.org/2000/svg" xmlns:xlink="http://www.w3.org/1999/xlink" x="0px" y="0px"
	 viewBox="0 0 512 512" style="enable-background:new 0 0 512 512;" xml:space="preserve">
<g>
	<path d="M464.7,442.8c0,0-35.2-9.5-39.1-23s11.7-38.5,11.7-38.5s23.5-23.1,7.8-34.7c0,0,15.6-61.8-46.9-61.8
		c-62.8,0-47.1,61.8-47.1,61.8c-15.7,11.6,7.8,34.8,7.8,34.8s15.7,25.1,11.8,38.6c-3.9,13.5-39.2,22.8-39.2,22.8
		c-54.9,3.9-47.1,69.2-47.1,69.2h227.2C511.6,511.9,519.4,446.6,464.7,442.8z"/>
	<path d="M298.3,305.9h0.6c12,0,21.6-9.1,21.6-21.3v-39.2c0-8.7-5-16.3-10-19.8v46.7c0,12.2-12,23.6-24,23.6h-28.3l-19.1,10h24
		l38.7,25L298.3,305.9z"/>
	<path d="M180.6,442.8c0,0-35.2-9.5-39.1-23c-3.9-13.5,11.7-38.5,11.7-38.5s23.5-23.1,7.8-34.7c0,0,15.7-61.8-46.9-61.8
		c-62.8,0-47.1,61.8-47.1,61.8c-15.7,11.6,7.8,34.8,7.8,34.8s15.7,25.1,11.8,38.6c-3.9,13.5-39.2,22.8-39.2,22.8
		C-7.5,446.7,0.3,512,0.3,512h227.2C227.5,511.9,235.4,446.6,180.6,442.8z"/>
	<path d="M213.1,284.9h5.2l-3.5,25.1l35.4-25.1h26.2c12,0,23.1-9.1,23.1-21.3v-39.2c0-12.2-11.1-21.6-23.1-21.6h-63.2
		c-12,0-21.6,9.4-21.6,21.6v39.2C191.5,275.8,201.2,284.9,213.1,284.9z M274.4,234.9c5.1,0,9.2,4.2,9.2,9.3s-4.1,9.3-9.2,9.3
		s-9.2-4.2-9.2-9.3C265.2,239.1,269.3,234.9,274.4,234.9z M245.5,234.9c5.1,0,9.2,4.2,9.2,9.3s-4.1,9.3-9.2,9.3
		c-5.1,0-9.2-4.2-9.2-9.3S240.4,234.9,245.5,234.9z M215.7,234.9c5.1,0,9.2,4.2,9.2,9.3s-4.1,9.3-9.2,9.3c-5.1,0-9.2-4.2-9.2-9.3
		S210.6,234.9,215.7,234.9z"/>
</g>
</svg>
