<?xml version="1.0" encoding="utf-8"?>
<!-- Generator: Adobe Illustrator 19.2.0, SVG Export Plug-In . SVG Version: 6.00 Build 0)  -->
<svg version="1.1" id="Layer_1" xmlns="http://www.w3.org/2000/svg" xmlns:xlink="http://www.w3.org/1999/xlink" x="0px" y="0px"
	 viewBox="0 0 512 512" style="enable-background:new 0 0 512 512;" xml:space="preserve">
<path d="M455.2,9.2L256,208.4L56.8,9.2C44.5-3.1,24.6-3.1,12.2,9.2l-2.9,2.9C-3,24.4-3,44.4,9.3,56.7L208.4,256L9.2,455.2
	c-12.3,12.3-12.3,32.3,0,44.6l2.9,2.9c12.3,12.3,32.3,12.3,44.6,0L256,303.6l199.2,199.2c12.3,12.3,32.3,12.3,44.6,0l2.9-2.9
	c12.3-12.3,12.3-32.3,0-44.6L303.6,256L502.8,56.8c12.3-12.3,12.3-32.3,0-44.6l-2.9-2.9C487.4-3.1,467.5-3.1,455.2,9.2z"/>
</svg>
