<?xml version="1.0" encoding="utf-8"?>
<!-- Generator: Adobe Illustrator 19.2.0, SVG Export Plug-In . SVG Version: 6.00 Build 0)  -->
<svg version="1.1" id="Layer_2" xmlns="http://www.w3.org/2000/svg" xmlns:xlink="http://www.w3.org/1999/xlink" x="0px" y="0px"
	 viewBox="0 0 512 512" style="enable-background:new 0 0 512 512;" xml:space="preserve">
<path d="M461.7,395.9l43.8,8.5c6.2,1.2,8.6,8.7,4.3,13.3l-30.6,32.9c-1.6,1.7-2.4,4.1-2.1,6.4l5.6,44.8c0.8,6.3-5.7,10.9-11.4,8.2
	L431,490.9c-2.2-1-4.7-1-6.8,0L383.9,510c-5.7,2.7-12.1-2-11.4-8.2L378,457c0.3-2.3-0.5-4.7-2.1-6.4l-30.6-32.9
	c-4.3-4.6-1.8-12.1,4.3-13.3l43.8-8.5c2.3-0.5,4.4-1.9,5.5-4l21.6-39.4c3-5.5,11-5.5,14,0l21.6,39.4
	C457.3,393.9,459.3,395.4,461.7,395.9z"/>
<path d="M224.9,58c44.9,0.4,81.8,37.3,82.1,82.2c0.2,22.3-8.4,43.4-24.1,59.2C267.2,215.3,246.3,224,224,224h-0.9
	c-44.9-0.4-81.8-37.3-82.1-82.2c-0.2-22.3,8.4-43.4,24.1-59.2C180.8,66.7,201.7,58,224,58H224.9 M225,26c-0.3,0-0.7,0-1,0
	c-63.8,0-115.5,52-115,116c0.5,62.4,51.6,113.5,114,114c0.3,0,0.7,0,1,0c63.8,0,115.5-52,115-116C338.5,77.6,287.4,26.5,225,26
	L225,26z"/>
<path d="M224.2,318.8c26.6,0,52.4,5.3,76.7,15.8c12.6,5.4,24.4,12.1,35.4,20l-23.6,6.1c-15.3,3.4-27.7,14.5-32.6,29.4
	c-4.8,14.6-1.7,30.6,8.1,42.4l31.8,43.6l-0.5,3.9h-287c0.3-2.1,0.8-4.8,1.6-8.3c2.5-10.3,7-22.1,10.1-30.1
	c14-35.8,38.2-66.4,69.9-88.4C146.5,330.7,184.6,318.8,224.2,318.8 M224.2,286.8c-95.4,0-177,59.4-209.8,143.2
	c-15.4,39.4-27.5,82,14.8,82H339c5,0,9.3-3.8,9.9-8.8l3.8-30.9c0.5-3.7-0.7-7.3-3.2-10l-36.3-49.7c-6.7-7.2-2.9-18.9,6.8-20.7
	l56.9-14.8c3.6-0.7,6.8-3,8.6-6.3l2-3.7c2.1-3.8,1.5-8.6-1.5-11.7C345.1,313.1,287.7,286.8,224.2,286.8L224.2,286.8z"/>
</svg>
