<svg data-name="35101380-2e54-4759-b054-97c5ff02d58c" xmlns="http://www.w3.org/2000/svg" viewBox="0 0 73.67 82.31">
  <path d="M41,35A13,13,0,1,1,28,22V35Z" />
  <path d="M44,33H30V19h1A14,14,0,0,1,44,32Z" />
  <polygon points="60 69.54 60 78 51.8 78 60 69.54" />
  <polygon points="60 0 60 29.31 55 34.47 55 5 5 5 5 73 17.66 73 13 77.8 13.2 78 0 78 0 0 60 0" />
  <polygon points="69.72 47.62 39.94 78.51 30.34 68.83 60.12 37.94 69.72 47.62" />
  <path d="M73.1,44.07l-2.18,2.27-9.6-9.68,2.18-2.27a2,2,0,0,1,2.8,0l6.78,6.84a2,2,0,0,1,0,2.83h0Z" />
  <polygon points="38.75 79.74 26.8 82.31 29.15 70.06 38.75 79.74" />
</svg>
