<?xml version="1.0" encoding="utf-8"?>
<!-- Generator: Adobe Illustrator 19.1.0, SVG Export Plug-In . SVG Version: 6.00 Build 0)  -->
<svg version="1.1" id="Layer_1" xmlns="http://www.w3.org/2000/svg" xmlns:xlink="http://www.w3.org/1999/xlink" x="0px" y="0px"
	 viewBox="0 0 512 512" style="enable-background:new 0 0 512 512;" xml:space="preserve">
<path d="M423.1,79.1c-3.8-3.4-9-4.7-14-3.6l-34,7.4c-8.6,1.9-14.1,10.4-12.2,19.1c1.9,8.6,10.4,14.1,19.1,12.2l12.7-2.8l-5.9,69.2
	c0,0,0,0.1,0,0.1l-6.7,86l-181.6,207L60.9,351.3l181.6-207l62.3-13.2c8.6-1.8,14.2-10.3,12.3-19c-1.8-8.6-10.3-14.2-19-12.3
	L230.6,114c-3.4,0.7-6.4,2.5-8.7,5.1L26.3,342.2c-5.8,6.6-5.2,16.8,1.5,22.6l163.8,143.6c2.9,2.6,6.7,4,10.5,4c0.3,0,0.7,0,1,0
	c4.2-0.3,8.2-2.2,11-5.4l195.6-223.1c2.3-2.6,3.7-5.9,3.9-9.3l7.1-91.3l7.7-90.8C429,87.4,427,82.5,423.1,79.1z"/>
<path d="M455,6.5c-15.1-8.1-33.5-9-53.3-2.5c-6.5,2.1-16.6,6.2-27.9,13.7c-27.7,18.2-45.3,50.9-50.9,94.6c-1.4,10.7-1.9,21-1.9,30
	c-3.4,1.9-6.6,4.5-9.3,7.6c-13.1,15-11.6,37.8,3.3,50.9s37.8,11.6,50.9-3.3s11.6-37.8-3.3-50.9c-2.9-2.6-6.2-4.6-9.6-6.1
	c0.1-7.4,0.5-15.6,1.6-24.1c4.4-34.6,16.8-58.8,36.7-71.9c7-4.6,31.3-19,48.4-9.7c11.7,6.3,18.8,22.1,17.8,39.3
	c-0.6,8.8,6.2,16.4,15,17c8.8,0.5,16.4-6.1,17-15C491.4,46,477.8,18.8,455,6.5z"/>
</svg>
