<?xml version="1.0" encoding="utf-8"?>
<!-- Generator: Adobe Illustrator 19.2.0, SVG Export Plug-In . SVG Version: 6.00 Build 0)  -->
<svg version="1.1" id="Layer_1" xmlns="http://www.w3.org/2000/svg" xmlns:xlink="http://www.w3.org/1999/xlink" x="0px" y="0px"
	 viewBox="0 0 512 512" style="enable-background:new 0 0 512 512;" xml:space="preserve">
<path d="M449.8,63.6c-33.9,0-61.4,27.5-61.4,61.4c0,16.3,6.4,31.2,16.8,42.2l-61.7,116.1c-5.6-1.7-11.5-2.6-17.6-2.6
	c-9.2,0-18,2.1-25.9,5.7l-43-52.9c6-9.5,9.5-20.7,9.5-32.7c0-33.9-27.5-61.4-61.4-61.4s-61.4,27.5-61.4,61.4
	c0,14.5,5,27.7,13.4,38.2l-73.2,90.4c-6.6-2.4-13.7-3.7-21.1-3.7c-33.9,0-61.4,27.5-61.4,61.4s27.5,61.4,61.4,61.4
	s61.4-27.5,61.4-61.4c0-14.7-5.2-28.2-13.8-38.8l73-90.1c6.8,2.6,14.1,4,21.7,4c10.1,0,19.5-2.4,27.9-6.7l42.2,51.9
	c-6.8,9.9-10.7,21.8-10.7,34.7c0,33.9,27.5,61.4,61.4,61.4s61.4-27.5,61.4-61.4c0-16-6.1-30.5-16.1-41.4L433,184.2
	c5.3,1.5,10.9,2.3,16.7,2.3c33.9,0,61.4-27.5,61.4-61.4C511.2,91.2,483.6,63.6,449.8,63.6z M62.7,417.9c-17,0-30.7-13.7-30.7-30.7
	s13.7-30.7,30.7-30.7s30.7,13.7,30.7,30.7C93.4,404.2,79.7,417.9,62.7,417.9z M174.3,200.8c0-17,13.7-30.7,30.7-30.7
	s30.7,13.7,30.7,30.7S222,231.5,205,231.5C188,231.6,174.3,217.8,174.3,200.8z M325.8,372.9c-17,0-30.7-13.7-30.7-30.7
	s13.7-30.7,30.7-30.7s30.7,13.7,30.7,30.7C356.6,359.2,342.8,372.9,325.8,372.9z M449.8,155.8c-17,0-30.7-13.7-30.7-30.7
	s13.7-30.7,30.7-30.7s30.7,13.7,30.7,30.7S466.7,155.8,449.8,155.8z"/>
</svg>
