<?xml version="1.0" encoding="utf-8"?>
<!-- Generator: Adobe Illustrator 19.1.0, SVG Export Plug-In . SVG Version: 6.00 Build 0)  -->
<svg version="1.1" id="Layer_1" xmlns="http://www.w3.org/2000/svg" xmlns:xlink="http://www.w3.org/1999/xlink" x="0px" y="0px"
	 viewBox="0 0 512 512" style="enable-background:new 0 0 512 512;" xml:space="preserve">
<path d="M442.9,132.3c-0.2-0.2-0.4-0.4-0.6-0.7l-126-126c-0.2-0.2-0.4-0.4-0.7-0.6c-2.9-3-7-5-11.6-5H96C78.3,0,64,14.3,64,32v448
	c0,17.7,14.3,32,32,32h320c17.7,0,32-14.3,32-32V144C448,139.4,446,135.3,442.9,132.3z M320,54.6l73.4,73.4H336c-8.8,0-16-7.2-16-16
	V54.6z M416,464c0,8.8-7.2,16-16,16H112c-8.8,0-16-7.2-16-16V48c0-8.8,7.2-16,16-16h168c4.4,0,8,3.6,8,8v88c0,17.7,14.3,32,32,32h88
	c4.4,0,8,3.6,8,8V464z"/>
<path d="M256,224.3l27.7,50.1l56.3,10.8l-39.2,41.7l7.1,56.7L256,359.4l-51.9,24.3l7.1-56.7L172,285.2l56.3-10.8L256,224.3"/>
</svg>
