<?xml version="1.0" encoding="utf-8"?>
<!-- Generator: Adobe Illustrator 17.1.0, SVG Export Plug-In . SVG Version: 6.00 Build 0)  -->
<!DOCTYPE svg PUBLIC "-//W3C//DTD SVG 1.1//EN" "http://www.w3.org/Graphics/SVG/1.1/DTD/svg11.dtd">
<svg version="1.1" id="Layer_1" xmlns="http://www.w3.org/2000/svg" xmlns:xlink="http://www.w3.org/1999/xlink" x="0px" y="0px"
	 viewBox="0 0 512 512" enable-background="new 0 0 512 512" xml:space="preserve">
<path d="M288,9.7V144c0,8.8,7.2,16,16,16h134.3c3.6,0,5.3-4.3,2.8-6.8L294.8,6.8C292.3,4.3,288,6.1,288,9.7z"/>
<path d="M205.6,416h-61.8c-8.7,0-15.8-7.1-15.8-15.8v-0.3c0-8.7,7.2-15.9,15.9-15.9H202c2.2,0,3.9-1.7,4-3.9
	c0.2-8,0.9-15.8,2.1-23.5c0.4-2.4-1.5-4.6-3.9-4.6h-60.4c-8.7,0-15.8-7.1-15.8-15.8v-0.3c0-8.7,7.2-15.9,15.9-15.9h71.2
	c1.6,0,3.1-1,3.7-2.5C245.2,252.1,309.2,206,384,206c20.6,0,40.3,3.5,58.7,9.9c2.6,0.9,5.3-1,5.3-3.8V196c0-2.2-1.8-4-4-4H288
	c-17.7,0-32-14.3-32-32V4c0-2.2-1.8-4-4-4H80c-8.8,0-16,7.2-16,16v480c0,8.8,7.2,16,16,16h170.8c3.5,0,5.3-4.2,2.9-6.7
	c-22-23.6-37.6-53.2-44.2-86C209.1,417.4,207.5,416,205.6,416z"/>
<path d="M384,256c-70.7,0-128,57.3-128,128s57.3,128,128,128s128-57.3,128-128S454.7,256,384,256z M448,400h-64c-8.8,0-16-7.2-16-16
	v-63.5c0-8.6,6.6-16,15.2-16.4c9.2-0.4,16.8,6.9,16.8,16v40c0,4.4,3.6,8,8,8h39.5c8.6,0,16,6.6,16.4,15.2
	C464.4,392.4,457.1,400,448,400z"/>
</svg>
