<?xml version="1.0" encoding="utf-8"?>
<!-- Generator: Adobe Illustrator 19.1.0, SVG Export Plug-In . SVG Version: 6.00 Build 0)  -->
<svg version="1.1" id="Layer_1" xmlns="http://www.w3.org/2000/svg" xmlns:xlink="http://www.w3.org/1999/xlink" x="0px" y="0px"
	 viewBox="0 0 512 512" enable-background="new 0 0 512 512" xml:space="preserve">
<path d="M428,234H328c-27.6,0-50-22.4-50-50V84c0-11.9-9.3-22.1-21.2-22.5c-12.5-0.4-22.8,9.6-22.8,22V184c0,27.6-22.4,50-50,50H84
	c-11.9,0-22.1,9.3-22.5,21.2c-0.4,12.5,9.6,22.8,22,22.8H184c27.6,0,50,22.4,50,50v100c0,11.9,9.3,22.1,21.2,22.5
	c12.5,0.4,22.8-9.6,22.8-22V328c0-27.6,22.4-50,50-50h100.5c12.4,0,22.4-10.3,22-22.8C450.1,243.3,439.9,234,428,234z"/>
</svg>
