<?xml version="1.0" encoding="utf-8"?>
<!-- Generator: Adobe Illustrator 19.1.0, SVG Export Plug-In . SVG Version: 6.00 Build 0)  -->
<svg version="1.1" id="Layer_1" xmlns="http://www.w3.org/2000/svg" xmlns:xlink="http://www.w3.org/1999/xlink" x="0px" y="0px"
	 viewBox="0 0 512 512" enable-background="new 0 0 512 512" xml:space="preserve">
<path d="M481.9,363.1c-0.6-5.4-3.4-10.4-7.7-13.7c-4.3-3.4-9.7-4.9-15.1-4.3l-108.4,12.7c-11.3,1.3-19.4,11.5-18,22.8
	c1.3,11.3,11.5,19.4,22.8,18l62.9-7.4c-24,28.9-55.8,51.3-91.3,64.1c-43.4,15.6-89.7,16.7-133.9,3.1
	c-43.9-13.6-81.4-40.3-108.4-77.4c-26.1-35.9-40.5-79.9-40.6-124c0-11.3-9.2-20.5-20.6-20.5l0,0c-11.4,0-20.5,9.3-20.5,20.6
	c0.1,52.7,17.3,105.3,48.5,148.1c32.2,44.3,77,76.3,129.5,92.5c24.5,7.6,49.6,11.4,74.6,11.4c28.8,0,57.6-5,85.3-15
	c41-14.8,77.9-40.4,106.2-73.3l6.4,54.4c1.2,10.5,10.1,18.2,20.4,18.2c0.8,0,1.6,0,2.4-0.1c11.3-1.3,19.4-11.5,18-22.8L481.9,363.1z
	"/>
<path d="M460.7,109.4c-32.3-45.1-77.5-77.6-130.6-94c-53.3-16.4-109-15-161.3,4.2c-35.4,13-67.7,34-94,60.9l-1.6-55
	C72.9,14,63.5,5,52.1,5.4c-11.4,0.3-20.3,9.8-20,21.1l3.1,108c0.3,11.2,9.5,20,20.5,20c0.2,0,0.4,0,0.6,0l109.1-3.1
	c11.4-0.3,20.3-9.8,20-21.1c-0.3-11.4-9.8-20.3-21.1-20l-62.9,1.8c22.5-23.9,50.6-42.6,81.6-54c43.7-16,90.4-17.2,135-3.5
	c44.5,13.7,82.3,40.9,109.3,78.7c26.2,36.5,40.3,81.3,39.7,125.9c-0.1,11.4,8.9,20.7,20.3,20.8c0.1,0,0.2,0,0.3,0
	c11.2,0,20.4-9,20.6-20.3C508.8,206.4,492,153,460.7,109.4z"/>
</svg>
