<?xml version="1.0" encoding="utf-8"?>
<!-- Generator: Adobe Illustrator 19.2.0, SVG Export Plug-In . SVG Version: 6.00 Build 0)  -->
<svg version="1.1" id="Layer_1" xmlns="http://www.w3.org/2000/svg" xmlns:xlink="http://www.w3.org/1999/xlink" x="0px" y="0px"
	 viewBox="0 0 512 512" style="enable-background:new 0 0 512 512;" xml:space="preserve">
<g>
	<path d="M-0.5,167v98.2c169,1.3,245,98.3,246.3,247.3h99.1C343.6,302.5,198.5,168.3-0.5,167z"/>
	<path d="M85.9,357.4c-37,0-66.9,29.7-66.9,66.3s30,66.3,66.9,66.3c37,0,66.9-29.7,66.9-66.3C152.8,387.1,122.8,357.4,85.9,357.4z"
		/>
	<path d="M-0.5,0v98.5h-0.3c117.8,0,214,52.4,288.4,126.2c74.6,73.9,125.7,169.8,126,287.8h99.1C512.1,220.5,286.5,0.9-0.5,0z"/>
</g>
</svg>
