<?xml version="1.0" encoding="utf-8"?>
<!-- Generator: Adobe Illustrator 19.1.0, SVG Export Plug-In . SVG Version: 6.00 Build 0)  -->
<svg version="1.1" id="Layer_1" xmlns="http://www.w3.org/2000/svg" xmlns:xlink="http://www.w3.org/1999/xlink" x="0px" y="0px"
	 viewBox="0 34 512 445" style="enable-background:new 0 34 512 445;" xml:space="preserve">

<path style="fill:#F9C648;" d="M106.3,273.6l149.6,57.7L409.7,272V44.8H106.3V273.6z M364.6,265.7H151.1c-3,0-5.4-2.4-5.4-5.4s2.4-5.4,5.4-5.4
	h213.5c3,0,5.4,2.4,5.4,5.4S367.5,265.7,364.6,265.7z M151.1,205.9h213.5c3,0,5.4,2.4,5.4,5.4s-2.4,5.4-5.4,5.4H151.1
	c-3,0-5.4-2.4-5.4-5.4S148.1,205.9,151.1,205.9z M369.9,159.4c0,3-2.4,5.4-5.4,5.4H151.1c-3,0-5.4-2.4-5.4-5.4c0-3,2.4-5.4,5.4-5.4
	h213.5C367.5,154,369.9,156.4,369.9,159.4z M151.1,102.1h114.2c3,0,5.4,2.4,5.4,5.4s-2.4,5.4-5.4,5.4H151.1c-3,0-5.4-2.4-5.4-5.4
	C145.7,104.5,148.1,102.1,151.1,102.1z"/>
<path style="fill:#336689;" d="M364.6,255H151.1c-3,0-5.4,2.4-5.4,5.4s2.4,5.4,5.4,5.4h213.5c3,0,5.4-2.4,5.4-5.4S367.5,255,364.6,255z"/>
<path style="fill:#336689;" d="M151.1,216.6h213.5c3,0,5.4-2.4,5.4-5.4s-2.4-5.4-5.4-5.4H151.1c-3,0-5.4,2.4-5.4,5.4S148.1,216.6,151.1,216.6z
	"/>
<path style="fill:#336689;" d="M151.1,154c-3,0-5.4,2.4-5.4,5.4s2.4,5.4,5.4,5.4h213.5c3,0,5.4-2.4,5.4-5.4c0-3-2.4-5.4-5.4-5.4H151.1z"/>
<path style="fill:#336689;" d="M151.1,112.8h114.2c3,0,5.4-2.4,5.4-5.4s-2.4-5.4-5.4-5.4H151.1c-3,0-5.4,2.4-5.4,5.4
	C145.7,110.4,148.1,112.8,151.1,112.8z"/>
<path style="fill:#44ADFC;" d="M495.4,430.3V250.7l-237.6,91.6c-1.3,0.5-2.7,0.5-3.9,0L16.6,250.7v179.5c0,20.9,16.4,37.8,36.5,37.8h405.8
	C479,468.1,495.4,451.1,495.4,430.3z"/>
<path style="fill:#336689;" d="M506.3,242.5c0-0.1,0-0.2,0-0.2c0-0.2-0.1-0.5-0.1-0.7v-0.1c-0.1-0.3-0.1-0.5-0.2-0.8c0-0.1-0.1-0.1-0.1-0.2
	c-0.1-0.2-0.2-0.4-0.3-0.5c0-0.1-0.1-0.1-0.1-0.2c-0.1-0.2-0.3-0.4-0.4-0.6c0,0,0-0.1-0.1-0.1c-0.2-0.2-0.4-0.4-0.6-0.6
	c-0.1-0.1-0.1-0.1-0.2-0.1c-0.1-0.1-0.2-0.1-0.3-0.2c-0.1-0.1-0.2-0.1-0.3-0.2l-0.1-0.1l-83.1-47.7V34H95.5v154l-87,50l-0.1,0.1
	c-0.1,0.1-0.2,0.1-0.3,0.2c-0.1,0.1-0.2,0.1-0.3,0.2c-0.1,0-0.1,0.1-0.2,0.1c-0.2,0.2-0.4,0.4-0.6,0.6c0,0,0,0.1-0.1,0.1
	c-0.1,0.2-0.3,0.4-0.4,0.5c0,0.1-0.1,0.1-0.1,0.2c-0.1,0.2-0.2,0.3-0.3,0.5c0,0.1-0.1,0.1-0.1,0.2c-0.1,0.2-0.2,0.5-0.2,0.7v0.1
	c0,0.2-0.1,0.4-0.1,0.6c0,0.1,0,0.2,0,0.3s0,0.2,0,0.2v187.5C5.7,457.2,27,479,53.1,479h405.8c26.1,0,47.4-21.9,47.4-48.8V242.8
	C506.3,242.7,506.3,242.6,506.3,242.5z M53.1,468.1c-20.1,0-36.5-17-36.5-37.8V250.7l237.2,91.6c1.3,0.5,2.7,0.5,3.9,0l237.6-91.6
	v179.5c0,20.9-16.4,37.8-36.5,37.8H53.1V468.1z M409.7,44.8V272l-153.8,59.3l-149.6-57.7V44.8H409.7z M95.5,248.2v21.2l-55-21.2
	H95.5z M420.4,267.9v-19.7h51L420.4,267.9z M420.4,237.3V203l59.9,34.3H420.4z M95.5,237.3H31.7l63.9-36.7v36.7H95.5z"/>
</svg>
