<?xml version="1.0" encoding="utf-8"?>
<!-- Generator: Adobe Illustrator 19.2.0, SVG Export Plug-In . SVG Version: 6.00 Build 0)  -->
<svg version="1.1" id="Layer_1" xmlns="http://www.w3.org/2000/svg" xmlns:xlink="http://www.w3.org/1999/xlink" x="0px" y="0px"
	 viewBox="0 0 512 512" style="enable-background:new 0 0 512 512;" xml:space="preserve">
<g>
	<path d="M424,122.1c-9.3-9.4-24.5-9.5-33.9-0.2L182.7,327.5l-78.1-74.8c-9.6-9.2-24.8-8.8-33.9,0.7c-9.2,9.6-8.8,24.8,0.7,33.9
		l95,91c4.6,4.5,10.6,6.7,16.6,6.7c6.1,0,12.2-2.3,16.9-7l224-222C433.3,146.7,433.4,131.5,424,122.1z"/>
	<path d="M474.3,0h-48.5C414.3,0,405,9.3,405,20.9v0.3c0,11.5,9.3,20.8,20.8,20.8H458c6.1,0,11,4.9,11,11v32.2
		c0,11.5,9.3,20.8,20.8,20.8h0.4c11.5,0,20.8-9.3,20.8-20.8V36.7C511,16.5,494.5,0,474.3,0z"/>
	<path d="M19.8,106h0.4C31.7,106,41,96.7,41,85.2V53c0-6.1,4.9-11,11-11h32.2c11.5,0,20.8-9.3,20.8-20.9v-0.3C105,9.3,95.7,0,84.2,0
		H35.7C15.5,0-1,16.5-1,36.7v48.5C-1,96.7,8.3,106,19.8,106z"/>
	<path d="M490.1,406.1h-0.3c-11.5,0-20.8,9.3-20.8,20.8v32.2c0,6.1-4.9,11-11,11h-32.2c-11.5,0-20.8,9.3-20.8,20.8v0.3
		c0,11.5,9.3,20.8,20.8,20.8v0.1h48.4c20.2,0,36.7-16.5,36.7-36.7v-48.5C510.9,415.4,501.6,406.1,490.1,406.1z"/>
	<path d="M84.1,470H51.9c-6.1,0-11-4.9-11-11v-32.2c0-11.5-9.3-20.8-20.8-20.8h-0.3C8.3,406-1,415.3-1,426.8v48.5
		c0,20.2,16.5,36.7,36.7,36.7v-0.1h48.4c11.5,0,20.8-9.3,20.8-20.8v-0.3C104.9,479.3,95.6,470,84.1,470z"/>
</g>
</svg>
