<svg id="4317d7d2-8b0f-4259-afdb-384603bac1ba" data-name="Layer 1" xmlns="http://www.w3.org/2000/svg" viewBox="0 0 100.36 79">
  <polygon points="63.93 79 25.76 79 35.3 64.72 54.38 64.72 63.93 79" />
  <path d="M89.69,6V26.21a23.84,23.84,0,0,0-8-5.94V8H8V52H50.14a24,24,0,0,0,6.08,8H6a6,6,0,0,1-6-6V6A6,6,0,0,1,6,0H83.69A6,6,0,0,1,89.69,6Z" transform="translate(0 0)" />
  <path d="M71.77,31A10.93,10.93,0,0,1,82.69,41.91a10.81,10.81,0,0,1-2.23,6.6l-1.22,1.56-1.75,1.09a10.79,10.79,0,0,1-5.72,1.63,10.92,10.92,0,0,1,0-21.84m0-7A17.92,17.92,0,1,0,81.2,57.14a1.85,1.85,0,0,0,.23.34l4.4,5.21,9,10.66a2,2,0,0,0,2.82.24h0l2-1.72a2,2,0,0,0,.24-2.82h0l-9.12-10.8-4.28-5.07a1.89,1.89,0,0,0-.51-.43A17.91,17.91,0,0,0,71.77,24Z" transform="translate(0 0)" />
</svg>
