<?xml version="1.0" encoding="utf-8"?>
<!-- Generator: Adobe Illustrator 19.2.0, SVG Export Plug-In . SVG Version: 6.00 Build 0)  -->
<svg version="1.1" id="Layer_1" xmlns="http://www.w3.org/2000/svg" xmlns:xlink="http://www.w3.org/1999/xlink" x="0px" y="0px"
	 viewBox="0 0 512 512" style="enable-background:new 0 0 512 512;" xml:space="preserve">
<g>
	<path d="M256,281c-9.3,0-16.7,6.2-16.7,13.7v121.6c0,7.6,7.5,13.7,16.7,13.7c9.3,0,16.7-6.1,16.7-13.6V294.7
		C272.7,287.1,265.2,281,256,281z"/>
	<circle cx="256" cy="223.6" r="18"/>
	<path d="M498.7,477.9L264.6,15.5C261,8.4,252.5,3.9,245.9,4.2c-7.9,0.2-15,4.8-18.3,12L13.1,478.6c-3,6.3-2.5,13.8,1.3,19.7
		c3.7,5.9,10.3,9.5,17.3,9.5h448.6c7.2,0,13.8-3.7,17.6-9.8C501.6,491.9,501.9,484.3,498.7,477.9z M63.9,466.6L247.1,71.9
		l199.8,394.7H63.9z"/>
</g>
</svg>
