<?xml version="1.0" encoding="utf-8"?>
<!-- Generator: Adobe Illustrator 19.1.0, SVG Export Plug-In . SVG Version: 6.00 Build 0)  -->
<svg version="1.1" id="Layer_1" xmlns="http://www.w3.org/2000/svg" xmlns:xlink="http://www.w3.org/1999/xlink" x="0px" y="0px"
	 viewBox="0 0 432.5 401.8" style="enable-background:new 0 0 432.5 401.8;" xml:space="preserve">

<path style="fill: #B2C2CC;" d="M357.1,231.9v-1.1c0-4.9-3.9-8.8-8.8-8.8c-4.9,0-8.8,4-8.8,8.8v1.1c0,3.7,2.3,6.8,5.5,8.2
	c-3.2,1.3-5.5,4.5-5.5,8.2v1.1c0,3.7,2.3,6.9,5.6,8.2c-3.3,1.3-5.6,4.5-5.6,8.2v1.1c0,3.7,2.3,6.8,5.5,8.2c-3.2,1.3-5.5,4.5-5.5,8.2
	v1.1c0,3.7,2.3,6.9,5.6,8.2c-3.3,1.3-5.6,4.5-5.6,8.2v1.1c0,3.7,2.3,6.8,5.5,8.2c-3.2,1.3-5.5,4.5-5.5,8.2v1.1
	c0,3.7,2.3,6.9,5.6,8.2c-3.3,1.3-5.6,4.5-5.6,8.2v1.1c0,3.7,2.3,6.9,5.6,8.2c-3.3,1.3-5.6,4.5-5.6,8.2v1.1c0,3.7,2.3,6.8,5.5,8.2
	c-3.2,1.3-5.5,4.5-5.5,8.2v0.8c-0.1,2.1,0.5,4,1.7,5.6c-1.8,0-3.6,0.5-5.2,1.6c-0.3,0.2-0.6,0.4-0.8,0.5c-1.9,1.3-3.2,3.2-3.8,5.4
	c-1.6-2.2-4.2-3.6-7.1-3.6h-1.1c-3.7,0-6.8,2.3-8.2,5.5c-1.3-3.2-4.5-5.5-8.2-5.5h-1.1c-3.7,0-6.9,2.3-8.2,5.6
	c-1.3-3.3-4.5-5.6-8.2-5.6h-1.1c-3.7,0-6.9,2.3-8.2,5.6c-1.3-3.3-4.5-5.6-8.2-5.6h-1.1c-3.7,0-6.8,2.3-8.2,5.5
	c-1.3-3.2-4.5-5.5-8.2-5.5h-1.1c-3.7,0-6.9,2.3-8.2,5.6c-1.3-3.3-4.5-5.6-8.2-5.6h-1.1c-3.7,0-6.8,2.3-8.2,5.5
	c-1.3-3.2-4.5-5.5-8.2-5.5h-1.1c-3.7,0-6.9,2.3-8.2,5.6c-1.3-3.3-4.5-5.6-8.2-5.6h-1.1c-3.7,0-6.8,2.3-8.2,5.5
	c-1.3-3.2-4.5-5.5-8.2-5.5h-1.1c-3.7,0-6.9,2.3-8.2,5.6c-1.3-3.3-4.5-5.6-8.2-5.6h-1.1c-3.7,0-6.9,2.3-8.2,5.6
	c-1.3-3.3-4.5-5.6-8.2-5.6h-1.1c-3.7,0-6.8,2.3-8.2,5.5c-1.3-3.2-4.5-5.5-8.2-5.5h-1.1c-3.7,0-6.9,2.3-8.2,5.6
	c-1.3-3.3-4.5-5.6-8.2-5.6h-1.1c-3.6,0-6.7,2.2-8.1,5.3c-0.3-0.8-0.7-1.5-1.2-2.2c-1.4-1.8-3.5-3-5.8-3.3l-0.6-0.1
	c-2-0.4-4.1,0-5.9,1c0.4-2,0-4.1-1-5.9c0-0.1-0.1-0.1-0.1-0.2l-0.1-0.2c-1-2.1-2.8-3.7-5-4.5c-0.1,0-0.2-0.1-0.3-0.1
	c2.6-1.5,4.4-4.4,4.4-7.6v-1.1c0-3.7-2.3-6.8-5.5-8.2c3.2-1.3,5.5-4.5,5.5-8.2v-1.1c0-3.7-2.3-6.9-5.6-8.2c3.3-1.3,5.6-4.5,5.6-8.2
	v-1.1c0-3.7-2.3-6.8-5.5-8.2c3.2-1.3,5.5-4.5,5.5-8.2v-1.1c0-3.7-2.3-6.9-5.6-8.2c3.3-1.3,5.6-4.5,5.6-8.2v-1.1
	c0-3.7-2.3-6.8-5.5-8.2c3.2-1.3,5.5-4.5,5.5-8.2v-1.1c0-3.7-2.3-6.9-5.6-8.2c3.3-1.3,5.6-4.5,5.6-8.2V257c0-3.7-2.3-6.8-5.5-8.2
	c3.2-1.3,5.5-4.5,5.5-8.2v-1.1c0-3.7-2.3-6.9-5.6-8.2c3.3-1.3,5.6-4.5,5.6-8.2V222c0-4.9-4-8.8-8.8-8.8c-4.9,0-8.8,3.9-8.8,8.8v1.1
	c0,3.7,2.3,6.9,5.6,8.2c-3.3,1.3-5.6,4.5-5.6,8.2v1.1c0,3.7,2.3,6.8,5.5,8.2c-3.2,1.3-5.5,4.5-5.5,8.2v1.1c0,3.7,2.3,6.9,5.6,8.2
	c-3.3,1.3-5.6,4.5-5.6,8.2v1.1c0,3.7,2.3,6.8,5.5,8.2c-3.2,1.3-5.5,4.5-5.5,8.2v1.1c0,3.7,2.3,6.9,5.6,8.2c-3.3,1.3-5.6,4.5-5.6,8.2
	v1.1c0,3.7,2.3,6.8,5.5,8.2c-3.2,1.3-5.5,4.5-5.5,8.2v1.1c0,3.7,2.3,6.9,5.6,8.2c-3.3,1.3-5.6,4.5-5.6,8.2v1.1
	c0,3.7,2.3,6.8,5.5,8.2c-3.2,1.3-5.5,4.5-5.5,8.2v1.1c0,4,2.6,7.3,6.3,8.4c-1.9,1-3.2,2.7-3.9,4.7c-0.8,2.2-0.6,4.5,0.4,6.6
	c0.3,0.7,0.6,1.2,0.8,1.6c1.5,2.8,4.4,4.5,7.7,4.5c1.6,0,3-0.4,4.3-1.2c-0.9,4.7,2.3,9.3,7.1,10.2c0.4,0.1,0.8,0.1,1.2,0.2
	c0.6,0.2,1.1,0.2,1.5,0.2c3.6,0,6.7-2.2,8.1-5.4c1.3,3.3,4.5,5.6,8.2,5.6h1.1c3.7,0,6.9-2.3,8.2-5.6c1.3,3.3,4.5,5.6,8.2,5.6h1.1
	c3.7,0,6.8-2.3,8.2-5.5c1.3,3.2,4.5,5.5,8.2,5.5h1.1c3.7,0,6.9-2.3,8.2-5.6c1.3,3.3,4.5,5.6,8.2,5.6h1.1c3.7,0,6.9-2.3,8.2-5.6
	c1.3,3.3,4.5,5.6,8.2,5.6h1.1c3.7,0,6.8-2.3,8.2-5.5c1.3,3.2,4.5,5.5,8.2,5.5h1.1c3.7,0,6.9-2.3,8.2-5.6c1.3,3.3,4.5,5.6,8.2,5.6
	h1.1c3.7,0,6.8-2.3,8.2-5.5c1.3,3.2,4.5,5.5,8.2,5.5h1.1c3.7,0,6.9-2.3,8.2-5.6c1.3,3.3,4.5,5.6,8.2,5.6h1.1c3.7,0,6.8-2.3,8.2-5.5
	c1.3,3.2,4.5,5.5,8.2,5.5h1.1c3.7,0,6.9-2.3,8.2-5.6c1.3,3.3,4.5,5.6,8.2,5.6h1.1c3.7,0,6.9-2.3,8.2-5.6c1.3,3.3,4.5,5.6,8.2,5.6
	h1.1c3.7,0,6.8-2.3,8.2-5.5c1.3,3.2,4.5,5.5,8.2,5.5h1.1c4.2,0,7.7-2.9,8.6-6.8c1.8,2.3,4.4,3.6,7.2,3.6c1.6,0,3.3-0.5,4.8-1.3
	l0.3-0.2c0.1-0.1,0.2-0.1,0.3-0.2c0.3-0.2,0.6-0.4,0.9-0.6c3.9-3,4.6-8.5,1.7-12.3h0.2c4.8,0,8.7-3.8,8.8-8.6v-1.3
	c0-3.7-2.3-6.8-5.5-8.2c3.2-1.3,5.5-4.5,5.5-8.2v-1.1c0-3.7-2.3-6.9-5.6-8.2c3.3-1.3,5.6-4.5,5.6-8.2v-1.1c0-3.7-2.3-6.9-5.6-8.2
	c3.3-1.3,5.6-4.4,5.6-8.2v-1.1c0-3.7-2.3-6.8-5.5-8.2c3.2-1.3,5.5-4.5,5.5-8.2v-1.1c0-3.7-2.3-6.9-5.6-8.2c3.3-1.3,5.6-4.4,5.6-8.2
	v-1.1c0-3.7-2.3-6.8-5.5-8.2c3.2-1.3,5.5-4.5,5.5-8.2v-1.1c0-3.7-2.3-6.9-5.5-8.2c3.3-1.3,5.5-4.4,5.5-8.2v-1.1
	c0-3.7-2.3-6.8-5.5-8.2C354.8,238.7,357.1,235.5,357.1,231.9z"/>
<path style="fill: #B2C2CC;" d="M257.2,301h-1c-3.8,0-7.1,2.5-8.3,5.9c-1.2-3.4-4.4-5.9-8.3-5.9h-1.1c-3.8,0-7,2.4-8.2,5.8
	c-1.2-3.4-4.4-5.8-8.2-5.8h-1.1c-3.8,0-7,2.4-8.2,5.8c-1.2-3.4-4.4-5.8-8.2-5.8h-1.1c-3.8,0-7,2.4-8.2,5.8c-1.2-3.4-4.4-5.8-8.2-5.8
	h-1.1c-3.8,0-7,2.4-8.2,5.8c-1.2-3.4-4.4-5.8-8.2-5.8h-1.1c-3.8,0-7,2.4-8.2,5.8c-1.2-3.4-4.4-5.8-8.2-5.8h-1.1
	c-3.8,0-7.1,2.5-8.3,5.9c-1.2-3.4-4.4-5.9-8.3-5.9h-1.1c-4.9,0-8.8,3.9-8.8,8.8c0,4.9,4,8.8,8.8,8.8h1.1c3.8,0,7.1-2.5,8.3-5.9
	c1.2,3.4,4.4,5.9,8.3,5.9h1.1c3.8,0,7-2.4,8.2-5.8c1.2,3.4,4.4,5.8,8.2,5.8h1.1c3.8,0,7-2.4,8.2-5.8c1.2,3.4,4.4,5.8,8.2,5.8h1.1
	c3.8,0,7-2.4,8.2-5.8c1.2,3.4,4.4,5.8,8.2,5.8h1.1c3.8,0,7-2.4,8.2-5.8c1.2,3.4,4.4,5.8,8.2,5.8h1.1c3.8,0,7-2.4,8.2-5.8
	c1.2,3.4,4.4,5.8,8.2,5.8h1.1c3.8,0,7.1-2.5,8.3-5.9c1.2,3.4,4.4,5.9,8.3,5.9h1.1c4.9,0,8.8-3.9,8.8-8.8
	C266.1,304.9,262.1,301,257.2,301z"/>
<path style="fill: #B2C2CC;" d="M305.9,255.8h-1.1c-3.8,0-7,2.4-8.2,5.8c-1.2-3.4-4.4-5.8-8.2-5.8h-1.1c-3.8,0-7,2.4-8.2,5.8
	c-1.2-3.4-4.4-5.8-8.2-5.8h-1.1c-3.8,0-7,2.4-8.2,5.8c-1.2-3.4-4.4-5.8-8.2-5.8H252c-3.8,0-7.1,2.5-8.3,5.9
	c-1.2-3.4-4.4-5.9-8.3-5.9h-1c-3.8,0-7.1,2.5-8.3,5.9c-1.2-3.4-4.4-5.9-8.3-5.9h-1.1c-3.8,0-7,2.4-8.2,5.8c-1.2-3.4-4.4-5.8-8.2-5.8
	h-1.1c-3.8,0-7,2.4-8.2,5.8c-1.2-3.4-4.4-5.8-8.2-5.8h-1.1c-3.8,0-7,2.4-8.2,5.8c-1.2-3.4-4.4-5.8-8.2-5.8h-1.1
	c-3.7,0-6.8,2.3-8.1,5.5c-1.3-3.2-4.5-5.5-8.1-5.5h-1.1c-3.9,0-7.2,2.6-8.3,6.1c-1.2-3.5-4.4-6.1-8.3-6.1h-1.1c-4.9,0-8.8,4-8.8,8.8
	s4,8.8,8.8,8.8h1.1c3.9,0,7.2-2.6,8.3-6.1c1.2,3.5,4.4,6.1,8.3,6.1h1.1c3.7,0,6.8-2.3,8.1-5.5c1.3,3.2,4.5,5.5,8.1,5.5h1.1
	c3.8,0,7-2.4,8.2-5.8c1.2,3.4,4.4,5.8,8.2,5.8h1.1c3.8,0,7-2.4,8.2-5.8c1.2,3.4,4.4,5.8,8.2,5.8h1.1c3.8,0,7-2.4,8.2-5.8
	c1.2,3.4,4.4,5.8,8.2,5.8h1.1c3.8,0,7.1-2.5,8.3-5.9c1.2,3.4,4.4,5.9,8.3,5.9h1c3.8,0,7.1-2.5,8.3-5.9c1.2,3.4,4.4,5.9,8.3,5.9h1.1
	c3.8,0,7-2.4,8.2-5.8c1.2,3.4,4.4,5.8,8.2,5.8h1.1c3.8,0,7-2.4,8.2-5.8c1.2,3.4,4.4,5.8,8.2,5.8h1.1c3.8,0,7-2.4,8.2-5.8
	c1.2,3.4,4.5,5.8,8.2,5.8h1.1c4.9,0,8.8-3.9,8.8-8.8S310.7,255.8,305.9,255.8z"/>
<path style="fill: #336689;" d="M259,130.1H138.4c-4.1,0-7.4,3.9-7.4,8.8c0,4.9,3.3,8.8,7.4,8.8H259c4.1,0,7.4-3.9,7.4-8.8
	C266.4,134,263.1,130.1,259,130.1z"/>
<path style="fill: #336689;" d="M400.3,186.5c-11.2,0-21.2,6.9-25.6,17.2h-17.4V16.9c0-0.6-0.1-1.2-0.2-1.8c0.6-2.8-0.2-5.8-2.4-7.9
	c-3.4-3.1-8.6-2.9-11.7,0.4l-37.4,40.1L269,8.5c-1.6-1.7-3.8-2.6-6.1-2.6c-2.3,0-4.5,1-6.1,2.6l-40,43L176.6,8.2
	c-1.6-1.7-3.8-2.6-6.1-2.6c-2.3,0-4.5,1-6.1,2.6l-39.7,42.7L87.9,11.3c-2.3-2.5-5.9-3.3-9.1-2.1c-3.2,1.2-5.3,4.3-5.3,7.7v186.8h-18
	c-4.4-10.3-14.3-17.2-25.6-17.2c-15.4,0-27.8,12.8-27.8,28.5s12.5,28.5,27.8,28.5c11.2,0,21.2-6.9,25.6-17.2h319.2
	c4.4,10.3,14.3,17.2,25.6,17.2c15.4,0,27.8-12.8,27.8-28.5S415.6,186.5,400.3,186.5z M90.1,38l28.6,30.7c1.6,1.7,3.8,2.6,6.1,2.6
	c2.3,0,4.5-1,6.1-2.6L170.5,26l40.3,43.3c1.6,1.7,3.8,2.6,6.1,2.6s4.5-1,6.1-2.6l40-43l36.6,39.3c1.6,1.7,3.8,2.6,6.1,2.6
	c2.3,0,4.5-1,6.1-2.6l29-31.2v169.3H90.1V38z"/>
</svg>
