<?xml version="1.0" encoding="utf-8"?>
<!-- Generator: Adobe Illustrator 19.1.0, SVG Export Plug-In . SVG Version: 6.00 Build 0)  -->
<svg version="1.1" id="Layer_1" xmlns="http://www.w3.org/2000/svg" xmlns:xlink="http://www.w3.org/1999/xlink" x="0px" y="0px"
	 viewBox="-1183 545 512 512" enable-background="new -1183 545 512 512" xml:space="preserve">
<path fill="#FFE4AA" d="M-1059.2,979.2H-792c2.4,0,4.4-2.2,4.4-5V828.7h-276v145.5C-1063.6,976.9-1061.6,979.2-1059.2,979.2z
	 M-1022,872h193.7c2.5,0,4.4,2.2,4.4,5s-2,5-4.4,5H-1022c-2.5,0-4.4-2.2-4.4-5C-1026.5,874.3-1024.5,872-1022,872z M-1022,922.2
	h193.7c2.5,0,4.4,2.2,4.4,5s-2,5-4.4,5H-1022c-2.5,0-4.4-2.2-4.4-5C-1026.5,924.4-1024.5,922.2-1022,922.2z"/>
<path fill="#56819A" d="M-787.5,974.2c0,2.8-2,5-4.4,5h-267.3c-2.4,0-4.4-2.2-4.4-5V828.7h-8.9v145.5c0,8.3,6,15,13.3,15H-792
	c7.3,0,13.3-6.7,13.3-15V828.7h-8.9L-787.5,974.2L-787.5,974.2z"/>
<path fill="#5AA5DB" d="M-787.7,709.7v-16.4h-54.8c-10.5,0-19-9.6-19-21.4v-49.1h-179.8c-12.2,0-22.2,11.2-22.2,25.1v61.3
	c0.1,0.4,0.1,0.8,0.1,1.1v100.4h275.8v-99.8C-787.7,710.5-787.7,710.1-787.7,709.7z M-1025.3,673.1l10.6-11.9c1.7-2,4.5-2,6.3,0
	l7.5,8.4l7.5-8.4c1.7-2,4.5-2,6.3,0l7.5,8.4l7.5-8.4c1.7-2,4.5-2,6.3,0l7.5,8.4l7.5-8.4c1.7-2,4.5-2,6.3,0l7.5,8.4l7.5-8.4
	c1.7-2,4.5-2,6.3,0l10.6,11.9c1.7,2,1.7,5.1,0,7.1c-0.9,1-2,1.5-3.1,1.5c-1.1,0-2.3-0.5-3.1-1.5l-7.5-8.4l-7.5,8.4
	c-0.2,0.2-0.5,0.5-0.7,0.6c-0.7,0.6-1.6,0.8-2.4,0.8c-0.9,0-1.7-0.3-2.4-0.8c-0.2-0.2-0.5-0.4-0.7-0.6l-7.5-8.4l-7.5,8.4
	c-0.2,0.2-0.5,0.5-0.7,0.6c-0.7,0.6-1.6,0.8-2.4,0.8c-0.9,0-1.7-0.3-2.4-0.8c-0.2-0.2-0.5-0.4-0.7-0.6l-7.5-8.4l-7.5,8.4
	c-1.1,1.2-2.6,1.7-4,1.4c-0.8-0.2-1.6-0.6-2.3-1.4l-7.5-8.4l-7.5,8.4c-0.2,0.2-0.5,0.5-0.7,0.6c-0.7,0.6-1.6,0.8-2.4,0.8
	c-0.9,0-1.7-0.3-2.4-0.8c-0.2-0.2-0.5-0.4-0.7-0.6l-7.5-8.4l-7.5,8.4c-1.7,2-4.5,2-6.3,0C-1027,678.2-1027,675-1025.3,673.1z
	 M-828.3,781.8H-1022c-2.5,0-4.4-2.2-4.4-5s2-5,4.4-5h193.7c2.5,0,4.4,2.2,4.4,5S-825.9,781.8-828.3,781.8z M-828.3,731.7H-1022
	c-2.5,0-4.4-2.2-4.4-5s2-5,4.4-5h193.7c2.5,0,4.4,2.2,4.4,5S-825.9,731.7-828.3,731.7z"/>
<path fill="#366886" d="M-1063.4,710.3c0-0.4,0-0.8-0.1-1.1v-61.3c0-13.8,10-25.1,22.2-25.1h179.7v49.1c0,11.8,8.5,21.4,19,21.4
	h54.8v16.4c0,0.4,0,0.8,0.1,1.2v99.8h8.9v-101c0-0.4,0-0.8-0.1-1.2v-20.2c0-0.2,0-0.3,0-0.5l0,0c0-0.2-0.1-0.4-0.1-0.7
	c0-0.1,0-0.1,0-0.2c0-0.2-0.1-0.3-0.2-0.5c0,0,0-0.1-0.1-0.1c-0.1-0.2-0.2-0.4-0.3-0.6c0,0,0-0.1-0.1-0.1c-0.1-0.2-0.2-0.3-0.3-0.5
	l-0.1-0.1c-0.1-0.2-0.3-0.3-0.4-0.5l-73.8-70.5c-0.2-0.2-0.4-0.3-0.6-0.5c-0.1,0-0.1-0.1-0.2-0.1c-0.1-0.1-0.3-0.2-0.5-0.2
	c-0.1,0-0.2-0.1-0.2-0.1c-0.2-0.1-0.3-0.1-0.5-0.1c-0.1,0-0.1,0-0.2-0.1c-0.2,0-0.4-0.1-0.6-0.1c0,0,0,0-0.1,0l0,0l0,0h-184.1
	c-17.1,0-31.1,15.7-31.1,35.1v62.4c0,0.4,0,0.8,0.1,1.1v99.3h8.9V710.3z M-852.7,628.6l57.3,54.7h-47.1c-5.6,0-10.1-5.1-10.1-11.4
	L-852.7,628.6L-852.7,628.6z"/>
<path fill="#346789" d="M-704.1,790.2c-12.5,0-23.5,8.4-27.2,20.5h-28.6h-10h-8.8h-8.9h-275.8h-8.9h-8.7h-10h-31.7
	c-3.7-12.2-14.7-20.5-27.2-20.5c-15.9,0-28.4,13-28.4,29.5s12.5,29.5,28.4,29.5c12.5,0,23.5-8.4,27.2-20.5h31.4h10h8.8h8.9h276.1
	h8.9h8.8h10h28.5c3.7,12.2,14.7,20.5,27.2,20.5c15.9,0,28.4-13,28.4-29.5S-688.2,790.2-704.1,790.2z"/>
<path fill="#FFE4AA" d="M-1022,932.2h193.7c2.5,0,4.4-2.2,4.4-5s-2-5-4.4-5H-1022c-2.5,0-4.4,2.2-4.4,5
	C-1026.5,930-1024.5,932.2-1022,932.2z"/>
<path opacity="0.33" fill="#346789" enable-background="new    " d="M-1022,932.2h193.7c2.5,0,4.4-2.2,4.4-5s-2-5-4.4-5H-1022
	c-2.5,0-4.4,2.2-4.4,5C-1026.5,930-1024.5,932.2-1022,932.2z"/>
<path fill="#FFE4AA" d="M-1022,882.1h193.7c2.5,0,4.4-2.2,4.4-5c0-2.8-2-5-4.4-5H-1022c-2.5,0-4.4,2.2-4.4,5
	C-1026.5,879.8-1024.5,882.1-1022,882.1z"/>
<path opacity="0.33" fill="#346789" enable-background="new    " d="M-1022,882.1h193.7c2.5,0,4.4-2.2,4.4-5c0-2.8-2-5-4.4-5H-1022
	c-2.5,0-4.4,2.2-4.4,5C-1026.5,879.8-1024.5,882.1-1022,882.1z"/>
<path fill="#346789" d="M-828.3,771.8H-1022c-2.5,0-4.4,2.2-4.4,5s2,5,4.4,5h193.7c2.5,0,4.4-2.2,4.4-5S-825.9,771.8-828.3,771.8z"
	/>
<path fill="#346789" d="M-828.3,721.7H-1022c-2.5,0-4.4,2.2-4.4,5s2,5,4.4,5h193.7c2.5,0,4.4-2.2,4.4-5S-825.9,721.7-828.3,721.7z"
	/>
<path fill="#366886" d="M-1019,680.1l7.5-8.4l7.5,8.4c0.2,0.2,0.5,0.5,0.7,0.6c0.7,0.6,1.6,0.8,2.4,0.8c0.9,0,1.7-0.3,2.4-0.8
	c0.2-0.2,0.5-0.4,0.7-0.6l7.5-8.4l7.5,8.4c0.7,0.7,1.5,1.2,2.3,1.4c1.4,0.3,2.9-0.2,4-1.4l7.5-8.4l7.5,8.4c0.2,0.2,0.5,0.5,0.7,0.6
	c0.7,0.6,1.6,0.8,2.4,0.8c0.9,0,1.7-0.3,2.4-0.8c0.2-0.2,0.5-0.4,0.7-0.6l7.5-8.4l7.5,8.4c0.2,0.2,0.5,0.5,0.7,0.6
	c0.7,0.6,1.6,0.8,2.4,0.8c0.9,0,1.7-0.3,2.4-0.8c0.2-0.2,0.5-0.4,0.7-0.6l7.5-8.4l7.5,8.4c0.9,1,2,1.5,3.1,1.5
	c1.1,0,2.3-0.5,3.1-1.5c1.7-2,1.7-5.1,0-7.1l-10.6-11.9c-1.7-2-4.5-2-6.3,0l-7.5,8.4l-7.5-8.4c-1.7-2-4.5-2-6.3,0l-7.5,8.4l-7.5-8.4
	c-1.7-2-4.5-2-6.3,0l-7.5,8.4l-7.5-8.4c-1.7-2-4.5-2-6.3,0l-7.5,8.4l-7.5-8.4c-1.7-2-4.5-2-6.3,0l-10.6,11.9c-1.7,2-1.7,5.1,0,7.1
	C-1023.5,682.1-1020.7,682.1-1019,680.1z"/>
<path fill="#85C9F0" d="M-842.6,683.3h47.1l-57.3-54.7v43.3C-852.7,678.2-848.1,683.3-842.6,683.3z"/>
</svg>
