<svg data-name="Layer 1" xmlns="http://www.w3.org/2000/svg" viewBox="0 0 81.87 84">
  <path d="M77.93,29l-19-19h0a13.43,13.43,0,0,1,19,0h0A13.43,13.43,0,0,1,77.93,29Z" transform="translate(0 0)" />
  <path d="M23.18,9.92,4,29.13A13.58,13.58,0,0,1,23.18,9.92Z" transform="translate(0 0)"/>
  <path d="M20.49,84C15.13,83.84,4.57,83.61,4,84c0,0,0,0,0,0,.25-.82,2-8.77,3-13C9.39,77.4,17,82.33,20.49,84Z" transform="translate(0 0)" />
  <path d="M50,9H32A9,9,0,1,1,50,9Z" transform="translate(0 0)" />
  <path d="M77.44,84s0,0,0,0c-.56-.39-11.12-.16-16.48,0,3.5-1.67,11.1-6.6,13.5-13C75.44,75.2,77.19,83.15,77.44,84Z" transform="translate(0 0)" />
  <polygon points="62.97 45.93 62.97 47.93 42.97 47.93 42.97 49.93 38.97 49.93 38.97 47.93 36.97 47.93 36.97 45.93 38.97 45.93 38.97 26.93 42.97 26.93 42.97 45.93 62.97 45.93" />
  <path d="M65.22,23.68a34.31,34.31,0,1,0,10,24.25A34.22,34.22,0,0,0,65.22,23.68ZM41,76.22A28.29,28.29,0,1,1,69.26,47.93,28.3,28.3,0,0,1,41,76.22Z" transform="translate(0 0)" />
</svg>
