<?xml version="1.0" encoding="utf-8"?>
<!-- Generator: Adobe Illustrator 21.0.2, SVG Export Plug-In . SVG Version: 6.00 Build 0)  -->
<svg version="1.1" id="Layer_1" xmlns="http://www.w3.org/2000/svg" xmlns:xlink="http://www.w3.org/1999/xlink" x="0px" y="0px"
	 viewBox="0 0 1000 1000" enable-background="new 0 0 1000 1000" xml:space="preserve">
<g id="_x37_lnX7R.tif">
	<g>
		<g>
			<path d="M847.5,224.6c-2.4-25.8-10.2-59.6-28-74.2C714.1,64.2,331,62.7,213.8,149.1c-19.7,14.6-26.5,54-29.7,83.3
				c-31.7,297,52.6,543.9,315,711.3C775.2,779.6,873.1,524,847.5,224.6z M662,545.3c0,14.1-11.6,25.7-25.7,25.7h-174
				c-11.9,19.8-33.5,33-58.3,33c-37.6,0-68-30.4-68-68s30.4-68,68-68c24.3,0,45.7,12.8,57.7,32h174.6c14.1,0,25.7,11.6,25.7,25.7
				V545.3z M595,426c-24.9,0-46.8-13.2-58.9-33H363.7c-14.1,0-25.7-11.6-25.7-25.7v-19.6c0-14.1,11.6-25.7,25.7-25.7h171.9
				c12-20.4,34.1-34,59.5-34c38.1,0,69,30.9,69,69S633.1,426,595,426z"/>
		</g>
	</g>
</g>
</svg>
