<?xml version="1.0" encoding="utf-8"?>
<!-- Generator: Adobe Illustrator 21.0.2, SVG Export Plug-In . SVG Version: 6.00 Build 0)  -->
<svg version="1.1" id="Layer_1" xmlns="http://www.w3.org/2000/svg" xmlns:xlink="http://www.w3.org/1999/xlink" x="0px" y="0px"
	 viewBox="0 0 1000 1000" enable-background="new 0 0 1000 1000" xml:space="preserve">
<g>
	<path d="M87.7,64.7c-30.3,0-55,24.8-55,55v64.5c0,30.3,24.8,55,55,55h378.7c0.6-0.8,1.3-1.5,2-2.3c9.4-10.3,22.3-16.7,36.3-17.8
		l12.2-1h0.1l24.2-2c1.1-2.7,2.2-5.5,3.4-8.2l-15.6-18.5l-0.1-0.1l-0.1-0.1l-7.8-9.4c-9-10.6-13.6-24.1-13-38
		c0.6-14,6.3-27.1,16.2-37l22.5-22.5c10.5-10.5,24.5-16.3,39.3-16.3c13.1,0,25.8,4.6,35.8,13.1l9.4,7.8l0.1,0.1l0.1,0.1l18.5,15.6
		c2.7-1.2,5.4-2.3,8.2-3.4l2-23.7l0-0.1v-0.1l0.9-10.6H87.7z M119.5,204.7c-28.9,0-52.2-23.4-52.2-52.2s23.4-52.2,52.2-52.2
		s52.2,23.4,52.2,52.2S148.3,204.7,119.5,204.7z"/>
	<path d="M541.1,364.9l-24.2-2l0,0h0l-12.1-1c-13.9-1.2-26.8-7.5-36.3-17.8c-9.4-10.3-14.6-23.6-14.6-37.6v-31.9c0-1,0-2,0.1-2.9
		H87.7c-30.3,0-55,24.8-55,55v64.5c0,30.3,24.8,55,55,55h420.8c-0.4-2.2-0.6-4.5-0.7-6.8c-0.6-13.9,4.1-27.4,13-38l7.8-9.4l0.1-0.1
		l0.1-0.1l15.6-18.5C543.3,370.4,542.1,367.7,541.1,364.9z M119.5,411.6c-28.9,0-52.2-23.4-52.2-52.2s23.4-52.2,52.2-52.2
		s52.2,23.4,52.2,52.2S148.3,411.6,119.5,411.6z"/>
	<path fill="#565656" d="M582.5,478.5c1.1,0.2,2.2,0.3,3.3,0.3c1.1,0,2.3-0.1,3.4-0.3H582.5z"/>
	<path d="M748.2,569.6h-32c-14,0-27.3-5.2-37.6-14.6c-10.3-9.4-16.6-22.3-17.8-36.2l-1-12.2v-0.1l-2.1-24.5c-2.7-1-5.3-2.2-8-3.3
		l-18.5,15.6l-0.2,0.2l-0.2,0.2l-9.3,7.6c-10,8.4-22.6,13-35.7,13c-14.8,0-28.8-5.8-39.3-16.3l-7.1-7.1l-13.1-13.4H87.7
		c-30.3,0-55,24.8-55,55V598c0,30.3,24.8,55,55,55h624.6c30.3,0,55-24.8,55-55v-31.8C761.3,568.4,754.8,569.6,748.2,569.6z
		 M119.5,618.5c-28.9,0-52.2-23.4-52.2-52.2S90.6,514,119.5,514s52.2,23.4,52.2,52.2S148.3,618.5,119.5,618.5z"/>
	<rect x="32.7" y="826.3" width="233" height="87.8"/>
	<path d="M500.9,826.3v87.8h-26.6c-7.3,12.4-17.6,22.8-29.9,30.3V958h-87.8v-12.4c-13.2-7.5-24.3-18.4-32-31.5h-25.5v-87.8h25.5
		c7.7-13.1,18.7-24,32-31.5V692.6h87.8V796c12.3,7.5,22.6,17.9,29.9,30.3H500.9z"/>
	<rect x="534.3" y="826.3" width="233" height="87.8"/>
</g>
<g>
	<path d="M582.5,478.5c1.1,0.2,2.2,0.3,3.3,0.3c1.1,0,2.3-0.1,3.4-0.3H582.5z"/>
	<path d="M957.1,255.9l-12.1-1l-36.9-3.1l-11.4-1c-4.1-16.8-10.7-32.8-19.8-47.5l7.4-8.7l24-28.5l7.9-9.5c6.4-7.5,5.9-18.7-1-25.7
		l-22.5-22.5c-3.7-3.7-8.5-5.6-13.4-5.6c-4.4,0-8.7,1.5-12.3,4.5l-9.5,7.9l-28.5,24l-8.7,7.4c-14.7-9-30.7-15.7-47.5-19.8l-0.9-11.4
		l-3.1-37.1l-1-12.1c-0.8-9.8-9.1-17.4-18.9-17.4h-32.3c-9.3,0-17.2,6.8-18.7,15.8c-0.1,0.5-0.2,1-0.2,1.5l-1,12.1l-3,36.8l-1,11.4
		c-16.8,4.1-32.8,10.7-47.5,19.8l-8.7-7.4l-28.5-24l-9.5-7.9c-3.6-3-7.9-4.5-12.3-4.5c-4.9,0-9.7,1.9-13.4,5.6L550,130.5
		c-7,7-7.5,18.2-1,25.7l7.9,9.5l24,28.5l7.4,8.7c-7,11.4-12.5,23.6-16.6,36.3c-1.2,3.7-2.2,7.4-3.2,11.2l-11.4,1l-37.1,3.1l-12.2,1
		c-8.9,0.8-15.9,7.5-17.2,16.1c-0.1,1-0.2,1.9-0.2,2.9v31.9c0,9.9,7.5,18.2,17.4,19l12.2,1l37.1,3.1l11.4,1
		c4.1,16.8,10.8,32.8,19.8,47.5l-7.4,8.7l-24,28.5l-7.9,9.5c-5.2,6.1-5.9,14.6-2.2,21.4c0.8,1.6,1.9,3,3.2,4.3l15.6,15.9l6.8,6.8
		c2.8,2.9,6.4,4.6,10.1,5.3h6.7c3.2-0.6,6.3-2,8.9-4.2l9.5-7.8l24.2-20.4l4.3-3.6l8.7-7.4c6.9,4.2,14,7.9,21.4,11
		c8.4,3.6,17.2,6.5,26.1,8.7l0.8,8.3v3.3l1,12.1l2.1,25l1,12.2c0.8,9.8,9.1,17.4,18.9,17.4h32c8,0,15-5,17.7-12.1
		c0.6-1.6,1-3.4,1.2-5.2l1-12.2l3.2-37.1l1-11.4c16.8-4.1,32.8-10.8,47.5-19.8l8.7,7.4l28.5,24l9.5,7.9c3.6,3,7.9,4.5,12.3,4.5
		c4.9,0,9.7-1.9,13.4-5.6l22.5-22.5c7-7,7.5-18.2,1-25.7l-7.9-9.5l-24-28.5l-7.4-8.7c9-14.7,15.7-30.7,19.8-47.5l11.4-1l37.1-3.1
		l12.2-1c9.9-0.8,17.4-9.1,17.4-19v-32.2C974.3,265,966.8,256.8,957.1,255.9z M790.5,348.9c-0.5,0.5-1,1-1.5,1.5
		c-0.5,0.5-1,1-1.5,1.4c-0.5,0.5-1,0.9-1.6,1.4c-0.4,0.3-0.8,0.7-1.2,1c-0.3,0.3-0.6,0.5-0.9,0.7c0,0-0.1,0.1-0.1,0.1
		c-0.4,0.3-0.9,0.7-1.3,1c-1.8,1.4-3.6,2.7-5.5,3.9c-0.4,0.3-0.8,0.6-1.3,0.8c-2.7,1.7-5.4,3.1-8.2,4.5c-0.7,0.3-1.3,0.6-2,0.9
		c-0.7,0.3-1.3,0.6-2,0.9c-0.3,0.1-0.5,0.2-0.8,0.3c-0.5,0.2-1,0.4-1.4,0.6c-1.1,0.4-2.3,0.8-3.4,1.2c-0.3,0.1-0.6,0.2-0.9,0.3
		c-0.1,0-0.2,0.1-0.3,0.1c-0.3,0.1-0.5,0.2-0.8,0.3c-1.6,0.5-3.2,0.9-4.8,1.3c-0.7,0.2-1.4,0.3-2.1,0.5c-1.7,0.4-3.5,0.6-5.2,0.9
		c-0.5,0.1-1,0.1-1.6,0.2c-0.4,0.1-0.9,0.1-1.3,0.1c-0.4,0-0.8,0.1-1.2,0.1c-0.3,0-0.5,0-0.8,0.1c-0.6,0.1-1.2,0.1-1.8,0.1
		c-0.7,0-1.5,0.1-2.2,0.1c-0.8,0-1.5,0-2.2,0c-21.1,0-42.1-8-58.2-24.1c-16.1-16.1-24.1-37.1-24.1-58.2c0-0.7,0-1.4,0-2.2
		c0-0.4,0-0.8,0-1.1c0-0.3,0-0.6,0-0.9c0-0.4,0-0.8,0.1-1.1c0-0.4,0.1-0.8,0.1-1.3c0.1-1,0.2-2,0.3-3c0.1-0.7,0.2-1.5,0.3-2.2
		c0-0.2,0.1-0.5,0.1-0.7c0.1-0.6,0.2-1.1,0.3-1.7c0-0.1,0-0.2,0.1-0.2c0.1-0.7,0.3-1.4,0.4-2.1c0.2-0.9,0.4-1.7,0.6-2.6
		c0.2-0.8,0.4-1.6,0.6-2.4c0.3-1.3,0.7-2.5,1.1-3.8c0.1-0.3,0.2-0.6,0.3-1c0.1-0.3,0.2-0.6,0.3-0.9c0.4-1.3,0.9-2.6,1.5-3.9
		c0.1-0.3,0.3-0.6,0.4-0.9c0.3-0.7,0.6-1.3,0.9-2c0.3-0.6,0.6-1.2,0.9-1.9c0.2-0.4,0.4-0.7,0.5-1.1c0.2-0.4,0.4-0.7,0.6-1.1
		c0.2-0.3,0.4-0.7,0.5-1c0.6-1.2,1.3-2.4,2.1-3.6c0.3-0.5,0.7-1.1,1-1.6c0.1-0.2,0.3-0.5,0.5-0.7c0.1-0.2,0.3-0.5,0.5-0.7
		c0,0,0,0,0-0.1c0.3-0.4,0.5-0.8,0.8-1.1c0.7-1,1.5-2.1,2.2-3.1c0.3-0.4,0.7-0.9,1-1.3c0.1-0.1,0.1-0.2,0.2-0.3c0,0,0-0.1,0.1-0.1
		c0.3-0.4,0.6-0.7,0.9-1.1c0.4-0.5,0.8-1,1.2-1.4c1.2-1.4,2.5-2.8,3.8-4.1c16.1-16.1,37.1-24.1,58.2-24.1c0.6,0,1.1,0,1.7,0
		c0.3,0,0.6,0,0.8,0c0.3,0,0.6,0,0.9,0c0.5,0,0.9,0,1.4,0.1c0.2,0,0.4,0,0.6,0c0.5,0,0.9,0.1,1.4,0.1c0.6,0,1.1,0.1,1.7,0.2
		c0.6,0.1,1.1,0.1,1.7,0.2c1.7,0.2,3.4,0.5,5.1,0.8c0.3,0.1,0.6,0.1,0.8,0.2c0.3,0.1,0.6,0.1,0.8,0.2c0.6,0.1,1.1,0.2,1.7,0.4
		c0.5,0.1,1,0.2,1.5,0.4c0.5,0.1,0.9,0.2,1.4,0.4c0.6,0.2,1.3,0.4,1.9,0.5c1.1,0.3,2.3,0.7,3.4,1.1c0,0,0.1,0,0.1,0
		c0.7,0.2,1.4,0.5,2,0.7c0.7,0.3,1.3,0.5,2,0.8c0.8,0.3,1.6,0.7,2.4,1c0.5,0.2,1.1,0.5,1.6,0.7c1.9,0.9,3.8,1.9,5.6,2.9
		c0.4,0.2,0.8,0.5,1.2,0.7c3.1,1.9,6.2,3.9,9.1,6.3c0.4,0.3,0.9,0.7,1.3,1.1c0.4,0.3,0.7,0.6,1,0.9c0.3,0.3,0.7,0.6,1,0.9
		c0.3,0.3,0.7,0.6,1,0.9c0.4,0.4,0.9,0.8,1.3,1.2c0.5,0.5,1,1,1.5,1.5c15.4,15.4,24.1,36.4,24.1,58.2
		C814.7,312.6,806,333.5,790.5,348.9z"/>
</g>
</svg>
