<?xml version="1.0" encoding="utf-8"?>
<!-- Generator: Adobe Illustrator 21.0.2, SVG Export Plug-In . SVG Version: 6.00 Build 0)  -->
<svg version="1.1" id="Layer_1" xmlns="http://www.w3.org/2000/svg" xmlns:xlink="http://www.w3.org/1999/xlink" x="0px" y="0px"
	 viewBox="0 0 1000 1000" enable-background="new 0 0 1000 1000" xml:space="preserve">
<g>
	<g>
		<g>
			<path d="M927.6,217.9V113.3c0-48.7-39.6-88.3-88.3-88.3H125.4c-48.7,0-88.3,39.6-88.3,88.3v104.6c0,48.7,39.6,88.3,88.3,88.3
				c-48.7,0-88.3,39.6-88.3,88.3v104.6c0,48.7,39.6,88.3,88.3,88.3c-48.7,0-88.3,39.6-88.3,88.3v104.6c0,48.7,39.6,88.3,88.3,88.3
				h367.1c1.5-14.1,7.1-27.9,16.9-39.4l0.4-0.4l0.6-0.4l2.4-3l-3.9-0.4c-13.3-1.1-25.7-5.4-36-12.7H125.4
				c-17.6,0-32.1-14.4-32.1-32.1V675.7c0-17.6,14.4-32.1,32.1-32.1h384.5l-0.6-0.6c-13.3-15.9-18.9-36.2-17.1-55.7
				c1.7-16.5,8.8-32.6,21.4-45.2l11.1-11.1H125.4c-17.6,0-32.1-14.4-32.1-32.1V394.5c0-17.6,14.4-32.1,32.1-32.1h713.9
				c17.6,0,32.1,14.4,32.1,32.1V498c19.7,0,38.8,7.9,52.7,21.7l0.7,0.7c1.9-6.7,2.8-14.1,2.8-21.4V394.5c0-48.7-39.6-88.3-88.3-88.3
				C888.1,306.2,927.6,266.7,927.6,217.9z M871.4,217.9c0,17.6-14.4,32.1-32.1,32.1H125.4c-17.6,0-32.1-14.4-32.1-32.1V113.3
				c0-17.6,14.4-32.1,32.1-32.1h713.9c17.6,0,32.1,14.4,32.1,32.1V217.9z"/>
		</g>
		<g>
			<path d="M271.5,165.6c0,31.1-25.1,56.2-56.2,56.2S159,196.7,159,165.6c0-31.1,25.1-56.2,56.2-56.2S271.5,134.5,271.5,165.6z"/>
		</g>
		<g>
			<g>
				<polygon points="829.2,203.1 829.2,235.9 796.4,235.9 796.4,207.8 801.1,207.8 801.1,203.1 				"/>
			</g>
			<g>
				<rect x="726.9" y="207.8" width="34.7" height="28.1"/>
				<rect x="657.1" y="207.8" width="34.9" height="28.1"/>
				<rect x="587.6" y="207.8" width="34.7" height="28.1"/>
			</g>
			<g>
				<polygon points="552.7,207.8 552.7,235.9 519.9,235.9 519.9,203.1 548,203.1 548,207.8 				"/>
			</g>
			<g>
				<polygon points="552.7,151.5 552.7,179.7 548,179.7 548,184.4 519.9,184.4 519.9,151.5 				"/>
			</g>
			<g>
				<rect x="726.9" y="151.5" width="34.7" height="28.1"/>
				<rect x="657.1" y="151.5" width="34.9" height="28.1"/>
				<rect x="587.6" y="151.5" width="34.7" height="28.1"/>
			</g>
			<g>
				<polygon points="829.2,151.5 829.2,184.4 801.1,184.4 801.1,179.7 796.4,179.7 796.4,151.5 				"/>
			</g>
		</g>
	</g>
	<g>
		<g>
			<path d="M271.5,446.8c0,31.1-25.1,56.2-56.2,56.2S159,477.9,159,446.8c0-31.1,25.1-56.2,56.2-56.2S271.5,415.7,271.5,446.8z"/>
		</g>
		<g>
			<g>
				<path d="M829.2,484.3v26.8c-2.1,1.3-4.1,2.8-6,4.5l-1.9,1.5h-1.5l-0.2-2.2c-0.9-11.1-4.1-21.4-9.4-30.6H829.2z"/>
			</g>
			<g>
				<path d="M622.2,489v17.6c-10.1-5.2-21.9-8.1-33.7-8.1h-0.9V489H622.2z"/>
			</g>
			<g>
				<path d="M552.7,489v18.7c-4.9,2.4-9.4,5.6-13.5,9.4h-19.3v-32.8H548v4.7H552.7z"/>
			</g>
			<g>
				<polygon points="552.7,432.8 552.7,460.9 548,460.9 548,465.6 519.9,465.6 519.9,432.8 				"/>
			</g>
			<g>
				<path d="M761.5,432.8v15.4c-5.2-1.3-10.5-1.9-16.1-1.9h-18.6v-13.5H761.5z"/>
				<path d="M692,432.8v16.9c-8.1,2.6-15.4,6.4-21.9,11.2h-12.9v-28.1H692z"/>
				<rect x="587.6" y="432.8" width="34.7" height="28.1"/>
			</g>
			<g>
				<polygon points="829.2,432.8 829.2,465.6 801.1,465.6 801.1,460.9 796.4,460.9 796.4,432.8 				"/>
			</g>
		</g>
	</g>
	<g>
		<g>
			<path d="M271.5,728c0,31.1-25.1,56.2-56.2,56.2S159,759.1,159,728c0-31.1,25.1-56.2,56.2-56.2S271.5,696.9,271.5,728z"/>
		</g>
		<g>
			<g>
				<path d="M691.6,770.2c0,0.2,0.4,0.4,0.4,0.4v-0.4H691.6z"/>
			</g>
		</g>
	</g>
	<g>
		<g>
			<path fill="#FFFFFF" d="M691.6,770.2c0,0.2,0.4,0.4,0.4,0.4v-0.4H691.6z M691.6,770.2c0,0.2,0.4,0.4,0.4,0.4v-0.4H691.6z
				 M691.6,770.2c0,0.2,0.4,0.4,0.4,0.4v-0.4H691.6z M691.6,770.2c0,0.2,0.4,0.4,0.4,0.4v-0.4H691.6z M691.6,770.2
				c0,0.2,0.4,0.4,0.4,0.4v-0.4H691.6z M691.6,770.2c0,0.2,0.4,0.4,0.4,0.4v-0.4H691.6z M691.6,770.2c0,0.2,0.4,0.4,0.4,0.4v-0.4
				H691.6z"/>
			<path d="M946.8,702.7l-11.4-1.1l-7.7-0.7l-27.9-2.4l-11.1-1.1c-3.7-15.9-10.5-31.9-19.1-46.1l7.1-8.2l23.1-27.4l1.9-2.4l5.8-6.9
				c6-7.1,5.4-18-1.1-24.7l-21.9-21.9c-3.6-3.4-8.2-5.2-13.1-5.2c-4.1,0-8.2,1.3-11.6,4.3l-9.4,7.5l-25.3,21.4l-2.1,1.7l-8.2,7.7
				c-5.8-3.6-11.6-6.7-17.8-9.4c-9-4.1-18.6-7.5-28.3-9.7l-1.1-11.1l-2.6-35.4V531l-1.1-11.4c-0.2-2.6-0.9-5.1-2.1-7.1
				c-3.2-5.8-9.4-9.9-16.1-9.9h-31.1c-9.4,0-17.6,7.1-18.2,17.1L695,531v0.2l-2.6,35.4l-1.1,11.1c-9.6,2.2-18.9,5.6-28.1,9.7
				c-6.2,2.6-12.2,5.8-18,9.4l-8.2-7.1l-2.6-2.2l-24.7-20.8l-9.4-7.7c-3.4-2.8-7.5-4.1-11.6-4.1c-4.9,0-9.6,1.9-13.1,5.2L553.4,582
				c-1.7,1.7-2.8,3.6-3.6,5.4c-2.8,6.2-2.1,13.9,2.4,19.3l7.7,9.4l23.1,27.4l0.2,0.2l6.9,8.1c-8.6,14.2-15.4,29.6-19.1,46.1L560,699
				l-35.1,2.1l-11.4,1.1c-9.4,0.6-17.1,8.8-17.1,18.2v30.7c0,9.2,7.1,17.4,17.1,18l6.4,0.6l5.1,0.6l27.7,2.6l7.9,0.7l11.1,0.9
				c3,12.9,7.9,25.9,14.4,37.9c1.5,2.8,3,5.6,4.7,8.2l-7.1,8.2l-23.1,27.4l-8.2,9.4c-0.7,0.9-1.5,1.9-2.1,3
				c-3.7,6.9-2.4,16.1,3.2,21.7l14.8,15.4l6.6,6.6c3.6,3.4,8.2,5.2,13.1,5.2c4.1,0,8.2-1.3,11.6-4.1l9.4-7.7l27.4-23.1l8.2-7.1
				c14.2,8.8,29.6,15.4,46.1,19.1l0.6,8.2v3.4l3.2,35.6l1.1,11.4c0.6,9.4,8.8,17.1,18.2,17.1h30.7c9.2,0,17.4-7.1,18-17.1l1.1-11.4
				l3.4-35.6l0.9-11.1c15.9-3.7,31.9-10.5,46.1-19.1l8.2,7.1l27.4,23.1l9.4,7.7c3.4,2.8,7.5,4.1,11.6,4.1c4.9,0,9.6-1.9,13.1-5.2
				l21.9-21.9c6.6-6.6,7.1-17.6,1.1-24.7l-7.7-9.4l-5.8-6.7l-17.2-20.6l-7.1-8.2c8.8-14.2,15.4-29.6,19.1-46.1l11.1-1.1l28.5-2.6
				l7.1-0.6l11.4-1.1c9.4-0.6,17.1-8.8,17.1-18.2v-31.1C963.3,711.5,956.1,703.3,946.8,702.7z M808.4,746.8
				c-0.9,6.6-2.4,12.7-4.9,18.7c-1.9,4.9-4.3,9.6-7.1,14.1c-3,4.5-6.4,8.6-10.3,12.6c-9.9,9.9-21.7,16.7-34.5,20.2
				c-7.1,2.1-14.4,3.2-21.7,3.2s-14.6-1.1-21.7-3.2c-9.9-2.6-19.1-7.5-27.6-14.1c-2.4-1.9-4.7-3.9-6.9-6.2
				c-6.6-6.6-11.8-14.1-15.6-21.9c-14.4-29.6-9.2-65.8,15.6-90.6c15.6-15.6,36-23.4,56.2-23.4s40.7,7.9,56.2,23.4
				c9.6,9.6,16.5,21.4,20.1,34.3c2.1,6.9,3,14.2,3,21.7C809.2,739.5,809,743.2,808.4,746.8z"/>
			<path d="M752.9,735.7c0,2.2-0.2,4.3-0.9,6.4c-0.9,3.9-2.8,7.5-5.6,10.3c-5.8,5.8-12.2,6.9-16.5,6.9c-4.3,0-10.7-1.1-16.5-6.9
				c-9.2-9.2-9.2-23.6,0-33c5.8-5.6,12.2-6.9,16.5-6.9c2.2,0,5.1,0.4,8.1,1.5c2.8,1.1,5.6,2.8,8.4,5.4
				C750.5,723.7,752.9,729.5,752.9,735.7z"/>
		</g>
	</g>
</g>
</svg>
