<?xml version="1.0" encoding="utf-8"?>
<!-- Generator: Adobe Illustrator 19.1.0, SVG Export Plug-In . SVG Version: 6.00 Build 0)  -->
<svg version="1.1" id="Layer_1" xmlns="http://www.w3.org/2000/svg" xmlns:xlink="http://www.w3.org/1999/xlink" x="0px" y="0px"
	 viewBox="0 0 512 512" enable-background="new 0 0 512 512" xml:space="preserve">
<path d="M237.1,146.5l-5.2,5.2l-8.5-24.3L107.8,11.9c-7.5-7.5-17.3-12-27.4-12.7C69.5-1.6,59.1,2.2,51.7,9.6L8.1,53.3
	c-14.8,14.8-13.8,40,2.4,56.1l115.6,115.4l24.1,8.7l-4.9,4.9l22.6,22.6l34.6-34.6l57.3-57.3L237.1,146.5z M175.2,208.5l-31.5-11.4
	L33.1,86.7c-3.8-3.8-4.3-8.8-2.3-10.9l43.6-43.7c1.1-1.1,2.7-1.2,3.8-1.1c2.4,0.2,5,1.4,7,3.4l110.5,110.3l11.2,31.9L175.2,208.5z"
	/>
<path d="M370,348.6L225.1,203.7l-22.6,22.6l145.1,145.1L382.9,479l64,34.7l64.5-63.8l-31.6-63.5L370,348.6z M441.3,474.2l-31.9-17.3
	l-19-57.8l7.2-7.2l59.5,20.5l15.5,31L441.3,474.2z"/>
<path d="M198.3,345.1c-43.1,46.6-87.6,94.8-119.1,130c-10.5,4.8-22.5,3.3-30.7-4.1c-9.3-8.3-11.6-22.2-5.9-33.9
	c34.7-31.7,79-73.2,125.9-117.1l19.2-18l-21.9-23.4l-19.2,18C98.9,341.3,53.8,383.5,19,415.3c-1.2,1.1-2.2,2.4-3,3.8
	C1.3,444.1,6,476,27.1,494.8c11,9.9,25.2,15,39.6,15c10.3,0,20.7-2.6,30.2-7.9c1.6-0.9,3-2,4.1-3.3c31.5-35.2,76.9-84.3,120.8-131.8
	l15.4-16.6l-23.5-21.7L198.3,345.1z"/>
<path d="M291.7,204.2c0.1-0.1,0.1-0.1,0.2-0.2c7.7-7.1,14.9-13.7,21.2-19.5c5.3-4.8,6.7-12.5,3.6-18.9c-4.3-8.7-9.1-22.8-7.5-40.4
	c1.8-19.7,11.1-34,16.8-41l42.6-42.6l10,12.3l-23.2,23.2c-24.7,24.7-25.8,63.7-2.6,87c11.4,11.4,26.9,17.4,43.6,16.7
	c16.2-0.6,31.6-7.5,43.4-19.3l23-23l10.8,8.8l-42.7,42.7c-0.2,0.2-0.4,0.4-0.5,0.6c-4.1,4.5-19.4,19.5-42.9,20.3
	c-17.5,0.6-30.6-6.8-36.8-11.3c-6.6-4.8-15.8-3.8-21.3,2.3c-5.7,6.4-12.1,13.5-19.1,21.1c-0.3,0.3-0.5,0.5-0.8,0.8l23.7,21.5
	c3.9-4.3,7.6-8.4,11.1-12.3c10.8,5.4,25.9,10.5,44.2,9.8c34.6-1.2,56.9-21.5,65.1-30.4l55-55c3.2-3.2,4.9-7.6,4.7-12.1
	c-0.2-4.5-2.4-8.7-5.9-11.6l-35.7-29.1c-6.4-5.2-15.6-4.7-21.4,1.1l-33.2,33.2c-6.1,6.1-13.9,9.6-22,9.9c-7.6,0.3-14.6-2.3-19.7-7.4
	c-10.8-10.8-9.6-29.5,2.6-41.7l33.4-33.4c5.8-5.8,6.3-15.1,1.1-21.4L382.2,7.7c-2.9-3.5-7.1-5.6-11.6-5.9c-4.5-0.2-8.9,1.5-12.1,4.7
	l-55.7,55.7c-0.4,0.4-0.7,0.7-1,1.1c-8,9.7-21.7,30.2-24.4,58.9c-1.7,18.4,1.5,34.2,5.8,46.2c-4.2,3.8-8.6,7.9-13.2,12.2
	L291.7,204.2z"/>
</svg>
