<?xml version="1.0" encoding="utf-8"?>
<!-- Generator: Adobe Illustrator 21.0.2, SVG Export Plug-In . SVG Version: 6.00 Build 0)  -->
<svg version="1.1" id="Layer_1" xmlns="http://www.w3.org/2000/svg" xmlns:xlink="http://www.w3.org/1999/xlink" x="0px" y="0px"
	 viewBox="0 0 1000 1000" enable-background="new 0 0 1000 1000" xml:space="preserve">
<path d="M904.4,280.7c-0.3-11.7-8.8-21.3-20.4-22.8C676.5,229.8,558.3,80.6,527.1,35.6c-4.4-6.3-11.6-10.1-19.2-10.1h-0.1
	c-3.8,0-7.5,0.9-10.8,2.6c-3.3,1.7-6.2,4.2-8.4,7.3c-16.1,22.8-51.8,67.7-109.9,112.3c-72.5,55.7-155.5,92.6-246.7,109.7
	c-11.1,2.1-19.2,11.8-19.2,23.1c-0.5,119.8,17.4,229.6,53.2,326.5c29.2,79.2,70.5,150.2,122.7,211.1c38.8,45.3,83,84.4,131.3,116.1
	c38.4,25.2,68.1,38.2,79.1,42.7c2.8,1.1,5.8,1.7,8.8,1.7c3,0,6-0.6,8.8-1.7c19.4-7.9,121.2-52.5,214.8-160.4
	C784.5,755.4,826,684.4,855,605.4C890.4,508.7,907,399.4,904.4,280.7z M831.5,596.8c-27.9,76.1-67.9,144.6-119,203.5
	c-89,102.6-184.9,145.3-204.7,153.4c-19.3-7.9-112.6-49.5-200.2-151.7c-50.2-58.6-90-127.1-118.3-203.5
	c-34.6-93.8-52-200.3-51.7-316.6c94.7-17.9,180.8-56.3,256.1-114.2C453.2,122,490.3,76,507.7,51.6c18.2,25.9,56.7,74.7,116.7,121.5
	c76.6,59.8,162.4,96.6,255,109.3C881.9,397.6,865.8,503.3,831.5,596.8z"/>
</svg>
