<?xml version="1.0" encoding="utf-8"?>
<!-- Generator: Adobe Illustrator 19.1.0, SVG Export Plug-In . SVG Version: 6.00 Build 0)  -->
<svg version="1.1" id="Layer_1" xmlns="http://www.w3.org/2000/svg" xmlns:xlink="http://www.w3.org/1999/xlink" x="0px" y="0px"
	 viewBox="0 0 512 512" style="enable-background:new 0 0 512 512;" xml:space="preserve">
<path d="M256,333c-41.5,0-75.3-34.5-75.3-77s33.8-77,75.3-77s75.3,34.5,75.3,77S297.5,333,256,333z M256,209.2
	c-24.9,0-45.2,21-45.2,46.9S231.1,303,256,303s45.2-21,45.2-46.9S280.9,209.2,256,209.2z M256,426c-43.4,0-83.9-8.6-120.3-25.6
	c-29.1-13.6-55.6-32.6-78.8-56.4C17.6,303.5,1.6,263.1,1,261.5c-1.4-3.5-1.4-7.4,0-10.9c0.7-1.7,16.6-42,55.9-82.5
	c23.1-23.8,49.6-42.8,78.8-56.4c36.4-17,76.8-25.6,120.3-25.6c43.4,0,83.9,8.5,120.2,25.4c29.1,13.5,55.6,32.3,78.8,55.9
	c39.3,40.1,55.3,80.2,56,81.9c1.4,3.5,1.4,7.4,0,10.9c-0.7,1.7-16.6,42.3-55.9,83.1c-23.1,24-49.6,43.1-78.8,56.8
	C339.9,417.3,299.5,426,256,426z M31.5,256c5.5,11.7,20.5,40,47.9,67.8c20.6,21,44,37.6,69.8,49.6C181.4,388.3,217.3,396,256,396
	c39,0,75.1-7.7,107.5-23c25.8-12.2,49.3-29.2,69.9-50.5c27.1-28.1,41.7-56,47.1-67.5c-5.5-11.5-20.5-39.6-47.9-67.2
	c-20.6-20.8-44-37.3-69.8-49.2c-32.2-14.8-68.1-22.3-106.9-22.3c-38.7,0-74.7,7.6-106.8,22.5c-25.7,11.9-49.2,28.6-69.8,49.6
	C52,216.2,37,244.4,31.5,256z"/>
</svg>
