<svg data-name="Layer 1" xmlns="http://www.w3.org/2000/svg" viewBox="0 0 92 81">
  <path d="M74.71,13.44H5a5,5,0,0,0-5,5V81H79.71V18.44A5,5,0,0,0,74.71,13.44ZM15.32,18.78A2.32,2.32,0,0,1,17.71,21a2.23,2.23,0,0,1-.88,1.75,2.52,2.52,0,0,1-3,0,2.21,2.21,0,0,1-.9-1.75A2.32,2.32,0,0,1,15.32,18.78ZM9,18.78H9A2.32,2.32,0,0,1,11.34,21a2.23,2.23,0,0,1-.88,1.75,2.55,2.55,0,0,1-3,0A2.22,2.22,0,0,1,6.55,21,2.33,2.33,0,0,1,9,18.78ZM75.71,77H4V26.2H75.71Z" />
  <path d="M92,5V68.67H88V5a1,1,0,0,0-1-1H14.71V0H87A5,5,0,0,1,92,5Z"/>
  <path d="M86,11.11V74.33H82V11.11a1,1,0,0,0-1-1H6.53v-4H81A5,5,0,0,1,86,11.11Z" />
  <polygon points="65.08 43.21 62.08 56.72 59.28 56.72 57.08 47.72 54.88 56.72 52.08 56.72 49.08 43.21 51.85 43.21 53.68 52.8 55.91 43.21 58.27 43.21 60.49 52.82 62.31 43.21 65.08 43.21" />
  <polygon points="28 43.21 25 56.72 22.2 56.72 20 47.72 17.8 56.72 15 56.72 12 43.21 14.77 43.21 16.6 52.8 18.83 43.21 21.19 43.21 23.44 52.82 25.26 43.21 28 43.21" />
  <polygon points="46.55 43.21 43.55 56.72 40.75 56.72 38.55 47.72 36.35 56.72 33.55 56.72 30.55 43.21 33.32 43.21 35.15 52.8 37.38 43.21 39.74 43.21 41.96 52.82 43.78 43.21 46.55 43.21" />
</svg>
