<?xml version="1.0" encoding="utf-8"?>
<!-- Generator: Adobe Illustrator 19.2.0, SVG Export Plug-In . SVG Version: 6.00 Build 0)  -->
<svg version="1.1" id="Layer_1" xmlns="http://www.w3.org/2000/svg" xmlns:xlink="http://www.w3.org/1999/xlink" x="0px" y="0px"
	 viewBox="0 0 512 512" style="enable-background:new 0 0 512 512;" xml:space="preserve">
<g>
	<path d="M256,0C114.6,0,0,114.6,0,256s114.6,256,256,256s256-114.6,256-256S397.4,0,256,0z M420.6,420.7
		c-21.4,21.4-46.3,38.2-74,49.9c-28.7,12.1-59.2,18.3-90.6,18.3c-31.4,0-61.9-6.1-90.6-18.3c-27.7-11.7-52.6-28.5-74-49.9
		c-21.4-21.4-38.2-46.3-49.9-74c-12.1-28.7-18.3-59.2-18.3-90.6c0-31.4,6.1-61.9,18.3-90.6c11.7-27.7,28.5-52.6,49.9-74
		c21.4-21.4,46.3-38.2,74-49.9c28.7-12.2,59.2-18.3,90.6-18.3c31.4,0,61.9,6.1,90.6,18.3c27.7,11.7,52.6,28.5,74,49.9
		c21.4,21.4,38.2,46.3,49.9,74c12.1,28.7,18.3,59.2,18.3,90.6c0,31.4-6.1,61.9-18.3,90.6C458.8,374.4,442,399.3,420.6,420.7z"/>
	<path d="M366.6,330.1c-29.1-29.1-69.5-45.8-110.7-45.8c-41.8,0-81.1,16.3-110.7,45.9c-14.9,14.8-26.4,32.1-34.3,51.3
		c-3.4,8.2,0.5,17.6,8.7,20.9c8.2,3.4,17.6-0.5,20.9-8.7c6.2-15.2,15.4-28.9,27.3-40.8c23.6-23.5,54.8-36.5,88.1-36.5
		c32.8,0,64.9,13.2,88.1,36.4c12.6,12.6,22.2,27.3,28.4,43.7c2.5,6.4,8.5,10.3,15,10.3c1.9,0,3.8-0.3,5.6-1.2
		c8.3-3.1,12.4-12.3,9.3-20.6C394.4,364.4,382.4,345.9,366.6,330.1z"/>
	<circle cx="343.3" cy="180.4" r="29.1"/>
	<circle cx="168.7" cy="180.4" r="29.1"/>
</g>
</svg>
