<?xml version="1.0" encoding="utf-8"?>
<!-- Generator: Adobe Illustrator 17.1.0, SVG Export Plug-In . SVG Version: 6.00 Build 0)  -->
<!DOCTYPE svg PUBLIC "-//W3C//DTD SVG 1.1//EN" "http://www.w3.org/Graphics/SVG/1.1/DTD/svg11.dtd">
<svg version="1.1" id="Layer_1" xmlns="http://www.w3.org/2000/svg" xmlns:xlink="http://www.w3.org/1999/xlink" x="0px" y="0px"
	 viewBox="0 0 512 512" enable-background="new 0 0 512 512" xml:space="preserve">
<path d="M256,23.3c31.4,0,61.9,6.1,90.6,18.3c27.7,11.7,52.6,28.5,74,49.9s38.2,46.3,49.9,74c12.1,28.7,18.3,59.2,18.3,90.6
	s-6.1,61.9-18.3,90.6c-11.7,27.7-28.5,52.6-49.9,74s-46.3,38.2-74,49.9c-28.7,12.1-59.2,18.3-90.6,18.3s-61.9-6.1-90.6-18.3
	c-27.7-11.7-52.6-28.5-74-49.9s-38.2-46.3-49.9-74c-12.1-28.7-18.3-59.2-18.3-90.6s6.1-61.9,18.3-90.6c11.7-27.7,28.5-52.6,49.9-74
	s46.3-38.2,74-49.9C194.1,29.4,224.6,23.3,256,23.3 M256,0C114.6,0,0,114.6,0,256s114.6,256,256,256s256-114.6,256-256
	S397.4,0,256,0L256,0z"/>
<circle cx="343.3" cy="180.4" r="29.1"/>
<circle cx="168.7" cy="180.4" r="29.1"/>
<path d="M387.4,284.4c-6.5,0-12.5,3.9-15,10.3c-6.2,16.4-15.8,31.1-28.4,43.7c-23.2,23.2-55.3,36.4-88.1,36.4
	c-33.3,0-64.5-13-88.1-36.5c-11.9-11.9-21.1-25.6-27.3-40.8c-3.3-8.2-12.7-12.1-20.9-8.7c-8.2,3.3-12.1,12.7-8.7,20.9
	c7.9,19.2,19.4,36.5,34.3,51.3c29.6,29.6,68.9,45.9,110.7,45.9c41.2,0,81.6-16.7,110.7-45.8c15.8-15.8,27.8-34.3,35.7-54.9
	c3.1-8.3-1-17.5-9.3-20.6C391.2,284.7,389.3,284.4,387.4,284.4z"/>
</svg>
