<?xml version="1.0" encoding="utf-8"?>
<!-- Generator: Adobe Illustrator 19.2.0, SVG Export Plug-In . SVG Version: 6.00 Build 0)  -->
<svg version="1.1" id="Layer_1" xmlns="http://www.w3.org/2000/svg" xmlns:xlink="http://www.w3.org/1999/xlink" x="0px" y="0px"
	 viewBox="0 0 512 512" style="enable-background:new 0 0 512 512;" xml:space="preserve">
<g>
	<path d="M117.8,433.6c81.6,2,114.1-39.8,114.1-39.8c62.8-64.7,7.2-119.6,7.2-119.6c-49.1-42.5-96.8,0.7-96.8,0.7
		c-22.4,54.2,18.8,64,18.8,64c36.9,10.4,44.8-14.4,44.8-14.4c11.6-26.8-18.8-35.3-18.8-35.3c31.8,1.3,33.9,20.2,33.9,20.2
		c12.3,38.6-25.3,45.7-25.3,45.7c-99,17.7-78.8-74.5-78.8-74.5c48.4-73.2,122.1-28.1,122.1-28.1c100.4,74.5-6.7,166.4-6.7,166.4
		c13.5,14.2,63.7,13.9,63.7,13.9c62.8-7.8,72.2-49.7,72.2-49.7c4.4-172.5-138-208.4-138-208.4c-189.7-26.5-205.6,127-205.6,127
		C20.2,418,117.8,433.6,117.8,433.6z"/>
	<path d="M491.7,161.8c-11.2,0-20.4,8.2-20.4,18.4c0,1,0.2,1.9,0.4,2.8c-7.6,8.8-35.6,46.6-21.5,114.7c0,0-7.1,6.9-17.3,3.9
		l-16.3-7.8c0,0-5.9-89.2-4.3-96.1c0,0,4-20.6,13.1-27.1c3.6,3,8.4,4.9,13.7,4.9c11.2,0,20.4-8.2,20.4-18.4
		c0-10.1-9.1-18.4-20.3-18.4c-8.7,0-16,5-19,11.9c-7.5,4-28.7,19.1-29.5,62.2l4.3,79.9c0,0-7,34.3-9.2,34.8
		c0,0,16.8,93.6-39.5,108.3c0,0-51.5,34.8-130.6-5.9c0,0-39,22.6-63.4,20.6c0,0-37.4,10.7-55.3-0.6c0,0-43.9,6.1-97,62.1h366.3
		c0,0,91-0.4,110.5-126.8c0,0,2.7-76.6-7.6-97.2c0,0-9.8-63.2,17-89.6c1.8,0.4,3.6,0.4,5.5,0.4c11.2,0,20.3-8.4,20.3-18.5
		C512,170.2,502.9,161.8,491.7,161.8z"/>
</g>
</svg>
