<svg data-name="Layer 1" xmlns="http://www.w3.org/2000/svg" viewBox="0 0 75.78 75">
  <path d="M37.51,13.79a23.71,23.71,0,0,0,0,47.42,23.37,23.37,0,0,0,6.06-.79l-1-2.08L42,57.27l-.23-.53a19.49,19.49,0,0,1-4.28.47A19.71,19.71,0,1,1,57.22,37.47v0a18.47,18.47,0,0,1-.31,3.43l.61.26,1.38.59,1.78.76A23.72,23.72,0,0,0,37.51,13.79Z" transform="translate(-0.04)"/>
  <path d="M37.5,0A37.5,37.5,0,1,0,49.62,73l-1.1-2.3-.49-1-.15-.31A33.49,33.49,0,1,1,69.82,46.46l.43.18,1.1.47,2.19.93a37.53,37.53,0,0,0-36-48Z" transform="translate(-0.04)"/>
  <path d="M33,39.67l3.12,6.47a8.76,8.76,0,0,1-7.42-8.64,8.64,8.64,0,0,1,1.11-4.34Z" transform="translate(-0.04)" />
  <polygon points="75.78 68.12 75.54 68.39 75.51 68.42 74.06 69.99 74.09 70.02 70.76 73.75 67.03 70.42 65.03 68.64 61.96 65.9 59.59 63.79 59 63.26 58.93 63.2 56.28 60.83 55.55 60.19 55.47 60.43 54.88 62.09 53.76 65.28 53.11 67.11 53.09 67.18 52.54 68.75 52.04 67.71 52.02 67.67 49.54 62.52 49.48 62.4 48.68 60.75 47.77 58.86 46.58 56.39 46.06 55.31 46.03 55.25 41.27 45.39 40.78 44.35 37.47 37.5 44.47 40.5 45.54 40.97 55.58 45.28 55.71 45.33 57.09 45.92 59.25 46.85 60.89 47.55 62.99 48.46 63.07 48.49 68.24 50.72 68.39 50.78 68.4 50.78 69.5 51.25 67.66 51.98 66.28 52.53 62.93 53.87 61.13 54.58 64.31 57.52 64.4 57.61 65.2 58.35 67.26 60.26 70.31 63.07 75.78 68.12"/>
  <path d="M46.12,35.76l-6.64-2.85-6.66-2.84a8.69,8.69,0,0,1,4.63-1.32A8.78,8.78,0,0,1,46.12,35.76Z" transform="translate(-0.04)"/>
</svg>
