<?xml version="1.0" encoding="utf-8"?>
<!-- Generator: Adobe Illustrator 19.2.0, SVG Export Plug-In . SVG Version: 6.00 Build 0)  -->
<svg version="1.1" id="Layer_1" xmlns="http://www.w3.org/2000/svg" xmlns:xlink="http://www.w3.org/1999/xlink" x="0px" y="0px"
	 viewBox="0 0 512 512" style="enable-background:new 0 0 512 512;" xml:space="preserve">
<path d="M131.5,170.7c10.8,8.4,26,7.6,35.8-1.9c0.1-0.1,0.3-0.3,0.4-0.4c10-9.7,11.1-25.3,2.5-36.3c-31.1-40-75.1-77.6-95.7-57.1
	C54,95.5,91.5,139.5,131.5,170.7z"/>
<path d="M344.1,167.8c9.8,9.9,25.4,11,36.3,2.4c39.7-31.1,76.6-74.7,56.2-95.1c-20.5-20.5-64.2,16.7-95.3,56.4
	c-8.5,10.9-7.4,26.3,2.4,36C343.9,167.6,344,167.7,344.1,167.8z"/>
<path d="M404.6,228.5c-13.8,1.7-24.1,13.4-24.1,27.3c0,0.1,0,0.2,0,0.3l0,0c0,0.2,0,0.5,0,0.7c-0.2,13.4,9.5,25,22.8,26.6
	c50.3,6.3,108.2,1.8,108.2-27.3C511.5,227.3,454.6,222.5,404.6,228.5z"/>
<path d="M255.6,0C226.7,0,222,57,228,107c1.7,13.8,13.3,24,27.2,24c0.1,0,0.2,0,0.3,0s0.2,0,0.2,0c13.9,0,25.6-10.2,27.2-24
	C289.1,57,284.5,0,255.6,0z"/>
<path d="M107.4,228.5c13.8,1.7,24.1,13.4,24.1,27.3c0,0.1,0,0.2,0,0.3l0,0c0,0.2,0,0.5,0,0.7c0.2,13.4-9.5,25-22.8,26.6
	c-50.3,6.3-108.2,1.8-108.2-27.3C0.5,227.3,57.4,222.5,107.4,228.5z"/>
<g>
	<path d="M131.5,341.3c10.8-8.4,26-7.6,35.8,1.9c0.1,0.1,0.3,0.3,0.4,0.4c10,9.7,11.1,25.3,2.5,36.3c-31.1,40-75.1,77.6-95.7,57.1
		C54,416.5,91.5,372.5,131.5,341.3z"/>
	<path d="M344.1,344.2c9.8-9.9,25.4-11,36.3-2.4c39.7,31.1,76.6,74.7,56.2,95.1c-20.5,20.5-64.2-16.7-95.3-56.4
		c-8.5-10.9-7.4-26.3,2.4-36C343.9,344.4,344,344.3,344.1,344.2z"/>
	<path d="M255.6,512c-28.8,0-33.6-56.6-27.7-106.6c1.7-13.9,13.4-24.4,27.5-24.4c0.1,0,0.1,0,0.2,0c0.1,0,0.2,0,0.2,0
		c13.9,0,25.6,10.2,27.2,24C289.1,455,284.5,512,255.6,512z"/>
</g>
</svg>
