<?xml version="1.0" encoding="utf-8"?>
<!-- Generator: Adobe Illustrator 19.2.0, SVG Export Plug-In . SVG Version: 6.00 Build 0)  -->
<svg version="1.1" id="Layer_1" xmlns="http://www.w3.org/2000/svg" xmlns:xlink="http://www.w3.org/1999/xlink" x="0px" y="0px"
	 viewBox="0 0 512 512" style="enable-background:new 0 0 512 512;" xml:space="preserve">
<g>
	<path d="M426.7,0H85.3C38.4,0,0,38.4,0,85.4v341.3C0,473.6,38.4,512,85.3,512h341.3c46.9,0,85.3-38.4,85.3-85.3V85.4
		C512,38.4,473.6,0,426.7,0z M419,391.8c0,14.9-12.3,27.2-27.2,27.2H120.2c-14.9,0-27.2-12.3-27.2-27.2V120.3
		c0-14.9,12.3-27.3,27.2-27.3h271.6c14.9,0,27.2,12.3,27.2,27.3V391.8z"/>
	<path d="M310.3,186H201.7c-8.5,0-15.7,7.2-15.7,15.7v108.6c0,8.6,7.2,15.7,15.7,15.7h108.6c8.5,0,15.7-7.1,15.7-15.7V201.7
		C326,193.2,318.9,186,310.3,186z"/>
</g>
</svg>
