<svg xmlns="http://www.w3.org/2000/svg" viewBox="0 0 512 512"><path fill="none" d="M95.6 479.3l320.7.1.1-448.1H95.7l-.1 448zm50.3-384l179 .1c8.8 0 16 7.2 16 16s-7.2 16-16 16l-179-.1c-8.8 0-16-7.2-16-16s7.1-16 16-16zm-.1 95.9H258c8.8 0 16 7.2 16 16s-7.2 16-16 16H145.8c-8.8 0-16-7.2-16-16s7.2-16 16-16z"/><path d="M145.9 127.3l179 .1c8.8 0 16-7.2 16-16s-7.2-16-16-16l-179-.1c-8.8 0-16 7.2-16 16s7.1 16 16 16zM145.8 223.2H258c8.8 0 16-7.2 16-16s-7.2-16-16-16H145.8c-8.8 0-16 7.2-16 16 0 8.9 7.2 16 16 16z"/><path d="M63.7-.7l-.2 512.1 384.7.1.2-512.1L63.7-.7zm352.6 480.1l-320.7-.1.1-448.1 320.7.1-.1 448.1z"/></svg>