<?xml version="1.0" encoding="utf-8"?>
<!-- Generator: Adobe Illustrator 19.2.0, SVG Export Plug-In . SVG Version: 6.00 Build 0)  -->
<svg version="1.1" id="Layer_1" xmlns="http://www.w3.org/2000/svg" xmlns:xlink="http://www.w3.org/1999/xlink" x="0px" y="0px"
	 viewBox="0 0 512 512" style="enable-background:new 0 0 512 512;" xml:space="preserve">
<g>
	<path d="M411.5,57h-71.4c-5-12.8-14.2-21.3-24.8-21.3H196.7c-10.6,0-19.9,8.5-24.8,21.3h-71.5c-11.1,0-20.1,8-20.1,17.9v419.3
		c0,9.8,9,17.8,20.2,17.8h311c11.1,0,20.1-8,20.1-17.9V74.9C431.6,65,422.6,57,411.5,57z M391.5,476.4H120.6V92.9h49
		c3.9,16.7,14.5,28.6,27.1,28.6h118.6c12.5,0,23.1-12,27.1-28.6h49.1V476.4z"/>
	<path d="M334,209.7L219.4,323.5l-41.6-39.9c-6.8-6.5-17.5-6.3-24,0.5c-6.5,6.8-6.3,17.5,0.5,24l53.6,51.4c3.3,3.2,7.5,4.7,11.8,4.7
		c4.3,0,8.7-1.6,12-4.9L358,233.9c6.7-6.6,6.7-17.4,0.1-24C351.5,203.2,340.7,203.1,334,209.7z"/>
</g>
</svg>
