<?xml version="1.0" encoding="utf-8"?>
<!-- Generator: Adobe Illustrator 19.1.0, SVG Export Plug-In . SVG Version: 6.00 Build 0)  -->
<svg version="1.1" id="Layer_1" xmlns="http://www.w3.org/2000/svg" xmlns:xlink="http://www.w3.org/1999/xlink" x="0px" y="0px"
	 viewBox="0 0 512 512" style="enable-background:new 0 0 512 512;" xml:space="preserve">
<path d="M119.1,468.1c-37.8-24.3-68.5-58.5-88.8-99.1C9.9,328.4,1,282.5,4.6,236.4c3.6-46.2,19.5-90.1,46-127.1
	C73.7,76.9,105,50.1,141,31.7c35.8-18.3,75.7-28,115.3-28c9.5,0,19.2,0.6,28.6,1.7c46.5,5.5,90.9,24,128.3,53.4
	c34.3,27,61.4,63.9,78.2,106.9c17.4,44.4,21.3,93.2,11.3,141.2c-9.9,47.6-32.7,91-66,125.4c-3.2,3.3-6.6,6.6-10.1,9.8l-1.9,1.7
	l48.2-0.4c8.5,0,15,6.6,15.1,15.3c0,8.8-6.5,15.6-15.1,15.6l-92,0.8c-8.4,0-15.3-6.9-15.4-15.4l-0.8-93.8c0-4.2,1.4-7.9,4.2-10.7
	c2.8-2.9,6.9-4.5,11.2-4.5c8.8,0,15.5,6.5,15.6,15.1l0.5,61.7l1.6-1.3c30.9-25.9,55-61.1,67.9-99.2c13.5-39.7,15.3-82.4,5.3-123.4
	c-9.7-39.7-30.3-76-59.6-105.2C381.4,68.5,342.9,48,300.1,39c-14.2-3-28.9-4.5-43.5-4.5c-67.9,0-133.6,32.2-176,86.1
	c-25.5,32.5-41,72.2-44.9,114.7c-3.8,42.2,4.1,84.1,22.8,121.1c17.8,35,44.7,64.8,77.8,86c35.7,22.9,77.4,35,120.6,35
	c7.1,0,14.2-0.3,21.2-1c0.4,0,0.8-0.1,1.2-0.1c7.9,0,14.8,7.2,14.8,15.5c0,8.1-6.3,14.6-14.9,15.4c-7.6,0.7-15.3,1.1-23,1.1
	C207.5,508.4,160.1,494.5,119.1,468.1z M295.5,303.7c0-32-128.1-32-128.1-96s64-64,64-64v-32h32v32c0,0,64,0,64,64h-32
	c0-64-96-64-96,0c0,32,128.1,32,128.1,96s-64,64-64,64v32h-32v-32c0,0-64,0-64-64h32C199.5,367.8,295.5,367.8,295.5,303.7z"/>
</svg>
