<?xml version="1.0" encoding="utf-8"?>
<!-- Generator: Adobe Illustrator 19.2.0, SVG Export Plug-In . SVG Version: 6.00 Build 0)  -->
<svg version="1.1" id="Layer_1" xmlns="http://www.w3.org/2000/svg" xmlns:xlink="http://www.w3.org/1999/xlink" x="0px" y="0px"
	 viewBox="0 0 512 512" style="enable-background:new 0 0 512 512;" xml:space="preserve">
<g id="Layer_2_2_">
	<path id="briefcase-8-icon" d="M190.2,155.1h-36.6v-46.7c0-14.8,20.6-16.2,35.3-16.2h156.2c14.6,0,19.2,1.5,19.2,16.2v46.7h-36.6
		v-29.7c0-4.7,2.8-1-1.9-1H208c-4.7,0-18-3.7-18,1L190.2,155.1L190.2,155.1z M327.7,302.8v36.6h179.9v155.1
		c0,9.7-7.9,17.6-17.6,17.6H27.8c-9.7,0-17.6-7.9-17.6-17.6V339.4h179.9v-36.6H17.6c-9.7,0-17.6-7.9-17.6-17.6v-86.3
		c0-9.7,7.9-17.6,17.6-17.6h476.9c9.7,0,17.6,7.9,17.6,17.6v86.3c0,9.7-7.9,17.6-17.6,17.6H327.7z M292.6,286.7h-67.3V354h67.3
		V286.7z"/>
</g>
</svg>
