<?xml version="1.0" encoding="utf-8"?>
<!-- Generator: Adobe Illustrator 21.0.2, SVG Export Plug-In . SVG Version: 6.00 Build 0)  -->
<svg version="1.1" id="Layer_1" xmlns="http://www.w3.org/2000/svg" xmlns:xlink="http://www.w3.org/1999/xlink" x="0px" y="0px"
	 viewBox="0 0 50 50" enable-background="new 0 0 50 50" xml:space="preserve">
<g>
	<path d="M44.8,19.1c-0.3-0.9-1-1.7-1.9-1.9C42,8.1,34.3,1,25,1C15.7,1,8,8.1,7.1,17.2c-0.9,0.3-1.7,1-1.9,1.9c-3,0.6-5.2,4-5.2,8.4
		s2.2,7.8,5.2,8.4C5.5,37.1,6.7,38,8,38c1.7,0,3-1.3,3-3V20c0-1.3-0.8-2.3-1.9-2.8C10,9.2,16.8,3,25,3s15,6.2,15.9,14.2
		C39.8,17.7,39,18.7,39,20v15c0,1.3,0.8,2.4,2,2.8c-0.3,4-2.8,6.2-7,6.2h-3.2c-0.4-1.2-1.5-2-2.8-2h-5c-1.7,0-3,1.3-3,3s1.3,3,3,3h5
		c1.3,0,2.4-0.8,2.8-2H34c5.3,0,8.6-3.1,9-8.2c0.9-0.3,1.6-1,1.9-1.9c3-0.6,5.2-4,5.2-8.4S47.8,19.7,44.8,19.1z M5,33.8
		c-1.7-0.7-3-3.3-3-6.3s1.3-5.5,3-6.3V33.8z M9,35c0,0.5-0.5,1-1,1s-1-0.5-1-1V20c0-0.5,0.5-1,1-1s1,0.5,1,1V35z M28,46h-5
		c-0.5,0-1-0.5-1-1s0.5-1,1-1h5c0.5,0,1,0.5,1,1S28.5,46,28,46z M43,35c0,0.5-0.5,1-1,1s-1-0.5-1-1V20c0-0.5,0.5-1,1-1s1,0.5,1,1V35
		z M45,33.8V21.2c1.7,0.7,3,3.3,3,6.3S46.7,33,45,33.8z"/>
</g>
</svg>
