<?xml version="1.0" encoding="utf-8"?>
<!-- Generator: Adobe Illustrator 19.2.0, SVG Export Plug-In . SVG Version: 6.00 Build 0)  -->
<svg version="1.1" id="Layer_1" xmlns="http://www.w3.org/2000/svg" xmlns:xlink="http://www.w3.org/1999/xlink" x="0px" y="0px"
	 viewBox="0 0 512 512" style="enable-background:new 0 0 512 512;" xml:space="preserve">
<path d="M448.4,256.3c-5-91.2-88.7-163.8-191.9-163.8S69.4,165.1,64.4,256.3C29,257.8-0.1,292.2-0.1,334.6
	c0,42.1,26.6,76.4,62.6,78.2v4.1h57v-152c0-66.2,61.4-120.1,135.5-120.1s135.5,53.9,135.5,120.1v138.2l-65.7,62.2
	c-1.2-0.2-2.3-0.3-3.6-0.3c-14.5,0-26.2,10.5-26.2,23.5s11.8,23.5,26.3,23.5s26.3-10.5,26.3-23.5c0-1.2-0.2-0.4-0.4-1.6l76.6-70.2
	h22.7v-4c36-1.5,65.4-35.9,65.4-78.2C511.9,292,484,257.5,448.4,256.3z"/>
</svg>
