<svg xmlns="http://www.w3.org/2000/svg" viewBox="0 0 512 512"><path d="M434.2 77.8C386.6 30.2 323.3 4 256 4S125.4 30.2 77.8 77.8 4 188.7 4 256s26.2 130.6 73.8 178.2S188.7 508 256 508s130.6-26.2 178.2-73.8C481.8 386.6 508 323.3 508 256c0-67.3-26.2-130.6-73.8-178.2zm-22.6 333.8C370 453.1 314.8 476 256 476s-114-22.9-155.6-64.4S36 314.8 36 256s22.9-114 64.4-155.6C142 58.9 197.2 36 256 36s114 22.9 155.6 64.4C453.1 142 476 197.2 476 256s-22.9 114-64.4 155.6z"/><path d="M188.5 270.5c4.1 0 8.2-1.6 11.3-4.7 6.2-6.2 6.2-16.4 0-22.6L163.6 207H316c8.8 0 16-7.2 16-16s-7.2-16-16-16H163.6l36.2-36.2c6.2-6.2 6.2-16.4 0-22.6-6.2-6.2-16.4-6.2-22.6 0l-63.5 63.5c-.4.4-.7.7-1 1.1-.2.2-.3.4-.4.6-.2.2-.3.4-.5.7-.2.2-.3.5-.4.7-.1.2-.3.4-.4.6-.1.2-.2.5-.4.7-.1.2-.2.5-.3.7-.1.2-.2.5-.3.7-.1.3-.2.5-.3.8-.1.2-.1.5-.2.7-.1.3-.1.5-.2.8-.1.3-.1.6-.1.8 0 .2-.1.5-.1.7-.1.5-.1 1-.1 1.6 0 .5 0 1 .1 1.6 0 .2.1.5.1.7 0 .3.1.6.1.8.1.3.1.5.2.8.1.2.1.5.2.7.1.3.2.5.3.8.1.2.2.5.3.7.1.2.2.5.3.7.1.2.2.5.3.7.1.2.3.4.4.6.1.2.3.5.4.7.2.2.3.5.5.7.1.2.3.4.4.6.3.4.7.8 1 1.2l63.5 63.5c3.2 3.2 7.3 4.8 11.4 4.8zm213.8 64.4c.1-.2.3-.5.4-.7.1-.2.3-.4.4-.7.1-.2.2-.5.3-.7.1-.2.2-.5.3-.7.1-.2.2-.5.3-.7.1-.3.2-.5.3-.8.1-.2.1-.5.2-.7.1-.3.1-.5.2-.8.1-.3.1-.6.1-.9 0-.2.1-.4.1-.7.1-1.1.1-2.1 0-3.2 0-.2-.1-.5-.1-.7 0-.3-.1-.6-.1-.9-.1-.3-.1-.5-.2-.8-.1-.2-.1-.5-.2-.7-.1-.3-.2-.5-.3-.8-.1-.2-.2-.5-.3-.7-.1-.2-.2-.5-.3-.7-.1-.2-.2-.5-.3-.7-.1-.2-.3-.4-.4-.7-.1-.2-.3-.5-.4-.7-.2-.2-.4-.5-.5-.7-.1-.2-.3-.4-.4-.5-.3-.4-.7-.8-1.1-1.2L336.8 251c-6.2-6.2-16.4-6.2-22.6 0-6.2 6.2-6.2 16.4 0 22.6l36.2 36.2H198c-8.8 0-16 7.2-16 16s7.2 16 16 16h152.4L314.2 378c-6.2 6.2-6.2 16.4 0 22.6 3.1 3.1 7.2 4.7 11.3 4.7s8.2-1.6 11.3-4.7l63.5-63.5c.4-.4.7-.8 1.1-1.2.1-.2.3-.4.4-.5.2 0 .3-.3.5-.5z"/></svg>
