<?xml version="1.0" encoding="utf-8"?>
<!-- Generator: Adobe Illustrator 19.2.0, SVG Export Plug-In . SVG Version: 6.00 Build 0)  -->
<svg version="1.1" id="Layer_2_2_" xmlns="http://www.w3.org/2000/svg" xmlns:xlink="http://www.w3.org/1999/xlink" x="0px" y="0px"
	 viewBox="0 0 512 512" style="enable-background:new 0 0 512 512;" xml:space="preserve">
<path d="M503.5,274.1L233,3.5c-2.3-2.3-5.3-3.5-8.5-3.5l-213,0.3c-6.6,0-12,5.4-12,12v212.1c0,3.2,1.3,6.2,3.5,8.5l270.4,270.7
	c4.7,4.7,12.3,4.7,17,0l213.1-212.5C508.2,286.4,508.2,278.8,503.5,274.1z M154.2,145.8c-18.4,18.7-48.2,18.7-66.5,0
	c-18.4-18.7-18.4-48.9,0-67.6c18.4-18.7,48.2-18.7,66.5,0C172.6,96.9,172.6,127.2,154.2,145.8z"/>
</svg>
