<?xml version="1.0" encoding="utf-8"?>
<!-- Generator: Adobe Illustrator 19.1.0, SVG Export Plug-In . SVG Version: 6.00 Build 0)  -->
<svg version="1.1" id="Layer_1" xmlns="http://www.w3.org/2000/svg" xmlns:xlink="http://www.w3.org/1999/xlink" x="0px" y="0px"
	 viewBox="0 0 512 512" enable-background="new 0 0 512 512" xml:space="preserve">
<path fill="#1D1D1B" d="M228.5,479.1L49,479.2V33h319v175.3c11,0.5,21,2.1,31,4.6V1H17v510l244.8-0.1
	C249.3,501.9,238.1,491.2,228.5,479.1z"/>
<path fill="#1D1D1B" d="M359.6,239.9c-74.7,0-135.4,60.8-135.4,135.4c0,74.7,60.8,135.4,135.4,135.4S495,450.1,495,375.4
	C495,300.7,434.3,239.9,359.6,239.9z M256,375.4c0-57.1,46.5-103.6,103.6-103.6s103.6,46.5,103.6,103.6S416.7,479,359.6,479
	S256,432.5,256,375.4z"/>
<path fill="#1D1D1B" d="M403.7,330.6l-56.4,56.4L325,364.5c-6.2-6.2-16.3-6.2-22.5,0c-6.2,6.2-6.2,16.3,0,22.5l33.6,33.6
	c3.1,3.1,7.2,4.7,11.3,4.7s8.2-1.6,11.3-4.7l67.6-67.6c6.2-6.2,6.2-16.3,0-22.5C420,324.3,409.9,324.3,403.7,330.6z"/>
<rect x="93" y="97" fill="#1D1D1B" width="202" height="31"/>
<rect x="93" y="192" fill="#1D1D1B" width="144" height="32"/>
</svg>
