<?xml version="1.0" encoding="utf-8"?>
<!-- Generator: Adobe Illustrator 17.1.0, SVG Export Plug-In . SVG Version: 6.00 Build 0)  -->
<!DOCTYPE svg PUBLIC "-//W3C//DTD SVG 1.1//EN" "http://www.w3.org/Graphics/SVG/1.1/DTD/svg11.dtd">
<svg version="1.1" id="Layer_1" xmlns="http://www.w3.org/2000/svg" xmlns:xlink="http://www.w3.org/1999/xlink" x="0px" y="0px"
	 viewBox="0 0 512 512" enable-background="new 0 0 512 512" xml:space="preserve">
<g>
	<path d="M203.4,117.6c0-18.6-10.8-30.2-28.2-30.2c-17.4,0-27.8,11.3-27.8,30.2c0,18.4,10.4,29.4,27.8,29.4
		C192.9,147,203.4,136,203.4,117.6z"/>
	<path d="M346.4,237.4c-17.4,0-27.8,11.3-27.8,30.2c0,18.4,10.4,29.4,27.8,29.4c17.7,0,28.2-11,28.2-29.4
		C374.6,249,363.8,237.4,346.4,237.4z"/>
	<path d="M416,0H96C78.3,0,64,14.3,64,32v448c0,17.7,14.3,32,32,32h220.7c2.1,0,4.2-0.8,5.7-2.3l123.3-123.3
		c1.5-1.5,2.3-3.5,2.3-5.7V32C448,14.3,433.7,0,416,0z M109,117.6c0-17.8,6.6-33.8,18.7-45.2c12-11.2,28.8-17.4,47.5-17.4
		C194,55,211,61.2,223,72.4c12.1,11.3,18.8,27.4,18.8,45.2c0,17.6-6.7,33.4-18.8,44.6c-12,11.1-29,17.2-47.8,17.2
		c-18.7,0-35.5-6.1-47.5-17.2C115.6,151,109,135.2,109,117.6z M176.1,334.4h-0.2c-5.6,0-10.8-3-13.5-7.9c-2.7-4.9-2.5-10.9,0.5-15.6
		L320.1,64.5c2.8-4.5,7.6-7.1,12.9-7.1h0.6c5.6,0,10.8,3,13.5,7.9c2.7,4.9,2.5,10.9-0.5,15.6L189,327.3
		C186.2,331.8,181.4,334.4,176.1,334.4z M394.2,312.2c-12,11.1-29,17.2-47.8,17.2c-18.7,0-35.5-6.1-47.5-17.2
		c-12.1-11.2-18.7-27-18.7-44.6c0-17.8,6.6-33.8,18.7-45.2c12-11.2,28.8-17.4,47.5-17.4c18.8,0,35.8,6.2,47.8,17.4
		c12.1,11.3,18.8,27.4,18.8,45.2C413,285.2,406.3,301,394.2,312.2z"/>
</g>
</svg>
