<svg xmlns="http://www.w3.org/2000/svg" viewBox="0 0 512 512"><path d="M256 56.8C146.2 56.8 56.8 146.2 56.8 256c0 109.8 89.3 199.2 199.2 199.2 109.8 0 199.2-89.3 199.2-199.2 0-109.8-89.4-199.2-199.2-199.2zm0 383.4c-101.5 0-184.2-82.6-184.2-184.2S154.5 71.8 256 71.8 440.2 154.5 440.2 256 357.5 440.2 256 440.2z"/><path d="M330.5 183.5c0-4.1-3.4-7.5-7.5-7.5H195c-4.1 0-7.5 3.4-7.5 7.5s3.4 7.5 7.5 7.5h38c.2 0 .3.1.5.1 17.4 1.9 31.6 11.4 37.3 23.9H195c-4.1 0-7.5 3.4-7.5 7.5s3.4 7.5 7.5 7.5h78.3c-1.8 19-21.9 34-46.3 34h-24.3c-3 0-5.7 1.8-6.9 4.5-1.2 2.7-.7 5.9 1.3 8.1l80.1 88.1c1.5 1.6 3.5 2.5 5.6 2.5 1.8 0 3.6-.6 5-2 3.1-2.8 3.3-7.5.5-10.6L219.6 279h7.4c32.8 0 59.7-21.7 61.4-49H323c4.1 0 7.5-3.4 7.5-7.5s-3.4-7.5-7.5-7.5h-36.3c-2.7-9.2-8.3-17.4-16.1-24H323c4.1 0 7.5-3.4 7.5-7.5z"/></svg>