<?xml version="1.0" encoding="utf-8"?>
<!-- Generator: Adobe Illustrator 17.1.0, SVG Export Plug-In . SVG Version: 6.00 Build 0)  -->
<!DOCTYPE svg PUBLIC "-//W3C//DTD SVG 1.1//EN" "http://www.w3.org/Graphics/SVG/1.1/DTD/svg11.dtd">
<svg version="1.1" id="Layer_1" xmlns="http://www.w3.org/2000/svg" xmlns:xlink="http://www.w3.org/1999/xlink" x="0px" y="0px"
	 viewBox="0 0 40 40" enable-background="new 0 0 40 40" xml:space="preserve">
<path d="M7.8,6.5c0-0.7,0.1-1.3,0.3-1.9c0.2-0.7,0.4-1.3,0.8-1.8c0.4-0.7,1-1.3,1.8-1.6c0.5-0.2,1-0.4,1.5-0.5
	c0.5-0.1,0.9-0.3,1.4-0.3c0.9-0.1,1.6,0.1,2.1,1.2c0.3,0.8,0.6,1.5,1,2.3c0.3,0.7,0.6,1.4,0.9,2.2c0.3,0.7,0.6,1.4,0.8,2.1
	c0.3,0.9,0.1,1.6-0.8,2.3c-1,0.7-2.1,1.2-3.2,1.7c-0.1,0.1-0.3,0.1-0.4,0.1c-0.2,0.1-0.3,0.3-0.2,0.4c0.3,0.8,0.6,1.6,1,2.3
	c0.5,1,1.1,2.1,1.7,3.1c0.9,1.5,1.8,2.9,2.8,4.3c0.9,1.2,1.8,2.4,2.9,3.5c0.3,0.3,0.4,0.3,0.7,0c0.8-0.9,1.7-1.5,2.7-2.2
	c0.4-0.3,0.8-0.4,1.3-0.5c0.6-0.1,1.1,0.1,1.5,0.5c0.6,0.5,1.1,1.1,1.6,1.7c1.1,1.2,2.2,2.4,3.3,3.5c0.6,0.6,0.7,1.4,0.3,2.2
	c-0.2,0.4-0.5,0.8-0.8,1.2c-0.5,0.6-1.1,1.1-1.7,1.7c-0.4,0.3-0.9,0.5-1.4,0.6c-0.4,0.1-0.9,0.1-1.3,0.1c-0.7,0-1.4-0.1-2.1-0.3
	c-1.6-0.5-3-1.3-4.4-2.2c-1.4-0.9-2.6-1.9-3.8-3.1c-0.9-0.9-1.7-1.8-2.5-2.7c-0.9-1.1-1.8-2.2-2.5-3.4c-0.7-1.1-1.3-2.1-1.9-3.3
	c-0.4-0.9-0.9-1.8-1.3-2.7c-0.3-0.6-0.5-1.3-0.7-1.9C9,14,8.8,13.3,8.6,12.6c-0.2-0.7-0.3-1.3-0.4-2C8,9.3,7.8,7.6,7.8,6.5z"/>
</svg>
