<svg xmlns="http://www.w3.org/2000/svg" viewBox="0 0 512 512">
  <path d="M497.9 87.3H14.1c-7.4 0-13.4 6-13.4 13.4v310.7c0 .2.1.4.1.5.1 1.5.3 3 .9 4.5v.2c.6 1.4 1.5 2.7 2.6 3.8.3.3.6.6 1 .9.9.8 1.8 1.4 2.8 1.9.4.2.8.4 1.3.6 1.5.6 3 .9 4.7.9h483.8c7.4 0 13.4-6 13.4-13.4V100.7c-.1-7.4-6-13.4-13.4-13.4zM484.5 114v161.8l-61-61.2c-4.7-4.7-12.2-5.3-17.6-1.2l-83.3 63.4-88.3-95.3c-2.5-2.7-6-4.2-9.7-4.3-3.8 0-7.2 1.5-9.8 4.1L27.4 378V114h457.1zm0 284.1H45.3l179.2-188 86.9 93.8c4.7 5.1 12.4 5.7 17.9 1.6l83.6-63.7 71.7 71.9v84.4z"/>
  <path d="M338.6 219.2c23.4 0 42.4-19.6 42.4-43.8 0-24.1-19-43.8-42.4-43.8-23.3 0-42.3 19.6-42.3 43.8 0 24.2 19 43.8 42.3 43.8zm0-60.8c8.6 0 15.6 7.7 15.6 17.1 0 9.4-7 17.1-15.6 17.1s-15.6-7.7-15.6-17.1c0-9.5 7-17.1 15.6-17.1z"/>
</svg>
