<?xml version="1.0" encoding="utf-8"?>
<!-- Generator: Adobe Illustrator 21.0.2, SVG Export Plug-In . SVG Version: 6.00 Build 0)  -->
<svg version="1.1" id="Layer_1" xmlns="http://www.w3.org/2000/svg" xmlns:xlink="http://www.w3.org/1999/xlink" x="0px" y="0px"
	 viewBox="0 0 1000 1000" enable-background="new 0 0 1000 1000" xml:space="preserve">
<g id="RRvbou.tif">
	<g>
		<g>
			<g>
				<path d="M248.3,386c18.3-22.1,39.8-39,63.8-50.4c23.7-11.2,50.8-17.3,80.4-18.3l18.6-0.6v-146l-21.9,3.1
					c-6.9,1-13.7,1.8-20.4,2.7c-15.8,2-30.8,3.8-46,7.3C175.6,216.9,69.7,342.5,65.1,489.3c-2.3,73.8-1.7,148.8-1.2,221.3
					c0.2,32,0.5,65,0.5,97.5c0,4.4,1,7.8,1.8,10.4c0.2,0.6,0.4,1.2,0.5,1.9l3.6,14.5h340.2V486.3H207.1c1.5-18.8,5.7-36.5,12.5-53.1
					C226.5,416.5,236,400.9,248.3,386z M218.7,361.5c-34.6,41.8-51.2,89-50.7,144.1l0.2,19h204v271.9H102.8
					c0-28.8-0.3-57.9-0.5-86.2c-0.5-72.1-1.1-146.7,1.2-219.8c4-129.3,97.6-240,227.7-269.3c13.2-3,26.9-4.7,41.5-6.5v65.5
					C310.1,286.4,258.3,313.7,218.7,361.5L218.7,361.5z"/>
			</g>
			<g>
				<path d="M756.4,400.5c18.2-26.7,40.6-47.3,66.6-61.1c25.6-13.6,55.6-21.2,89-22.4l18.5-0.7V176h-19.2c-3,0-5.9-0.1-8.8-0.1
					c-6.3-0.1-12.2-0.3-18.6,0.3c-81.6,7.2-157.3,44.7-213.3,105.5c-56,60.8-86.9,139.4-87.2,221.3c-0.3,76.4-0.2,154-0.1,229.1
					c0,21.7,0.1,43.5,0.1,65.2c0,4.5,0.3,8.7,0.6,12.8c0.1,2.1,0.3,4,0.4,5.9l0.9,18.2h345V487.3h-205c0.7-15.1,3.6-29.6,8.7-44
					C739.2,429,746.6,414.9,756.4,400.5z M687.2,507.7l1.1,18h203.6v270.1h-270c0-21.3,0-42.5-0.1-63.8
					c-0.1-75.1-0.2-152.7,0.1-228.9c0.3-72.2,27.6-141.7,77.1-195.4c49.4-53.8,116.4-86.9,188.3-93.3c1.5-0.1,3.1-0.2,4.8-0.2v65.7
					c-35.6,3.6-67.5,13.7-95.5,30.2c-28,16.5-52,39.5-72,68.8C696.6,420,684.4,462.2,687.2,507.7z"/>
			</g>
		</g>
	</g>
</g>
</svg>
