<svg xmlns="http://www.w3.org/2000/svg" viewBox="0 0 512 512">
  <path d="M377.5 360c-1.9 1.9-4.4 2.8-6.8 2.8-1.3-.1-3.2-.5-5.3-2.8-1.9-1.9-2.9-4.4-2.8-6.8 0-1.3.5-3.2 2.8-5.3l89.6-89.6c50.2-50.2 50.2-131.8 0-181.9-99.6-99.6-261.6-99.6-361.2 0-48.8 48.8-75.4 113.9-75 183.4.4 68 27.1 131.2 75.1 178 49.2 48 114 74.4 182.3 74.4 68.5 0 132-26.5 179.1-74.8 20.4-21.9 20.4-55-.6-77.5-21.9-20.7-56.6-20.6-77.2.1zm60.1 60.2c-42.2 43.3-99.5 67.2-161.3 67.2-61.9 0-120.6-23.9-165.2-67.4-43.2-42.1-67.3-99.1-67.7-160.5-.4-62.8 23.7-121.7 67.8-165.9 45-45 104.1-67.5 163.2-67.5 59.1 0 118.2 22.5 163.2 67.5 40.6 40.6 40.6 106.6 0 147.2l-88.9 89c-6.6 5.6-10.4 13.6-10.7 22.4-.4 9.2 3.3 18.4 9.4 24.5 5.6 6.6 13.6 10.4 22.3 10.7 9.2.3 18.4-3.3 25.1-10 11.4-11.4 30.7-11.2 42.5-.3 11.6 12.3 11.6 31 .3 43.1z"/>
  <path d="M380.1 218.9c12.9 0 25.9-4.9 35.7-14.8 9.4-9.4 14.7-22.1 14.7-35.7s-5.2-26.3-14.7-35.7c-19.7-19.7-51.7-19.7-71.4 0-9.4 9.4-14.7 22.1-14.7 35.7s5.2 26.3 14.7 35.7c9.8 9.9 22.7 14.8 35.7 14.8zm-18.4-68.8c4.8-4.8 11.3-7.5 18.3-7.5s13.5 2.7 18.3 7.5c4.8 4.8 7.5 11.3 7.5 18.3s-2.7 13.5-7.5 18.3c-9.9 9.9-26.7 9.9-36.7 0-4.8-4.8-7.5-11.3-7.5-18.3.2-7 2.8-13.5 7.6-18.3zM265.9 65.3c-13.6 0-26.3 5.2-35.7 14.6-9.4 9.4-14.6 22.1-14.6 35.7s5.2 26.3 14.6 35.7c9.8 9.8 22.8 14.8 35.7 14.8 12.9 0 25.9-4.9 35.7-14.8 19.7-19.7 19.7-51.7 0-71.4-9.5-9.4-22.2-14.6-35.7-14.6zm18.3 68.7c-10 9.9-26.7 9.9-36.7 0-4.8-4.8-7.5-11.3-7.5-18.3s2.6-13.5 7.5-18.3c5-5 11.7-7.5 18.3-7.5 6.7 0 13.4 2.5 18.3 7.5 10 9.9 10 26.6.1 36.6zM101.2 277.7c-19.7 19.7-19.7 51.7 0 71.4 9.4 9.4 22.1 14.7 35.7 14.7 13.5 0 26.1-5.1 35.5-14.5 10.2-9.5 15.7-22.2 15.7-35.9 0-13.8-5.7-26.6-15.6-35.7-19.6-19.7-51.6-19.7-71.3 0zm54.4 53.7l-.4.3c-9.6 9.6-27 9.6-36.7 0-9.9-9.9-9.9-26.7 0-36.7 4.9-4.9 11.5-7.4 18.2-7.4 6.8 0 13.6 2.6 18.8 7.7 5.2 4.8 8 11.2 8 18 .1 6.9-2.7 13.3-7.9 18.1zM124.5 149.9c-19.7 19.7-19.7 51.7 0 71.4 9.4 9.4 22.1 14.6 35.7 14.6s26.3-5.2 35.7-14.6l.3-.4c19.3-21 19.2-51.5-.3-71-19.6-19.6-51.7-19.6-71.4 0zm53.9 54.2c-9.6 9.5-26.9 9.4-36.5-.2-9.9-9.9-9.9-26.7 0-36.7 5-5 11.7-7.4 18.3-7.4 6.7 0 13.4 2.5 18.3 7.4 10.1 10.1 10 25.9-.1 36.9z"/>
</svg>
