<svg data-name="Layer 1" xmlns="http://www.w3.org/2000/svg" viewBox="0 0 74 74">
  <path d="M60.4,41a36.53,36.53,0,0,1-4.47,14.28l5.73,3.3-2.78,4.81L52.77,59.9C48.18,65.41,42,68.8,35.1,68.8a21.3,21.3,0,0,1-10.8-3L60,30a38,38,0,0,1,.56,5.43H64.3V41Z" />
  <path d="M68.38,0,53.55,14.83A26.51,26.51,0,0,0,46.07,8l3-4.74-4.7-3L40.91,5.79A20.41,20.41,0,0,0,35.1,5a20.84,20.84,0,0,0-6.17.94L25.43.41l-4.7,3,3.09,4.85a26.64,26.64,0,0,0-7,6.3L11.4,11.44,8.67,16.23l5.18,3A37.31,37.31,0,0,0,9.62,35.48H5.88V41H9.81a36.89,36.89,0,0,0,4,13.52L0,68.41,5.62,74,18.5,61.11,74,5.59ZM33.71,24.38H27.22V17.9h6.49Zm9.28,0H36.5V17.9H43Z" />
</svg>
