<?xml version="1.0" encoding="utf-8"?>
<!-- Generator: Adobe Illustrator 21.0.2, SVG Export Plug-In . SVG Version: 6.00 Build 0)  -->
<svg version="1.1" id="Layer_1" xmlns="http://www.w3.org/2000/svg" xmlns:xlink="http://www.w3.org/1999/xlink" x="0px" y="0px"
	 viewBox="0 0 1000 1000" enable-background="new 0 0 1000 1000" xml:space="preserve">
<g>
	<path fill="#69AD84" d="M990.7,539.1C970.9,791.8,758.8,991.5,501,991.5C230,991.4,9.7,771.2,9.7,500.2S230,9,500.9,9
		c47.3,0,93,6.7,136.6,19.3l-10.6,32.9c-40.1-11.4-82.2-17.6-126-17.6c-251.7,0-456.6,204.9-456.6,456.6s204.9,456.6,456.6,456.6
		c238.6,0,435-184.1,454.8-417.5L990.7,539.1z"/>
</g>
<g>
	<polygon fill="#69AD84" points="922.9,174.8 444,653.6 262.1,471.7 291.8,442 444,594.2 893.2,145.1 	"/>
</g>
</svg>
