<?xml version="1.0" encoding="utf-8"?>
<!-- Generator: Adobe Illustrator 19.1.0, SVG Export Plug-In . SVG Version: 6.00 Build 0)  -->
<svg version="1.1" id="Layer_1" xmlns="http://www.w3.org/2000/svg" xmlns:xlink="http://www.w3.org/1999/xlink" x="0px" y="0px"
	 viewBox="0 0 512 512" style="enable-background:new 0 0 512 512;" xml:space="preserve">
<g>
	<path d="M256,24c31.3,0,61.7,6.1,90.3,18.2C373.9,53.9,398.7,70.6,420,92c21.3,21.3,38,46.1,49.7,73.8c12.1,28.6,18.2,59,18.2,90.3
		s-6.1,61.7-18.2,90.3c-11.7,27.6-28.4,52.4-49.7,73.8c-21.3,21.3-46.1,38-73.8,49.7c-28.6,12.1-59,18.2-90.3,18.2
		s-61.7-6.1-90.3-18.2c-27.6-11.7-52.4-28.4-73.8-49.7c-21.3-21.3-38-46.1-49.7-73.8C30.1,317.7,24,287.3,24,256s6.1-61.7,18.2-90.3
		C53.9,138.1,70.6,113.3,92,92s46.1-38,73.8-49.7C194.3,30.1,224.7,24,256,24 M256,0C114.6,0,0,114.6,0,256s114.6,256,256,256
		s256-114.6,256-256S397.4,0,256,0L256,0z"/>
</g>
<path d="M144,252.5l49.7,48.9c6.2,6.1,16.2,6.1,22.3-0.1l152.7-138.3c6.2-6.2,16.2-6.1,22.4,0v0c6.2,6.2,6.2,16.2,0,22.4
	L215.5,348.8c-6.2,6.3-16.4,6.2-22.6,0l-72.1-73.1c-6.2-6.3-6.1-16.6,0.4-22.7l0.8-0.7C128.2,246.4,137.9,246.5,144,252.5z"/>
</svg>
