<?xml version="1.0" encoding="utf-8"?>
<!-- Generator: Adobe Illustrator 19.2.0, SVG Export Plug-In . SVG Version: 6.00 Build 0)  -->
<svg version="1.1" id="Layer_1" xmlns="http://www.w3.org/2000/svg" xmlns:xlink="http://www.w3.org/1999/xlink" x="0px" y="0px"
	 viewBox="0 0 512 512" style="enable-background:new 0 0 512 512;" xml:space="preserve">
<g id="Layer_6">
	<g>
		<path d="M246.6,280.9c-6.1,0-11.1,5-11.1,11c0,6,4.9,11,11.1,11c6.1,0,11.1-5,11.1-11C257.7,285.9,252.8,280.9,246.6,280.9z"/>
		<path d="M399.9,282.3c-5-76.9-67.4-137-145.4-142v30.2c0,4.9-4,9-9,9h-2.1c-4.9,0-9-4-9-9v-30.2c-73,5-136.4,65.2-141.4,142.2
			h33.5c4.9,0,9,4,9,9v2.1c0,4.9-4,9-9,9H93.1c5,77,68.4,136.2,141.4,141.1v-29.1c0-4.9,4-9,9-9h2.1c4.9,0,9,4,9,9v29.2
			c78-5,140.5-64.1,145.5-141.1h-32.6c-4.9,0-9-4-9-9v-2.1c0-4.9,4-9,9-9H400L399.9,282.3z M267,292c0,11.2-9.1,20.2-20.4,20.2
			c-1.3,0-2.4-0.1-3.6-0.3l-12.8,12.6c-3.5,3.4-9.1,3.4-12.6,0l0,0c-3.6-3.5-3.6-9.2,0-12.8l10.8-10.6c-1.4-2.7-2.3-5.8-2.3-9.1
			c0-11.2,9.2-20.2,20.5-20.2c0.6,0,1.2,0.1,1.9,0.2l-0.1-0.1l78.5-72.3l2.9-0.5l-63.4,88.6C266.8,289,267,290.4,267,292z"/>
		<path d="M250.6,443.9c0.2,0,0.4,0,0.5,0L250.6,443.9L250.6,443.9z"/>
		<path d="M474.7,133.2L449.2,104c-7.2-8.2-19.6-9.2-28-2.1L393,125.7l0.6,2.1c-29.4-25.9-66.1-44.3-107.1-51.9V51.5h26
			c11,0,20-9,20-20v-11c0-11-9-20-20-20h-116c-11,0-20,9-20,20v11c0,11,9,20,20,20h27v21.6C109.5,84.6,23.7,178.2,23.7,292
			c0,121.5,99.8,220,223,220c123,0,222.9-98.5,222.9-220c0-38.2-9.9-74.2-27.3-105.5l30.1-24.7C481,154.6,482.1,141.7,474.7,133.2z
			 M246.6,474.6c-102.1,0-184.9-81.7-184.9-182.7c0-100.9,82.8-182.6,184.9-182.6c102,0,184.8,81.8,184.8,182.6
			C431.4,392.8,348.6,474.6,246.6,474.6z"/>
		<path d="M242.4,443.9L242.4,443.9l-0.3,0C242.2,443.9,242.3,443.9,242.4,443.9z"/>
	</g>
</g>
</svg>
