<?xml version="1.0" encoding="utf-8"?>
<!-- Generator: Adobe Illustrator 19.2.0, SVG Export Plug-In . SVG Version: 6.00 Build 0)  -->
<svg version="1.1" id="Layer_1" xmlns="http://www.w3.org/2000/svg" xmlns:xlink="http://www.w3.org/1999/xlink" x="0px" y="0px"
	 viewBox="0 0 512 512" style="enable-background:new 0 0 512 512;" xml:space="preserve">
<g>
	<path d="M177.2,280h22c9.5,0,16.8-7.3,16.8-16.8v-22c0-9.5-7.3-17.2-16.8-17.2h-22c-9.5,0-17.2,7.7-17.2,17.2v22
		C160,272.7,167.7,280,177.2,280z"/>
	<path d="M480,113c0-8.9-7.3-16.1-16.1-16.1S448,104.2,448,113v351.1H64V119.9c0-8.9-7-24-15.9-24S32,103.2,32,112v366.4
		c0,8.9,7.3,17.6,16.1,17.6h415.7c8.9,0,16.1-7.5,16.1-16.3L480,113L480,113z"/>
	<path d="M216,128h80c8.8,0,16-7.2,16-16s-7.2-16-16-16h-80c-8.8,0-16,7.2-16,16S207.2,128,216,128z"/>
	<path d="M128,160c8.8,0,16-7.2,16-16V33c0-8.8-7.2-16-16-16s-16,7.2-16,16v111C112,152.8,119.2,160,128,160z"/>
	<path d="M384,160c8.8,0,16-7.2,16-16V32c0-8.8-8.2-16-17-16s-15,7.2-15,16v112C368,152.8,375.2,160,384,160z"/>
</g>
<path d="M313.2,280h22c9.5,0,16.8-7.3,16.8-16.8v-22c0-9.5-7.3-17.2-16.8-17.2h-22c-9.5,0-17.2,7.7-17.2,17.2v22
	C296,272.7,303.7,280,313.2,280z"/>
<path d="M177.2,408h22c9.5,0,16.8-7.3,16.8-16.8v-22c0-9.5-7.3-17.2-16.8-17.2h-22c-9.5,0-17.2,7.7-17.2,17.2v22
	C160,400.7,167.7,408,177.2,408z"/>
<path d="M313.2,408h22c9.5,0,16.8-7.3,16.8-16.8v-22c0-9.5-7.3-17.2-16.8-17.2h-22c-9.5,0-17.2,7.7-17.2,17.2v22
	C296,400.7,303.7,408,313.2,408z"/>
</svg>
