<?xml version="1.0" encoding="utf-8"?>
<!-- Generator: Adobe Illustrator 19.2.0, SVG Export Plug-In . SVG Version: 6.00 Build 0)  -->
<svg version="1.1" id="Layer_1" xmlns="http://www.w3.org/2000/svg" xmlns:xlink="http://www.w3.org/1999/xlink" x="0px" y="0px"
	 viewBox="0 0 512 512" style="enable-background:new 0 0 512 512;" xml:space="preserve">
<g>
	<path d="M439.7,147.3l12.6-12.6c7.8-7.8,7.8-20.5,0-28.3l-22.1-22.1c-3.9-3.9-9-5.9-14.1-5.9c-5.1,0-10.2,2-14.1,5.9l-12.9,12.9
		C355.5,73.3,315.4,58,272,55c0-0.2,0-0.4,0-0.6V32h35c8.8,0,16-7.2,16-16s-7.2-16-16-16H205c-8.8,0-16,7.2-16,16s7.2,16,16,16h35
		v22.5c0,0.2,0,0.4,0,0.6C121.6,63.2,27.7,162.2,27.7,282.7C27.7,408.6,130.1,511,256,511s228.3-102.4,228.3-228.3
		C484.3,232.1,467.7,185.2,439.7,147.3z M418.3,122.4c-2.3-2.3-4.6-4.5-6.9-6.7C413.8,117.8,416.1,120.1,418.3,122.4z M256,479
		c-108.2,0-196.3-88-196.3-196.3S147.8,86.5,256,86.5s196.3,88,196.3,196.3S364.2,479,256,479z"/>
	<path d="M330,184.7L263.8,252c-2.9-0.8-5.9-1.3-9.1-1.3c-17.7,0-32,14.3-32,32s14.3,32,32,32c17.7,0,32-14.3,32-32
		c0-2.6-0.3-5.1-0.9-7.5l67-68.1c6.2-6.3,6.1-16.4-0.2-22.6C346.4,178.3,336.2,178.4,330,184.7z"/>
</g>
</svg>
