<?xml version="1.0" encoding="utf-8"?>
<!-- Generator: Adobe Illustrator 19.1.0, SVG Export Plug-In . SVG Version: 6.00 Build 0)  -->
<svg version="1.1" id="Layer_1" xmlns="http://www.w3.org/2000/svg" xmlns:xlink="http://www.w3.org/1999/xlink" x="0px" y="0px"
	 viewBox="-393 395 512 512" enable-background="new -393 395 512 512" xml:space="preserve">
<path d="M-333.5,395.5v511.1H59.4V395.5H-333.5z M27.6,874.5h-329v-447H27.4v447H27.6z"/>
<path d="M-137.3,634.8l-62.2-62.2c-4.6-4.6-5.9-11.5-3.5-17.4c2.4-5.9,8.3-9.9,14.8-9.9h132.7v32h-94.1l46.2,46.2
	c3,3,4.7,7.1,4.7,11.3c0,4.2-1.7,8.3-4.7,11.3l-78.5,78.5h144.4v32h-183c-6.5,0-12.3-3.9-14.8-9.9s-1.1-12.9,3.5-17.4L-137.3,634.8z
	"/>
</svg>
