<svg xmlns="http://www.w3.org/2000/svg" viewBox="0 0 512 512"><path d="M467.4 256V104c0-13.8-11.2-25-25-25H45c-13.8 0-25 11.2-25 25v256.6c0 13.8 11.2 25 25 25h274.9c18 22.8 46 37.5 77.2 37.5 54.2 0 98.4-44.1 98.4-98.4 0-26.7-10.7-50.9-28.1-68.7zM48 117c0-5.5 4.5-10 10-10h371.4c5.5 0 10 4.5 10 10v41c0 5.5-4.5 10-10 10H58c-5.5 0-10-4.5-10-10v-41zm10 240.6c-5.5 0-10-4.5-10-10V206c0-5.5 4.5-10 10-10h371.4c5.5 0 10 4.5 10 10v29.9c-12.8-6.1-27.2-9.6-42.3-9.6-54.2 0-98.4 44.1-98.4 98.4 0 11.5 2 22.6 5.7 32.9H58zm339.1 45.5c-43.2 0-78.4-35.2-78.4-78.4s35.2-78.4 78.4-78.4 78.4 35.2 78.4 78.4-35.2 78.4-78.4 78.4z"/><path d="M215.7 259.7H111.8c-7.7 0-14 6.3-14 14s6.3 14 14 14h103.9c7.7 0 14-6.3 14-14s-6.3-14-14-14zM383.8 372.6c-.1 0-.1 0 0 0-2.7 0-5.3-1.1-7.2-3L340 331.9c-3.9-4-3.8-10.3.2-14.1 4-3.9 10.3-3.8 14.1.2l29.5 30.3 53.5-54.4c3.9-3.9 10.2-4 14.1-.1 3.9 3.9 4 10.2.1 14.1l-60.6 61.6c-1.9 2-4.5 3.1-7.1 3.1z"/></svg>