<svg xmlns="http://www.w3.org/2000/svg" viewBox="0 0 512 512"><path d="M507.6 379.1l.2-.2c.1-.2.3-.4.4-.6.1-.2.3-.3.4-.5 0-.1.1-.1.1-.2.1-.2.3-.4.4-.6.1-.2.2-.3.3-.5 0-.1.1-.2.1-.2.1-.2.2-.5.3-.7.1-.2.2-.3.2-.5 0-.1.1-.2.1-.3.1-.2.2-.5.3-.7.1-.2.1-.3.2-.5 0-.1 0-.2.1-.3.1-.2.1-.5.2-.7 0-.2.1-.3.1-.5 0-.1 0-.2.1-.3 0-.2.1-.5.1-.7 0-.2.1-.4.1-.6V367.1c0-.2-.1-.4-.1-.6 0-.2-.1-.5-.1-.7 0-.1 0-.2-.1-.3 0-.2-.1-.3-.1-.5-.1-.2-.1-.5-.2-.7 0-.1 0-.2-.1-.3-.1-.2-.1-.3-.2-.5s-.2-.5-.3-.7c0-.1-.1-.2-.1-.3-.1-.2-.2-.3-.2-.5-.1-.2-.2-.5-.3-.7 0-.1-.1-.2-.1-.2-.1-.2-.2-.3-.3-.5-.1-.2-.2-.4-.4-.6 0-.1-.1-.1-.1-.2-.1-.2-.2-.3-.4-.5-.1-.2-.3-.4-.4-.6l-.2-.2c-.1-.2-.3-.3-.4-.5-.1-.1-.2-.3-.3-.4L461 310.1c-6.1-6.4-16.3-6.5-22.6-.4-6.4 6.1-6.5 16.3-.4 22.6l19.7 20.4H401V98.6c0-15.4-12.6-28-28-28H136.3c-15.4 0-28 12.6-28 28v37.7H53.9l19.7-20.4c6.1-6.4 6-16.5-.4-22.6-6.4-6.1-16.5-6-22.6.4L4.7 141.1c-.1.1-.2.3-.4.4-.1.2-.3.3-.4.5l-.2.2c-.1.2-.3.4-.4.6-.1.2-.3.3-.4.5 0 .1-.1.1-.1.2-.1.2-.3.4-.4.6-.1.2-.2.3-.3.5 0 .1-.1.1-.1.2-.1.2-.2.5-.3.7-.1.2-.2.3-.2.5 0 .1-.1.2-.1.2-.1.2-.2.5-.3.7-.1.2-.1.3-.2.5 0 .1 0 .2-.1.3-.1.2-.1.5-.2.7 0 .2-.1.3-.1.5v.3c0 .2-.1.5-.1.7 0 .2-.1.4-.1.6v3.4c0 .2.1.4.1.6 0 .2.1.5.1.7v.3c0 .2.1.3.1.5.1.2.1.5.2.7 0 .1 0 .2.1.3.1.2.1.3.2.5s.2.5.3.7c0 .1.1.2.1.2.1.2.2.3.2.5.1.2.2.5.3.7 0 .1.1.1.1.2.1.2.2.3.3.5.1.2.3.4.4.6 0 .1.1.1.1.2.1.2.2.3.4.5.1.2.3.4.4.6l.2.2c.1.2.3.3.4.5.1.1.2.3.4.4l45.9 47.5c3.1 3.2 7.3 4.9 11.5 4.9 4 0 8-1.5 11.1-4.5 6.4-6.1 6.5-16.3.4-22.6l-19.7-20.4h54.4v245.4c0 15.4 12.6 28 28 28h236.5c15.4 0 28-12.6 28-28v-28.8h56.7l-19.7 20.4c-6.1 6.4-6 16.5.4 22.6 3.1 3 7.1 4.5 11.1 4.5 4.2 0 8.4-1.6 11.5-4.9l45.9-47.5c.1-.1.2-.3.3-.4.3-.1.4-.2.6-.4zm-138.7 30.6H140.3V102.6h228.5v307.1z"/><path d="M172.8 185.7h90.9c8.8 0 16-7.2 16-16s-7.2-16-16-16h-90.9c-8.8 0-16 7.2-16 16s7.2 16 16 16zm0 67.9h162.7c8.8 0 16-7.2 16-16s-7.2-16-16-16H172.8c-8.8 0-16 7.2-16 16s7.2 16 16 16zm0 68.5h146.8c8.8 0 16-7.2 16-16s-7.2-16-16-16H172.8c-8.8 0-16 7.2-16 16s7.2 16 16 16z"/></svg>
