<?xml version="1.0" encoding="utf-8"?>
<!-- Generator: Adobe Illustrator 19.2.0, SVG Export Plug-In . SVG Version: 6.00 Build 0)  -->
<svg version="1.1" id="Layer_1" xmlns="http://www.w3.org/2000/svg" xmlns:xlink="http://www.w3.org/1999/xlink" x="0px" y="0px"
	 viewBox="0 0 512 512" style="enable-background:new 0 0 512 512;" xml:space="preserve">
<g>
	<path d="M257.9,512c-87.4,0-167.5-49.3-209-128.8l-4.1-7.7l-32.1,17.9c-4.7,2.6-10.2-1.8-8.7-6.9l27.5-94.8
		c0.9-3.2,4.3-5.1,7.5-4.1l92,28.4c5,1.6,5.8,8.4,1.1,11l-33.7,18.8l4.1,7.7c30.9,59.2,90.5,95.9,155.5,95.9l0,0
		c28.3,0,56.5-7.3,81.4-21.2c31.3-17.4,56.2-43.1,72-74c6.7-13.1,21.7-19.5,35.7-15.1l1.7,0.5c17.7,5.5,26.2,25.6,17.8,42.2
		c-21.4,42.3-55.3,77.5-98.5,101.5C334.4,502,296.2,512,257.9,512L257.9,512L257.9,512z"/>
	<path d="M379.8,216.3l33.7-18.8l-4-7.7c-30.2-57.7-86.1-92.2-149.6-92.2c-29.2,0-58.5,7.7-84.8,22.3c-30.6,17-55.1,43.5-71.1,76.3
		c-6.5,13.2-21.5,19.9-35.6,15.7l-0.8-0.2c-17.6-5.3-26.4-24.9-18.6-41.5c21.6-45.9,55.1-82.7,97-106c35-19.5,74.2-29.8,113.3-29.8
		c85.3,0,163.4,48.1,203.9,125.5l4.1,7.7l32.1-17.9c4.7-2.6,10.2,1.8,8.7,6.9l-27.5,94.9c-0.9,3.2-4.3,5.1-7.5,4.1l-92-28.4
		C375.9,225.7,375.2,218.9,379.8,216.3z"/>
	<g id="Layer_2_6_">
		<path id="expenses_6_" d="M271.5,366.5v27.2h-33v-24.6c-16-1.5-37.3-7.6-53.3-16.6l11.6-40.5c18,7.2,44.5,16.4,64,12
			c17.1-3.8,21.3-19.6,1.4-28.5c-16.9-7.8-75.8-16-75.8-66.3c0-20.8,15.1-49.5,52.1-57.9v-21.5h33v19.4c16,1,30.8,3.8,48,9.4
			c-1.8,7.8-8.6,41.5-8.6,41.5c-11.9-4.2-31-11.5-49.6-10.4c-23.1,1.3-24.6,18.7-9.1,26.7c31.9,14.9,77,27.5,77,71.9
			C329.2,342.5,304.5,362,271.5,366.5z"/>
	</g>
</g>
</svg>
