<?xml version="1.0" encoding="utf-8"?>
<!-- Generator: Adobe Illustrator 19.2.0, SVG Export Plug-In . SVG Version: 6.00 Build 0)  -->
<svg version="1.1" id="Layer_1" xmlns="http://www.w3.org/2000/svg" xmlns:xlink="http://www.w3.org/1999/xlink" x="0px" y="0px"
	 viewBox="0 0 512 512" style="enable-background:new 0 0 512 512;" xml:space="preserve">
<g>
	<path d="M207,415L207,415c8.8,0,16-7.2,16-16V175c0-8.8-7.2-16-16-16l0,0c-8.8,0-16,7.2-16,16v224C191,407.8,198.2,415,207,415z"/>
	<path d="M467,63h-20h-32h-64V31V11c0-6.6-5.4-12-12-12h-20H191h-20.1c-6.6,0-12,5.4-12,12l0.1,52H95H63H43c-6.6,0-12,5.4-12,12v8
		c0,6.6,5.4,12,12,12h20v404c0,6.6,5.4,12,12,12h20h320h20c6.6,0,12-5.4,12-12V95h20c6.6,0,12-5.4,12-12v-8
		C479,68.4,473.6,63,467,63z M191,31h128v32H191V31z M415,467c0,6.6-5.4,12-12,12H107c-6.6,0-12-5.4-12-12V95h64h32h128h32h64V467z"
		/>
	<path d="M303,415L303,415c8.8,0,16-7.2,16-16V175c0-8.8-7.2-16-16-16l0,0c-8.8,0-16,7.2-16,16v224C287,407.8,294.2,415,303,415z"/>
</g>
</svg>
