<?xml version="1.0" encoding="utf-8"?>
<!-- Generator: Adobe Illustrator 19.2.0, SVG Export Plug-In . SVG Version: 6.00 Build 0)  -->
<svg version="1.1" id="Layer_1" xmlns="http://www.w3.org/2000/svg" xmlns:xlink="http://www.w3.org/1999/xlink" x="0px" y="0px"
	 viewBox="0 0 512 512" style="enable-background:new 0 0 512 512;" xml:space="preserve">
<path d="M80.5,192h-64c-8.8,0-16-7.2-16-16v-64c0-8.8,7.2-16,16-16h64c8.8,0,16,7.2,16,16v64C96.5,184.8,89.3,192,80.5,192z"/>
<path d="M495.7,160H144.3c-8.7,0-15.8-7.1-15.8-15.8v-0.3c0-8.7,7.1-15.8,15.8-15.8h351.3c8.7,0,15.8,7.1,15.8,15.8v0.3
	C511.5,152.9,504.4,160,495.7,160z"/>
<path d="M80.5,352h-64c-8.8,0-16-7.2-16-16v-64c0-8.8,7.2-16,16-16h64c8.8,0,16,7.2,16,16v64C96.5,344.8,89.3,352,80.5,352z"/>
<path d="M495.7,320H144.3c-8.7,0-15.8-7.1-15.8-15.8v-0.3c0-8.7,7.1-15.8,15.8-15.8h351.3c8.7,0,15.8,7.1,15.8,15.8v0.3
	C511.5,312.9,504.4,320,495.7,320z"/>
<path d="M80.5,512h-64c-8.8,0-16-7.2-16-16v-64c0-8.8,7.2-16,16-16h64c8.8,0,16,7.2,16,16v64C96.5,504.8,89.3,512,80.5,512z"/>
<path d="M495.7,480H144.3c-8.7,0-15.8-7.1-15.8-15.8v-0.3c0-8.7,7.1-15.8,15.8-15.8h351.3c8.7,0,15.8,7.1,15.8,15.8v0.3
	C511.5,472.9,504.4,480,495.7,480z"/>
</svg>
