<svg xmlns="http://www.w3.org/2000/svg" viewBox="549.3 0 512 512"><path d="M805.3 0c-141.4 0-256 114.6-256 256s114.6 256 256 256 256-114.6 256-256S946.7 0 805.3 0zm116.9 245.7c-6 6-14.1 9-22.1 9s-16-2.9-22.1-9l-42.3-42.3v180.3c0 17.3-13.8 31.2-31.2 31.2-17.3 0-31.2-13.8-31.2-31.2V203.4L731 245.7c-12.1 12.1-32 12.1-42.8 0-12.2-12.2-12.2-31.9 0-44.1l95.4-95.5c.6-.7 1.4-1.4 2.2-2.1l.1-.1c.6-.6 1.4-1.1 2.2-1.7.1 0 .1-.1.2-.1.6-.5 1.4-1 2.2-1.4 0 0 .1-.1.2-.1.7-.4 1.6-.9 2.5-1.1.1-.1.1-.1.2-.1.9-.2 1.7-.6 2.6-.9h.1c.9-.4 1.7-.6 2.7-.7h.1c1-.1 1.9-.2 2.9-.4h.1c.9-.1 1.9-.1 2.9-.1.9 0 1.9 0 2.8.1h.1c1 .1 1.9.2 2.9.4h.1c.9.4 1.9.5 2.7.7h.1c.9.1 1.7.6 2.6.9.1 0 .1.1.2.1.9.2 1.6.7 2.5 1.1 0 0 .1.1.2.1.6.4 1.5 1 2.2 1.4 0 0 .1.1.2.1.6.6 1.5 1.1 2.2 1.7l.1.1c.6.7 1.5 1.4 2.2 2.1l95.4 95.6c13.1 12.1 13.1 31.7.9 44z"/></svg>