<?xml version="1.0" encoding="utf-8"?>
<!-- Generator: Adobe Illustrator 19.2.0, SVG Export Plug-In . SVG Version: 6.00 Build 0)  -->
<svg version="1.1" id="Layer_1" xmlns="http://www.w3.org/2000/svg" xmlns:xlink="http://www.w3.org/1999/xlink" x="0px" y="0px"
	 viewBox="0 0 512 512" style="enable-background:new 0 0 512 512;" xml:space="preserve">
<g id="Layer_2_2_">
	<g>
		<path d="M429.7,356.9v-58.5c0-15.7-12.8-28.5-28.5-28.5h-5c-15.7,0-28.5,12.8-28.5,28.5v58.5h-58.5c-15.7,0-28.5,12.8-28.5,28.5
			l0,0c0,15.7,12.8,28.5,28.5,28.5h58.5v63.5c0,15.7,12.8,28.5,28.5,28.5h5c15.7,0,28.5-12.8,28.5-28.5v-63.5h53.5
			c15.7,0,28.5-12.8,28.5-28.5l0,0c0-15.7-12.8-28.5-28.5-28.5H429.7z"/>
	</g>
</g>
<path d="M331.7,477.4v-27.5h-22.5c-35.6,0-64.5-28.9-64.5-64.5c0-23.7,12.8-44.4,31.9-55.6c0-0.1-0.1-0.2-0.1-0.3
	c-7.6-26.2,22.9-75.4,22.9-75.4s45.8-45.2,15.3-67.6c0,0,30.5-119.9-91.6-119.9c-122.6,0-91.9,119.7-91.9,119.7
	c-30.6,22.5,15.3,67.4,15.3,67.4s30.6,48.7,23,74.9c-7.7,26.3-76.6,46.8-76.6,46.8C-14.4,382.9,1,512,1,512h340.9
	C335.4,502,331.7,490.1,331.7,477.4z"/>
</svg>
