<?xml version="1.0" encoding="utf-8"?>
<!-- Generator: Adobe Illustrator 19.1.0, SVG Export Plug-In . SVG Version: 6.00 Build 0)  -->
<svg version="1.1" id="Layer_1" xmlns="http://www.w3.org/2000/svg" xmlns:xlink="http://www.w3.org/1999/xlink" x="0px" y="0px"
	 viewBox="0 0 512 512" enable-background="new 0 0 512 512" xml:space="preserve">
<path d="M256,236.6c65.3,0,118.5-53.1,118.5-118.5S321.3-0.3,256-0.3S137.5,52.8,137.5,118.1S190.7,236.6,256,236.6z M256,39.7
	c43.3,0,78.5,35.2,78.5,78.5s-35.2,78.5-78.5,78.5s-78.5-35.2-78.5-78.5S212.7,39.7,256,39.7z"/>
<path d="M423,332.6c-44.7-41.6-104-64.5-167-64.5S133.7,291,89,332.6c-45.1,42-69.9,97.9-69.9,157.4c0,11,9,20,20,20H473
	c11,0,20-9,20-20C492.9,430.5,468.1,374.5,423,332.6z M60.3,470c10.8-90.9,94.5-161.9,195.7-161.9c101.3,0,184.9,71,195.7,161.9
	H60.3z"/>
</svg>
