<?xml version="1.0" encoding="utf-8"?>
<!-- Generator: Adobe Illustrator 21.0.2, SVG Export Plug-In . SVG Version: 6.00 Build 0)  -->
<svg version="1.1" id="_x30_c0bfa3b-bb3e-4aea-8553-62ea728ed6d3"
	 xmlns="http://www.w3.org/2000/svg" xmlns:xlink="http://www.w3.org/1999/xlink" x="0px" y="0px" viewBox="0 0 764 764"
	 enable-background="new 0 0 764 764" xml:space="preserve">
<title>User Account</title>
<path fill="#BAC2CE" d="M758.8,100.2v563.6c0,52.5-42.5,95-95,95H100.2c-52.5,0-95-42.5-95-95V100.2c0-52.5,42.5-95,95-95h563.6
	C716.3,5.2,758.8,47.7,758.8,100.2z"/>
<path fill="#FFFFFF" d="M637.2,667L626,759c0,0-88,0-244,0s-246,0-246,0l-9.1-92c0,0-17.7-148.6,105.8-157.2
	c0,0,79.3-23.7,88.1-53.9s-26.4-86.1-26.4-86.1s-52.9-51.7-17.6-77.5c0,0-35.3-137.8,105.7-137.8c140.5,0,105.4,138,105.4,138
	c35.1,25.8-17.6,77.8-17.6,77.8S435.2,426.8,444,457s87.8,52.8,87.8,52.8C654.7,518.4,637.1,667,637.2,667z"/>
</svg>
