<?xml version="1.0" encoding="utf-8"?>
<!-- Generator: Adobe Illustrator 19.2.0, SVG Export Plug-In . SVG Version: 6.00 Build 0)  -->
<svg version="1.1" id="Layer_1" xmlns="http://www.w3.org/2000/svg" xmlns:xlink="http://www.w3.org/1999/xlink" x="0px" y="0px"
	 viewBox="0 0 512 512" style="enable-background:new 0 0 512 512;" xml:space="preserve">
<g>
	<path d="M290,402.7c0,0-56.2-14.7-62.5-35.8c-6.2-21.1,18.7-60.1,18.7-60.1s37.5-36.1,12.5-54.2c0,0,25-96.5-74.9-96.5
		c-100.2,0-75.2,96.6-75.2,96.6c-25.1,18.1,12.5,54.3,12.5,54.3s25.1,39.2,18.8,60.3s-62.6,35.4-62.6,35.4
		c-87.7,6-75.2,107.8-75.2,107.8H365C365,510.5,377.5,408.7,290,402.7z"/>
	<path d="M400.5,512c0-0.1,0-0.6,0.1-1.5h-0.1V512z"/>
	<path d="M454.8,431.5c0,0-41.3-10.7-45.9-26.2s13.8-44.2,13.8-44.2s27.6-26.5,9.2-39.8c0,0,18.4-70.9-55-70.9
		c-73.7,0-55.2,71-55.2,71c-18.4,13.3,9.2,39.9,9.2,39.9s18.4,28.9,13.8,44.4c-0.1,0.5,0.3,0.9,0.1,1.4
		c60.3,17.6,56.7,91.9,55.9,103.3H510C509.9,510.5,519.1,436,454.8,431.5z"/>
</g>
</svg>
