<?xml version="1.0" encoding="utf-8"?>
<!-- Generator: Adobe Illustrator 19.1.0, SVG Export Plug-In . SVG Version: 6.00 Build 0)  -->
<svg version="1.1" id="Layer_1" xmlns="http://www.w3.org/2000/svg" xmlns:xlink="http://www.w3.org/1999/xlink" x="0px" y="0px"
	 viewBox="0 0 512 512" style="enable-background:new 0 0 512 512;" xml:space="preserve">
<path d="M487.1,336.8c-15.8-19.2-38-30.2-66-32.5c-20.9-5.7-43.2-16.3-47-22.3c-1.5-6.5,5.7-26.2,15.4-41.9
	c7.2-7.4,26.7-29.5,25-52.9c-0.5-7.2-2.9-13.9-7-19.5c2.3-17.1,3.5-50.7-16.5-76.5c-16.7-21.5-43.2-32.5-78.8-32.5
	c-19.9,0-37,3.4-51.1,10.1c11.2,5.4,20.5,12.8,27.9,22.3c1.9,2.4,3.5,4.9,5,7.4c5.5-0.9,11.5-1.4,18-1.4c23,0,39.1,5.8,48.2,17.3
	c16,20.5,7.8,54.3,7.7,54.5l-3.2,12.8l10.7,7.7c0.2,0.2,0.5,0.3,0.6,0.5c0.3,4.8-7.8,16.9-15.1,23.9l-1.6,1.6l-1.2,2
	c-0.2,0.5-7,11.1-13,24.7c-9.3,20.9-11.8,37.6-7.8,51.1c1.9,6.3,5.5,12.1,11.1,17.6c11.5,4.3,21.5,10.7,30.1,19.1
	c1,0.5,2.1,0.9,3.2,1.4c15.9,6.7,30.8,10.7,31.4,10.8l1.8,0.5l1.8,0.2c18,1.2,31.3,7.4,40.7,18.7c12.2,14.8,15.5,35.7,16.2,50.1
	h-63.5c0.2,4.8,0.1,9.1,0,12.5l-0.9,26.1h102l0.9-26.1C513,406,511.4,366.2,487.1,336.8z"/>
<path d="M399.6,450H2.8l-2-16.9C0.5,430.6-6,374.8,25.2,337c16-19.4,38.3-30.3,66.3-32.6c20.9-5.6,43.4-16,47.1-22
	c1.6-7.1-6.6-27.7-15.5-42.1c-7.2-7.4-26.7-29.6-25-52.9c0.5-7.2,2.9-13.9,7-19.5c-2.4-17.2-3.5-50.7,16.5-76.5
	c16.7-21.6,43.3-32.5,79-32.5c35.6,0,62.1,11,78.8,32.5c20,25.9,18.7,59.4,16.5,76.5c4.1,5.6,6.5,12.3,7,19.5
	c1.6,23.4-17.8,45.5-25,52.9c-9.6,15.7-16.9,35.4-15.4,41.9c3.8,6,26,16.6,47,22.3c27.9,2.3,50.1,13.3,66,32.5
	c24.3,29.4,25.9,69.2,25.2,87.1L399.6,450z M38.8,411.3h323.3c-0.7-14.4-4.1-35.3-16.2-50.1c-9.4-11.3-22.7-17.5-40.7-18.7l-1.8-0.2
	l-1.8-0.5c-0.6-0.2-15.5-4.1-31.4-10.8c-25.5-10.8-40-23.2-44.4-38c-4-13.5-1.4-30.1,7.8-51.1c6-13.6,12.8-24.2,13-24.7l1.2-2
	l1.6-1.6c7.2-7,15.4-19.1,15.1-23.9c-0.2-0.2-0.4-0.2-0.6-0.5l-10.7-7.7l3.2-12.8c0.2-0.2,8.3-34-7.7-54.5
	c-9-11.5-25.2-17.3-48.2-17.3c-23.2,0-39.6,5.9-48.5,17.6c-15.8,20.5-7.7,54-7.6,54.4l3.4,12.8l-10.7,7.7c-0.2,0.2-0.5,0.4-0.6,0.5
	c-0.2,4.1,6.5,15.7,15.1,24.1l1.6,1.6l1.2,2c0.2,0.5,7.1,11.2,13.1,24.8c9.3,21.1,11.8,37.8,7.8,51.1c-4.3,14.8-18.9,27.2-44.5,37.8
	c-15.9,6.6-30.9,10.5-31.5,10.6l-1.6,0.5l-1.6,0.2c-18.2,1.2-31.5,7.4-40.9,18.7C42.8,376.1,39.4,396.9,38.8,411.3z"/>
</svg>
