<?xml version="1.0" encoding="utf-8"?>
<!-- Generator: Adobe Illustrator 19.2.0, SVG Export Plug-In . SVG Version: 6.00 Build 0)  -->
<svg version="1.1" id="Layer_1" xmlns="http://www.w3.org/2000/svg" xmlns:xlink="http://www.w3.org/1999/xlink" x="0px" y="0px"
	 viewBox="0 0 512 512" style="enable-background:new 0 0 512 512;" xml:space="preserve">
<path d="M405.8,355.3c0,0-79-22.6-87.8-52.8c-8.8-30.2,26.3-86.7,26.3-86.7s52.7-52,17.6-77.8c0,0,35.1-138-105.4-138
	c-141,0-105.7,137.8-105.7,137.8c-35.3,25.8,17.6,77.5,17.6,77.5s35.2,56,26.4,86.1c-8.8,30.2-88.1,53.9-88.1,53.9
	C-16.8,363.9,0.9,512.5,0.9,512.5h510.3C511.1,512.5,528.7,363.9,405.8,355.3z"/>
</svg>
