<?xml version="1.0" encoding="utf-8"?>
<!-- Generator: Adobe Illustrator 19.2.0, SVG Export Plug-In . SVG Version: 6.00 Build 0)  -->
<svg version="1.1" id="Layer_1" xmlns="http://www.w3.org/2000/svg" xmlns:xlink="http://www.w3.org/1999/xlink" x="0px" y="0px"
	 viewBox="0 0 512 512" style="enable-background:new 0 0 512 512;" xml:space="preserve">
<g>
	<path d="M478.6,198.2H33.4H12.5c-6.9,0-12.5,5.6-12.5,12.5v20.9v243.5V496c0,6.9,5.6,12.5,12.5,12.5h20.9h444.9h20.9
		c6.9,0,12.5-5.6,12.5-12.5v-20.9l0.2-243.5v-20.9c0-6.9-5.6-12.5-12.5-12.5H478.6z M33.4,475.1V231.6h445.1l-0.2,243.5H33.4z"/>
	<path d="M99.3,290.1h111.8c6.9,0,12.5,5.6,12.5,12.5v21.9c0,6.9-5.6,12.5-12.5,12.5H99.3c-6.9,0-12.5-5.6-12.5-12.5v-21.9
		C86.7,295.8,92.4,290.1,99.3,290.1z"/>
	<path d="M441.8,422.2c0,0,5.5-46.4-32.9-49.2c0,0-24.7-6.4-27.5-16.2c-2.7-9.8,8.3-27.7,8.3-27.7s16.5-16.6,5.5-25.1
		c0,0,11-44.7-32.9-44.7c-44.1,0-33,44.8-33,44.8c-11,8.4,5.5,25.2,5.5,25.2s11,18.2,8.3,28s-27.5,15.6-27.5,15.6
		c-38.6,2.8-33,49.2-33,49.2L441.8,422.2L441.8,422.2z"/>
	<path d="M99.3,369.5h111.8c6.9,0,12.5,5.6,12.5,12.5V404c0,6.9-5.6,12.5-12.5,12.5H99.3c-6.9,0-12.5-5.6-12.5-12.5v-21.9
		C86.7,375.2,92.4,369.5,99.3,369.5z"/>
</g>
</svg>
