<?xml version="1.0" encoding="utf-8"?>
<!-- Generator: Adobe Illustrator 19.1.0, SVG Export Plug-In . SVG Version: 6.00 Build 0)  -->
<svg version="1.1" id="Layer_1" xmlns="http://www.w3.org/2000/svg" xmlns:xlink="http://www.w3.org/1999/xlink" x="0px" y="0px"
	 viewBox="0 0 512 512" enable-background="new 0 0 512 512" xml:space="preserve">
<path d="M257,212.7v-17.3c0-2.4-2-4.4-4.4-4.4H107.2c-3.4,0-6.2,2.8-6.2,6.2v14.3c0,3,2.5,5.5,5.5,5.5H143c18,0,34.6,7.8,43.1,20
	h-78.9c-3.4,0-6.2,2.8-6.2,6.2v14.5c0,2.9,2.4,5.3,5.3,5.3h84.4c-5.1,17.2-24.3,29-47.5,29h-34.3c-1.8,0-3.4,0.6-4.6,1.7
	c-1.5,1.4-2.2,3.1-2.2,5l0,14.4c0,1.8,0.7,3.5,2,4.8l93.5,96.1c1.2,1.3,2.5,1.9,3.7,1.9H228c2.3,0,4.1-1.8,4.8-3.6
	c0.8-2,0.4-4.4-1.1-5.9l-11.8-11.5L145.5,319c18.6-0.5,36.2-6.9,50-18.1c12-9.8,20.1-23.5,22.4-37.8h34.8c2.4,0,4.3-1.9,4.3-4.3
	v-17.2c0-2.5-2-4.5-4.5-4.5h-36.8c-2.2-7-5.8-13.3-11.4-20h48.4C255.1,217,257,215.1,257,212.7z"/>
<path fill="#1D1D1B" d="M32,32h192v128.1h128.3v193.4h32V138L246.6,0H0v512.1h287v-32H32V32z M256,54.7l73.3,73.4H256V54.7z"/>
<polygon points="434.3,355.3 411.6,377.9 450.7,417 311,417 311,449 450.7,449 411.6,488.1 434.3,510.7 512,433 "/>
</svg>
