<?xml version="1.0" encoding="utf-8"?>
<!-- Generator: Adobe Illustrator 19.1.0, SVG Export Plug-In . SVG Version: 6.00 Build 0)  -->
<svg version="1.1" id="Layer_3" xmlns="http://www.w3.org/2000/svg" xmlns:xlink="http://www.w3.org/1999/xlink" x="0px" y="0px"
	 viewBox="0 0 512 512" style="enable-background:new 0 0 512 512;" xml:space="preserve">
<style type="text/css">
	.st0{enable-background:new    ;}
</style>
<path d="M358.4,195.9c-16.4,0-33.6-6.9-46.2-18.8c-0.6-0.5-1.1-1.1-1.6-1.6c-10.7,11.3-26.1,18.7-41.7,20.1
	c-20.1,1.8-41.5-5.9-56-20.2c-0.2-0.2-0.4-0.4-0.6-0.6c-13.4,13.6-33.2,21.2-51.9,20c-16.7-1-33-9.2-43.9-21.9
	c-2.3,2.2-4.8,4.2-7.4,6.1c-16.6,11.9-38,17-56,13.2c-13.7-2.8-25.9-10.8-34.5-22.3c-9-12.2-12.8-27.1-10.8-42
	c0.2-1.3,0.5-2.5,1-3.7c12.9-32.6,26-65.1,37-92.6c2.4-6.1,8.3-10,14.8-10h392.6c6.6,0,12.6,4.1,15,10.3
	c5.8,15.4,11.7,30.8,17.6,46.2c5.9,15.4,11.8,30.8,17.6,46.2c0.4,1.1,0.7,2.3,0.9,3.4c4.2,29.8-14.8,58.5-42.4,63.9
	c-15.7,3.1-34.9-1.7-50.1-12.7c-2.5-1.8-4.9-3.7-7.1-5.8c-10,12.5-25.1,20.9-40.6,22.4C362.2,195.8,360.3,195.9,358.4,195.9z
	 M326.1,139c0.9,6.7,4.7,11.7,8.1,14.8c7.2,6.8,17.9,10.8,26.7,9.9c7.3-0.7,14.6-5,19.3-11.2c2.6-3.4,5.3-8.8,4.6-15.7
	c-0.1-0.8-0.3-1.7-0.4-2.5c-1.1-8.6,4.8-16.5,13.4-17.9c8.6-1.3,16.6,4.4,18.2,12.9c0.2,0.9,0.3,1.8,0.4,2.7
	c2,10.3,8.6,17,14.1,20.9c9.2,6.6,19.3,8.4,25.2,7.3c8.3-1.6,18.5-11.7,17.2-26.5c-5.6-14.8-11.3-29.6-16.9-44.3
	c-4.6-12-9.1-23.9-13.7-35.9H71.4C61.5,78.2,50.3,106,39.3,134c-1,13.9,9.5,24.7,20.3,26.9c9.2,1.9,21.5-1.2,30.7-7.9
	c5.4-3.9,11.9-10.5,13.4-20.4c0.1-0.4,0.1-0.9,0.2-1.3c1.3-8.7,9.2-14.7,17.9-13.6c8.7,1.1,14.8,9,13.8,17.7c0,0.4-0.1,0.8-0.2,1.2
	c-0.7,6.5,2.2,11.7,4.8,14.9c5.2,6.4,13.7,10.8,22,11.3c9.7,0.6,20.7-3.8,27.5-10.9c3.5-3.7,5.6-7.7,6.2-11.9
	c-0.2-2.5-0.2-5.1,0-7.7c0.6-8.2,7.4-14.7,15.7-14.8c8.3-0.1,15.3,6,16.2,14.2c0.3,2.6,0.4,5.2,0.3,7.7c1,5.7,4.3,10.1,7.2,13
	c7.7,7.6,20,12.1,30.7,11.1c8.7-0.8,17.2-5.2,22.7-11.7c2.3-2.8,4.9-7,5.4-12.4c-0.1-2-0.1-3.9-0.1-5.9c0.4-8.4,7.2-15.1,15.6-15.3
	c8.4-0.2,15.5,6.1,16.3,14.5C326.1,135,326.2,137,326.1,139z"/>
<path d="M460.5,501.3H57.1c-8.8,0-16-7.2-16-16V183.6c0-8.8,7.2-16,16-16s16,7.2,16,16v285.7h371.4V175.7c0-8.8,7.2-16,16-16
	s16,7.2,16,16v309.6C476.5,494.1,469.3,501.3,460.5,501.3z"/>
<g class="st0">
	<path d="M241.4,444.8v-25.7c-18.1-0.8-35.6-5.7-45.9-11.6l8.1-31.6c11.3,6.2,27.3,11.9,44.8,11.9c15.4,0,25.9-5.9,25.9-16.7
		c0-10.3-8.6-16.7-28.6-23.5c-28.9-9.7-48.6-23.2-48.6-49.4c0-23.8,16.7-42.4,45.6-48.1v-25.7h26.5v23.8c18.1,0.8,30.2,4.6,39.2,8.9
		l-7.8,30.5c-7-3-19.4-9.2-38.9-9.2c-17.5,0-23.2,7.6-23.2,15.1c0,8.9,9.5,14.6,32.4,23.2c32.1,11.3,45.1,26.2,45.1,50.5
		c0,24-17,44.6-48.1,50v27.5H241.4z"/>
</g>
</svg>
