<?xml version="1.0" encoding="utf-8"?>
<!-- Generator: Adobe Illustrator 19.2.0, SVG Export Plug-In . SVG Version: 6.00 Build 0)  -->
<svg version="1.1" id="Layer_1" xmlns="http://www.w3.org/2000/svg" xmlns:xlink="http://www.w3.org/1999/xlink" x="0px" y="0px"
	 viewBox="0 0 512 512" style="enable-background:new 0 0 512 512;" xml:space="preserve">
<g>
	<path d="M206,384c0-86.8,62.1-159.1,144.4-174.8c12.7-14.8,39-51,11.5-71.2c0,0,35.1-138-105.4-138c-141,0-105.7,137.8-105.7,137.8
		c-35.3,25.8,17.6,77.5,17.6,77.5s35.2,56,26.4,86.1c-8.8,30.2-88.1,53.9-88.1,53.9C-16.8,363.9,0.9,512.5,0.9,512.5h259.9
		C227,480.1,206,434.5,206,384z"/>
	<path d="M384,256c-70.7,0-128,57.3-128,128s57.3,128,128,128s128-57.3,128-128S454.7,256,384,256z M419,442.6
		c-6.3,6.1-14.4,9.9-24.7,11.4v7.7c0,5.5-4.4,9.8-10,9.8h-0.1c-5.5,0-9.9-4.3-9.9-9.8v-7.6c-10.2-1.5-18.5-5.5-25.4-12
		c-4.7-4.5-8.1-10.7-9.8-18c-1-4.1,0-8.4,2.6-11.7c2.6-3.3,6.4-5.2,10.6-5.2h0.2c6.3,0,11.9,4.4,13.2,10.6c0.8,3.7,2.4,6.7,4.6,8.5
		c3.6,3.2,8,4.7,13.5,4.7c5.8,0,10.3-1.4,13.3-4.1c3-2.6,4.4-6.2,4.4-10.9c0-4.3-1.3-7.7-4.1-10.5c-2.9-3-8.1-5.8-15.4-8.4
		c-12.8-4.4-22.7-9.8-29.3-16.1c-6.9-6.6-10.3-15.6-10.3-26.8c0-10.4,3.4-19.3,10-26.4c6-6.3,14-10.3,23.8-11.9V306
		c0-5.5,4.1-9.7,9.6-9.7h0.2c5.7,0,10.1,4.3,10.1,9.7v10.1c9.7,1.9,17.2,6.4,23.1,13.7c3.7,4.6,6.3,10.3,7.8,16.7
		c0.9,4,0,8.2-2.6,11.4c-2.6,3.3-6.5,5.2-10.7,5.2h-0.3c-6.4,0-11.9-4.5-13.3-10.6c-0.7-3.3-1.9-6.1-3.6-8.3
		c-2.8-3.7-6.5-5.4-11.4-5.4c-5.2,0-8.9,1.3-11.4,3.9c-2.5,2.7-3.7,6.3-3.7,11.1c0,4.4,1.3,7.8,3.9,10.4c2.8,2.8,8.2,5.7,16,8.5
		c12.8,4.6,22.6,10.1,29,16.4c6.7,6.5,10.1,15.4,10.1,26.5C429.3,426.7,425.9,435.8,419,442.6z"/>
</g>
</svg>
