<svg id="Layer_1" xmlns="http://www.w3.org/2000/svg" viewBox="0 0 512 512"><path d="M496.2 147c-2.3 0-4.7-.5-6.9-1.6l-233-111.7-233 111.7c-8 3.8-17.5.5-21.3-7.5-3.8-8-.5-17.5 7.5-21.3l239.9-115c4.4-2.1 9.5-2.1 13.8 0l239.9 115c8 3.8 11.3 13.4 7.5 21.3-2.7 5.8-8.5 9.1-14.4 9.1z"/><path d="M436.2 456c-5.9-7.1-11.8-13.6-17.3-20.5-14.7-18.2-28.5-36.9-40.5-57.1-5.1-8.7-9.6-17.7-13.4-27.1-6.5-16-6.2-32.1 0-48 10.8-27.5 31-45 60.3-49.7 3.7-.6 6.9-1.2 10.5-1.2 35 0 67.3 26.1 74.8 61.1 3.3 15.6.7 30.1-5.8 44.3-6.6 14.6-15 28.2-24.1 41.4-13 19-27.2 37-42.4 54.5-.6.7-1.2 1.2-2.1 2.3zm38-132.8c0-20.9-17.1-37.9-38-37.9s-38 17.1-37.9 37.9c.1 21.2 16.9 38 37.9 38.1 21-.1 38-17.1 38-38.1z"/><path d="M496 511H16c-8.8 0-16-7.2-16-16s7.2-16 16-16h480c8.8 0 16 7.2 16 16s-7.2 16-16 16z"/><path d="M70 492c-8.8 0-16-7.2-16-16V117c0-8.8 7.2-16 16-16s16 7.2 16 16v359c0 8.8-7.2 16-16 16zm371-278c-8.8 0-16-7.2-16-16v-81c0-8.8 7.2-16 16-16s16 7.2 16 16v81c0 8.8-7.2 16-16 16zm-189 27H146c-8.8 0-16-7.2-16-16s7.2-16 16-16h106c8.8 0 16 7.2 16 16s-7.2 16-16 16zm0 87H146c-8.8 0-16-7.2-16-16s7.2-16 16-16h106c8.8 0 16 7.2 16 16s-7.2 16-16 16zm0 86H146c-8.8 0-16-7.2-16-16s7.2-16 16-16h106c8.8 0 16 7.2 16 16s-7.2 16-16 16z"/></svg>
