<svg data-name="Layer 1" xmlns="http://www.w3.org/2000/svg" viewBox="0 0 72.94 72.9">
  <path d="M36.43,0H33.86A36.53,36.53,0,0,0,3.94,20c-.33.65-.65,1.32-.94,2A36.22,36.22,0,0,0,0,34.5v4A36.22,36.22,0,0,0,3,51c.29.68.61,1.35.94,2A36.5,36.5,0,0,0,33.88,72.9H36.5Zm-6,4.56A84.75,84.75,0,0,0,21.12,20H8.5A32.54,32.54,0,0,1,30.44,4.56ZM6.5,24h13a38.41,38.41,0,0,0-2.11,10.5H4.06A32.23,32.23,0,0,1,6.5,24ZM4.06,38.5H17.41A38.47,38.47,0,0,0,19.61,49H6.5A32.23,32.23,0,0,1,4.06,38.5ZM8.5,53H21.21A86.18,86.18,0,0,0,30.5,68.45,32.55,32.55,0,0,1,8.5,53Zm26,14.13A91.56,91.56,0,0,1,25.63,53H34.5ZM34.5,49H23.88a35.88,35.88,0,0,1-2.46-10.5H34.5Zm0-14.51H21.4A35,35,0,0,1,23.79,24H34.5ZM34.5,20h-9a88.46,88.46,0,0,1,9-14.18Z" />
  <path d="M48.31,54.61A101.91,101.91,0,0,1,37.57,71.26V54.61Z" />
  <path d="M50.12,50.61H37.57V38.5H53A39.25,39.25,0,0,1,50.12,50.61Z" />
  <path d="M48.41,18.39H37.57V1.69A100.12,100.12,0,0,1,48.41,18.39Z" />
  <path d="M53,34.5H37.57V22.39H50.19A38.31,38.31,0,0,1,53,34.5Z" />
  <path d="M57,38.5H72.94A35.19,35.19,0,0,1,70.1,50.61H54.38A42.31,42.31,0,0,0,57,38.5Z" />
  <path d="M52.73,54.61H68.08A37.5,37.5,0,0,1,41.64,72.52,97.73,97.73,0,0,0,52.73,54.61Z" />
  <path d="M52.84,18.39A95.18,95.18,0,0,0,41.69.49a37.47,37.47,0,0,1,26.39,17.9Z" />
  <path d="M54.47,22.39H70.1A35.19,35.19,0,0,1,72.94,34.5H57A41.2,41.2,0,0,0,54.47,22.39Z" />
</svg>
