<?xml version="1.0" encoding="utf-8"?>
<!-- Generator: Adobe Illustrator 19.2.0, SVG Export Plug-In . SVG Version: 6.00 Build 0)  -->
<svg version="1.1" id="Layer_1" xmlns="http://www.w3.org/2000/svg" xmlns:xlink="http://www.w3.org/1999/xlink" x="0px" y="0px"
	 viewBox="0 0 512 512" style="enable-background:new 0 0 512 512;" xml:space="preserve">
<g>
	<path d="M323.8,252c-6.2,0-10.8,2.2-13.9,6.5c-3.2,4.4-4.7,10.8-4.7,19.4s1.5,15.1,4.6,19.4c3.1,4.4,7.7,6.5,13.9,6.5
		c12.4,0,18.5-8.6,18.5-25.9C342.1,260.7,336,252,323.8,252z"/>
	<path d="M247.5,253h-8.2v50h6.7c14.9,0,22.3-8.4,22.3-25.3C268.3,261.2,261.3,253,247.5,253z"/>
	<path d="M210.6,227.2c-6.9,0-12.5,5.6-12.5,12.5V318c0,6.9,5.6,12.5,12.5,12.5h221.2V227.2H210.6z M274.1,306.4
		c-6.9,6.7-16.8,10.1-29.6,10.1h-20.7v-76.9h22.9c11.9,0,21.2,3.3,27.8,10c6.6,6.7,9.9,15.9,9.9,27.7
		C284.3,290,281,299.7,274.1,306.4z M349.4,307.3c-6,6.9-14.6,10.2-25.8,10.2s-19.8-3.4-25.8-10.2c-6-6.8-9-16.6-9-29.5
		c0-12.8,3-22.5,9-29.3c6-6.7,14.6-10.1,25.8-10.1s19.8,3.4,25.8,10.2c5.9,6.8,8.9,16.5,8.9,29.3
		C358.4,290.7,355.4,300.4,349.4,307.3z M397.2,304c5.1,0,11.3-1.3,18.6-4v13.7c-6,2.6-12.7,4-20,4c-10.6,0-18.8-3.4-24.4-10.2
		c-5.7-6.8-8.4-16.5-8.4-29.2c0-8,1.4-15,4.2-21c2.8-6,6.7-10.6,11.9-13.8c5.2-3.2,11.2-4.8,18.2-4.8c7.1,0,14.2,1.8,21.4,5.4
		l-5,13.3c-2.8-1.3-5.4-2.6-8.2-3.6s-5.4-1.5-8.1-1.5c-5.9,0-10.4,2.3-13.5,6.9c-3.2,4.6-4.8,11-4.8,19.2
		C378.9,295.4,384.9,304,397.2,304z"/>
</g>
<path d="M441.6,116.6L329,4.7c-3-3-7.1-4.7-11.3-4.7h-31.4H94.1C76.5,0,62.4,14.2,62.4,31.7V32v448.2c0,17.5,14.2,31.7,31.7,31.7
	h0.3h320h0.3c17.3,0,31.3-14,31.4-31.3l0.3-352.7C446.3,123.8,444.6,119.7,441.6,116.6z M426.7,474.6c0,9.4-7.8,17.1-17.3,17.1H99.2
	c-9.5,0-17.3-7.7-17.3-17.1V36.3c0-9.4,7.8-17.1,17.3-17.1h172.4c9.5,0,17.3,7.7,17.3,17.1v83.2v0.3c0,18.7,14.7,33.8,34.1,33.8
	h86.5c9.5,0,17.3,7.7,17.3,17.1L426.7,474.6L426.7,474.6z M326.8,136c-10.8,0-19.6-8.8-19.6-19.6V24.6c0-4.4,5.3-6.5,8.3-3.4
	l106.6,106.5c3.1,3.1,0.9,8.3-3.4,8.3H326.8z"/>
</svg>
