<?xml version="1.0" encoding="utf-8"?>
<!-- Generator: Adobe Illustrator 19.2.0, SVG Export Plug-In . SVG Version: 6.00 Build 0)  -->
<svg version="1.1" id="Layer_1" xmlns="http://www.w3.org/2000/svg" xmlns:xlink="http://www.w3.org/1999/xlink" x="0px" y="0px"
	 viewBox="0 0 512 512" style="enable-background:new 0 0 512 512;" xml:space="preserve">
<g>
	<polygon points="143.5,327.3 209.5,299.9 209.5,218.2 143.5,245.6 	"/>
	<path d="M236.5,0.5H41.9C19.5,0.5-0.5,20.2-0.5,42.8v430c0,22.6,20,39.7,42.4,39.7h194.5c22.5,0,39-17,39-39.7v-430
		C275.5,20.2,259,0.5,236.5,0.5z M117.6,40.5h45.6c2.7,0,4.9,2.8,4.9,5.5c0,2.7-2.2,5.5-4.9,5.5h-45.6c-2.7,0-4.9-2.8-4.9-5.5
		S114.9,40.5,117.6,40.5z M140.4,490.3c-10.9,0-19.7-8.9-19.7-19.9c0-11,8.8-19.9,19.7-19.9c10.9,0,19.7,8.9,19.7,19.9
		C160.2,481.4,151.3,490.3,140.4,490.3z M240.5,430.5h-205v-343h205V430.5z"/>
	<path d="M503.9,165L357.4,18.2c-14-14.1-36.6-6.6-50.6,7.4l-15.3,15.5v36.2l19.1-19.2L466,213.7L291.5,388.6v36.2l206.8-207.3
		C512.3,203.5,517.9,179,503.9,165z M433.3,152.2l-61.4-61.5l10.8-10.9l61.4,61.5L433.3,152.2z M467.7,180.9c-3.6,3.6-9.4,3.6-13,0
		c-3.6-3.6-3.6-9.4,0-13c3.6-3.6,9.4-3.6,13,0C471.3,171.5,471.3,177.3,467.7,180.9z"/>
	<polygon points="137.5,245.6 66.5,218.2 66.5,299.9 137.5,327.3 	"/>
	<polygon points="209.6,211.2 140.2,183.9 72.6,211.3 139.4,238.6 	"/>
</g>
</svg>
