<?xml version="1.0" encoding="utf-8"?>
<!-- Generator: Adobe Illustrator 19.2.0, SVG Export Plug-In . SVG Version: 6.00 Build 0)  -->
<svg version="1.1" id="Layer_1" xmlns="http://www.w3.org/2000/svg" xmlns:xlink="http://www.w3.org/1999/xlink" x="0px" y="0px"
	 viewBox="0 0 512 512" style="enable-background:new 0 0 512 512;" xml:space="preserve">
<g>
	<path d="M316.5,250h101c11,0,20,6.7,20,14.9v8.2c0,8.2-9,14.9-20,14.9h-101c-11,0-20-6.7-20-14.9v-8.2
		C296.5,256.7,305.5,250,316.5,250z"/>
	<path d="M316.5,330h101c11,0,20,7.2,20,16.1v4.8c0,8.9-9,16.1-20,16.1h-101c-11,0-20-7.2-20-16.1v-4.8
		C296.5,337.2,305.5,330,316.5,330z"/>
	<path d="M316.5,408h101c11,0,20,6.9,20,15.3v5.4c0,8.5-9,15.3-20,15.3h-101c-11,0-20-6.9-20-15.3v-5.4
		C296.5,414.9,305.5,408,316.5,408z"/>
	<path d="M431.3,91.5h78c0.9,0,1.8,0,2.7-0.1L408.8-0.1c-0.1,0.8-0.3,1.7-0.3,2.5v69.2C408.5,82.7,418.8,91.5,431.3,91.5z"/>
	<path d="M40.7,115.2L61,83.5H42.5l-6.1,12c-1.8,3.8-3.2,7-4.9,11h-0.2c-1.7-4-3.3-7-5.5-11l-6.3-12H0.8l20.1,32.1L0,148.5h18.6
		l6-11.5c2.2-4.6,4.1-7.5,5.6-11.5h0.2c2,4,3.7,6.9,6.4,11.5l6.5,11.5h18.8L40.7,115.2z"/>
	<polygon points="92.5,83.4 92.5,148.5 137.5,148.5 137.5,136.5 108.5,136.5 108.5,83.4 	"/>
	<path d="M409.6,113.2c-15.5,0-28.1-11.5-28.1-25.6V0.5H82C66.4,0.5,53.5,12,53.5,26.1v35.4h184v109h-184v315.9
		c0,14.1,12.9,25.1,28.5,25.1h401.9c15.5,0,27.6-10.9,27.6-25.1V112.7c-1,0.3-3.4,0.5-5.4,0.5H409.6z M471.5,473.5h-383v-256h383
		V473.5z"/>
	<path d="M142.5,250h101c11,0,20,6.7,20,14.9v8.2c0,8.2-9,14.9-20,14.9h-101c-11,0-20-6.7-20-14.9v-8.2
		C122.5,256.7,131.5,250,142.5,250z"/>
	<path d="M187.4,137.7c-7,0-13.7-2-18.1-4.1l-3.3,12.2c4.1,2,12.2,4,20.4,4c19.8,0,29.1-9.3,29.1-20.3c0-9.2-6-15.3-18.7-19.5
		c-9.3-3.2-13.4-5.1-13.4-9.2c0-3.4,3.4-6.3,10.5-6.3s12.2,1.8,15.1,3.1l3.6-12c-4.3-1.7-10.3-3.3-18.4-3.3
		c-17,0-27.3,8.5-27.3,19.7c0,9.5,7.8,15.5,19.8,19.3c8.7,2.8,12.1,5.1,12.1,9.2C198.8,134.9,194.9,137.7,187.4,137.7z"/>
	<path d="M142.5,408h101c11,0,20,6.9,20,15.3v5.4c0,8.5-9,15.3-20,15.3h-101c-11,0-20-6.9-20-15.3v-5.4
		C122.5,414.9,131.5,408,142.5,408z"/>
	<path d="M142.5,330h101c11,0,20,7.2,20,16.1v4.8c0,8.9-9,16.1-20,16.1h-101c-11,0-20-7.2-20-16.1v-4.8
		C122.5,337.2,131.5,330,142.5,330z"/>
</g>
</svg>
