<?xml version="1.0" encoding="utf-8"?>
<!-- Generator: Adobe Illustrator 19.2.0, SVG Export Plug-In . SVG Version: 6.00 Build 0)  -->
<svg version="1.1" id="Layer_1" xmlns="http://www.w3.org/2000/svg" xmlns:xlink="http://www.w3.org/1999/xlink" x="0px" y="0px"
	 viewBox="0 0 512 512" style="enable-background:new 0 0 512 512;" xml:space="preserve">
<path d="M211,227.2c-7.1,0-12.9,5.6-12.9,12.5V318c0,6.9,5.7,12.5,12.9,12.5h227.5V227.2H211z M280.8,316.5l-18.4-29.1L244,316.5
	h-17.8l26.2-39.6l-24.6-37.2h18.5l17,27.6l16.7-27.6h18.1l-24.8,38.1l26.7,38.7H280.8z M358.7,316.5h-48.8v-76.9h16.7V303h32
	L358.7,316.5L358.7,316.5z M411.4,311.5c-5.1,4-12.2,6-21.4,6c-8.4,0-15.9-1.5-22.3-4.6v-15.1c5.3,2.3,9.8,4,13.6,4.9
	c3.7,0.9,7.1,1.4,10.1,1.4c3.7,0,6.5-0.7,8.4-2s3-3.4,3-6.1c0-1.5-0.4-2.8-1.3-4c-0.8-1.1-2.1-2.3-3.8-3.4
	c-1.7-1.1-5.1-2.8-10.2-5.2c-4.8-2.2-8.4-4.3-10.9-6.4c-2.4-2-4.4-4.4-5.8-7.1c-1.5-2.7-2.1-5.9-2.1-9.5c0-6.8,2.4-12.1,7.1-16
	s11.3-5.9,19.6-5.9c4.1,0,8,0.5,11.8,1.4s7.6,2.3,11.7,4l-5.4,12.6c-4.2-1.7-7.7-2.8-10.4-3.5c-2.8-0.7-5.5-1-8.2-1
	c-3.2,0-5.6,0.7-7.3,2.2s-2.6,3.3-2.6,5.7c0,1.4,0.3,2.7,1,3.8c0.7,1.1,1.8,2.1,3.3,3.1s5.1,2.8,10.7,5.4
	c7.4,3.4,12.5,6.9,15.2,10.4c2.8,3.4,4.1,7.7,4.1,12.7C419.1,302,416.6,307.6,411.4,311.5z"/>
<path d="M441.6,116.6L329,4.7c-3-3-7.1-4.7-11.3-4.7h-31.4H94.1C76.5,0,62.4,14.2,62.4,31.7V32v448.2c0,17.5,14.2,31.7,31.7,31.7
	h0.3h320h0.3c17.3,0,31.3-14,31.4-31.3l0.3-352.7C446.3,123.8,444.6,119.7,441.6,116.6z M426.7,474.6c0,9.4-7.8,17.1-17.3,17.1H99.2
	c-9.5,0-17.3-7.7-17.3-17.1V36.3c0-9.4,7.8-17.1,17.3-17.1h172.4c9.5,0,17.3,7.7,17.3,17.1v83.2v0.3c0,18.7,14.7,33.8,34.1,33.8
	h86.5c9.5,0,17.3,7.7,17.3,17.1L426.7,474.6L426.7,474.6z M326.8,136c-10.8,0-19.6-8.8-19.6-19.6V24.6c0-4.4,5.3-6.5,8.3-3.4
	l106.6,106.5c3.1,3.1,0.9,8.3-3.4,8.3H326.8z"/>
</svg>
