<?xml version="1.0" encoding="utf-8"?>
<!-- Generator: Adobe Illustrator 19.2.0, SVG Export Plug-In . SVG Version: 6.00 Build 0)  -->
<svg version="1.1" id="Layer_1" xmlns="http://www.w3.org/2000/svg" xmlns:xlink="http://www.w3.org/1999/xlink" x="0px" y="0px"
	 viewBox="0 0 512 512" style="enable-background:new 0 0 512 512;" xml:space="preserve">
<style type="text/css">
	.st0{fill:#957E91;}
</style>
<path class="st0" d="M441.6,116.6L329,4.7c-3-3-7.1-4.7-11.3-4.7h-31.4H94.1C76.5,0,62.4,14.2,62.4,31.7V32v448.2
	c0,17.5,14.2,31.7,31.7,31.7h0.3h320h0.3c17.3,0,31.3-14,31.4-31.3l0.3-352.7C446.3,123.8,444.6,119.7,441.6,116.6z M307.2,24.6
	c0-4.4,5.3-6.5,8.3-3.4l106.6,106.5c3.1,3.1,0.9,8.3-3.4,8.3h-91.9c-10.8,0-19.6-8.8-19.6-19.6V24.6z M426.8,227.2H210.6
	c-6.9,0-12.5,5.6-12.5,12.5V318c0,6.9,5.6,12.5,12.5,12.5h216.1v144.1c0,9.4-7.8,17.1-17.3,17.1H99.2c-9.5,0-17.3-7.7-17.3-17.1
	V36.3c0-9.4,7.8-17.1,17.3-17.1h172.4c9.5,0,17.3,7.7,17.3,17.1v83.2v0.3c0,18.7,14.7,33.8,34.1,33.8h86.5c9.5,0,17.3,7.7,17.3,17.1
	L426.8,227.2L426.8,227.2z M420.4,297.5V308h-43.2v-60H392v49.5H420.4L420.4,297.5z M346.1,261L328,308h-13.6l-16.8-47.1h-0.4
	c0.6,9.6,0.9,15.9,0.9,19.1v28h-13.3v-60H305l16.6,45.9h0.3l17.6-45.9h20.2v60h-13.8v-28.4c0-1.4,0-2.9,0.1-4.6
	c0-1.7,0.3-6.4,0.6-14H346.1z M212.2,248h16.4l15.1,21.6l14.8-21.6h16l-22,29.7L276,308h-16.9l-16.3-22.7L226.6,308h-15.9l23.2-30.9
	L212.2,248z"/>
</svg>
