<?xml version="1.0" encoding="utf-8"?>
<!-- Generator: Adobe Illustrator 19.2.0, SVG Export Plug-In . SVG Version: 6.00 Build 0)  -->
<svg version="1.1" id="Layer_1" xmlns="http://www.w3.org/2000/svg" xmlns:xlink="http://www.w3.org/1999/xlink" x="0px" y="0px"
	 viewBox="0 0 512 512" style="enable-background:new 0 0 512 512;" xml:space="preserve">
<path d="M283.9,186.4h-64.6l-0.4-71.1c-0.1-8.8-7.2-15.9-16-15.9h-0.1c-8.8,0.1-16,7.3-15.9,16.1l0.4,70.9h-64.4
	c-8.8,0-16,7.2-16,16s7.2,16,16,16h64.6l0.4,71.1c0.1,8.8,7.2,15.9,16,15.9h0.1c8.8-0.1,16-7.3,15.9-16.1l-0.4-70.9h64.4
	c8.8,0,16-7.2,16-16S292.8,186.4,283.9,186.4z"/>
<g>
	<path d="M511.3,465.3L371.2,325.2c-1-1-2.6-1-3.6,0l-11.5,11.5c31.6-35.9,50.8-82.9,50.8-134.3C406.9,90.3,315.6-1,203.4-1
		C91.3-1,0,90.3,0,202.4s91.3,203.4,203.4,203.4c51.4,0,98.5-19.2,134.3-50.8l-11.5,11.5c-1,1-1,2.6,0,3.6l140.1,140.1
		c1,1,2.6,1,3.6,0l41.4-41.4C512.2,467.9,512.2,466.3,511.3,465.3z M203.4,372.8C109.5,372.8,33,296.4,33,202.4
		S109.5,32.1,203.4,32.1s170.4,76.4,170.4,170.4S297.4,372.8,203.4,372.8z"/>
</g>
</svg>
