<?xml version="1.0" encoding="utf-8"?>
<!-- Generated by IcoMoon.io -->
<!DOCTYPE svg PUBLIC "-//W3C//DTD SVG 1.1//EN" "http://www.w3.org/Graphics/SVG/1.1/DTD/svg11.dtd">


<svg version="1.1" xmlns="http://www.w3.org/2000/svg" xmlns:xlink="http://www.w3.org/1999/xlink" width="32" height="32" viewBox="0 0 32 32">
<path d="M31.96 29.535l-11.933-11.933c-0.053-0.054-0.14-0.054-0.194 0l-0.621 0.621c1.704-1.935 2.74-4.472 2.74-7.247-0-6.052-4.924-10.976-10.976-10.976s-10.976 4.924-10.976 10.976 4.924 10.976 10.976 10.976c2.775 0 5.312-1.036 7.247-2.74l-0.621 0.621c-0.054 0.054-0.054 0.141 0 0.194l11.933 11.933c0.053 0.054 0.14 0.054 0.194 0l2.231-2.231c0.054-0.054 0.054-0.141 0-0.194zM10.976 20.168c-5.069 0-9.192-4.124-9.192-9.192s4.124-9.192 9.192-9.192c5.069 0 9.192 4.124 9.192 9.192s-4.124 9.192-9.192 9.192z" fill="rgb(68, 68, 68)"></path>
<path d="M6.031 10.031h10v2h-10v-2z" fill="rgb(68, 68, 68)"></path>
</svg>
