<?xml version="1.0" encoding="utf-8"?>
<!-- Generator: Adobe Illustrator 19.1.0, SVG Export Plug-In . SVG Version: 6.00 Build 0)  -->
<svg version="1.1" id="Layer_1" xmlns="http://www.w3.org/2000/svg" xmlns:xlink="http://www.w3.org/1999/xlink" x="0px" y="0px"
	 viewBox="0 0 512 512" enable-background="new 0 0 512 512" xml:space="preserve">
<path fill="#1D1D1B" d="M488,173c-32.7-51.4-80.8-91-135.4-111.4C298.4,41.5,240.3,41,188.7,60.3c-0.2,0.1-0.5,0.1-0.7,0.2
	c-1.7,0.6-3.3,1.2-4.8,1.9C76.3,105.9,16.3,226.5,40.5,351.2c0.6,2.9,3.1,5,6.1,5c0.2,0,0.4,0,0.6,0c3.2-0.3,5.6-2.9,5.6-6.1
	c0.2-25.4,14.3-46.8,35.9-54.5c20.6-7.4,44.6-0.7,61,17.1c1.7,1.8,4.3,2.5,6.6,1.6c2.3-0.8,3.9-3,4.1-5.5c0.2-4,2.9-39.3,31.7-54.5
	c14.4-7.6,31.5-8,47.3-2c-0.1,0.9,0.1,1.7,0.4,2.6l81.1,206.9c0.2,0.5,0.5,1,0.8,1.4c3.8,7.9,10.2,14.1,18.3,17.6
	c4.7,2,9.6,3.1,14.6,3.1c4.5,0,9-0.8,13.3-2.5c18.7-7.4,28-28.6,20.6-47.3c-1.2-3.1-4.7-4.6-7.8-3.4c-3.1,1.2-4.6,4.7-3.4,7.8
	c2.4,6.1,2.3,12.7-0.3,18.7c-2.6,6-7.4,10.6-13.5,13c-12.6,4.9-26.8-1.3-31.7-13.8c-0.2-0.4-0.3-0.8-0.6-1.1l-76.3-194.8
	c3,2.1,6,4.5,8.7,7.1c1.8,1.8,4.6,2.2,6.9,1.1c2.3-1.1,3.7-3.6,3.5-6.1c-2.2-25.4,10.2-48.8,31.1-58.1c22.2-9.9,49.4-2,66.3,19.2
	c1.6,2.1,4.4,2.9,6.9,2c1.8-0.6,3.2-2.1,3.8-3.8c0,0,0,0,0,0c0-0.1,0.1-0.2,0.1-0.4c0.1-0.2,0.1-0.4,0.1-0.6c0,0,0-0.1,0-0.1
	c0-0.3,0.1-0.6,0.1-0.9c0,0,0,0,0-0.1c0-3.7,0.6-36.9,25.3-52.2c21.1-13.1,50.3-7.8,70.9,13c2.2,2.2,5.8,2.5,8.2,0.5
	C489.1,179.2,489.7,175.7,488,173z M84.5,284.3c-16.3,5.8-29.1,17.9-36.5,33.4C40.1,217.5,87.8,124.6,169.5,82
	c-14.2,16.2-35.7,46.7-41.8,87.7c-6.9,46.4,4.2,95.5,13.1,120.7C123.4,280.2,102.9,277.7,84.5,284.3z M186.4,243.8
	c-20,10.5-29.5,28.9-34.1,43.4c-8.1-22.5-19.4-70.5-12.8-115.7c6.9-47,35.7-79.1,46.8-89.8c5.5,19.6,11.7,39.3,18.4,58.5
	C216,172.4,235,211,250.4,242.1c0.4,0.9,0.9,1.8,1.3,2.6C230.6,234,206.4,233.2,186.4,243.8z M300.1,193.6
	c-19,8.5-32.3,26.3-36.8,47.4c-0.7-1.4-1.4-2.9-2.1-4.3c-15.2-30.7-34.1-69-45.1-100.6c-6.8-19.5-13-39.4-18.6-59.3
	c31.2,5.5,76.1,20.1,116.3,58.1c19.1,18.1,35,39.8,46.8,63.6C342,187.3,319.5,185,300.1,193.6z M401.2,157.5
	c-16.5,10.2-24.2,26.5-27.8,40c-12.6-26.8-30.1-51.1-51.4-71.3C283.1,89.4,240,73.5,207.8,66.6c19.4-5.6,39.6-8.5,60-8.5
	c26.9,0,54.3,4.9,80.6,14.8c42.7,15.9,81.3,44.2,111,80.9C439.8,145.9,418.5,146.8,401.2,157.5z"/>
</svg>
