<?xml version="1.0" encoding="utf-8"?>
<!-- Generator: Adobe Illustrator 19.1.0, SVG Export Plug-In . SVG Version: 6.00 Build 0)  -->
<svg version="1.1" id="Layer_1" xmlns="http://www.w3.org/2000/svg" xmlns:xlink="http://www.w3.org/1999/xlink" x="0px" y="0px"
	 viewBox="0 0 512 512" enable-background="new 0 0 512 512" xml:space="preserve">
<path fill="#1D1D1B" d="M419,474.4V129.3c0-1.6-0.7-3.1-1.8-4.3l-0.1-0.1c-0.3-0.4-0.7-0.8-1.1-1.1l-92.8-91.9
	c-1.1-1.1-2.6-1.9-4.2-1.9H98.3C95,30,92,33,92,36.3v439.5c0,3.3,3,6.2,6.3,6.2h314.7c3.3,0,6.1-2.8,6.1-6.1
	C419.1,475.4,419,474.8,419,474.4z M325,50.7l72.6,72.3H325V50.7z M104,42h209v86.6c0,3.3,2.6,6.4,5.9,6.4H407v335H104V42z"/>
<path fill="#1D1D1B" d="M272,351H145c-3.3,0-6,2.7-6,6s2.7,6,6,6h127c3.3,0,6-2.7,6-6S275.3,351,272,351z"/>
<path fill="#1D1D1B" d="M319,291H145c-3.3,0-6,2.7-6,6s2.7,6,6,6h174c3.3,0,6-2.7,6-6S322.3,291,319,291z"/>
<path d="M199.3,250.8l-10.8-42.1l-10.7,42.1h-13.9l-17.6-61.4H161l10.8,44.3l11.7-44.3h10.2l11.6,44.3l10.7-44.3h14.7l-17.5,61.4
	H199.3z"/>
<path d="M237,233.5v-9.9h22.1v9.9H237z"/>
<path d="M300.4,250.8v-12.7H271v-10.3l24.4-38.4h18v37.2h7.9v11.5h-7.9v12.7H300.4z M300.4,201l-16.6,25.6h16.6V201z"/>
</svg>
