<?xml version="1.0" encoding="utf-8"?>
<!-- Generator: Adobe Illustrator 19.1.0, SVG Export Plug-In . SVG Version: 6.00 Build 0)  -->
<svg version="1.1" id="Layer_1" xmlns="http://www.w3.org/2000/svg" xmlns:xlink="http://www.w3.org/1999/xlink" x="0px" y="0px"
	 viewBox="0 0 512 512" enable-background="new 0 0 512 512" xml:space="preserve">
<path fill="#1D1D1B" d="M465,115h-64V98.7c0-3.3-3.1-5.7-6.4-5.7H365c-3.3,0-6,2.4-6,5.7V115H203V98.7c0-3.3-3.1-5.7-6.5-5.7h-29.6
	c-3.3,0-5.9,2.4-5.9,5.7V115H96.1c-3.3,0-6.1,2.9-6.1,6.2v129.7c-8,4.3-16.4,9.9-23.3,16.9c-16.6,16.8-25.6,39-25.4,62.6
	c0.2,23.6,9.5,45.7,26.3,62.2c16.6,16.4,38.6,25.4,62,25.4c0.2,0,0.4,0,0.6,0c23.6-0.2,45.7-9.4,62.2-26.2c0.3-0.3,0.6-0.9,0.9-0.9
	h131.6c80.6,0,146.1-65.7,146.1-146.3V121.2C471,117.9,468.3,115,465,115z M389,105v24.6c0,4.9-4.1,8.8-9,8.8s-9-3.9-9-8.8V105H389z
	 M191,105v24.6c0,4.9-4.1,8.8-9,8.8s-9-3.9-9-8.8V105H191z M130.1,406.1c-0.2,0-0.3,0-0.5,0c-20.2,0-39.2-7.8-53.5-22
	c-14.5-14.3-22.5-33.4-22.7-53.8c-0.1-20.4,7.7-39.6,22-54c14.3-14.5,33.4-22.5,53.8-22.7c0.2,0,0.3,0,0.5,0
	c20.2,0,39.2,7.8,53.5,22c14.5,14.3,22.5,33.4,22.7,53.8c0.1,20.4-7.7,39.6-22,54C169.5,397.9,150.4,405.9,130.1,406.1z M202.9,379
	c9.8-15,15-31.7,14.8-49.7c-0.2-23.6-9.5-45.7-26.2-62.2c-16.6-16.4-38.6-25.5-62-25.5c-0.2,0-0.4,0-0.6,0c-9.3,0.1-18,1.6-27,4.4
	V127h59v2.6c0,11.5,9.5,20.8,21,20.8c11.5,0,21-9.3,21-20.8V127h156v2.6c0,11.5,9.5,20.8,21,20.8s21-9.3,21-20.8V127h58v117.7
	c0,14.6-2.3,28.6-6.7,41.7c-0.3,0.2-0.7,0.5-1,0.8c-4.4,4.8-16.5,16-34.9,16.6c-10.8,0.3-19.5-3.2-24.9-6.2c-1.8-1-4-1-5.8,0
	c-1.8,1-3,2.9-3.1,5c-0.6,13.8-3.7,27.2-9,40c-5.1,12.2-12.3,23.4-21.2,33.3c0,0-0.1,0.2-0.1,0.2c-8.9,1.9-18.1,2.9-27.6,2.9H202.9z
	 M372.2,370.2c4.9-7.2,9.1-14.9,12.5-23c4.7-11.3,7.8-23.1,9.2-35.3c6.2,2.4,14,4.2,22.9,3.9c10.2-0.3,18.8-3.2,25.7-6.8
	C427.2,336.9,402.3,358.8,372.2,370.2z"/>
<path fill="#1D1D1B" d="M123.6,345.7l23.7,16.4c1,0.7,2.2,1.1,3.4,1.1c1.9,0,3.8-0.9,4.9-2.6c1.9-2.7,1.2-6.5-1.5-8.3L133,337.7V284
	c0-3.3-2.7-6-6-6s-6,2.7-6,6v56.8C121,342.8,122,344.6,123.6,345.7z"/>
<path fill="#1D1D1B" d="M285.6,242.9c-15.2-6.3-21.7-10.8-21.7-19.9c0-7,5.1-15,18.5-15c7.8,0,13.7,1.9,17.8,3.7
	c2.3,1.1,5.1,0,6-2.4l1.2-3.2c0.8-2.2-0.2-4.6-2.3-5.6c-3.9-1.8-8.9-3.3-15.1-3.9c-2.3-0.2-4.1-2.1-4.1-4.4v-8.4
	c0-2.4-1.8-4.7-4.3-4.7h-2c-2.4,0-4.8,2.3-4.8,4.7v9.6c0,2-1.2,3.8-3.2,4.3c-14.2,3.5-23,14-23,27.5c0,15.2,11.1,23.2,28.9,30.2
	c12.9,5.2,19.8,11.2,19.8,20.8c0,10-8.4,17.1-20.8,17.1c-7.7,0-15-2.1-20.8-5c-2.4-1.2-5.3-0.1-6.2,2.4l-1.2,3.3
	c-0.7,2.1,0.2,4.4,2.1,5.4c5.2,2.8,12.2,4.8,19.3,5.4c2.3,0.2,3.9,2.1,3.9,4.4v9.1c0,2.4,2.1,4.6,4.5,4.6h2.2c2.4,0,4.3-2.2,4.3-4.6
	v-10.2c0-2,1.4-3.8,3.4-4.3c15.9-3.9,24.3-16.1,24.3-29C312.7,259.4,303.6,250.3,285.6,242.9z"/>
</svg>
