<?xml version="1.0" encoding="utf-8"?>
<!-- Generator: Adobe Illustrator 19.1.0, SVG Export Plug-In . SVG Version: 6.00 Build 0)  -->
<svg version="1.1" id="Layer_1" xmlns="http://www.w3.org/2000/svg" xmlns:xlink="http://www.w3.org/1999/xlink" x="0px" y="0px"
	 viewBox="0 0 512 512" enable-background="new 0 0 512 512" xml:space="preserve">
<path fill="#1D1D1B" d="M244,252H117c-3.3,0-6,2.7-6,6s2.7,6,6,6h127c3.3,0,6-2.7,6-6S247.3,252,244,252z"/>
<path fill="#1D1D1B" d="M117,204h174c3.3,0,6-2.7,6-6s-2.7-6-6-6H117c-3.3,0-6,2.7-6,6S113.7,204,117,204z"/>
<path fill="#1D1D1B" d="M391,318V120.3c0-1.6-0.7-3.1-1.8-4.3l-0.1-0.1c-0.3-0.4-0.7-0.8-1.1-1.1l-92.8-91.9
	c-1.1-1.1-2.6-1.9-4.2-1.9H70.3C67,21,64,24,64,27.3v439.5c0,3.3,3,6.2,6.3,6.2h237.3c14.6,10,32.6,16.8,51.9,16.8
	c0.2,0,0.4,0,0.6,0c48.9-0.3,88.5-40.4,88.1-89.3C448.1,362.8,424,330.6,391,318z M359.6,477.7c-42,0-76.4-34.1-76.7-76.2
	c-0.1-20.5,7.7-39.8,22.1-54.4c14.4-14.6,33.6-22.7,54.1-22.8c0.2,0,0.3,0,0.5,0c42,0,76.4,34.1,76.7,76.2
	c0.3,42.3-33.9,76.9-76.2,77.2C360,477.7,359.8,477.7,359.6,477.7z M297,41.7l72.6,72.3H297V41.7z M76,33h209v86.6
	c0,3.3,2.6,6.4,5.9,6.4H379v188.5c-6-1.4-12.7-2.1-19.3-2.1c-0.2,0-0.4,0-0.6,0c-23.7,0.2-45.9,9.5-62.5,26.4
	c-16.6,16.9-25.7,39.3-25.6,63c0.1,22.8,8.9,43.3,23.2,59.3H76V33z"/>
<path fill="#1D1D1B" d="M400.1,372.5l-49.6,49.6L329.4,401c-2.3-2.3-6.1-2.3-8.5,0c-2.3,2.3-2.3,6.1,0,8.5l25.4,25.4
	c1.2,1.2,2.7,1.8,4.2,1.8s3.1-0.6,4.2-1.8l53.8-53.8c2.3-2.3,2.3-6.1,0-8.5C406.2,370.2,402.4,370.2,400.1,372.5z"/>
</svg>
