<?xml version="1.0" encoding="utf-8"?>
<!-- Generator: Adobe Illustrator 21.0.2, SVG Export Plug-In . SVG Version: 6.00 Build 0)  -->
<svg version="1.1" id="Layer_1" xmlns="http://www.w3.org/2000/svg" xmlns:xlink="http://www.w3.org/1999/xlink" x="0px" y="0px"
	 viewBox="0 0 2000 1000" enable-background="new 0 0 2000 1000" xml:space="preserve">
<g>
	<g>
		<path fill="#EDF0F2" d="M1948.1,649c0,14-9.2,27.2-23.3,36.4c-14.1,9.5-35,15.3-56.6,15.3h-120.8c30.1,13.2,50.1,35.1,50.1,60.4
			c0,19.8-12.5,38-33.3,51.3s-48.2,21.1-79.9,21.1h-82.6c13.3,11.9,20.9,26.4,20.9,42.2c0,19.8-12.5,38-33.3,51.3
			c-20.9,13.2-48.2,21.1-79.1,21.1H592.7c-40.1,0-75-13.7-95.1-33.8H157.4C95.7,914.3,45,881.6,45,841.9V806
			c0-39.7,50.9-72.4,112.4-72.4h138.4c-13.3-11.9-20.9-26.4-20.9-41.7c0-19.8,12.5-38,33.3-51.3c14.1-9.5,33.3-16.1,53.4-19.5h-130
			c-44.2,0-79.9-23.2-79.9-51.7c0-14,9.2-27.2,23.3-36.4c14.9-9.5,35-15.3,56.6-15.3h140c-8.4-8.2-13.3-17.7-13.3-28V461
			c0-5,0.8-10,3.3-14.8h-48.2c-44.2,0-79.9-23.2-79.9-51.7V366c0-28.5,35.8-51.7,79.9-51.7h1142.8c44.2,0,79.9,23.2,79.9,51.7v28.5
			c0,5-0.8,10-3.3,14.8h48.2c44.2,0,79.9,23.2,79.9,51.7v28.5c0,28.5-35.8,51.7-79.9,51.7h-70.9c16.8,9.5,28.4,23.5,28.4,38.8
			c0,6.1-1.6,11.9-4.9,17.7H1867C1912.3,597.3,1948.1,620.9,1948.1,649z"/>
	</g>
</g>
<g>
	<path fill="#3F454F" d="M782.6,131.9h427.9c5.6,0,10.2,4.9,10.2,10.9v725.4c0,6-4.6,10.9-10.2,10.9H782.6
		c-5.6,0-10.2-4.9-10.2-10.9V142.8C772.4,136.8,776.9,131.9,782.6,131.9z"/>
	<path fill="#E0E0E0" d="M823.3,238.8h346.4c6,0,10.9,2.8,10.9,6.3v86.6c0,3.5-4.9,6.3-10.9,6.3H823.3c-6,0-10.9-2.8-10.9-6.3v-86.6
		C812.5,241.7,817.3,238.8,823.3,238.8z"/>
	<path fill="#E0E0E0" d="M823.3,362.8h346.4c6,0,10.9,4.9,10.9,10.9v7.3c0,6-4.9,10.9-10.9,10.9H823.3c-6,0-10.9-4.9-10.9-10.9v-7.3
		C812.5,367.7,817.3,362.8,823.3,362.8z"/>
	<path opacity="0.37" fill="#E0E0E0" enable-background="new    " d="M823.3,711.5h346.4c6,0,10.9,2.1,10.9,4.6v3.1
		c0,2.6-4.9,4.6-10.9,4.6H823.3c-6,0-10.9-2.1-10.9-4.6v-3.1C812.5,713.6,817.3,711.5,823.3,711.5z"/>
	<path opacity="0.37" fill="#E0E0E0" enable-background="new    " d="M823.3,740.1h346.4c6,0,10.9,2.1,10.9,4.6v3.1
		c0,2.6-4.9,4.6-10.9,4.6H823.3c-6,0-10.9-2.1-10.9-4.6v-3.1C812.5,742.2,817.3,740.1,823.3,740.1z"/>
	<path opacity="0.37" fill="#E0E0E0" enable-background="new    " d="M823.3,684.7h346.4c6,0,10.9,2.1,10.9,4.6v3.1
		c0,2.6-4.9,4.6-10.9,4.6H823.3c-6,0-10.9-2.1-10.9-4.6v-3.1C812.5,686.8,817.3,684.7,823.3,684.7z"/>
	<path opacity="0.37" fill="#E0E0E0" enable-background="new    " d="M823.3,795.5h346.4c6,0,10.9,2.1,10.9,4.6v3.1
		c0,2.6-4.9,4.6-10.9,4.6H823.3c-6,0-10.9-2.1-10.9-4.6v-3.1C812.5,797.5,817.3,795.5,823.3,795.5z"/>
	<path opacity="0.37" fill="#E0E0E0" enable-background="new    " d="M823.3,824.1h346.4c6,0,10.9,2.1,10.9,4.6v3.1
		c0,2.6-4.9,4.6-10.9,4.6H823.3c-6,0-10.9-2.1-10.9-4.6v-3.1C812.5,826.1,817.3,824.1,823.3,824.1z"/>
	<path opacity="0.37" fill="#E0E0E0" enable-background="new    " d="M823.3,768.7h346.4c6,0,10.9,2.1,10.9,4.6v3.1
		c0,2.6-4.9,4.6-10.9,4.6H823.3c-6,0-10.9-2.1-10.9-4.6v-3.1C812.5,770.7,817.3,768.7,823.3,768.7z"/>
	<circle fill="#B8DB23" cx="991.1" cy="591.7" r="22.3"/>
</g>
<g>
	<path fill="#3F454F" d="M1271.2,331.4h313.6c4.1,0,7.5,3.6,7.5,8v531.7c0,4.4-3.4,8-7.5,8h-313.6c-4.1,0-7.5-3.6-7.5-8V339.4
		C1263.7,335,1267.1,331.4,1271.2,331.4z"/>
	<path fill="#E0E0E0" d="M1301.1,409.8H1555c4.4,0,8,2.1,8,4.6v63.5c0,2.6-3.6,4.6-8,4.6h-253.9c-4.4,0-8-2.1-8-4.6v-63.5
		C1293.1,411.9,1296.7,409.8,1301.1,409.8z"/>
	<path fill="#E0E0E0" d="M1301.1,500.6H1555c4.4,0,8,3.6,8,8v5.3c0,4.4-3.6,8-8,8h-253.9c-4.4,0-8-3.6-8-8v-5.3
		C1293.1,504.2,1296.7,500.6,1301.1,500.6z"/>
	<path opacity="0.37" fill="#E0E0E0" enable-background="new    " d="M1301.1,756.2H1555c4.4,0,8,1.5,8,3.4v2.3c0,1.9-3.6,3.4-8,3.4
		h-253.9c-4.4,0-8-1.5-8-3.4v-2.3C1293.1,757.8,1296.7,756.2,1301.1,756.2z"/>
	<path opacity="0.37" fill="#E0E0E0" enable-background="new    " d="M1301.1,777.2H1555c4.4,0,8,1.5,8,3.4v2.3c0,1.9-3.6,3.4-8,3.4
		h-253.9c-4.4,0-8-1.5-8-3.4v-2.3C1293.1,778.7,1296.7,777.2,1301.1,777.2z"/>
	<path opacity="0.37" fill="#E0E0E0" enable-background="new    " d="M1301.1,736.6H1555c4.4,0,8,1.5,8,3.4v2.3c0,1.9-3.6,3.4-8,3.4
		h-253.9c-4.4,0-8-1.5-8-3.4V740C1293.1,738.1,1296.7,736.6,1301.1,736.6z"/>
	<path opacity="0.37" fill="#E0E0E0" enable-background="new    " d="M1301.1,817.8H1555c4.4,0,8,1.5,8,3.4v2.3c0,1.9-3.6,3.4-8,3.4
		h-253.9c-4.4,0-8-1.5-8-3.4v-2.3C1293.1,819.3,1296.7,817.8,1301.1,817.8z"/>
	<path opacity="0.37" fill="#E0E0E0" enable-background="new    " d="M1301.1,838.7H1555c4.4,0,8,1.5,8,3.4v2.3c0,1.9-3.6,3.4-8,3.4
		h-253.9c-4.4,0-8-1.5-8-3.4v-2.3C1293.1,840.3,1296.7,838.7,1301.1,838.7z"/>
	<path opacity="0.37" fill="#E0E0E0" enable-background="new    " d="M1301.1,798.1H1555c4.4,0,8,1.5,8,3.4v2.3c0,1.9-3.6,3.4-8,3.4
		h-253.9c-4.4,0-8-1.5-8-3.4v-2.3C1293.1,799.7,1296.7,798.1,1301.1,798.1z"/>
	<circle fill="#82CCF4" cx="1424" cy="668.4" r="16.4"/>
</g>
<g>
	<path fill="#3F454F" d="M410,331.4h313.6c4.1,0,7.5,3.6,7.5,8v531.7c0,4.4-3.4,8-7.5,8H410c-4.1,0-7.5-3.6-7.5-8V339.4
		C402.5,335,405.8,331.4,410,331.4z"/>
	<path fill="#E0E0E0" d="M439.9,409.8h253.9c4.4,0,8,2.1,8,4.6v63.5c0,2.6-3.6,4.6-8,4.6H439.9c-4.4,0-8-2.1-8-4.6v-63.5
		C431.9,411.9,435.5,409.8,439.9,409.8z"/>
	<path fill="#E0E0E0" d="M439.9,500.6h253.9c4.4,0,8,3.6,8,8v5.3c0,4.4-3.6,8-8,8H439.9c-4.4,0-8-3.6-8-8v-5.3
		C431.9,504.2,435.5,500.6,439.9,500.6z"/>
	<path opacity="0.37" fill="#E0E0E0" enable-background="new    " d="M439.9,756.2h253.9c4.4,0,8,1.5,8,3.4v2.3c0,1.9-3.6,3.4-8,3.4
		H439.9c-4.4,0-8-1.5-8-3.4v-2.3C431.9,757.8,435.5,756.2,439.9,756.2z"/>
	<path opacity="0.37" fill="#E0E0E0" enable-background="new    " d="M439.9,777.2h253.9c4.4,0,8,1.5,8,3.4v2.3c0,1.9-3.6,3.4-8,3.4
		H439.9c-4.4,0-8-1.5-8-3.4v-2.3C431.9,778.7,435.5,777.2,439.9,777.2z"/>
	<path opacity="0.37" fill="#E0E0E0" enable-background="new    " d="M439.9,736.6h253.9c4.4,0,8,1.5,8,3.4v2.3c0,1.9-3.6,3.4-8,3.4
		H439.9c-4.4,0-8-1.5-8-3.4V740C431.9,738.1,435.5,736.6,439.9,736.6z"/>
	<path opacity="0.37" fill="#E0E0E0" enable-background="new    " d="M439.9,817.8h253.9c4.4,0,8,1.5,8,3.4v2.3c0,1.9-3.6,3.4-8,3.4
		H439.9c-4.4,0-8-1.5-8-3.4v-2.3C431.9,819.3,435.5,817.8,439.9,817.8z"/>
	<path opacity="0.37" fill="#E0E0E0" enable-background="new    " d="M439.9,838.7h253.9c4.4,0,8,1.5,8,3.4v2.3c0,1.9-3.6,3.4-8,3.4
		H439.9c-4.4,0-8-1.5-8-3.4v-2.3C431.9,840.3,435.5,838.7,439.9,838.7z"/>
	<path opacity="0.37" fill="#E0E0E0" enable-background="new    " d="M439.9,798.1h253.9c4.4,0,8,1.5,8,3.4v2.3c0,1.9-3.6,3.4-8,3.4
		H439.9c-4.4,0-8-1.5-8-3.4v-2.3C431.9,799.7,435.5,798.1,439.9,798.1z"/>
	<circle fill="#82CCF4" cx="562.8" cy="668.4" r="16.4"/>
</g>
</svg>
