<?xml version="1.0" encoding="utf-8"?>
<!-- Generator: Adobe Illustrator 21.0.2, SVG Export Plug-In . SVG Version: 6.00 Build 0)  -->
<svg version="1.1" id="Layer_1" xmlns="http://www.w3.org/2000/svg" xmlns:xlink="http://www.w3.org/1999/xlink" x="0px" y="0px"
	 viewBox="0 0 1000 1000" style="enable-background:new 0 0 1000 1000;" xml:space="preserve">
<style type="text/css">
	.st0{fill:#EDF4F4;}
	.st1{fill:#CAD5DB;}
	.st2{fill:#FFFFFF;}
	.st3{fill:#BFBFBF;}
	.st4{fill:#383838;}
	.st5{fill:#EDEDED;}
	.st6{fill:#EF5C3A;}
	.st7{fill:#EDE03B;}
	.st8{fill:#91CE30;}
	.st9{fill:#44A7D8;}
	.st10{fill:#A0A0A0;}
	.st11{fill:url(#SVGID_1_);}
	.st12{fill:url(#SVGID_2_);}
	.st13{fill:url(#SVGID_3_);}
	.st14{fill:url(#SVGID_4_);}
	.st15{fill:#FFFFFF;stroke:#B3B3B3;stroke-miterlimit:10;}
	.st16{font-family:'Lato-Semibold';}
	.st17{font-size:38.1038px;}
	.st18{fill:#EDF2DD;}
	.st19{fill:none;stroke:#7B9B37;stroke-width:6;stroke-linecap:round;stroke-miterlimit:10;}
	.st20{font-size:27.217px;}
	.st21{font-size:30.0155px;}
	.st22{fill:#EFDFDC;}
	.st23{fill:#993737;}
	.st24{fill:#E4EAED;}
</style>
<circle class="st0" cx="444.7" cy="493" r="387.7"/>
<g>
	<g>
		<path class="st1" d="M460.9,261.8c0,1.7-1.6,3.3-4,4.4c-2.4,1.1-6,1.8-9.8,1.8h-20.8c5.2,1.6,8.6,4.2,8.6,7.3
			c0,2.4-2.2,4.6-5.7,6.2s-8.3,2.5-13.8,2.5h-14.2c2.3,1.4,3.6,3.2,3.6,5.1c0,2.4-2.2,4.6-5.7,6.2s-8.3,2.5-13.6,2.5h-158
			c-6.9,0-12.9-1.6-16.4-4.1h-58.6c-10.6,0-19.4-3.9-19.4-8.7v-4.3c0-4.8,8.8-8.7,19.4-8.7h23.8c-2.3-1.4-3.6-3.2-3.6-5
			c0-2.4,2.2-4.6,5.7-6.2c2.4-1.1,5.7-1.9,9.2-2.3h-22.4c-7.6,0-13.8-2.8-13.8-6.2c0-1.7,1.6-3.3,4-4.4c2.6-1.1,6-1.8,9.8-1.8h24.1
			c-1.4-1-2.3-2.1-2.3-3.4v-3.4c0-0.6,0.1-1.2,0.6-1.8h-8.3c-7.6,0-13.8-2.8-13.8-6.2v-3.4c0-3.4,6.2-6.2,13.8-6.2h196.9
			c7.6,0,13.8,2.8,13.8,6.2v3.4c0,0.6-0.1,1.2-0.6,1.8h8.3c7.6,0,13.8,2.8,13.8,6.2v3.4c0,3.4-6.2,6.2-13.8,6.2h-12.2
			c2.9,1.1,4.9,2.8,4.9,4.7c0,0.7-0.3,1.4-0.9,2.1H447C454.8,255.6,460.9,258.4,460.9,261.8z"/>
	</g>
</g>
<g>
	<g>
		<path class="st1" d="M982,163.9c0,1.9-1.8,3.7-4.5,4.9c-2.8,1.3-6.8,2.1-11,2.1H943c5.8,1.8,9.7,4.8,9.7,8.2c0,2.7-2.4,5.2-6.5,7
			s-9.4,2.9-15.6,2.9h-16c2.6,1.6,4,3.6,4,5.7c0,2.7-2.4,5.2-6.5,7c-4,1.8-9.4,2.9-15.4,2.9H718.6c-7.8,0-14.6-1.9-18.5-4.6H634
			c-12,0-21.9-4.4-21.9-9.8v-4.9c0-5.4,9.9-9.8,21.9-9.8h26.9c-2.6-1.6-4-3.6-4-5.7c0-2.7,2.4-5.2,6.5-7c2.8-1.3,6.5-2.2,10.4-2.6
			h-25.3c-8.6,0-15.6-3.1-15.6-7c0-1.9,1.8-3.7,4.5-4.9c2.9-1.3,6.8-2.1,11-2.1h27.2c-1.6-1.1-2.6-2.4-2.6-3.8v-3.9
			c0-0.7,0.2-1.3,0.6-2h-9.4c-8.6,0-15.6-3.1-15.6-7v-3.9c0-3.9,7-7,15.6-7h222.1c8.6,0,15.6,3.1,15.6,7v3.9c0,0.7-0.2,1.3-0.6,2
			h9.4c8.6,0,15.6,3.1,15.6,7v3.9c0,3.9-7,7-15.6,7H897c3.2,1.3,5.5,3.2,5.5,5.3c0,0.8-0.3,1.6-1,2.4h64.8
			C975,156.9,982,160.1,982,163.9z"/>
	</g>
</g>
<g>
	<g>
		<path class="st1" d="M17.4,786.8c0,1.5,1.3,2.8,3.3,3.8c2,1,5,1.6,8.1,1.6h17.3c-4.3,1.4-7.1,3.6-7.1,6.3c0,2.1,1.8,3.9,4.8,5.3
			c3,1.4,6.9,2.2,11.4,2.2H67c-1.9,1.2-3,2.7-3,4.4c0,2.1,1.8,3.9,4.8,5.3c3,1.4,6.9,2.2,11.3,2.2h131.1c5.7,0,10.7-1.4,13.6-3.5
			h48.6c8.8,0,16.1-3.4,16.1-7.5v-3.7c0-4.1-7.3-7.5-16.1-7.5h-19.8c1.9-1.2,3-2.7,3-4.3c0-2.1-1.8-3.9-4.8-5.3c-2-1-4.8-1.7-7.6-2
			h18.6c6.3,0,11.4-2.4,11.4-5.4c0-1.5-1.3-2.8-3.3-3.8c-2.1-1-5-1.6-8.1-1.6h-20c1.2-0.9,1.9-1.8,1.9-2.9v-3c0-0.5-0.1-1-0.5-1.5
			h6.9c6.3,0,11.4-2.4,11.4-5.4v-3c0-3-5.1-5.4-11.4-5.4H87.7c-6.3,0-11.4,2.4-11.4,5.4v3c0,0.5,0.1,1,0.5,1.5h-6.9
			c-6.3,0-11.4,2.4-11.4,5.4v3c0,3,5.1,5.4,11.4,5.4H80c-2.4,1-4.1,2.4-4.1,4c0,0.6,0.2,1.2,0.7,1.8H29
			C22.6,781.5,17.4,783.9,17.4,786.8z"/>
	</g>
</g>
<g>
	<g>
		<path class="st1" d="M609.9,717.3c0,1.5,1.3,2.8,3.3,3.8c2,1,5,1.6,8.1,1.6h17.3c-4.3,1.4-7.1,3.6-7.1,6.3c0,2.1,1.8,3.9,4.8,5.3
			c3,1.4,6.9,2.2,11.4,2.2h11.8c-1.9,1.2-3,2.7-3,4.4c0,2.1,1.8,3.9,4.8,5.3c3,1.4,6.9,2.2,11.3,2.2h131.1c5.7,0,10.7-1.4,13.6-3.5
			h48.6c8.8,0,16.1-3.4,16.1-7.5v-3.7c0-4.1-7.3-7.5-16.1-7.5h-19.8c1.9-1.2,3-2.7,3-4.3c0-2.1-1.8-3.9-4.8-5.3c-2-1-4.8-1.7-7.6-2
			h18.6c6.3,0,11.4-2.4,11.4-5.4c0-1.5-1.3-2.8-3.3-3.8c-2.1-1-5-1.6-8.1-1.6h-20c1.2-0.9,1.9-1.8,1.9-2.9v-3c0-0.5-0.1-1-0.5-1.5
			h6.9c6.3,0,11.4-2.4,11.4-5.4v-3c0-3-5.1-5.4-11.4-5.4H680.2c-6.3,0-11.4,2.4-11.4,5.4v3c0,0.5,0.1,1,0.5,1.5h-6.9
			c-6.3,0-11.4,2.4-11.4,5.4v3c0,3,5.1,5.4,11.4,5.4h10.1c-2.4,1-4.1,2.4-4.1,4c0,0.6,0.2,1.2,0.7,1.8h-47.7
			C615.1,711.9,609.9,714.4,609.9,717.3z"/>
	</g>
</g>
<g>
	<g>
		<path class="st2" d="M250.5,609.5c-4.5,0-8.2-3.7-8.2-8.2v-240c0-4.5,3.7-8.2,8.2-8.2h386.9c4.5,0,8.2,3.7,8.2,8.2v240
			c0,4.5-3.7,8.2-8.2,8.2H250.5z"/>
		<path class="st3" d="M637.4,353.3c4.4,0,8,3.6,8,8v240c0,4.4-3.6,8-8,8H250.5c-4.4,0-8-3.6-8-8v-240c0-4.4,3.6-8,8-8H637.4
			 M637.4,352.9H250.5c-4.7,0-8.4,3.8-8.4,8.4v240c0,4.7,3.8,8.4,8.4,8.4h386.9c4.7,0,8.4-3.8,8.4-8.4v-240
			C645.8,356.7,642,352.9,637.4,352.9L637.4,352.9z"/>
	</g>
	<g>
		<path class="st4" d="M645.8,372.9H242.1v-11.6c0-4.7,3.8-8.4,8.4-8.4h386.8c4.7,0,8.4,3.8,8.4,8.4L645.8,372.9L645.8,372.9z"/>
	</g>
	<g>
		<rect x="242.6" y="372.9" class="st5" width="402.7" height="21"/>
	</g>
	<circle class="st6" cx="255.6" cy="362.9" r="3"/>
	<circle class="st7" cx="268.1" cy="362.9" r="3"/>
	<circle class="st8" cx="281.6" cy="362.9" r="3"/>
	<g>
		<rect x="271.1" y="377.9" class="st2" width="288.8" height="12"/>
	</g>
	<g>
		<path class="st9" d="M397.8,516.2c0.3,1,0.7,1.9,1.1,2.8l1.2,2.4c0.2,0.3,0.4,0.7,0.5,1.1c0.1,0.2,0.4,0.7,0.5,0.9
			c0.7,1.1,1.3,2.1,2.1,3.2c0.2,0.1,0.5,0.5,0.8,0.8s0.5,0.7,0.8,1.1c9.2,11.6,23.1,18.5,37.9,18.9h2.5
			c19.8-0.5,37.4-12.7,44.9-31.1L397.8,516.2L397.8,516.2z M404.9,519.2h17.5c3.2,8.2,7.9,15.8,14,22.3
			C423.1,539.3,411.5,531.1,404.9,519.2z M441.2,538.6c-5.4-5.7-9.7-12.3-12.9-19.5h12.9V538.6z M446.5,519.2H459
			c-3.1,6.9-7.3,13.3-12.5,18.9V519.2L446.5,519.2z M450.5,541.7c3-3.2,5.8-6.8,8.2-10.5c2.4-3.8,4.5-7.8,6.2-12h17.7
			C475.9,531.3,464.1,539.5,450.5,541.7z"/>
		<path class="st9" d="M449.3,448c-1.8-0.2-3.6-0.3-5.4-0.2c-20.3,0-38.6,12.3-46.2,31.1h92.4C483.2,461.8,467.6,450,449.3,448z
			 M405.2,476.2c6.7-11.8,18.5-19.9,31.9-22.1c-5.7,6.6-10.4,14-14,22.1H405.2z M441.2,476.2H429c3.2-6.8,7.3-13,12.2-18.7V476.2z
			 M446.5,476.2v-18.6c4.9,5.6,9,11.8,12.1,18.6H446.5z M450.5,454.1c13.4,2.1,25.2,10.2,31.9,22.1h-18.1
			C460.9,468.2,456.2,460.8,450.5,454.1z"/>
		<polygon class="st9" points="428.7,488.3 423.9,508.3 419.6,508.3 415.7,493.4 411.7,508.3 407.3,508.3 402.6,488.3 406.7,488.3 
			409.7,502 413.3,488.3 418.2,488.3 421.6,502.3 424.7,488.3 		"/>
		<polygon class="st9" points="457.8,488.3 452.9,508.3 448.6,508.3 444.6,493.4 440.7,508.3 436.3,508.3 431.5,488.3 435.6,488.3 
			438.7,502 442.3,488.3 447.1,488.3 450.6,502.3 453.7,488.3 		"/>
		<polygon class="st9" points="486.7,488.3 481.9,508.3 477.6,508.3 473.6,493.4 469.6,508.3 465.3,508.3 460.5,488.3 464.7,488.3 
			467.6,502 471.3,488.3 476.1,488.3 479.6,502.3 482.6,488.3 		"/>
	</g>
</g>
<path class="st10" d="M236.8,644.8"/>
<linearGradient id="SVGID_1_" gradientUnits="userSpaceOnUse" x1="722.4825" y1="381.9071" x2="788.7269" y2="94.9712">
	<stop  offset="0" style="stop-color:#FFFFFF;stop-opacity:0"/>
	<stop  offset="0.9988" style="stop-color:#FFFFFF"/>
</linearGradient>
<path class="st11" d="M640.3,141.9L560,344.4h47.6l324.8-130.7v-85.5H657.8C650.4,128.2,643.6,133.5,640.3,141.9z"/>
<linearGradient id="SVGID_2_" gradientUnits="userSpaceOnUse" x1="291.1511" y1="379.1404" x2="334.4482" y2="191.6" gradientTransform="matrix(-0.5345 0 0 1 454.9872 0)">
	<stop  offset="0" style="stop-color:#FFFFFF;stop-opacity:0"/>
	<stop  offset="0.9988" style="stop-color:#FFFFFF"/>
</linearGradient>
<path class="st12" d="M397.7,279.6L360,353h-37.5l-145-69.7c-3.7-1.8-6.1-5.5-6.1-9.6v-29.2c0-6.4,5.2-11.6,11.6-11.6h204.8
	C405.7,232.9,395.1,274.9,397.7,279.6z"/>
<linearGradient id="SVGID_3_" gradientUnits="userSpaceOnUse" x1="507.9768" y1="862.2631" x2="565.1053" y2="614.8123" gradientTransform="matrix(-1 0 0 -1 713 1447)">
	<stop  offset="0" style="stop-color:#FFFFFF;stop-opacity:0"/>
	<stop  offset="0.9988" style="stop-color:#FFFFFF"/>
</linearGradient>
<path class="st13" d="M259.1,798l56.1-187.8h-33.3L55.1,731.4v79.3h191.8C252.1,810.8,256.8,805.8,259.1,798z"/>
<linearGradient id="SVGID_4_" gradientUnits="userSpaceOnUse" x1="-21.2833" y1="862.8278" x2="20.7952" y2="680.5657" gradientTransform="matrix(1.1245 0 0 -1 718.3104 1446.9995)">
	<stop  offset="0" style="stop-color:#FFFFFF;stop-opacity:0"/>
	<stop  offset="0.9988" style="stop-color:#FFFFFF"/>
</linearGradient>
<path class="st14" d="M632.3,735.5l-60-126.3H608l242.6,81.5v53.3H645.4C639.9,744.1,634.8,740.8,632.3,735.5z"/>
<g>
	<path class="st15" d="M920.5,194.8H657.3c-6.6,0-12-5.4-12-12v-42.7c0-6.6,5.4-12,12-12h263.2c6.6,0,12,5.4,12,12v42.7
		C932.5,189.4,927.1,194.8,920.5,194.8z"/>
	<text transform="matrix(1 0 0 1 751.0693 172.5527)" class="st16 st17">https://...</text>
	<path class="st18" d="M712.4,193.9h-54.7c-6.6,0-12-5.4-12-12v-40.8c0-6.6,5.4-12,12-12h54.7V193.9z"/>
	<polyline class="st19" points="659.1,164.4 670.5,175.8 694.8,151.5 	"/>
</g>
<g>
	<path class="st15" d="M246.9,810.2H65.8c-6.6,0-12-5.4-12-12v-23.6c0-6.6,5.4-12,12-12h181.1c6.6,0,12,5.4,12,12v23.6
		C258.9,804.8,253.5,810.2,246.9,810.2z"/>
	<text transform="matrix(1 0 0 1 129.3428 794.2969)" class="st16 st20">http://...</text>
	<path class="st18" d="M101.7,809.5H66.1c-6.6,0-12-5.4-12-12v-22.3c0-6.6,5.4-12,12-12h35.6V809.5z"/>
	<polyline class="st19" points="63.6,788.4 71.8,796.6 89.1,779.3 	"/>
</g>
<g>
	<path class="st15" d="M386.1,285.9H183.8c-6.6,0-12-5.4-12-12v-28.5c0-6.6,5.4-12,12-12h202.2c6.6,0,12,5.4,12,12v28.5
		C398.1,280.5,392.7,285.9,386.1,285.9z"/>
	<text transform="matrix(1 0 0 1 255.167 268.3228)" class="st16 st21">http://...</text>
	<path class="st22" d="M224.7,285.1h-40.5c-6.6,0-12-5.4-12-12v-27c0-6.6,5.4-12,12-12h40.5V285.1z"/>
	<g>
		<path class="st23" d="M208.9,268.5c0.4,0.4,0.4,1.1,0,1.5c-0.2,0.2-0.5,0.3-0.7,0.3c-0.3,0-0.5-0.1-0.7-0.3l-8.9-8.9l-8.9,8.9
			c-0.2,0.2-0.5,0.3-0.7,0.3c-0.3,0-0.5-0.1-0.7-0.3c-0.4-0.4-0.4-1.1,0-1.5l8.9-8.9l-8.9-8.9c-0.4-0.4-0.4-1.1,0-1.5
			c0.4-0.4,1.1-0.4,1.5,0l8.9,8.9l8.9-8.9c0.4-0.4,1.1-0.4,1.5,0c0.4,0.4,0.4,1.1,0,1.5l-8.9,8.9L208.9,268.5z"/>
	</g>
</g>
<g>
	<path class="st15" d="M847.1,742.2H644.9c-6.6,0-12-5.4-12-12v-28.5c0-6.6,5.4-12,12-12h202.2c6.6,0,12,5.4,12,12v28.5
		C859.1,736.8,853.7,742.2,847.1,742.2z"/>
	<text transform="matrix(1 0 0 1 716.2236 724.6162)" class="st16 st21">http://...</text>
	<path class="st22" d="M685.8,741.4h-40.5c-6.6,0-12-5.4-12-12v-27c0-6.6,5.4-12,12-12h40.5V741.4z"/>
	<g>
		<path class="st23" d="M670,724.8c0.4,0.4,0.4,1.1,0,1.5c-0.2,0.2-0.5,0.3-0.7,0.3c-0.3,0-0.5-0.1-0.7-0.3l-8.9-8.9l-8.9,8.9
			c-0.2,0.2-0.5,0.3-0.7,0.3c-0.3,0-0.5-0.1-0.7-0.3c-0.4-0.4-0.4-1.1,0-1.5l8.9-8.9l-8.9-8.9c-0.4-0.4-0.4-1.1,0-1.5
			c0.4-0.4,1.1-0.4,1.5,0l8.9,8.9l8.9-8.9c0.4-0.4,1.1-0.4,1.5,0c0.4,0.4,0.4,1.1,0,1.5l-8.9,8.9L670,724.8z"/>
	</g>
</g>
<ellipse class="st24" cx="443.8" cy="634" rx="216.2" ry="10.5"/>
</svg>
