<svg id="fbb74d1c-caff-448d-af66-6d5bbdde8046" data-name="Layer 1" xmlns="http://www.w3.org/2000/svg" viewBox="0 0 930 930"><title>No Addon mgmt</title><circle cx="465" cy="465" r="463" style="fill:#fff;stroke:#636363;stroke-miterlimit:10;stroke-width:4px"/><g id="27817fd1-c3c6-4dfc-9dab-93d367989981" data-name="Canvas"><g id="bf36bdf6-874b-4a81-ab0e-c8d4ed479d4c" data-name="Addon mgmt"><g id="ecbb8db3-4439-411e-b99d-e0175b008b5d" data-name="Subtract"><path d="M445.08,509.36" style="fill:#636363"/><path d="M443.88,605" style="fill:#636363"/><path d="M566.94,407.45V354.89a38.37,38.37,0,0,0-38.37-38.37H443.3a52.75,52.75,0,1,0-88.43,0H274.4A38.37,38.37,0,0,0,236,354.86v79.21a52.75,52.75,0,1,1,0,81.53v93.47a38.37,38.37,0,0,0,38.37,38.37H438.94C471,647,548,650,567,647" style="fill:#636363"/></g></g></g><g id="dae0eaca-2989-4be5-b44b-81d7f277d3ef" data-name="Vector"><path d="M549.52,673.06a12.76,12.76,0,0,1-12.66-11.6l-.53-6.18-1.6-19v-1.58l-.18-2a87,87,0,0,1-21.09-8.77l-2.82,2.39-14.51,12.24-4.88,4a12.66,12.66,0,0,1-17.13-.74l-3.48-3.47-8-8.16A12.71,12.71,0,0,1,462,613l4-4.81,12.25-14.53,2.39-2.82a87.26,87.26,0,0,1-8.76-21.07l-22.6-1.9-6.19-.53a12.73,12.73,0,0,1-11.6-12.67V538.44a12.73,12.73,0,0,1,11.6-12.66l6.18-.54,22.61-1.9a87.49,87.49,0,0,1,8.76-21.07l-2.39-2.81L466,484.94l-4-4.85a12.73,12.73,0,0,1,.72-17.15l11.45-11.46a12.68,12.68,0,0,1,17.18-.69l4.81,4L510.67,467l2.82,2.39a87.26,87.26,0,0,1,21.07-8.76l1.86-22.4.52-6.2a12.61,12.61,0,0,1,12.63-11.59H566A12.75,12.75,0,0,1,578.66,432l.53,6.19,1.9,22.6a87.31,87.31,0,0,1,21.07,8.76l2.81-2.39L619.51,455l4.86-4a12.66,12.66,0,0,1,17.14.72L653,463.13a12.76,12.76,0,0,1,.7,17.17l-4,4.81-12.26,14.53L635,502.46a87.51,87.51,0,0,1,8.77,21.07l3.67.31,18.83,1.59,6.2.54A12.64,12.64,0,0,1,684,538.57V555a12.6,12.6,0,0,1-11.6,12.66l-6.19.53-22.59,1.9a87.52,87.52,0,0,1-8.77,21.07l2.39,2.81,12.24,14.52,4,4.85a12.75,12.75,0,0,1-.72,17.15L641.32,642a12.59,12.59,0,0,1-9,3.71h0a12.66,12.66,0,0,1-8.21-3l-4.81-4L604.81,626.4,602,624a87.33,87.33,0,0,1-21.07,8.77l-.31,3.67L579,655.28l-.53,6.18a12.59,12.59,0,0,1-12.62,11.6Z" style="fill:#fff"/><path d="M566,423.46a9.66,9.66,0,0,1,9.63,8.85l.53,6.19,1.59,18.91.48,5.81a84.43,84.43,0,0,1,24.19,10.06l4.45-3.77,14.51-12.24,4.84-4a9.66,9.66,0,0,1,13.1.53l11.47,11.46a9.69,9.69,0,0,1,.53,13.11l-4,4.83-12.25,14.51-3.77,4.45a84.69,84.69,0,0,1,10.07,24.19l5.8.48L666,528.42l6.19.53a9.68,9.68,0,0,1,8.76,9.62V555a9.67,9.67,0,0,1-8.86,9.67l-6.19.53L647,566.78l-5.8.48a84.69,84.69,0,0,1-10.07,24.19l3.77,4.45,12.24,14.51,4,4.83a9.69,9.69,0,0,1-.53,13.11L639.2,639.83a9.67,9.67,0,0,1-13.1.52l-4.84-4-14.51-12.24-4.45-3.77a84.45,84.45,0,0,1-24.19,10.07l-.48,5.8L576,655l-.53,6.18a9.66,9.66,0,0,1-9.63,8.86H549.48a9.67,9.67,0,0,1-9.63-8.86l-.53-6.18-1.59-18.92V634.5l-.38-4.21a84.17,84.17,0,0,1-24.19-10.07L508.69,624l-14.5,12.24-4.84,4a9.66,9.66,0,0,1-13.1-.53l-3.49-3.48-7.93-8.13a9.66,9.66,0,0,1-.53-13.1l4-4.84,12.24-14.51,3.77-4.45A84.43,84.43,0,0,1,474.25,567l-5.81-.48-18.91-1.59-6.18-.53a9.67,9.67,0,0,1-8.86-9.67V538.44a9.67,9.67,0,0,1,8.86-9.67l6.18-.53,18.91-1.59,5.81-.48A84.67,84.67,0,0,1,484.31,502l-3.77-4.45L468.3,483l-4-4.83a9.67,9.67,0,0,1,.53-13.11l11.46-11.47a9.68,9.68,0,0,1,13.11-.52l4.84,4,14.5,12.24,4.45,3.77A84.38,84.38,0,0,1,537.37,463l.48-5.81,1.55-18.72.52-6.19a9.68,9.68,0,0,1,9.64-8.85H566m0-6H549.62A15.6,15.6,0,0,0,534,431.79l-.53,6.2-1.55,18.73-.13,1.61a90.18,90.18,0,0,0-17.91,7.44l-1.22-1L498.1,452.49h0l-4.82-4a15.68,15.68,0,0,0-21.21.87L460.6,460.84a15.75,15.75,0,0,0-.89,21.21l4,4.81L476,501.41l1,1.24a90.49,90.49,0,0,0-7.44,17.9l-1.61.13L449,522.25l-6.2.54a15.75,15.75,0,0,0-14.34,15.67v16.23a15.75,15.75,0,0,0,14.35,15.65l6.17.53,18.93,1.59,1.62.13A90.24,90.24,0,0,0,477,590.51l-1,1.22-12.25,14.53-4,4.85a15.73,15.73,0,0,0,.86,21.17l7.9,8.1h0l3.49,3.48a15.66,15.66,0,0,0,21.18.9l4.8-3.93h0l14.5-12.24,1.24-1a90,90,0,0,0,18,7.46v1.6l1.59,18.92.54,6.2a15.76,15.76,0,0,0,15.61,14.34h16.29a15.58,15.58,0,0,0,15.65-14.35l.53-6.17,1.64-18.82.14-1.62a90.25,90.25,0,0,0,17.91-7.45l1.22,1,14.53,12.25,4.85,4a15.67,15.67,0,0,0,21.21-.88l11.47-11.47a15.78,15.78,0,0,0,.89-21.21l-4-4.82L639.53,592l-1-1.23A90.49,90.49,0,0,0,646,572.86l1.6-.13,18.92-1.59,6.21-.54A15.77,15.77,0,0,0,687,555V538.58A15.63,15.63,0,0,0,672.82,523h0l-6.19-.53-18.83-1.59-1.61-.13a90.49,90.49,0,0,0-7.45-17.91l1-1.22L652,487.06l4-4.85a15.78,15.78,0,0,0-.89-21.2l-11.47-11.46a15.66,15.66,0,0,0-21.2-.89l-4.82,4-14.55,12.27-1.23,1a90.24,90.24,0,0,0-17.91-7.44l-.13-1.61L582.2,438l-.54-6.21a15.76,15.76,0,0,0-15.61-14.33Z" style="fill:#636363"/></g><polygon points="610.77 539.34 610.77 556.33 567.44 556.33 567.44 599.66 550.45 599.66 550.45 556.33 507.11 556.33 507.11 539.34 550.45 539.34 550.45 496 567.44 496 567.44 539.34 610.77 539.34" style="fill:#549bd1"/></svg>