<svg id="8f2d8114-5147-477f-bbdd-a267bb9bb9a7" data-name="Layer 1" xmlns="http://www.w3.org/2000/svg" viewBox="0 0 930 930"><title>No browser Lockdown</title><circle cx="465" cy="465" r="463" style="fill:#fff;stroke:#636363;stroke-miterlimit:10;stroke-width:4px"/><path d="M233.9,295h378a12,12,0,0,1,12,12V587a12,12,0,0,1-12,12h-378a12,12,0,0,1-12-12V307A12,12,0,0,1,233.9,295Z" transform="translate(-1.9)" style="fill:none;stroke:#636363;stroke-miterlimit:10;stroke-width:6px"/><line x1="220" y1="339" x2="622" y2="339" style="fill:none;stroke:#636363;stroke-miterlimit:10;stroke-width:6px"/><circle cx="251" cy="317" r="8" style="fill:#636363"/><circle cx="277" cy="317" r="8" style="fill:#636363"/><circle cx="604" cy="523.8" r="103.1" style="fill:#fff;stroke:#636363;stroke-miterlimit:10;stroke-width:10px"/><polygon points="662.2 514.3 662.2 533.4 613.5 533.4 613.5 582 594.4 582 594.4 533.4 545.8 533.4 545.8 514.3 594.4 514.3 594.4 465.6 613.5 465.6 613.5 514.3 662.2 514.3" style="fill:#549bd1"/><path d="M461.6,435.3h-6.4c.3-3.5.3-7.7.3-12.5a32.6,32.6,0,0,0-65.2,0c0,4.9,0,9,.3,12.5h-6.4A15.19,15.19,0,0,0,369,450.5v65.6a15.19,15.19,0,0,0,15.2,15.2h77.3a15.19,15.19,0,0,0,15.2-15.2V450.5A15.17,15.17,0,0,0,461.6,435.3Zm-32.1,67H416.2V473.5h13.3ZM442,435.1H403.8c-.2-3.3-.2-8-.2-12.5a19.3,19.3,0,1,1,38.6,0c0,4.6,0,9.2-.2,12.7Z" transform="translate(-1.9)" style="fill:#636363"/></svg>