<svg id="827060a3-d1f0-4954-94b2-f95f0ef3864c" data-name="Layer 1" xmlns="http://www.w3.org/2000/svg" viewBox="0 0 930 930"><title>No browser Customize</title><circle cx="465" cy="465" r="463" style="fill:#fff;stroke:#636363;stroke-miterlimit:10;stroke-width:4px"/><path d="M246.9,302h378a12,12,0,0,1,12,12V594a12,12,0,0,1-12,12h-378a12,12,0,0,1-12-12V314A12,12,0,0,1,246.9,302Z" transform="translate(-1.9)" style="fill:none;stroke:#636363;stroke-miterlimit:10;stroke-width:6px"/><line x1="233" y1="346" x2="635" y2="346" style="fill:none;stroke:#636363;stroke-miterlimit:10;stroke-width:6px"/><circle cx="264" cy="324" r="8" style="fill:#636363"/><circle cx="290" cy="324" r="8" style="fill:#636363"/><circle cx="617" cy="530.8" r="103.1" style="fill:#fff;stroke:#636363;stroke-miterlimit:10;stroke-width:10px"/><polygon points="675.2 521.3 675.2 540.4 626.5 540.4 626.5 589 607.4 589 607.4 540.4 558.8 540.4 558.8 521.3 607.4 521.3 607.4 472.6 626.5 472.6 626.5 521.3 675.2 521.3" style="fill:#549bd1"/><g id="06422a15-d0f7-40c4-8cd1-467508528693" data-name="Canvas"><g id="8392ca31-3465-42f6-a2c4-36bc2e230af7" data-name="Browser Customization"><g id="ed73a25b-51f1-43ae-9de3-e457e8105fa6" data-name="Group"><g id="3d7590a3-1e6f-473c-9a3a-c6c8d45201c1" data-name="Rectangle"><path d="M501.5,415.6v14.1H486.2a21.06,21.06,0,0,1-39.7,0H361V415.6h85.5a21.06,21.06,0,0,1,39.7,0Z" transform="translate(-1.9)" style="fill:#636363"/></g><g id="dff7b0c6-d9a1-4cdf-b39e-ade1462aa2a9" data-name="Rectangle-2"><path d="M501.5,464.7v14.1h-82a21.06,21.06,0,0,1-39.7,0H361V464.7h18.8a21.1,21.1,0,0,1,39.8,0Z" transform="translate(-1.9)" style="fill:#636363"/></g><g id="7e4d9836-35e7-4ed7-8aa9-6ffc411bed30" data-name="Rectangle-3"><path d="M501.5,513.9V528H475.7a21.06,21.06,0,0,1-39.7,0H361V513.9h75a21.06,21.06,0,0,1,39.7,0Z" transform="translate(-1.9)" style="fill:#636363"/></g></g></g></g></svg>