<svg id="2c3fd2e6-2a02-4bdf-a1a4-723ad2338717" data-name="Layer 1" xmlns="http://www.w3.org/2000/svg" viewBox="0 0 930 930"><title>No Compliance</title><circle cx="465" cy="465" r="463" style="fill:#fff;stroke:#636363;stroke-miterlimit:10;stroke-width:4px"/><rect x="279.82" y="259.51" width="315.02" height="395.57" style="fill:#fff;stroke:#636363;stroke-miterlimit:10;stroke-width:6px"/><circle cx="600" cy="603.8" r="103.1" style="fill:#fff;stroke:#636363;stroke-miterlimit:10;stroke-width:10px"/><polygon points="658.2 594.3 658.2 613.4 609.5 613.4 609.5 662 590.4 662 590.4 613.4 541.8 613.4 541.8 594.3 590.4 594.3 590.4 545.6 609.5 545.6 609.5 594.3 658.2 594.3" style="fill:#549bd1"/><path d="M512.49,285H437.22v-.22h-75s-2.6-33.05,32.61-38.57a173.36,173.36,0,0,0,23.78-5.56,24.39,24.39,0,0,1-1.16-7.52c0-12.49,9-22.61,20.2-22.61s20.2,10.13,20.2,22.61a24.73,24.73,0,0,1-1.3,8,158.78,158.78,0,0,0,23.36,5.35C515.08,251.95,512.49,285,512.49,285Z" style="fill:#636363"/><polyline points="328.43 370.53 338.63 381.87 359.14 359.05" style="fill:none;stroke:#636363;stroke-miterlimit:10;stroke-width:6px"/><line x1="373.5" y1="370.46" x2="512.53" y2="370.46" style="fill:none;stroke:#636363;stroke-miterlimit:10;stroke-width:8px"/><polyline points="328.43 421.07 338.63 432.41 359.14 409.59" style="fill:none;stroke:#636363;stroke-miterlimit:10;stroke-width:6px"/><line x1="373.5" y1="421" x2="512.53" y2="421" style="fill:none;stroke:#636363;stroke-miterlimit:10;stroke-width:8px"/><polyline points="328.43 469.48 338.63 480.83 359.14 458" style="fill:none;stroke:#636363;stroke-miterlimit:10;stroke-width:6px"/><line x1="373.5" y1="469.41" x2="512.53" y2="469.41" style="fill:none;stroke:#636363;stroke-miterlimit:10;stroke-width:8px"/><polyline points="328.43 517.89 338.63 529.24 359.14 506.41" style="fill:none;stroke:#636363;stroke-miterlimit:10;stroke-width:6px"/><line x1="373.5" y1="517.83" x2="512.53" y2="517.83" style="fill:none;stroke:#636363;stroke-miterlimit:10;stroke-width:8px"/></svg>