<svg id="0b5fe597-973c-4033-a048-60bb2d23a4cd" data-name="Layer 1" xmlns="http://www.w3.org/2000/svg" viewBox="0 0 930 930"><title>No Computer</title><circle cx="465" cy="465" r="463" style="fill:#fff;stroke:#636363;stroke-miterlimit:10;stroke-width:4px"/><path d="M227.2,264.7H639.4a26.12,26.12,0,0,1,26.1,26.1V528.4a26.12,26.12,0,0,1-26.1,26.1H227.2a26.12,26.12,0,0,1-26.1-26.1V290.8A26.12,26.12,0,0,1,227.2,264.7Z" transform="translate(-1.9)" style="fill:#fff;stroke:#636363;stroke-miterlimit:10;stroke-width:6px"/><path d="M240.7,286.2H625.8a15.51,15.51,0,0,1,15.5,15.5v211a15.51,15.51,0,0,1-15.5,15.5H240.7a15.6,15.6,0,0,1-15.6-15.5v-211A15.53,15.53,0,0,1,240.7,286.2Z" transform="translate(-1.9)" style="fill:#fff;stroke:#636363;stroke-miterlimit:10;stroke-width:6px"/><polygon points="517.2 649.3 346.6 649.3 369.6 582.5 494.1 582.5 517.2 649.3" style="fill:#fff;stroke:#636363;stroke-miterlimit:10;stroke-width:6px"/><circle cx="629.5" cy="554.3" r="112.6" style="fill:#fff;stroke:#636363;stroke-miterlimit:10;stroke-width:10px"/><polygon points="693 543.9 693 564.8 639.9 564.8 639.9 617.9 619 617.9 619 564.8 565.9 564.8 565.9 543.9 619 543.9 619 490.8 639.9 490.8 639.9 543.9 693 543.9" style="fill:#549bd1"/></svg>