<svg id="c44f1250-1c10-4252-a1a6-e072c697df2f" data-name="Layer 1" xmlns="http://www.w3.org/2000/svg" viewBox="0 0 930 930"><title>No Extension</title><circle cx="465" cy="465" r="463" style="fill:#fff;stroke:#636363;stroke-miterlimit:10;stroke-width:4px"/><path d="M603,276v89H514V276h89m8-8H506V373H611Z" style="fill:#636363"/><g id="600e7744-14e7-46da-9890-00c312fcc2f1" data-name="Canvas"><g id="91572495-c85a-41b5-b6c7-4e8c990934fe" data-name="Extensions"><g id="48c81850-bf72-4b43-8d20-03090a2b984a" data-name="Rectangle"><rect x="230" y="404.29" width="244.71" height="244.71" style="fill:#636363"/></g><g id="4dcfb152-06a0-4843-94ff-7bdab5ef7aae" data-name="Rectangle-2"><rect x="230" y="266" width="106.41" height="106.41" style="fill:#636363"/></g><g id="1febf791-2448-41f9-82ec-1f62aee1c4d8" data-name="Rectangle-3"><rect x="368.29" y="266" width="106.41" height="106.41" style="fill:#636363"/></g><g id="40ffab7a-d9c1-4b36-b708-b4f1a8110e69" data-name="Rectangle-5"><rect x="504.31" y="405.74" width="108.69" height="243.26" style="fill:#636363"/></g></g></g><circle cx="568" cy="582" r="130" style="fill:#fff"/><circle cx="567.94" cy="581.83" r="103.06" style="fill:#fff;stroke:#636363;stroke-miterlimit:10;stroke-width:10px"/><polygon points="626.15 572.29 626.15 591.38 577.48 591.38 577.48 640.04 558.4 640.04 558.4 591.38 509.73 591.38 509.73 572.29 558.4 572.29 558.4 523.62 577.48 523.62 577.48 572.29 626.15 572.29" style="fill:#549bd1"/></svg>