<svg id="5e6d456c-8a12-4acc-b48e-5bddd9c76698" data-name="Layer 1" xmlns="http://www.w3.org/2000/svg" viewBox="0 0 930 930"><title>No groups</title><circle cx="465" cy="465" r="463" style="fill:#fff;stroke:#636363;stroke-miterlimit:10;stroke-width:4px"/><path d="M253.4,271.1s1.2-22.1,23.2-22.1h151s23.2-1.2,23.2,22.1v10.5H667.9s23.2,0,23.2,19.7v24.4H253.4Z" transform="translate(-1.9)" style="fill:#fff;stroke:#636363;stroke-miterlimit:10;stroke-width:6px"/><path d="M263.2,352.4H683.6a26.12,26.12,0,0,1,26.1,26.1V621.3a26.12,26.12,0,0,1-26.1,26.1H263.2a26.12,26.12,0,0,1-26.1-26.1V378.4A26,26,0,0,1,263.2,352.4Z" transform="translate(-1.9)" style="fill:#fff;stroke:#636363;stroke-miterlimit:10;stroke-width:6px"/><circle cx="625.4" cy="564.6" r="109.6" style="fill:#fff;stroke:#636363;stroke-miterlimit:10;stroke-width:10px"/><polygon points="687.3 554.4 687.3 574.7 635.5 574.7 635.5 626.5 615.2 626.5 615.2 574.7 563.5 574.7 563.5 554.4 615.2 554.4 615.2 502.7 635.5 502.7 635.5 554.4 687.3 554.4" style="fill:#549bd1"/></svg>