<svg id="0f09d3c5-16d4-4ee5-bfc9-cd031ec0483c" data-name="Layer 1" xmlns="http://www.w3.org/2000/svg" viewBox="0 0 930 930"><title>No Java Rules</title><circle cx="465" cy="465" r="463" style="fill:#fff;stroke:#636363;stroke-miterlimit:10;stroke-width:4px"/><g id="88bc727f-5431-4050-b5dc-f5cad7394b88" data-name="Canvas"><g id="525f1f8d-b243-4d3f-8884-f6790c187e85" data-name="Java"><g id="bda4007c-bba2-44d5-a1e1-476d0183bba5" data-name="XMLID 7"><g id="33bf520c-22ea-410f-971d-fa25cec9166d" data-name="XMLID 8"><path d="M461.9,285.1c-10.1,15.9-27,29.6-41.9,41.6-16.3,13.1-32,25.5-32,36.5-.9,31.3,21.9,75.1,22.2,75.4a3.4,3.4,0,0,1-.9,4.2,3.6,3.6,0,0,1-4.4,0c-2.7-2.1-66.1-51-45.3-95.9,12-25.7,34.4-41.3,54.1-55.3,13.8-9.6,25.6-17.8,31.1-27.5a72.56,72.56,0,0,0,8.1-46.1,3.56,3.56,0,0,1,2-3.9,3.48,3.48,0,0,1,4.3,1.2C459.4,215.6,483.5,250.1,461.9,285.1Z" transform="translate(-1.9)" style="fill:#636363"/></g><g id="276a9e68-c4e4-4a2f-ade4-09ae64748842" data-name="XMLID 9"><path d="M447.2,353.6c-7.5,13.6-2.6,20.9,4.3,31a64.59,64.59,0,0,1,11.8,24.1c5.7,26.8-26,48.9-27.4,49.9a3.61,3.61,0,0,1-2,.6,3.46,3.46,0,0,1-3.6-3.3,3.92,3.92,0,0,1,.4-1.8c2.5-5,8.3-19.5,5.9-27.5a38.36,38.36,0,0,0-6.6-9.8,68.6,68.6,0,0,1-18.7-47.9c0-36.3,78.7-66.3,82.1-67.6a3.54,3.54,0,0,1,4.3,1.6,3.43,3.43,0,0,1-1,4.4C496.2,307.8,456.1,337.8,447.2,353.6Z" transform="translate(-1.9)" style="fill:#636363"/></g><g id="d0c7922a-3b6b-4016-8398-1220bc24c693" data-name="XMLID 10"><path d="M501.1,462.7c-1.2,1-28.6,23.8-102.8,26.5-6.8,0-13.4.4-19.7.4-46.4,0-76.6-6.5-85.2-18.2a12.19,12.19,0,0,1-1.8-11.5c5.8-17,60.1-17.9,71.2-17.9a3.48,3.48,0,0,1,3.5,3.1,3.42,3.42,0,0,1-2.8,3.7c-18.5,3.6-33.4,9.5-35.9,12.8,4.7,2,24,4.7,61.8,4.7,33.8,0,82.6-2.5,108.7-9.6a3.57,3.57,0,0,1,4,1.7A3.3,3.3,0,0,1,501.1,462.7Z" transform="translate(-1.9)" style="fill:#636363"/></g><g id="dad0e3dd-74e9-4750-bf39-fe78b0933c6f" data-name="XMLID 11"><path d="M505.7,525.3H505a3.63,3.63,0,0,1-3.3-2.1A3.36,3.36,0,0,1,503,519c13-8.5,46.2-34,43.5-49.7-2.9-18.3-35.2-18.5-35.6-18.5a3.54,3.54,0,0,1-3.4-2.6,3.32,3.32,0,0,1,1.8-3.9,75.63,75.63,0,0,1,30.2-7.9c12.8,0,29,5.4,33.7,30.9C581.1,508.8,508.6,524.6,505.7,525.3Z" transform="translate(-1.9)" style="fill:#636363"/></g><g id="fb2aa61c-7ea8-4e34-9c53-b4adeca4fca9" data-name="XMLID 12"><path d="M490.2,513.9a3.3,3.3,0,0,1-2.6,2.7c-.6,0-55.3,13.4-97.8,13.4h0a111.47,111.47,0,0,1-11.8-.4c-25.6-1.7-56-8.4-57-21.3-.7-7.3,7.9-13.1,25.1-17.2a3.46,3.46,0,0,1,2,6.6,8.92,8.92,0,0,0-4.5,3.4,1.08,1.08,0,0,0,0,1.1c2.5,2.3,19.8,5.3,46.1,5.3a323.24,323.24,0,0,0,34.1-1.9,337.56,337.56,0,0,0,44.6-7.5,3.73,3.73,0,0,1,2.9.5l17.2,12.1A3,3,0,0,1,490.2,513.9Z" transform="translate(-1.9)" style="fill:#636363"/></g><g id="06debbdf-a988-4fc1-9ed2-ded5b7f8c515" data-name="XMLID 13"><path d="M483.5,559a3.48,3.48,0,0,1-2,2.9,183,183,0,0,1-72.4,13.9c-4,0-8,0-12-.4-33.5-1.9-53.4-7-60.7-15.6a13,13,0,0,1-3.3-10.5c1.4-12.9,21.9-13.8,24.2-13.9a3.54,3.54,0,0,1,3.4,2.4,3.33,3.33,0,0,1-1.4,3.9,1.62,1.62,0,0,0-.7,1.4c4.5,2.2,27.8,5.6,48.8,5.6a122.34,122.34,0,0,0,14.8-.8c21-2.8,34.9-5.7,35.2-5.7a3.12,3.12,0,0,1,2.5.5l21.8,12.9A3.82,3.82,0,0,1,483.5,559Z" transform="translate(-1.9)" style="fill:#636363"/></g><g id="89c60d76-b3b7-4f88-867c-8ed4bb3b4532" data-name="XMLID 14"><path d="M549.2,587.4c-10.1,10.8-62.4,28-159.9,28-99.3,0-120.7-11-128.1-19.5a14.23,14.23,0,0,1-3.9-11.3c1.8-13.9,33.6-17.8,61.1-19.4l3.9-.3a3.4,3.4,0,0,1,3.9,2.9,3.56,3.56,0,0,1-2.9,4c-16.7,2.9-32.4,7.9-34.6,11.2,5.8,5,50.3,13,110.6,13,10.1,0,19.7,0,28.9-.7,67.7-3.4,108.3-14.7,112.3-18.5,1.8-1.8,1.5-3.1.9-3.9a3.26,3.26,0,0,1,0-4.5,3.53,3.53,0,0,1,4.6-.6,14.85,14.85,0,0,1,6.7,9.8A11.78,11.78,0,0,1,549.2,587.4Z" transform="translate(-1.9)" style="fill:#636363"/></g><g id="86f08bcc-a654-4b41-bfbf-e10abf74aa3e" data-name="XMLID 15"><path d="M570.3,594c0,1.1-3.7,26.1-54.9,35.2a509.55,509.55,0,0,1-86.4,7,525.51,525.51,0,0,1-108.3-10.7,3.62,3.62,0,0,1-2.7-3.9,3.41,3.41,0,0,1,3.6-3c.4,0,43.8,1.8,89.6,1.8s77.2-1.7,94.1-5c44.1-8.9,58.7-24,58.8-24.2a3.6,3.6,0,0,1,6.2,2.8Z" transform="translate(-1.9)" style="fill:#636363"/></g></g></g></g><circle cx="592" cy="603.8" r="103.1" style="fill:#fff;stroke:#636363;stroke-miterlimit:10;stroke-width:10px"/><polygon points="650.2 594.3 650.2 613.4 601.5 613.4 601.5 662 582.4 662 582.4 613.4 533.8 613.4 533.8 594.3 582.4 594.3 582.4 545.6 601.5 545.6 601.5 594.3 650.2 594.3" style="fill:#549bd1"/></svg>