<svg id="b63145dc-e202-41fc-b478-95854795f53a" data-name="Layer 1" xmlns="http://www.w3.org/2000/svg" viewBox="0 0 930 930"><title>No site group</title><circle cx="465" cy="465" r="463" style="fill:#fff;stroke:#636363;stroke-miterlimit:10;stroke-width:4px"/><path d="M249.9,293a12,12,0,0,1,11.8-12H634.1a11.93,11.93,0,0,1,11.8,12V450" transform="translate(-1.9)" style="fill:none;stroke:#636363;stroke-miterlimit:10;stroke-width:6px"/><path d="M271.4,279.5a11.82,11.82,0,0,1,11.6-12H646.4c6.4,0,13.5,5.4,13.5,12v179" transform="translate(-1.9)" style="fill:none;stroke:#636363;stroke-miterlimit:10;stroke-width:6px"/><path d="M240.9,295h378a12,12,0,0,1,12,12V587a12,12,0,0,1-12,12h-378a12,12,0,0,1-12-12V307A12,12,0,0,1,240.9,295Z" transform="translate(-1.9)" style="fill:none;stroke:#636363;stroke-miterlimit:10;stroke-width:6px"/><line x1="227" y1="339" x2="629" y2="339" style="fill:none;stroke:#636363;stroke-miterlimit:10;stroke-width:6px"/><circle cx="258" cy="317" r="8" style="fill:#636363"/><circle cx="284" cy="317" r="8" style="fill:#636363"/><g style="isolation:isolate"><path d="M330.75,478.45l-13.11-49.39h6.7l7.51,32.38q1.21,5.09,2.09,10.11,1.89-7.92,2.22-9.13l9.4-33.35h7.88l7.08,25a132.59,132.59,0,0,1,3.84,17.49q.94-4.68,2.46-10.75l7.75-31.74h6.57l-13.54,49.39h-6.3L350.9,440.82q-1.31-4.72-1.55-5.79-.78,3.4-1.45,5.79l-10.48,37.63Z" transform="translate(-1.9)" style="fill:#549bd1"/><path d="M407.81,478.45,394.7,429.06h6.7l7.51,32.38q1.21,5.09,2.09,10.11,1.89-7.92,2.22-9.13l9.4-33.35h7.88l7.08,25a132.59,132.59,0,0,1,3.84,17.49q.94-4.68,2.46-10.75l7.75-31.74h6.57l-13.54,49.39h-6.3L428,440.82q-1.31-4.72-1.55-5.79-.78,3.4-1.45,5.79l-10.48,37.63Z" transform="translate(-1.9)" style="fill:#549bd1"/><path d="M484.87,478.45l-13.11-49.39h6.7L486,461.44q1.21,5.09,2.09,10.11,1.89-7.92,2.22-9.13l9.4-33.35h7.88l7.08,25a132.43,132.43,0,0,1,3.84,17.49q.94-4.68,2.46-10.75l7.75-31.74h6.57l-13.54,49.39h-6.3L505,440.82q-1.31-4.72-1.55-5.79-.77,3.4-1.45,5.79l-10.48,37.63Z" transform="translate(-1.9)" style="fill:#549bd1"/></g><circle cx="621" cy="543.8" r="103.1" style="fill:#fff;stroke:#636363;stroke-miterlimit:10;stroke-width:10px"/><polygon points="679.2 534.3 679.2 553.4 630.5 553.4 630.5 602 611.4 602 611.4 553.4 562.8 553.4 562.8 534.3 611.4 534.3 611.4 485.6 630.5 485.6 630.5 534.3 679.2 534.3" style="fill:#549bd1"/></svg>