<svg id="ca4adbaf-ca86-4cc0-9943-6247a7542be3" data-name="Layer 1" xmlns="http://www.w3.org/2000/svg" viewBox="0 0 930 930"><title>No Threat Prevention</title><circle cx="465" cy="465" r="463" style="fill:#fff;stroke:#636363;stroke-miterlimit:10;stroke-width:4px"/><g id="bfab9deb-201d-4f6d-8712-da0da49a2c2e" data-name="Canvas"><g id="825bdf92-8a41-4cdd-9caf-a8eb335ec3c2" data-name="Threat prevention"><g id="43c24620-ad1c-480f-9c27-3e0c453bb89f" data-name="Rectangle"><path d="M628.3,240.9l-83.8,83.8a148.45,148.45,0,0,0-42.3-38.6l17-26.8-26.6-17L473,273.6a113.91,113.91,0,0,0-32.8-4.5,118.15,118.15,0,0,0-34.9,5.3l-19.8-31.3-26.6,17,17.5,27.4a151.13,151.13,0,0,0-39.6,35.6l-30.6-17.6-15.4,27.1,29.3,17a211.59,211.59,0,0,0-23.9,91.8H275.1v31.2h22.2A207,207,0,0,0,319.9,549l-78,78.5,31.8,31.6,72.8-72.8L660.1,272.5ZM432.4,378.7H395.7V342.1h36.7Zm52.5,0H448.2V342.1h36.7Z" transform="translate(-1.9)" style="fill:#636363"/></g><g id="4e3e8946-543d-4f6f-8109-8e1d0196fbf7" data-name="Subtract"><path d="M583.2,472.6a207,207,0,0,1-25.3,80.7l32.4,18.6-15.7,27.2-34.5-19.7c-25.9,31.1-60.9,50.3-99.9,50.3a119.1,119.1,0,0,1-61-17L581,410.4a225,225,0,0,1,3.2,30.7h21.1v31.5Z" transform="translate(-1.9)" style="fill:#636363"/></g></g></g><circle cx="600" cy="593.8" r="103.1" style="fill:#fff;stroke:#636363;stroke-miterlimit:10;stroke-width:10px"/><polygon points="658.2 584.3 658.2 603.4 609.5 603.4 609.5 652 590.4 652 590.4 603.4 541.8 603.4 541.8 584.3 590.4 584.3 590.4 535.6 609.5 535.6 609.5 584.3 658.2 584.3" style="fill:#549bd1"/></svg>