<svg id="e6032973-7b16-42c1-889f-92714c061165" data-name="Layer 1" xmlns="http://www.w3.org/2000/svg" viewBox="0 0 930 930"><title>No User</title><circle cx="465" cy="465" r="463" style="fill:#fff;stroke:#636363;stroke-miterlimit:10;stroke-width:4px"/><g id="468c7481-249e-4cd5-9b11-72c982c7e891" data-name="Canvas"><g id="eba0943d-8d85-4151-8949-98ba370dd260" data-name="UserAdmin"><g id="76b6470b-5114-42cc-b34d-a50bb1e1f95a" data-name="Ellipse"><path d="M641.9,534.8c0,16.7,10.7,90.1,0,100.2-6.8,6.5-51.3,0-60.2,0H306.1c-9.5,0-54.3,5.9-60.2-1-10.8-12.5-2.1-92.4,6.3-103.2,16.7-21.6,65.8-36.3,90.9-45.8,9.5-3.6,51.1-10.9,55.1-18.1,8.6-15.5-18.5-42.9-24.8-55.1-30.7-58.8-33.3-146.6,43.9-169,81.9-23.8,135.4,58.7,112.3,130.8A254.82,254.82,0,0,1,504,428.9c-4.4,7.2-10.7,11.4-12.7,19.8-4.7,19.9-1.8,14.4,12,22.4C546.9,496.3,598.1,507.4,641.9,534.8Z" transform="translate(-1.9)" style="fill:#fff;stroke:#636363;stroke-miterlimit:10;stroke-width:10px"/></g></g></g><circle cx="600" cy="563.8" r="103.1" style="fill:#fff;stroke:#636363;stroke-miterlimit:10;stroke-width:10px"/><polygon points="658.2 554.3 658.2 573.4 609.5 573.4 609.5 622 590.4 622 590.4 573.4 541.8 573.4 541.8 554.3 590.4 554.3 590.4 505.6 609.5 505.6 609.5 554.3 658.2 554.3" style="fill:#549bd1"/></svg>