<svg id="da5dde11-0f7a-40eb-a183-4c1ef70d43db" data-name="Layer 1" xmlns="http://www.w3.org/2000/svg" viewBox="0 0 930 930"><title>No Web Isolate</title><circle cx="465" cy="465" r="463" style="fill:#fff;stroke:#636363;stroke-miterlimit:10;stroke-width:4px"/><g id="dca97bbe-2582-4673-8054-379a21f7f873" data-name="Canvas"><g id="0a87c8e2-2588-42c1-a181-4fd0b462bcee" data-name="web Isolation"><g id="894d2e41-52b5-4ada-a895-b3dd55fc5d94" data-name="Subtract"><path id="e9a34e0b-48ce-4484-8386-76676b6225fb" data-name="path0 fill" d="M463.8,241.5h-8.5v435h8.9" transform="translate(-1.9)" style="fill:#636363"/><path d="M452.3,241.5h-3.8A217.61,217.61,0,0,0,270.2,360.7c-2,3.9-3.9,7.9-5.6,11.9a215.71,215.71,0,0,0-17.9,74.5v23.8a215.72,215.72,0,0,0,17.9,74.5c1.7,4.1,3.6,8,5.6,11.9A217.48,217.48,0,0,0,448.6,675.9h6.7V241.5Zm-24.2,27.2a509.07,509.07,0,0,0-55.5,92H297.4A193.84,193.84,0,0,1,428.1,268.7ZM285.4,384.6h77.5a230.59,230.59,0,0,0-12.6,62.6H270.9A192.43,192.43,0,0,1,285.4,384.6ZM270.9,471h79.6a227.59,227.59,0,0,0,13.1,62.6H285.5A191.2,191.2,0,0,1,270.9,471Zm26.4,86.4H373a518.73,518.73,0,0,0,55.4,92.1A194.32,194.32,0,0,1,297.3,557.4Zm155,84.2a541,541,0,0,1-52.9-84.2h52.9Zm0-108.1H389a214,214,0,0,1-14.7-62.6h77.9v62.6Zm0-86.4H374.2a210.24,210.24,0,0,1,14.2-62.5h63.8v62.5Zm0-86.4H398.7a524.26,524.26,0,0,1,53.6-84.5Z" transform="translate(-1.9)" style="fill:#636363"/></g><g id="719e2150-fe0c-448a-98a7-8b12ed09a38b" data-name="Ellipse"><path d="M586.3,447.1h95a211.53,211.53,0,0,0-16.9-72.2H571.3A245.28,245.28,0,0,1,586.3,447.1Zm-15.6,96h93.7a209.24,209.24,0,0,0,16.9-72.2h-95A247.27,247.27,0,0,1,570.7,543.1Zm81.7-192A223.45,223.45,0,0,0,495.1,244.4a568.06,568.06,0,0,1,66.4,106.7ZM494.8,673.7A223.41,223.41,0,0,0,652.4,567H560.9A583.83,583.83,0,0,1,494.8,673.7Zm51-298.7H470.6v72.2h91.9A229.54,229.54,0,0,0,545.8,375ZM470.6,251.6v99.5h64.6A601.15,601.15,0,0,0,470.6,251.6Zm0,315.4v99.2a608.31,608.31,0,0,0,64-99.2Zm-5.8,109.5h2.3" transform="translate(-1.9)" style="fill:#636363"/></g><g id="bd2e3e01-7f00-4bbf-b7bb-958db9d8df34" data-name="Subtract-2"><path id="77035b6d-26b9-4629-87b4-acc80ae9c5f4" data-name="path2 fill" d="M464.8,676.5h2.3" transform="translate(-1.9)" style="fill:#636363"/><path d="M562.5,471a230.89,230.89,0,0,1-17.2,72.2H470.5V471Z" transform="translate(-1.9)" style="fill:#636363"/></g></g></g><circle cx="615" cy="586.3" r="103.1" style="fill:#fff;stroke:#636363;stroke-miterlimit:10;stroke-width:10px"/><polygon points="673.2 576.8 673.2 595.9 624.5 595.9 624.5 644.5 605.4 644.5 605.4 595.9 556.8 595.9 556.8 576.8 605.4 576.8 605.4 528.1 624.5 528.1 624.5 576.8 673.2 576.8" style="fill:#549bd1"/></svg>