<?xml version="1.0" encoding="utf-8"?>
<!-- Generator: Adobe Illustrator 21.0.2, SVG Export Plug-In . SVG Version: 6.00 Build 0)  -->
<svg version="1.1" id="Layer_1" xmlns="http://www.w3.org/2000/svg" xmlns:xlink="http://www.w3.org/1999/xlink" x="0px" y="0px"
	 viewBox="0 0 1000 1000" enable-background="new 0 0 1000 1000" xml:space="preserve">
<g>
	<g>
		<g>
			<path fill="#EDF0F2" d="M977,511.5c0,8.7-4.5,16.9-11.4,22.6c-6.9,5.9-17.1,9.5-27.7,9.5h-59.1c14.7,8.2,24.5,21.8,24.5,37.5
				c0,12.3-6.1,23.6-16.3,31.8S863.4,626,847.9,626h-40.4c6.5,7.4,10.2,16.4,10.2,26.2c0,12.3-6.1,23.6-16.3,31.8
				s-23.6,13.1-38.7,13.1H314c-19.6,0-36.7-8.5-46.5-21H101.1c-30.2,0-55-20.3-55-44.9v-22.3c0-24.6,24.9-44.9,55-44.9h67.7
				c-6.5-7.4-10.2-16.4-10.2-25.9c0-12.3,6.1-23.6,16.3-31.8c6.9-5.9,16.3-10,26.1-12.1h-63.6c-21.6,0-39.1-14.4-39.1-32.1
				c0-8.7,4.5-16.9,11.4-22.6c7.3-5.9,17.1-9.5,27.7-9.5h68.5c-4.1-5.1-6.5-11-6.5-17.4v-17.7c0-3.1,0.4-6.2,1.6-9.2h-23.6
				c-21.6,0-39.1-14.4-39.1-32.1v-17.7c0-17.7,17.5-32.1,39.1-32.1h559c21.6,0,39.1,14.4,39.1,32.1v17.7c0,3.1-0.4,6.2-1.6,9.2h23.6
				c21.6,0,39.1,14.4,39.1,32.1v17.7c0,17.7-17.5,32.1-39.1,32.1h-34.7c8.2,5.9,13.9,14.6,13.9,24.1c0,3.8-0.8,7.4-2.4,11h163.1
				C959.5,479.4,977,494.1,977,511.5z"/>
		</g>
	</g>
</g>
<g>
	<circle fill="#EFF4DF" cx="479" cy="509" r="263"/>
	<path fill="#CCCCCC" d="M479,773.5c-70.7,0-137.1-27.5-187-77.5c-50-50-77.5-116.4-77.5-187S242,371.9,292,322s116.4-77.5,187-77.5
		S616.1,272,666,322c50,50,77.5,116.4,77.5,187S716,646.1,666,696C616.1,746,549.7,773.5,479,773.5z M479,247.5
		c-69.8,0-135.5,27.2-184.9,76.6c-49.4,49.4-76.6,115.1-76.6,184.9c0,69.8,27.2,135.5,76.6,184.9c49.4,49.4,115.1,76.6,184.9,76.6
		c69.8,0,135.5-27.2,184.9-76.6s76.6-115.1,76.6-184.9c0-69.8-27.2-135.5-76.6-184.9C614.5,274.7,548.8,247.5,479,247.5z"/>
</g>
<g>
	<g>
		<g>
			<path fill="#FFFFFF" d="M307.4,615c-4,0-7.3-3.3-7.3-7.3V394.9c0-4,3.3-7.3,7.3-7.3h343.1c4,0,7.3,3.3,7.3,7.3v212.8
				c0,4-3.3,7.3-7.3,7.3H307.4z"/>
		</g>
		<g>
			<path fill="#BFBFBF" d="M650.5,387.8c3.9,0,7.1,3.2,7.1,7.1v212.8c0,3.9-3.2,7.1-7.1,7.1H307.4c-3.9,0-7.1-3.2-7.1-7.1V394.9
				c0-3.9,3.2-7.1,7.1-7.1H650.5 M650.5,387.4H307.4c-4.1,0-7.5,3.4-7.5,7.5v212.8c0,4.1,3.4,7.5,7.5,7.5h343.1
				c4.1,0,7.5-3.4,7.5-7.5V394.9C658,390.8,654.6,387.4,650.5,387.4L650.5,387.4z"/>
		</g>
	</g>
	<g>
		<g>
			<path fill="#383838" d="M658,405.1H299.9v-10.2c0-4.1,3.4-7.5,7.5-7.5h343.1c4.1,0,7.5,3.4,7.5,7.5V405.1L658,405.1z"/>
		</g>
	</g>
	<g>
		<g>
			<rect x="300.4" y="405.1" fill="#EDEDED" width="357.2" height="18.6"/>
		</g>
	</g>
	<g>
		<circle fill="#EF5C3A" cx="311.9" cy="396.3" r="2.7"/>
	</g>
	<g>
		<circle fill="#EDE03B" cx="323" cy="396.3" r="2.7"/>
	</g>
	<g>
		<circle fill="#91CE30" cx="334.9" cy="396.3" r="2.7"/>
	</g>
	<g>
		<g>
			<rect x="325.6" y="409.6" fill="#FFFFFF" width="256.1" height="10.7"/>
		</g>
	</g>
</g>
<g>
	<g>
		<g>
			<rect x="640.5" y="280.6" width="142.5" height="2.2"/>
		</g>
	</g>
	<g>
		<g>
			<rect x="640.5" y="230.3" width="51.1" height="2.2"/>
		</g>
	</g>
</g>
<g>
	<g>
		<g>
			<rect x="141" y="755.1" width="217" height="1.4"/>
		</g>
	</g>
	<g>
		<g>
			<rect x="198.6" y="786.9" width="125.7" height="1.4"/>
		</g>
	</g>
</g>
<g>
	<path fill="#AAAAAA" d="M446.1,487.7l0.8,1.3l2.2,4.1l0.7,1.3c2.1-0.3,4.3-0.3,6.4,0l0.6-1.3l2-4.1l0.7-1.4c0.5-1.1,1.9-1.6,3-1.1
		l3.6,1.5c1.2,0.5,1.7,1.7,1.3,2.9l-0.5,1.5l-1.3,4.4l-0.4,1.4c1.8,1.3,3.3,2.8,4.5,4.5l1.3-0.4l4.4-1.4l1.4-0.5
		c1.2-0.4,2.4,0.2,2.9,1.4l1.6,3.7c0.5,1.1,0,2.4-1.1,3l-1.3,0.7l-4.1,2.1l-1.3,0.7c0.3,2.1,0.4,4.3,0,6.4l1.3,0.6l4.1,2.1l1.4,0.7
		c1.1,0.5,1.6,1.9,1.1,3l-1.5,3.7c-0.4,1.1-1.7,1.7-2.9,1.3l-1.5-0.5l-4.4-1.4l-1.4-0.4c-1.2,1.7-2.7,3.3-4.5,4.5l0.4,1.3l1.5,4.4
		l0.5,1.5c0.4,1.1-0.2,2.4-1.3,2.9l-3.6,1.5c-1.2,0.5-2.4,0-3-1.1l-0.7-1.4l-2.2-4.1l-0.7-1.3c-2.1,0.3-4.3,0.3-6.4,0l-0.6,1.2
		L447,541l-0.7,1.4c-0.5,1.1-1.9,1.6-3,1.1l-2.6-1l-1.1-0.5c-1.2-0.5-1.7-1.7-1.3-2.9l0.4-1.4l1.4-4.4l0.4-1.4
		c-1.8-1.3-3.3-2.8-4.5-4.5l-1,0.3l-0.4,0.2l-4.4,1.4l-1.4,0.5c-1.2,0.4-2.4-0.2-2.9-1.4l-1.5-3.7c-0.5-1.1,0-2.4,1.1-3l1.3-0.7
		l4.1-2.1l1.2-0.6c-0.3-2.1-0.4-4.3,0-6.4l-1.3-0.6l-4.1-2.2l-1.4-0.7c-1.1-0.5-1.6-1.9-1.1-3l1.5-3.7c0.4-1.1,1.7-1.7,2.9-1.3
		l1.5,0.5l4.4,1.4l1.3,0.4c1.2-1.7,2.7-3.3,4.5-4.5l-0.4-1.3l-1.4-4.4L438,491c-0.4-1.1,0.2-2.4,1.3-2.9l3.7-1.5
		C444.3,486.2,445.5,486.6,446.1,487.7z M443.5,511.3c-2.1,5.2,0.4,11.2,5.6,13.4c5.1,2.2,11-0.3,13.2-5.4c0-0.1,0-0.1,0.1-0.2
		c2.1-5.2-0.4-11.2-5.6-13.4c-5.1-2.2-11,0.3-13.2,5.4C443.6,511.2,443.5,511.3,443.5,511.3z"/>
</g>
<g>
	<path fill="#E2B15A" d="M497.2,504.5l0.6,1l1.6,3.1l0.5,1c1.6-0.2,3.2-0.2,4.8,0l0.5-0.9l1.6-3.2l0.5-1c0.4-0.8,1.4-1.2,2.3-0.8
		l2.7,1.2c0.9,0.4,1.3,1.3,1.1,2.2l-0.3,1.1l-1,3.4l-0.3,1c1.3,1,2.5,2.2,3.4,3.4l1-0.3l3.3-1.1l1.1-0.3c0.9-0.3,1.8,0.1,2.2,1
		l1.2,2.8c0.4,0.8,0,1.9-0.8,2.3l-1,0.5l-3.1,1.6L518,523c0.3,1.6,0.3,3.2,0,4.9l1,0.5l3.1,1.6l1,0.5c0.8,0.4,1.2,1.4,0.8,2.3
		l-1.1,2.8c-0.3,0.8-1.3,1.3-2.2,1l-1.1-0.3l-3.3-1.1l-1-0.3c-0.9,1.3-2.1,2.5-3.4,3.4l0.4,1.1l1.1,3.3l0.3,1.1
		c0.3,0.9-0.1,1.8-1,2.2l-2.7,1.1c-0.9,0.4-1.8,0-2.3-0.8l-0.6-1l-1.6-3.1l-0.5-1c-1.6,0.2-3.2,0.2-4.8,0l-0.5,0.9l-1.6,3.1l-0.5,1
		c-0.4,0.8-1.4,1.2-2.3,0.8l-1.9-0.8l-0.8-0.3c-0.9-0.4-1.3-1.3-1.1-2.2l0.3-1.1l1-3.4l0.3-1c-1.3-1-2.5-2.1-3.4-3.4l-0.7,0.2
		l-0.3,0.1l-3.3,1.1l-1.1,0.3c-0.9,0.3-1.8-0.1-2.2-1l-1.2-2.8c-0.4-0.9,0-1.8,0.8-2.3l1.1-0.5l3.1-1.6l0.9-0.5
		c-0.3-1.6-0.3-3.2,0-4.9l-1-0.5l-3.1-1.6l-1-0.5c-0.8-0.4-1.2-1.4-0.8-2.3l1.1-2.8c0.3-0.8,1.3-1.3,2.2-1l1.1,0.4l3.3,1.1l1,0.3
		c0.9-1.3,2.1-2.5,3.4-3.4l-0.3-1l-1.1-3.4l-0.3-1.1c-0.3-0.9,0.1-1.8,1-2.2l2.8-1.2C495.8,503.3,496.7,503.7,497.2,504.5z
		 M495.2,522.4c-1.6,4,0.3,8.5,4.2,10.2c3.9,1.6,8.4-0.2,10-4.1c0-0.1,0-0.1,0-0.1c1.6-4-0.3-8.5-4.2-10.2
		C501.3,516.6,496.8,518.4,495.2,522.4C495.2,522.3,495.2,522.4,495.2,522.4z"/>
</g>
<g>
	<path fill="#6DBCE8" d="M487.2,470.8l0.4,0.7l1.1,2.1l0.3,0.7c1.1-0.2,2.2-0.2,3.3,0l0.3-0.6l1.1-2.2l0.4-0.7
		c0.3-0.6,1-0.8,1.6-0.6l1.9,0.8c0.6,0.3,0.9,0.9,0.7,1.5l-0.2,0.7l-0.7,2.3l-0.2,0.7c0.9,0.7,1.7,1.5,2.3,2.4l0.7-0.2l2.3-0.7
		l0.7-0.2c0.6-0.2,1.3,0.1,1.5,0.7l0.8,1.9c0.3,0.6,0,1.3-0.5,1.6l-0.7,0.4l-2.1,1.1l-0.6,0.3c0.2,1.1,0.2,2.2,0,3.3l0.7,0.4
		l2.1,1.1l0.7,0.4c0.6,0.3,0.8,1,0.6,1.6l-0.8,1.9c-0.2,0.6-0.9,0.9-1.5,0.7l-0.8-0.2l-2.3-0.7l-0.7-0.2c-0.6,0.9-1.4,1.7-2.3,2.3
		l0.2,0.7l0.7,2.3l0.2,0.8c0.2,0.6-0.1,1.3-0.7,1.5l-1.9,0.8c-0.6,0.2-1.3,0-1.5-0.6l-0.4-0.7l-1.1-2.1l-0.3-0.7
		c-1.1,0.2-2.2,0.2-3.3,0l-0.3,0.6l-1.1,2.1l-0.4,0.7c-0.3,0.6-1,0.8-1.6,0.6l-1.3-0.5l-0.6-0.2c-0.6-0.3-0.9-0.9-0.7-1.5l0.2-0.7
		l0.7-2.3l0.2-0.7c-0.9-0.7-1.7-1.4-2.3-2.4l-0.5,0.2l-0.2,0.1l-2.3,0.7l-0.7,0.2c-0.6,0.2-1.3-0.1-1.5-0.7l-0.8-1.9
		c-0.2-0.6,0-1.3,0.6-1.6l0.7-0.3l2.1-1.1l0.6-0.3c-0.2-1.1-0.2-2.2,0-3.3l-0.7-0.4l-2.1-1.1l-0.7-0.4c-0.6-0.3-0.8-1-0.6-1.6
		l0.8-1.9c0.2-0.6,0.9-0.9,1.5-0.7l0.8,0.2l2.3,0.7l0.7,0.2c0.6-0.9,1.4-1.7,2.3-2.3l-0.2-0.7l-0.7-2.3l-0.2-0.8
		c-0.2-0.6,0.1-1.2,0.7-1.5l1.9-0.8C486.2,470,486.9,470.3,487.2,470.8z M485.8,483c-1.1,2.7,0.2,5.8,2.9,6.9
		c2.7,1.1,5.7-0.1,6.8-2.8c0,0,0,0,0-0.1c1.1-2.7-0.2-5.8-2.9-6.9C490,479,487,480.3,485.8,483L485.8,483z"/>
</g>
</svg>
