<?xml version="1.0" encoding="utf-8"?>
<!-- Generator: Adobe Illustrator 21.0.2, SVG Export Plug-In . SVG Version: 6.00 Build 0)  -->
<svg version="1.1" id="Layer_1" xmlns="http://www.w3.org/2000/svg" xmlns:xlink="http://www.w3.org/1999/xlink" x="0px" y="0px"
	 viewBox="0 0 1000 1000" enable-background="new 0 0 1000 1000" xml:space="preserve">
<g>
	<circle fill="#EDF4F4" cx="444.7" cy="493" r="387.7"/>
</g>
<g>
	<ellipse fill="#E4EAED" cx="443.8" cy="634" rx="216.2" ry="10.5"/>
</g>
<g>
	<g>
		<g>
			<path fill="#CAD5DB" d="M460.9,261.8c0,1.7-1.6,3.3-4,4.4s-6,1.8-9.8,1.8h-20.8c5.2,1.6,8.6,4.2,8.6,7.3c0,2.4-2.2,4.6-5.7,6.2
				s-8.3,2.5-13.8,2.5h-14.2c2.3,1.4,3.6,3.2,3.6,5.1c0,2.4-2.2,4.6-5.7,6.2s-8.3,2.5-13.6,2.5h-158c-6.9,0-12.9-1.6-16.4-4.1h-58.6
				c-10.6,0-19.4-3.9-19.4-8.7v-4.3c0-4.8,8.8-8.7,19.4-8.7h23.8c-2.3-1.4-3.6-3.2-3.6-5c0-2.4,2.2-4.6,5.7-6.2
				c2.4-1.1,5.7-1.9,9.2-2.3h-22.4c-7.6,0-13.8-2.8-13.8-6.2c0-1.7,1.6-3.3,4-4.4c2.6-1.1,6-1.8,9.8-1.8h24.1
				c-1.4-1-2.3-2.1-2.3-3.4v-3.4c0-0.6,0.1-1.2,0.6-1.8h-8.3c-7.6,0-13.8-2.8-13.8-6.2v-3.4c0-3.4,6.2-6.2,13.8-6.2h196.9
				c7.6,0,13.8,2.8,13.8,6.2v3.4c0,0.6-0.1,1.2-0.6,1.8h8.3c7.6,0,13.8,2.8,13.8,6.2v3.4c0,3.4-6.2,6.2-13.8,6.2h-12.2
				c2.9,1.1,4.9,2.8,4.9,4.7c0,0.7-0.3,1.4-0.9,2.1H447C454.8,255.6,460.9,258.4,460.9,261.8z"/>
		</g>
	</g>
</g>
<g>
	<g>
		<g>
			<path fill="#CAD5DB" d="M982,163.9c0,1.9-1.8,3.7-4.5,4.9c-2.8,1.3-6.8,2.1-11,2.1H943c5.8,1.8,9.7,4.8,9.7,8.2
				c0,2.7-2.4,5.2-6.5,7s-9.4,2.9-15.6,2.9h-16c2.6,1.6,4,3.6,4,5.7c0,2.7-2.4,5.2-6.5,7c-4,1.8-9.4,2.9-15.4,2.9H718.6
				c-7.8,0-14.6-1.9-18.5-4.6H634c-12,0-21.9-4.4-21.9-9.8v-4.9c0-5.4,9.9-9.8,21.9-9.8h26.9c-2.6-1.6-4-3.6-4-5.7
				c0-2.7,2.4-5.2,6.5-7c2.8-1.3,6.5-2.2,10.4-2.6h-25.3c-8.6,0-15.6-3.1-15.6-7c0-1.9,1.8-3.7,4.5-4.9c2.9-1.3,6.8-2.1,11-2.1h27.2
				c-1.6-1.1-2.6-2.4-2.6-3.8v-3.9c0-0.7,0.2-1.3,0.6-2h-9.4c-8.6,0-15.6-3.1-15.6-7v-3.9c0-3.9,7-7,15.6-7h222.1
				c8.6,0,15.6,3.1,15.6,7v3.9c0,0.7-0.2,1.3-0.6,2h9.4c8.6,0,15.6,3.1,15.6,7v3.9c0,3.9-7,7-15.6,7H897c3.2,1.3,5.5,3.2,5.5,5.3
				c0,0.8-0.3,1.6-1,2.4h64.8C975,156.9,982,160.1,982,163.9z"/>
		</g>
	</g>
</g>
<g>
	<g>
		<g>
			<path fill="#CAD5DB" d="M17.4,786.8c0,1.5,1.3,2.8,3.3,3.8s5,1.6,8.1,1.6h17.3c-4.3,1.4-7.1,3.6-7.1,6.3c0,2.1,1.8,3.9,4.8,5.3
				c3,1.4,6.9,2.2,11.4,2.2H67c-1.9,1.2-3,2.7-3,4.4c0,2.1,1.8,3.9,4.8,5.3c3,1.4,6.9,2.2,11.3,2.2h131.1c5.7,0,10.7-1.4,13.6-3.5
				h48.6c8.8,0,16.1-3.4,16.1-7.5v-3.7c0-4.1-7.3-7.5-16.1-7.5h-19.8c1.9-1.2,3-2.7,3-4.3c0-2.1-1.8-3.9-4.8-5.3c-2-1-4.8-1.7-7.6-2
				h18.6c6.3,0,11.4-2.4,11.4-5.4c0-1.5-1.3-2.8-3.3-3.8c-2.1-1-5-1.6-8.1-1.6h-20c1.2-0.9,1.9-1.8,1.9-2.9v-3c0-0.5-0.1-1-0.5-1.5
				h6.9c6.3,0,11.4-2.4,11.4-5.4v-3c0-3-5.1-5.4-11.4-5.4H87.7c-6.3,0-11.4,2.4-11.4,5.4v3c0,0.5,0.1,1,0.5,1.5h-6.9
				c-6.3,0-11.4,2.4-11.4,5.4v3c0,3,5.1,5.4,11.4,5.4H80c-2.4,1-4.1,2.4-4.1,4c0,0.6,0.2,1.2,0.7,1.8H29
				C22.6,781.5,17.4,783.9,17.4,786.8z"/>
		</g>
	</g>
</g>
<g>
	<g>
		<g>
			<path fill="#CAD5DB" d="M609.9,717.3c0,1.5,1.3,2.8,3.3,3.8s5,1.6,8.1,1.6h17.3c-4.3,1.4-7.1,3.6-7.1,6.3c0,2.1,1.8,3.9,4.8,5.3
				c3,1.4,6.9,2.2,11.4,2.2h11.8c-1.9,1.2-3,2.7-3,4.4c0,2.1,1.8,3.9,4.8,5.3c3,1.4,6.9,2.2,11.3,2.2h131.1c5.7,0,10.7-1.4,13.6-3.5
				h48.6c8.8,0,16.1-3.4,16.1-7.5v-3.7c0-4.1-7.3-7.5-16.1-7.5h-19.8c1.9-1.2,3-2.7,3-4.3c0-2.1-1.8-3.9-4.8-5.3c-2-1-4.8-1.7-7.6-2
				h18.6c6.3,0,11.4-2.4,11.4-5.4c0-1.5-1.3-2.8-3.3-3.8c-2.1-1-5-1.6-8.1-1.6h-20c1.2-0.9,1.9-1.8,1.9-2.9v-3c0-0.5-0.1-1-0.5-1.5
				h6.9c6.3,0,11.4-2.4,11.4-5.4v-3c0-3-5.1-5.4-11.4-5.4H680.2c-6.3,0-11.4,2.4-11.4,5.4v3c0,0.5,0.1,1,0.5,1.5h-6.9
				c-6.3,0-11.4,2.4-11.4,5.4v3c0,3,5.1,5.4,11.4,5.4h10.1c-2.4,1-4.1,2.4-4.1,4c0,0.6,0.2,1.2,0.7,1.8h-47.7
				C615.1,711.9,609.9,714.4,609.9,717.3z"/>
		</g>
	</g>
</g>
<g>
	<g>
		<g>
			<path fill="#FFFFFF" d="M250.5,609.5c-4.5,0-8.2-3.7-8.2-8.2v-240c0-4.5,3.7-8.2,8.2-8.2h386.9c4.5,0,8.2,3.7,8.2,8.2v240
				c0,4.5-3.7,8.2-8.2,8.2H250.5z"/>
		</g>
		<g>
			<path fill="#BFBFBF" d="M637.4,353.3c4.4,0,8,3.6,8,8v240c0,4.4-3.6,8-8,8H250.5c-4.4,0-8-3.6-8-8v-240c0-4.4,3.6-8,8-8H637.4
				 M637.4,352.9H250.5c-4.7,0-8.4,3.8-8.4,8.4v240c0,4.7,3.8,8.4,8.4,8.4h386.9c4.7,0,8.4-3.8,8.4-8.4v-240
				C645.8,356.7,642,352.9,637.4,352.9L637.4,352.9z"/>
		</g>
	</g>
	<g>
		<g>
			<path fill="#383838" d="M645.8,372.9H242.1v-11.6c0-4.7,3.8-8.4,8.4-8.4h386.8c4.7,0,8.4,3.8,8.4,8.4L645.8,372.9L645.8,372.9z"
				/>
		</g>
	</g>
	<g>
		<g>
			<rect x="242.6" y="372.9" fill="#EDEDED" width="402.7" height="21"/>
		</g>
	</g>
	<g>
		<circle fill="#EF5C3A" cx="255.6" cy="362.9" r="3"/>
	</g>
	<g>
		<circle fill="#EDE03B" cx="268.1" cy="362.9" r="3"/>
	</g>
	<g>
		<circle fill="#91CE30" cx="281.6" cy="362.9" r="3"/>
	</g>
	<g>
		<g>
			<rect x="271.1" y="377.9" fill="#FFFFFF" width="288.8" height="12"/>
		</g>
	</g>
	<g>
		<g>
			<path fill="#44A7D8" d="M397.8,516.2c0.3,1,0.7,1.9,1.1,2.8l1.2,2.4c0.2,0.3,0.4,0.7,0.5,1.1c0.1,0.2,0.4,0.7,0.5,0.9
				c0.7,1.1,1.3,2.1,2.1,3.2c0.2,0.1,0.5,0.5,0.8,0.8s0.5,0.7,0.8,1.1c9.2,11.6,23.1,18.5,37.9,18.9h2.5
				c19.8-0.5,37.4-12.7,44.9-31.1L397.8,516.2L397.8,516.2z M404.9,519.2h17.5c3.2,8.2,7.9,15.8,14,22.3
				C423.1,539.3,411.5,531.1,404.9,519.2z M441.2,538.6c-5.4-5.7-9.7-12.3-12.9-19.5h12.9V538.6z M446.5,519.2H459
				c-3.1,6.9-7.3,13.3-12.5,18.9V519.2L446.5,519.2z M450.5,541.7c3-3.2,5.8-6.8,8.2-10.5c2.4-3.8,4.5-7.8,6.2-12h17.7
				C475.9,531.3,464.1,539.5,450.5,541.7z"/>
		</g>
		<g>
			<path fill="#44A7D8" d="M449.3,448c-1.8-0.2-3.6-0.3-5.4-0.2c-20.3,0-38.6,12.3-46.2,31.1h92.4C483.2,461.8,467.6,450,449.3,448z
				 M405.2,476.2c6.7-11.8,18.5-19.9,31.9-22.1c-5.7,6.6-10.4,14-14,22.1H405.2z M441.2,476.2H429c3.2-6.8,7.3-13,12.2-18.7V476.2z
				 M446.5,476.2v-18.6c4.9,5.6,9,11.8,12.1,18.6H446.5z M450.5,454.1c13.4,2.1,25.2,10.2,31.9,22.1h-18.1
				C460.9,468.2,456.2,460.8,450.5,454.1z"/>
		</g>
		<g>
			<polygon fill="#44A7D8" points="428.7,488.3 423.9,508.3 419.6,508.3 415.7,493.4 411.7,508.3 407.3,508.3 402.6,488.3 
				406.7,488.3 409.7,502 413.3,488.3 418.2,488.3 421.6,502.3 424.7,488.3 			"/>
		</g>
		<g>
			<polygon fill="#44A7D8" points="457.8,488.3 452.9,508.3 448.6,508.3 444.6,493.4 440.7,508.3 436.3,508.3 431.5,488.3 
				435.6,488.3 438.7,502 442.3,488.3 447.1,488.3 450.6,502.3 453.7,488.3 			"/>
		</g>
		<g>
			<polygon fill="#44A7D8" points="486.7,488.3 481.9,508.3 477.6,508.3 473.6,493.4 469.6,508.3 465.3,508.3 460.5,488.3 
				464.7,488.3 467.6,502 471.3,488.3 476.1,488.3 479.6,502.3 482.6,488.3 			"/>
		</g>
	</g>
</g>
<g>
	<path fill="#A0A0A0" d="M236.8,644.8"/>
</g>
<g>
	<g>
		<defs>
			<path id="SVGID_1_" d="M640.3,141.9L560,344.4h47.6l324.8-130.7v-85.5H657.8C650.4,128.2,643.6,133.5,640.3,141.9z"/>
		</defs>
		<clipPath id="SVGID_2_">
			<use xlink:href="#SVGID_1_"  overflow="visible"/>
		</clipPath>
		<path clip-path="url(#SVGID_2_)" fill="#FFFFFF" d="M560,344.4L560,344.4z"/>
		<polygon clip-path="url(#SVGID_2_)" fill="#FFFFFF" points="560,335.5 607.9,128.2 930.8,128.2 932.4,128.6 932.4,222.6 
			904.3,344.4 560,344.4 		"/>
		<polygon clip-path="url(#SVGID_2_)" fill="#FFFFFF" points="932.4,128.6 930.8,128.2 932.4,128.2 		"/>
	</g>
</g>
<g>
	<g>
		<defs>
			<path id="SVGID_3_" d="M397.7,279.6L360,353h-37.5l-145-69.7c-3.7-1.8-6.1-5.5-6.1-9.6v-29.2c0-6.4,5.2-11.6,11.6-11.6h204.8
				C405.7,232.9,395.1,274.9,397.7,279.6z"/>
		</defs>
		<clipPath id="SVGID_4_">
			<use xlink:href="#SVGID_3_"  overflow="visible"/>
		</clipPath>
		<polygon clip-path="url(#SVGID_4_)" fill="#FFFFFF" points="360,353 405.7,333.3 405.7,353 		"/>
		<polygon clip-path="url(#SVGID_4_)" fill="#FFFFFF" points="179.6,353 171.4,286.7 171.4,237.1 181.1,232.9 405.7,232.9 
			405.7,333.3 360,353 		"/>
		<polygon clip-path="url(#SVGID_4_)" fill="#FFFFFF" points="181.1,232.9 171.4,237.1 171.4,232.9 		"/>
	</g>
</g>
<g>
	<g>
		<defs>
			<path id="SVGID_5_" d="M259.1,798l56.1-187.8h-33.3L55.1,731.4v79.3h191.8C252.1,810.8,256.8,805.8,259.1,798z"/>
		</defs>
		<clipPath id="SVGID_6_">
			<use xlink:href="#SVGID_5_"  overflow="visible"/>
		</clipPath>
		<path clip-path="url(#SVGID_6_)" fill="#FFFFFF" d="M315.2,610.2L315.2,610.2L315.2,610.2z"/>
		<polygon clip-path="url(#SVGID_6_)" fill="#FFFFFF" points="315.2,619.1 270.9,810.8 56.9,810.8 55.1,810.4 55.1,722.5 81,610.2 
			315.2,610.2 		"/>
		<polygon clip-path="url(#SVGID_6_)" fill="#FFFFFF" points="55.1,810.4 56.9,810.8 55.1,810.8 		"/>
	</g>
</g>
<g>
	<g>
		<defs>
			<path id="SVGID_7_" d="M632.3,735.5l-60-126.3H608l242.6,81.5V744H645.4C639.9,744.1,634.8,740.8,632.3,735.5z"/>
		</defs>
		<clipPath id="SVGID_8_">
			<use xlink:href="#SVGID_7_"  overflow="visible"/>
		</clipPath>
		<path clip-path="url(#SVGID_8_)" fill="#FFFFFF" d="M572.3,609.2L572.3,609.2L572.3,609.2z"/>
		<polygon clip-path="url(#SVGID_8_)" fill="#FFFFFF" points="831.7,609.2 850.6,681.8 850.6,743.8 849,744.1 605,744.1 
			572.3,618.1 		"/>
		<polygon clip-path="url(#SVGID_8_)" fill="#FFFFFF" points="849,744.1 850.6,743.8 850.6,744.1 		"/>
	</g>
</g>
<g>
	<g>
		<path fill="#FFFFFF" d="M920.5,194.8H657.3c-6.6,0-12-5.4-12-12v-42.7c0-6.6,5.4-12,12-12h263.2c6.6,0,12,5.4,12,12v42.7
			C932.5,189.4,927.1,194.8,920.5,194.8z"/>
		<path fill="#B3B3B3" d="M920.5,195.3H657.3c-6.9,0-12.5-5.6-12.5-12.5v-42.7c0-6.9,5.6-12.5,12.5-12.5h263.2
			c6.9,0,12.5,5.6,12.5,12.5v42.7C933,189.7,927.4,195.3,920.5,195.3z M657.3,128.6c-6.3,0-11.5,5.2-11.5,11.5v42.7
			c0,6.3,5.2,11.5,11.5,11.5h263.2c6.3,0,11.5-5.2,11.5-11.5v-42.7c0-6.3-5.2-11.5-11.5-11.5H657.3z"/>
	</g>
	<g enable-background="new    ">
		<path d="M757.7,155.4c0.8-0.8,1.7-1.4,2.6-1.9c1-0.5,2.1-0.7,3.3-0.7c1.1,0,2,0.2,2.8,0.5s1.5,0.9,2,1.5c0.6,0.6,1,1.4,1.2,2.3
			s0.4,1.9,0.4,3v12.4h-4.1v-12.4c0-1.3-0.3-2.3-0.9-3c-0.6-0.7-1.5-1.1-2.8-1.1c-0.9,0-1.8,0.2-2.5,0.6s-1.5,1-2.2,1.7v14.2h-4.1
			v-28.2h4.1V155.4z"/>
		<path d="M780.9,172.9c-1.6,0-2.9-0.5-3.7-1.4c-0.9-0.9-1.3-2.2-1.3-3.8v-11.3h-2.1c-0.2,0-0.4-0.1-0.6-0.2
			c-0.2-0.1-0.2-0.4-0.2-0.7v-1.7l3.1-0.5l0.9-5.6c0.1-0.2,0.2-0.4,0.3-0.5c0.2-0.1,0.4-0.2,0.6-0.2h2.1v6.4h8.6l0.9-5.7
			c0-0.2,0.2-0.4,0.3-0.5c0.2-0.1,0.4-0.2,0.6-0.2h2.1v6.4h5.4v3h-5.4v11c0,0.7,0.2,1.2,0.5,1.6c0.3,0.4,0.8,0.6,1.4,0.6
			c0.3,0,0.6,0,0.8-0.1c0.2-0.1,0.4-0.2,0.6-0.3c0.2-0.1,0.3-0.2,0.4-0.3c0.1-0.1,0.2-0.1,0.3-0.1c0.1,0,0.2,0,0.3,0.1
			c0.1,0.1,0.2,0.2,0.2,0.3l1.2,2c-0.6,0.6-1.4,1-2.3,1.3c-0.9,0.3-1.7,0.4-2.7,0.4c-1.6,0-2.9-0.5-3.7-1.4
			c-0.9-0.9-1.3-2.2-1.3-3.8v-11.3H780v11c0,0.7,0.2,1.2,0.5,1.6c0.3,0.4,0.8,0.6,1.4,0.6c0.3,0,0.6,0,0.8-0.1
			c0.2-0.1,0.4-0.2,0.6-0.3c0.2-0.1,0.3-0.2,0.4-0.3c0.1-0.1,0.2-0.1,0.4-0.1c0.2,0,0.4,0.1,0.6,0.4l1.2,2c-0.6,0.6-1.4,1-2.2,1.3
			C782.7,172.7,781.8,172.9,780.9,172.9z"/>
		<path d="M805,155.9c0.8-1,1.7-1.7,2.8-2.3c1-0.6,2.2-0.9,3.6-0.9c1.1,0,2.1,0.2,3,0.7c0.9,0.4,1.7,1.1,2.3,1.9
			c0.6,0.8,1.1,1.9,1.5,3.1c0.3,1.2,0.5,2.7,0.5,4.3c0,1.4-0.2,2.8-0.6,4c-0.4,1.2-0.9,2.3-1.7,3.2c-0.7,0.9-1.6,1.6-2.6,2.1
			c-1,0.5-2.2,0.8-3.5,0.8c-1.1,0-2.1-0.2-2.9-0.6s-1.5-0.9-2.2-1.5v8.2h-4.1v-25.9h2.5c0.6,0,0.9,0.3,1.1,0.8L805,155.9z
			 M805.2,167.7c0.6,0.7,1.2,1.3,1.9,1.6c0.7,0.3,1.4,0.4,2.3,0.4c1.6,0,2.8-0.6,3.7-1.8c0.9-1.2,1.3-2.9,1.3-5.2
			c0-1.2-0.1-2.2-0.3-3.1s-0.5-1.5-0.9-2.1s-0.8-0.9-1.4-1.2c-0.5-0.2-1.2-0.4-1.8-0.4c-1,0-1.9,0.2-2.7,0.7
			c-0.8,0.5-1.5,1.1-2.1,1.9V167.7z"/>
		<path d="M834.2,156.6c-0.1,0.2-0.2,0.3-0.3,0.4s-0.3,0.1-0.5,0.1c-0.2,0-0.5-0.1-0.7-0.2c-0.3-0.1-0.6-0.3-0.9-0.4
			s-0.7-0.3-1.2-0.4c-0.5-0.1-1-0.2-1.6-0.2c-0.5,0-1,0.1-1.4,0.2c-0.4,0.1-0.8,0.3-1,0.5c-0.3,0.2-0.5,0.5-0.7,0.8
			c-0.2,0.3-0.2,0.6-0.2,1c0,0.5,0.1,0.8,0.4,1.1c0.3,0.3,0.6,0.6,1.1,0.8s1,0.4,1.6,0.6c0.6,0.2,1.2,0.4,1.8,0.6
			c0.6,0.2,1.2,0.4,1.8,0.7c0.6,0.3,1.1,0.6,1.6,1c0.5,0.4,0.8,0.9,1.1,1.4s0.4,1.2,0.4,2c0,0.9-0.2,1.8-0.5,2.5
			c-0.3,0.8-0.8,1.4-1.4,2s-1.4,1-2.4,1.3s-2,0.5-3.2,0.5c-0.7,0-1.3-0.1-2-0.2c-0.6-0.1-1.2-0.3-1.8-0.5c-0.6-0.2-1.1-0.5-1.6-0.8
			s-0.9-0.6-1.3-1l1-1.6c0.1-0.2,0.3-0.3,0.4-0.4c0.2-0.1,0.4-0.2,0.6-0.2c0.3,0,0.5,0.1,0.8,0.3c0.3,0.2,0.6,0.4,0.9,0.6
			c0.3,0.2,0.8,0.4,1.3,0.6c0.5,0.2,1.1,0.3,1.8,0.3c0.6,0,1.1-0.1,1.6-0.2c0.4-0.1,0.8-0.3,1.1-0.6c0.3-0.3,0.5-0.5,0.6-0.9
			c0.1-0.3,0.2-0.7,0.2-1c0-0.5-0.1-0.9-0.4-1.2s-0.7-0.6-1.1-0.8c-0.5-0.2-1-0.4-1.6-0.6c-0.6-0.2-1.2-0.4-1.8-0.6
			c-0.6-0.2-1.2-0.4-1.8-0.7c-0.6-0.3-1.1-0.6-1.6-1s-0.8-0.9-1.1-1.5c-0.3-0.6-0.4-1.3-0.4-2.2c0-0.8,0.2-1.5,0.5-2.2
			c0.3-0.7,0.8-1.3,1.4-1.8s1.3-1,2.2-1.3c0.9-0.3,1.9-0.5,3.1-0.5c1.3,0,2.5,0.2,3.6,0.6c1.1,0.4,2,1,2.7,1.7L834.2,156.6z"/>
		<path d="M838.9,156.3c0-0.4,0.1-0.7,0.2-1c0.1-0.3,0.3-0.6,0.6-0.8c0.2-0.2,0.5-0.4,0.8-0.6c0.3-0.1,0.7-0.2,1-0.2
			c0.4,0,0.7,0.1,1,0.2c0.3,0.1,0.6,0.3,0.8,0.6c0.2,0.2,0.4,0.5,0.6,0.8c0.1,0.3,0.2,0.7,0.2,1c0,0.4-0.1,0.7-0.2,1
			s-0.3,0.6-0.6,0.8s-0.5,0.4-0.8,0.6c-0.3,0.1-0.7,0.2-1,0.2c-0.4,0-0.7-0.1-1-0.2c-0.3-0.1-0.6-0.3-0.8-0.6
			c-0.2-0.2-0.4-0.5-0.6-0.8C839,157,838.9,156.7,838.9,156.3z M838.9,170.2c0-0.4,0.1-0.7,0.2-1c0.1-0.3,0.3-0.6,0.6-0.8
			c0.2-0.2,0.5-0.4,0.8-0.6c0.3-0.1,0.7-0.2,1-0.2c0.4,0,0.7,0.1,1,0.2c0.3,0.1,0.6,0.3,0.8,0.6c0.2,0.2,0.4,0.5,0.6,0.8
			c0.1,0.3,0.2,0.7,0.2,1c0,0.4-0.1,0.7-0.2,1s-0.3,0.6-0.6,0.8s-0.5,0.4-0.8,0.6c-0.3,0.1-0.7,0.2-1,0.2c-0.4,0-0.7-0.1-1-0.2
			c-0.3-0.1-0.6-0.3-0.8-0.6c-0.2-0.2-0.4-0.5-0.6-0.8C839,170.9,838.9,170.6,838.9,170.2z"/>
		<path d="M851.5,172.8c-0.2,0.5-0.5,0.9-0.9,1.2c-0.4,0.3-0.8,0.4-1.3,0.4h-1.7l11.3-28.5c0.2-0.5,0.5-0.8,0.8-1.1
			c0.4-0.3,0.8-0.4,1.3-0.4h1.7L851.5,172.8z"/>
		<path d="M860.3,172.8c-0.2,0.5-0.5,0.9-0.9,1.2c-0.4,0.3-0.8,0.4-1.3,0.4h-1.7l11.3-28.5c0.2-0.5,0.5-0.8,0.8-1.1
			c0.4-0.3,0.8-0.4,1.3-0.4h1.7L860.3,172.8z"/>
		<path d="M874.6,170.2c0-0.4,0.1-0.7,0.2-1c0.1-0.3,0.3-0.6,0.6-0.8c0.2-0.2,0.5-0.4,0.8-0.6c0.3-0.1,0.7-0.2,1-0.2s0.7,0.1,1,0.2
			c0.3,0.1,0.6,0.3,0.8,0.6c0.2,0.2,0.4,0.5,0.6,0.8c0.1,0.3,0.2,0.7,0.2,1c0,0.4-0.1,0.7-0.2,1s-0.3,0.6-0.6,0.8s-0.5,0.4-0.8,0.6
			c-0.3,0.1-0.7,0.2-1,0.2s-0.7-0.1-1-0.2c-0.3-0.1-0.6-0.3-0.8-0.6c-0.2-0.2-0.4-0.5-0.6-0.8S874.6,170.6,874.6,170.2z"/>
		<path d="M883.6,170.2c0-0.4,0.1-0.7,0.2-1c0.1-0.3,0.3-0.6,0.6-0.8c0.2-0.2,0.5-0.4,0.8-0.6c0.3-0.1,0.7-0.2,1-0.2s0.7,0.1,1,0.2
			c0.3,0.1,0.6,0.3,0.8,0.6c0.2,0.2,0.4,0.5,0.6,0.8c0.1,0.3,0.2,0.7,0.2,1c0,0.4-0.1,0.7-0.2,1c-0.1,0.3-0.3,0.6-0.6,0.8
			s-0.5,0.4-0.8,0.6c-0.3,0.1-0.7,0.2-1,0.2s-0.7-0.1-1-0.2c-0.3-0.1-0.6-0.3-0.8-0.6s-0.4-0.5-0.6-0.8
			C883.7,170.9,883.6,170.6,883.6,170.2z"/>
		<path d="M892.6,170.2c0-0.4,0.1-0.7,0.2-1c0.1-0.3,0.3-0.6,0.6-0.8c0.2-0.2,0.5-0.4,0.8-0.6c0.3-0.1,0.7-0.2,1-0.2s0.7,0.1,1,0.2
			c0.3,0.1,0.6,0.3,0.8,0.6c0.2,0.2,0.4,0.5,0.6,0.8c0.1,0.3,0.2,0.7,0.2,1c0,0.4-0.1,0.7-0.2,1c-0.1,0.3-0.3,0.6-0.6,0.8
			s-0.5,0.4-0.8,0.6c-0.3,0.1-0.7,0.2-1,0.2s-0.7-0.1-1-0.2c-0.3-0.1-0.6-0.3-0.8-0.6s-0.4-0.5-0.6-0.8
			C892.7,170.9,892.6,170.6,892.6,170.2z"/>
	</g>
	<g>
		<path fill="#EDF2DD" d="M712.4,193.9h-54.7c-6.6,0-12-5.4-12-12v-40.8c0-6.6,5.4-12,12-12h54.7V193.9z"/>
	</g>
	<g>
		<path fill="#7B9B37" d="M670.5,180L657,166.5c-1.2-1.2-1.2-3.1,0-4.2c1.2-1.2,3.1-1.2,4.2,0l9.3,9.3l22.2-22.2
			c1.2-1.2,3.1-1.2,4.2,0c1.2,1.2,1.2,3.1,0,4.2L670.5,180z"/>
	</g>
</g>
<g>
	<g>
		<path fill="#FFFFFF" d="M246.9,810.2H65.8c-6.6,0-12-5.4-12-12v-23.6c0-6.6,5.4-12,12-12h181.1c6.6,0,12,5.4,12,12v23.6
			C258.9,804.8,253.5,810.2,246.9,810.2z"/>
		<path fill="#B3B3B3" d="M246.9,810.7H65.8c-6.9,0-12.5-5.6-12.5-12.5v-23.6c0-6.9,5.6-12.5,12.5-12.5h181.1
			c6.9,0,12.5,5.6,12.5,12.5v23.6C259.4,805.1,253.8,810.7,246.9,810.7z M65.8,763.1c-6.3,0-11.5,5.2-11.5,11.5v23.6
			c0,6.3,5.2,11.5,11.5,11.5h181.1c6.3,0,11.5-5.2,11.5-11.5v-23.6c0-6.3-5.2-11.5-11.5-11.5H65.8z"/>
	</g>
	<g enable-background="new    ">
		<path d="M134.1,782.1c0.6-0.6,1.2-1,1.9-1.4c0.7-0.3,1.5-0.5,2.4-0.5c0.8,0,1.4,0.1,2,0.4c0.6,0.3,1.1,0.6,1.5,1.1
			c0.4,0.5,0.7,1,0.9,1.7c0.2,0.6,0.3,1.4,0.3,2.1v8.8h-2.9v-8.8c0-0.9-0.2-1.7-0.6-2.2c-0.4-0.5-1.1-0.8-2-0.8
			c-0.7,0-1.3,0.1-1.8,0.4s-1.1,0.7-1.6,1.2v10.1h-2.9v-20.1h2.9V782.1z"/>
		<path d="M150.7,794.5c-1.2,0-2-0.3-2.7-1c-0.6-0.6-0.9-1.6-0.9-2.7v-8.1h-1.5c-0.2,0-0.3-0.1-0.4-0.2c-0.1-0.1-0.2-0.3-0.2-0.5
			v-1.2l2.2-0.3l0.6-4c0-0.2,0.1-0.3,0.2-0.4c0.1-0.1,0.3-0.1,0.4-0.1h1.5v4.6h6.1l0.7-4c0-0.2,0.1-0.3,0.2-0.4
			c0.1-0.1,0.3-0.1,0.4-0.1h1.5v4.6h3.9v2.1h-3.9v7.9c0,0.5,0.1,0.9,0.4,1.1c0.2,0.3,0.6,0.4,1,0.4c0.2,0,0.4,0,0.6-0.1
			c0.2-0.1,0.3-0.1,0.4-0.2c0.1-0.1,0.2-0.1,0.3-0.2c0.1-0.1,0.2-0.1,0.2-0.1c0.1,0,0.2,0,0.2,0.1c0.1,0,0.1,0.1,0.2,0.2l0.9,1.4
			c-0.5,0.4-1,0.7-1.6,0.9c-0.6,0.2-1.2,0.3-1.9,0.3c-1.2,0-2.1-0.3-2.7-1c-0.6-0.6-0.9-1.6-0.9-2.7v-8.1h-6v7.9
			c0,0.5,0.1,0.9,0.4,1.1c0.2,0.3,0.6,0.4,1,0.4c0.2,0,0.4,0,0.6-0.1c0.2-0.1,0.3-0.1,0.4-0.2c0.1-0.1,0.2-0.1,0.3-0.2
			c0.1-0.1,0.2-0.1,0.3-0.1c0.2,0,0.3,0.1,0.4,0.3l0.9,1.4c-0.5,0.4-1,0.7-1.6,0.9C151.9,794.4,151.3,794.5,150.7,794.5z"/>
		<path d="M167.9,782.4c0.6-0.7,1.2-1.2,2-1.6c0.7-0.4,1.6-0.6,2.6-0.6c0.8,0,1.5,0.2,2.1,0.5c0.6,0.3,1.2,0.8,1.6,1.4
			s0.8,1.3,1.1,2.2s0.4,1.9,0.4,3c0,1-0.1,2-0.4,2.9c-0.3,0.9-0.7,1.7-1.2,2.3s-1.1,1.2-1.9,1.5c-0.7,0.4-1.6,0.6-2.5,0.6
			c-0.8,0-1.5-0.1-2.1-0.4s-1.1-0.6-1.5-1.1v5.9h-2.9v-18.5h1.8c0.4,0,0.7,0.2,0.8,0.6L167.9,782.4z M168,790.8
			c0.4,0.5,0.9,0.9,1.3,1.1c0.5,0.2,1,0.3,1.6,0.3c1.1,0,2-0.4,2.7-1.3c0.6-0.8,1-2.1,1-3.7c0-0.9-0.1-1.6-0.2-2.2s-0.4-1.1-0.6-1.5
			c-0.3-0.4-0.6-0.7-1-0.8c-0.4-0.2-0.8-0.3-1.3-0.3c-0.7,0-1.4,0.2-1.9,0.5c-0.5,0.3-1,0.8-1.5,1.4V790.8z"/>
		<path d="M180.2,782.7c0-0.3,0-0.5,0.1-0.7s0.2-0.4,0.4-0.6c0.2-0.2,0.4-0.3,0.6-0.4s0.5-0.2,0.7-0.2s0.5,0.1,0.7,0.2
			s0.4,0.2,0.6,0.4c0.2,0.2,0.3,0.4,0.4,0.6c0.1,0.2,0.1,0.5,0.1,0.7c0,0.3,0,0.5-0.1,0.7c-0.1,0.2-0.2,0.4-0.4,0.6
			c-0.2,0.2-0.4,0.3-0.6,0.4s-0.5,0.1-0.7,0.1s-0.5,0-0.7-0.1s-0.4-0.2-0.6-0.4c-0.2-0.2-0.3-0.4-0.4-0.6S180.2,783,180.2,782.7z
			 M180.2,792.6c0-0.3,0-0.5,0.1-0.7c0.1-0.2,0.2-0.4,0.4-0.6c0.2-0.2,0.4-0.3,0.6-0.4c0.2-0.1,0.5-0.1,0.7-0.1s0.5,0,0.7,0.1
			c0.2,0.1,0.4,0.2,0.6,0.4c0.2,0.2,0.3,0.4,0.4,0.6c0.1,0.2,0.1,0.5,0.1,0.7c0,0.3,0,0.5-0.1,0.7c-0.1,0.2-0.2,0.4-0.4,0.6
			c-0.2,0.2-0.4,0.3-0.6,0.4c-0.2,0.1-0.5,0.1-0.7,0.1s-0.5,0-0.7-0.1c-0.2-0.1-0.4-0.2-0.6-0.4c-0.2-0.2-0.3-0.4-0.4-0.6
			C180.3,793.1,180.2,792.9,180.2,792.6z"/>
		<path d="M189.2,794.4c-0.1,0.4-0.4,0.7-0.7,0.8c-0.3,0.2-0.6,0.3-0.9,0.3h-1.2l8.1-20.4c0.1-0.3,0.3-0.6,0.6-0.8s0.6-0.3,0.9-0.3
			h1.2L189.2,794.4z"/>
		<path d="M195.5,794.4c-0.1,0.4-0.4,0.7-0.7,0.8c-0.3,0.2-0.6,0.3-0.9,0.3h-1.2l8.1-20.4c0.1-0.3,0.3-0.6,0.6-0.8s0.6-0.3,0.9-0.3
			h1.2L195.5,794.4z"/>
		<path d="M205.7,792.6c0-0.3,0-0.5,0.1-0.7c0.1-0.2,0.2-0.4,0.4-0.6c0.2-0.2,0.4-0.3,0.6-0.4c0.2-0.1,0.5-0.1,0.7-0.1
			s0.5,0,0.7,0.1c0.2,0.1,0.4,0.2,0.6,0.4c0.2,0.2,0.3,0.4,0.4,0.6c0.1,0.2,0.1,0.5,0.1,0.7c0,0.3,0,0.5-0.1,0.7
			c-0.1,0.2-0.2,0.4-0.4,0.6c-0.2,0.2-0.4,0.3-0.6,0.4c-0.2,0.1-0.5,0.1-0.7,0.1s-0.5,0-0.7-0.1c-0.2-0.1-0.4-0.2-0.6-0.4
			c-0.2-0.2-0.3-0.4-0.4-0.6C205.7,793.1,205.7,792.9,205.7,792.6z"/>
		<path d="M212.1,792.6c0-0.3,0-0.5,0.1-0.7c0.1-0.2,0.2-0.4,0.4-0.6c0.2-0.2,0.4-0.3,0.6-0.4c0.2-0.1,0.5-0.1,0.7-0.1
			s0.5,0,0.7,0.1c0.2,0.1,0.4,0.2,0.6,0.4c0.2,0.2,0.3,0.4,0.4,0.6c0.1,0.2,0.1,0.5,0.1,0.7c0,0.3,0,0.5-0.1,0.7
			c-0.1,0.2-0.2,0.4-0.4,0.6c-0.2,0.2-0.4,0.3-0.6,0.4c-0.2,0.1-0.5,0.1-0.7,0.1s-0.5,0-0.7-0.1c-0.2-0.1-0.4-0.2-0.6-0.4
			c-0.2-0.2-0.3-0.4-0.4-0.6C212.2,793.1,212.1,792.9,212.1,792.6z"/>
		<path d="M218.6,792.6c0-0.3,0-0.5,0.1-0.7c0.1-0.2,0.2-0.4,0.4-0.6c0.2-0.2,0.4-0.3,0.6-0.4c0.2-0.1,0.5-0.1,0.7-0.1
			s0.5,0,0.7,0.1c0.2,0.1,0.4,0.2,0.6,0.4c0.2,0.2,0.3,0.4,0.4,0.6c0.1,0.2,0.1,0.5,0.1,0.7c0,0.3,0,0.5-0.1,0.7
			c-0.1,0.2-0.2,0.4-0.4,0.6c-0.2,0.2-0.4,0.3-0.6,0.4c-0.2,0.1-0.5,0.1-0.7,0.1s-0.5,0-0.7-0.1c-0.2-0.1-0.4-0.2-0.6-0.4
			c-0.2-0.2-0.3-0.4-0.4-0.6C218.6,793.1,218.6,792.9,218.6,792.6z"/>
	</g>
	<g>
		<path fill="#EDF2DD" d="M101.7,809.5H66.1c-6.6,0-12-5.4-12-12v-22.3c0-6.6,5.4-12,12-12h35.6V809.5z"/>
	</g>
	<g>
		<path fill="#7B9B37" d="M71.8,800.8l-10.3-10.3c-1.2-1.2-1.2-3.1,0-4.2c1.2-1.2,3.1-1.2,4.2,0l6.1,6.1L87,777.2
			c1.2-1.2,3.1-1.2,4.2,0s1.2,3.1,0,4.2L71.8,800.8z"/>
	</g>
</g>
<g>
	<g>
		<path fill="#FFFFFF" d="M386.1,285.9H183.8c-6.6,0-12-5.4-12-12v-28.5c0-6.6,5.4-12,12-12H386c6.6,0,12,5.4,12,12v28.5
			C398.1,280.5,392.7,285.9,386.1,285.9z"/>
		<path fill="#B3B3B3" d="M386.1,286.4H183.8c-6.9,0-12.5-5.6-12.5-12.5v-28.5c0-6.9,5.6-12.5,12.5-12.5H386
			c6.9,0,12.5,5.6,12.5,12.5v28.5c0,3.3-1.2,6.4-3.5,8.8C392.6,285.1,389.5,286.4,386.1,286.4z M183.8,233.9
			c-6.3,0-11.5,5.2-11.5,11.5v28.5c0,6.3,5.2,11.5,11.5,11.5h202.3c3.1,0,6-1.2,8.1-3.4c2.1-2.2,3.3-5,3.3-8.1v-28.5
			c0-6.3-5.2-11.5-11.5-11.5H183.8z"/>
	</g>
	<g enable-background="new    ">
		<path d="M260.4,254.8c0.6-0.6,1.3-1.1,2.1-1.5s1.6-0.6,2.6-0.6c0.8,0,1.6,0.1,2.2,0.4s1.2,0.7,1.6,1.2c0.4,0.5,0.8,1.1,1,1.8
			c0.2,0.7,0.3,1.5,0.3,2.4v9.7H267v-9.7c0-1-0.2-1.8-0.7-2.4s-1.2-0.9-2.2-0.9c-0.7,0-1.4,0.2-2,0.5c-0.6,0.3-1.2,0.8-1.7,1.4v11.2
			h-3.2v-22.2h3.2V254.8z"/>
		<path d="M278.7,268.6c-1.3,0-2.2-0.4-2.9-1.1c-0.7-0.7-1-1.7-1-3v-8.9H273c-0.2,0-0.3-0.1-0.5-0.2c-0.1-0.1-0.2-0.3-0.2-0.5v-1.3
			l2.5-0.4l0.7-4.4c0-0.2,0.1-0.3,0.3-0.4c0.1-0.1,0.3-0.2,0.5-0.2h1.7v5h6.8l0.7-4.5c0-0.2,0.1-0.3,0.2-0.4s0.3-0.2,0.5-0.2h1.7v5
			h4.2v2.3h-4.2v8.7c0,0.5,0.1,1,0.4,1.3c0.3,0.3,0.6,0.4,1.1,0.4c0.2,0,0.5,0,0.7-0.1c0.2-0.1,0.3-0.1,0.5-0.2
			c0.1-0.1,0.2-0.1,0.3-0.2c0.1-0.1,0.2-0.1,0.3-0.1c0.1,0,0.2,0,0.3,0.1c0.1,0,0.1,0.1,0.2,0.2l1,1.6c-0.5,0.4-1.1,0.8-1.8,1
			c-0.7,0.2-1.4,0.4-2.1,0.4c-1.3,0-2.3-0.4-2.9-1.1c-0.7-0.7-1-1.7-1-3v-8.9h-6.6v8.7c0,0.5,0.1,1,0.4,1.3s0.6,0.4,1.1,0.4
			c0.2,0,0.5,0,0.6-0.1c0.2-0.1,0.3-0.1,0.5-0.2c0.1-0.1,0.2-0.1,0.3-0.2c0.1-0.1,0.2-0.1,0.3-0.1c0.2,0,0.3,0.1,0.4,0.3l1,1.6
			c-0.5,0.4-1.1,0.8-1.8,1C280.1,268.4,279.4,268.6,278.7,268.6z"/>
		<path d="M297.6,255.2c0.6-0.8,1.4-1.4,2.2-1.8c0.8-0.5,1.8-0.7,2.8-0.7c0.9,0,1.6,0.2,2.3,0.5c0.7,0.3,1.3,0.8,1.8,1.5
			c0.5,0.7,0.9,1.5,1.2,2.5c0.3,1,0.4,2.1,0.4,3.4c0,1.1-0.2,2.2-0.5,3.2s-0.7,1.8-1.3,2.5c-0.6,0.7-1.3,1.3-2.1,1.7
			s-1.7,0.6-2.7,0.6c-0.9,0-1.7-0.1-2.3-0.4c-0.6-0.3-1.2-0.7-1.7-1.2v6.5h-3.2V253h2c0.4,0,0.7,0.2,0.8,0.6L297.6,255.2z
			 M297.8,264.5c0.5,0.6,0.9,1,1.5,1.2c0.5,0.2,1.1,0.4,1.8,0.4c1.3,0,2.2-0.5,2.9-1.4c0.7-0.9,1.1-2.3,1.1-4.1
			c0-0.9-0.1-1.7-0.2-2.4c-0.2-0.7-0.4-1.2-0.7-1.6s-0.7-0.7-1.1-0.9c-0.4-0.2-0.9-0.3-1.5-0.3c-0.8,0-1.5,0.2-2.1,0.5
			s-1.1,0.9-1.7,1.5V264.5z"/>
		<path d="M311.3,255.5c0-0.3,0.1-0.6,0.2-0.8c0.1-0.3,0.2-0.5,0.4-0.7c0.2-0.2,0.4-0.3,0.7-0.5c0.3-0.1,0.5-0.2,0.8-0.2
			s0.6,0.1,0.8,0.2c0.3,0.1,0.5,0.3,0.7,0.5c0.2,0.2,0.3,0.4,0.5,0.7c0.1,0.3,0.2,0.5,0.2,0.8c0,0.3-0.1,0.6-0.2,0.8
			c-0.1,0.3-0.3,0.5-0.5,0.7c-0.2,0.2-0.4,0.3-0.7,0.4c-0.3,0.1-0.5,0.2-0.8,0.2s-0.6-0.1-0.8-0.2c-0.3-0.1-0.5-0.3-0.7-0.4
			c-0.2-0.2-0.3-0.4-0.4-0.7C311.3,256.1,311.3,255.8,311.3,255.5z M311.3,266.5c0-0.3,0.1-0.6,0.2-0.8c0.1-0.3,0.2-0.5,0.4-0.7
			c0.2-0.2,0.4-0.3,0.7-0.5c0.3-0.1,0.5-0.2,0.8-0.2s0.6,0.1,0.8,0.2c0.3,0.1,0.5,0.3,0.7,0.5s0.3,0.4,0.5,0.7
			c0.1,0.3,0.2,0.5,0.2,0.8c0,0.3-0.1,0.6-0.2,0.8c-0.1,0.2-0.3,0.5-0.5,0.7s-0.4,0.3-0.7,0.4c-0.3,0.1-0.5,0.2-0.8,0.2
			s-0.6-0.1-0.8-0.2c-0.3-0.1-0.5-0.3-0.7-0.4c-0.2-0.2-0.3-0.4-0.4-0.7C311.3,267,311.3,266.8,311.3,266.5z"/>
		<path d="M321.2,268.5c-0.1,0.4-0.4,0.7-0.7,0.9s-0.7,0.3-1,0.3h-1.4l8.9-22.5c0.1-0.4,0.4-0.7,0.7-0.9s0.6-0.3,1-0.3h1.4
			L321.2,268.5z"/>
		<path d="M328.1,268.5c-0.1,0.4-0.4,0.7-0.7,0.9s-0.7,0.3-1,0.3H325l8.9-22.5c0.1-0.4,0.4-0.7,0.7-0.9s0.6-0.3,1-0.3h1.4
			L328.1,268.5z"/>
		<path d="M339.4,266.5c0-0.3,0.1-0.6,0.2-0.8s0.2-0.5,0.4-0.7s0.4-0.3,0.7-0.5c0.3-0.1,0.5-0.2,0.8-0.2c0.3,0,0.6,0.1,0.8,0.2
			c0.3,0.1,0.5,0.3,0.7,0.5c0.2,0.2,0.3,0.4,0.5,0.7c0.1,0.3,0.2,0.5,0.2,0.8c0,0.3-0.1,0.6-0.2,0.8c-0.1,0.2-0.3,0.5-0.5,0.7
			c-0.2,0.2-0.4,0.3-0.7,0.4c-0.3,0.1-0.5,0.2-0.8,0.2c-0.3,0-0.6-0.1-0.8-0.2c-0.3-0.1-0.5-0.3-0.7-0.4s-0.3-0.4-0.4-0.7
			S339.4,266.8,339.4,266.5z"/>
		<path d="M346.5,266.5c0-0.3,0.1-0.6,0.2-0.8s0.2-0.5,0.4-0.7s0.4-0.3,0.7-0.5c0.3-0.1,0.5-0.2,0.8-0.2c0.3,0,0.6,0.1,0.8,0.2
			c0.3,0.1,0.5,0.3,0.7,0.5c0.2,0.2,0.3,0.4,0.5,0.7c0.1,0.3,0.2,0.5,0.2,0.8c0,0.3-0.1,0.6-0.2,0.8c-0.1,0.2-0.3,0.5-0.5,0.7
			c-0.2,0.2-0.4,0.3-0.7,0.4c-0.3,0.1-0.5,0.2-0.8,0.2c-0.3,0-0.6-0.1-0.8-0.2c-0.3-0.1-0.5-0.3-0.7-0.4s-0.3-0.4-0.4-0.7
			S346.5,266.8,346.5,266.5z"/>
		<path d="M353.6,266.5c0-0.3,0.1-0.6,0.2-0.8s0.2-0.5,0.4-0.7s0.4-0.3,0.7-0.5c0.3-0.1,0.5-0.2,0.8-0.2c0.3,0,0.6,0.1,0.8,0.2
			c0.3,0.1,0.5,0.3,0.7,0.5c0.2,0.2,0.3,0.4,0.5,0.7c0.1,0.3,0.2,0.5,0.2,0.8c0,0.3-0.1,0.6-0.2,0.8c-0.1,0.2-0.3,0.5-0.5,0.7
			c-0.2,0.2-0.4,0.3-0.7,0.4c-0.3,0.1-0.5,0.2-0.8,0.2c-0.3,0-0.6-0.1-0.8-0.2c-0.3-0.1-0.5-0.3-0.7-0.4s-0.3-0.4-0.4-0.7
			S353.6,266.8,353.6,266.5z"/>
	</g>
	<g>
		<path fill="#EFDFDC" d="M224.7,285.1h-40.5c-6.6,0-12-5.4-12-12v-27c0-6.6,5.4-12,12-12h40.5V285.1z"/>
	</g>
	<g>
		<g>
			<path fill="#993737" d="M208.9,268.5c0.4,0.4,0.4,1.1,0,1.5c-0.2,0.2-0.5,0.3-0.7,0.3c-0.3,0-0.5-0.1-0.7-0.3l-8.9-8.9l-8.9,8.9
				c-0.2,0.2-0.5,0.3-0.7,0.3c-0.3,0-0.5-0.1-0.7-0.3c-0.4-0.4-0.4-1.1,0-1.5l8.9-8.9l-8.9-8.9c-0.4-0.4-0.4-1.1,0-1.5
				s1.1-0.4,1.5,0l8.9,8.9l8.9-8.9c0.4-0.4,1.1-0.4,1.5,0s0.4,1.1,0,1.5l-8.9,8.9L208.9,268.5z"/>
		</g>
	</g>
</g>
<g>
	<g>
		<path fill="#FFFFFF" d="M847.1,742.2H644.9c-6.6,0-12-5.4-12-12v-28.5c0-6.6,5.4-12,12-12h202.2c6.6,0,12,5.4,12,12v28.5
			C859.1,736.8,853.7,742.2,847.1,742.2z"/>
		<path fill="#B3B3B3" d="M847.1,742.7H644.9c-6.9,0-12.5-5.6-12.5-12.5v-28.5c0-6.9,5.6-12.5,12.5-12.5h202.2
			c6.9,0,12.5,5.6,12.5,12.5v28.5C859.6,737.1,854,742.7,847.1,742.7z M644.9,690.2c-6.3,0-11.5,5.2-11.5,11.5v28.5
			c0,6.3,5.2,11.5,11.5,11.5h202.2c6.3,0,11.5-5.2,11.5-11.5v-28.5c0-6.3-5.2-11.5-11.5-11.5H644.9z"/>
	</g>
	<g enable-background="new    ">
		<path d="M721.4,711.1c0.6-0.6,1.3-1.1,2.1-1.5c0.8-0.4,1.6-0.6,2.6-0.6c0.8,0,1.6,0.1,2.2,0.4c0.6,0.3,1.2,0.7,1.6,1.2
			c0.4,0.5,0.8,1.1,1,1.8c0.2,0.7,0.3,1.5,0.3,2.4v9.7H728v-9.7c0-1-0.2-1.8-0.7-2.4c-0.5-0.6-1.2-0.9-2.2-0.9c-0.7,0-1.4,0.2-2,0.5
			c-0.6,0.3-1.2,0.8-1.7,1.4v11.2h-3.2v-22.2h3.2V711.1z"/>
		<path d="M739.7,724.9c-1.3,0-2.2-0.4-2.9-1.1c-0.7-0.7-1-1.7-1-3v-8.9h-1.7c-0.2,0-0.3-0.1-0.5-0.2s-0.2-0.3-0.2-0.5v-1.3l2.5-0.4
			l0.7-4.4c0-0.2,0.1-0.3,0.3-0.4c0.1-0.1,0.3-0.2,0.5-0.2h1.7v5h6.8l0.7-4.5c0-0.2,0.1-0.3,0.2-0.4s0.3-0.2,0.5-0.2h1.7v5h4.2v2.3
			h-4.2v8.7c0,0.5,0.1,1,0.4,1.3s0.6,0.4,1.1,0.4c0.2,0,0.5,0,0.7-0.1c0.2-0.1,0.3-0.1,0.5-0.2c0.1-0.1,0.2-0.1,0.3-0.2
			c0.1-0.1,0.2-0.1,0.3-0.1c0.1,0,0.2,0,0.3,0.1c0.1,0,0.1,0.1,0.2,0.2l1,1.6c-0.5,0.4-1.1,0.8-1.8,1c-0.7,0.2-1.4,0.4-2.1,0.4
			c-1.3,0-2.3-0.4-2.9-1.1c-0.7-0.7-1-1.7-1-3v-8.9H739v8.7c0,0.5,0.1,1,0.4,1.3c0.3,0.3,0.6,0.4,1.1,0.4c0.2,0,0.5,0,0.6-0.1
			c0.2-0.1,0.3-0.1,0.5-0.2c0.1-0.1,0.2-0.1,0.3-0.2c0.1-0.1,0.2-0.1,0.3-0.1c0.2,0,0.3,0.1,0.4,0.3l1,1.6c-0.5,0.4-1.1,0.8-1.8,1
			C741.1,724.7,740.4,724.9,739.7,724.9z"/>
		<path d="M758.7,711.5c0.6-0.8,1.4-1.4,2.2-1.8s1.8-0.7,2.8-0.7c0.9,0,1.6,0.2,2.3,0.5c0.7,0.3,1.3,0.8,1.8,1.5
			c0.5,0.7,0.9,1.5,1.2,2.5c0.3,1,0.4,2.1,0.4,3.4c0,1.1-0.2,2.2-0.5,3.2c-0.3,1-0.7,1.8-1.3,2.5c-0.6,0.7-1.3,1.3-2.1,1.7
			s-1.7,0.6-2.7,0.6c-0.9,0-1.7-0.1-2.3-0.4s-1.2-0.7-1.7-1.2v6.5h-3.2v-20.4h2c0.4,0,0.7,0.2,0.8,0.6L758.7,711.5z M758.9,720.8
			c0.5,0.6,0.9,1,1.5,1.2c0.5,0.2,1.1,0.4,1.8,0.4c1.3,0,2.2-0.5,2.9-1.4c0.7-0.9,1.1-2.3,1.1-4.1c0-0.9-0.1-1.7-0.2-2.4
			c-0.2-0.7-0.4-1.2-0.7-1.6c-0.3-0.4-0.7-0.7-1.1-0.9c-0.4-0.2-0.9-0.3-1.5-0.3c-0.8,0-1.5,0.2-2.1,0.5c-0.6,0.4-1.1,0.9-1.7,1.5
			V720.8z"/>
		<path d="M772.3,711.8c0-0.3,0.1-0.6,0.2-0.8c0.1-0.3,0.2-0.5,0.4-0.7c0.2-0.2,0.4-0.3,0.7-0.5s0.5-0.2,0.8-0.2s0.6,0.1,0.8,0.2
			s0.5,0.3,0.7,0.5c0.2,0.2,0.3,0.4,0.5,0.7c0.1,0.3,0.2,0.5,0.2,0.8c0,0.3-0.1,0.6-0.2,0.8c-0.1,0.3-0.3,0.5-0.5,0.7
			c-0.2,0.2-0.4,0.3-0.7,0.4s-0.5,0.2-0.8,0.2s-0.6-0.1-0.8-0.2s-0.5-0.3-0.7-0.4c-0.2-0.2-0.3-0.4-0.4-0.7
			C772.4,712.4,772.3,712.1,772.3,711.8z M772.3,722.8c0-0.3,0.1-0.6,0.2-0.8s0.2-0.5,0.4-0.7c0.2-0.2,0.4-0.3,0.7-0.5
			s0.5-0.2,0.8-0.2s0.6,0.1,0.8,0.2s0.5,0.3,0.7,0.5c0.2,0.2,0.3,0.4,0.5,0.7c0.1,0.3,0.2,0.5,0.2,0.8c0,0.3-0.1,0.6-0.2,0.8
			c-0.1,0.2-0.3,0.5-0.5,0.7c-0.2,0.2-0.4,0.3-0.7,0.4c-0.3,0.1-0.5,0.2-0.8,0.2s-0.6-0.1-0.8-0.2c-0.3-0.1-0.5-0.3-0.7-0.4
			c-0.2-0.2-0.3-0.4-0.4-0.7S772.3,723.1,772.3,722.8z"/>
		<path d="M782.3,724.8c-0.1,0.4-0.4,0.7-0.7,0.9s-0.7,0.3-1,0.3h-1.4l8.9-22.5c0.1-0.4,0.4-0.7,0.7-0.9s0.6-0.3,1-0.3h1.4
			L782.3,724.8z"/>
		<path d="M789.2,724.8c-0.1,0.4-0.4,0.7-0.7,0.9s-0.7,0.3-1,0.3h-1.4l8.9-22.5c0.1-0.4,0.4-0.7,0.7-0.9s0.6-0.3,1-0.3h1.4
			L789.2,724.8z"/>
		<path d="M800.4,722.8c0-0.3,0.1-0.6,0.2-0.8c0.1-0.3,0.2-0.5,0.4-0.7c0.2-0.2,0.4-0.3,0.7-0.5s0.5-0.2,0.8-0.2
			c0.3,0,0.6,0.1,0.8,0.2s0.5,0.3,0.7,0.5s0.3,0.4,0.5,0.7s0.2,0.5,0.2,0.8c0,0.3-0.1,0.6-0.2,0.8s-0.3,0.5-0.5,0.7
			s-0.4,0.3-0.7,0.4c-0.3,0.1-0.5,0.2-0.8,0.2c-0.3,0-0.6-0.1-0.8-0.2c-0.3-0.1-0.5-0.3-0.7-0.4c-0.2-0.2-0.3-0.4-0.4-0.7
			C800.5,723.3,800.4,723.1,800.4,722.8z"/>
		<path d="M807.5,722.8c0-0.3,0.1-0.6,0.2-0.8c0.1-0.3,0.2-0.5,0.4-0.7c0.2-0.2,0.4-0.3,0.7-0.5s0.5-0.2,0.8-0.2
			c0.3,0,0.6,0.1,0.8,0.2s0.5,0.3,0.7,0.5s0.3,0.4,0.5,0.7s0.2,0.5,0.2,0.8c0,0.3-0.1,0.6-0.2,0.8s-0.3,0.5-0.5,0.7
			s-0.4,0.3-0.7,0.4c-0.3,0.1-0.5,0.2-0.8,0.2c-0.3,0-0.6-0.1-0.8-0.2c-0.3-0.1-0.5-0.3-0.7-0.4c-0.2-0.2-0.3-0.4-0.4-0.7
			C807.6,723.3,807.5,723.1,807.5,722.8z"/>
		<path d="M814.6,722.8c0-0.3,0.1-0.6,0.2-0.8c0.1-0.3,0.2-0.5,0.4-0.7c0.2-0.2,0.4-0.3,0.7-0.5s0.5-0.2,0.8-0.2
			c0.3,0,0.6,0.1,0.8,0.2s0.5,0.3,0.7,0.5s0.3,0.4,0.5,0.7s0.2,0.5,0.2,0.8c0,0.3-0.1,0.6-0.2,0.8s-0.3,0.5-0.5,0.7
			s-0.4,0.3-0.7,0.4c-0.3,0.1-0.5,0.2-0.8,0.2c-0.3,0-0.6-0.1-0.8-0.2c-0.3-0.1-0.5-0.3-0.7-0.4c-0.2-0.2-0.3-0.4-0.4-0.7
			C814.7,723.3,814.6,723.1,814.6,722.8z"/>
	</g>
	<g>
		<path fill="#EFDFDC" d="M685.8,741.4h-40.5c-6.6,0-12-5.4-12-12v-27c0-6.6,5.4-12,12-12h40.5V741.4z"/>
	</g>
	<g>
		<g>
			<path fill="#993737" d="M670,724.8c0.4,0.4,0.4,1.1,0,1.5c-0.2,0.2-0.5,0.3-0.7,0.3c-0.3,0-0.5-0.1-0.7-0.3l-8.9-8.9l-8.9,8.9
				c-0.2,0.2-0.5,0.3-0.7,0.3c-0.3,0-0.5-0.1-0.7-0.3c-0.4-0.4-0.4-1.1,0-1.5l8.9-8.9l-8.9-8.9c-0.4-0.4-0.4-1.1,0-1.5
				s1.1-0.4,1.5,0l8.9,8.9l8.9-8.9c0.4-0.4,1.1-0.4,1.5,0s0.4,1.1,0,1.5l-8.9,8.9L670,724.8z"/>
		</g>
	</g>
</g>
</svg>
