<?xml version="1.0" encoding="utf-8"?>
<!-- Generator: Adobe Illustrator 21.0.2, SVG Export Plug-In . SVG Version: 6.00 Build 0)  -->
<svg version="1.1" id="_x38_f2d8114-5147-477f-bbdd-a267bb9bb9a7"
	 xmlns="http://www.w3.org/2000/svg" xmlns:xlink="http://www.w3.org/1999/xlink" x="0px" y="0px" viewBox="0 0 930 930"
	 style="enable-background:new 0 0 930 930;" xml:space="preserve">
<style type="text/css">
	.st0{fill:#FFFFFF;stroke:#636363;stroke-width:4;stroke-miterlimit:10;}
	.st1{fill:none;stroke:#636363;stroke-width:6;stroke-miterlimit:10;}
	.st2{fill:#636363;}
	.st3{fill:#FFFFFF;stroke:#636363;stroke-width:10;stroke-miterlimit:10;}
	.st4{fill:#549BD1;}
</style>
<title>No browser Lockdown</title>
<circle class="st0" cx="465" cy="465" r="463"/>
<path class="st1" d="M232,295h378c6.6,0,12,5.4,12,12v280c0,6.6-5.4,12-12,12H232c-6.6,0-12-5.4-12-12V307
	C220,300.4,225.4,295,232,295z"/>
<line class="st1" x1="220" y1="339" x2="622" y2="339"/>
<circle class="st2" cx="251" cy="317" r="8"/>
<circle class="st2" cx="277" cy="317" r="8"/>
<circle class="st3" cx="604" cy="523.8" r="103.1"/>
<polygon class="st4" points="662.2,514.3 662.2,533.4 613.5,533.4 613.5,582 594.4,582 594.4,533.4 545.8,533.4 545.8,514.3 
	594.4,514.3 594.4,465.6 613.5,465.6 613.5,514.3 "/>
<path class="st2" d="M421.2,391c-39.2,0-71,31.8-71,71s31.8,71,71,71c39.2,0,71-31.8,71-71C492.2,422.8,460.4,391,421.2,391z
	 M421.2,523.8c-34.1,0-61.8-27.7-61.7-61.8s27.7-61.8,61.8-61.7c34.1,0,61.7,27.7,61.7,61.7C483,496.1,455.3,523.8,421.2,523.8z"/>
<polygon class="st2" points="386.7,475.1 386.7,466.4 370.4,466.4 370.4,457.5 386.7,457.5 386.7,448.9 409.5,462 "/>
<polygon class="st2" points="455.7,448.9 455.7,457.6 471.9,457.6 471.9,466.5 455.7,466.5 455.7,475.1 432.9,462 "/>
<polygon class="st2" points="434.3,496.5 425.6,496.5 425.6,512.7 416.7,512.7 416.7,496.5 408,496.5 421.2,473.7 "/>
<polygon class="st2" points="408,427.5 416.8,427.5 416.8,411.3 425.6,411.3 425.6,427.5 434.3,427.5 421.2,450.3 "/>
</svg>
