<?xml version="1.0" encoding="utf-8"?>
<!-- Generator: Adobe Illustrator 21.0.2, SVG Export Plug-In . SVG Version: 6.00 Build 0)  -->
<svg version="1.1" id="Layer_1" xmlns="http://www.w3.org/2000/svg" xmlns:xlink="http://www.w3.org/1999/xlink" x="0px" y="0px"
	 viewBox="0 0 515 335" enable-background="new 0 0 515 335" xml:space="preserve">
<g>
	<path fill="#E8E8E8" d="M513.5,168.7c0,5.4-2.5,10.6-6.3,14.1c-3.8,3.7-9.4,5.9-15.3,5.9h-32.6c8.1,5.1,13.5,13.6,13.5,23.4
		c0,7.7-3.4,14.7-9,19.9c-5.6,5.1-13,8.2-21.5,8.2h-22.3c3.6,4.6,5.6,10.2,5.6,16.4c0,7.7-3.4,14.7-9,19.9c-5.6,5.1-13,8.2-21.3,8.2
		H148.2c-10.8,0-20.2-5.3-25.6-13.1H30.9c-16.6,0-30.3-12.7-30.3-28.1v-13.9c0-15.4,13.7-28.1,30.3-28.1h37.3
		c-3.6-4.6-5.6-10.2-5.6-16.2c0-7.7,3.4-14.7,9-19.9c3.8-3.7,9-6.2,14.4-7.6h-35c-11.9,0-21.5-9-21.5-20.1c0-5.4,2.5-10.6,6.3-14.1
		c4-3.7,9.4-5.9,15.3-5.9h37.7c-2.3-3.2-3.6-6.9-3.6-10.9V95.9c0-1.9,0.2-3.9,0.9-5.7H73c-11.9,0-21.5-9-21.5-20.1V59
		c0-11.1,9.6-20.1,21.5-20.1h308c11.9,0,21.5,9,21.5,20.1v11.1c0,1.9-0.2,3.9-0.9,5.7h13c11.9,0,21.5,9,21.5,20.1v11.1
		c0,11.1-9.6,20.1-21.5,20.1h-19.1c4.5,3.7,7.7,9.1,7.7,15.1c0,2.4-0.4,4.6-1.3,6.9h89.9C503.9,148.6,513.5,157.8,513.5,168.7z"/>
</g>
<g>
	<path fill="#ECF7FF" d="M414.6,166.9c0,85.7-69.9,155.4-155.7,155.4c-85.9,0-155.7-69.7-155.7-155.4S173,11.5,258.8,11.5
		C344.7,11.5,414.6,81.2,414.6,166.9z"/>
	<path fill="#C3E6FF" d="M258.8,8.5c-87.5,0-158.7,71.1-158.7,158.5s71.2,158.4,158.7,158.4s158.7-71.1,158.7-158.4
		S346.3,8.5,258.8,8.5z M258.8,322.3c-85.9,0-155.7-69.7-155.7-155.4S173,11.5,258.8,11.5c85.9,0,155.7,69.7,155.7,155.5
		S344.7,322.3,258.8,322.3z"/>
</g>
<g>
	<path d="M440.6,30.6h-85.2v1.3h85.2V30.6z"/>
</g>
<g>
	<path d="M385.9,0.6h-30.5v1.3h30.5V0.6z"/>
</g>
<g>
	<path d="M186.5,313.8H56.8v0.8h129.7V313.8z"/>
</g>
<g>
	<path d="M166.4,332.7H91.2v0.8h75.1V332.7z"/>
</g>
<g>
	<path fill="#222D30" d="M161.6,220.5c-2.2,0-4-1.8-4-4V104.6c0-2.2,1.8-4,4-4h189.7c2.2,0,4,1.8,4,4v111.9c0,2.2-1.8,4-4,4H161.6z"
		/>
</g>
<g>
	<path d="M351.4,100.7c2.1,0,3.9,1.7,3.9,3.9v111.9c0,2.1-1.8,3.9-3.9,3.9H161.6c-2.1,0-3.9-1.7-3.9-3.9V104.6
		c0-2.1,1.7-3.9,3.9-3.9H351.4z M351.4,100.5H161.6c-2.3,0-4.1,1.8-4.1,4.1v111.9c0,2.3,1.8,4.1,4.1,4.1h189.7
		c2.3,0,4.1-1.8,4.1-4.1V104.6C355.5,102.3,353.7,100.5,351.4,100.5z"/>
</g>
<g>
	<path fill="#E3E7E8" d="M355.5,204.6h-198v12c0,2.2,1.8,4,4,4h189.9c2.2,0,4.1-1.8,4.1-4.1V204.6z"/>
</g>
<g>
	<path fill="#BCBCBC" d="M275.6,245.9h-37.9l1.3-25.3h35.3L275.6,245.9z"/>
</g>
<g>
	<path fill="#E0E0E0" d="M277.8,242.1h-42c-0.8,0-1.4,0.7-1.4,1.4v2.6c0,0.8,0.7,1.4,1.4,1.4h42c0.8,0,1.4-0.7,1.4-1.4v-2.6
		C279.2,242.7,278.6,242.1,277.8,242.1z"/>
</g>
<g>
	<path fill="#77DEFF" d="M163.3,103.3h186.4c1.7,0,3,1.3,3,3v92c0,1.7-1.3,3-3,3H163.3c-1.7,0-3-1.3-3-3v-92
		C160.3,104.6,161.7,103.3,163.3,103.3z"/>
</g>
<g>
	<g>
		<path fill="#FFFFFF" d="M202.2,191.2c-1.3,0-2.4-1.1-2.4-2.4v-70.3c0-1.3,1.1-2.4,2.4-2.4h113.4c1.3,0,2.4,1.1,2.4,2.4v70.3
			c0,1.3-1.1,2.4-2.4,2.4H202.2z"/>
		<path fill="#BFBFBF" d="M315.5,116.1c1.3,0,2.3,1.1,2.3,2.3v70.3c0,1.3-1.1,2.3-2.3,2.3H202.2c-1.3,0-2.3-1.1-2.3-2.3v-70.3
			c0-1.3,1.1-2.3,2.3-2.3H315.5 M315.5,116H202.2c-1.4,0-2.5,1.1-2.5,2.5v70.3c0,1.4,1.1,2.5,2.5,2.5h113.4c1.4,0,2.5-1.1,2.5-2.5
			v-70.3C318,117.1,316.9,116,315.5,116L315.5,116z"/>
	</g>
	<g>
		<path fill="#383838" d="M318,121.9H199.7v-3.4c0-1.4,1.1-2.5,2.5-2.5h113.4c1.4,0,2.5,1.1,2.5,2.5V121.9L318,121.9z"/>
	</g>
	<g>
		<rect x="199.8" y="121.9" fill="#EDEDED" width="118" height="6.1"/>
	</g>
	<circle fill="#EF5C3A" cx="203.6" cy="118.9" r="0.9"/>
	<circle fill="#EDE03B" cx="207.3" cy="118.9" r="0.9"/>
	<circle fill="#91CE30" cx="211.2" cy="118.9" r="0.9"/>
	<g>
		<rect x="208.2" y="123.3" fill="#FFFFFF" width="84.6" height="3.5"/>
	</g>
</g>
<g>
	<path fill="#43B5DD" d="M280.5,158.7c0,10.8-8.3,19.7-19,20.9c7.3-0.9,11.9-5.3,11.9-5.3l0.2-0.2h-0.2c0.1-1.1,0.1-4.6-1.8-6.9
		c-1-1.2-2.5-1.8-4.2-2c-0.2-0.1-4.4-1.3-4.9-2.9c-0.5-1.6,1.3-4.6,1.5-4.8c0.2-0.2,1.8-1.8,1.7-3.3c0-0.5-0.3-0.9-0.7-1.2
		c0.1-0.5,0.7-3.7-1-5.8c-1-1.3-2.8-2-5.1-2c-2.4,0-4.1,0.7-5.1,2c-1.7,2.1-1,5.3-0.9,5.8c-0.4,0.3-0.6,0.7-0.7,1.2
		c-0.1,1.5,1.5,3.1,1.7,3.3c0.1,0.2,2,3.1,1.5,4.8c-0.4,1.6-4.6,2.9-4.9,3c-1.9,0.1-3.3,0.8-4.4,2.1c-2,2.4-1.8,6.1-1.7,6.8l-0.2,0
		l0.2,0.2c0,0,4.7,4.4,11.9,5.3c-10.7-1.2-19-10.1-19-20.9c0-11.6,9.7-21.1,21.6-21.1C270.8,137.7,280.5,147.1,280.5,158.7z"/>
</g>
</svg>
