<?xml version="1.0" encoding="utf-8"?>
<!-- Generator: Adobe Illustrator 21.0.2, SVG Export Plug-In . SVG Version: 6.00 Build 0)  -->
<svg version="1.1" id="_x38_f2d8114-5147-477f-bbdd-a267bb9bb9a7"
	 xmlns="http://www.w3.org/2000/svg" xmlns:xlink="http://www.w3.org/1999/xlink" x="0px" y="0px" viewBox="0 0 930 930"
	 style="enable-background:new 0 0 930 930;" xml:space="preserve">
<style type="text/css">
	.st0{fill:#FFFFFF;stroke:#636363;stroke-width:4;stroke-miterlimit:10;}
	.st1{fill:#636363;}
	.st2{fill:#FFFFFF;stroke:#636363;stroke-width:10;stroke-miterlimit:10;}
	.st3{fill:#549BD1;}
</style>
<title>No browser Lockdown</title>
<circle class="st0" cx="465" cy="465" r="463"/>
<path class="st1" d="M421.5,639.2c0,7.1,1.2,13.7,3.6,19.6c-17.2,2.4-34.5,3.6-51.7,3.6c-107-0.6-193.2-41-193.2-90.4v-45.2
	c44.6,54.1,105.8,67.8,163.5,70.8c5.4,0,10.1,0.6,14.9,0.6c4.8,0,10.1,0,14.9,0c15.5,0,31.5-0.6,48.2-1.8V639.2z"/>
<path class="st1" d="M433.4,504.8c-7.7,9.5-11.9,22-11.9,35.1v28.5c-9.5,1.2-19,1.8-29.1,2.4l0,0c-5.9,0-12.5,0.6-19,0.6
	c-107,0.6-193.2-39.8-193.2-89.2v-45.2c51.1,63,126.1,71.3,190.9,71.3l0,0h2.4C393,508.4,413.2,507.8,433.4,504.8z"/>
<path class="st1" d="M484,407.3c-8.9,8.3-16.6,19-21.4,30.3c-3,6.5-5.4,11.9-7.1,16.6c-3,7.7-4.2,15.5-3,23.2
	c-24.4,4.8-50.5,7.7-79.1,7.7c-107,0.6-193.2-39.8-193.2-89.2v-45.2c8.9,11.3,19,20.2,29.1,28.5c32.1,24.4,69,35.1,105.8,39.8
	c0.6,0,0.6,0,1.2,0c19,2.4,38.1,3,57.1,3C409.1,422.2,447.7,419.8,484,407.3z"/>
<path class="st1" d="M566.6,347.3v36.9c-6.5-1.8-13.1-2.4-19.6-2.4c-4.8,0-10.1,0.6-14.9,1.2c3-1.8,5.4-4.2,8.3-6.5
	C550.6,368.1,559.5,358,566.6,347.3z"/>
<path class="st1" d="M566.6,305.7c0,4.8-0.6,8.9-2.4,13.7c-1.2,3-1.8,5.4-3.6,7.7c-4.2,7.1-9.5,14.3-17.2,20.8l0,0
	c-3.6,3-7.7,6.5-12.5,9.5l0,0c-35.1,23.2-92.8,38.1-157.6,38.1S250.3,380.6,215.8,358l0,0c-4.8-3-8.9-5.9-12.5-9.5l0,0
	c-7.7-6.5-13.1-13.7-17.2-20.8c-1.2-2.4-2.4-5.4-3.6-7.7c-1.8-4.8-2.4-9.5-2.4-14.3c0-2.4,0-4.8,0.6-7.1c0.6-2.4,1.2-4.8,1.8-6.5
	c1.2-3,1.8-5.4,3.6-7.7c20.2-39.2,96.3-68.4,187.3-68.4c47,0,90.4,7.7,123.7,20.8l0,0c4.8,1.8,8.9,3.6,13.1,5.9
	c3,1.2,5.4,2.4,8.3,4.2c1.2,0.6,2.4,1.2,4.2,2.4c1.2,0.6,2.4,1.2,3.6,2.4c3.6,2.4,7.1,4.8,10.1,7.1l0,0c1.2,1.2,3,1.8,4.2,3
	c0.6,0,0.6,0.6,1.2,1.2c1.8,1.2,3.6,3,4.8,4.2c1.2,1.2,1.8,1.8,3,3c1.2,1.2,2.4,2.4,3.6,4.2l0,0c0.6,1.2,1.8,1.8,2.4,3
	c1.2,1.8,2.4,3,3.6,4.8s1.8,3,3,4.8l0,0c0.6,1.2,1.2,3,1.8,4.2l0,0c0,0.6,0.6,1.2,0.6,2.4C566,296.7,566.6,301.5,566.6,305.7z"/>
<path class="st1" d="M596.4,517.3h-9.5c-0.6,0,0,0-0.6,0c-0.6,0-1.2,0-1.2,0c1.2-2.4,2.4-4.8,3.6-7.7c1.8-3.6,3.6-7.7,5.4-11.9
	c13.1-29.1,1.8-63.6-25-75.5c-3-1.2-5.4-2.4-8.3-3c-4.2-1.2-8.3-1.8-13.1-1.8c-7.1,0-14.3,1.2-21.4,4.8c-13.7,5.9-25,16.6-30.9,30.9
	c-2.4,5.9-4.8,10.7-6.5,15.5v0.6c-2.4,5.4,0,10.7,5.4,13.1c1.2,0.6,2.4,0.6,4.2,0.6c4.2,0,7.7-2.4,8.9-5.9c1.8-4.8,4.2-9.5,7.1-15.5
	c0.6-1.8,1.2-3,2.4-4.8c4.2-7.1,10.7-13.1,18.4-16.6c3.6-1.2,7.1-2.4,10.7-2.4c1.2,0,1.8,0,3,0c4.8,0,8.9,1.2,13.1,3
	c1.2,0.6,1.8,1.2,3,1.2c1.2,0.6,3,1.8,4.2,3c11.9,10.1,16.1,28.5,8.9,45.2c-2.4,4.8-4.2,8.9-5.4,12.5c-3,6.5-5.4,11.9-7.1,15.5
	h-50.5c-1.2,0-2.4,0-3,0c-6.5,0-13.1,0-19,0l0,0h-9.5c-12.5,0-22.6,10.1-22.6,22.6v98.7c0,4.8,1.8,9.5,4.2,13.1
	c4.2,5.9,10.7,9.5,18.4,10.1h113c12.5,0,22.6-10.1,22.6-22.6v-99.3C618.9,528,608.8,517.9,596.4,517.3z M548.2,618.4H528V575h20.2
	V618.4z"/>
<circle class="st2" cx="647.2" cy="611.9" r="89"/>
<polygon class="st3" points="697.4,603.7 697.4,620.2 655.4,620.2 655.4,662.2 638.9,662.2 638.9,620.2 596.9,620.2 596.9,603.7 
	638.9,603.7 638.9,561.7 655.4,561.7 655.4,603.7 "/>
</svg>
