<?xml version="1.0" encoding="utf-8"?>
<!-- Generator: Adobe Illustrator 21.0.2, SVG Export Plug-In . SVG Version: 6.00 Build 0)  -->
<svg version="1.1" id="Layer_1" xmlns="http://www.w3.org/2000/svg" xmlns:xlink="http://www.w3.org/1999/xlink" x="0px" y="0px"
	 viewBox="0 0 1000 1000" enable-background="new 0 0 1000 1000" xml:space="preserve">
<g>
	<g>
		<circle fill="#C0F0FF" cx="500" cy="560" r="420"/>
	</g>
</g>
<g>
	<g>
		<path fill="#42474C" d="M625.2,461.2V572h-40.9V461.2c0-46.6-37.8-84.3-84.3-84.3s-84.3,37.8-84.3,84.3V572h-40.9V461.2
			C374.8,392,430.9,336,500,336S625.2,392,625.2,461.2z"/>
	</g>
	<g>
		<path fill="#5E646B" d="M620.8,796.8H379.2c-28.7,0-52.2-23.5-52.2-52.2V564.5c0-28.7,23.5-52.2,52.2-52.2h241.6
			c28.7,0,52.2,23.5,52.2,52.2v180.2C672.9,773.4,649.5,796.8,620.8,796.8z"/>
	</g>
</g>
<g>
	<g>
		<path d="M372.8,67.5c-1.6,0-3.2-0.9-4.1-2.4l-5.5-10.4c-0.9-1.8-0.5-4,0.9-5.4l-1.5-2.9c-1.2-2.2-1.4-4.7-0.7-7.1
			c0.7-2.4,2.3-4.3,4.5-5.5c2.2-1.2,4.7-1.4,7.1-0.7c2.4,0.7,4.3,2.3,5.5,4.5l1.5,2.8c2-0.5,4.1,0.5,5,2.4l5.5,10.4
			c1.2,2.2,0.3,5-1.9,6.2l-14.2,7.6C374.3,67.3,373.6,67.5,372.8,67.5z M370.9,33.6c-1.4,0-2.7,0.3-3.9,1c-2,1-3.4,2.8-4,4.9
			c-0.6,2.1-0.4,4.4,0.6,6.3l1.9,3.6l-0.3,0.3c-1.3,1.1-1.8,3-1,4.5l5.5,10.4c0.9,1.7,3.1,2.4,4.8,1.5l14.2-7.6
			c1.7-0.9,2.4-3.1,1.5-4.8l-5.5-10.4c-0.8-1.5-2.6-2.3-4.2-1.8l-0.4,0.1l-1.9-3.6c-1-2-2.8-3.4-4.9-4
			C372.5,33.8,371.7,33.6,370.9,33.6z M367.1,48.6l-1.9-3.6c-1.6-3.2-0.5-7.1,2.6-8.7c3.2-1.6,7.1-0.5,8.7,2.6l1.9,3.6L367.1,48.6z
			 M366,44.5l1.5,2.8l9.5-5.1l-1.5-2.8c-0.7-1.3-1.8-2.2-3.2-2.6c-1.4-0.4-2.9-0.3-4.2,0.4C365.6,38.5,364.7,41.8,366,44.5z"/>
	</g>
</g>
<g>
	<g>
		<path d="M622,120.6c-0.7,0-1.3-0.1-2-0.3l-20.4-7.1c-3.2-1.1-4.8-4.4-3.7-7.6l5.2-15c0.8-2.5,3.4-4.2,6.1-4l1.5-4.2
			c1.1-3.1,3.4-5.6,6.3-7.1c3-1.4,6.3-1.6,9.4-0.5c3.1,1.1,5.6,3.3,7.1,6.3c1.4,3,1.6,6.3,0.5,9.4l-1.5,4.2c2.3,1.5,3.3,4.4,2.3,6.9
			l-5.2,15c-0.5,1.5-1.6,2.8-3,3.4C623.8,120.4,622.9,120.6,622,120.6z M606.8,87.5c-2.1,0-4,1.3-4.7,3.3l-5.2,15
			c-0.9,2.7,0.4,5.5,3.1,6.4l20.4,7.1c1.3,0.4,2.6,0.4,3.8-0.2c1.2-0.6,2.1-1.6,2.5-2.9l5.2-15c0.9-2.2,0-4.7-2.2-5.9l-0.4-0.2
			l1.7-5c1-2.9,0.8-5.9-0.5-8.7c-1.3-2.7-3.6-4.8-6.5-5.8c-2.9-1-5.9-0.8-8.7,0.5c-2.7,1.3-4.8,3.6-5.8,6.5l-1.7,5l-0.4-0.1
			C607.3,87.6,607,87.5,606.8,87.5z M626.6,94.1l-15.9-5.6l1.8-5c1.6-4.4,6.3-6.7,10.7-5.2c4.3,1.5,6.7,6.4,5.2,10.7L626.6,94.1z
			 M611.9,87.9l14.1,5l1.4-4.1c1.3-3.8-0.8-8.2-4.6-9.5c-3.9-1.3-8.1,0.7-9.5,4.6L611.9,87.9z"/>
	</g>
</g>
<g>
	<g>
		<path d="M860,56.6c-0.7,0-1.3-0.1-2-0.3l-20.4-7.1c-3.2-1.1-4.8-4.4-3.7-7.6l5.2-15c0.8-2.5,3.4-4.2,6.1-4l1.5-4.2
			c1.1-3.1,3.4-5.6,6.3-7.1c3-1.4,6.3-1.6,9.4-0.5c3.1,1.1,5.6,3.3,7.1,6.3c1.4,3,1.6,6.3,0.5,9.4l-1.5,4.2c2.3,1.5,3.3,4.4,2.3,6.9
			l-5.2,15c-0.5,1.5-1.6,2.8-3,3.4C861.8,56.4,860.9,56.6,860,56.6z M844.8,23.5c-2.1,0-4,1.3-4.7,3.3l-5.2,15
			c-0.9,2.7,0.4,5.5,3.1,6.4l20.4,7.1c1.3,0.4,2.6,0.4,3.8-0.2s2.1-1.6,2.5-2.9l5.2-15c0.9-2.2,0-4.7-2.2-5.9l-0.4-0.2l1.7-5
			c1-2.9,0.8-5.9-0.5-8.7c-1.3-2.7-3.6-4.8-6.5-5.8c-2.9-1-5.9-0.8-8.7,0.5c-2.7,1.3-4.8,3.6-5.8,6.5l-1.7,5l-0.4-0.1
			C845.3,23.6,845,23.5,844.8,23.5z M864.6,30.1l-15.9-5.6l1.8-5c1.6-4.4,6.3-6.7,10.7-5.2c4.3,1.5,6.7,6.4,5.2,10.7L864.6,30.1z
			 M849.9,23.9l14.1,5l1.4-4.1c1.3-3.8-0.8-8.2-4.6-9.5c-3.9-1.3-8.1,0.7-9.5,4.6L849.9,23.9z"/>
	</g>
</g>
<g>
	<g>
		<path d="M47.8,104.5c-1,0-1.9-0.2-2.8-0.7c-1.4-0.7-2.5-2-2.9-3.5l-4.8-15.1c-0.8-2.6,0.3-5.5,2.6-6.9L38.5,74
			c-1-3.1-0.7-6.4,0.8-9.4c1.5-2.9,4.1-5.1,7.2-6.1c3.1-1,6.4-0.7,9.4,0.8c2.9,1.5,5.1,4.1,6.1,7.2l1.4,4.3c2.7-0.1,5.2,1.6,5.9,4.2
			l4.8,15.1c1,3.2-0.8,6.6-3.9,7.5l-20.5,6.5C49.1,104.4,48.5,104.5,47.8,104.5z M50.3,58.9c-1.1,0-2.3,0.2-3.4,0.5
			c-2.9,0.9-5.2,2.9-6.6,5.6c-1.4,2.7-1.7,5.7-0.7,8.6l1.6,5.1l-0.4,0.2c-2.1,1.1-3.2,3.6-2.5,5.9l4.8,15.1c0.4,1.3,1.3,2.3,2.5,2.9
			c1.2,0.6,2.5,0.7,3.8,0.3l20.5-6.5c2.6-0.8,4.1-3.6,3.3-6.3l-4.8-15.1c-0.6-2.3-2.9-3.7-5.3-3.5l-0.4,0L61,66.9
			c-0.9-2.9-2.9-5.2-5.6-6.6C53.8,59.4,52,58.9,50.3,58.9z M43.7,77.8l-1.5-5.1c-0.7-2.2-0.5-4.5,0.6-6.5c1-2,2.8-3.5,5-4.2
			c2.2-0.7,4.5-0.5,6.5,0.6c2,1,3.5,2.8,4.2,5l1.5,5.1L43.7,77.8z M50.2,62.7c-0.8,0-1.5,0.1-2.2,0.3c-1.9,0.6-3.4,1.9-4.4,3.7
			c-0.9,1.8-1.1,3.8-0.5,5.7l0,0l1.3,4.1l14.2-4.5l-1.3-4.1c-0.6-1.9-1.9-3.4-3.7-4.4C52.6,63,51.4,62.7,50.2,62.7z"/>
	</g>
</g>
<g>
	<g>
		<path d="M936.9,351.5c-2.6,0-4.9-1.6-5.7-4.2l-4.8-15.1c-0.8-2.6,0.3-5.5,2.6-6.9l-1.4-4.3c-1-3.1-0.7-6.4,0.8-9.4
			c1.5-2.9,4.1-5.1,7.2-6.1c6.4-2.1,13.3,1.5,15.4,8l1.4,4.3c2.7-0.1,5.2,1.6,6,4.2l4.8,15.1c1,3.2-0.8,6.6-3.9,7.5l-20.6,6.5
			C938.1,351.4,937.5,351.5,936.9,351.5z M939.3,305.9c-1.1,0-2.3,0.2-3.4,0.5c-2.9,0.9-5.2,2.9-6.6,5.6c-1.4,2.7-1.7,5.7-0.7,8.6
			l1.6,5.1l-0.4,0.2c-2.1,1.1-3.2,3.6-2.5,5.9l4.8,15.1c0.8,2.6,3.6,4.1,6.3,3.3l20.6-6.5c2.6-0.8,4.1-3.6,3.3-6.3l-4.8-15.1
			c-0.7-2.3-3-3.7-5.4-3.5l-0.4,0l-1.6-5.1c-0.9-2.9-2.9-5.2-5.6-6.6C942.8,306.4,941,305.9,939.3,305.9z M932.7,324.8l-1.5-5.1
			c-0.7-2.2-0.5-4.5,0.6-6.5c1-2,2.8-3.5,5-4.2c2.2-0.7,4.5-0.5,6.5,0.6c2,1,3.5,2.8,4.2,5l1.5,5.1L932.7,324.8z M939.2,309.7
			c-0.8,0-1.5,0.1-2.2,0.3c-1.9,0.6-3.4,1.9-4.4,3.7c-0.9,1.8-1.1,3.8-0.5,5.7l0,0l1.3,4.1l14.2-4.5l-1.3-4.1
			c-0.6-1.9-1.9-3.4-3.7-4.4C941.6,310,940.4,309.7,939.2,309.7z"/>
	</g>
</g>
<g>
	<path fill="#FFFFFF" d="M505.9,722.7h-11.8c-6.6,0-12-5.4-12-12v-62.9c0-6.6,5.4-12,12-12h11.8c6.6,0,12,5.4,12,12v62.9
		C517.9,717.3,512.5,722.7,505.9,722.7z"/>
</g>
<g>
	<path fill="#FFFFFF" d="M166.9,150.8c0,0,1.6,22.1-11,48.8c-25.9-14.2-37.6-33.1-37.6-33.1l20.7-18.9L166.9,150.8z"/>
	<path d="M156.1,200.3l-0.5-0.3c-25.7-14.1-37.7-33.1-37.8-33.3l-0.2-0.4l21.2-19.3l28.5,3.3l0,0.4c0,0.2,1.5,22.5-11,49
		L156.1,200.3z M119,166.6c1.7,2.6,13.5,19.4,36.7,32.3c11.2-24.1,10.9-44.5,10.7-47.7l-27.3-3.1L119,166.6z"/>
</g>
<g>
	<path fill="#FFFFFF" d="M511.8,42.7c0,0,1.3,17.3-8.6,38.2C483,69.8,473.8,55,473.8,55L490,40.3L511.8,42.7z"/>
	<path d="M503.4,81.6l-0.5-0.3c-20.1-11-29.5-25.9-29.6-26.1l-0.2-0.4l16.7-15.1l22.4,2.5l0,0.4c0,0.2,1.2,17.7-8.6,38.5L503.4,81.6
		z M474.5,55.1c1.5,2.3,10.7,15.2,28.5,25.1c8.7-18.6,8.5-34.3,8.3-37.1l-21.2-2.3L474.5,55.1z"/>
</g>
<g>
	<path fill="#FFFFFF" d="M86.6,324.4c0,0,0.8,11-5.4,24.3c-12.9-7.1-18.7-16.4-18.7-16.4l10.3-9.4L86.6,324.4z"/>
	<path d="M81.4,349.4l-0.5-0.3c-12.9-7.1-18.8-16.5-18.9-16.6l-0.2-0.4l10.8-9.8l14.4,1.6l0,0.4c0,0.1,0.7,11.3-5.4,24.5L81.4,349.4
		z M63.2,332.4c1.2,1.7,6.9,9.5,17.8,15.6c5.2-11.4,5.2-21.1,5.1-23.2L73,323.4L63.2,332.4z"/>
</g>
<g>
	<path fill="#FFFFFF" d="M919.2,123.7c0,0-13.1,11.6-35.8,16.5c-3.5-23,2.7-39.3,2.7-39.3l21.7,3.9L919.2,123.7z"/>
	<path d="M883,140.8l-0.1-0.5c-3.5-22.9,2.7-39.4,2.7-39.6l0.1-0.4l22.3,4l0.1,0.2l11.6,19.3l-0.3,0.3c-0.1,0.1-13.5,11.7-36,16.6
		L883,140.8z M886.4,101.5c-0.9,2.6-5.6,17.7-2.6,38.1c20.1-4.5,32.6-14.3,34.7-16l-11.1-18.3L886.4,101.5z"/>
</g>
<g>
	<path fill="#FFFFFF" d="M301.2,110.1c0,0-4.5,9.7-16.1,18c-7.5-12.1-8-22.7-8-22.7l13.1-3.1L301.2,110.1z"/>
	<path d="M285,128.8l-0.3-0.5c-7.5-12.1-8.1-22.8-8.1-22.9l0-0.4l13.7-3.2l11.5,8.2l-0.2,0.4c0,0.1-4.7,9.9-16.3,18.2L285,128.8z
		 M277.6,105.8c0.2,2,1.3,11.3,7.6,21.6c9.8-7.1,14.4-15.3,15.3-17.1l-10.5-7.4L277.6,105.8z"/>
</g>
<g>
	<g>
		
			<ellipse transform="matrix(0.8953 -0.4455 0.4455 0.8953 29.6671 350.7809)" fill="#FFFFFF" cx="761" cy="112.3" rx="18.9" ry="11.1"/>
		<path d="M753.9,125.8c-4.8,0-8.7-1.7-10.2-4.9c-1.4-2.8-0.9-6.4,1.5-10c2.3-3.5,6.1-6.8,10.7-9c9.6-4.8,19.7-4,22.5,1.7
			c2.8,5.7-2.6,14.3-12.2,19C762,124.8,757.6,125.8,753.9,125.8z M756.1,102.3l0.2,0.4c-4.4,2.2-8.1,5.3-10.3,8.7
			c-2.2,3.3-2.7,6.5-1.4,9c2.6,5.2,12.1,5.8,21.2,1.3c9.1-4.5,14.4-12.5,11.8-17.7c-2.6-5.2-12.1-5.8-21.2-1.3L756.1,102.3z"/>
	</g>
	<g>
		
			<ellipse transform="matrix(0.8953 -0.4455 0.4455 0.8953 33.6191 347.5407)" fill="#FFFFFF" cx="756.1" cy="102.3" rx="18.9" ry="11.1"/>
		<path d="M748.9,115.8c-0.5,0-0.9,0-1.4,0c-4.3-0.3-7.5-2-8.9-4.8c-1.4-2.8-0.9-6.4,1.5-10c2.3-3.5,6.1-6.8,10.7-9l0.2,0.4
			l-0.2-0.4c9.6-4.8,19.7-4,22.5,1.7s-2.6,14.3-12.2,19C757.1,114.7,752.8,115.8,748.9,115.8z M763.3,89.7c-3.6,0-7.8,1-11.9,3
			c-4.4,2.2-8.1,5.3-10.3,8.7c-2.2,3.3-2.7,6.5-1.4,9s4.1,4,8,4.3c4,0.3,8.7-0.8,13.2-3c9.1-4.5,14.4-12.5,11.8-17.7
			C771.1,91.2,767.6,89.7,763.3,89.7z"/>
	</g>
	<g>
		
			<ellipse transform="matrix(0.8953 -0.4455 0.4455 0.8953 37.5418 344.2653)" fill="#FFFFFF" cx="751.1" cy="92.3" rx="18.9" ry="11.1"/>
		<path d="M743.9,105.8c-0.5,0-0.9,0-1.4,0c-4.3-0.3-7.5-2-8.9-4.8c-2.8-5.7,2.6-14.3,12.2-19c9.6-4.8,19.7-4,22.5,1.7
			c1.4,2.8,0.9,6.4-1.5,10c-2.3,3.5-6.1,6.8-10.7,9C752.1,104.7,747.8,105.8,743.9,105.8z M758.3,79.7c-3.6,0-7.8,1-11.9,3l0,0
			c-9.1,4.5-14.4,12.5-11.8,17.7c1.2,2.5,4.1,4,8,4.3c4,0.3,8.7-0.8,13.2-3s8.1-5.3,10.3-8.7c2.2-3.3,2.7-6.5,1.4-9
			C766.1,81.2,762.6,79.7,758.3,79.7z"/>
	</g>
</g>
<g>
	<g>
		
			<ellipse transform="matrix(0.4522 -0.8919 0.8919 0.4522 38.3819 175.7226)" fill="#FFFFFF" cx="162.2" cy="56.6" rx="9" ry="15.3"/>
		<path d="M168.1,67.7c-3.2,0-6.7-0.9-10.1-2.6c-3.7-1.9-6.8-4.5-8.7-7.4c-1.9-3-2.3-5.9-1.1-8.2s3.8-3.7,7.3-3.9
			c3.4-0.2,7.4,0.7,11.1,2.6c7.8,3.9,12.2,10.9,9.8,15.6c-1.2,2.3-3.8,3.7-7.3,3.9C168.7,67.7,168.4,67.7,168.1,67.7z M156.4,46.5
			c-0.3,0-0.6,0-0.9,0c-3.2,0.2-5.5,1.4-6.5,3.4l0,0c-1,2-0.6,4.5,1.1,7.2c1.8,2.7,4.7,5.3,8.3,7.1s7.3,2.7,10.6,2.5
			c3.2-0.2,5.5-1.4,6.5-3.4c2.1-4.2-2.1-10.6-9.4-14.3C162.9,47.4,159.5,46.5,156.4,46.5z"/>
	</g>
	<g>
		
			<ellipse transform="matrix(0.4522 -0.8919 0.8919 0.4522 47.7906 174.9627)" fill="#FFFFFF" cx="166.3" cy="48.6" rx="9" ry="15.3"/>
		<path d="M172.1,59.7c-3.2,0-6.7-0.9-10.1-2.6c-7.8-3.9-12.2-10.9-9.8-15.6l0,0c2.4-4.7,10.6-5.3,18.4-1.3
			c7.8,3.9,12.2,10.9,9.8,15.6c-1.2,2.3-3.8,3.7-7.3,3.9C172.8,59.7,172.5,59.7,172.1,59.7z M153.1,41.9c-2.1,4.2,2.1,10.6,9.4,14.3
			c3.6,1.8,7.3,2.7,10.6,2.5c3.2-0.2,5.5-1.4,6.5-3.4c2.1-4.2-2.1-10.6-9.4-14.3C162.9,37.3,155.3,37.7,153.1,41.9L153.1,41.9z"/>
	</g>
	<g>
		
			<ellipse transform="matrix(0.4522 -0.8919 0.8919 0.4522 57.1994 174.2026)" fill="#FFFFFF" cx="170.4" cy="40.5" rx="9" ry="15.3"/>
		<path d="M176.2,51.6c-3.2,0-6.7-0.9-10.1-2.6c-3.7-1.9-6.8-4.5-8.7-7.4c-1.9-3-2.3-5.9-1.1-8.2c2.4-4.7,10.6-5.3,18.4-1.3
			c7.8,3.9,12.2,10.9,9.8,15.6c-1.2,2.3-3.8,3.7-7.3,3.9C176.9,51.6,176.6,51.6,176.2,51.6z M164.6,30.4c-3.4,0-6.2,1.2-7.4,3.4l0,0
			c-1,2-0.6,4.5,1.1,7.2c1.8,2.7,4.7,5.3,8.3,7.1c3.6,1.8,7.3,2.7,10.6,2.5c3.2-0.2,5.5-1.4,6.5-3.4c2.1-4.2-2.1-10.6-9.4-14.3
			C170.9,31.3,167.5,30.4,164.6,30.4z"/>
	</g>
</g>
<g>
	<g>
		
			<ellipse transform="matrix(0.9855 -0.1694 0.1694 0.9855 -41.7624 15.303)" fill="#FFFFFF" cx="68.8" cy="252.4" rx="15.3" ry="9"/>
		<path d="M66,262.2c-2.5,0-4.9-0.4-7-1.2c-3.3-1.3-5.4-3.3-5.8-5.9c-0.4-2.6,0.8-5.2,3.5-7.5c2.6-2.2,6.3-3.8,10.5-4.5l0,0
			c4.1-0.7,8.2-0.4,11.4,0.8c3.3,1.3,5.4,3.3,5.8,5.9c0.4,2.6-0.8,5.2-3.5,7.5c-2.6,2.2-6.3,3.8-10.5,4.5
			C68.9,262,67.5,262.2,66,262.2z M67.4,244c-3.9,0.7-7.5,2.2-10,4.3c-2.4,2-3.5,4.4-3.2,6.6c0.4,2.2,2.2,4,5.2,5.1
			c3.1,1.2,6.9,1.4,10.8,0.7c3.9-0.7,7.5-2.2,10-4.3c2.4-2,3.5-4.4,3.2-6.6c-0.4-2.2-2.2-4-5.2-5.1C75.2,243.6,71.3,243.4,67.4,244
			L67.4,244z"/>
	</g>
	<g>
		
			<ellipse transform="matrix(0.9855 -0.1694 0.1694 0.9855 -40.2926 14.923)" fill="#FFFFFF" cx="67.3" cy="243.6" rx="15.3" ry="9"/>
		<path d="M64.5,253.4c-2.5,0-4.9-0.4-7-1.2c-3.3-1.3-5.4-3.3-5.8-5.9c-0.4-2.6,0.8-5.2,3.5-7.5c2.6-2.2,6.3-3.8,10.5-4.5l0,0
			c4.1-0.7,8.2-0.4,11.4,0.8c3.3,1.3,5.4,3.3,5.8,5.9c0.4,2.6-0.8,5.2-3.5,7.5c-2.6,2.2-6.3,3.8-10.5,4.5
			C67.4,253.2,66,253.4,64.5,253.4z M65.9,235.2c-3.9,0.7-7.5,2.2-10,4.3c-2.4,2-3.5,4.4-3.2,6.6c0.4,2.2,2.2,4,5.2,5.1
			c3.1,1.2,6.9,1.4,10.8,0.7c3.9-0.7,7.5-2.2,10-4.3c2.4-2,3.5-4.4,3.2-6.6c-0.4-2.2-2.2-4-5.2-5.1
			C73.7,234.8,69.8,234.6,65.9,235.2L65.9,235.2z"/>
	</g>
	<g>
		
			<ellipse transform="matrix(0.9855 -0.1694 0.1694 0.9855 -38.8063 14.5387)" fill="#FFFFFF" cx="65.8" cy="234.7" rx="15.3" ry="9"/>
		<path d="M63,244.5c-2.5,0-4.9-0.4-7-1.2c-3.3-1.3-5.4-3.3-5.8-5.9c-0.9-5.2,5.4-10.6,14-12l0,0c4.1-0.7,8.2-0.4,11.4,0.8
			c3.3,1.3,5.4,3.3,5.8,5.9c0.4,2.6-0.8,5.2-3.5,7.5c-2.6,2.2-6.3,3.8-10.5,4.5C65.9,244.3,64.5,244.5,63,244.5z M64.4,226.3
			c-8,1.4-13.9,6.3-13.1,10.9c0.4,2.2,2.2,4,5.2,5.1c3.1,1.2,6.9,1.4,10.8,0.7c3.9-0.7,7.5-2.2,10-4.3c2.4-2,3.5-4.4,3.2-6.6
			c-0.4-2.2-2.2-4-5.2-5.1C72.2,225.9,68.3,225.7,64.4,226.3L64.4,226.3z"/>
	</g>
</g>
<g>
	<g>
		
			<ellipse transform="matrix(0.5085 -0.861 0.861 0.5085 209.3499 861.5593)" fill="#FFFFFF" cx="859.4" cy="247.4" rx="9.2" ry="15.7"/>
		<path d="M865.7,259.1c-3.4,0-7.4-1.1-11.2-3.4c-7.7-4.5-11.7-12-9-16.6l0,0c2.7-4.6,11.2-4.7,18.9-0.1c7.7,4.5,11.7,12,9,16.6
			C872,258,869.1,259.1,865.7,259.1z M846.3,239.7c-2.4,4.1,1.4,11,8.7,15.2c7.2,4.3,15.1,4.4,17.5,0.2c2.4-4.1-1.4-11-8.7-15.2
			C856.6,235.6,848.7,235.5,846.3,239.7L846.3,239.7z"/>
	</g>
	<g>
		
			<ellipse transform="matrix(0.5085 -0.861 0.861 0.5085 218.5099 861.6496)" fill="#FFFFFF" cx="864" cy="239.4" rx="9.2" ry="15.7"/>
		<path d="M870.3,251.1c-3.4,0-7.4-1.1-11.2-3.4c-7.7-4.5-11.7-12-9-16.6l0,0c2.7-4.6,11.2-4.7,18.9-0.1c7.7,4.5,11.7,12,9,16.6
			C876.6,250,873.8,251.1,870.3,251.1z M851,231.7c-2.4,4.1,1.4,11,8.7,15.2c7.2,4.3,15.1,4.4,17.5,0.2c2.4-4.1-1.4-11-8.7-15.2
			C861.3,227.7,853.4,227.6,851,231.7L851,231.7z"/>
	</g>
	<g>
		
			<ellipse transform="matrix(0.5085 -0.861 0.861 0.5085 227.6686 861.8389)" fill="#FFFFFF" cx="868.8" cy="231.5" rx="9.2" ry="15.7"/>
		<path d="M875.1,243.2c-3.4,0-7.4-1.1-11.2-3.4c-7.7-4.5-11.7-12-9-16.6l0,0c2.7-4.6,11.2-4.7,18.9-0.1c7.7,4.5,11.7,12,9,16.6
			C881.4,242,878.5,243.2,875.1,243.2z M855.7,223.8c-2.4,4.1,1.4,11,8.7,15.2c7.2,4.3,15.1,4.4,17.5,0.2c2.4-4.1-1.4-11-8.7-15.2
			C866,219.7,858.1,219.6,855.7,223.8L855.7,223.8z"/>
	</g>
</g>
</svg>
