<?xml version="1.0" encoding="utf-8"?>
<!-- Generator: Adobe Illustrator 21.0.2, SVG Export Plug-In . SVG Version: 6.00 Build 0)  -->
<svg version="1.1" id="Layer_1" xmlns="http://www.w3.org/2000/svg" xmlns:xlink="http://www.w3.org/1999/xlink" x="0px" y="0px"
	 viewBox="0 0 1000 1000" enable-background="new 0 0 1000 1000" xml:space="preserve">
<g>
	<g>
		<g>
			<path fill="#F4F7F9" d="M980,511.7c0,11.5-4.6,22.4-11.7,29.8c-7.1,7.8-17.6,12.5-28.5,12.5H879c15.1,10.8,25.1,28.8,25.1,49.5
				c0,16.3-6.3,31.2-16.8,42s-24.3,17.3-40.2,17.3h-41.5c6.7,9.8,10.5,21.7,10.5,34.6c0,16.3-6.3,31.2-16.8,42s-24.3,17.3-39.8,17.3
				h-461c-20.1,0-37.7-11.2-47.8-27.8h-171c-31,0-56.6-26.8-56.6-59.3v-29.5c0-32.5,25.6-59.3,56.6-59.3h69.6
				c-6.7-9.8-10.5-21.7-10.5-34.2c0-16.3,6.3-31.2,16.8-42c7.1-7.8,16.8-13.2,26.8-15.9H117c-22.2,0-40.2-19-40.2-42.4
				c0-11.5,4.6-22.4,11.7-29.8C96,408.7,106.1,404,117,404h70.4c-4.2-6.8-6.7-14.6-6.7-23v-23.4c0-4.1,0.4-8.1,1.7-12.2h-24.3
				c-22.2,0-40.2-19-40.2-42.4v-23.4c0-23.4,18-42.4,40.2-42.4h574.6c22.2,0,40.2,19,40.2,42.4V303c0,4.1-0.4,8.1-1.7,12.2h24.3
				c22.2,0,40.2,19,40.2,42.4V381c0,23.4-18,42.4-40.2,42.4H760c8.4,7.8,14.3,19.3,14.3,31.8c0,5.1-0.8,9.8-2.5,14.6h167.7
				C962,469.3,980,488.7,980,511.7z"/>
		</g>
	</g>
</g>
<g>
	<g>
		<rect x="304.7" y="327.5" fill="#E2EEF2" width="343.9" height="343.9"/>
	</g>
	<g>
		<path fill="#3A809B" d="M647.1,329v341H306.2V329H647.1 M650.1,326H303.2v347h346.9V326L650.1,326z"/>
	</g>
</g>
<g>
	<g>
		<polygon fill="#EBEFE1" points="421.6,266.8 421.6,327.2 304.4,327.2 304.4,443.3 244,443.3 244,266.8 		"/>
		<path fill="#3A809B" d="M305.9,444.8h-63.4V265.3h180.6v63.4H305.9V444.8z M245.5,441.8h57.4V325.7h117.2v-57.4H245.5V441.8z"/>
	</g>
</g>
<g>
	<g>
		<polygon fill="#F9F2F9" points="149.8,649.9 210.2,649.9 210.2,767.1 326.3,767.1 326.3,827.5 149.8,827.5 		"/>
		<path fill="#3A809B" d="M327.8,829H148.3V648.4h63.4v117.2h116.1V829z M151.3,826h173.5v-57.4H208.7V651.4h-57.4V826z"/>
	</g>
</g>
<g>
	<g>
		<polygon fill="#F9F2F9" points="805.8,349.1 745.4,349.1 745.4,231.9 629.4,231.9 629.4,171.5 805.8,171.5 		"/>
		<path fill="#3A809B" d="M807.3,350.6h-63.4V233.4h-116V170h179.4V350.6z M746.9,347.6h57.4V173H630.9v57.4h116V347.6z"/>
	</g>
</g>
<g>
	<g>
		<polygon fill="#EBEFE1" points="531.1,731.6 531.1,671.2 648.3,671.2 648.3,555.1 708.7,555.1 708.7,731.6 		"/>
		<path fill="#3A809B" d="M710.2,733.1H529.6v-63.4h117.2V553.6h63.4V733.1z M532.6,730.1h174.6V556.6h-57.4v116.1H532.6V730.1z"/>
	</g>
</g>
<g>
	<g>
		<g>
			
				<rect x="225.8" y="749.2" transform="matrix(0.7071 -0.7071 0.7071 0.7071 -463.9552 380.3124)" fill="#3A809B" width="2.5" height="2"/>
		</g>
		<g>
			<path fill="#3A809B" d="M232.1,746.6l-1.4-1.4l3.4-3.4l1.4,1.4L232.1,746.6z M239,739.8l-1.4-1.4l3.4-3.4l1.4,1.4L239,739.8z
				 M245.8,732.9l-1.4-1.4l3.4-3.4l1.4,1.4L245.8,732.9z M252.7,726l-1.4-1.4l3.4-3.4l1.4,1.4L252.7,726z M259.5,719.2l-1.4-1.4
				l3.4-3.4l1.4,1.4L259.5,719.2z M266.4,712.3l-1.4-1.4l3.4-3.4l1.4,1.4L266.4,712.3z M273.2,705.5l-1.4-1.4l3.4-3.4l1.4,1.4
				L273.2,705.5z M280.1,698.6l-1.4-1.4l3.4-3.4l1.4,1.4L280.1,698.6z M287,691.8l-1.4-1.4l3.4-3.4l1.4,1.4L287,691.8z"/>
		</g>
		<g>
			
				<rect x="292.7" y="682.3" transform="matrix(0.7071 -0.7071 0.7071 0.7071 -397.0557 408.0234)" fill="#3A809B" width="2.5" height="2"/>
		</g>
	</g>
</g>
<g>
	<g>
		<g>
			
				<rect x="660.3" y="314.7" transform="matrix(0.7071 -0.7071 0.7071 0.7071 -29.4554 560.2883)" fill="#3A809B" width="2.5" height="2"/>
		</g>
		<g>
			<path fill="#3A809B" d="M666.6,312.1l-1.4-1.4l3.4-3.4l1.4,1.4L666.6,312.1z M673.5,305.3l-1.4-1.4l3.4-3.4l1.4,1.4L673.5,305.3z
				 M680.3,298.4l-1.4-1.4l3.4-3.4l1.4,1.4L680.3,298.4z M687.2,291.5l-1.4-1.4l3.4-3.4l1.4,1.4L687.2,291.5z M694,284.7l-1.4-1.4
				l3.4-3.4l1.4,1.4L694,284.7z M700.9,277.8l-1.4-1.4l3.4-3.4l1.4,1.4L700.9,277.8z M707.7,271l-1.4-1.4l3.4-3.4l1.4,1.4L707.7,271
				z M714.6,264.1l-1.4-1.4l3.4-3.4l1.4,1.4L714.6,264.1z M721.5,257.3l-1.4-1.4l3.4-3.4l1.4,1.4L721.5,257.3z"/>
		</g>
		<g>
			
				<rect x="727.2" y="247.8" transform="matrix(0.7071 -0.7071 0.7071 0.7071 37.4445 587.9991)" fill="#3A809B" width="2.5" height="2"/>
		</g>
	</g>
</g>
<g>
	<path fill="#3A809B" d="M298.2,688.5c-0.1,0-0.1,0-0.2,0c-0.5-0.1-0.9-0.6-0.8-1.2l1.4-8.3l-8.1,0.7c-0.6,0-1-0.4-1.1-0.9
		c0-0.6,0.4-1,0.9-1.1l10.7-0.9l-1.8,10.9C299.1,688.2,298.7,688.5,298.2,688.5z"/>
</g>
<g>
	<path fill="#3A809B" d="M655.2,321.6l1.8-10.9c0.1-0.5,0.6-0.9,1.2-0.8c0.5,0.1,0.9,0.6,0.8,1.2l-1.4,8.3l8.1-0.7
		c0.6,0,1,0.4,1.1,0.9s-0.4,1-0.9,1.1L655.2,321.6z"/>
</g>
<g>
	<g>
		<g>
			<circle fill="#FFFFFF" cx="477.6" cy="498.6" r="77.2"/>
		</g>
	</g>
	<g>
		<g>
			<path fill="#34ADE2" d="M476.2,577.5c-43.8-0.7-79-37.3-77.5-81.6c1.4-40.8,34-74.1,74.8-76.2c19.6-1,37.7,5.1,52,16.1
				c0.4,0.4,0.6,1,0.2,1.5l0,0c-0.4,0.4-1,0.6-1.4,0.2c-12.9-9.9-29.1-15.8-46.6-15.8c-43.4,0-78.5,36.1-76.9,79.9
				c1.5,39.9,33.9,72.2,73.8,73.8c43.7,1.7,79.9-33.4,79.9-76.9c0-7.9-1.2-15.4-3.4-22.5c-0.2-0.6,0.1-1.1,0.7-1.3l0,0
				c0.6-0.2,1.2,0.1,1.3,0.7c2.5,8.2,3.8,17.1,3.4,26.2C554.9,544.4,519,578.3,476.2,577.5z"/>
		</g>
	</g>
	<g>
		<g>
			<path fill="#34ADE2" d="M478,533.4c-0.4,0-0.7-0.1-1-0.4c-0.2-0.2-0.4-0.6-0.4-1v-32.4h-32.4c-0.7,0-1.4-0.6-1.4-1.4
				c0-0.7,0.6-1.4,1.4-1.4h32.4v-32.4c0-0.7,0.6-1.4,1.4-1.4s1.4,0.6,1.4,1.4v32.4h32.4c0.7,0,1.4,0.6,1.4,1.4c0,0.4-0.1,0.7-0.4,1
				c-0.2,0.2-0.6,0.4-1,0.4h-32.4V532C479.4,532.8,478.8,533.4,478,533.4z"/>
		</g>
	</g>
</g>
</svg>
