<?xml version="1.0" encoding="utf-8"?>
<!-- Generator: Adobe Illustrator 21.0.2, SVG Export Plug-In . SVG Version: 6.00 Build 0)  -->
<svg version="1.1" id="Layer_1" xmlns="http://www.w3.org/2000/svg" xmlns:xlink="http://www.w3.org/1999/xlink" x="0px" y="0px"
	 viewBox="0 0 1000 1000" enable-background="new 0 0 1000 1000" xml:space="preserve">
<g>
	<g>
		<g>
			<path fill="#8DE3F7" d="M225,837.5c-15.5,0-28.1-12.6-28.1-28.1V466.7c0-15.5,12.6-28.1,28.1-28.1h535.7
				c15.5,0,28.1,12.6,28.1,28.1v342.6c0,15.5-12.6,28.1-28.1,28.1L225,837.5L225,837.5z"/>
		</g>
		<g>
			<g>
				<path d="M760.8,439.1c15.2,0,27.6,12.4,27.6,27.6v342.6c0,15.2-12.4,27.6-27.6,27.6H225c-15.2,0-27.6-12.4-27.6-27.6V466.7
					c0-15.2,12.4-27.6,27.6-27.6H760.8 M760.8,438.1H225c-15.8,0-28.6,12.8-28.6,28.6v342.6c0,15.8,12.8,28.6,28.6,28.6h535.7
					c15.8,0,28.6-12.8,28.6-28.6V466.7C789.4,450.9,776.6,438.1,760.8,438.1L760.8,438.1z"/>
			</g>
		</g>
	</g>
	<g>
		<g>
			<path fill="#C0EEFC" d="M216.4,837.5c-11.4,0-20.7-8.9-21.1-20.3l-14.1-356.1c-0.2-4,0.8-8,2.9-11.5l24.7-44.6
				c3.8-6.5,10.8-10.5,18.3-10.5h149c7.1,0,13.7,3.6,17.7,9.5l21.8,41.3c4.1,6.3,11,10,18.5,10h347.3c5.8,0,11.2,2.3,15.2,6.5
				s6.1,9.7,5.9,15.5L789,817.2c-0.5,11.4-9.7,20.3-21.1,20.3H216.4z"/>
		</g>
		<g>
			<path d="M376.1,395c6.9,0,13.4,3.5,17.2,9.2l21.8,41.3l0,0l0,0c4.2,6.4,11.3,10.2,18.9,10.2h347.3c5.7,0,11,2.3,14.9,6.3
				c3.9,4.1,6,9.5,5.7,15.1L788.4,817c-0.4,11.1-9.5,19.8-20.6,19.8H216.4c-11.1,0-20.2-8.7-20.6-19.8l-14.1-356.1
				c-0.2-3.9,0.8-7.8,2.8-11.2l24.7-44.6c3.7-6.3,10.5-10.3,17.9-10.3h149 M376.1,394H227c-7.7,0-14.8,4.1-18.7,10.8l-24.7,44.6
				c-2.1,3.6-3.1,7.6-2.9,11.7l14.1,356.1c0.5,11.6,10,20.8,21.6,20.8h551.4c11.6,0,21.2-9.2,21.6-20.8L803,477.3
				c0.5-12.3-9.3-22.5-21.6-22.5H434c-7.3,0-14.1-3.7-18.1-9.7l-21.8-41.4C390.1,397.7,383.3,394,376.1,394L376.1,394z"/>
		</g>
	</g>
</g>
<g>
	<g>
		<circle fill="#FFFFFF" cx="761.4" cy="784.8" r="110.8"/>
	</g>
	<g>
		<path fill="#3F3F3F" d="M874.6,786.7c-1.1,62.8-53.5,113.3-117.1,111.2c-58.5-2-106.2-48.8-109.2-107.2
			c-1.4-28.1,7.4-54.1,23.1-74.6c0.5-0.7,1.5-0.8,2.1-0.3l0,0c0.6,0.5,0.8,1.4,0.3,2.1c-14.2,18.6-22.6,41.7-22.6,66.8
			c0,62.2,51.8,112.6,114.6,110.2c57.2-2.2,103.6-48.6,105.8-105.8c2.4-62.8-47.9-114.6-110.2-114.6c-11.2,0-22.1,1.7-32.3,4.8
			c-0.8,0.2-1.6-0.2-1.9-1l0,0c-0.3-0.8,0.2-1.6,1-1.9c11.8-3.6,24.5-5.4,37.6-4.9C827,673.9,875.7,725.4,874.6,786.7z"/>
	</g>
	<g>
		<path fill="#3F3F3F" d="M811.4,784.3c0,0.5-0.2,1-0.6,1.4c-0.4,0.4-0.9,0.6-1.4,0.6h-46.5v46.5c0,1.1-0.9,2-2,2s-2-0.9-2-2v-46.5
			h-46.5c-1.1,0-2-0.9-2-2s0.9-2,2-2h46.5v-46.5c0-1.1,0.9-2,2-2c0.5,0,1,0.2,1.4,0.6c0.4,0.4,0.6,0.9,0.6,1.4v46.5h46.5
			C810.5,782.3,811.4,783.2,811.4,784.3z"/>
	</g>
</g>
<g>
	<g>
		<g>
			<g>
				<path fill="#C0EEFC" d="M403,692.1c-1.1,0-2.1-0.9-2.1-2.1V586.3c0-1.1,0.9-2.1,2.1-2.1h179.1c1.1,0,2.1,0.9,2.1,2.1V690
					c0,1.1-0.9,2.1-2.1,2.1H403z"/>
			</g>
			<g>
				<path d="M582.1,584.7c0.8,0,1.6,0.7,1.6,1.6V690c0,0.8-0.7,1.6-1.6,1.6H403c-0.8,0-1.6-0.7-1.6-1.6V586.3c0-0.8,0.7-1.6,1.6-1.6
					H582.1 M582.1,583.7H403c-1.4,0-2.6,1.2-2.6,2.6V690c0,1.4,1.2,2.6,2.6,2.6h179.1c1.4,0,2.6-1.2,2.6-2.6V586.3
					C584.6,584.9,583.5,583.7,582.1,583.7L582.1,583.7z"/>
			</g>
		</g>
		<g>
			<path fill="#2AA0C4" d="M579,589.4v97.5H406.1v-97.5H579 M582.1,578.1H403c-4.5,0-8.2,3.7-8.2,8.2V690c0,4.5,3.7,8.2,8.2,8.2
				h179.1c4.5,0,8.2-3.7,8.2-8.2V586.3C590.3,581.8,586.6,578.1,582.1,578.1L582.1,578.1z"/>
		</g>
	</g>
	<g>
		<polygon fill="#2AA0C4" points="522.6,742.4 461.2,742.4 474,711.7 509.8,711.7 		"/>
	</g>
</g>
<g>
	<g>
		<path fill="#5E5E5E" d="M627.8,261.1h-48V232h48V261.1z M580.8,260.1h46V233h-46V260.1z"/>
	</g>
	<g>
		<polygon fill="#4D4D4D" points="609,267.3 599.2,267.3 600.4,263 607.8,263 		"/>
	</g>
</g>
<g>
	<g>
		<path fill="#5E5E5E" d="M94.5,221.4l-16.1-33.6l55.6-26.7l16.1,33.6L94.5,221.4z M79.7,188.2L95,220l53.8-25.8l-15.3-31.8
			L79.7,188.2z"/>
	</g>
	<g>
		<polygon fill="#4D4D4D" points="131.9,212.5 120.5,217.9 119.5,212.3 128.1,208.2 		"/>
	</g>
</g>
<g>
	<g>
		<path fill="#5E5E5E" d="M309.9,146.7l-4.3-24.9l41.1-7.1l4.3,24.9L309.9,146.7z M306.8,122.6l4,23l39.1-6.8l-4-23L306.8,122.6z"/>
	</g>
	<g>
		<polygon fill="#4D4D4D" points="335.8,147.6 327.5,149 327.9,145.2 334.1,144.1 		"/>
	</g>
</g>
<g>
	<g>
		<path fill="#5E5E5E" d="M835.6,361.6l-10.2-27.3l45-16.8l10.2,27.3L835.6,361.6z M826.7,334.9l9.5,25.4l43.1-16.1l-9.5-25.4
			L826.7,334.9z"/>
	</g>
	<g>
		<polygon fill="#4D4D4D" points="865.1,357.2 856,360.6 855.6,356.2 862.5,353.6 		"/>
	</g>
</g>
<g>
	<g>
		<path fill="#5E5E5E" d="M759.8,153.7l-33-10.2l6.2-20.1l33,10.2L759.8,153.7z M728.1,142.9l31.1,9.6l5.6-18.2l-31.1-9.6
			L728.1,142.9z"/>
	</g>
	<g>
		<polygon fill="#4D4D4D" points="745.6,153.8 739,151.8 740.7,149.1 745.7,150.7 		"/>
	</g>
</g>
<g>
	<g>
		<path fill="#FFFFFF" d="M327,278.3l-36.2,9.8c-1.3,0.4-2.7-0.4-3.1-1.8l-6.7-24.7c-0.4-1.3,0.4-2.7,1.8-3.1l36.2-9.8
			c1.3-0.4,2.7,0.4,3.1,1.8l6.7,24.7C329.1,276.5,328.3,277.9,327,278.3z"/>
		<path fill="#5E5E5E" d="M290.1,288.7c-0.5,0-1-0.1-1.5-0.4c-0.7-0.4-1.2-1-1.4-1.8l-6.7-24.7c-0.2-0.8-0.1-1.6,0.3-2.3
			s1-1.2,1.8-1.4l36.2-9.8c0.8-0.2,1.6-0.1,2.3,0.3c0.7,0.4,1.2,1,1.4,1.8l6.7,24.7c0.4,1.6-0.5,3.3-2.1,3.7l-36.2,9.8
			C290.7,288.7,290.4,288.7,290.1,288.7z M319.6,249.1c-0.2,0-0.4,0-0.5,0.1l-36.2,9.8c-0.5,0.1-1,0.5-1.2,0.9
			c-0.3,0.5-0.3,1-0.2,1.5l6.7,24.7c0.3,1.1,1.4,1.7,2.5,1.4l36.2-9.8c1.1-0.3,1.7-1.4,1.4-2.5l-6.7-24.7c-0.1-0.5-0.5-1-0.9-1.2
			C320.3,249.2,320,249.1,319.6,249.1z"/>
	</g>
	<g>
		<path fill="#FFFFFF" d="M327.5,278.1l-37.2,10.1c-1.1,0.3-2.2-0.3-2.6-1.4l-8.3-24.7c-0.1-0.3-0.1-0.6-0.1-0.9l0.3-2.6
			c0.1-0.9,0.7-1.6,1.6-1.8l5.9-1.6c0.8-0.2,1.7,0.1,2.2,0.7l1.1,1.4c0.5,0.7,1.4,1,2.2,0.7l28.8-7.8c1.2-0.3,2.4,0.4,2.6,1.6
			l5,23.8C329.2,276.8,328.6,277.8,327.5,278.1z"/>
		<path fill="#5E5E5E" d="M289.8,288.8c-1.1,0-2.1-0.7-2.5-1.8l-8.3-24.7c-0.1-0.4-0.2-0.7-0.1-1.1l0.3-2.6c0.1-1.1,0.9-2,1.9-2.3
			l5.9-1.6c1-0.3,2.1,0.1,2.8,0.9l1.1,1.4c0.4,0.5,1.1,0.7,1.7,0.6l28.8-7.8c0.7-0.2,1.4-0.1,2.1,0.3c0.6,0.4,1,1,1.2,1.7l5,23.8
			c0.3,1.4-0.5,2.7-1.9,3.1l-37.2,10.1C290.2,288.8,290,288.8,289.8,288.8z M287.6,255.6c-0.1,0-0.3,0-0.4,0.1l-5.9,1.6
			c-0.6,0.2-1.1,0.7-1.2,1.4l-0.3,2.6c0,0.2,0,0.5,0.1,0.7l8.3,24.7c0.3,0.8,1.1,1.3,2,1l37.2-10.1c0.8-0.2,1.3-1.1,1.2-1.9l-5-23.8
			c-0.1-0.4-0.4-0.8-0.7-1c-0.4-0.2-0.8-0.3-1.3-0.2l-28.8,7.8c-1,0.3-2.1-0.1-2.8-0.9l-1.1-1.4
			C288.6,255.9,288.1,255.6,287.6,255.6z"/>
	</g>
</g>
<g>
	<g>
		<path fill="#FFFFFF" d="M128.6,380.5l-37.5,0.6c-1.4,0-2.5-1.1-2.5-2.5L88.2,353c0-1.4,1.1-2.5,2.5-2.5l37.5-0.6
			c1.4,0,2.5,1.1,2.5,2.5l0.4,25.6C131.1,379.3,130,380.5,128.6,380.5z"/>
		<path fill="#5E5E5E" d="M91.1,381.6c-1.6,0-3-1.3-3-3L87.7,353c0-1.7,1.3-3,3-3.1l37.5-0.6c1.6,0,3,1.3,3.1,3l0.4,25.6
			c0,1.7-1.3,3-3,3.1L91.1,381.6L91.1,381.6z M128.2,350.4L128.2,350.4L90.6,351c-1.1,0-2,0.9-2,2l0.4,25.6c0,1.1,0.9,2,2,2
			l37.5-0.6c1.1,0,2-0.9,2-2l-0.4-25.6C130.2,351.3,129.3,350.4,128.2,350.4z"/>
	</g>
	<g>
		<path fill="#FFFFFF" d="M129.1,380.5l-38.5,0.6c-1.1,0-2.1-0.8-2.1-2l-2-26c0-0.3,0-0.6,0.1-0.9l0.9-2.5c0.3-0.8,1.1-1.4,2-1.4
			l6.1-0.1c0.9,0,1.6,0.5,2,1.3l0.7,1.6c0.3,0.8,1.1,1.3,2,1.3l29.9-0.5c1.2,0,2.2,1,2.2,2.2l-1.1,24.3
			C131.2,379.6,130.2,380.5,129.1,380.5z"/>
		<path fill="#5E5E5E" d="M90.6,381.6c-1.4,0-2.5-1.1-2.6-2.4l-2-26c0-0.4,0-0.7,0.2-1.1l0.9-2.5c0.4-1,1.3-1.7,2.4-1.7l6.1-0.1
			c1.1,0,2,0.6,2.4,1.6l0.7,1.6c0.3,0.6,0.8,1,1.5,1l0,0l29.9-0.5c0.8,0,1.4,0.3,1.9,0.8s0.8,1.2,0.7,1.9l-1.1,24.3
			c-0.1,1.4-1.2,2.5-2.6,2.5L90.6,381.6L90.6,381.6z M95.6,348.8L95.6,348.8l-6.2,0.1c-0.7,0-1.3,0.4-1.5,1.1l-0.9,2.5
			c-0.1,0.2-0.1,0.4-0.1,0.7l2,26c0.1,0.9,0.8,1.5,1.6,1.5l38.5-0.6c0.9,0,1.6-0.7,1.6-1.5l1.1-24.3c0-0.5-0.1-0.9-0.5-1.2
			c-0.3-0.3-0.8-0.5-1.2-0.5l-29.9,0.5c-1.1,0-2-0.6-2.4-1.6l-0.7-1.6C96.9,349.1,96.3,348.8,95.6,348.8z"/>
	</g>
</g>
<g>
	<g>
		<path fill="#FFFFFF" d="M475.2,214l-32.5-18.6c-1.2-0.7-1.6-2.2-0.9-3.4l12.7-22.2c0.7-1.2,2.2-1.6,3.4-0.9l32.5,18.6
			c1.2,0.7,1.6,2.2,0.9,3.4l-12.7,22.2C477.9,214.3,476.4,214.7,475.2,214z"/>
		<path fill="#5E5E5E" d="M476.4,214.8c-0.5,0-1-0.1-1.5-0.4l-32.5-18.6c-1.4-0.8-1.9-2.7-1.1-4.1l12.7-22.2c0.4-0.7,1-1.2,1.8-1.4
			s1.6-0.1,2.3,0.3l32.5,18.6c1.4,0.8,1.9,2.7,1.1,4.1L479,213.3c-0.4,0.7-1,1.2-1.8,1.4C477,214.8,476.7,214.8,476.4,214.8z
			 M475.4,213.6c0.5,0.3,1,0.3,1.5,0.2s1-0.5,1.2-0.9l12.7-22.2c0.6-1,0.2-2.2-0.7-2.7l-32.5-18.6c-0.5-0.3-1-0.3-1.5-0.2
			s-1,0.5-1.2,0.9l-12.7,22.2c-0.6,1-0.2,2.2,0.7,2.7L475.4,213.6z"/>
	</g>
	<g>
		<path fill="#FFFFFF" d="M475.6,214.3l-33.4-19.1c-1-0.6-1.3-1.8-0.8-2.8L453,169c0.1-0.3,0.3-0.5,0.6-0.7l2-1.7
			c0.7-0.6,1.6-0.6,2.4-0.2l5.3,3c0.7,0.4,1.2,1.3,1.1,2.1l-0.2,1.8c-0.1,0.8,0.3,1.7,1.1,2.1l25.9,14.8c1.1,0.6,1.4,2,0.7,3
			l-13.3,20.3C477.9,214.5,476.6,214.8,475.6,214.3z"/>
		<path fill="#5E5E5E" d="M476.7,215c-0.4,0-0.9-0.1-1.3-0.3L442,195.6c-1.2-0.7-1.7-2.2-1-3.4l11.6-23.4c0.2-0.3,0.4-0.6,0.7-0.9
			l2-1.7c0.8-0.7,2-0.8,3-0.2l5.3,3c0.9,0.5,1.4,1.5,1.3,2.6l-0.2,1.8c-0.1,0.7,0.2,1.3,0.8,1.6l25.9,14.8c0.6,0.4,1.1,1,1.2,1.7
			c0.2,0.7,0,1.4-0.4,2l-13.3,20.3C478.4,214.6,477.5,215,476.7,215z M475.9,213.8c0.7,0.4,1.7,0.2,2.2-0.5l13.3-20.3
			c0.2-0.4,0.3-0.8,0.2-1.3c-0.1-0.4-0.4-0.8-0.8-1l-25.9-14.8c-0.9-0.5-1.4-1.5-1.3-2.6l0.2-1.8c0.1-0.7-0.2-1.3-0.8-1.6l-5.3-3
			c-0.6-0.3-1.3-0.3-1.8,0.2l-2,1.7c-0.2,0.1-0.3,0.3-0.4,0.5l-11.6,23.4c-0.4,0.8-0.1,1.7,0.6,2.1L475.9,213.8z"/>
	</g>
</g>
<g>
	<g>
		<path fill="#FFFFFF" d="M793,274.8l-26.4-1.6c-1.4-0.1-2.4-1.3-2.3-2.7l1.1-17.6c0.1-1.4,1.3-2.4,2.7-2.3l26.4,1.6
			c1.4,0.1,2.4,1.3,2.3,2.7l-1.1,17.6C795.5,273.8,794.4,274.9,793,274.8z"/>
		<path fill="#5E5E5E" d="M793.1,275.3c-0.1,0-0.1,0-0.2,0l-26.4-1.6c-0.8-0.1-1.5-0.4-2.1-1c-0.5-0.6-0.8-1.4-0.7-2.2l1.1-17.6
			c0-0.8,0.4-1.5,1-2.1c0.6-0.5,1.4-0.8,2.2-0.7l26.4,1.6c1.7,0.1,2.9,1.5,2.8,3.2l-1.1,17.6C796,274,794.7,275.3,793.1,275.3z
			 M767.9,251c-0.5,0-1,0.2-1.3,0.5c-0.4,0.4-0.6,0.8-0.7,1.4l-1.1,17.6c0,0.5,0.1,1.1,0.5,1.5s0.8,0.6,1.4,0.7l26.4,1.6
			c0.5,0,1.1-0.1,1.5-0.5s0.6-0.8,0.7-1.4l1.1-17.6c0.1-1.1-0.8-2.1-1.9-2.1L767.9,251C767.9,251,767.9,251,767.9,251z"/>
	</g>
	<g>
		<path fill="#FFFFFF" d="M794,274.8l-28.4-1.8c-0.8-0.1-1.5-0.7-1.5-1.6l0.1-19.3c0-0.2,0-0.4,0.1-0.6l0.8-1.8
			c0.3-0.6,0.9-1,1.5-0.9l4.5,0.3c0.6,0,1.2,0.5,1.4,1.1l0.4,1.2c0.2,0.6,0.8,1,1.4,1.1l22,1.4c0.9,0.1,1.6,0.9,1.5,1.8l-2.2,17.8
			C795.6,274.3,794.8,274.9,794,274.8z"/>
		<path fill="#5E5E5E" d="M794.1,275.3L794.1,275.3l-28.5-1.8c-1.1-0.1-1.9-1-1.9-2.1l0.1-19.3c0-0.3,0.1-0.6,0.2-0.9l0.8-1.8
			c0.4-0.8,1.2-1.3,2-1.2l4.5,0.3c0.8,0.1,1.6,0.6,1.8,1.4l0.4,1.2c0.1,0.4,0.5,0.7,0.9,0.7l22,1.4c0.6,0,1.1,0.3,1.5,0.7
			s0.5,1,0.5,1.6l-2.2,17.8C796,274.6,795.1,275.3,794.1,275.3z M794,274.3c0.6,0,1.1-0.4,1.1-0.9l2.2-17.8c0-0.3,0-0.6-0.2-0.8
			s-0.5-0.4-0.8-0.4l-22-1.4c-0.8-0.1-1.6-0.6-1.8-1.4l-0.4-1.2c-0.1-0.4-0.5-0.7-0.9-0.7l-4.5-0.3c-0.4,0-0.9,0.2-1,0.6l-0.8,1.8
			c-0.1,0.1-0.1,0.3-0.1,0.4l-0.1,19.3c0,0.6,0.4,1,1,1.1L794,274.3z"/>
	</g>
</g>
<g>
	<g>
		<path fill="#FFFFFF" d="M911.4,166.4l-29.8,17.1c-1.2,0.7-2.7,0.3-3.4-0.9l-11.6-20.2c-0.7-1.2-0.3-2.7,0.9-3.4l29.8-17.1
			c1.2-0.7,2.7-0.3,3.4,0.9l11.6,20.2C913.1,164.2,912.6,165.7,911.4,166.4z"/>
		<path fill="#5E5E5E" d="M880.4,184.3c-0.3,0-0.5,0-0.8-0.1c-0.8-0.2-1.4-0.7-1.8-1.4l-11.6-20.2c-0.4-0.7-0.5-1.5-0.3-2.3
			s0.7-1.4,1.4-1.8l29.8-17.1c1.4-0.8,3.3-0.3,4.1,1.1l11.6,20.2c0.8,1.4,0.3,3.3-1.1,4.1l-29.8,17.1
			C881.4,184.2,880.9,184.3,880.4,184.3z M898.6,142c-0.3,0-0.7,0.1-1,0.3l-29.8,17.1c-0.5,0.3-0.8,0.7-0.9,1.2s-0.1,1.1,0.2,1.5
			l11.6,20.2c0.3,0.5,0.7,0.8,1.2,0.9c0.5,0.1,1.1,0.1,1.5-0.2l29.8-17.1c1-0.6,1.3-1.8,0.7-2.7L900.3,143
			C900,142.3,899.3,142,898.6,142z"/>
	</g>
	<g>
		<path fill="#FFFFFF" d="M912,166.1l-30.9,17.8c-0.9,0.5-2,0.2-2.6-0.6L865.2,163c-0.2-0.2-0.3-0.5-0.3-0.8l-0.4-2.4
			c-0.1-0.8,0.3-1.6,1-2l4.9-2.8c0.7-0.4,1.5-0.3,2.2,0.1l1.3,1c0.6,0.5,1.5,0.5,2.2,0.1l24-13.8c1-0.6,2.2-0.2,2.7,0.8l10,20.1
			C913.3,164.4,912.9,165.5,912,166.1z"/>
		<path fill="#5E5E5E" d="M880.1,184.6c-0.8,0-1.6-0.4-2.1-1.1l-13.2-20.2c-0.2-0.3-0.3-0.6-0.4-1l-0.4-2.4c-0.2-1,0.3-2,1.2-2.5
			l4.9-2.8c0.9-0.5,1.9-0.4,2.7,0.2l1.3,1c0.5,0.4,1.1,0.4,1.6,0.1l24-13.8c0.6-0.3,1.3-0.4,1.9-0.2c0.6,0.2,1.2,0.7,1.5,1.3
			l10,20.1c0.6,1.2,0.1,2.6-1,3.2l-30.9,17.8C880.9,184.5,880.5,184.6,880.1,184.6z M871.4,155.2c-0.2,0-0.5,0.1-0.7,0.2l-4.9,2.8
			c-0.5,0.3-0.8,0.9-0.7,1.5l0.4,2.4c0,0.2,0.1,0.4,0.2,0.6l13.2,20.2c0.4,0.6,1.3,0.9,2,0.5l30.9-17.8c0.7-0.4,0.9-1.2,0.6-1.9
			l-10-20.1c-0.2-0.4-0.5-0.6-0.9-0.7c-0.4-0.1-0.8-0.1-1.2,0.1l-24,13.8c-0.9,0.5-1.9,0.4-2.7-0.2l-1.3-1
			C872,155.3,871.7,155.2,871.4,155.2z"/>
	</g>
</g>
</svg>
