<?xml version="1.0" encoding="utf-8"?>
<!-- Generator: Adobe Illustrator 21.0.2, SVG Export Plug-In . SVG Version: 6.00 Build 0)  -->
<svg version="1.1" id="Layer_1" xmlns="http://www.w3.org/2000/svg" xmlns:xlink="http://www.w3.org/1999/xlink" x="0px" y="0px"
	 viewBox="0 0 1000 1000" enable-background="new 0 0 1000 1000" xml:space="preserve">
<g>
	<g>
		<g>
			<path fill="#EDF0F2" d="M977,511.5c0,8.7-4.5,16.9-11.4,22.6c-6.9,5.9-17.1,9.5-27.7,9.5h-59.1c14.7,8.2,24.5,21.8,24.5,37.5
				c0,12.3-6.1,23.6-16.3,31.8S863.4,626,847.9,626h-40.4c6.5,7.4,10.2,16.4,10.2,26.2c0,12.3-6.1,23.6-16.3,31.8
				s-23.6,13.1-38.7,13.1H314c-19.6,0-36.7-8.5-46.5-21H101.1c-30.2,0-55-20.3-55-44.9v-22.3c0-24.6,24.9-44.9,55-44.9h67.7
				c-6.5-7.4-10.2-16.4-10.2-25.9c0-12.3,6.1-23.6,16.3-31.8c6.9-5.9,16.3-10,26.1-12.1h-63.6c-21.6,0-39.1-14.4-39.1-32.1
				c0-8.7,4.5-16.9,11.4-22.6c7.3-5.9,17.1-9.5,27.7-9.5h68.5c-4.1-5.1-6.5-11-6.5-17.4v-17.7c0-3.1,0.4-6.2,1.6-9.2h-23.6
				c-21.6,0-39.1-14.4-39.1-32.1v-17.7c0-17.7,17.5-32.1,39.1-32.1h559c21.6,0,39.1,14.4,39.1,32.1v17.7c0,3.1-0.4,6.2-1.6,9.2h23.6
				c21.6,0,39.1,14.4,39.1,32.1v17.7c0,17.7-17.5,32.1-39.1,32.1h-34.7c8.2,5.9,13.9,14.6,13.9,24.1c0,3.8-0.8,7.4-2.4,11h163.1
				C959.5,479.4,977,494.1,977,511.5z"/>
		</g>
	</g>
</g>
<g>
	<circle fill="#F4D4B3" cx="479" cy="509" r="263"/>
	<path fill="#CE9345" d="M479,773.5c-70.7,0-137.1-27.5-187-77.5c-50-50-77.5-116.4-77.5-187S242,371.9,292,322s116.4-77.5,187-77.5
		S616.1,272,666,322c50,50,77.5,116.4,77.5,187S716,646.1,666,696C616.1,746,549.7,773.5,479,773.5z M479,247.5
		c-69.8,0-135.5,27.2-184.9,76.6c-49.4,49.4-76.6,115.1-76.6,184.9c0,69.8,27.2,135.5,76.6,184.9c49.4,49.4,115.1,76.6,184.9,76.6
		c69.8,0,135.5-27.2,184.9-76.6s76.6-115.1,76.6-184.9c0-69.8-27.2-135.5-76.6-184.9C614.5,274.7,548.8,247.5,479,247.5z"/>
</g>
<g>
	<g>
		<g>
			<rect x="640.5" y="280.6" width="142.5" height="2.2"/>
		</g>
	</g>
	<g>
		<g>
			<rect x="640.5" y="230.3" width="51.1" height="2.2"/>
		</g>
	</g>
</g>
<g>
	<g>
		<g>
			<rect x="141" y="755.1" width="217" height="1.4"/>
		</g>
	</g>
	<g>
		<g>
			<rect x="198.6" y="786.9" width="125.7" height="1.4"/>
		</g>
	</g>
</g>
<g id="Canvas" transform="translate(3448 3101)">
	<g id="Java">
		<g id="XMLID_7">
			<g id="XMLID_8">
				<g transform="translate(-3428.51 -3101)">
					<path id="path0_fill" fill="#FFFFFF" d="M-2974-2701.3c-14.3,9.9-30.5,21.2-39.2,39.9c-15.1,32.5,30.9,68,32.8,69.5
						c0.5,0.3,1,0.5,1.5,0.5c0.6,0,1.2-0.2,1.6-0.6c0.9-0.8,1.2-2,0.6-3.1c-0.2-0.3-16.7-32-16-54.7c0.2-7.9,11.4-16.9,23.3-26.4
						c10.9-8.7,23.2-18.6,30.4-30.1c15.8-25.4-1.8-50.4-1.9-50.6c-0.7-1-2-1.3-3.1-0.8s-1.7,1.7-1.5,2.8c0,0.2,3.5,16.7-6.1,33.7
						C-2955.5-2714.2-2964.1-2708.2-2974-2701.3z"/>
				</g>
			</g>
			<g id="XMLID_9">
				<g transform="translate(-3417.38 -3083.6)">
					<path id="path1_fill" fill="#FFFFFF" d="M-2913.8-2690.1c1-0.8,1.3-2.1,0.7-3.2c-0.6-1.1-1.9-1.6-3.1-1.1
						c-2.4,0.9-59.5,22.7-59.5,48.9c0,18.1,7.8,27.7,13.5,34.7c2.2,2.7,4.2,5.1,4.8,7.1c1.8,5.8-2.5,16.3-4.2,19.9
						c-0.5,1-0.3,2.3,0.6,3c0.5,0.4,1.1,0.6,1.7,0.6c0.5,0,1-0.1,1.4-0.4c1-0.7,24-16.8,19.9-36.1c-1.5-7.4-5.2-12.7-8.4-17.5
						c-5-7.4-8.6-12.7-3.1-22.5C-2943.2-2668.2-2914.1-2689.9-2913.8-2690.1z"/>
				</g>
			</g>
			<g id="XMLID_10">
				<g transform="translate(-3441.29 -3055.62)">
					<path id="path2_fill" fill="#FFFFFF" d="M-3062.3-2579.7c-1,2.9-0.5,5.8,1.3,8.3c6.2,8.5,28.1,13.2,61.7,13.2l0,0
						c4.6,0,9.4-0.1,14.3-0.3c53.7-1.9,73.6-18.4,74.5-19.2s1.1-2,0.6-3.1c-0.6-1-1.8-1.6-2.9-1.2c-18.9,5.1-54.2,6.9-78.7,6.9
						c-27.4,0-41.4-2-44.8-3.4c1.8-2.4,12.6-6.6,26-9.2c1.3-0.2,2.2-1.4,2-2.7c-0.1-1.3-1.2-2.3-2.5-2.3
						C-3018.8-2592.7-3058.2-2592.1-3062.3-2579.7z"/>
				</g>
			</g>
			<g id="XMLID_11">
				<g transform="translate(-3399.43 -3056.75)">
					<path id="path3_fill" fill="#FFFFFF" d="M-2882.5-2596.8c-11.1,0-21.6,5.5-22,5.7c-1,0.5-1.5,1.7-1.3,2.8
						c0.3,1.1,1.3,1.9,2.5,1.9c0.2,0,23.6,0.2,25.8,13.4c1.9,11.4-22.1,29.9-31.6,36c-1,0.7-1.4,2-0.9,3.1c0.4,0.9,1.3,1.5,2.3,1.5
						c0.2,0,0.4,0,0.5-0.1c2.2-0.5,54.6-11.9,49.1-42.1C-2861.5-2592.9-2873.3-2596.8-2882.5-2596.8z"/>
				</g>
			</g>
			<g id="XMLID_12">
				<g transform="translate(-3435.34 -3045.89)">
					<path id="path4_fill" fill="#FFFFFF" d="M-2918.5-2540.6c0.2-1-0.2-2-1-2.5l-12.6-8.7c-0.6-0.4-1.4-0.6-2.1-0.4
						c-0.1,0-13.3,3.4-32.4,5.5c-7.6,0.8-16.1,1.3-24.5,1.3c-19.1,0-31.5-2.2-33.4-3.8c-0.2-0.5-0.2-0.7-0.1-0.8
						c0.3-0.9,2.1-2,3.2-2.4c1.3-0.5,1.9-1.8,1.5-3.1s-1.7-2-3-1.7c-12.6,3-18.8,7.2-18.3,12.5c0.8,9.4,22.8,14.2,41.3,15.5
						c2.7,0.2,5.6,0.3,8.6,0.3l0,0c30.9,0,70.4-9.6,70.8-9.7C-2919.4-2538.8-2918.7-2539.6-2918.5-2540.6z"/>
				</g>
			</g>
			<g id="XMLID_13">
				<g transform="translate(-3432.92 -3037.06)">
					<path id="path5_fill" fill="#FFFFFF" d="M-3013.2-2520.5c1-0.6,1.4-1.8,1-2.8c-0.3-1.1-1.4-1.8-2.5-1.8
						c-1.7,0-16.5,0.7-17.6,10.1c-0.3,2.8,0.5,5.3,2.4,7.6c5.3,6.2,19.7,10,44,11.3c2.9,0.2,5.8,0.3,8.7,0.3
						c30.8,0,51.6-9.5,52.5-10c0.8-0.4,1.4-1.2,1.4-2.1c0-0.9-0.4-1.8-1.2-2.3l-15.9-9.6c-0.6-0.3-1.2-0.4-1.8-0.3
						c-0.1,0-10.2,2.1-25.4,4.1c-2.9,0.4-6.5,0.6-10.7,0.6c-15.2,0-32.1-2.5-35.4-4.1C-3013.7-2519.7-3013.7-2520.1-3013.2-2520.5z"
						/>
				</g>
			</g>
			<g id="XMLID_14">
				<g transform="translate(-3448 -3031.16)">
					<path id="path6_fill" fill="#FFFFFF" d="M-2991.6-2467c70.6-0.1,108.5-12.5,115.8-20.3c2.6-2.8,2.9-5.4,2.6-7.1
						c-0.5-4.2-4.4-6.8-4.9-7.1c-1.1-0.7-2.5-0.5-3.3,0.4s-0.8,2.3,0,3.3c0.4,0.6,0.7,1.5-0.6,2.8c-2.9,2.7-32.4,10.9-81.4,13.3
						c-6.7,0.3-13.8,0.5-20.9,0.5c-43.9,0-76-5.9-80.2-9.4c1.6-2.3,13-6,25.1-8.1c1.4-0.2,2.3-1.5,2.1-2.9s-1.5-2.3-2.8-2.1
						c-0.3,0-1.5,0.1-2.8,0.2c-19.9,1.2-43,3.9-44.2,14c-0.4,3.1,0.6,5.9,2.8,8.4C-3079-2475-3063.6-2467-2991.6-2467L-2991.6-2467z
						"/>
				</g>
			</g>
			<g id="XMLID_15">
				<g transform="translate(-3435.9 -3026.16)">
					<path id="path7_fill" fill="#FFFFFF" d="M-2861.9-2485.1c-1-0.5-2.2-0.2-2.9,0.6c-0.1,0.1-10.7,11.1-42.7,17.5
						c-12.2,2.4-35.2,3.6-68.2,3.6c-33.1,0-64.6-1.3-64.9-1.3c-1.3-0.1-2.4,0.9-2.6,2.2c-0.2,1.3,0.7,2.5,1.9,2.8
						c0.3,0.1,33.3,7.7,78.4,7.7c21.6,0,42.7-1.7,62.6-5.2c37.1-6.4,39.7-24.6,39.8-25.4
						C-2860.3-2483.6-2860.9-2484.7-2861.9-2485.1z"/>
				</g>
			</g>
		</g>
	</g>
</g>
<g id="_x38_8bc727f-5431-4050-b5dc-f5cad7394b88">
	<g id="_x35_25f1f8d-b243-4d3f-8884-f6790c187e85">
		<g id="bda4007c-bba2-44d5-a1e1-476d0183bba5">
			<g id="_x33_3bf520c-22ea-410f-971d-fa25cec9166d">
				<g>
					<path fill="#FFFFFF" d="M512.1,400.6c-7.2,11.4-19.3,21.1-29.9,29.7c-11.6,9.4-22.8,18.2-22.8,26.1
						c-0.6,22.3,15.6,53.6,15.8,53.8c0.5,1,0.3,2.3-0.6,3s-2.2,0.7-3.1,0c-1.9-1.5-47.2-36.4-32.3-68.5
						c8.6-18.3,24.6-29.5,38.6-39.5c9.9-6.9,18.3-12.7,22.2-19.6c5.5-10,7.5-21.6,5.8-32.9c-0.2-1.1,0.4-2.3,1.4-2.8
						c1.1-0.5,2.4-0.1,3.1,0.9C510.3,351,527.5,375.6,512.1,400.6z"/>
				</g>
			</g>
			<g id="_x32_76a9e68-c4e4-4a2f-ade4-09ae64748842">
				<g>
					<path fill="#FFFFFF" d="M501.6,449.5c-5.4,9.7-1.9,14.9,3.1,22.1c4,5.1,6.9,10.9,8.4,17.2c4.1,19.1-18.6,34.9-19.6,35.6
						c-0.4,0.3-0.9,0.4-1.4,0.4c-1.4,0.1-2.5-1-2.6-2.4c0-0.4,0.1-0.9,0.3-1.3c1.8-3.6,5.9-13.9,4.2-19.6c-1.2-2.6-2.8-4.9-4.7-7
						c-8.7-9.2-13.5-21.5-13.3-34.2c0-25.9,56.2-47.3,58.6-48.3c1.2-0.4,2.5,0.1,3.1,1.1c0.6,1.1,0.3,2.4-0.7,3.1
						C536.6,416.8,508,438.2,501.6,449.5z"/>
				</g>
			</g>
			<g id="d0c7922a-3b6b-4016-8398-1220bc24c693">
				<g>
					<path fill="#FFFFFF" d="M540.1,527.4c-0.9,0.7-20.4,17-73.4,18.9c-4.9,0-9.6,0.3-14.1,0.3c-33.1,0-54.7-4.6-60.8-13
						c-1.8-2.3-2.3-5.4-1.3-8.2c4.1-12.1,42.9-12.8,50.8-12.8c1.3,0,2.4,0.9,2.5,2.2s-0.7,2.4-2,2.6c-13.2,2.6-23.8,6.8-25.6,9.1
						c3.4,1.4,17.1,3.4,44.1,3.4c24.1,0,59-1.8,77.6-6.9c1.1-0.3,2.3,0.2,2.9,1.2C541.4,525.3,541.1,526.7,540.1,527.4z"/>
				</g>
			</g>
			<g id="dad0e3dd-74e9-4750-bf39-fe78b0933c6f">
				<g>
					<path fill="#FFFFFF" d="M543.4,572.1h-0.5c-1,0-1.9-0.6-2.4-1.5c-0.5-1.1-0.1-2.4,0.9-3c9.3-6.1,33-24.3,31.1-35.5
						c-2.1-13.1-25.1-13.2-25.4-13.2c-1.1,0-2.1-0.8-2.4-1.9c-0.3-1.1,0.2-2.3,1.3-2.8c6.7-3.4,14.1-5.3,21.6-5.6
						c9.1,0,20.7,3.9,24.1,22.1C597.2,560.3,545.5,571.6,543.4,572.1z"/>
				</g>
			</g>
			<g id="fb2aa61c-7ea8-4e34-9c53-b4adeca4fca9">
				<g>
					<path fill="#FFFFFF" d="M532.3,563.9c-0.2,1-0.9,1.7-1.9,1.9c-0.4,0-39.5,9.6-69.8,9.6l0,0c-2.8,0.1-5.6,0-8.4-0.3
						c-18.3-1.2-40-6-40.7-15.2c-0.5-5.2,5.6-9.4,17.9-12.3c1.3-0.3,2.6,0.6,2.9,1.9c0.3,1.2-0.4,2.4-1.5,2.8
						c-1.3,0.4-2.4,1.3-3.2,2.4c-0.1,0.2-0.1,0.5,0,0.8c1.8,1.6,14.1,3.8,32.9,3.8c8.1,0,16.3-0.5,24.3-1.4
						c10.7-1.1,21.4-2.9,31.8-5.4c0.7-0.2,1.5,0,2.1,0.4l12.3,8.6C532,562,532.5,563,532.3,563.9z"/>
				</g>
			</g>
			<g id="_x30_6debbdf-a988-4fc1-9ed2-ded5b7f8c515">
				<g>
					<path fill="#FFFFFF" d="M527.5,596.1c-0.1,0.9-0.6,1.7-1.4,2.1c-16.4,6.8-34,10.2-51.7,9.9c-2.9,0-5.7,0-8.6-0.3
						c-23.9-1.4-38.1-5-43.3-11.1c-1.9-2-2.7-4.8-2.4-7.5c1-9.2,15.6-9.9,17.3-9.9c1.1,0,2.1,0.7,2.4,1.7c0.4,1-0.1,2.2-1,2.8
						c-0.3,0.2-0.5,0.6-0.5,1c3.2,1.6,19.8,4,34.8,4c3.5,0,7.1-0.2,10.6-0.6c15-2,24.9-4.1,25.1-4.1c0.6-0.1,1.3,0,1.8,0.4l15.6,9.2
						C527.1,594.2,527.6,595.1,527.5,596.1z"/>
				</g>
			</g>
			<g id="_x38_9c60d76-b3b7-4f88-867c-8ed4bb3b4532">
				<g>
					<path fill="#FFFFFF" d="M574.4,616.4c-7.2,7.7-44.5,20-114.2,20c-70.9,0-86.2-7.9-91.4-13.9c-2.1-2.1-3.1-5.1-2.8-8.1
						c1.3-9.9,24-12.7,43.6-13.8l2.8-0.2c1.3-0.2,2.6,0.7,2.8,2c0,0,0,0,0,0.1c0.2,1.4-0.7,2.6-2.1,2.9c-11.9,2.1-23.1,5.6-24.7,8
						c4.1,3.6,35.9,9.3,79,9.3c7.2,0,14.1,0,20.6-0.5c48.3-2.4,77.3-10.5,80.2-13.2c1.3-1.3,1.1-2.2,0.6-2.8c-0.9-0.9-0.9-2.3,0-3.2
						c0.8-0.9,2.2-1.1,3.3-0.4c2.5,1.6,4.2,4.1,4.8,7C577.2,612,576.3,614.6,574.4,616.4z"/>
				</g>
			</g>
			<g id="_x38_6f08bcc-a654-4b41-bfbf-e10abf74aa3e">
				<g>
					<path fill="#FFFFFF" d="M589.5,621.1c0,0.8-2.6,18.6-39.2,25.1c-20.4,3.4-41,5.1-61.7,5c-26,0.1-51.9-2.4-77.3-7.6
						c-1.2-0.3-2.1-1.5-1.9-2.8s1.3-2.2,2.6-2.1c0.3,0,31.3,1.3,64,1.3s55.1-1.2,67.2-3.6c31.5-6.4,41.9-17.1,42-17.3
						c1-1,2.6-1.1,3.6-0.1C589.3,619.5,589.6,620.3,589.5,621.1L589.5,621.1z"/>
				</g>
			</g>
		</g>
	</g>
</g>
</svg>
