<?xml version="1.0" encoding="utf-8"?>
<!-- Generator: Adobe Illustrator 21.0.2, SVG Export Plug-In . SVG Version: 6.00 Build 0)  -->
<svg version="1.1" id="Layer_1" xmlns="http://www.w3.org/2000/svg" xmlns:xlink="http://www.w3.org/1999/xlink" x="0px" y="0px"
	 viewBox="0 0 1000 1000" enable-background="new 0 0 1000 1000" xml:space="preserve">
<g>
	<g>
		<g>
			<path fill="#EDF0F2" d="M986,516.7c0,11.2-4.7,21.8-11.9,29.1c-7.2,7.6-17.9,12.2-28.9,12.2h-61.8c15.4,10.6,25.6,28.1,25.6,48.3
				c0,15.9-6.4,30.4-17,41c-10.7,10.6-24.7,16.9-40.9,16.9h-42.2c6.8,9.5,10.7,21.1,10.7,33.8c0,15.9-6.4,30.4-17,41
				c-10.7,10.6-24.7,16.9-40.4,16.9H293.1c-20.5,0-38.4-11-48.6-27.1H70.6c-31.6,0-57.5-26.2-57.5-57.9v-28.7
				c0-31.7,26-57.9,57.5-57.9h70.8c-6.8-9.5-10.7-21.1-10.7-33.4c0-15.9,6.4-30.4,17-41c7.2-7.6,17-12.9,27.3-15.6h-66.5
				c-22.6,0-40.9-18.6-40.9-41.4c0-11.2,4.7-21.8,11.9-29.1c7.6-7.6,17.9-12.2,28.9-12.2H180c-4.3-6.6-6.8-14.2-6.8-22.4v-22.8
				c0-4,0.4-8,1.7-11.9h-24.7c-22.6,0-40.9-18.6-40.9-41.4v-22.8c0-22.8,18.3-41.4,40.9-41.4h584.2c22.6,0,40.9,18.6,40.9,41.4v22.8
				c0,4-0.4,8-1.7,11.9h24.7c22.6,0,40.9,18.6,40.9,41.4v22.8c0,22.8-18.3,41.4-40.9,41.4H762c8.6,7.6,14.5,18.8,14.5,31.1
				c0,4.9-0.8,9.5-2.5,14.2h170.5C967.7,475.3,986,494.3,986,516.7z"/>
		</g>
	</g>
</g>
<g id="_x38_65664c3-9fef-4190-9f76-2885d6e2a273">
	<path fill="#FFFFFF" d="M484.3,742c-64.3,0-124.7-25-170.2-70.5c-45.5-45.5-70.5-105.9-70.5-170.2s25-124.7,70.5-170.2
		c45.5-45.5,105.9-70.5,170.2-70.5c64.3,0,124.7,25,170.2,70.5C700,376.5,725,436.9,725,501.2S700,626,654.5,671.5
		C609.1,716.9,548.6,742,484.3,742z"/>
	<path fill="#474747" d="M484.3,268c128.8,0,233.2,104.4,233.2,233.2S613.1,734.5,484.3,734.5S251.1,630,251.1,501.2
		S355.5,268,484.3,268 M484.3,253c-33.5,0-66,6.6-96.6,19.5c-29.6,12.5-56.1,30.4-78.9,53.2c-22.8,22.8-40.7,49.3-53.2,78.9
		c-12.9,30.6-19.5,63.1-19.5,96.6c0,33.5,6.6,66,19.5,96.6c12.5,29.6,30.4,56.1,53.2,78.9c22.8,22.8,49.3,40.7,78.9,53.2
		c30.6,12.9,63.1,19.5,96.6,19.5s66-6.6,96.6-19.5c29.6-12.5,56.1-30.4,78.9-53.2c22.8-22.8,40.7-49.3,53.2-78.9
		c12.9-30.6,19.5-63.1,19.5-96.6c0-33.5-6.6-66-19.5-96.6c-12.5-29.6-30.4-56.1-53.2-78.9c-22.8-22.8-49.3-40.7-78.9-53.2
		C550.3,259.6,517.8,253,484.3,253L484.3,253z"/>
	<polygon fill="#474747" points="363.7,665.1 349.3,650.7 322.5,677.5 307.7,662.8 334.5,635.9 320.1,621.5 379.8,605.6 	"/>
	<polygon fill="#474747" points="606.4,335.5 620.7,349.8 647.5,323.1 662.2,337.8 635.4,364.5 649.8,378.9 590.4,394.7 	"/>
	<polygon fill="#474747" points="648.8,619.9 634.4,634.3 661.2,661.1 646.4,675.9 619.6,649 605.2,663.4 589.3,603.8 	"/>
	<polygon fill="#474747" points="381.5,396 321.8,380 336.2,365.6 309.4,338.8 324.1,324 351,350.9 365.4,336.5 	"/>
</g>
<path fill="#3D89BD" d="M425.4,597.4h-9.7c-0.5-0.2-0.9-0.3-1.4-0.4c-11.6-1.9-18.8-8.7-21-19.8c-1.3-6.4-0.8-12.7,0.5-19
	c2.8-13.4,8.2-25.8,14.8-37.7c16.9-30.6,39-56.9,65-80.1c0.6-0.5,1.2-1.1,1.8-1.6l-0.4-0.4c-32.7,12.2-56.4,34.5-72.3,65.4
	c-0.1-0.5-0.2-1-0.2-1.5c0.5-10.2,3-20,7-29.4c14.4-33.6,50.2-55.1,86.3-51.9c1.1,0.1,2.2-0.2,3.2-0.8c8.8-6,17.9-11.3,27.7-15.4
	c7.8-3.3,15.7-5.9,24.3-5.7c11,0.2,18.6,6.2,21.3,16.8c1.4,5.6,1.4,11.3,0.9,16.9c-0.2,2.9-0.7,5.8-1,8.7h-0.7c0-1.2,0-2.5,0-3.7
	c-0.1-7.4-1-14.7-4.4-21.4c-3.5-6.9-9.1-9.6-16.7-8.1c-12.5,2.5-22.1,10.1-32.3,17.4l2,0.9c30.8,12.9,49.2,35.7,54.9,68.7
	c0.4,2.6,0.7,5.2,1.1,7.7v10.1c-0.9,0.1-1.8,0.2-2.7,0.3c-36,0-72.1,0-108.1-0.1h-2.9c0,3.1-0.1,6,0,8.9
	c0.3,12.8,9.6,23.7,22.1,25.7c12.7,2.1,25.1-5,29.5-17.1c0.5-1.5,1.1-1.9,2.7-1.9c18.1,0.1,36.2,0,54.3,0h2.2
	c-0.2,0.9-0.3,1.4-0.4,2c-12.9,48.6-66.2,75.9-113.7,58.4c-1.3-0.5-2.4-0.4-3.7,0c-6.4,2.1-12.7,4.3-19.1,6.1
	C432.7,596.2,429,596.7,425.4,597.4z M515.8,492.8c-0.7-9.8-4.9-17.3-13.2-22.1c-9.3-5.4-18.8-5.2-27.9,0.6
	c-7.8,4.9-11.7,12.2-12.3,21.6h53.4V492.8z M413.4,550.4c-3.4,7.3-6.6,14.4-7.1,22.4c-0.5,8.4,3,13,11.2,15.2
	c0.7,0.2,1.5,0.4,2.3,0.5c7.9,1.4,15.8,0.8,23.7-0.2c3-0.4,6-0.9,9-1.4C435.9,578.5,422.9,566.6,413.4,550.4z M475.7,438.3l-0.1-0.1
	l-0.1,0.1l0.1,0.1C475.6,438.4,475.6,438.3,475.7,438.3z"/>
</svg>
