<?xml version="1.0" encoding="utf-8"?>
<!-- Generator: Adobe Illustrator 21.0.2, SVG Export Plug-In . SVG Version: 6.00 Build 0)  -->
<svg version="1.1" id="Layer_1" xmlns="http://www.w3.org/2000/svg" xmlns:xlink="http://www.w3.org/1999/xlink" x="0px" y="0px"
	 viewBox="0 0 1000 1000" enable-background="new 0 0 1000 1000" xml:space="preserve">
<g>
	<g>
		<g>
			<path fill="#E4E8EA" d="M978.5,512.4c0,9.7-4.6,18.8-11.7,25c-7.1,6.5-17.6,10.5-28.5,10.5h-60.8c15.1,9.1,25.1,24.2,25.1,41.5
				c0,13.7-6.3,26.2-16.8,35.2c-10.5,9.1-24.3,14.5-40.2,14.5H804c6.7,8.2,10.5,18.2,10.5,29c0,13.7-6.3,26.2-16.8,35.2
				S773.5,718,758,718H297c-20.1,0-37.7-9.4-47.8-23.3h-171c-31,0-56.6-22.5-56.6-49.8v-24.8c0-27.3,25.6-49.8,56.6-49.8h69.6
				c-6.7-8.2-10.5-18.2-10.5-28.7c0-13.7,6.3-26.2,16.8-35.2c7.1-6.5,16.8-11.1,26.8-13.3h-65.4c-22.2,0-40.2-15.9-40.2-35.6
				c0-9.7,4.6-18.8,11.7-25c7.5-6.5,17.6-10.5,28.5-10.5h70.4c-4.2-5.7-6.7-12.3-6.7-19.3V383c0-3.4,0.4-6.8,1.7-10.2h-24.3
				c-22.2,0-40.2-15.9-40.2-35.6v-19.6c0-19.6,18-35.6,40.2-35.6h574.6c22.2,0,40.2,15.9,40.2,35.6v19.6c0,3.4-0.4,6.8-1.7,10.2
				h24.3c22.2,0,40.2,15.9,40.2,35.6v19.6c0,19.6-18,35.6-40.2,35.6h-35.5c8.4,6.5,14.3,16.2,14.3,26.7c0,4.3-0.8,8.2-2.5,12.3H938
				C960.5,476.8,978.5,493.1,978.5,512.4z"/>
		</g>
	</g>
</g>
<path fill="#E55353" stroke="#4F4848" stroke-width="20" stroke-miterlimit="10" d="M695.4,350.3c0,0-24.4,170.7-56.8,240.6
	C605,672,528.7,729.2,475.6,750.1c-53-20.8-123.6-67.1-162.9-159.1C272,507,255.9,350.3,255.9,350.3l219.7-100.4L695.4,350.3z"/>
<g id="bfab9deb-201d-4f6d-8712-da0da49a2c2e">
	<g id="_x38_25bdf92-8a41-4cdd-9caf-a8eb335ec3c2">
		<g id="_x34_3c24620-ad1c-480f-9c27-3e0c453bb89f">
			<path fill="#FFFFFF" d="M548.1,414.5l-34.3,34.3c-4.7-6.3-10.6-11.7-17.3-15.8l7-11l-10.9-7l-8,12.8c-4.4-1.3-8.9-1.9-13.4-1.8
				c-4.8,0-9.6,0.7-14.3,2.2l-8.1-12.8l-10.9,7l7.2,11.2c-6.2,3.9-11.7,8.8-16.2,14.6l-12.5-7.2l-6.3,11.1l12,7
				c-6.1,11.6-9.4,24.4-9.8,37.5h-8.6v12.8h9.1c1,10.9,4.2,21.5,9.2,31.2l-31.9,32.1l13,12.9l29.8-29.8l128.2-128.3L548.1,414.5z
				 M468,470.9h-15v-15h15V470.9z M489.5,470.9h-15v-15h15V470.9z"/>
		</g>
		<g id="_x34_e3e8946-543d-4f6f-8109-8e1d0196fbf7">
			<path fill="#FFFFFF" d="M529.7,509.2c-1.1,11.6-4.7,22.8-10.3,33l13.2,7.6l-6.4,11.1l-14.1-8.1c-10.6,12.7-24.9,20.6-40.8,20.6
				c-8.8,0-17.4-2.4-24.9-7l82.5-82.7c0.7,4.1,1.2,8.3,1.3,12.6h8.6v12.9H529.7z"/>
		</g>
	</g>
</g>
</svg>
