<?xml version="1.0" encoding="utf-8"?>
<!-- Generator: Adobe Illustrator 19.1.0, SVG Export Plug-In . SVG Version: 6.00 Build 0)  -->
<svg version="1.1" id="Layer_1" xmlns="http://www.w3.org/2000/svg" xmlns:xlink="http://www.w3.org/1999/xlink" x="0px" y="0px"
	 viewBox="-309 -127.5 512 512" style="enable-background:new -309 -127.5 512 512;" xml:space="preserve">
<title>Reminder</title>
<desc>Created with Sketch.</desc>
<g id="Page-1">
	<g id="Recurring-Invoice-Promotional" transform="translate(-683.000000, -49.000000)">
		<g id="Reminder" transform="translate(683.000000, 49.000000)">
			<g id="Group-3" transform="translate(0.000000, 0.183024)">
				<g id="Clip-2">
				</g>
				<defs>
					<filter id="Adobe_OpacityMaskFilter" filterUnits="userSpaceOnUse" x="-313.1" y="-134.7" width="488.5" height="488.4">
						<feColorMatrix  type="matrix" values="1 0 0 0 0  0 1 0 0 0  0 0 1 0 0  0 0 0 1 0"/>
					</filter>
				</defs>
				<mask maskUnits="userSpaceOnUse" x="-313.1" y="-134.7" width="488.5" height="488.4" id="mask-4">
					<g style="filter:url(#Adobe_OpacityMaskFilter);">
						<path id="path-3" style="fill:#FFFFFF;" d="M168.5,324.1c0,11.8-9.7,21.5-21.5,21.5h-431.7c-11.8,0-21.5-9.7-21.5-21.5v-431.6
							c0-11.8,9.7-21.5,21.5-21.5H147c11.8,0,21.5,9.7,21.5,21.5V324.1z"/>
					</g>
					<g>
						<polygon id="path-1" style="fill:#FFFFFF;" points="168.5,-127 -306.2,-127 -306.2,347.6 168.5,347.6 						"/>
					</g>
				</mask>
				<g id="Fill-1" style="mask:url(#mask-4);">
					<g>
						<path id="path-3_1_" style="fill:#FFFFFF;stroke:#DDDDDD;stroke-width:13.7587;" d="M168.5,325.3c0,11.8-9.7,21.5-21.5,21.5h-431.7c-11.8,0-21.5-9.7-21.5-21.5v-431.6
							c0-11.8,9.7-21.5,21.5-21.5H147c11.8,0,21.5,9.7,21.5,21.5V325.3z"/>
					</g>
				</g>
			</g>
			<path id="Fill-4" style="fill:#E05A67;" d="M147-126.9h-431.7c-11.8,0-21.5,9.7-21.5,21.5V26.1h474.7v-131.5
				C168.5-117.2,158.8-126.9,147-126.9"/>
			<path id="Fill-6" style="fill:#B23549;" d="M-160.6-50.3c0,19.5-15.8,35.2-35.2,35.2c-19.5,0-35.3-15.8-35.3-35.2
				c0-19.5,15.8-35.3,35.3-35.3C-176.4-85.6-160.6-69.8-160.6-50.3"/>
			<path id="Fill-8" style="fill:#B23549;" d="M93.3-50.3c0,19.5-15.8,35.2-35.3,35.2c-19.5,0-35.2-15.8-35.2-35.2c0-19.5,15.8-35.3,35.2-35.3
				C77.5-85.6,93.3-69.8,93.3-50.3"/>
			<path id="Fill-10" style="fill:#F9B62F;" d="M33.9-36.9h-205.6c-7.4,0-13.4-6-13.4-13.4c0-7.4,6-13.4,13.4-13.4H33.9
				c7.4,0,13.4,6,13.4,13.4C47.4-42.9,41.3-36.9,33.9-36.9"/>
			<path id="Fill-12" style="fill:#E05A67;" d="M-144.3,98c0,13.7,11.2,24.9,24.9,24.9l0,0c13.7,0,24.9-11.2,24.9-24.9l0,0
				c0-13.7-11.2-24.9-24.9-24.9l0,0C-133.2,73.1-144.3,84.3-144.3,98L-144.3,98z"/>
			<path id="Fill-14" style="fill:#DBDBDA;" d="M-43.2,97.8c0,13.7,11.2,24.9,24.9,24.9l0,0c13.7,0,24.9-11.2,24.9-24.9l0,0
				C6.5,84-4.6,72.9-18.3,72.9l0,0C-32.1,72.9-43.2,84-43.2,97.8L-43.2,97.8z"/>
			<path id="Fill-15" style="fill:#DBDBDA;" d="M57.9,97.5c0,13.7,11.2,24.9,24.9,24.9l0,0c13.7,0,24.9-11.2,24.9-24.9l0,0
				c0-13.7-11.2-24.9-24.9-24.9l0,0C69,72.7,57.9,83.8,57.9,97.5L57.9,97.5z"/>
			<path id="Fill-16" style="fill:#DBDBDA;" d="M-245.4,184.4c0,13.7,11.2,24.9,24.9,24.9l0,0c13.7,0,24.9-11.2,24.9-24.9l0,0
				c0-13.7-11.2-24.9-24.9-24.9l0,0C-234.3,159.5-245.4,170.6-245.4,184.4L-245.4,184.4z"/>
			<path id="Fill-17" style="fill:#DBDBDA;" d="M-144.3,184.1c0,13.7,11.2,24.9,24.9,24.9l0,0c13.7,0,24.9-11.2,24.9-24.9l0,0
				c0-13.7-11.2-24.9-24.9-24.9l0,0C-133.2,159.2-144.3,170.4-144.3,184.1L-144.3,184.1z"/>
			<path id="Fill-18" style="fill:#DBDBDA;" d="M-43.2,183.9c0,13.7,11.2,24.9,24.9,24.9l0,0c13.7,0,24.9-11.2,24.9-24.9l0,0
				c0-13.7-11.2-24.9-24.9-24.9l0,0C-32.1,159.1-43.2,170.2-43.2,183.9L-43.2,183.9z"/>
			<polygon id="Fill-19" style="fill:#DBDBDA;" points="57.9,208.6 107.6,208.6 107.6,158.9 57.9,158.9 			"/>
			<path id="Fill-20" style="fill:#DBDBDA;" d="M-245.4,270.5c0,13.7,11.2,24.9,24.9,24.9l0,0c13.7,0,24.9-11.2,24.9-24.9l0,0
				c0-13.7-11.2-24.9-24.9-24.9l0,0C-234.3,245.7-245.4,256.8-245.4,270.5L-245.4,270.5z"/>
			<path id="Fill-21" style="fill:#DBDBDA;" d="M-144.3,270.3c0,13.7,11.2,24.9,24.9,24.9l0,0c13.7,0,24.9-11.2,24.9-24.9l0,0
				c0-13.7-11.2-24.9-24.9-24.9l0,0C-133.2,245.5-144.3,256.6-144.3,270.3L-144.3,270.3z"/>
			<polygon id="Fill-22" style="fill:#DBDBDA;" points="-43.2,295 6.5,295 6.5,245.2 -43.2,245.2 			"/>
			<polygon id="Fill-23" style="fill:#DBDBDA;" points="57.9,294.8 107.6,294.8 107.6,245 57.9,245 			"/>
			<g id="Group" transform="translate(32.558824, 33.608696)">
				<path id="Fill-25" style="fill:#59B0E1;" d="M167.2,220.1c0,72.2-58.5,130.7-130.7,130.7c-72.2,0-130.7-58.5-130.7-130.7
					c0-72.2,58.5-130.7,130.7-130.7C108.7,89.4,167.2,147.9,167.2,220.1"/>
				<path id="Fill-26" style="fill:#FFFFFF;" d="M146.6,220.1c0,60.8-49.3,110.1-110.1,110.1c-60.8,0-110.1-49.3-110.1-110.1
					c0-60.8,49.3-110.1,110.1-110.1C97.3,110,146.6,159.3,146.6,220.1"/>
				<path id="Fill-27" style="fill:#CCCBCB;" d="M32.7,150.6c0-5.7,4.5-10.4,10.3-10.4c5.6,0,10.3,4.5,10.4,10.1c0,5.7-4.5,10.4-10.3,10.5
					C37.4,160.9,32.7,156.3,32.7,150.6L32.7,150.6z M-43,222.8L-43,222.8L-43,222.8L-43,222.8z M101.5,226.6v-0.5v-0.4
					c-0.1-5.4,4.5-9.9,10.1-9.9c5.7-0.1,10.4,4.2,10.5,9.6c0,0.2-0.1,0.4-0.1,0.6c0,0.1,0.1,0.4,0.1,0.5c0,5.4-4.7,9.9-10.4,9.9
					C106,236.5,101.5,232.1,101.5,226.6L101.5,226.6z M-43,226.2c0-5.6,4.6-10.3,10.2-10.3c5.7-0.1,10.4,4.6,10.4,10.3
					c0,5.7-4.6,10.3-10.2,10.3h-0.1C-38.3,236.5-43,232-43,226.2L-43,226.2z M32.7,295.1c0-5.7,4.5-10.4,10.3-10.4
					c5.7,0,10.4,4.7,10.4,10.4c0,5.6-4.7,10.2-10.3,10.2C37.4,305.3,32.7,300.8,32.7,295.1L32.7,295.1z"/>
				<path id="Fill-28" style="fill:#727273;" d="M35.8,232.5c-1.6,0-3.1-0.6-4.3-1.8c-2.4-2.4-2.4-6.2,0-8.6L84.6,169c2.4-2.4,6.2-2.4,8.6,0
					c2.4,2.4,2.4,6.2,0,8.6l-53.2,53.1C38.9,231.9,37.3,232.5,35.8,232.5"/>
				<path id="Fill-29" style="fill:#727273;" d="M72.6,261.9c-1.6,0-3.1-0.6-4.3-1.8l-36.8-36.8c-2.4-2.4-2.4-6.2,0-8.6
					c2.4-2.4,6.2-2.4,8.6,0l36.8,36.9c2.4,2.4,2.4,6.2,0,8.6C75.7,261.3,74.2,261.9,72.6,261.9"/>
				<circle id="Oval-2" style="fill:#59B0E1;" cx="40" cy="223.5" r="17.2"/>
			</g>
		</g>
	</g>
</g>
</svg>
