<svg xmlns="http://www.w3.org/2000/svg" viewBox="0 0 631.94 208.84">
  <title>Schedulescan</title>
  <g id="339303eb-c360-493c-9475-2bacc4adadcd" data-name="Layer 2">
    <g id="8a759286-6493-4b59-9916-b9b292d8124e" data-name="Layer 1">
      <g>
        <g>
          <g>
            <path d="M465.38,142.83l-11.94-27h0a14.75,14.75,0,0,1,19.45,7.51h0a14.75,14.75,0,0,1-7.51,19.45Z" style="fill: #ffcc3e"/>
            <path d="M416.86,101.62,389.62,113.7a14.91,14.91,0,0,1,27.25-12.08Z" style="fill: #ffcc3e"/>
            <path d="M384.79,176.42c-5.43-2.29-16.15-6.7-16.89-6.53h0c.58-.74,5.52-8.19,8.22-12.13C376,165.27,381.88,173.33,384.79,176.42Z"/>
            <path d="M444.7,111.29l-18.43-7.12a9.88,9.88,0,0,1,18.43,7.12Z" style="fill: #f4712f"/>
            <path d="M443.12,199h0c-.42-.62-11.32-4.56-16.88-6.52,4.25-.33,14-2.37,19-8C444.55,189.15,443.2,198,443.12,199Z"/>
            <polygon points="443.36 154.24 442.57 156.29 422.09 148.38 421.3 150.43 417.2 148.84 417.99 146.79 415.94 146 416.74 143.95 418.78 144.75 426.3 125.29 430.4 126.87 422.88 146.33 443.36 154.24"/>
            <path d="M454.47,132.35a37.67,37.67,0,1,0,.64,28.79A37.67,37.67,0,0,0,454.47,132.35Zm-45.6,44.22A31.06,31.06,0,1,1,449,158.75v0A31.07,31.07,0,0,1,408.88,176.57Z" style="fill: #f4712f"/>
            <g>
              <polyline points="394.79 84.6 387.38 69.38 397.07 71.13 384.29 56.33" style="fill: #c6d9e0"/>
              <polyline points="409.3 90.97 408.13 80.66 413.38 83.65 409.02 72.47" style="fill: #c6d9e0"/>
              <polyline points="372.69 92.8 380.82 99.26 374.99 100.86 385.98 105.68" style="fill: #c6d9e0"/>
              <g>
                <line x1="386.86" y1="89.5" x2="377.96" y2="77.33" style="fill: #c6d9e0;stroke: #ccdfe5;stroke-miterlimit: 10"/>
                <circle cx="376.93" cy="75.88" r="0.31" transform="translate(31.14 243.99) rotate(-37.31)" style="fill: #c6d9e0"/>
              </g>
              <g>
                <line x1="418.64" y1="97.71" x2="422.73" y2="88.48" style="fill: #c6d9e0;stroke: #ccdfe5;stroke-miterlimit: 10"/>
                <circle cx="423.23" cy="87.4" r="0.2" transform="translate(178.83 443.81) rotate(-67.23)" style="fill: #c6d9e0"/>
              </g>
            </g>
            <g>
              <polyline points="482.13 113.91 493.69 101.56 495.53 111.23 504.79 94.01" style="fill: #c6d9e0"/>
              <polyline points="481.36 129.74 490.58 124.96 489.66 130.93 498.54 122.87" style="fill: #c6d9e0"/>
              <polyline points="466.58 96.2 463.44 106.1 459.87 101.23 459.3 113.21" style="fill: #c6d9e0"/>
              <g>
                <line x1="474.72" y1="108.25" x2="482.91" y2="95.59" style="fill: #c6d9e0;stroke: #ccdfe5;stroke-miterlimit: 10"/>
                <circle cx="483.9" cy="94.11" r="0.31" transform="translate(149.17 456.01) rotate(-58.24)" style="fill: #c6d9e0"/>
              </g>
              <g>
                <line x1="478.41" y1="140.87" x2="488.48" y2="141.39" style="fill: #c6d9e0;stroke: #ccdfe5;stroke-miterlimit: 10"/>
                <circle cx="489.67" cy="141.47" r="0.2" transform="translate(332.53 626.34) rotate(-88.16)" style="fill: #c6d9e0"/>
              </g>
            </g>
          </g>
          <g>
            <g>
              <rect x="184.99" y="74.31" width="20.87" height="20.87" style="fill: #d3dae2"/>
              <rect x="231.3" y="74.31" width="20.87" height="20.87" style="fill: #d3dae2"/>
              <rect x="277.38" y="74.31" width="20.87" height="20.87" style="fill: #d3dae2"/>
              <rect x="324.13" y="74.31" width="20.87" height="20.87" style="fill: #d3dae2"/>
              <rect x="184.99" y="115.72" width="20.87" height="20.87" style="fill: #d3dae2"/>
              <rect x="231.3" y="115.72" width="20.87" height="20.87" style="fill: #d3dae2"/>
              <rect x="277.38" y="115.72" width="20.87" height="20.87" style="fill: #ff6839"/>
              <rect x="324.13" y="115.72" width="20.87" height="20.87" style="fill: #ff6839"/>
              <rect x="184.99" y="157.12" width="20.87" height="20.87" style="fill: #ff6839"/>
              <rect x="231.3" y="157.12" width="20.87" height="20.87" style="fill: #ff6839"/>
              <rect x="277.38" y="157.12" width="20.87" height="20.87" style="fill: #d3dae2"/>
              <rect x="324.13" y="157.12" width="20.87" height="20.87" style="fill: #d3dae2"/>
              <g>
                <path d="M152.49,52.11l-3.34,141.25H378.89L375.55,52.11Zm52,124.55H183.65V155.79h20.87Zm0-41.41H183.65V114.38h20.87Zm0-41.41H183.65V73h20.87Zm46.31,82.81H230V155.79h20.87Zm0-41.41H230V114.38h20.87Zm0-41.41H230V73h20.87Zm46.08,82.81H276V155.79h20.87Zm0-41.41H276V114.38h20.87Zm0-41.41H276V73h20.87Zm46.75,82.81H322.8V155.79h20.87Zm0-41.41H322.8V114.38h20.87Zm0-41.41H322.8V73h20.87Z" style="fill: #fff;stroke: #000;stroke-miterlimit: 10;stroke-width: 0.5px"/>
                <path d="M375.55,15V52.11H152.49V15a5.66,5.66,0,0,1,5.66-5.66h13v5.78a6.34,6.34,0,0,0,12.69,0V9.37H214v6a6.34,6.34,0,1,0,12.69,0v-6h30.14v6a6.34,6.34,0,0,0,12.69,0v-6h30.14v6a6.34,6.34,0,1,0,12.69,0v-6h30.13v6a6.34,6.34,0,0,0,12.69,0v-6h14.71A5.66,5.66,0,0,1,375.55,15Z" style="fill: #f4592f;stroke: #000;stroke-miterlimit: 10;stroke-width: 0.5px"/>
              </g>
              <g>
                <path d="M180.62,2.07a4.57,4.57,0,0,0-7.8,3.23V15A4.57,4.57,0,1,0,182,15V5.31A4.57,4.57,0,0,0,180.62,2.07Zm1.09,13a4.32,4.32,0,1,1-8.64,0V5.31a4.32,4.32,0,1,1,8.64,0Z" style="fill: #fff"/>
                <path d="M177.38.48a4.83,4.83,0,0,0-4.83,4.83V15a4.83,4.83,0,1,0,9.65,0V5.31A4.83,4.83,0,0,0,177.38.48ZM181.7,15a4.32,4.32,0,1,1-8.64,0V5.31a4.32,4.32,0,1,1,8.64,0Z"/>
                <path d="M181.7,5.31V15a4.32,4.32,0,1,1-8.64,0V5.31a4.32,4.32,0,1,1,8.64,0Z" style="fill: #d3dae2"/>
              </g>
              <g>
                <path d="M220.25.61h0a4.7,4.7,0,0,0-4.69,4.69v10A4.7,4.7,0,0,0,220.24,20h0a4.7,4.7,0,0,0,4.69-4.69v-10A4.7,4.7,0,0,0,220.25.61Zm4.43,14.68a4.43,4.43,0,0,1-8.86,0v-10a4.43,4.43,0,0,1,8.86,0Z" style="fill: #fff"/>
                <path d="M220.24.35a5,5,0,0,0-5,5v10a5,5,0,0,0,9.91,0v-10A5,5,0,0,0,220.24.35Zm4.43,14.94a4.43,4.43,0,0,1-8.86,0v-10a4.43,4.43,0,0,1,8.86,0Z"/>
                <path d="M224.68,5.31v10a4.43,4.43,0,0,1-8.86,0v-10a4.43,4.43,0,0,1,8.86,0Z" style="fill: #d3dae2"/>
              </g>
              <g>
                <path d="M266.42,2a4.69,4.69,0,0,0-8,3.32v10a4.69,4.69,0,0,0,9.39,0v-10A4.69,4.69,0,0,0,266.42,2Zm1.12,13.3a4.43,4.43,0,0,1-8.86,0v-10a4.43,4.43,0,0,1,8.86,0Z" style="fill: #fff"/>
                <path d="M263.1.35a5,5,0,0,0-5,5v10a5,5,0,0,0,9.91,0v-10A5,5,0,0,0,263.1.35Zm4.43,14.94a4.43,4.43,0,0,1-8.86,0v-10a4.43,4.43,0,0,1,8.86,0Z"/>
                <path d="M267.53,5.31v10a4.43,4.43,0,0,1-8.86,0v-10a4.43,4.43,0,0,1,8.86,0Z" style="fill: #d3dae2"/>
              </g>
              <g>
                <path d="M306,.76h0a4.63,4.63,0,0,0-4.61,4.62v9.83A4.63,4.63,0,0,0,306,19.83h0a4.63,4.63,0,0,0,4.61-4.62V5.38A4.63,4.63,0,0,0,306,.76Zm4.36,14.45a4.36,4.36,0,1,1-8.73,0V5.38a4.36,4.36,0,1,1,8.73,0Z" style="fill: #fff"/>
                <path d="M306,.51a4.88,4.88,0,0,0-4.88,4.88v9.83a4.88,4.88,0,1,0,9.75,0V5.38A4.88,4.88,0,0,0,306,.51Zm4.36,14.7a4.36,4.36,0,1,1-8.73,0V5.38a4.36,4.36,0,1,1,8.73,0Z"/>
                <path d="M310.32,5.38v9.83a4.36,4.36,0,1,1-8.73,0V5.38a4.36,4.36,0,1,1,8.73,0Z" style="fill: #d3dae2"/>
              </g>
              <g>
                <path d="M352.16,1.65A4.73,4.73,0,0,0,344.09,5V15.06a4.73,4.73,0,1,0,9.46,0V5A4.73,4.73,0,0,0,352.16,1.65Zm1.12,13.41a4.47,4.47,0,0,1-8.94,0V5a4.47,4.47,0,0,1,8.94,0Z" style="fill: #fff"/>
                <path d="M348.82,0a5,5,0,0,0-5,5V15.06a5,5,0,0,0,10,0V5A5,5,0,0,0,348.82,0Zm4.47,15.06a4.47,4.47,0,0,1-8.94,0V5a4.47,4.47,0,0,1,8.94,0Z"/>
                <path d="M353.29,5V15.06a4.47,4.47,0,0,1-8.94,0V5a4.47,4.47,0,0,1,8.94,0Z" style="fill: #d3dae2"/>
              </g>
            </g>
            <rect x="154.16" y="193.35" width="219.05" height="2.67" style="fill: #fff;stroke: #000;stroke-miterlimit: 10;stroke-width: 0.5px"/>
          </g>
        </g>
        <g>
          <line x1="1" y1="207.84" x2="450.16" y2="207.84" style="fill: none;stroke: #595959;stroke-linecap: round;stroke-miterlimit: 10;stroke-width: 2px"/>
          <line x1="460.76" y1="207.84" x2="468.01" y2="207.84" style="fill: none;stroke: #595959;stroke-linecap: round;stroke-miterlimit: 10;stroke-width: 2px"/>
          <line x1="479.73" y1="207.84" x2="630.94" y2="207.84" style="fill: none;stroke: #595959;stroke-linecap: round;stroke-miterlimit: 10;stroke-width: 2px"/>
        </g>
      </g>
    </g>
  </g>
</svg>
