<svg id="de444188-7060-490d-b83a-b17fe8b77a94" data-name="Layer 1" xmlns="http://www.w3.org/2000/svg" viewBox="0 0 930.9 558">
  <title>Untitled-1</title>
  <g>
    <polygon points="317.88 164.7 356.9 127.38 356.9 164.7 317.88 164.7" fill="#ddd"/>
    <path d="M414.5,495h-8a5.5,5.5,0,0,0,0,11h8a5.5,5.5,0,0,0,0-11Zm0-25h-8a5.5,5.5,0,0,0,0,11h8a5.5,5.5,0,0,0,0-11Zm51,100h-59a5.5,5.5,0,0,0,0,11h59a5.5,5.5,0,0,0,0-11Zm67-50h18.31C565,479.23,565,433.21,565,433.21L557.39,431h-61L493,430l-3.41,1h-61L421,433.21s0,4.44.43,11.79H438.5a5.5,5.5,0,0,1,3.89,9.39,5.41,5.41,0,0,1-3.06,1.54,4.58,4.58,0,0,1-.83.07H422.24c1.57,17.09,5.07,41.36,13,64H513.5a5.5,5.5,0,1,1,0,11h-74a128.54,128.54,0,0,0,7,14H536.5a5.37,5.37,0,0,1,2.67.7,128.48,128.48,0,0,0,7.37-14.7h-14a5.5,5.5,0,1,1,0-11Zm-74-64a5.5,5.5,0,1,1,0-11h92a5.5,5.5,0,1,1,0,11Zm-4.72,100c9.83,12.71,22.61,22,39.22,24.69,16.61-2.68,29.39-12,39.22-24.69ZM493,412.31,466.51,420h53ZM577.5,495h-8a5.5,5.5,0,0,0,0,11h8a5.5,5.5,0,0,0,0-11Zm0-25h-8a5.5,5.5,0,0,0,0,11h8a5.5,5.5,0,0,0,0-11Zm0,0h-8a5.5,5.5,0,0,0,0,11h8a5.5,5.5,0,0,0,0-11Zm0,25h-8a5.5,5.5,0,0,0,0,11h8a5.5,5.5,0,0,0,0-11Zm-45,25h18.31C565,479.23,565,433.21,565,433.21L557.39,431h-61L493,430l-3.41,1h-61L421,433.21s0,4.44.43,11.79H438.5a5.5,5.5,0,0,1,3.89,9.39,5.41,5.41,0,0,1-3.06,1.54,4.58,4.58,0,0,1-.83.07H422.24c1.57,17.09,5.07,41.36,13,64H513.5a5.5,5.5,0,1,1,0,11h-74a128.54,128.54,0,0,0,7,14H536.5a5.37,5.37,0,0,1,2.67.7,128.48,128.48,0,0,0,7.37-14.7h-14a5.5,5.5,0,1,1,0-11Zm-74-64a5.5,5.5,0,1,1,0-11h92a5.5,5.5,0,1,1,0,11ZM493,412.31,466.51,420h53ZM453.78,556c9.83,12.71,22.61,22,39.22,24.69,16.61-2.68,29.39-12,39.22-24.69Zm11.72,14h-59a5.5,5.5,0,0,0,0,11h59a5.5,5.5,0,0,0,0-11Zm-51-100h-8a5.5,5.5,0,0,0,0,11h8a5.5,5.5,0,0,0,0-11Zm0,25h-8a5.5,5.5,0,0,0,0,11h8a5.5,5.5,0,0,0,0-11Zm0,0h-8a5.5,5.5,0,0,0,0,11h8a5.5,5.5,0,0,0,0-11Zm0-25h-8a5.5,5.5,0,0,0,0,11h8a5.5,5.5,0,0,0,0-11Zm51,100h-59a5.5,5.5,0,0,0,0,11h59a5.5,5.5,0,0,0,0-11Zm67-50h18.31C565,479.23,565,433.21,565,433.21L557.39,431h-61L493,430l-3.41,1h-61L421,433.21s0,4.44.43,11.79H438.5a5.5,5.5,0,0,1,3.89,9.39,5.41,5.41,0,0,1-3.06,1.54,4.58,4.58,0,0,1-.83.07H422.24c1.57,17.09,5.07,41.36,13,64H513.5a5.5,5.5,0,1,1,0,11h-74a128.54,128.54,0,0,0,7,14H536.5a5.37,5.37,0,0,1,2.67.7,128.48,128.48,0,0,0,7.37-14.7h-14a5.5,5.5,0,1,1,0-11Zm-74-64a5.5,5.5,0,1,1,0-11h92a5.5,5.5,0,1,1,0,11Zm-4.72,100c9.83,12.71,22.61,22,39.22,24.69,16.61-2.68,29.39-12,39.22-24.69ZM493,412.31,466.51,420h53ZM577.5,495h-8a5.5,5.5,0,0,0,0,11h8a5.5,5.5,0,0,0,0-11Zm0-25h-8a5.5,5.5,0,0,0,0,11h8a5.5,5.5,0,0,0,0-11Zm-2.36,120.61,0,0,.06,0Zm0,0,0,0,.06,0ZM577.5,470h-8a5.5,5.5,0,0,0,0,11h8a5.5,5.5,0,0,0,0-11Zm0,25h-8a5.5,5.5,0,0,0,0,11h8a5.5,5.5,0,0,0,0-11Zm-45,25h18.31C565,479.23,565,433.21,565,433.21L557.39,431h-61L493,430l-3.41,1h-61L421,433.21s0,4.44.43,11.79H438.5a5.5,5.5,0,0,1,3.89,9.39,5.41,5.41,0,0,1-3.06,1.54,4.58,4.58,0,0,1-.83.07H422.24c1.57,17.09,5.07,41.36,13,64H513.5a5.5,5.5,0,1,1,0,11h-74a128.54,128.54,0,0,0,7,14H536.5a5.37,5.37,0,0,1,2.67.7,128.48,128.48,0,0,0,7.37-14.7h-14a5.5,5.5,0,1,1,0-11Zm-74-64a5.5,5.5,0,1,1,0-11h92a5.5,5.5,0,1,1,0,11ZM493,412.31,466.51,420h53ZM453.78,556c9.83,12.71,22.61,22,39.22,24.69,16.61-2.68,29.39-12,39.22-24.69Zm11.72,14h-59a5.5,5.5,0,0,0,0,11h59a5.5,5.5,0,0,0,0-11Zm-51-100h-8a5.5,5.5,0,0,0,0,11h8a5.5,5.5,0,0,0,0-11Zm0,25h-8a5.5,5.5,0,0,0,0,11h8a5.5,5.5,0,0,0,0-11Zm0,0h-8a5.5,5.5,0,0,0,0,11h8a5.5,5.5,0,0,0,0-11Zm0-25h-8a5.5,5.5,0,0,0,0,11h8a5.5,5.5,0,0,0,0-11Zm51,100h-59a5.5,5.5,0,0,0,0,11h59a5.5,5.5,0,0,0,0-11Zm67-50h18.31C565,479.23,565,433.21,565,433.21L557.39,431h-61L493,430l-3.41,1h-61L421,433.21s0,4.44.43,11.79H438.5a5.5,5.5,0,0,1,3.89,9.39,5.41,5.41,0,0,1-3.06,1.54,4.58,4.58,0,0,1-.83.07H422.24c1.57,17.09,5.07,41.36,13,64H513.5a5.5,5.5,0,1,1,0,11h-74a128.54,128.54,0,0,0,7,14H536.5a5.37,5.37,0,0,1,2.67.7,128.48,128.48,0,0,0,7.37-14.7h-14a5.5,5.5,0,1,1,0-11Zm-74-64a5.5,5.5,0,1,1,0-11h92a5.5,5.5,0,1,1,0,11Zm-4.72,100c9.83,12.71,22.61,22,39.22,24.69,16.61-2.68,29.39-12,39.22-24.69ZM493,412.31,466.51,420h53Zm80.58,221.18c-.54,0-1.07,0-1.6,0l1.68,4.16,1.49-4.16C574.63,633.48,574.11,633.49,573.58,633.49ZM577.5,495h-8a5.5,5.5,0,0,0,0,11h8a5.5,5.5,0,0,0,0-11Zm0-25h-8a5.5,5.5,0,0,0,0,11h8a5.5,5.5,0,0,0,0-11Zm-2.36,120.61,0,0,.06,0Zm0,0,0,0,.06,0ZM577.5,470h-8a5.5,5.5,0,0,0,0,11h8a5.5,5.5,0,0,0,0-11Zm0,25h-8a5.5,5.5,0,0,0,0,11h8a5.5,5.5,0,0,0,0-11Zm-3.92,138.49c-.54,0-1.07,0-1.6,0l1.68,4.16,1.49-4.16C574.63,633.48,574.11,633.49,573.58,633.49ZM532.5,520h18.31C565,479.23,565,433.21,565,433.21L557.39,431h-61L493,430l-3.41,1h-61L421,433.21s0,4.44.43,11.79H438.5a5.5,5.5,0,0,1,3.89,9.39,5.41,5.41,0,0,1-3.06,1.54,4.58,4.58,0,0,1-.83.07H422.24c1.57,17.09,5.07,41.36,13,64H513.5a5.5,5.5,0,1,1,0,11h-74a128.54,128.54,0,0,0,7,14H536.5a5.37,5.37,0,0,1,2.67.7,128.48,128.48,0,0,0,7.37-14.7h-14a5.5,5.5,0,1,1,0-11Zm-74-64a5.5,5.5,0,1,1,0-11h92a5.5,5.5,0,1,1,0,11ZM493,412.31,466.51,420h53ZM453.78,556c9.83,12.71,22.61,22,39.22,24.69,16.61-2.68,29.39-12,39.22-24.69Zm11.72,14h-59a5.5,5.5,0,0,0,0,11h59a5.5,5.5,0,0,0,0-11Zm-51-100h-8a5.5,5.5,0,0,0,0,11h8a5.5,5.5,0,0,0,0-11Zm0,25h-8a5.5,5.5,0,0,0,0,11h8a5.5,5.5,0,0,0,0-11Zm0,0h-8a5.5,5.5,0,0,0,0,11h8a5.5,5.5,0,0,0,0-11Zm0-25h-8a5.5,5.5,0,0,0,0,11h8a5.5,5.5,0,0,0,0-11Zm51,100h-59a5.5,5.5,0,0,0,0,11h59a5.5,5.5,0,0,0,0-11Zm67-50h18.31C565,479.23,565,433.21,565,433.21L557.39,431h-61L493,430l-3.41,1h-61L421,433.21s0,4.44.43,11.79H438.5a5.5,5.5,0,0,1,3.89,9.39,5.41,5.41,0,0,1-3.06,1.54,4.58,4.58,0,0,1-.83.07H422.24c1.57,17.09,5.07,41.36,13,64H513.5a5.5,5.5,0,1,1,0,11h-74a128.54,128.54,0,0,0,7,14H536.5a5.37,5.37,0,0,1,2.67.7,128.48,128.48,0,0,0,7.37-14.7h-14a5.5,5.5,0,1,1,0-11Zm-74-64a5.5,5.5,0,1,1,0-11h92a5.5,5.5,0,1,1,0,11Zm-4.72,100c9.83,12.71,22.61,22,39.22,24.69,16.61-2.68,29.39-12,39.22-24.69ZM493,412.31,466.51,420h53Zm80.58,221.18c-.54,0-1.07,0-1.6,0l1.68,4.16,1.49-4.16C574.63,633.48,574.11,633.49,573.58,633.49Zm1.56-42.88,0,0,.06,0ZM577.5,495h-8a5.5,5.5,0,0,0,0,11h8a5.5,5.5,0,0,0,0-11Zm0-25h-8a5.5,5.5,0,0,0,0,11h8a5.5,5.5,0,0,0,0-11Zm-8,11h8a5.5,5.5,0,0,0,0-11h-8a5.5,5.5,0,0,0,0,11Zm8,14h-8a5.5,5.5,0,0,0,0,11h8a5.5,5.5,0,0,0,0-11Zm-2.4,95.63.06,0,0,0ZM572,633.45l1.68,4.16,1.49-4.16c-.52,0-1,0-1.57,0S572.51,633.48,572,633.45ZM532.5,520h18.31C565,479.23,565,433.21,565,433.21L557.39,431h-61L493,430l-3.41,1h-61L421,433.21s0,4.44.43,11.79H438.5a5.5,5.5,0,0,1,3.89,9.39,5.41,5.41,0,0,1-3.06,1.54,4.58,4.58,0,0,1-.83.07H422.24c1.57,17.09,5.07,41.36,13,64H513.5a5.5,5.5,0,1,1,0,11h-74a128.54,128.54,0,0,0,7,14H536.5a5.37,5.37,0,0,1,2.67.7,128.48,128.48,0,0,0,7.37-14.7h-14a5.5,5.5,0,1,1,0-11Zm-74-64a5.5,5.5,0,1,1,0-11h92a5.5,5.5,0,1,1,0,11ZM493,412.31,466.51,420h53ZM453.78,556c9.83,12.71,22.61,22,39.22,24.69,16.61-2.68,29.39-12,39.22-24.69Zm11.72,14h-59a5.5,5.5,0,0,0,0,11h59a5.5,5.5,0,0,0,0-11Zm-59-89h8a5.5,5.5,0,0,0,0-11h-8a5.5,5.5,0,0,0,0,11Zm0,25h8a5.5,5.5,0,0,0,0-11h-8a5.5,5.5,0,0,0,0,11Zm545.9-33.2H789.3a26.61,26.61,0,0,0,2.4-11c0-9.5-5.7-18.2-13.9-24.1h34.7c21.6,0,39.1-14.4,39.1-32.1V387.9c0-17.7-17.5-32.1-39.1-32.1H788.9a24.46,24.46,0,0,0,1.6-9.2V328.9c0-17.7-17.5-32.1-39.1-32.1h-559c-21.6,0-39.1,14.4-39.1,32.1v17.7c0,17.7,17.5,32.1,39.1,32.1H216a24.46,24.46,0,0,0-1.6,9.2v17.7a27.58,27.58,0,0,0,6.5,17.4H152.4a44.18,44.18,0,0,0-27.7,9.5c-6.9,5.7-11.4,13.9-11.4,22.6,0,17.7,17.5,32.1,39.1,32.1H216c-9.8,2.1-19.2,6.2-26.1,12.1-10.2,8.2-16.3,19.5-16.3,31.8A39.16,39.16,0,0,0,183.8,557H116.1c-30.1,0-55,20.3-55,44.9v22.3c0,24.6,24.8,44.9,55,44.9H282.5a54.58,54.58,0,0,0,25,17.39c1,.35,2,.68,3,1s2,.57,3,.81A65.8,65.8,0,0,0,329,690.1H777.7c15.1,0,28.5-4.9,38.7-13.1s16.3-19.5,16.3-31.8A39.33,39.33,0,0,0,822.5,619h40.4c15.5,0,28.9-4.9,39.1-13.1s16.3-19.5,16.3-31.8c0-15.7-9.8-29.3-24.5-37.5h59.1c10.6,0,20.8-3.6,27.7-9.5,6.9-5.7,11.4-13.9,11.4-22.6C992,487.1,974.5,472.4,952.4,472.8ZM627,654.1H600.73l5.57,13.82-11-3.72L588.73,675l-8.42-20.9H567.78L560.69,674l-7-10.53-10.87,4.16,4.82-13.51H374V390l46-44,207-.1ZM569.5,481h8a5.5,5.5,0,0,0,0-11h-8a5.5,5.5,0,0,0,0,11Zm8,14h-8a5.5,5.5,0,0,0,0,11h8a5.5,5.5,0,0,0,0-11Zm-9,157.1h11l-5.84-14.49Zm6.65-61.49,0,0,.06,0Zm-1.56,42.88c-.54,0-1.07,0-1.6,0l1.68,4.16,1.49-4.16C574.63,633.48,574.11,633.49,573.58,633.49ZM493,412.31,466.51,420h53ZM453.78,556c9.83,12.71,22.61,22,39.22,24.69,16.61-2.68,29.39-12,39.22-24.69ZM438.5,445a5.5,5.5,0,0,1,3.89,9.39,5.41,5.41,0,0,1-3.06,1.54,4.58,4.58,0,0,1-.83.07H422.24c1.57,17.09,5.07,41.36,13,64H513.5a5.5,5.5,0,1,1,0,11h-74a128.54,128.54,0,0,0,7,14H536.5a5.37,5.37,0,0,1,2.67.7,128.48,128.48,0,0,0,7.37-14.7h-14a5.5,5.5,0,1,1,0-11h18.31C565,479.23,565,433.21,565,433.21L557.39,431h-61L493,430l-3.41,1h-61L421,433.21s0,4.44.43,11.79Zm112,0a5.5,5.5,0,1,1,0,11h-92a5.5,5.5,0,1,1,0-11Zm-85,125h-59a5.5,5.5,0,0,0,0,11h59a5.5,5.5,0,0,0,0-11Zm-59-89h8a5.5,5.5,0,0,0,0-11h-8a5.5,5.5,0,0,0,0,11Zm0,25h8a5.5,5.5,0,0,0,0-11h-8a5.5,5.5,0,0,0,0,11Zm8-11h-8a5.5,5.5,0,0,0,0,11h8a5.5,5.5,0,0,0,0-11Zm0-25h-8a5.5,5.5,0,0,0,0,11h8a5.5,5.5,0,0,0,0-11Zm51,100h-59a5.5,5.5,0,0,0,0,11h59a5.5,5.5,0,0,0,0-11Zm-11.72-14c9.83,12.71,22.61,22,39.22,24.69,16.61-2.68,29.39-12,39.22-24.69ZM493,412.31,466.51,420h53ZM532.5,520h18.31C565,479.23,565,433.21,565,433.21L557.39,431h-61L493,430l-3.41,1h-61L421,433.21s0,4.44.43,11.79H438.5a5.5,5.5,0,0,1,3.89,9.39,5.41,5.41,0,0,1-3.06,1.54,4.58,4.58,0,0,1-.83.07H422.24c1.57,17.09,5.07,41.36,13,64H513.5a5.5,5.5,0,1,1,0,11h-74a128.54,128.54,0,0,0,7,14H536.5a5.37,5.37,0,0,1,2.67.7,128.48,128.48,0,0,0,7.37-14.7h-14a5.5,5.5,0,1,1,0-11Zm-74-64a5.5,5.5,0,1,1,0-11h92a5.5,5.5,0,1,1,0,11ZM573.58,633.49c-.54,0-1.07,0-1.6,0l1.68,4.16,1.49-4.16C574.63,633.48,574.11,633.49,573.58,633.49Zm1.56-42.88,0,0,.06,0ZM577.5,495h-8a5.5,5.5,0,0,0,0,11h8a5.5,5.5,0,0,0,0-11Zm0-25h-8a5.5,5.5,0,0,0,0,11h8a5.5,5.5,0,0,0,0-11Zm-2.36,120.61,0,0,.06,0ZM577.5,470h-8a5.5,5.5,0,0,0,0,11h8a5.5,5.5,0,0,0,0-11Zm0,25h-8a5.5,5.5,0,0,0,0,11h8a5.5,5.5,0,0,0,0-11Zm-3.92,138.49c-.54,0-1.07,0-1.6,0l1.68,4.16,1.49-4.16C574.63,633.48,574.11,633.49,573.58,633.49ZM493,412.31,466.51,420h53ZM453.78,556c9.83,12.71,22.61,22,39.22,24.69,16.61-2.68,29.39-12,39.22-24.69Zm78.72-36h18.31C565,479.23,565,433.21,565,433.21L557.39,431h-61L493,430l-3.41,1h-61L421,433.21s0,4.44.43,11.79H438.5a5.5,5.5,0,0,1,3.89,9.39,5.41,5.41,0,0,1-3.06,1.54,4.58,4.58,0,0,1-.83.07H422.24c1.57,17.09,5.07,41.36,13,64H513.5a5.5,5.5,0,1,1,0,11h-74a128.54,128.54,0,0,0,7,14H536.5a5.37,5.37,0,0,1,2.67.7,128.48,128.48,0,0,0,7.37-14.7h-14a5.5,5.5,0,1,1,0-11Zm-74-64a5.5,5.5,0,1,1,0-11h92a5.5,5.5,0,1,1,0,11Zm7,114h-59a5.5,5.5,0,0,0,0,11h59a5.5,5.5,0,0,0,0-11Zm-51-100h-8a5.5,5.5,0,0,0,0,11h8a5.5,5.5,0,0,0,0-11Zm0,25h-8a5.5,5.5,0,0,0,0,11h8a5.5,5.5,0,0,0,0-11Zm0,0h-8a5.5,5.5,0,0,0,0,11h8a5.5,5.5,0,0,0,0-11Zm0-25h-8a5.5,5.5,0,0,0,0,11h8a5.5,5.5,0,0,0,0-11Zm51,100h-59a5.5,5.5,0,0,0,0,11h59a5.5,5.5,0,0,0,0-11Zm-11.72-14c9.83,12.71,22.61,22,39.22,24.69,16.61-2.68,29.39-12,39.22-24.69ZM493,412.31,466.51,420h53ZM532.5,520h18.31C565,479.23,565,433.21,565,433.21L557.39,431h-61L493,430l-3.41,1h-61L421,433.21s0,4.44.43,11.79H438.5a5.5,5.5,0,0,1,3.89,9.39,5.41,5.41,0,0,1-3.06,1.54,4.58,4.58,0,0,1-.83.07H422.24c1.57,17.09,5.07,41.36,13,64H513.5a5.5,5.5,0,1,1,0,11h-74a128.54,128.54,0,0,0,7,14H536.5a5.37,5.37,0,0,1,2.67.7,128.48,128.48,0,0,0,7.37-14.7h-14a5.5,5.5,0,1,1,0-11Zm-74-64a5.5,5.5,0,1,1,0-11h92a5.5,5.5,0,1,1,0,11ZM573.58,633.49c-.54,0-1.07,0-1.6,0l1.68,4.16,1.49-4.16C574.63,633.48,574.11,633.49,573.58,633.49ZM577.5,495h-8a5.5,5.5,0,0,0,0,11h8a5.5,5.5,0,0,0,0-11Zm0-25h-8a5.5,5.5,0,0,0,0,11h8a5.5,5.5,0,0,0,0-11Zm-2.36,120.61,0,0,.06,0Zm0,0,0,0,.06,0ZM577.5,470h-8a5.5,5.5,0,0,0,0,11h8a5.5,5.5,0,0,0,0-11Zm0,25h-8a5.5,5.5,0,0,0,0,11h8a5.5,5.5,0,0,0,0-11Zm-3.92,138.49c-.54,0-1.07,0-1.6,0l1.68,4.16,1.49-4.16C574.63,633.48,574.11,633.49,573.58,633.49ZM493,412.31,466.51,420h53ZM453.78,556c9.83,12.71,22.61,22,39.22,24.69,16.61-2.68,29.39-12,39.22-24.69Zm78.72-36h18.31C565,479.23,565,433.21,565,433.21L557.39,431h-61L493,430l-3.41,1h-61L421,433.21s0,4.44.43,11.79H438.5a5.5,5.5,0,0,1,3.89,9.39,5.41,5.41,0,0,1-3.06,1.54,4.58,4.58,0,0,1-.83.07H422.24c1.57,17.09,5.07,41.36,13,64H513.5a5.5,5.5,0,1,1,0,11h-74a128.54,128.54,0,0,0,7,14H536.5a5.37,5.37,0,0,1,2.67.7,128.48,128.48,0,0,0,7.37-14.7h-14a5.5,5.5,0,1,1,0-11Zm-74-64a5.5,5.5,0,1,1,0-11h92a5.5,5.5,0,1,1,0,11Zm7,114h-59a5.5,5.5,0,0,0,0,11h59a5.5,5.5,0,0,0,0-11Zm-51-100h-8a5.5,5.5,0,0,0,0,11h8a5.5,5.5,0,0,0,0-11Zm0,25h-8a5.5,5.5,0,0,0,0,11h8a5.5,5.5,0,0,0,0-11Zm0,0h-8a5.5,5.5,0,0,0,0,11h8a5.5,5.5,0,0,0,0-11Zm0-25h-8a5.5,5.5,0,0,0,0,11h8a5.5,5.5,0,0,0,0-11Zm51,100h-59a5.5,5.5,0,0,0,0,11h59a5.5,5.5,0,0,0,0-11Zm-11.72-14c9.83,12.71,22.61,22,39.22,24.69,16.61-2.68,29.39-12,39.22-24.69ZM493,412.31,466.51,420h53ZM532.5,520h18.31C565,479.23,565,433.21,565,433.21L557.39,431h-61L493,430l-3.41,1h-61L421,433.21s0,4.44.43,11.79H438.5a5.5,5.5,0,0,1,3.89,9.39,5.41,5.41,0,0,1-3.06,1.54,4.58,4.58,0,0,1-.83.07H422.24c1.57,17.09,5.07,41.36,13,64H513.5a5.5,5.5,0,1,1,0,11h-74a128.54,128.54,0,0,0,7,14H536.5a5.37,5.37,0,0,1,2.67.7,128.48,128.48,0,0,0,7.37-14.7h-14a5.5,5.5,0,1,1,0-11Zm-74-64a5.5,5.5,0,1,1,0-11h92a5.5,5.5,0,1,1,0,11Zm119,39h-8a5.5,5.5,0,0,0,0,11h8a5.5,5.5,0,0,0,0-11Zm0-25h-8a5.5,5.5,0,0,0,0,11h8a5.5,5.5,0,0,0,0-11Zm-2.36,120.61,0,0,.06,0Zm0,0,0,0,.06,0ZM577.5,470h-8a5.5,5.5,0,0,0,0,11h8a5.5,5.5,0,0,0,0-11Zm0,25h-8a5.5,5.5,0,0,0,0,11h8a5.5,5.5,0,0,0,0-11ZM493,412.31,466.51,420h53ZM453.78,556c9.83,12.71,22.61,22,39.22,24.69,16.61-2.68,29.39-12,39.22-24.69Zm78.72-36h18.31C565,479.23,565,433.21,565,433.21L557.39,431h-61L493,430l-3.41,1h-61L421,433.21s0,4.44.43,11.79H438.5a5.5,5.5,0,0,1,3.89,9.39,5.41,5.41,0,0,1-3.06,1.54,4.58,4.58,0,0,1-.83.07H422.24c1.57,17.09,5.07,41.36,13,64H513.5a5.5,5.5,0,1,1,0,11h-74a128.54,128.54,0,0,0,7,14H536.5a5.37,5.37,0,0,1,2.67.7,128.48,128.48,0,0,0,7.37-14.7h-14a5.5,5.5,0,1,1,0-11Zm-74-64a5.5,5.5,0,1,1,0-11h92a5.5,5.5,0,1,1,0,11Zm7,114h-59a5.5,5.5,0,0,0,0,11h59a5.5,5.5,0,0,0,0-11Zm-51-100h-8a5.5,5.5,0,0,0,0,11h8a5.5,5.5,0,0,0,0-11Zm0,25h-8a5.5,5.5,0,0,0,0,11h8a5.5,5.5,0,0,0,0-11Zm0,0h-8a5.5,5.5,0,0,0,0,11h8a5.5,5.5,0,0,0,0-11Zm0-25h-8a5.5,5.5,0,0,0,0,11h8a5.5,5.5,0,0,0,0-11Zm51,100h-59a5.5,5.5,0,0,0,0,11h59a5.5,5.5,0,0,0,0-11Zm-11.72-14c9.83,12.71,22.61,22,39.22,24.69,16.61-2.68,29.39-12,39.22-24.69ZM493,412.31,466.51,420h53ZM532.5,520h18.31C565,479.23,565,433.21,565,433.21L557.39,431h-61L493,430l-3.41,1h-61L421,433.21s0,4.44.43,11.79H438.5a5.5,5.5,0,0,1,3.89,9.39,5.41,5.41,0,0,1-3.06,1.54,4.58,4.58,0,0,1-.83.07H422.24c1.57,17.09,5.07,41.36,13,64H513.5a5.5,5.5,0,1,1,0,11h-74a128.54,128.54,0,0,0,7,14H536.5a5.37,5.37,0,0,1,2.67.7,128.48,128.48,0,0,0,7.37-14.7h-14a5.5,5.5,0,1,1,0-11Zm-74-64a5.5,5.5,0,1,1,0-11h92a5.5,5.5,0,1,1,0,11Zm119,39h-8a5.5,5.5,0,0,0,0,11h8a5.5,5.5,0,0,0,0-11Zm0-25h-8a5.5,5.5,0,0,0,0,11h8a5.5,5.5,0,0,0,0-11Zm0,0h-8a5.5,5.5,0,0,0,0,11h8a5.5,5.5,0,0,0,0-11Zm0,25h-8a5.5,5.5,0,0,0,0,11h8a5.5,5.5,0,0,0,0-11ZM493,412.31,466.51,420h53ZM453.78,556c9.83,12.71,22.61,22,39.22,24.69,16.61-2.68,29.39-12,39.22-24.69Zm78.72-36h18.31C565,479.23,565,433.21,565,433.21L557.39,431h-61L493,430l-3.41,1h-61L421,433.21s0,4.44.43,11.79H438.5a5.5,5.5,0,0,1,3.89,9.39,5.41,5.41,0,0,1-3.06,1.54,4.58,4.58,0,0,1-.83.07H422.24c1.57,17.09,5.07,41.36,13,64H513.5a5.5,5.5,0,1,1,0,11h-74a128.54,128.54,0,0,0,7,14H536.5a5.37,5.37,0,0,1,2.67.7,128.48,128.48,0,0,0,7.37-14.7h-14a5.5,5.5,0,1,1,0-11Zm-74-64a5.5,5.5,0,1,1,0-11h92a5.5,5.5,0,1,1,0,11Zm7,114h-59a5.5,5.5,0,0,0,0,11h59a5.5,5.5,0,0,0,0-11Zm-51-100h-8a5.5,5.5,0,0,0,0,11h8a5.5,5.5,0,0,0,0-11Zm0,25h-8a5.5,5.5,0,0,0,0,11h8a5.5,5.5,0,0,0,0-11Z" transform="translate(-61.1 -223.3)" fill="#ddd"/>
  </g>
  <g>
    <g>
      <polygon points="356.9 164.7 317.88 164.7 356.9 127.38 356.9 164.7" fill="#ecf4d4"/>
      <path d="M414.5,495h-8a5.5,5.5,0,0,0,0,11h8a5.5,5.5,0,0,0,0-11Zm0-25h-8a5.5,5.5,0,0,0,0,11h8a5.5,5.5,0,0,0,0-11Zm51,100h-59a5.5,5.5,0,0,0,0,11h59a5.5,5.5,0,0,0,0-11Zm-11.72-14c9.83,12.71,22.61,22,39.22,24.69,16.61-2.68,29.39-12,39.22-24.69ZM493,412.31,466.51,420h53ZM532.5,520h18.31C565,479.23,565,433.21,565,433.21L557.39,431h-61L493,430l-3.41,1h-61L421,433.21s0,4.44.43,11.79H438.5a5.5,5.5,0,0,1,3.89,9.39,5.41,5.41,0,0,1-3.06,1.54,4.58,4.58,0,0,1-.83.07H422.24c1.57,17.09,5.07,41.36,13,64H513.5a5.5,5.5,0,1,1,0,11h-74a128.54,128.54,0,0,0,7,14H536.5a5.37,5.37,0,0,1,2.67.7,128.48,128.48,0,0,0,7.37-14.7h-14a5.5,5.5,0,1,1,0-11Zm-74-64a5.5,5.5,0,1,1,0-11h92a5.5,5.5,0,1,1,0,11Zm119,39h-8a5.5,5.5,0,0,0,0,11h8a5.5,5.5,0,0,0,0-11Zm0-25h-8a5.5,5.5,0,0,0,0,11h8a5.5,5.5,0,0,0,0-11Zm0,0h-8a5.5,5.5,0,0,0,0,11h8a5.5,5.5,0,0,0,0-11Zm0,25h-8a5.5,5.5,0,0,0,0,11h8a5.5,5.5,0,0,0,0-11Zm-45,25h18.31C565,479.23,565,433.21,565,433.21L557.39,431h-61L493,430l-3.41,1h-61L421,433.21s0,4.44.43,11.79H438.5a5.5,5.5,0,0,1,3.89,9.39,5.41,5.41,0,0,1-3.06,1.54,4.58,4.58,0,0,1-.83.07H422.24c1.57,17.09,5.07,41.36,13,64H513.5a5.5,5.5,0,1,1,0,11h-74a128.54,128.54,0,0,0,7,14H536.5a5.37,5.37,0,0,1,2.67.7,128.48,128.48,0,0,0,7.37-14.7h-14a5.5,5.5,0,1,1,0-11Zm-74-64a5.5,5.5,0,1,1,0-11h92a5.5,5.5,0,1,1,0,11ZM493,412.31,466.51,420h53ZM453.78,556c9.83,12.71,22.61,22,39.22,24.69,16.61-2.68,29.39-12,39.22-24.69Zm11.72,14h-59a5.5,5.5,0,0,0,0,11h59a5.5,5.5,0,0,0,0-11Zm-51-100h-8a5.5,5.5,0,0,0,0,11h8a5.5,5.5,0,0,0,0-11Zm0,25h-8a5.5,5.5,0,0,0,0,11h8a5.5,5.5,0,0,0,0-11Zm0,0h-8a5.5,5.5,0,0,0,0,11h8a5.5,5.5,0,0,0,0-11Zm0-25h-8a5.5,5.5,0,0,0,0,11h8a5.5,5.5,0,0,0,0-11Zm51,100h-59a5.5,5.5,0,0,0,0,11h59a5.5,5.5,0,0,0,0-11Zm-11.72-14c9.83,12.71,22.61,22,39.22,24.69,16.61-2.68,29.39-12,39.22-24.69ZM493,412.31,466.51,420h53ZM532.5,520h18.31C565,479.23,565,433.21,565,433.21L557.39,431h-61L493,430l-3.41,1h-61L421,433.21s0,4.44.43,11.79H438.5a5.5,5.5,0,0,1,3.89,9.39,5.41,5.41,0,0,1-3.06,1.54,4.58,4.58,0,0,1-.83.07H422.24c1.57,17.09,5.07,41.36,13,64H513.5a5.5,5.5,0,1,1,0,11h-74a128.54,128.54,0,0,0,7,14H536.5a5.37,5.37,0,0,1,2.67.7,128.48,128.48,0,0,0,7.37-14.7h-14a5.5,5.5,0,1,1,0-11Zm-74-64a5.5,5.5,0,1,1,0-11h92a5.5,5.5,0,1,1,0,11Zm119,39h-8a5.5,5.5,0,0,0,0,11h8a5.5,5.5,0,0,0,0-11Zm0-25h-8a5.5,5.5,0,0,0,0,11h8a5.5,5.5,0,0,0,0-11Zm-2.36,120.61,0,0,.06,0Zm0,0,0,0,.06,0ZM577.5,470h-8a5.5,5.5,0,0,0,0,11h8a5.5,5.5,0,0,0,0-11Zm0,25h-8a5.5,5.5,0,0,0,0,11h8a5.5,5.5,0,0,0,0-11Zm-45,25h18.31C565,479.23,565,433.21,565,433.21L557.39,431h-61L493,430l-3.41,1h-61L421,433.21s0,4.44.43,11.79H438.5a5.5,5.5,0,0,1,3.89,9.39,5.41,5.41,0,0,1-3.06,1.54,4.58,4.58,0,0,1-.83.07H422.24c1.57,17.09,5.07,41.36,13,64H513.5a5.5,5.5,0,1,1,0,11h-74a128.54,128.54,0,0,0,7,14H536.5a5.37,5.37,0,0,1,2.67.7,128.48,128.48,0,0,0,7.37-14.7h-14a5.5,5.5,0,1,1,0-11Zm-74-64a5.5,5.5,0,1,1,0-11h92a5.5,5.5,0,1,1,0,11ZM493,412.31,466.51,420h53ZM453.78,556c9.83,12.71,22.61,22,39.22,24.69,16.61-2.68,29.39-12,39.22-24.69Zm11.72,14h-59a5.5,5.5,0,0,0,0,11h59a5.5,5.5,0,0,0,0-11Zm-51-100h-8a5.5,5.5,0,0,0,0,11h8a5.5,5.5,0,0,0,0-11Zm0,25h-8a5.5,5.5,0,0,0,0,11h8a5.5,5.5,0,0,0,0-11Zm0,0h-8a5.5,5.5,0,0,0,0,11h8a5.5,5.5,0,0,0,0-11Zm0-25h-8a5.5,5.5,0,0,0,0,11h8a5.5,5.5,0,0,0,0-11Zm51,100h-59a5.5,5.5,0,0,0,0,11h59a5.5,5.5,0,0,0,0-11Zm-11.72-14c9.83,12.71,22.61,22,39.22,24.69,16.61-2.68,29.39-12,39.22-24.69ZM493,412.31,466.51,420h53ZM532.5,520h18.31C565,479.23,565,433.21,565,433.21L557.39,431h-61L493,430l-3.41,1h-61L421,433.21s0,4.44.43,11.79H438.5a5.5,5.5,0,0,1,3.89,9.39,5.41,5.41,0,0,1-3.06,1.54,4.58,4.58,0,0,1-.83.07H422.24c1.57,17.09,5.07,41.36,13,64H513.5a5.5,5.5,0,1,1,0,11h-74a128.54,128.54,0,0,0,7,14H536.5a5.37,5.37,0,0,1,2.67.7,128.48,128.48,0,0,0,7.37-14.7h-14a5.5,5.5,0,1,1,0-11Zm-74-64a5.5,5.5,0,1,1,0-11h92a5.5,5.5,0,1,1,0,11ZM573.58,633.49c-.54,0-1.07,0-1.6,0l1.68,4.16,1.49-4.16C574.63,633.48,574.11,633.49,573.58,633.49ZM577.5,495h-8a5.5,5.5,0,0,0,0,11h8a5.5,5.5,0,0,0,0-11Zm0-25h-8a5.5,5.5,0,0,0,0,11h8a5.5,5.5,0,0,0,0-11Zm-2.36,120.61,0,0,.06,0Zm0,0,0,0,.06,0ZM577.5,470h-8a5.5,5.5,0,0,0,0,11h8a5.5,5.5,0,0,0,0-11Zm0,25h-8a5.5,5.5,0,0,0,0,11h8a5.5,5.5,0,0,0,0-11Zm-3.92,138.49c-.54,0-1.07,0-1.6,0l1.68,4.16,1.49-4.16C574.63,633.48,574.11,633.49,573.58,633.49ZM532.5,520h18.31C565,479.23,565,433.21,565,433.21L557.39,431h-61L493,430l-3.41,1h-61L421,433.21s0,4.44.43,11.79H438.5a5.5,5.5,0,0,1,3.89,9.39,5.41,5.41,0,0,1-3.06,1.54,4.58,4.58,0,0,1-.83.07H422.24c1.57,17.09,5.07,41.36,13,64H513.5a5.5,5.5,0,1,1,0,11h-74a128.54,128.54,0,0,0,7,14H536.5a5.37,5.37,0,0,1,2.67.7,128.48,128.48,0,0,0,7.37-14.7h-14a5.5,5.5,0,1,1,0-11Zm-74-64a5.5,5.5,0,1,1,0-11h92a5.5,5.5,0,1,1,0,11ZM493,412.31,466.51,420h53ZM453.78,556c9.83,12.71,22.61,22,39.22,24.69,16.61-2.68,29.39-12,39.22-24.69Zm11.72,14h-59a5.5,5.5,0,0,0,0,11h59a5.5,5.5,0,0,0,0-11Zm-51-100h-8a5.5,5.5,0,0,0,0,11h8a5.5,5.5,0,0,0,0-11Zm0,25h-8a5.5,5.5,0,0,0,0,11h8a5.5,5.5,0,0,0,0-11Zm0,0h-8a5.5,5.5,0,0,0,0,11h8a5.5,5.5,0,0,0,0-11Zm0-25h-8a5.5,5.5,0,0,0,0,11h8a5.5,5.5,0,0,0,0-11Zm51,100h-59a5.5,5.5,0,0,0,0,11h59a5.5,5.5,0,0,0,0-11Zm-11.72-14c9.83,12.71,22.61,22,39.22,24.69,16.61-2.68,29.39-12,39.22-24.69ZM493,412.31,466.51,420h53ZM532.5,520h18.31C565,479.23,565,433.21,565,433.21L557.39,431h-61L493,430l-3.41,1h-61L421,433.21s0,4.44.43,11.79H438.5a5.5,5.5,0,0,1,3.89,9.39,5.41,5.41,0,0,1-3.06,1.54,4.58,4.58,0,0,1-.83.07H422.24c1.57,17.09,5.07,41.36,13,64H513.5a5.5,5.5,0,1,1,0,11h-74a128.54,128.54,0,0,0,7,14H536.5a5.37,5.37,0,0,1,2.67.7,128.48,128.48,0,0,0,7.37-14.7h-14a5.5,5.5,0,1,1,0-11Zm-74-64a5.5,5.5,0,1,1,0-11h92a5.5,5.5,0,1,1,0,11ZM573.58,633.49c-.54,0-1.07,0-1.6,0l1.68,4.16,1.49-4.16C574.63,633.48,574.11,633.49,573.58,633.49Zm1.56-42.88,0,0,.06,0ZM577.5,495h-8a5.5,5.5,0,0,0,0,11h8a5.5,5.5,0,0,0,0-11Zm0-25h-8a5.5,5.5,0,0,0,0,11h8a5.5,5.5,0,0,0,0-11Zm-8,11h8a5.5,5.5,0,0,0,0-11h-8a5.5,5.5,0,0,0,0,11Zm8,14h-8a5.5,5.5,0,0,0,0,11h8a5.5,5.5,0,0,0,0-11Zm-2.4,95.63.06,0,0,0ZM572,633.45l1.68,4.16,1.49-4.16c-.52,0-1,0-1.57,0S572.51,633.48,572,633.45ZM532.5,520h18.31C565,479.23,565,433.21,565,433.21L557.39,431h-61L493,430l-3.41,1h-61L421,433.21s0,4.44.43,11.79H438.5a5.5,5.5,0,0,1,3.89,9.39,5.41,5.41,0,0,1-3.06,1.54,4.58,4.58,0,0,1-.83.07H422.24c1.57,17.09,5.07,41.36,13,64H513.5a5.5,5.5,0,1,1,0,11h-74a128.54,128.54,0,0,0,7,14H536.5a5.37,5.37,0,0,1,2.67.7,128.48,128.48,0,0,0,7.37-14.7h-14a5.5,5.5,0,1,1,0-11Zm-74-64a5.5,5.5,0,1,1,0-11h92a5.5,5.5,0,1,1,0,11ZM493,412.31,466.51,420h53ZM453.78,556c9.83,12.71,22.61,22,39.22,24.69,16.61-2.68,29.39-12,39.22-24.69Zm11.72,14h-59a5.5,5.5,0,0,0,0,11h59a5.5,5.5,0,0,0,0-11Zm-59-89h8a5.5,5.5,0,0,0,0-11h-8a5.5,5.5,0,0,0,0,11Zm0,25h8a5.5,5.5,0,0,0,0-11h-8a5.5,5.5,0,0,0,0,11ZM661.75,296.8A263,263,0,1,0,759,501,261.85,261.85,0,0,0,661.75,296.8ZM374,390l46-44,207-.1V654.1H600.73l5.57,13.82-11-3.72L588.73,675l-8.42-20.9H567.78L560.69,674l-7-10.53-10.87,4.16,4.82-13.51H374Zm195.5,91h8a5.5,5.5,0,0,0,0-11h-8a5.5,5.5,0,0,0,0,11Zm8,14h-8a5.5,5.5,0,0,0,0,11h8a5.5,5.5,0,0,0,0-11Zm-9,157.1h11l-5.84-14.49Zm6.65-61.49,0,0,.06,0Zm-1.56,42.88c-.54,0-1.07,0-1.6,0l1.68,4.16,1.49-4.16C574.63,633.48,574.11,633.49,573.58,633.49ZM532.5,520h18.31C565,479.23,565,433.21,565,433.21L557.39,431h-61L493,430l-3.41,1h-61L421,433.21s0,4.44.43,11.79H438.5a5.5,5.5,0,0,1,3.89,9.39,5.41,5.41,0,0,1-3.06,1.54,4.58,4.58,0,0,1-.83.07H422.24c1.57,17.09,5.07,41.36,13,64H513.5a5.5,5.5,0,1,1,0,11h-74a128.54,128.54,0,0,0,7,14H536.5a5.37,5.37,0,0,1,2.67.7,128.48,128.48,0,0,0,7.37-14.7h-14a5.5,5.5,0,1,1,0-11Zm-74-64a5.5,5.5,0,1,1,0-11h92a5.5,5.5,0,1,1,0,11ZM493,412.31,466.51,420h53ZM453.78,556c9.83,12.71,22.61,22,39.22,24.69,16.61-2.68,29.39-12,39.22-24.69Zm11.72,14h-59a5.5,5.5,0,0,0,0,11h59a5.5,5.5,0,0,0,0-11Zm-59-89h8a5.5,5.5,0,0,0,0-11h-8a5.5,5.5,0,0,0,0,11Zm0,25h8a5.5,5.5,0,0,0,0-11h-8a5.5,5.5,0,0,0,0,11Zm8-11h-8a5.5,5.5,0,0,0,0,11h8a5.5,5.5,0,0,0,0-11Zm0-25h-8a5.5,5.5,0,0,0,0,11h8a5.5,5.5,0,0,0,0-11Zm51,100h-59a5.5,5.5,0,0,0,0,11h59a5.5,5.5,0,0,0,0-11Zm-11.72-14c9.83,12.71,22.61,22,39.22,24.69,16.61-2.68,29.39-12,39.22-24.69ZM493,412.31,466.51,420h53ZM532.5,520h18.31C565,479.23,565,433.21,565,433.21L557.39,431h-61L493,430l-3.41,1h-61L421,433.21s0,4.44.43,11.79H438.5a5.5,5.5,0,0,1,3.89,9.39,5.41,5.41,0,0,1-3.06,1.54,4.58,4.58,0,0,1-.83.07H422.24c1.57,17.09,5.07,41.36,13,64H513.5a5.5,5.5,0,1,1,0,11h-74a128.54,128.54,0,0,0,7,14H536.5a5.37,5.37,0,0,1,2.67.7,128.48,128.48,0,0,0,7.37-14.7h-14a5.5,5.5,0,1,1,0-11Zm-74-64a5.5,5.5,0,1,1,0-11h92a5.5,5.5,0,1,1,0,11ZM573.58,633.49c-.54,0-1.07,0-1.6,0l1.68,4.16,1.49-4.16C574.63,633.48,574.11,633.49,573.58,633.49Zm1.56-42.88,0,0,.06,0ZM577.5,495h-8a5.5,5.5,0,0,0,0,11h8a5.5,5.5,0,0,0,0-11Zm0-25h-8a5.5,5.5,0,0,0,0,11h8a5.5,5.5,0,0,0,0-11Zm-2.36,120.61,0,0,.06,0ZM577.5,470h-8a5.5,5.5,0,0,0,0,11h8a5.5,5.5,0,0,0,0-11Zm0,25h-8a5.5,5.5,0,0,0,0,11h8a5.5,5.5,0,0,0,0-11Zm-3.92,138.49c-.54,0-1.07,0-1.6,0l1.68,4.16,1.49-4.16C574.63,633.48,574.11,633.49,573.58,633.49ZM532.5,520h18.31C565,479.23,565,433.21,565,433.21L557.39,431h-61L493,430l-3.41,1h-61L421,433.21s0,4.44.43,11.79H438.5a5.5,5.5,0,0,1,3.89,9.39,5.41,5.41,0,0,1-3.06,1.54,4.58,4.58,0,0,1-.83.07H422.24c1.57,17.09,5.07,41.36,13,64H513.5a5.5,5.5,0,1,1,0,11h-74a128.54,128.54,0,0,0,7,14H536.5a5.37,5.37,0,0,1,2.67.7,128.48,128.48,0,0,0,7.37-14.7h-14a5.5,5.5,0,1,1,0-11Zm-74-64a5.5,5.5,0,1,1,0-11h92a5.5,5.5,0,1,1,0,11ZM493,412.31,466.51,420h53ZM453.78,556c9.83,12.71,22.61,22,39.22,24.69,16.61-2.68,29.39-12,39.22-24.69Zm11.72,14h-59a5.5,5.5,0,0,0,0,11h59a5.5,5.5,0,0,0,0-11Zm-51-100h-8a5.5,5.5,0,0,0,0,11h8a5.5,5.5,0,0,0,0-11Zm0,25h-8a5.5,5.5,0,0,0,0,11h8a5.5,5.5,0,0,0,0-11Zm0,0h-8a5.5,5.5,0,0,0,0,11h8a5.5,5.5,0,0,0,0-11Zm0-25h-8a5.5,5.5,0,0,0,0,11h8a5.5,5.5,0,0,0,0-11Zm51,100h-59a5.5,5.5,0,0,0,0,11h59a5.5,5.5,0,0,0,0-11Zm-11.72-14c9.83,12.71,22.61,22,39.22,24.69,16.61-2.68,29.39-12,39.22-24.69ZM493,412.31,466.51,420h53ZM532.5,520h18.31C565,479.23,565,433.21,565,433.21L557.39,431h-61L493,430l-3.41,1h-61L421,433.21s0,4.44.43,11.79H438.5a5.5,5.5,0,0,1,3.89,9.39,5.41,5.41,0,0,1-3.06,1.54,4.58,4.58,0,0,1-.83.07H422.24c1.57,17.09,5.07,41.36,13,64H513.5a5.5,5.5,0,1,1,0,11h-74a128.54,128.54,0,0,0,7,14H536.5a5.37,5.37,0,0,1,2.67.7,128.48,128.48,0,0,0,7.37-14.7h-14a5.5,5.5,0,1,1,0-11Zm-74-64a5.5,5.5,0,1,1,0-11h92a5.5,5.5,0,1,1,0,11ZM573.58,633.49c-.54,0-1.07,0-1.6,0l1.68,4.16,1.49-4.16C574.63,633.48,574.11,633.49,573.58,633.49ZM577.5,495h-8a5.5,5.5,0,0,0,0,11h8a5.5,5.5,0,0,0,0-11Zm0-25h-8a5.5,5.5,0,0,0,0,11h8a5.5,5.5,0,0,0,0-11Zm-2.36,120.61,0,0,.06,0Zm0,0,0,0,.06,0ZM577.5,470h-8a5.5,5.5,0,0,0,0,11h8a5.5,5.5,0,0,0,0-11Zm0,25h-8a5.5,5.5,0,0,0,0,11h8a5.5,5.5,0,0,0,0-11Zm-3.92,138.49c-.54,0-1.07,0-1.6,0l1.68,4.16,1.49-4.16C574.63,633.48,574.11,633.49,573.58,633.49ZM532.5,520h18.31C565,479.23,565,433.21,565,433.21L557.39,431h-61L493,430l-3.41,1h-61L421,433.21s0,4.44.43,11.79H438.5a5.5,5.5,0,0,1,3.89,9.39,5.41,5.41,0,0,1-3.06,1.54,4.58,4.58,0,0,1-.83.07H422.24c1.57,17.09,5.07,41.36,13,64H513.5a5.5,5.5,0,1,1,0,11h-74a128.54,128.54,0,0,0,7,14H536.5a5.37,5.37,0,0,1,2.67.7,128.48,128.48,0,0,0,7.37-14.7h-14a5.5,5.5,0,1,1,0-11Zm-74-64a5.5,5.5,0,1,1,0-11h92a5.5,5.5,0,1,1,0,11ZM493,412.31,466.51,420h53ZM453.78,556c9.83,12.71,22.61,22,39.22,24.69,16.61-2.68,29.39-12,39.22-24.69Zm11.72,14h-59a5.5,5.5,0,0,0,0,11h59a5.5,5.5,0,0,0,0-11Zm-51-100h-8a5.5,5.5,0,0,0,0,11h8a5.5,5.5,0,0,0,0-11Zm0,25h-8a5.5,5.5,0,0,0,0,11h8a5.5,5.5,0,0,0,0-11Zm0,0h-8a5.5,5.5,0,0,0,0,11h8a5.5,5.5,0,0,0,0-11Zm0-25h-8a5.5,5.5,0,0,0,0,11h8a5.5,5.5,0,0,0,0-11Zm51,100h-59a5.5,5.5,0,0,0,0,11h59a5.5,5.5,0,0,0,0-11Zm-11.72-14c9.83,12.71,22.61,22,39.22,24.69,16.61-2.68,29.39-12,39.22-24.69ZM493,412.31,466.51,420h53ZM532.5,520h18.31C565,479.23,565,433.21,565,433.21L557.39,431h-61L493,430l-3.41,1h-61L421,433.21s0,4.44.43,11.79H438.5a5.5,5.5,0,0,1,3.89,9.39,5.41,5.41,0,0,1-3.06,1.54,4.58,4.58,0,0,1-.83.07H422.24c1.57,17.09,5.07,41.36,13,64H513.5a5.5,5.5,0,1,1,0,11h-74a128.54,128.54,0,0,0,7,14H536.5a5.37,5.37,0,0,1,2.67.7,128.48,128.48,0,0,0,7.37-14.7h-14a5.5,5.5,0,1,1,0-11Zm-74-64a5.5,5.5,0,1,1,0-11h92a5.5,5.5,0,1,1,0,11Zm119,39h-8a5.5,5.5,0,0,0,0,11h8a5.5,5.5,0,0,0,0-11Zm0-25h-8a5.5,5.5,0,0,0,0,11h8a5.5,5.5,0,0,0,0-11Zm-2.36,120.61,0,0,.06,0Zm0,0,0,0,.06,0ZM577.5,470h-8a5.5,5.5,0,0,0,0,11h8a5.5,5.5,0,0,0,0-11Zm0,25h-8a5.5,5.5,0,0,0,0,11h8a5.5,5.5,0,0,0,0-11Zm-45,25h18.31C565,479.23,565,433.21,565,433.21L557.39,431h-61L493,430l-3.41,1h-61L421,433.21s0,4.44.43,11.79H438.5a5.5,5.5,0,0,1,3.89,9.39,5.41,5.41,0,0,1-3.06,1.54,4.58,4.58,0,0,1-.83.07H422.24c1.57,17.09,5.07,41.36,13,64H513.5a5.5,5.5,0,1,1,0,11h-74a128.54,128.54,0,0,0,7,14H536.5a5.37,5.37,0,0,1,2.67.7,128.48,128.48,0,0,0,7.37-14.7h-14a5.5,5.5,0,1,1,0-11Zm-74-64a5.5,5.5,0,1,1,0-11h92a5.5,5.5,0,1,1,0,11ZM493,412.31,466.51,420h53ZM453.78,556c9.83,12.71,22.61,22,39.22,24.69,16.61-2.68,29.39-12,39.22-24.69Zm11.72,14h-59a5.5,5.5,0,0,0,0,11h59a5.5,5.5,0,0,0,0-11Zm-51-100h-8a5.5,5.5,0,0,0,0,11h8a5.5,5.5,0,0,0,0-11Zm0,25h-8a5.5,5.5,0,0,0,0,11h8a5.5,5.5,0,0,0,0-11Zm0,0h-8a5.5,5.5,0,0,0,0,11h8a5.5,5.5,0,0,0,0-11Zm0-25h-8a5.5,5.5,0,0,0,0,11h8a5.5,5.5,0,0,0,0-11Zm51,100h-59a5.5,5.5,0,0,0,0,11h59a5.5,5.5,0,0,0,0-11Zm-11.72-14c9.83,12.71,22.61,22,39.22,24.69,16.61-2.68,29.39-12,39.22-24.69ZM493,412.31,466.51,420h53ZM532.5,520h18.31C565,479.23,565,433.21,565,433.21L557.39,431h-61L493,430l-3.41,1h-61L421,433.21s0,4.44.43,11.79H438.5a5.5,5.5,0,0,1,3.89,9.39,5.41,5.41,0,0,1-3.06,1.54,4.58,4.58,0,0,1-.83.07H422.24c1.57,17.09,5.07,41.36,13,64H513.5a5.5,5.5,0,1,1,0,11h-74a128.54,128.54,0,0,0,7,14H536.5a5.37,5.37,0,0,1,2.67.7,128.48,128.48,0,0,0,7.37-14.7h-14a5.5,5.5,0,1,1,0-11Zm-74-64a5.5,5.5,0,1,1,0-11h92a5.5,5.5,0,1,1,0,11Zm119,39h-8a5.5,5.5,0,0,0,0,11h8a5.5,5.5,0,0,0,0-11Zm0-25h-8a5.5,5.5,0,0,0,0,11h8a5.5,5.5,0,0,0,0-11Zm0,0h-8a5.5,5.5,0,0,0,0,11h8a5.5,5.5,0,0,0,0-11Zm0,25h-8a5.5,5.5,0,0,0,0,11h8a5.5,5.5,0,0,0,0-11Zm-45,25h18.31C565,479.23,565,433.21,565,433.21L557.39,431h-61L493,430l-3.41,1h-61L421,433.21s0,4.44.43,11.79H438.5a5.5,5.5,0,0,1,3.89,9.39,5.41,5.41,0,0,1-3.06,1.54,4.58,4.58,0,0,1-.83.07H422.24c1.57,17.09,5.07,41.36,13,64H513.5a5.5,5.5,0,1,1,0,11h-74a128.54,128.54,0,0,0,7,14H536.5a5.37,5.37,0,0,1,2.67.7,128.48,128.48,0,0,0,7.37-14.7h-14a5.5,5.5,0,1,1,0-11Zm-74-64a5.5,5.5,0,1,1,0-11h92a5.5,5.5,0,1,1,0,11ZM493,412.31,466.51,420h53ZM453.78,556c9.83,12.71,22.61,22,39.22,24.69,16.61-2.68,29.39-12,39.22-24.69Zm11.72,14h-59a5.5,5.5,0,0,0,0,11h59a5.5,5.5,0,0,0,0-11Zm-51-100h-8a5.5,5.5,0,0,0,0,11h8a5.5,5.5,0,0,0,0-11Zm0,25h-8a5.5,5.5,0,0,0,0,11h8a5.5,5.5,0,0,0,0-11Z" transform="translate(-61.1 -223.3)" fill="#ecf4d4"/>
    </g>
    <path d="M683,314q-9.07-9.11-18.88-17.2a264.42,264.42,0,0,0-336.17,0q-9.81,8.09-19,17.2a264.35,264.35,0,0,0-1.49,372.49L309,688a264.36,264.36,0,0,0,371.88,2.1c.71-.69,1.42-1.4,2.12-2.1a264.36,264.36,0,0,0,0-374ZM496,762.5a259.78,259.78,0,0,1-182.5-74.23l-2.4-2.37a261.46,261.46,0,0,1,0-369.8,267.48,267.48,0,0,1,21.51-19.3,261.6,261.6,0,0,1,326.78,0,267.48,267.48,0,0,1,21.51,19.3,261.46,261.46,0,0,1,0,369.8q-2.13,2.13-4.3,4.2A259.72,259.72,0,0,1,496,762.5Z" transform="translate(-61.1 -223.3)" fill="#96bf3c"/>
  </g>
  <g>
    <rect x="594.4" y="50.3" width="142.5" height="2.2"/>
    <rect x="594.4" width="51.1" height="2.2"/>
  </g>
  <g>
    <rect x="94.9" y="524.8" width="217" height="1.4"/>
    <rect x="152.5" y="556.6" width="125.7" height="1.4"/>
  </g>
  <g>
    <path d="M573.66,637.61l-5.17,14.49h11Zm-.08-4.12c-.54,0-1.07,0-1.6,0l1.68,4.16,1.49-4.16C574.63,633.48,574.11,633.49,573.58,633.49Zm1.56-42.88,0,0,.06,0ZM577.5,470h-8a5.5,5.5,0,0,0,0,11h8a5.5,5.5,0,0,0,0-11Zm0,25h-8a5.5,5.5,0,0,0,0,11h8a5.5,5.5,0,0,0,0-11Zm-45,25h18.31C565,479.23,565,433.21,565,433.21L557.39,431h-61L493,430l-3.41,1h-61L421,433.21s0,4.44.43,11.79H438.5a5.5,5.5,0,0,1,3.89,9.39,5.41,5.41,0,0,1-3.06,1.54,4.58,4.58,0,0,1-.83.07H422.24c1.57,17.09,5.07,41.36,13,64H513.5a5.5,5.5,0,1,1,0,11h-74a128.54,128.54,0,0,0,7,14H536.5a5.37,5.37,0,0,1,2.67.7,128.48,128.48,0,0,0,7.37-14.7h-14a5.5,5.5,0,1,1,0-11Zm-74-64a5.5,5.5,0,1,1,0-11h92a5.5,5.5,0,1,1,0,11ZM493,412.31,466.51,420h53ZM453.78,556c9.83,12.71,22.61,22,39.22,24.69,16.61-2.68,29.39-12,39.22-24.69Zm11.72,14h-59a5.5,5.5,0,0,0,0,11h59a5.5,5.5,0,0,0,0-11Zm-51-100h-8a5.5,5.5,0,0,0,0,11h8a5.5,5.5,0,0,0,0-11Zm0,25h-8a5.5,5.5,0,0,0,0,11h8a5.5,5.5,0,0,0,0-11Z" transform="translate(-61.1 -223.3)" fill="#fff"/>
    <path d="M422,348v44H376V652.1H548.38l8.45-23.68a30.05,30.05,0,0,0,15.15,5c.53,0,1.06,0,1.6,0s1,0,1.57,0a30,30,0,0,0,15.22-5.06l9.55,23.71H625V347.9ZM402.61,496.61A5.51,5.51,0,0,1,406.5,495h8a5.5,5.5,0,1,1,0,11h-8a5.5,5.5,0,0,1-3.89-9.39ZM401,475.5a5.5,5.5,0,0,1,5.5-5.5h8a5.5,5.5,0,1,1,0,11h-8A5.51,5.51,0,0,1,401,475.5Zm68.39,103.88A5.48,5.48,0,0,1,465.5,581h-59a5.5,5.5,0,1,1,0-11h59a5.49,5.49,0,0,1,3.89,9.38Zm71-25A5.48,5.48,0,0,1,536.5,556h-4.28c-9.83,12.71-22.61,22-39.22,24.69-16.61-2.68-29.39-12-39.22-24.69H406.5a5.5,5.5,0,1,1,0-11h39.93a128.54,128.54,0,0,1-7-14h-33a5.5,5.5,0,1,1,0-11h28.69c-7.88-22.64-11.38-46.91-13-64H406.5a5.5,5.5,0,1,1,0-11h14.93c-.43-7.35-.43-11.79-.43-11.79l7.61-2.21H406.5a5.5,5.5,0,1,1,0-11h60L493,412.31,519.49,420h58a5.5,5.5,0,1,1,0,11H557.39l7.61,2.21s0,46-14.19,86.79H577.5a5.5,5.5,0,1,1,0,11h-31a128.48,128.48,0,0,1-7.37,14.7,5.48,5.48,0,0,1,1.22,8.68Zm41-75A5.51,5.51,0,0,1,577.5,481h-8a5.5,5.5,0,1,1,0-11h8a5.5,5.5,0,0,1,3.89,9.39ZM583,500.5a5.5,5.5,0,0,1-5.5,5.5h-8a5.5,5.5,0,1,1,0-11h8A5.51,5.51,0,0,1,583,500.5Zm6.6,126a27.82,27.82,0,0,1-13.72,4.89,24.39,24.39,0,0,1-4.73,0,27.88,27.88,0,0,1-13.63-4.9,28.25,28.25,0,1,1,32.08,0Z" transform="translate(-61.1 -223.3)" fill="#fff"/>
    <polygon points="519.21 430.8 506.68 430.8 507.04 429.8 507.39 428.8 518.4 428.8 518.8 429.8 519.21 430.8" fill="#5b5b5b"/>
  </g>
  <path d="M442.2,477.86h-.9a5.1,5.1,0,0,0-5,5,5.18,5.18,0,0,0,5.08,5h2.73C443.37,484.5,442.74,481.14,442.2,477.86Zm0,0h-.9a5.1,5.1,0,0,0-5,5,5.18,5.18,0,0,0,5.08,5h2.73C443.37,484.5,442.74,481.14,442.2,477.86Zm0,0h-.9a5.1,5.1,0,0,0-5,5,5.18,5.18,0,0,0,5.08,5h2.73C443.37,484.5,442.74,481.14,442.2,477.86Zm-1.89-32.55L489.59,431h-61L421,433.21s0,4.44.43,11.79H438.5A5.46,5.46,0,0,1,440.31,445.31Zm1,32.55a5.1,5.1,0,0,0-5,5,5.18,5.18,0,0,0,5.08,5h2.73c-.7-3.4-1.33-6.76-1.87-10Zm.9,0h-.9a5.1,5.1,0,0,0-5,5,5.18,5.18,0,0,0,5.08,5h2.73C443.37,484.5,442.74,481.14,442.2,477.86Zm0,0h-.9a5.1,5.1,0,0,0-5,5,5.18,5.18,0,0,0,5.08,5h2.73C443.37,484.5,442.74,481.14,442.2,477.86Zm0,0h-.9a5.1,5.1,0,0,0-5,5,5.18,5.18,0,0,0,5.08,5h2.73C443.37,484.5,442.74,481.14,442.2,477.86Zm5.94,26.68c-.32-1.09-.63-2.19-.92-3.32-.21-.74-.4-1.5-.6-2.26-.66-2.59-1.28-5.17-1.84-7.74-.25-1.11-.48-2.22-.71-3.32-.7-3.4-1.33-6.76-1.87-10-.19-1.11-.37-2.2-.54-3.28-1-6.74-1.8-13.06-2.33-18.65a4.58,4.58,0,0,1-.83.07H422.24c1.57,17.09,5.07,41.36,13,64h18.12Q450.51,512.8,448.14,504.54ZM557.39,431h-61l48.21,14h5.88a5.5,5.5,0,1,1,0,11h-3.84a284.14,284.14,0,0,1-7.28,43l-.33,1.26h0c-.28,1.09-.58,2.16-.87,3.22q-2.49,8.86-5.49,16.55h18.12C565,479.23,565,433.21,565,433.21Zm-92,112.16A93.42,93.42,0,0,1,458.18,531H439.46a128.54,128.54,0,0,0,7,14h20.33C466.31,544.4,465.86,543.79,465.41,543.16ZM508.52,556A40.18,40.18,0,0,1,493,563.38,40.18,40.18,0,0,1,477.48,556h-23.7c9.83,12.71,22.61,22,39.22,24.69,16.61-2.68,29.39-12,39.22-24.69Zm24-25a5.51,5.51,0,0,1-3.89-1.61,95.79,95.79,0,0,1-8,13.77c-.45.63-.9,1.24-1.35,1.84H536.5a5.37,5.37,0,0,1,2.67.7,128.48,128.48,0,0,0,7.37-14.7ZM493,412.31,466.51,420h53Zm-50.8,65.55h-.9a5.1,5.1,0,0,0-5,5,5.18,5.18,0,0,0,5.08,5h2.73C443.37,484.5,442.74,481.14,442.2,477.86Z" transform="translate(-61.1 -223.3)" fill="#f2f6f7"/>
  <g>
    <path d="M435.34,488.7h0a8.17,8.17,0,0,1-2.4-5.8,8.31,8.31,0,0,1,8.32-8.32h13.8a1.71,1.71,0,0,1,1.68,1.64,1.66,1.66,0,0,1-1.68,1.64H441.3a5.09,5.09,0,0,0-5,5,5.18,5.18,0,0,0,5.08,5h7.08a8.11,8.11,0,0,1,6,2.52h0a8.17,8.17,0,0,1,2.4,5.8,8.31,8.31,0,0,1-8.32,8.32h-13.8a1.71,1.71,0,0,1-1.68-1.64,1.69,1.69,0,0,1,1.68-1.68h13.8a5.06,5.06,0,0,0,5-5,5.18,5.18,0,0,0-5.08-5H441.3A8.11,8.11,0,0,1,435.34,488.7Z" transform="translate(-61.1 -223.3)" stroke="#000" stroke-miterlimit="10" stroke-width="3"/>
    <path d="M483.22,488.7h0a8.17,8.17,0,0,1-2.4-5.8,8.31,8.31,0,0,1,8.32-8.32H503a1.71,1.71,0,0,1,1.68,1.64,1.66,1.66,0,0,1-1.68,1.64h-13.8a5.09,5.09,0,0,0-5,5,5.18,5.18,0,0,0,5.08,5h7.08a8.11,8.11,0,0,1,6,2.52h0a8.17,8.17,0,0,1,2.4,5.8,8.31,8.31,0,0,1-8.32,8.32H482.5a1.71,1.71,0,0,1-1.68-1.64,1.69,1.69,0,0,1,1.68-1.68h13.8a5.06,5.06,0,0,0,5-5,5.18,5.18,0,0,0-5.08-5h-7.08A8.11,8.11,0,0,1,483.22,488.7Z" transform="translate(-61.1 -223.3)" stroke="#000" stroke-miterlimit="10" stroke-width="3"/>
    <path d="M543.54,504.46a14.81,14.81,0,0,1-14.8-14.8l0-13.48a1.62,1.62,0,0,1,1.64-1.64,1.66,1.66,0,0,1,1.68,1.64l0,13.48a11.5,11.5,0,0,0,11.48,11.48h8.12a1.68,1.68,0,0,1,1.64,1.68,1.7,1.7,0,0,1-1.64,1.64Z" transform="translate(-61.1 -223.3)" stroke="#000" stroke-miterlimit="10" stroke-width="3"/>
  </g>
  <g>
    <path d="M420,346l-46,44V654.1H547.67l.35-1,.36-1H376V391h45V348l204-.1V652.1H599.92l.41,1,.4,1H627V345.9Zm-2,42H379l39-37.32Z" transform="translate(-61.1 -223.3)" fill="#5b5b5b"/>
    <polygon points="356.9 127.38 356.9 164.7 317.88 164.7 356.9 127.38" fill="#fff"/>
  </g>
  <g>
    <path d="M583,425.5a5.5,5.5,0,0,1-5.5,5.5H496.41L493,430l-3.41,1H406.5a5.5,5.5,0,1,1,0-11h171A5.51,5.51,0,0,1,583,425.5Z" transform="translate(-61.1 -223.3)" fill="#9dbdd1"/>
    <polygon points="435.31 207.7 428.49 207.7 431.9 206.71 435.31 207.7" fill="#9dbdd1"/>
  </g>
  <path d="M583,525.5a5.5,5.5,0,0,1-5.5,5.5h-45a5.5,5.5,0,1,1,0-11h45A5.51,5.51,0,0,1,583,525.5Z" transform="translate(-61.1 -223.3)" fill="#9dbdd1"/>
  <path d="M519,525.5a5.5,5.5,0,0,1-5.5,5.5h-107a5.5,5.5,0,1,1,0-11h107A5.51,5.51,0,0,1,519,525.5Z" transform="translate(-61.1 -223.3)" fill="#9dbdd1"/>
  <path d="M542,550.5a5.51,5.51,0,0,1-5.5,5.5h-130a5.5,5.5,0,1,1,0-11h130a5.37,5.37,0,0,1,2.67.7A5.49,5.49,0,0,1,542,550.5Z" transform="translate(-61.1 -223.3)" fill="#9dbdd1"/>
  <path d="M471,575.5a5.51,5.51,0,0,1-5.5,5.5h-59a5.5,5.5,0,1,1,0-11h59A5.51,5.51,0,0,1,471,575.5Z" transform="translate(-61.1 -223.3)" fill="#9dbdd1"/>
  <path d="M444,450.5a5.51,5.51,0,0,1-1.61,3.89,5.41,5.41,0,0,1-3.06,1.54,4.58,4.58,0,0,1-.83.07h-32a5.5,5.5,0,1,1,0-11h32a5.51,5.51,0,0,1,5.5,5.5Z" transform="translate(-61.1 -223.3)" fill="#9dbdd1"/>
  <path d="M556,450.5a5.5,5.5,0,0,1-5.5,5.5h-92a5.5,5.5,0,1,1,0-11h92A5.51,5.51,0,0,1,556,450.5Z" transform="translate(-61.1 -223.3)" fill="#9dbdd1"/>
  <path d="M420,475.5a5.5,5.5,0,0,1-5.5,5.5h-8a5.5,5.5,0,1,1,0-11h8A5.51,5.51,0,0,1,420,475.5Z" transform="translate(-61.1 -223.3)" fill="#9dbdd1"/>
  <path d="M420,500.5a5.5,5.5,0,0,1-5.5,5.5h-8a5.5,5.5,0,1,1,0-11h8A5.51,5.51,0,0,1,420,500.5Z" transform="translate(-61.1 -223.3)" fill="#9dbdd1"/>
  <path d="M583,475.5a5.5,5.5,0,0,1-5.5,5.5h-8a5.5,5.5,0,1,1,0-11h8A5.51,5.51,0,0,1,583,475.5Z" transform="translate(-61.1 -223.3)" fill="#9dbdd1"/>
  <path d="M583,500.5a5.5,5.5,0,0,1-5.5,5.5h-8a5.5,5.5,0,1,1,0-11h8A5.51,5.51,0,0,1,583,500.5Z" transform="translate(-61.1 -223.3)" fill="#9dbdd1"/>
  <path d="M606.3,667.92l-11-3.72L588.73,675l-8.42-20.9-.41-1-.4-1-5.84-14.49-5.17,14.49-.35,1-.36,1L560.69,674l-7-10.53-10.87,4.16,4.82-13.51.35-1,.36-1,8.45-23.68a30.05,30.05,0,0,0,15.15,5c.53,0,1.06,0,1.6,0s1,0,1.57,0a30,30,0,0,0,15.22-5.06l9.55,23.71.41,1,.4,1Z" transform="translate(-61.1 -223.3)" fill="#53788c"/>
  <polygon points="514.06 367.35 514 367.33 514.04 367.31 514.06 367.35" fill="#53788c"/>
  <g>
    <path d="M573.58,575a28.24,28.24,0,0,0-16.06,51.47,27.88,27.88,0,0,0,13.63,4.9,24.39,24.39,0,0,0,4.73,0,27.82,27.82,0,0,0,13.72-4.89,28.24,28.24,0,0,0-16-51.49Zm10.9,38.78a14.72,14.72,0,0,1-3.23,2.54,15.14,15.14,0,0,1-16.46-.72,14.54,14.54,0,0,1-2.57-2.32,15.15,15.15,0,0,1-3.54-12.83,14.77,14.77,0,0,1,1.2-3.69A15.15,15.15,0,0,1,586,594.5h0a15.17,15.17,0,0,1-1.49,19.28Z" transform="translate(-61.1 -223.3)" fill="#f97373"/>
    <polygon points="514.06 367.35 514 367.33 514.04 367.31 514.06 367.35" fill="#f97373"/>
  </g>
  <g>
    <path d="M587.8,598A15.13,15.13,0,0,0,586,594.5h0a15.15,15.15,0,0,0-26.08,2.26,14.77,14.77,0,0,0-1.2,3.69,15.15,15.15,0,0,0,3.54,12.83,14.54,14.54,0,0,0,2.57,2.32,15.14,15.14,0,0,0,16.46.72,14.72,14.72,0,0,0,3.23-2.54A15.19,15.19,0,0,0,587.8,598Zm-12.7-7.34,0,0,0,0Z" transform="translate(-61.1 -223.3)" fill="#ffce55"/>
    <polygon points="514.06 367.35 514 367.33 514.04 367.31 514.06 367.35" fill="#ffce55"/>
  </g>
</svg>
