<?xml version="1.0" encoding="utf-8"?>
<!-- Generator: Adobe Illustrator 21.0.2, SVG Export Plug-In . SVG Version: 6.00 Build 0)  -->
<svg version="1.1" id="Layer_1" xmlns="http://www.w3.org/2000/svg" xmlns:xlink="http://www.w3.org/1999/xlink" x="0px" y="0px"
	 viewBox="0 0 1000 1000" enable-background="new 0 0 1000 1000" xml:space="preserve">
<g>
	<g>
		<path fill="#FFFFFF" d="M652.5,292c0,93.7-58.4,173.7-140.8,205.6c-10.6,2.4-20.8,5.6-30.8,9.4c-84.2,32.5-144,114.3-144,210
			c0,95.8,59.9,177.7,144.3,210.1C256.1,917.6,76.5,732,76.5,504.5c0-143.4,71.3-270.1,180.4-346.6c68.3-47.9,151.3-76.1,241-76.4
			C587.5,109.5,652.5,193.2,652.5,292z"/>
		<path fill="#E6E6E6" d="M490.3,929l-9.2-0.4c-109.5-4.6-211.7-50.8-287.8-130C117,719.1,75,614.7,75,504.5
			c0-69.4,17.1-138.2,49.5-199.1c31.3-58.9,76.8-110.3,131.6-148.7c71.1-49.9,154.7-76.4,241.9-76.7l0.2,0l0.2,0.1
			c44.2,13.8,83.8,41.9,111.7,79.2c28.8,38.6,44,84.4,44,132.7c0,45.7-13.8,89.5-39.8,126.8c-25.4,36.5-60.7,64.2-102,80.2l-0.2,0.1
			c-10,2.3-20,5.3-30.6,9.3c-41.6,16.1-77.2,44-102.9,80.8c-26.3,37.6-40.2,81.8-40.2,127.8c0,46.1,13.9,90.3,40.2,128
			c25.7,36.8,61.4,64.7,103.1,80.7L490.3,929z M497.7,83c-86.4,0.3-169.4,26.7-239.9,76.1c-54.4,38.1-99.5,89.2-130.6,147.7
			C95,367.2,78,435.6,78,504.5c0,109.4,41.7,213.1,117.5,292C269,873,367,918.5,472.4,925.1c-38.7-16.6-71.8-43.6-96.2-78.4
			c-26.7-38.1-40.8-83-40.8-129.7c0-46.6,14.1-91.4,40.7-129.6c26-37.3,62.1-65.6,104.3-81.8c10.7-4.1,20.8-7.1,30.9-9.4
			c40.7-15.8,75.4-43.1,100.5-79C637.4,380.3,651,337.1,651,292c0-47.6-15-92.9-43.4-130.9C580.2,124.4,541.1,96.6,497.7,83z"/>
	</g>
	<g>
		<path fill="#F2F2F2" d="M922.5,504.5c0,142.8-70.8,269.1-179.1,345.7c-68.9,48.7-153.1,77.3-243.9,77.3c-6.1,0-12.1-0.1-18.2-0.4
			C396.9,894.7,337,812.8,337,717c0-95.7,59.8-177.4,144-210c10.6-2.4,20.9-5.5,30.8-9.4c82.4-32,140.8-112,140.8-205.6
			c0-98.8-65-182.5-154.6-210.5c0.5,0,1.1,0,1.6,0C733.1,81.5,922.5,270.9,922.5,504.5z"/>
		<path fill="#E6E6E6" d="M499.5,928c-6.9,0-12.7-0.1-18.2-0.4l-0.2,0c-42.1-16.2-78.1-44.3-104-81.5c-26.6-38-40.6-82.6-40.6-129.1
			c0-46.4,14-91,40.5-128.9c25.9-37.1,61.8-65.2,103.8-81.5c10.9-2.5,21.2-5.6,30.8-9.4c40.9-15.9,75.9-43.4,101.1-79.5
			c25.8-37,39.4-80.4,39.4-125.6c0-47.8-15.1-93.3-43.6-131.5c-27.6-37-66.9-64.8-110.6-78.5l-3.1-1h4.9
			c57.1,0,112.6,11.2,164.8,33.3c50.4,21.3,95.7,51.9,134.6,90.8c38.9,38.9,69.4,84.2,90.8,134.6c22.1,52.2,33.3,107.7,33.3,164.8
			c0,68.9-16.9,137.4-49,197.9c-31,58.6-76.1,109.8-130.3,148.2C672.1,901.2,587.6,928,499.5,928z M481.4,926.6
			c5.5,0.3,11.3,0.4,18.1,0.4c87.9,0,172.2-26.7,243.6-77.2c54.1-38.3,99.1-89.4,130-147.9c32-60.4,48.9-128.7,48.9-197.4
			c0-57-11.2-112.4-33.2-164.4c-21.3-50.3-51.7-95.5-90.5-134.3c-38.8-38.8-84-69.3-134.3-90.5c-51.6-21.8-106.3-33-162.8-33.2
			c42.7,14.1,81,41.6,108.1,77.9C638,198.3,653.1,244,653.1,292c0,45.4-13.7,89.1-39.6,126.2c-25.3,36.3-60.4,63.9-101.5,79.9
			c-9.6,3.8-20,7-30.9,9.4c-41.8,16.2-77.5,44.2-103.3,81.1c-26.4,37.8-40.3,82.2-40.3,128.4c0,46.3,14,90.7,40.4,128.5
			C403.7,882.5,439.5,910.5,481.4,926.6z"/>
	</g>
</g>
<g>
	<g>
		<path fill="#FFFFFF" d="M521.6,675.6V333h266.1c9.2,0,16.7,7.5,16.7,16.7v309.1c0,9.2-7.5,16.7-16.7,16.7L521.6,675.6L521.6,675.6
			z"/>
	</g>
	<g>
		<path d="M787.8,333.5c9,0,16.2,7.3,16.2,16.2v309.1c0,9-7.3,16.2-16.2,16.2H522.1V333.5H787.8 M787.8,332.5H521.1v343.6h266.6
			c9.5,0,17.2-7.7,17.2-17.2V349.8C805,340.3,797.3,332.5,787.8,332.5L787.8,332.5z"/>
	</g>
</g>
<g>
	<g>
		<path fill="#3F3F3F" d="M521.8,356.6h282.4v-7.1c0-8.9-7.2-16.2-16.2-16.2H521.8V356.6z"/>
	</g>
</g>
<g>
	<g>
		<g>
			<path fill="#FFFFFF" d="M212.2,675.6c-9.2,0-16.7-7.5-16.7-16.7V349.8c0-9.2,7.5-16.7,16.7-16.7h266.1v342.6L212.2,675.6
				L212.2,675.6z"/>
		</g>
		<g>
			<path d="M477.9,333.5v341.6H212.2c-9,0-16.2-7.3-16.2-16.2V349.8c0-9,7.3-16.2,16.2-16.2L477.9,333.5 M478.9,332.5H212.2
				c-9.5,0-17.2,7.7-17.2,17.2v309.1c0,9.5,7.7,17.2,17.2,17.2h266.6V332.5H478.9z"/>
		</g>
	</g>
	<g>
		<g>
			<path fill="#3F3F3F" d="M478.2,356.6H195.7v-7.1c0-8.9,7.2-16.2,16.2-16.2h266.3L478.2,356.6L478.2,356.6z"/>
		</g>
	</g>
	<g>
		<circle fill="#F94B4B" cx="211" cy="344.9" r="3.6"/>
	</g>
	<g>
		<circle fill="#F7DA4D" cx="227" cy="344.9" r="3.6"/>
	</g>
	<g>
		<circle fill="#8EE03F" cx="243" cy="344.9" r="3.6"/>
	</g>
	<g>
		<path fill="#5DBDED" d="M389.3,552.6h0.2c0,0-20.5,19.9-52.5,19.9s-52.5-19.9-52.5-19.9h0.2c0,0-3.6-30.5,21.7-32.3
			c0,0,16.3-4.9,18.1-11.1s-5.4-17.7-5.4-17.7s-10.9-10.6-3.6-15.9c0,0-7.2-28.3,21.7-28.3c28.8,0,21.6,28.3,21.6,28.3
			c7.2,5.3-3.6,16-3.6,16s-7.2,11.6-5.4,17.8c1.8,6.2,18,10.8,18,10.8C392.9,522.1,389.3,552.6,389.3,552.6z"/>
	</g>
</g>
<g>
	<g>
		<path fill="#5DBDED" d="M608.1,435.3v138.8h66.3V435.3H608.1z M629,555.7h-12.2v-12.2H629V555.7z M629,537.4h-12.2v-12.2H629
			V537.4z M629,519.1h-12.2v-12.2H629V519.1z M629,500.8h-12.2v-12.2H629V500.8z M629,482.4h-12.2v-12.2H629V482.4z M629,464.1
			h-12.2v-12.2H629V464.1z M647.3,555.7h-12.2v-12.2h12.2V555.7z M647.3,537.4h-12.2v-12.2h12.2V537.4z M647.3,519.1h-12.2v-12.2
			h12.2V519.1z M647.3,500.8h-12.2v-12.2h12.2V500.8z M647.3,482.4h-12.2v-12.2h12.2V482.4z M647.3,464.1h-12.2v-12.2h12.2V464.1z
			 M665.7,555.7h-12.2v-12.2h12.2V555.7z M665.7,537.4h-12.2v-12.2h12.2V537.4z M665.7,519.1h-12.2v-12.2h12.2V519.1z M665.7,500.8
			h-12.2v-12.2h12.2V500.8z M665.7,482.4h-12.2v-12.2h12.2V482.4z M665.7,464.1h-12.2v-12.2h12.2V464.1z"/>
	</g>
	<g>
		<path fill="#5DBDED" d="M677.9,490.1v84H718v-84L677.9,490.1L677.9,490.1z M690.6,563h-7.4v-7.4h7.4V563z M690.6,551.9h-7.4v-7.4
			h7.4V551.9z M690.6,540.8h-7.4v-7.4h7.4V540.8z M690.6,529.7h-7.4v-7.4h7.4V529.7z M690.6,518.6h-7.4v-7.4h7.4V518.6z
			 M690.6,507.5h-7.4v-7.4h7.4V507.5z M701.7,563h-7.4v-7.4h7.4V563z M701.7,551.9h-7.4v-7.4h7.4V551.9z M701.7,540.8h-7.4v-7.4h7.4
			V540.8z M701.7,529.7h-7.4v-7.4h7.4V529.7z M701.7,518.6h-7.4v-7.4h7.4V518.6z M701.7,507.5h-7.4v-7.4h7.4V507.5z M712.8,563h-7.4
			v-7.4h7.4V563z M712.8,551.9h-7.4v-7.4h7.4V551.9z M712.8,540.8h-7.4v-7.4h7.4V540.8z M712.8,529.7h-7.4v-7.4h7.4V529.7z
			 M712.8,518.6h-7.4v-7.4h7.4V518.6z M712.8,507.5h-7.4v-7.4h7.4V507.5z"/>
	</g>
</g>
<g>
	<g>
		<path fill="#B3B3B3" d="M500,178.9c0.3,27,0.5,53.9,0.7,80.9l0.4,80.9c0.2,27,0.1,53.9,0.2,80.9l0.1,80.9l-0.3,161.8l-0.4,80.9
			c-0.2,27-0.4,53.9-0.7,80.9c-0.3-27-0.5-53.9-0.7-80.9l-0.4-80.9l-0.3-161.8l0.1-80.9c0.1-27,0-53.9,0.2-80.9l0.4-80.9
			C499.5,232.9,499.7,205.9,500,178.9z"/>
	</g>
</g>
<g>
	<path fill="#FFFFFF" d="M511.8,497.6c-9.9,3.9-20.2,7-30.8,9.4C490.9,503.2,501.2,500,511.8,497.6z"/>
</g>
<g>
	<path fill="#FFFFFF" d="M511.8,497.6c-9.9,3.9-20.2,7-30.8,9.4C490.9,503.2,501.2,500,511.8,497.6z"/>
</g>
<g>
	<path fill="#FFFFFF" d="M511.8,497.6c-9.9,3.9-20.2,7-30.8,9.4C490.9,503.2,501.2,500,511.8,497.6z"/>
</g>
<g>
	<g>
		<rect x="184.1" y="298.2" fill="#4D4D4D" width="156.5" height="1"/>
	</g>
	<g>
		<rect x="274.2" y="279.1" fill="#4D4D4D" width="92.8" height="1"/>
	</g>
</g>
<g>
	<g>
		<rect x="706.1" y="709.2" fill="#4D4D4D" width="156.5" height="1"/>
	</g>
	<g>
		<rect x="796.2" y="690.1" fill="#4D4D4D" width="92.8" height="1"/>
	</g>
</g>
<g>
	<g>
		<rect x="36" y="510.5" fill="#4D4D4D" width="149.5" height="1"/>
	</g>
	<g>
		<rect x="132" y="483" fill="#4D4D4D" width="49.5" height="1"/>
	</g>
</g>
<g>
	<g>
		<rect x="814" y="531.5" fill="#4D4D4D" width="149.5" height="1"/>
	</g>
	<g>
		<rect x="910" y="504" fill="#4D4D4D" width="49.5" height="1"/>
	</g>
</g>
<g>
	<g>
		<rect x="275" y="693.5" fill="#4D4D4D" width="87" height="1"/>
	</g>
	<g>
		<rect x="333.8" y="709.5" fill="#4D4D4D" width="28.8" height="1"/>
	</g>
</g>
<g>
	<g>
		<rect x="718.6" y="314.5" fill="#4D4D4D" width="87" height="1"/>
	</g>
	<g>
		<rect x="718" y="298.5" fill="#4D4D4D" width="28.8" height="1"/>
	</g>
</g>
</svg>
