<?xml version="1.0" encoding="utf-8"?>
<!-- Generator: Adobe Illustrator 19.2.0, SVG Export Plug-In . SVG Version: 6.00 Build 0)  -->
<svg version="1.1" id="Layer_1" xmlns="http://www.w3.org/2000/svg" xmlns:xlink="http://www.w3.org/1999/xlink" x="0px" y="0px"
	 viewBox="0 0 512 512" style="enable-background:new 0 0 512 512;" xml:space="preserve">
<path d="M444.5,15C407.7,15,378,44.8,378,81.5s29.8,66.5,66.5,66.5S511,118.2,511,81.5S481.2,15,444.5,15z M473.9,87.4h-23.5
	l0.1,25.9c0,3.2-2.6,5.8-5.8,5.9l0,0c-3.2,0-5.8-2.6-5.8-5.8l-0.1-26h-23.6c-3.2,0-5.8-2.6-5.8-5.8s2.6-5.8,5.8-5.8h23.5l-0.1-25.9
	c0-3.2,2.6-5.8,5.8-5.9l0,0c3.2,0,5.8,2.6,5.8,5.8l0.1,26h23.6c3.3,0,5.8,2.6,5.8,5.8S477.1,87.4,473.9,87.4z"/>
<path d="M199.3,191.3c21.5,0,38.9,17.6,38.9,39.3s-17.4,39.3-38.9,39.3s-38.9-17.6-38.9-39.3C160.4,208.9,177.9,191.3,199.3,191.3z
	 M384.7,392.6H86.3c-6.5,0-11.9-5.3-11.9-11.9v-32.4c0-2.5,0.7-4.8,2.1-6.9l41.3-58.4c3.7-5.2,10.8-6.5,16.1-3.1l56.4,36.8
	c4.5,3,10.3,2.5,14.4-1L313,220.1c5.1-4.5,13.1-3.8,17.2,1.7l61.5,79.7c1.6,2,2.5,4.6,2.5,7.2v74.4
	C394.2,388.3,389.9,392.6,384.7,392.6z"/>
<path d="M392.6,510.2h-58.8v-12h58.8V510.2z M314.2,510.2h-58.8v-12h58.8V510.2z M235.7,510.2h-58.8v-12h58.8V510.2z M157.3,510.2
	H98.4v-12h58.8v12H157.3z M78.8,510.2H57.7c-14.3,0-27.9-5.4-38.3-15.3l8.3-8.7c8.2,7.8,18.8,12,30.1,12h21.1L78.8,510.2L78.8,510.2
	z M412.4,510.1l-0.3-12c17.8-0.4,33.4-11.5,39.8-28.2l11.2,4.3C455,495.5,435.1,509.6,412.4,510.1z M6.8,477
	c-3.2-7.1-4.7-14.7-4.7-22.5v-38.2h12v38.2c0,6.1,1.3,12.1,3.7,17.6L6.8,477z M466.7,452.9h-12v-58.8h12V452.9z M14.1,396.7h-12
	v-58.8h12V396.7z M466.7,374.4h-12v-58.8h12V374.4z M14.1,318.3h-12v-58.8h12V318.3z M466.7,296h-12v-58.8h12V296z M14.1,239.8h-12
	V181h12V239.8z M466.7,217.6h-12v-58.8h12V217.6z M14.1,161.4h-12v-58.8h12V161.4z M16.5,85.3L5.3,81.2C13,59.9,33.4,45.5,56.1,45.5
	h0.2v12h-0.2C38.4,57.5,22.5,68.7,16.5,85.3z M370.1,57.5h-58.8v-12h58.8V57.5z M291.6,57.5h-58.8v-12h58.8V57.5z M213.2,57.5h-58.8
	v-12h58.8V57.5z M134.7,57.5H75.9v-12h58.8V57.5z"/>
</svg>
