<?xml version="1.0" encoding="utf-8"?>
<!-- Generator: Adobe Illustrator 22.0.1, SVG Export Plug-In . SVG Version: 6.00 Build 0)  -->
<svg version="1.1" id="Layer_1" xmlns="http://www.w3.org/2000/svg" xmlns:xlink="http://www.w3.org/1999/xlink" x="0px" y="0px"
	 viewBox="0 0 1000 1000" enable-background="new 0 0 1000 1000" xml:space="preserve">
<path d="M914.3,39v656.5c0,75.3-69.7,136.5-155.4,136.5c-85.7,0-155.4-61.2-155.4-136.5c0-75.3,69.7-136.5,155.4-136.5
	c37.5,0,72,11.8,98.9,31.3V243L396.4,357.1v466.5c0,75.3-69.7,136.5-155.4,136.5c-85.7,0-155.4-61.2-155.4-136.5
	c0-75.3,69.7-136.5,155.4-136.5c37.5,0,72,11.8,98.9,31.3V181.1L914.3,39z"/>
</svg>
