<?xml version="1.0" encoding="utf-8"?>
<!-- Generator: Adobe Illustrator 21.0.2, SVG Export Plug-In . SVG Version: 6.00 Build 0)  -->
<svg version="1.1" id="Layer_1" xmlns="http://www.w3.org/2000/svg" xmlns:xlink="http://www.w3.org/1999/xlink" x="0px" y="0px"
	 viewBox="0 0 1000 1000" enable-background="new 0 0 1000 1000" xml:space="preserve">
<g>
	<g>
		<path fill="#B7B7B7" d="M500,13C229.9,13,11,231.9,11,502s218.9,489,489,489s489-218.9,489-489S770.1,13,500,13z M500,936
			c-58.6,0-115.5-11.5-168.9-34.1c-51.7-21.9-98.1-53.2-138-93c-39.9-39.9-71.2-86.3-93-138C77.5,617.5,66,560.6,66,502
			s11.5-115.5,34.1-168.9c21.9-51.7,53.2-98.1,93-138c39.9-39.9,86.3-71.2,138-93C384.5,79.5,441.4,68,500,68s115.5,11.5,168.9,34.1
			c51.7,21.9,98.1,53.2,138,93c39.9,39.9,71.2,86.3,93,138C922.5,386.5,934,443.4,934,502s-11.5,115.5-34.1,168.9
			c-21.9,51.7-53.2,98.1-93,138c-39.9,39.9-86.3,71.2-138,93C615.5,924.5,558.6,936,500,936z"/>
		<path fill="#F2F2F2" d="M899.9,333.1c-21.9-51.7-53.2-98.1-93-138c-39.9-39.9-86.3-71.2-138-93C615.5,79.5,558.6,68,500,68
			s-115.5,11.5-168.9,34.1c-51.7,21.9-98.1,53.2-138,93c-39.9,39.9-71.2,86.3-93,138C77.5,386.5,66,443.4,66,502
			s11.5,115.5,34.1,168.9c21.9,51.7,53.2,98.1,93,138c39.9,39.9,86.3,71.2,138,93C384.5,924.5,441.4,936,500,936
			s115.5-11.5,168.9-34.1c51.7-21.9,98.1-53.2,138-93c39.9-39.9,71.2-86.3,93-138C922.5,617.5,934,560.6,934,502
			S922.5,386.5,899.9,333.1z M535.5,819H448v-88.4h87.5V819z M644.4,453.7c-20,30.3-46.4,61.3-79.2,93c-15.3,15.3-24.6,29-27.8,41.2
			c-3.3,12.2-4.9,31.2-4.9,56.9h-83.7c0.3-41.1,3.8-69.5,10.6-85.4c6.8-15.9,24.6-36.8,53.5-62.9c28-33.1,48-58.6,59.9-76.5
			c11.9-17.8,17.8-39.4,17.8-64.6c0-30-8-53.1-24-69.2c-16-16.1-38.9-24.2-68.6-24.2c-25.8,0-47.7,7-65.8,21
			c-18.1,14-27.2,34.6-27.2,61.8h-79.9l-1.3-2.5c-0.8-45.6,15.2-82.1,48.2-109.6c33-27.5,75-41.2,126-41.2
			c55.8,0,99.1,14.2,130,42.7c30.9,28.5,46.3,68.2,46.3,119.1C674.4,390,664.4,423.4,644.4,453.7z"/>
	</g>
</g>
<g>
	<rect x="448" y="730.6" fill="#5B5B5B" width="87.5" height="88.4"/>
	<path fill="#5B5B5B" d="M674.4,353.4c0,36.5-10,70-30,100.3c-20,30.3-46.4,61.3-79.2,93c-15.3,15.3-24.6,29-27.8,41.2
		c-3.3,12.2-4.9,31.2-4.9,56.9h-83.7c0.3-41.1,3.8-69.5,10.6-85.4c6.8-15.9,24.6-36.8,53.5-62.9c28-33.1,48-58.6,59.9-76.5
		c11.9-17.8,17.8-39.4,17.8-64.6c0-30-8-53.1-24-69.2c-16-16.1-38.9-24.2-68.6-24.2c-25.8,0-47.7,7-65.8,21
		c-18.1,14-27.2,34.6-27.2,61.8h-79.9l-1.3-2.5c-0.8-45.6,15.2-82.1,48.2-109.6c33-27.5,75-41.2,126-41.2c55.8,0,99.1,14.2,130,42.7
		C658.9,262.7,674.4,302.4,674.4,353.4z"/>
</g>
</svg>
