<?xml version="1.0" encoding="utf-8"?>
<!-- Generator: Adobe Illustrator 21.0.2, SVG Export Plug-In . SVG Version: 6.00 Build 0)  -->
<svg version="1.1" id="Layer_1" xmlns="http://www.w3.org/2000/svg" xmlns:xlink="http://www.w3.org/1999/xlink" x="0px" y="0px"
	 viewBox="0 0 512 512" enable-background="new 0 0 512 512" xml:space="preserve">
<path d="M256,0C114.6,0,0,114.6,0,256s114.6,256,256,256s256-114.6,256-256S397.4,0,256,0z M256.1,376.4c-12.2,0-22.2-9.9-22.2-22.2
	s9.9-22.2,22.2-22.2c12.2,0,22.2,9.9,22.2,22.2S268.4,376.4,256.1,376.4z M288.8,158.8c-2.1,24-15.1,122.2-15.1,122.2
	c-0.6,4.2-3.3,9.9-6.3,13.3c0.1-0.1,0.2-0.2,0.3-0.3l-0.9,0.9c0.2-0.2,0.3-0.4,0.5-0.5c-6.3,5.9-16.1,5.9-22.3,0
	c0.2,0.2,0.3,0.4,0.5,0.5l-0.9-0.9c0.1,0.1,0.2,0.2,0.3,0.3c-3-3.3-5.7-9-6.3-13.3c0,0-13-98.7-15.2-122.2
	c-2.2-14.2,12.9-32.6,32.6-32.6C275.7,126.2,291,144.5,288.8,158.8z"/>
</svg>
