<?xml version="1.0" encoding="utf-8"?>
<!-- Generator: Adobe Illustrator 21.0.2, SVG Export Plug-In . SVG Version: 6.00 Build 0)  -->
<svg version="1.1" id="Layer_1" xmlns="http://www.w3.org/2000/svg" xmlns:xlink="http://www.w3.org/1999/xlink" x="0px" y="0px"
	 viewBox="0 0 1000 1000" enable-background="new 0 0 1000 1000" xml:space="preserve">
<g id="NhOMjO.tif">
	<g>
		<g>
			<path d="M888.4,714.8c-5.3,13.7-10.4,27.9-16.3,41.8c-26,61.2-62.8,115.4-108,163.9c-17.4,18.7-37.9,33.5-62.7,41.5
				c-23,7.4-46.1,6.7-68.9,0.1c-19.5-5.6-38.5-12.6-57.6-19.6c-49.2-18-98-15.7-146.4,2.9c-21,8.1-41.9,16.1-64.1,20.6
				c-31.3,6.3-59.4-1-85.1-19.1c-23.2-16.4-42-37.3-59.9-59.2c-56-68.5-94.7-145.7-117-231.2c-12.6-48.3-18.7-97.4-16.3-147.4
				c3-64.5,20.9-124.1,61.9-175c42.1-52.2,96.8-82.2,163.8-89.5c29.9-3.2,58.4,2.7,86.4,11.9c22.1,7.3,44,15.2,66,22.8
				c3.9,1.4,8,2.2,12,3.5c12.8,4.4,25.2,2.9,37.7-1.4c26.4-9.1,52.8-18.3,79.4-27c24.3-7.9,49.3-14,74.9-13.2
				c68.2,2.1,129.4,21.9,177.1,73.7c6.2,6.7,11.7,14,17.8,21.5c-74,45.2-112.2,109.3-106.1,196.6C763.2,620.2,812.1,677,888.4,714.8
				z"/>
			<path d="M687.6,37.8c-1,50.6-20.8,93.6-53.2,131.4c-21.9,25.5-47.3,46.9-78.6,60.2c-20.4,8.7-41.6,12.7-63.8,11.6
				c-0.8,0-1.7-0.1-2.5-0.2c-0.3,0-0.6-0.2-1.4-0.6c-3.5-31,1.9-60.6,14.1-88.8c30.3-69.8,83.4-113,156.7-131.9
				c6.4-1.6,13.1-2.4,19.7-3.4c2.4-0.4,5-0.3,8.3-0.5C687.1,23.3,687.7,30.5,687.6,37.8z"/>
		</g>
	</g>
</g>
</svg>
