<?xml version="1.0" encoding="utf-8"?>
<!-- Generator: Adobe Illustrator 19.1.0, SVG Export Plug-In . SVG Version: 6.00 Build 0)  -->
<svg version="1.1" id="Layer_1" xmlns="http://www.w3.org/2000/svg" xmlns:xlink="http://www.w3.org/1999/xlink" x="0px" y="0px"
	 viewBox="0 0 512 512" style="enable-background:new 0 0 512 512;" xml:space="preserve">
<path d="M415.7,506.1h-0.4c-3.5-0.3-6.4-1.8-8.6-4.4c-2.3-2.6-3.3-5.9-3.1-9.3v-0.2l6.2-48.9c-44.9,38.9-102.3,60.3-161.8,60.3
	c-9.7,0-19.5-0.6-29.3-1.8c-65.4-7.8-123.9-40.7-164.7-92.5C14.8,359.3-3.2,295.5,3.8,230c0.1-1.3,0.3-2.6,0.4-3.9
	c0.3-3,1.3-5.6,3-7.9c3.4-5,8.9-7.8,14.8-7.8c0.7,0,1.5,0,2.2,0.1c4.8,0.6,9,3,12,6.7c2.9,3.7,4.3,8.3,3.8,13v0.3
	c-0.1,1.1-0.3,2.2-0.4,3.3c-5.9,56.2,9.3,110.8,42.9,153.5c34.8,44.3,84.8,72.4,140.7,79c8.2,1,16.7,1.5,25,1.5
	c51.1,0,100.3-18.4,138.7-52.1c1.5-1.4,3.1-2.8,4.6-4.2l-60.2-1.5H331c-4.6-0.3-8.7-2.3-11.3-5.3c-1.8-2.1-2.7-4.8-2.5-7.3v-0.2
	l0.2-5.4l0.1-0.4c0.3-2.1,1.1-4.2,2.3-5.9c2.6-3.8,7-6.1,11.5-6.1c0.2,0,0.4,0,0.6,0l95.6,2.7h0.4l6.3,0.3c3.6,0.2,6.7,1.7,9,4.5
	c2.4,2.7,3.4,5.9,3.1,9.5l-0.6,6.3l-0.1,0.4L434,496.4c-0.2,2.2-0.9,4.2-2.1,5.9c-2.2,3.3-5.9,5.1-10.5,5.2h-0.9L415.7,506.1z
	 M490.3,296.5c-0.7,0-1.4,0-2.2-0.1c-9.7-1.2-16.8-10-15.8-19.7v-0.3c0.1-1,0.2-2,0.3-3.1c5.8-54.8-9.8-108.9-43.9-152.3
	C393.9,76.7,344,48.6,288,42c-8.8-1.1-17.7-1.6-26.4-1.6c-20.5,0-40.9,3-60.4,8.7c-28.3,8.4-53.8,22.5-76.1,41.9
	c-4.9,4.3-9.6,8.8-14.2,13.6l61.1,1.5h0.3c4.3,0.3,8.2,2.3,10.8,5.3c2.5,2.9,2.8,5.8,2.7,7.7v0.3l0.1,5l-0.1,0.6
	c-0.3,2-1.1,4-2.2,5.7c-2.6,3.8-7,6.1-11.5,6.1c-0.2,0-0.4,0-0.6,0L76,134.1h-0.3l-6.3-0.3c-3.6-0.2-6.7-1.7-9-4.4
	c-2.4-2.7-3.4-5.9-3.1-9.6l0.6-6.2l0.1-0.4L69.6,20c0.2-2.2,1-4.3,2.3-6.1c2.5-3.7,6.6-5.9,11-6.1h1l5,1.2h0.4
	c2.8,0.2,5.3,1.6,7.2,3.9c2.5,2.9,3.8,7.1,3.5,11.2v0.3l-6,47c2.6-2.5,5.3-4.9,7.9-7.2c26-22.7,55.9-39.3,89-49.2
	c23-6.8,46.9-10.3,70.9-10.3c10.1,0,20.5,0.6,30.7,1.9c65.4,7.8,123.9,40.7,164.7,92.5c39.9,50.8,58.1,114,51.4,178.2
	c-0.1,1.2-0.3,2.5-0.4,3.7c-0.4,2.9-1.4,5.6-3,7.9C501.8,293.6,496.3,296.5,490.3,296.5L490.3,296.5z"/>
</svg>
