<?xml version="1.0" encoding="utf-8"?>
<!-- Generator: Adobe Illustrator 22.0.1, SVG Export Plug-In . SVG Version: 6.00 Build 0)  -->
<svg version="1.1" id="Layer_1" xmlns="http://www.w3.org/2000/svg" xmlns:xlink="http://www.w3.org/1999/xlink" x="0px" y="0px"
	 viewBox="0 0 1000 1000" enable-background="new 0 0 1000 1000" xml:space="preserve">
<path d="M506,215C294,215,56.1,407,56.1,491c0,89,237.9,276,449.9,276c230,0,449.9-187,449.9-276C955.9,404,730,215,506,215z
	 M701.3,573.5c-10.7,25.2-26,47.9-45.4,67.4c-19.4,19.4-42.1,34.7-67.4,45.4c-26.2,11.1-54,16.7-82.5,16.7s-56.3-5.6-82.5-16.7
	c-25.2-10.7-47.9-26-67.4-45.4c-19.4-19.5-34.7-42.1-45.4-67.4c-11.1-26.2-16.7-54-16.7-82.5c0-28.6,5.6-56.4,16.7-82.5
	c10.7-25.2,26-47.9,45.4-67.4c19.4-19.4,42.1-34.7,67.4-45.4c26.2-11.1,54-16.7,82.5-16.7s56.3,5.6,82.5,16.7
	c25.2,10.7,47.9,25.9,67.4,45.4c19.4,19.5,34.7,42.1,45.4,67.4c11.1,26.2,16.7,54,16.7,82.5C718,519.6,712.4,547.3,701.3,573.5z"/>
<g>
	<ellipse transform="matrix(0.7071 -0.7071 0.7071 0.7071 -198.9854 501.6065)" cx="506" cy="491" rx="126" ry="126"/>
</g>
</svg>
