<?xml version="1.0" encoding="utf-8"?>
<!-- Generator: Adobe Illustrator 19.1.0, SVG Export Plug-In . SVG Version: 6.00 Build 0)  -->
<svg version="1.1" id="Layer_1" xmlns="http://www.w3.org/2000/svg" xmlns:xlink="http://www.w3.org/1999/xlink" x="0px" y="0px"
	 viewBox="0 0 512 512" enable-background="new 0 0 512 512" xml:space="preserve">
<path d="M437,75C337-25,175-25,75,75S-25,337,75,437s262.1,100,362,0S537,175,437,75z M363.1,334.9
	c7.8,7.8,7.8,20.5,0,28.3c-3.9,3.9-9,5.9-14.1,5.9s-10.2-2-14.1-5.9L256,284.3l-78.9,78.9c-3.9,3.9-9,5.9-14.1,5.9s-10.2-2-14.1-5.9
	c-7.8-7.8-7.8-20.5,0-28.3l78.9-78.9l-78.9-78.9c-7.8-7.8-7.8-20.5,0-28.3s20.5-7.8,28.3,0l78.9,78.9l78.9-78.9
	c7.8-7.8,20.5-7.8,28.3,0s7.8,20.5,0,28.3L284.3,256L363.1,334.9z"/>
</svg>
