<?xml version="1.0" encoding="utf-8"?>
<!-- Generator: Adobe Illustrator 21.0.2, SVG Export Plug-In . SVG Version: 6.00 Build 0)  -->
<svg version="1.1" id="Layer_1" xmlns="http://www.w3.org/2000/svg" xmlns:xlink="http://www.w3.org/1999/xlink" x="0px" y="0px"
	 viewBox="0 0 1000 1000" enable-background="new 0 0 1000 1000" xml:space="preserve">
<g>
	<path d="M925.7,320.2c-23.3-55-56.6-104.4-99-146.8c-42.4-42.4-91.8-75.7-146.8-99C622.9,50.2,562.4,38,500,38
		S377.1,50.2,320.2,74.3c-55,23.3-104.4,56.6-146.8,99c-42.4,42.4-75.7,91.8-99,146.8C50.2,377.1,38,437.6,38,500
		s12.2,122.9,36.3,179.8c23.3,55,56.6,104.4,99,146.8s91.8,75.7,146.8,99c57,24.1,117.5,36.3,179.8,36.3s122.9-12.2,179.8-36.3
		c55-23.3,104.4-56.6,146.8-99s75.7-91.8,99-146.8c24.1-57,36.3-117.5,36.3-179.8S949.8,377.1,925.7,320.2z M879.6,660.4
		c-20.8,49.1-50.5,93.1-88.3,131c-37.9,37.8-81.9,67.6-131,88.3C609.6,901.1,555.6,912,500,912s-109.6-10.9-160.4-32.4
		c-49.1-20.8-93.1-50.5-131-88.3c-37.8-37.8-67.5-81.9-88.3-131C98.9,609.6,88,555.6,88,500s10.9-109.6,32.4-160.4
		c20.8-49.1,50.5-93.1,88.3-131c37.9-37.8,81.9-67.5,131-88.3C390.4,98.9,444.4,88,500,88s109.6,10.9,160.4,32.4
		c49.1,20.8,93.1,50.5,131,88.3c37.8,37.8,67.5,81.9,88.3,131C901.1,390.4,912,444.4,912,500S901.1,609.6,879.6,660.4z"/>
</g>
<g>
	<path d="M576.3,625.4c-10.7,19.1-30.9,41.9-60.8,68.3c-33.1,30.7-57.6,46.1-73.6,46.1c-14.9,0-27.2-6.7-36.8-19.9
		c-9.6-13.3-14.4-27.3-14.4-42.2c0-38.2,25.6-130.6,76.8-277.2l75.2-15.9c-15,46.9-29.9,94.3-44.9,142.2
		c-18.2,58.6-29.9,107-35.3,145.4l20.8,3.2c15,0,43.3-31.5,85-94.4C573.6,597.9,576.3,612.7,576.3,625.4z"/>
</g>
<circle cx="525" cy="305" r="37"/>
</svg>
