<?xml version="1.0" encoding="utf-8"?>
<!-- Generator: Adobe Illustrator 19.1.0, SVG Export Plug-In . SVG Version: 6.00 Build 0)  -->
<svg version="1.1" id="Layer_1" xmlns="http://www.w3.org/2000/svg" xmlns:xlink="http://www.w3.org/1999/xlink" x="0px" y="0px"
	 viewBox="0 0 512 512" enable-background="new 0 0 512 512" xml:space="preserve">
<path d="M256,0C114.6,0,0,114.6,0,256s114.6,256,256,256s256-114.6,256-256S397.4,0,256,0z M361.8,204L234.3,330.5
	c-3,2.9-7,4.5-11.2,4.5H223c-4.2,0-8.2-1.8-11.2-4.7L150.1,267c-6.1-6.2-6-16.2,0.3-22.3c6.2-6.1,16.2-6,22.3,0.3l50.6,51.8
	l116.2-115.2c6.2-6.1,16.2-6.1,22.3,0.1C368,187.9,368,197.9,361.8,204z"/>
</svg>
