<?xml version="1.0" encoding="utf-8"?>
<!-- Generator: Adobe Illustrator 22.0.1, SVG Export Plug-In . SVG Version: 6.00 Build 0)  -->
<svg version="1.1" id="Layer_1" xmlns="http://www.w3.org/2000/svg" xmlns:xlink="http://www.w3.org/1999/xlink" x="0px" y="0px"
	 viewBox="0 0 1000 1000" enable-background="new 0 0 1000 1000" xml:space="preserve">
<g>
	<path d="M506,215c-49.5,0-100.5,10.5-149.5,27.6l57.4,57.4c3.1-1.5,6.3-3,9.5-4.3c26.2-11.1,54-16.7,82.5-16.7s56.3,5.6,82.5,16.7
		c25.2,10.7,47.9,25.9,67.4,45.4c19.4,19.5,34.7,42.1,45.4,67.4c11.1,26.2,16.7,54,16.7,82.5c0,28.6-5.6,56.3-16.7,82.5
		c-1.4,3.2-2.8,6.4-4.3,9.5l95.5,95.5c97.4-60.7,163.4-138.8,163.4-187.6C955.9,404,730,215,506,215z"/>
</g>
<g>
	<g>
		<path d="M632,489.9c0.1,8.8-0.8,17.5-2.4,25.8L481.3,367.4c8.3-1.7,17-2.5,25.8-2.4C574.4,365.6,631.4,422.6,632,489.9z"/>
	</g>
</g>
<g>
	<path d="M665.1,631.2l-61-61L426.9,393L209.5,175.5l-38.9,38.9l77.8,77.8C138,355.3,56.1,441.7,56.1,491c0,89,237.9,276,449.9,276
		c62.6,0,124.4-13.9,181.3-35.8L783,827L822,788L665.1,631.2z M588.5,686.3c-26.2,11.1-54,16.7-82.5,16.7s-56.3-5.6-82.5-16.7
		c-25.2-10.7-47.9-26-67.4-45.4c-19.4-19.5-34.7-42.1-45.4-67.4c-11.1-26.2-16.7-54-16.7-82.5c0-28.6,5.6-56.4,16.7-82.5
		c5.2-12.3,11.5-24,18.8-35l62.9,62.9c-8.1,16.8-12.6,35.8-12.4,55.8c0.6,67.3,57.6,124.3,124.9,124.9c20,0.2,38.9-4.3,55.8-12.4
		l62.9,62.9C612.5,674.8,600.9,681.1,588.5,686.3z"/>
</g>
<g>
	<path fill="none" d="M629.6,515.7L481.3,367.4c8.3-1.7,17-2.5,25.8-2.4c67.3,0.6,124.3,57.6,124.9,124.9
		C632.1,498.7,631.2,507.3,629.6,515.7z"/>
</g>
</svg>
