<?xml version="1.0" encoding="utf-8"?>
<!-- Generator: Adobe Illustrator 19.1.0, SVG Export Plug-In . SVG Version: 6.00 Build 0)  -->
<svg version="1.1" id="Layer_1" xmlns="http://www.w3.org/2000/svg" xmlns:xlink="http://www.w3.org/1999/xlink" x="0px" y="0px"
	 viewBox="-326.5 0.5 512 512" style="enable-background:new -326.5 0.5 512 512;" xml:space="preserve">
<path d="M8.8,369.3l51.5,0c18.3,0,36-4,52.1-11.7c3.4-1.6,4.9-5.7,3.3-9.2c-1.6-3.4-5.7-4.9-9.2-3.3c-14.3,6.8-30,10.3-46.3,10.4
	l-51.5,0c-3.8,0-6.9,3.1-6.9,6.9C1.9,366.3,5,369.3,8.8,369.3L8.8,369.3z M131.3,346.6c15.8-11.1,24.4-21.3,33.1-35.4
	c11.9-19.2,18.3-41.4,18.3-64.6c0-59.1-42-109.3-99.3-120.3l5.6,6.1C81.9,57.8,19.9,0.5-55.1,0.5c-55.1,0-104.4,31.2-129.1,79.4
	c-0.9,1.7-1.8,3.5-2.6,5.3l8.3-3.7c-8-2.5-15.4-3.9-22.9-3.9c-42.1,0-76.2,34.2-76.2,76.4c0,7.9,1.4,15.7,4.1,23.8l3.1-8.1
	c-32.8,19.2-53.4,53.9-53.4,92.3c0,59.2,47.9,107.2,107,107.2l38.5,0c3.8,0,6.9-3.1,6.9-6.9c0-3.8-3.1-6.9-6.9-6.9l-38.5,0
	c-51.5,0-93.2-41.8-93.2-93.5c0-33.5,17.9-63.7,46.6-80.4c2.8-1.6,4.1-5,3.1-8.1c-2.3-6.9-3.4-13.2-3.4-19.5
	c0-34.6,28-62.6,62.4-62.6c6,0,12,1.1,18.8,3.2c3.3,1,6.9-0.5,8.3-3.7c21.5-46.5,67.5-76.8,119.2-76.8c67.8,0,124,51.9,130.4,119.5
	c0.3,3,2.6,5.5,5.6,6.1c50.8,9.7,88.1,54.4,88.1,106.8c0,20.5-5.7,40.2-16.2,57.3c-7.8,12.7-15.3,21.4-29.3,31.4
	c-3.1,2.2-3.8,6.5-1.7,9.6C123.9,348,128.2,348.8,131.3,346.6L131.3,346.6z M-158,369.3l6.8,0c3.8,0,6.9-3.1,6.9-6.9
	c0-3.8-3.1-6.9-6.9-6.9l-6.8,0c-3.8,0-6.9,3.1-6.9,6.9C-164.9,366.3-161.8,369.3-158,369.3L-158,369.3z M-71.8,193.7l69,69
	c2.7,2.7,7,2.7,9.7,0s2.7-7,0-9.7l-74-74c-2.7-2.7-7-2.7-9.7,0l-74,74c-2.7,2.7-2.7,7,0,9.7c2.7,2.7,7,2.7,9.7,0L-71.8,193.7z
	 M-78.8,189.1v240.1c0,3.8,3.1,6.9,6.9,6.9s6.9-3.1,6.9-6.9V189.1c0-3.8-3.1-6.9-6.9-6.9S-78.8,185.3-78.8,189.1L-78.8,189.1z
	 M-78.8,448.9v0.5c0,3.8,3.1,6.9,6.9,6.9s6.9-3.1,6.9-6.9v-0.5c0-3.8-3.1-6.9-6.9-6.9S-78.8,445.1-78.8,448.9L-78.8,448.9z
	 M-78.8,467.2v38.4c0,3.8,3.1,6.9,6.9,6.9s6.9-3.1,6.9-6.9v-38.4c0-3.8-3.1-6.9-6.9-6.9S-78.8,463.4-78.8,467.2L-78.8,467.2z"/>
</svg>
