<?xml version="1.0" encoding="utf-8"?>
<!-- Generator: Adobe Illustrator 19.2.0, SVG Export Plug-In . SVG Version: 6.00 Build 0)  -->
<svg version="1.1" id="Layer_1" xmlns="http://www.w3.org/2000/svg" xmlns:xlink="http://www.w3.org/1999/xlink" x="0px" y="0px"
	 viewBox="0 0 512 512" style="enable-background:new 0 0 512 512;" xml:space="preserve">
<path d="M262.4,512c-35.7,0-64.2-10.5-84.9-31.4c-24.7-24.9-37.1-63.8-36.8-115.6c0.2-32.6-0.3-248.7-1.4-268.1
	c-0.9-15.9,4.8-41.6,23.6-61.5c11.4-12,32-26.3,66-26.3c30.3,0,55.1,15.7,69.8,44.2c10.1,19.7,12.2,38.8,12.4,40.9l0.1,0.9V96
	l0.5,236.9v0.5c-1,19.2-15.9,47.6-53,47.6c-0.2,0-0.5,0-0.7,0c-39.1-0.4-53.7-30.4-56-46.2l-0.2-1.3V179.6
	c0-10.2,8.3-18.5,18.5-18.5l0,0c10.2,0,18.5,8.3,18.5,18.5v150.5c0.4,1.5,1.4,4.4,3.6,7.2c2.2,2.8,6.2,6.5,16,6.6
	c9.2,0.1,12.4-3.2,14.1-6c1.6-2.6,2.2-5.6,2.3-6.3l-0.7-234.5c-0.4-3-2.4-15.6-8.8-27.6c-8.3-15.7-20.2-23.3-36.4-23.3
	c-16.7,0-29.8,5-39.1,14.8c-10.7,11.3-14,26.6-13.6,34c1.2,21.6,1.6,244.3,1.4,270.3c-0.2,41.6,8.5,71.7,26,89.3
	c13.5,13.6,33.2,20.4,58.7,20.4c17.2,0,31.8-5.9,43.5-17.7c18.9-18.9,30.1-53.4,30-92.2c0-19.6-0.1-193.2-0.1-250.9
	c0-10.2,8.3-18.5,18.5-18.5l0,0c10.2,0,18.5,8.3,18.5,18.5c0,57.6,0.1,231.2,0.1,250.8c0.1,49.1-14.8,92.3-40.8,118.4
	C313.4,502.1,289.3,512,262.4,512z"/>
</svg>
