<?xml version="1.0" encoding="utf-8"?>
<!-- Generator: Adobe Illustrator 22.0.1, SVG Export Plug-In . SVG Version: 6.00 Build 0)  -->
<svg version="1.1" id="Layer_1" xmlns="http://www.w3.org/2000/svg" xmlns:xlink="http://www.w3.org/1999/xlink" x="0px" y="0px"
	 viewBox="0 0 1000 1000" enable-background="new 0 0 1000 1000" xml:space="preserve">
<path d="M855.5,276l-3.4,6.2L579,132.2l3.4-6.2c31.2-56.8,99.5-80.1,158.1-56.4c12.5-19.5,38.2-26.3,58.8-14.9
	c10.7,5.9,18.1,15.6,21.3,26.6c2.8,10.1,2.3,21.1-2.4,31.1C869.7,149.1,886.7,219.3,855.5,276z"/>
<path d="M425.6,131l-273.1,150l-3.4-6.2c-31.2-56.8-14.2-126.9,37.2-163.6c-4.6-10-5.2-21-2.3-31.1c3.3-10.9,10.6-20.7,21.3-26.6
	c20.7-11.4,46.3-4.6,58.8,14.9C322.7,44.7,391,68,422.2,124.8L425.6,131z"/>
<path d="M501,173.1c-215.3,0-389.9,174.6-389.9,389.9S285.7,952.9,501,952.9S890.9,778.3,890.9,563S716.3,173.1,501,173.1z
	 M726.6,788.6c-29.3,29.3-63.4,52.3-101.4,68.4c-39.3,16.6-81.1,25-124.2,25s-84.9-8.4-124.2-25c-38-16.1-72.1-39.1-101.4-68.4
	c-29.3-29.3-52.3-63.4-68.4-101.4c-16.6-39.3-25-81-25-124.1c0-43.1,8.4-84.9,25-124.2c16.1-38,39.1-72.1,68.4-101.4
	c29.3-29.3,63.4-52.3,101.4-68.4c39.3-16.6,81.1-25,124.2-25s84.9,8.4,124.2,25c38,16.1,72.1,39.1,101.4,68.4
	c29.3,29.3,52.3,63.4,68.4,101.4c16.6,39.3,25,81,25,124.2c0,43.1-8.4,84.9-25,124.1C778.9,725.1,755.9,759.2,726.6,788.6z"/>
<path d="M634.7,712.8l-2.3,2.3c-6.9,6.9-16,10.4-25.1,10.4c-9.1,0-18.1-3.5-25.1-10.4L475.9,608.8c-6.6-6.6-10.4-15.7-10.4-25.1
	V350.3c0-19.6,15.9-35.4,35.4-35.4c19.6,0,35.4,15.9,35.4,35.4v199.4c0,9.4,3.7,18.4,10.4,25.1l87.9,87.9
	C648.6,676.5,648.6,699,634.7,712.8z"/>
</svg>
