<svg id="f2289539-5596-419a-8fe8-75e2752fe8a6" data-name="Layer 1" xmlns="http://www.w3.org/2000/svg" viewBox="0 0 783 390"><title>action</title><path d="M697.47,272.54h-393c-107.52,0-195,87.47-195,195s87.48,195,195,195h393c107.52,0,195-87.48,195-195S805,272.54,697.47,272.54Zm0,359h-393c-90.43,0-164-73.57-164-164s73.57-164,164-164h393c90.43,0,164,73.57,164,164S787.9,631.54,697.47,631.54Z" transform="translate(-109.47 -272.54)" style="fill:#adadad"/><path d="M396.3,467.56a60.35,60.35,0,1,1-60.36-60.36A60.36,60.36,0,0,1,396.3,467.56Z" transform="translate(-109.47 -272.54)" style="fill:#adadad"/><path d="M558.8,467.56a60.35,60.35,0,1,1-60.36-60.36A60.36,60.36,0,0,1,558.8,467.56Z" transform="translate(-109.47 -272.54)" style="fill:#adadad"/><path d="M721.3,467.56a60.35,60.35,0,1,1-60.36-60.36A60.36,60.36,0,0,1,721.3,467.56Z" transform="translate(-109.47 -272.54)" style="fill:#adadad"/></svg>