<?xml version="1.0" encoding="utf-8"?>
<!-- Generator: Adobe Illustrator 21.0.2, SVG Export Plug-In . SVG Version: 6.00 Build 0)  -->
<svg version="1.1" id="Layer_1" xmlns="http://www.w3.org/2000/svg" xmlns:xlink="http://www.w3.org/1999/xlink" x="0px" y="0px"
	 viewBox="0 0 1000 1000" enable-background="new 0 0 1000 1000" xml:space="preserve">
<g id="_x38_BwYyZ.tif">
	<g>
		<g>
			<path d="M757.6,728.1c0,42.4-25.9,68.3-68.5,68.4c-12.5,0-25.1,0-38.9,0v10c0,40.7,0.2,81.4-0.1,122.2
				c-0.3,42.9-39.8,71.3-80.2,57.4c-22.1-7.6-35.8-23.8-39.2-47.5c-1.1-7.5-1-15.2-1-22.8c-0.1-36,0-72.1,0-108.1V797h-79.9
				c-0.2,3.7-0.5,7.1-0.5,10.5c0,39.8,0.2,79.7-0.1,119.5c-0.2,29-16,51.7-40.7,59.4c-40.8,12.8-78.3-14.9-79.1-59
				c-0.7-40.1-0.5-80.2-0.6-120.4c0-3.1,0-6.3,0-10.5c-15.1,0-29.4,0-43.6,0c-35.4-0.1-63.5-27.1-63.6-62.4
				c-0.3-128.3-0.1-256.6-0.1-384.9c0-1.4,0.2-2.9,0.3-5h535.8v9.5C757.6,478.6,757.6,603.3,757.6,728.1z"/>
			<path d="M622.4,106.2c13.5-24.8,26.7-49.2,40-73.7c2.7-4.9,4.6-10-1.9-13.5c-6.3-3.5-9.8,0.3-12.6,5.4
				c-10,18.2-19.9,36.4-29.9,54.7c-3.6,6.6-7.3,13.1-11.1,19.9C528.3,66.8,450.3,66.4,372,99c-4.6-8.3-9-16.2-13.3-24.1
				c-9.4-17.2-18.6-34.5-28.4-51.4c-1.5-2.7-5.8-5-8.9-5.2c-2.2-0.1-6,3.3-6.5,5.7c-0.6,3,0.9,6.8,2.5,9.7
				c12.9,24.2,26.1,48.3,39.5,73c-40.8,21.3-74.4,50.1-99.5,88.5c-25.1,38.4-38.4,80.3-38,126.9h540.4
				C755.6,223.1,706.5,153.7,622.4,106.2z M366.3,224.9c-12.6-0.1-22.2-10.4-22-23.4c0.3-12.7,10.7-22.6,23.3-22.2
				c11.6,0.4,21.5,11.4,21.2,23.6C388.5,215.5,378.6,225,366.3,224.9z M613.2,224.9c-12.7,0.1-22.9-9.9-22.9-22.6
				c0-12.9,10.5-23.2,23.6-23c11.1,0.2,20.9,10.8,20.9,22.8C634.7,215,625.5,224.8,613.2,224.9z"/>
			<path d="M198.1,641.5c-0.3,42.4-35.2,69.7-75.8,59.8c-22.9-5.6-41.5-27.2-43.5-50.7c-0.3-3.5-0.5-7-0.5-10.5
				c0-81.7,0.7-163.4-0.3-245.1c-0.6-49.1,50.6-76.7,89.3-54.7c21,11.9,30.8,30.4,30.8,54.4c0,41,0,82,0,123
				C198.2,558.9,198.4,600.2,198.1,641.5z"/>
			<path d="M900.6,642.4c-0.5,41.5-36,68.8-75.7,58.9c-24.9-6.2-43.6-29.3-43.8-57c-0.5-84.3-0.6-168.6,0-253
				c0.2-32,22.9-55.1,54.4-58.3c29.1-3,56.5,16,63.2,44.3c1.6,6.7,1.8,13.9,1.8,20.9c0.1,30.1,0.1,60.2,0.1,90.2c0,10,0,20,0,30.1
				c0,1.6,0,3.2,0,4.7c0,10.2,0,20.5,0,30.7C900.8,583.4,900.9,612.9,900.6,642.4z"/>
		</g>
	</g>
</g>
</svg>
