<?xml version="1.0" encoding="utf-8"?>
<!-- Generator: Adobe Illustrator 22.0.1, SVG Export Plug-In . SVG Version: 6.00 Build 0)  -->
<svg version="1.1" id="Layer_1" xmlns="http://www.w3.org/2000/svg" xmlns:xlink="http://www.w3.org/1999/xlink" x="0px" y="0px"
	 viewBox="0 0 1000 1000" enable-background="new 0 0 1000 1000" xml:space="preserve">
<g>
	<path d="M803.9,931.1C660.2,1046,435.2,862.8,329,771.2C219.6,676.9,116.9,551.1,64.9,415.8c-52.7-136.9,7.3-278,157.9-315.7
		c99.4-24.9,103.7,81.9,119.1,154.5c16.4,77.6,39.4,163.9-54.6,195.3c35.1,105.3,162,232.5,267.8,267.8
		c21.1-63.3,64.3-74.6,125.7-68.1c55.2,5.9,177.6,14.7,214.5,59.9C949.9,776.3,848.9,884.7,803.9,931.1z"/>
	<g>
		<path d="M465,316.5v53.3c83.2,0,151.2,67.9,151.2,151.2h53.3C669.5,408.3,577.7,316.5,465,316.5z"/>
	</g>
	<g>
		<path d="M465,174.2v53.3c161.8,0,293.4,131.6,293.4,293.4h53.3C811.8,329.7,656.3,174.2,465,174.2z"/>
	</g>
	<g>
		<path d="M465,32v53.3c240.1,0,435.7,195.6,435.7,435.7H954C954,251.4,734.6,32,465,32z"/>
	</g>
</g>
</svg>
