<?xml version="1.0" encoding="utf-8"?>
<!-- Generator: Adobe Illustrator 19.2.0, SVG Export Plug-In . SVG Version: 6.00 Build 0)  -->
<svg version="1.1" id="Layer_1" xmlns="http://www.w3.org/2000/svg" xmlns:xlink="http://www.w3.org/1999/xlink" x="0px" y="0px"
	 viewBox="0 0 16 16" style="enable-background:new 0 0 16 16;" xml:space="preserve">
<title>Group 3</title>
<desc>Created with Sketch.</desc>
<g id="Page-1">
	<g id="Group-6" transform="translate(-979.000000, -293.000000)">
		<g id="Group-3" transform="translate(979.000000, 293.000000)">
			<path id="Fill-207" d="M15,5H1V2c0-0.6,0.4-1,1-1h3c0.6,0,1,0.4,1,1v1h8c0.6,0,1,0.4,1,1V5L15,5z M15,14c0,0.6-0.4,1-1,1H2
				c-0.6,0-1-0.4-1-1V6h14V14L15,14z M7,2c0-1.1-0.9-2-2-2H2C0.9,0,0,0.9,0,2v12c0,1.1,0.9,2,2,2h12c1.1,0,2-0.9,2-2V4
				c0-1.1-0.9-2-2-2H7z"/>
			<g id="_x32_36" transform="translate(6.000000, 8.000000)">
				<path id="Fill-478" d="M3,2V0.3C3,0.1,2.9,0,2.7,0H2.4C2.2,0,2.1,0.1,2.1,0.3V2H0.4C0.2,2,0.1,2.1,0.1,2.3v0.3
					c0,0.2,0.1,0.3,0.3,0.3h1.7v1.7c0,0.2,0.1,0.3,0.3,0.3h0.3C2.9,4.9,3,4.8,3,4.6V3h1.7C4.9,3,5,2.9,5,2.7V2.4
					c0-0.2-0.1-0.3-0.3-0.3L3,2L3,2z"/>
			</g>
		</g>
	</g>
</g>
</svg>
