<?xml version="1.0" encoding="utf-8"?>
<!-- Generator: Adobe Illustrator 22.0.1, SVG Export Plug-In . SVG Version: 6.00 Build 0)  -->
<svg version="1.1" id="Layer_1" xmlns="http://www.w3.org/2000/svg" xmlns:xlink="http://www.w3.org/1999/xlink" x="0px" y="0px"
	 viewBox="0 0 1000 1000" enable-background="new 0 0 1000 1000" xml:space="preserve">
<g>
	<path d="M772.9,155.4h-27.2v-27.2c0-46.4-37.8-84.2-84.2-84.2h-475c-46.4,0-84.2,37.8-84.2,84.2v632.1c0,46.4,37.8,84.2,84.2,84.2
		h27.2v27.2c0,46.4,37.8,84.2,84.2,84.2h475c46.4,0,84.2-37.8,84.2-84.2V239.7C857.2,193.2,819.4,155.4,772.9,155.4z M213.7,239.7
		v567.5h-27.2c-25.8,0-46.8-21-46.8-46.8V128.2c0-25.8,21-46.8,46.8-46.8h475c25.8,0,46.8,21,46.8,46.8v27.2H297.9
		C251.5,155.4,213.7,193.2,213.7,239.7z M819.7,871.8c0,25.8-21,46.8-46.8,46.8h-475c-25.8,0-46.8-21-46.8-46.8V239.7
		c0-25.8,21-46.8,46.8-46.8h475c25.8,0,46.8,21,46.8,46.8V871.8z"/>
	<path fill="#FFFFFF" d="M819.7,239.7v632.1c0,25.8-21,46.8-46.8,46.8h-475c-25.8,0-46.8-21-46.8-46.8V239.7
		c0-25.8,21-46.8,46.8-46.8h475C798.7,192.8,819.7,213.8,819.7,239.7z"/>
</g>
</svg>
