<?xml version="1.0" encoding="utf-8"?>
<!-- Generator: Adobe Illustrator 22.0.1, SVG Export Plug-In . SVG Version: 6.00 Build 0)  -->
<svg version="1.1" id="Layer_1" xmlns="http://www.w3.org/2000/svg" xmlns:xlink="http://www.w3.org/1999/xlink" x="0px" y="0px"
	 viewBox="0 0 1000 1000" enable-background="new 0 0 1000 1000" xml:space="preserve">
<g>
	<g>
		<path d="M302.6,280.4c-4-4-9.5-6.4-15.6-6.4c-12.2,0-22,9.8-22,22v66c0,12.1,9.8,22,22,22s22-9.9,22-22v-66
			C309,289.9,306.5,284.4,302.6,280.4z M941,954.4c12.4-2,23.3-8.4,31.1-17.6C961.6,948.3,947.2,952.9,941,954.4z M782.4,623.7
			c0.5-0.1,0.9-0.3,1.4-0.4C783.3,623.4,782.9,623.6,782.4,623.7z M720,274c-12.2,0-22,9.8-22,22v66c0,12.1,9.8,22,22,22
			s22-9.9,22-22v-66c0-6.1-2.5-11.6-6.4-15.6C731.6,276.5,726.1,274,720,274z M933,45h-1.5c48.1,0,52.5,50.1,52.6,51
			C984,67.8,961.1,45,933,45z"/>
	</g>
	<g>
		<g>
			<path fill="#FFFFFF" d="M735.6,280.4c4,4,6.4,9.5,6.4,15.6v66c0,12.1-9.8,22-22,22s-22-9.9-22-22v-66c0-12.2,9.8-22,22-22
				C726.1,274,731.6,276.5,735.6,280.4z"/>
			<path fill="#FFFFFF" d="M783.8,623.3c-0.5,0.1-0.9,0.2-1.4,0.4C782.9,623.6,783.3,623.4,783.8,623.3z"/>
		</g>
		<g>
			<path d="M972,936.8c6.6-7.3,11.7-17.5,11.9-31.5C983.7,917.3,979.2,928.2,972,936.8z M937.9,955c0,0,1.1-0.2,3-0.6
				c-1.9,0.3-3.9,0.5-5.9,0.6C937,955,937.9,955,937.9,955z"/>
			<path d="M931.4,45c-48.5,0-415.7,0-415.7,0H67c-28.2,0-51,22.8-51,51V904c0,28.2,22.8,51,51,51H933c0.7,0,1.4,0,2.1,0
				c0,0,0,0,0,0c2-0.1,4-0.3,5.9-0.6c0,0,0,0,0,0c6.2-1.5,20.6-6,31.1-17.6c7.2-8.6,11.6-19.5,11.9-31.5c0-0.4,0-0.8,0-1.3
				c0-44,0-808,0-808s0,0,0,0C983.9,95.1,979.5,45,931.4,45z M265,296c0-12.2,9.8-22,22-22c6.1,0,11.6,2.5,15.6,6.4
				c4,4,6.4,9.5,6.4,15.6v66c0,12.1-9.8,22-22,22s-22-9.9-22-22V296z M970.8,904c0,13.3-5.3,23.3-16.2,30.4
				c-7.4,4.8-15.2,6.8-17.8,7.4c-13.2-0.2-121.7-1.9-336.5-2C589,895.8,581.5,838,576.4,782c-1.9,0.3-3.7,0.6-5.4,0.8
				c-2.8,0.4-4.9,0.7-6.9,1c-20.9,2.8-42.5,4.2-64.1,4.2c-47,0-92.3-6.6-134.7-19.5c-34.1-10.4-66.3-25-95.9-43.3
				c-50.1-31.1-75.3-62.2-78-65.7c-5.8-7.4-8.3-16.5-7.2-25.8c1.1-9.3,5.8-17.6,13.2-23.3c6.1-4.8,13.8-7.5,21.6-7.5
				c10.8,0,20.8,4.8,27.4,13.2c1.4,1.7,21.4,25.9,61,50.2c24.3,14.9,50.9,26.8,79.2,35.4C422.1,712.6,460.2,718,500,718
				c19.2,0,38.2-1.3,56.6-3.8c2.1-0.3,4.1-0.6,6.2-0.9l0.1,0l0.1,0c2.2-0.3,4.2-0.6,6-1l0.1,0c0.7-0.1,1.4-0.2,2-0.4
				c-2.5-39.8-3.9-74.3-4.8-96.4c-0.5-11.3-0.8-19.5-1.1-24.3c-2.2-35.5-23.4-38.2-29.9-38.2c-2.8,0-5.3,0.4-7.1,0.9
				c-5.3,0.1-22.4,0.4-52,0.4c-17.2,0-35.9-0.1-55.5-0.3c-0.4,0-0.5-0.2-0.6-0.2c2.3-82.7,9-160.2,19.8-230.5
				c8.7-56.2,20-107.9,33.7-153.7c20.3-67.8,39.9-102.3,44.8-110.3l1.4-1h411.5c14.9,0,25.5,5.9,32.6,18.1c5.2,9,6.6,18.3,6.8,20.4
				V904z"/>
		</g>
	</g>
</g>
<g>
	<path fill="#FFFFFF" d="M309,296v66c0,12.1-9.8,22-22,22s-22-9.9-22-22v-66c0-12.2,9.8-22,22-22c6.1,0,11.6,2.5,15.6,6.4
		C306.5,284.4,309,289.9,309,296z"/>
</g>
<g>
	<path d="M742,296v66c0,12.1-9.8,22-22,22s-22-9.9-22-22v-66c0-12.2,9.8-22,22-22c6.1,0,11.6,2.5,15.6,6.4
		C739.5,284.4,742,289.9,742,296z"/>
</g>
<g>
	<g>
		<path d="M798.5,647.6c-1,1.3-26.2,31-75.7,60.8c-28.9,17.3-60.2,31.1-93.1,41c-17.9,5.4-36.3,9.6-55.1,12.7
			c-2.2,0.3-4.3,0.7-6.5,1s-4.4,0.6-6.6,0.9c-20.2,2.7-40.7,4-61.6,4c-45,0-88.4-6.3-128.9-18.6c-32.5-9.9-63.1-23.8-91.2-41.1
			c-48.1-29.8-71.8-59.8-72.8-61c-5.1-6.5-4-16,2.6-21.1c0.5-0.4,1-0.8,1.6-1.1c0.4-0.2,0.7-0.4,1.1-0.6c2.1-1,4.3-1.5,6.5-1.5
			c3.1,0,6.1,0.9,8.7,2.7c0.5,0.3,0.9,0.7,1.3,1.1c0.7,0.6,1.2,1.2,1.8,1.9c0.5,0.6,22.4,27.9,66.2,54.8
			c25.8,15.8,54,28.4,83.8,37.5c37.3,11.3,77.5,17,119.2,17c20.9,0,40.7-1.4,59.3-4c2.2-0.3,4.4-0.6,6.6-1c2.2-0.3,4.4-0.7,6.5-1.1
			c134.1-22.8,202.3-102.7,203.1-103.6c0.4-0.4,0.8-0.9,1.2-1.2c0.4-0.4,0.8-0.8,1.3-1.1c1.4-1,2.9-1.8,4.5-2.3
			c0.5-0.2,0.9-0.3,1.4-0.4c1-0.2,2.1-0.3,3.2-0.3c1.3,0,2.5,0.2,3.8,0.5c0.4,0.1,0.8,0.2,1.2,0.4c0.4,0.1,0.8,0.3,1.2,0.5
			c0.4,0.2,0.8,0.4,1.2,0.6c0.8,0.4,1.5,0.9,2.2,1.5C803,631.8,803.8,641.2,798.5,647.6z"/>
		<path d="M229,626.8c-0.4-0.4-0.9-0.7-1.3-1.1C228.1,626.1,228.6,626.4,229,626.8z"/>
		<path fill="#FFFFFF" d="M964,76.3c-7-12.2-17.7-18.1-32.6-18.1H519.9l-1.4,1c-4.9,8-24.5,42.6-44.8,110.3
			C460,215.3,448.7,267,440,323.2c-10.8,70.3-17.5,147.8-19.8,230.5c0.1,0.1,0.2,0.2,0.6,0.2c19.7,0.2,38.3,0.3,55.5,0.3
			c29.6,0,46.7-0.3,52-0.4c1.8-0.5,4.2-0.9,7.1-0.9c6.4,0,27.6,2.8,29.9,38.2c0.3,4.8,0.6,13,1.1,24.3c0.9,22.1,2.3,56.7,4.8,96.4
			c-0.7,0.1-1.3,0.2-2,0.4l-0.1,0c-1.9,0.3-3.8,0.7-6,1l-0.1,0l-0.1,0c-2,0.3-4.1,0.6-6.2,0.9c-18.4,2.5-37.4,3.8-56.6,3.8
			c-39.8,0-77.9-5.4-113.4-16.2c-28.2-8.5-54.9-20.4-79.2-35.4c-39.6-24.3-59.6-48.5-61-50.2c-6.7-8.4-16.7-13.2-27.4-13.2
			c-7.8,0-15.4,2.6-21.6,7.5c-7.3,5.7-12,14-13.2,23.3c-1.1,9.3,1.4,18.4,7.2,25.8c2.7,3.5,27.9,34.6,78,65.7
			c29.5,18.3,61.8,32.8,95.9,43.3C407.7,781.4,453,788,500,788c21.7,0,43.2-1.4,64.1-4.2c2-0.2,4.1-0.5,6.9-1
			c1.7-0.2,3.4-0.5,5.4-0.8c5.1,55.9,12.6,113.7,23.9,157.8c214.8,0,323.3,1.8,336.5,2c2.6-0.6,10.3-2.5,17.8-7.4
			c10.9-7.1,16.2-17.1,16.2-30.4V96.7C970.5,94.6,969.2,85.2,964,76.3z M698,296c0-12.2,9.8-22,22-22c6.1,0,11.6,2.5,15.6,6.4
			c4,4,6.4,9.5,6.4,15.6v66c0,12.1-9.8,22-22,22s-22-9.9-22-22V296z M574.7,762.1c-2.2,0.3-4.3,0.7-6.5,1s-4.4,0.6-6.6,0.9
			c-20.2,2.7-40.7,4-61.6,4c-45,0-88.4-6.3-128.9-18.6c-32.5-9.9-63.1-23.8-91.2-41.1c-48.1-29.8-71.8-59.8-72.8-61
			c-5.1-6.5-4-16,2.6-21.1c0.5-0.4,1-0.8,1.6-1.1c0.4-0.2,0.7-0.4,1.1-0.6c2.1-1,4.3-1.5,6.5-1.5c3.1,0,6.1,0.9,8.7,2.7
			c0.5,0.3,0.9,0.7,1.3,1.1c0.7,0.6,1.2,1.2,1.8,1.9c0.5,0.6,22.4,27.9,66.2,54.8c25.8,15.8,54,28.4,83.8,37.5
			c37.3,11.3,77.5,17,119.2,17c20.9,0,40.7-1.4,59.3-4c2.2-0.3,4.4-0.6,6.6-1c2.2-0.3,4.4-0.7,6.5-1.1
			c134.1-22.8,202.3-102.7,203.1-103.6c0.4-0.4,0.8-0.9,1.2-1.2c0.4-0.4,0.8-0.8,1.3-1.1c1.4-1,2.9-1.8,4.5-2.3
			c0.5-0.1,0.9-0.3,1.4-0.4c1-0.2,2.1-0.3,3.2-0.3c1.3,0,2.5,0.2,3.8,0.5c0.4,0.1,0.8,0.2,1.2,0.4c0.4,0.1,0.8,0.3,1.2,0.5
			c0.4,0.2,0.8,0.4,1.2,0.6c0.8,0.4,1.5,0.9,2.2,1.5c6.4,5.3,7.2,14.8,1.9,21.1c-1,1.3-26.2,31-75.7,60.8
			c-28.9,17.3-60.2,31.1-93.1,41C611.8,754.8,593.5,759,574.7,762.1z"/>
	</g>
</g>
</svg>
