<?xml version="1.0" encoding="utf-8"?>
<!-- Generator: Adobe Illustrator 21.0.2, SVG Export Plug-In . SVG Version: 6.00 Build 0)  -->
<svg version="1.1" id="Layer_1" xmlns="http://www.w3.org/2000/svg" xmlns:xlink="http://www.w3.org/1999/xlink" x="0px" y="0px"
	 viewBox="0 0 1000 1000" enable-background="new 0 0 1000 1000" xml:space="preserve">
<g>
	<path d="M894.3,729.2c-19.1,34.8-43.4,66-72.5,93.9l-21.2-21.3c26.3-26.2,49.1-55.7,67.8-87.8L894.3,729.2z"/>
</g>
<g>
	<path d="M950.1,561.2c-4.3,39.5-14.8,77.6-31.1,114.5l-27.7-11.5c14.3-34.3,24.1-70.3,29-107L950.1,561.2z"/>
</g>
<g>
	<path d="M937.3,384.7c11.1,38.1,16,77.4,15.1,117.7l-30-0.1c0.1-37.2-4.7-74.2-14.1-110L937.3,384.7z"/>
</g>
<g>
	<path d="M858,226.5c24.9,31,44.4,65.4,59,102.9l-27.7,11.4c-14.2-34.4-32.7-66.7-55.1-96.2L858,226.5z"/>
</g>
<g>
	<path d="M724.2,110.7c34.8,19.1,66,43.4,93.9,72.5l-21.3,21.2c-26.2-26.3-55.7-49.1-87.8-67.8L724.2,110.7z"/>
</g>
<g>
	<path d="M556.2,54.9c39.5,4.3,77.6,14.8,114.5,31.1l-11.5,27.7c-34.3-14.3-70.3-24.1-107-29L556.2,54.9z"/>
</g>
<g>
	<path d="M379.7,67.7c38.1-11.1,77.4-16,117.7-15.1l-0.1,30c-37.2-0.1-74.2,4.7-110,14.1L379.7,67.7z"/>
</g>
<g>
	<path d="M221.5,147c31-24.9,65.4-44.4,102.9-59l11.4,27.7c-34.4,14.2-66.7,32.7-96.2,55.1L221.5,147z"/>
</g>
<g>
	<path d="M105.7,280.8c19.1-34.8,43.4-66,72.5-93.9l21.2,21.3c-26.3,26.2-49.1,55.7-67.8,87.8L105.7,280.8z"/>
</g>
<g>
	<path d="M49.9,448.8c4.3-39.5,14.8-77.6,31.1-114.5l27.7,11.5c-14.3,34.3-24.1,70.3-29,107L49.9,448.8z"/>
</g>
<g>
	<path d="M62.7,625.3c-11.1-38.1-16-77.4-15.1-117.7l30,0.1c-0.1,37.2,4.7,74.2,14.1,110L62.7,625.3z"/>
</g>
<g>
	<path d="M142,783.5c-24.9-31-44.4-65.4-59-102.9l27.7-11.4c14.2,34.4,32.7,66.7,55.1,96.2L142,783.5z"/>
</g>
<g>
	<path d="M275.8,899.3c-34.8-19.1-66-43.4-93.9-72.5l21.3-21.2c26.2,26.3,55.7,49.1,87.8,67.8L275.8,899.3z"/>
</g>
<g>
	<path d="M443.8,955.1c-39.5-4.3-77.6-14.8-114.5-31.1l11.5-27.7c34.3,14.3,70.3,24.1,107,29L443.8,955.1z"/>
</g>
<g>
	<path d="M620.3,942.3c-38.1,11.1-77.4,16-117.7,15.1l0.1-30c37.2,0.1,74.2-4.7,110-14.1L620.3,942.3z"/>
</g>
<g>
	<path d="M778.5,863c-31,24.9-65.4,44.4-102.9,59l-11.4-27.7c34.4-14.2,66.7-32.7,96.2-55.1L778.5,863z"/>
</g>
<path d="M500,224.4c-115.4,0-209,93.6-209,209c0,115.4,84.2,228.4,209,353.2c119.9-119.9,209-237.8,209-353.2
	C709,318,615.4,224.4,500,224.4z M500,478c-38.1,0-69-30.9-69-69s30.9-69,69-69s69,30.9,69,69S538.1,478,500,478z"/>
</svg>
