<?xml version="1.0" encoding="utf-8"?>
<!-- Generator: Adobe Illustrator 21.0.2, SVG Export Plug-In . SVG Version: 6.00 Build 0)  -->
<svg version="1.1" id="Layer_1" xmlns="http://www.w3.org/2000/svg" xmlns:xlink="http://www.w3.org/1999/xlink" x="0px" y="0px"
	 viewBox="0 0 1000 1000" enable-background="new 0 0 1000 1000" xml:space="preserve">
<path d="M942.9,405.8l-50.7,453.7c-2.4,22-21,38.6-43.1,38.6H134.5c-22.5,0-41.2-17.2-43.2-39.6l-40-453.7
	C49,379.4,69,357.6,94.5,357.6h805.3C925.7,357.6,945.8,380.1,942.9,405.8z"/>
<path d="M884.7,226.4v46.9c0,14.9-12.1,27-27,27H153.5c-27.2,0-48.4-23.5-45.6-50.5l11.3-109.6c1.4-13.8,13-24.2,26.9-24.2h230
	c13.2,0,25.9,5.3,35.3,14.6l65.3,65.3c2.2,2.2,5.3,3.5,8.5,3.5h372.5C872.7,199.5,884.7,211.5,884.7,226.4z"/>
</svg>
