<?xml version="1.0" encoding="utf-8"?>
<!-- Generator: Adobe Illustrator 21.0.2, SVG Export Plug-In . SVG Version: 6.00 Build 0)  -->
<svg version="1.1" id="Layer_1" xmlns="http://www.w3.org/2000/svg" xmlns:xlink="http://www.w3.org/1999/xlink" x="0px" y="0px"
	 viewBox="0 0 1000 1000" enable-background="new 0 0 1000 1000" xml:space="preserve">
<path d="M954,487.9v24.2c0,25.4-20.5,45.9-45.9,45.9H556v350.6c0,25.1-20.3,45.4-45.4,45.4h-21.1c-25.1,0-45.4-20.4-45.4-45.4V558
	H91.9C66.5,558,46,537.5,46,512.1v-24.2c0-25.4,20.5-45.9,45.9-45.9H444V91.4c0-25.1,20.3-45.4,45.4-45.4h21.1
	c25.1,0,45.4,20.3,45.4,45.4V442h352.1C933.5,442,954,462.5,954,487.9z"/>
</svg>
