<?xml version="1.0" encoding="utf-8"?>
<!-- Generator: Adobe Illustrator 21.0.2, SVG Export Plug-In . SVG Version: 6.00 Build 0)  -->
<svg version="1.1" id="Layer_1" xmlns="http://www.w3.org/2000/svg" xmlns:xlink="http://www.w3.org/1999/xlink" x="0px" y="0px"
	 viewBox="0 0 512 512" enable-background="new 0 0 512 512" xml:space="preserve">
<g id="Layer_2_2_">
	<g>
		<path d="M502,256c0,33.3-6.2,65.5-18.5,95.9c-11.8,29.3-28.7,55.6-50.3,78.2c-21.5,22.6-46.5,40.3-74.4,52.6
			C330,495.5,299.5,502,267.9,502c-48.6,0-95.2-15.5-134.7-44.8c-19.1-14.1-36-31.1-50.3-50.5c-12.7-17.2-23.1-36-31.1-56l45-21.8
			c5.8,14.8,13.3,28.8,22.4,41.8c11.2,15.9,24.6,29.8,39.9,41.5c31.8,24.3,69.4,37.1,108.8,37.1c25,0,49.2-5.1,72.1-15.2
			c22-9.8,41.8-23.7,58.7-41.5c16.9-17.7,30.2-38.4,39.5-61.4c9.6-23.8,14.4-49,14.4-75.1s-4.9-51.3-14.4-75.1
			c-9.3-23-22.6-43.7-39.5-61.4C381.7,101.8,362,87.8,340,78c-22.8-10.1-47.1-15.2-72.1-15.2c-35.3,0-69.7,10.5-99.3,30.3
			c-28.8,19.2-51.9,46.4-66.8,78.5l-4.3,9.3l9.5,4.1l33.3,14.3l-98.3,64.2L14.2,145l28.3,12.2l9.1,3.9l4-9
			c18.6-41.9,48-77.4,85-102.6C178.5,23.7,222.5,10,267.9,10c31.5,0,62.1,6.5,90.9,19.3c27.9,12.4,52.9,30.1,74.4,52.6
			c21.5,22.6,38.5,48.9,50.3,78.2C495.8,190.5,502,222.7,502,256z"/>
	</g>
</g>
<g>
	<g>
		<path d="M425.6,267c0,11.9-9.7,21.6-21.6,21.6H282.8c-2.7,9-11,15.4-20.7,15.4c-10.1,0-18.8-7.1-21-16.7
			c-8.5-3-14.4-11.1-14.4-20.4c0-9.1,5.6-17,13.9-20.2V114.2c0-11.9,9.7-21.6,21.6-21.6c11.9,0,21.6,9.7,21.6,21.6v131.2H404
			C415.9,245.4,425.6,255.1,425.6,267z"/>
	</g>
</g>
</svg>
