<?xml version="1.0" encoding="utf-8"?>
<!-- Generator: Adobe Illustrator 21.0.2, SVG Export Plug-In . SVG Version: 6.00 Build 0)  -->
<svg version="1.1" id="Layer_1" xmlns="http://www.w3.org/2000/svg" xmlns:xlink="http://www.w3.org/1999/xlink" x="0px" y="0px"
	 viewBox="0 0 33 33" enable-background="new 0 0 33 33" xml:space="preserve">
<path d="M26.7,28.6c-0.7,0.6-1.4,1.2-2.1,1.8c-1,0.9-2.1,1.2-3.4,1c-1.9-0.2-3.5-1-5.2-1.9c-3.6-2.1-6.6-4.8-9-8.2
	c-1.8-2.5-3.2-5.1-4.1-8.1c-0.4-1.4-0.7-2.9-0.4-4.4C2.7,8,3.1,7.3,3.8,6.7c0.8-0.6,1.5-1.3,2.3-2c1-0.9,2.2-0.8,3.1,0.2
	c0.5,0.6,1.1,1.2,1.6,1.9c0.5,0.6,1,1.2,1.6,1.8c0.9,1.1,0.8,2.2-0.2,3.1c-0.8,0.7-1.5,1.3-2.3,2c-0.2,0.2-0.2,0.3-0.1,0.6
	c0.4,1.2,1,2.2,1.7,3.2c1.4,2,3,3.8,5,5.3c0.4,0.3,0.9,0.6,1.4,0.8c0.2,0.2,0.4,0.1,0.6-0.1c0.8-0.7,1.5-1.3,2.3-2
	c1-0.9,2.2-0.8,3.1,0.2c1.1,1.2,2.1,2.5,3.2,3.7C27.8,26.5,27.8,27.7,26.7,28.6z"/>
<path fill="#FFFFFF" d="M25.2,16.7L23,16.9c-0.2-1.6-0.8-3.1-1.8-4.3c-1.1-1.3-2.6-2.2-4.2-2.5l0.5-2.2c2.1,0.5,4,1.6,5.5,3.2
	C24.2,12.7,25,14.6,25.2,16.7z"/>
<path fill="#FFFFFF" d="M31.1,16.7L28.9,17c-0.3-3-1.5-5.7-3.4-8c-2.1-2.4-4.8-4-7.8-4.7l0.5-2.2c3.6,0.8,6.7,2.6,9.1,5.4
	C29.4,10.1,30.8,13.3,31.1,16.7z"/>
</svg>
