<?xml version="1.0" encoding="utf-8"?>
<!-- Generator: Adobe Illustrator 21.0.2, SVG Export Plug-In . SVG Version: 6.00 Build 0)  -->
<svg version="1.1" id="Layer_1" xmlns="http://www.w3.org/2000/svg" xmlns:xlink="http://www.w3.org/1999/xlink" x="0px" y="0px"
	 viewBox="0 0 1000 1000" enable-background="new 0 0 1000 1000" xml:space="preserve">
<path d="M882.8,456h-61c4.8,23.8,7.2,48.2,7.2,73c0,50-9.8,98.4-29,144c-12.9,30.5-29.7,58.9-50.1,84.8c-0.7-0.3-1.5-0.6-2.3-0.9
	l-123.1-37.8c-31.2-9.6-52.5-38.4-52.5-71v-47.7c0-39.5-32-71.4-71.4-71.4H298.4c-10.2,0-18.4-8.2-18.4-18.4v-39.2
	c0-10.2,8.2-18.4,18.4-18.4h83.2c10.2,0,18.4-8.2,18.4-18.4v-89.2c0-10.2,8.2-18.4,18.4-18.4h78.7c16,0,31.4-6.1,43-17l5-4.7
	c17.2-16.1,26.9-38.6,26.9-62.2v-65.7c0-0.3,0-0.6,0-0.9c10.5,3.4,20.8,7.2,31,11.5c6.8,2.9,13.4,5.9,20,9.2v-5.1
	c0-19.9,7.2-38.1,19.1-52.3C586.6,113.6,524.5,99,459,99C221.5,99,29,291.5,29,529s192.5,430,430,430s430-192.5,430-430
	C889,504.1,886.9,479.7,882.8,456z M400,876.6c0,2.3-0.4,4.5-1.2,6.6l-4,10.3c-27.4-4.8-54-12.6-79.8-23.5
	c-44-18.6-83.6-45.3-117.6-79.3S136.7,717,118,673c-19.3-45.6-29-94-29-144c0-24.7,2.4-49,7.1-72.7l19.6,7.4
	c2.2,0.8,4.2,2.1,5.9,3.7l169.6,155.8c15.2,13.9,23.8,33.6,23.8,54.2v8c0,31.5,16.1,60.9,42.7,77.8l17.4,11.1
	c15.5,9.8,24.8,26.9,24.8,45.2V876.6z"/>
<g>
	<g>
		<path d="M941.9,162h-5.4c0-4.7,0-9.6,0-14.8c0-3.7,0-7.6,0-11.7c0-65.1-50.9-118-113.5-118c-62.6,0-113.5,52.9-113.5,118
			c0,9.6,0,18.5,0.1,26.5h-5.5c-5.3,0-10.4,1.4-14.7,3.8c-9.2,5.2-15.4,15-15.4,26.2v182.8c0,16.6,13.5,30.1,30.1,30.1h237.8
			c16.6,0,30.1-13.5,30.1-30.1V192.1C972,175.5,958.5,162,941.9,162z M833.5,300.2L837,359h-29l3.5-59.2
			C800.1,295.2,792,284,792,271c0-17.1,13.9-31,31-31s31,13.9,31,31C854,284.4,845.5,295.8,833.5,300.2z M897.5,162H748.6
			c-0.1-8.2-0.1-17.1-0.1-26.5c0-43.6,33.4-79,74.5-79s74.5,35.4,74.5,79c0,4.1,0,8,0,11.8C897.5,152.3,897.5,157.2,897.5,162z"/>
	</g>
</g>
</svg>
