<?xml version="1.0" encoding="utf-8"?>
<!-- Generator: Adobe Illustrator 21.0.2, SVG Export Plug-In . SVG Version: 6.00 Build 0)  -->
<svg version="1.1" id="Layer_1" xmlns="http://www.w3.org/2000/svg" xmlns:xlink="http://www.w3.org/1999/xlink" x="0px" y="0px"
	 viewBox="0 0 347 347" enable-background="new 0 0 347 347" xml:space="preserve">
<path d="M339.2,270.2v23.6L216.8,171.3c4.7-9,7-15.8,7-15.8L339.2,270.2z"/>
<path d="M339.2,321.2v20.6H273l-4.5-23.8l-24.9-5.7l-4.6-23.8l-24.8-5.7l-4.7-23.8l-24.7-5.7l-4.8-23.8l-24.5-5.7
	c0,0,25.9-9.5,43-26.6c2.8-2.8,5.5-5.9,7.8-9L339.2,321.2z"/>
<path d="M112,5.8C53.6,5.8,6.2,53.1,6.2,111.5C6.2,170,53.6,217.3,112,217.3c58.4,0,105.8-47.4,105.8-105.8
	C217.8,53.1,170.5,5.8,112,5.8z M79,111.5c-18.2,0-33-14.8-33-33c0-18.2,14.8-33,33-33c18.2,0,33,14.8,33,33
	C112,96.8,97.3,111.5,79,111.5z"/>
</svg>
