<?xml version="1.0" encoding="utf-8"?>
<!-- Generator: Adobe Illustrator 19.2.0, SVG Export Plug-In . SVG Version: 6.00 Build 0)  -->
<svg version="1.1" id="Layer_1" xmlns="http://www.w3.org/2000/svg" xmlns:xlink="http://www.w3.org/1999/xlink" x="0px" y="0px"
	 viewBox="0 0 512 512" style="enable-background:new 0 0 512 512;" xml:space="preserve">
<path d="M480,0H32C14.4,0,0,14.4,0,32v448c0,17.6,14.4,32,32,32h448c17.6,0,32-14.4,32-32V32C512,14.4,497.6,0,480,0z M383.2,190.7
	c0.1,2.8,0.2,5.6,0.2,8.5c0,86.8-66,186.8-186.8,186.8c-37.1,0-71.6-10.9-100.6-29.5c5.1,0.6,10.4,0.9,15.7,0.9
	c30.8,0,59.1-10.5,81.5-28.1c-28.7-0.5-53-19.5-61.3-45.6c4,0.8,8.1,1.2,12.4,1.2c6,0,11.8-0.8,17.3-2.3c-30-6-52.7-32.6-52.7-64.4
	c0-0.3,0-0.6,0-0.8c8.8,4.9,19,7.9,29.7,8.2c-17.6-11.7-29.2-31.8-29.2-54.6c0-12,3.2-23.3,8.9-33c32.4,39.7,80.7,65.8,135.3,68.6
	c-1.1-4.8-1.7-9.8-1.7-15c0-36.2,29.4-65.6,65.7-65.6c18.9,0,35.9,8,47.9,20.7c15-2.9,29-8.4,41.7-15.9
	c-4.9,15.3-15.3,28.2-28.9,36.3c13.3-1.6,25.9-5.1,37.7-10.3C407.2,169.9,396.1,181.5,383.2,190.7z"/>
</svg>
