<?xml version="1.0" encoding="utf-8"?>
<!-- Generator: Adobe Illustrator 19.1.0, SVG Export Plug-In . SVG Version: 6.00 Build 0)  -->
<svg version="1.1" id="Layer_1" xmlns="http://www.w3.org/2000/svg" xmlns:xlink="http://www.w3.org/1999/xlink" x="0px" y="0px"
	 viewBox="-484.5 0.5 512 512" style="enable-background:new -484.5 0.5 512 512;" xml:space="preserve">
<title>Alert icon</title>
<desc>Created with Sketch.</desc>
<path id="Oval-2_1_" d="M-228.9,32.3c30.3,0,59.6,5.9,87.2,17.6c26.7,11.3,50.6,27.4,71.2,48s36.7,44.5,48,71.2
	c11.7,27.6,17.6,56.9,17.6,87.2s-5.9,59.6-17.6,87.2c-11.3,26.7-27.4,50.6-48,71.2s-44.5,36.7-71.2,48
	c-27.6,11.7-56.9,17.6-87.2,17.6s-59.6-5.9-87.2-17.6c-26.7-11.3-50.6-27.4-71.2-48c-20.6-20.6-36.7-44.5-48-71.2
	c-11.7-27.6-17.6-56.9-17.6-87.2s5.9-59.6,17.6-87.2c11.3-26.7,27.4-50.6,48-71.2c20.6-20.6,44.5-36.7,71.2-48
	C-288.5,38.2-259.2,32.3-228.9,32.3 M-228.9,0.3c-141.4,0-256,114.6-256,256s114.6,256,256,256s256-114.6,256-256
	S-87.6,0.3-228.9,0.3L-228.9,0.3z"/>
<ellipse id="Oval-27" cx="-228.8" cy="381.6" rx="41.7" ry="41.7"/>
<path id="Path" d="M-206.3,287.8c-0.8,5.7-4.6,13.6-8.7,17.7l1.1-1.1c-8.1,8.1-21.3,8.1-29.4,0l1.1,1.1c-4-4-7.9-11.9-8.7-17.7
	c0,0-16.6-126.3-19.5-156.4c-2.8-18.2,16.5-41.7,41.7-41.7c25,0,44.5,23.4,41.7,41.7C-189.7,162.1-206.3,287.8-206.3,287.8z"/>
</svg>
