<?xml version="1.0" encoding="utf-8"?>
<!-- Generator: Adobe Illustrator 21.0.2, SVG Export Plug-In . SVG Version: 6.00 Build 0)  -->
<svg version="1.1" id="Layer_1" xmlns="http://www.w3.org/2000/svg" xmlns:xlink="http://www.w3.org/1999/xlink" x="0px" y="0px"
	 viewBox="0 0 21 34" style="enable-background:new 0 0 21 34;" xml:space="preserve">
<path d="M13.7,8.2c0.2-0.1,0.9-0.3,1.9-0.3h3.8c0.2,0,0.5-0.1,0.6-0.2c0.2-0.2,0.3-0.4,0.3-0.6V2.7c0-0.2-0.1-0.3-0.2-0.5
	C20,2,19.8,1.9,19.6,1.9c0,0-3.3-1.2-6.5-1.2c-2.9,0-5.1,0.9-6.5,2.6C5.4,4.8,4.8,6.8,4.8,9.5v2.2H2.2c-0.2,0-0.5,0.1-0.6,0.2
	c-0.2,0.2-0.3,0.4-0.3,0.6v5.5c0,0.2,0.1,0.4,0.3,0.6C1.8,18.9,2,19,2.2,19h2.5v13.5c0,0.2,0.1,0.4,0.3,0.6c0.2,0.2,0.4,0.3,0.6,0.3
	h6.8c0.2,0,0.5-0.1,0.6-0.3c0.2-0.2,0.3-0.4,0.3-0.6V19h4.8c0.2,0,0.4-0.1,0.6-0.2c0.1-0.1,0.3-0.3,0.3-0.5l1.1-5.5
	c0-0.1,0-0.2,0-0.4c0-0.1-0.1-0.2-0.2-0.3c-0.1-0.1-0.2-0.2-0.3-0.2c-0.1,0-0.2-0.1-0.4-0.1h-6V9.1C13.4,8.5,13.4,8.4,13.7,8.2z
	 M11.9,13.2c0.2,0.2,0.4,0.2,0.6,0.2h5.8l-0.8,3.8h-5c-0.2,0-0.5,0.1-0.6,0.3c-0.2,0.2-0.3,0.4-0.3,0.6v13.5H6.5V18.1
	c0-0.2-0.1-0.4-0.3-0.6c-0.2-0.2-0.4-0.3-0.6-0.3H3.1v-3.8h2.5c0.2,0,0.5-0.1,0.6-0.2c0.2-0.2,0.3-0.4,0.3-0.6V9.5
	c0-2.3,0.5-4,1.5-5.2c1.1-1.3,2.7-1.9,5.2-1.9c1.5,0,3.3,0.3,5.1,0.8l0.2,0v2.9h-2.9c-1.2,0-2.1,0.1-2.9,0.6
	c-0.7,0.4-1.1,1.3-1.1,2.3v3.5C11.6,12.8,11.7,13,11.9,13.2z"/>
</svg>
