<?xml version="1.0" encoding="utf-8"?>
<!-- Generator: Adobe Illustrator 21.0.2, SVG Export Plug-In . SVG Version: 6.00 Build 0)  -->
<svg version="1.1" id="Layer_1" xmlns="http://www.w3.org/2000/svg" xmlns:xlink="http://www.w3.org/1999/xlink" x="0px" y="0px"
	 viewBox="0 0 34 21" enable-background="new 0 0 34 21" xml:space="preserve">
<path d="M32.3,1.3c-0.4-0.4-0.9-0.6-1.5-0.6L3,0.8C2.5,0.8,1.9,1,1.5,1.5C1.2,1.8,0.9,2.4,0.9,2.9v15.3c0,0.5,0.2,1.1,0.6,1.5
	c0.2,0.2,0.5,0.4,0.8,0.5c0.2,0.1,0.5,0.1,0.7,0.1l27.8-0.1c0.6,0,1.1-0.2,1.5-0.6c0.4-0.4,0.6-0.9,0.6-1.5V2.8
	C32.9,2.2,32.7,1.7,32.3,1.3z M28.5,2.9l-11.6,8l-11.6-8H28.5z M3,3.9l9.1,6.3l-9,7L3,3.9z M5.1,18.2l8.9-6.9l2.4,1.6
	c0.1,0,0.1,0.1,0.2,0.1c0.3,0.1,0.7,0.1,1-0.1l2.4-1.7l8.9,6.8L5.1,18.2z M30.8,17.1l-9.1-7l9.1-6.3V17.1z"/>
</svg>
