<?xml version="1.0" encoding="utf-8"?>
<!-- Generator: Adobe Illustrator 19.2.0, SVG Export Plug-In . SVG Version: 6.00 Build 0)  -->
<svg version="1.1" id="Layer_2_2_" xmlns="http://www.w3.org/2000/svg" xmlns:xlink="http://www.w3.org/1999/xlink" x="0px" y="0px"
	 viewBox="0 0 512 512" style="enable-background:new 0 0 512 512;" xml:space="preserve">
<g>
	<rect x="-0.5" y="226.5" width="68" height="261"/>
	<path d="M497.1,292.1c12.7-14.5,13.4-57,14.9-78.3c-78.3,9.1-124.8-11.7-154.2-31.6c26-67.4,31.9-169.5-10.1-180.8
		c-36.1-9.7-47.7,31.5-57.3,59.7c-24.8,74.2-52.9,170-188.9,185.8v213.8c136,0,166,41.4,246.2,49.8c60.1,6.3,108-8.8,114.9-54.2
		l-0.2,0.3c11.7-20.6,16.4-60.8,19.6-82.7l-1,0.3c10.9-19.8,13.1-58.4,16.9-82.5L497.1,292.1z M468.9,299.6l2.5-0.3
		C470.6,299.4,469.7,299.5,468.9,299.6z"/>
</g>
</svg>
