<?xml version="1.0" encoding="utf-8"?>
<!-- Generator: Adobe Illustrator 21.0.2, SVG Export Plug-In . SVG Version: 6.00 Build 0)  -->
<svg version="1.1" id="Layer_1" xmlns="http://www.w3.org/2000/svg" xmlns:xlink="http://www.w3.org/1999/xlink" x="0px" y="0px"
	 viewBox="0 0 40 32" style="enable-background:new 0 0 40 32;" xml:space="preserve">
<path d="M37.1,1.3H3.2C2,1.3,1,2.2,1,3.5v17.4c0,1.2,1,2.2,2.2,2.2h9.2c0.3,0,0.6,0.1,0.9,0.2L25.9,31c0.4,0.2,0.8,0.3,1.2,0.3
	c0.4,0,0.8-0.1,1.1-0.3c0.7-0.4,1.1-1.1,1.1-1.9v-4.4c0-0.9,0.8-1.7,1.7-1.7h6.1c1.2,0,2.2-1,2.2-2.2V3.5
	C39.3,2.2,38.3,1.3,37.1,1.3z M37.3,20.8c0,0.1-0.1,0.2-0.2,0.2H31c-2,0-3.7,1.6-3.7,3.7v4.4c0,0.1-0.1,0.2-0.1,0.2c0,0-0.1,0-0.2,0
	l-12.6-7.7c-0.6-0.4-1.2-0.5-1.9-0.5H3.2C3.1,21.1,3,21,3,20.8V3.5c0-0.1,0.1-0.2,0.2-0.2h33.8c0.1,0,0.2,0.1,0.2,0.2V20.8z"/>
</svg>
