<?xml version="1.0" encoding="utf-8"?>
<!-- Generator: Adobe Illustrator 21.0.2, SVG Export Plug-In . SVG Version: 6.00 Build 0)  -->
<svg version="1.1" id="Layer_1" xmlns="http://www.w3.org/2000/svg" xmlns:xlink="http://www.w3.org/1999/xlink" x="0px" y="0px"
	 viewBox="0 0 19 33" style="enable-background:new 0 0 19 33;" xml:space="preserve">
<style type="text/css">
	.st0{display:none;}
</style>
<path class="st0" d="M12.7,26.8C12.7,26.7,12.7,26.7,12.7,26.8c-0.2-0.5-0.5-1-0.9-1.4s-0.8-0.7-1.3-0.9l0,0
	c-0.5-0.2-1.1-0.3-1.7-0.3c-0.6,0-1.1,0.1-1.7,0.3l0,0c-0.5,0.2-0.9,0.5-1.3,0.9l0,0l0,0c-0.4,0.4-0.7,0.8-0.9,1.3l0,0l0,0
	c-0.2,0.5-0.3,1.1-0.3,1.6c0,0.6,0.1,1.1,0.3,1.6l0,0l0,0c0.2,0.5,0.5,0.9,0.9,1.3l0,0l0,0c0.4,0.4,0.8,0.7,1.3,0.9l0,0
	c0.5,0.2,1.1,0.3,1.6,0.3s1.1-0.1,1.6-0.3c0,0,0,0,0.1,0c0.5-0.2,1-0.5,1.3-0.9s0.7-0.8,0.9-1.3s0.4-1.1,0.4-1.7
	C13,27.8,12.9,27.3,12.7,26.8z M9.7,29.2c-0.1,0.1-0.2,0.2-0.4,0.2l0,0l0,0c-0.1,0-0.3,0.1-0.5,0.1s-0.3,0-0.5-0.1l0,0l0,0
	c-0.1-0.1-0.2-0.1-0.4-0.2c-0.1-0.1-0.2-0.2-0.2-0.3l0,0l0,0c0-0.1-0.1-0.3-0.1-0.5s0-0.3,0.1-0.5l0,0c0.1-0.2,0.2-0.3,0.2-0.4
	c0.1-0.1,0.2-0.2,0.4-0.3l0,0c0.1,0,0.3-0.1,0.5-0.1s0.3,0,0.5,0.1l0,0c0.2,0.1,0.3,0.2,0.4,0.3c0.1,0.1,0.2,0.2,0.3,0.4l0,0l0,0
	c0,0.1,0.1,0.3,0.1,0.5s0,0.3-0.1,0.5C9.9,29,9.8,29.1,9.7,29.2z"/>
<path class="st0" d="M17.8,5.6L17.8,5.6c-0.5-1-1.1-1.9-1.9-2.5l0,0c-0.8-0.7-1.8-1.2-2.8-1.6l0,0C12,1.1,10.8,0.9,9.6,0.9
	C8.7,0.9,7.8,1,7,1.2l0,0C6.2,1.3,5.5,1.6,4.8,1.9l0,0c-0.6,0.3-1.3,0.6-1.9,1C2.4,3.3,1.8,3.7,1.3,4.1L0.4,5l0.7,1l1.1,1.7v0.1
	c0.2,0.4,0.5,0.7,0.9,0.9S3.9,9,4.3,9C5,9,5.5,8.8,5.8,8.5l0,0l0,0C6,8.4,6.3,8.2,6.6,8l0,0l0,0c0.3-0.2,0.6-0.3,1.1-0.5
	C8,7.4,8.5,7.3,9.2,7.3c0.4,0,0.7,0.1,1,0.2s0.6,0.2,0.8,0.4c0.2,0.1,0.3,0.3,0.4,0.5l0,0c0.1,0.2,0.2,0.4,0.2,0.7
	c0,0.6-0.1,1-0.3,1.2c-0.2,0.4-0.5,0.8-0.9,1.2s-0.8,0.7-1.3,1l0,0c-0.6,0.4-1.1,0.8-1.6,1.2l0,0l0,0c-0.5,0.5-1,1-1.3,1.6
	c-0.5,0.8-0.6,1.6-0.5,2.5l0,0L6,21.1l0.1,1.4h5.5l0.2-1.3l0.4-2.9l0,0c0-0.1,0-0.2,0.2-0.3c0.3-0.3,0.6-0.6,1-0.9l0,0
	c0.5-0.3,1-0.7,1.5-1.1l0,0l0,0c0.6-0.5,1.2-1,1.7-1.6c0.5-0.7,1-1.4,1.3-2.3l0,0c0.4-0.9,0.5-2,0.5-3.1C18.5,7.7,18.3,6.6,17.8,5.6
	z M15.2,10.9L15.2,10.9c-0.2,0.6-0.5,1.1-0.8,1.5c-0.4,0.4-0.8,0.8-1.2,1.2l0,0c-0.5,0.4-1,0.7-1.4,1.1l0,0c-0.5,0.4-1,0.8-1.4,1.2
	c-0.5,0.5-0.9,1.2-1,1.9l0,0L9,19.5H8.9l-0.2-1.9l0,0c0-0.4,0-0.5,0.1-0.7C9,16.6,9.2,16.3,9.5,16l0,0c0.4-0.3,0.8-0.7,1.3-1l0,0
	c0.6-0.4,1.2-0.9,1.7-1.4c0.6-0.5,1-1.1,1.4-1.8c0.5-0.8,0.7-1.7,0.7-2.7c0-0.7-0.1-1.4-0.4-2l0,0C13.9,6.5,13.5,6,13,5.5
	c-0.5-0.4-1.1-0.7-1.7-0.9c-0.6-0.2-1.3-0.3-2-0.3c-0.9,0-1.7,0.1-2.4,0.3C6.2,4.9,5.6,5.1,5.2,5.4l0,0C4.9,5.5,4.7,5.7,4.5,5.8
	L4.3,5.6c0.1-0.1,0.2-0.1,0.3-0.2C5,5.1,5.5,4.8,6,4.6l0,0c0.5-0.2,1-0.4,1.6-0.5l0,0c0.6-0.1,1.3-0.2,2-0.2c0.9,0,1.8,0.1,2.5,0.4
	l0,0l0,0c0.7,0.2,1.3,0.6,1.8,1l0,0c0.5,0.4,0.9,0.9,1.1,1.5l0,0c0.3,0.6,0.4,1.2,0.4,2C15.5,9.7,15.4,10.4,15.2,10.9z"/>
<g>
	<g>
		<path d="M12.8,26.8c-0.2-0.5-0.5-1-0.9-1.4c-0.4-0.4-0.9-0.7-1.4-0.9C9.4,24,8,24,7,24.5c-0.5,0.2-1,0.5-1.4,0.9
			c-0.4,0.4-0.7,0.9-0.9,1.4c-0.2,0.5-0.3,1.1-0.3,1.7c0,0.6,0.1,1.2,0.3,1.7c0.2,0.5,0.5,1,0.9,1.4C6,32,6.5,32.3,7,32.5
			c0.5,0.2,1.1,0.3,1.7,0.3s1.2-0.1,1.7-0.3c0.5-0.2,1-0.5,1.4-0.9c0.4-0.4,0.7-0.9,0.9-1.4c0.2-0.5,0.3-1.1,0.3-1.7
			C13.1,27.9,13,27.3,12.8,26.8z M11.2,29.5c-0.1,0.3-0.3,0.6-0.6,0.8c-0.2,0.2-0.5,0.4-0.9,0.6c-0.7,0.3-1.5,0.3-2.1,0
			c-0.3-0.1-0.6-0.3-0.8-0.6c-0.2-0.2-0.4-0.5-0.6-0.9c-0.1-0.3-0.2-0.7-0.2-1.1c0-0.4,0.1-0.7,0.2-1.1c0.1-0.3,0.3-0.6,0.6-0.8
			c0.2-0.2,0.5-0.4,0.8-0.6c0.3-0.1,0.7-0.2,1.1-0.2c0.4,0,0.7,0.1,1.1,0.2c0.3,0.1,0.6,0.3,0.9,0.6c0.2,0.2,0.4,0.5,0.6,0.8
			c0.1,0.3,0.2,0.7,0.2,1.1C11.4,28.9,11.4,29.2,11.2,29.5z"/>
		<path d="M18,5.3c-0.4-1-1-2-1.8-2.7c-0.8-0.7-1.8-1.3-2.9-1.7C12.2,0.5,11,0.2,9.7,0.2C8.7,0.2,7.8,0.3,7,0.5
			C6.2,0.7,5.4,1,4.7,1.3C4,1.6,3.3,1.9,2.7,2.4S1.5,3.2,1,3.7L0.5,4.1l2,3.3c0.4,0.8,1.1,1.2,2,1.2c0.4,0,0.8-0.1,1.2-0.4
			C5.9,8.1,6.2,8,6.5,7.8c0.3-0.2,0.6-0.3,1.1-0.5C8,7.2,8.5,7.1,9.1,7.1c0.7,0,1.2,0.2,1.6,0.5C11,8,11.2,8.5,11.2,9.1
			c0,0.6-0.1,1.1-0.4,1.5c-0.3,0.5-0.6,0.9-1,1.3C9.4,12.3,9,12.7,8.5,13c-0.6,0.4-1.1,0.8-1.5,1.3c-0.5,0.5-0.9,1.1-1.2,1.7
			c-0.3,0.7-0.4,1.4-0.3,2.3l0.5,4.2h5.7l0.7-3.7c0.1-0.3,0.2-0.6,0.4-0.8c0.3-0.3,0.7-0.7,1.1-1c0.5-0.4,1-0.8,1.5-1.2
			c0.6-0.5,1.1-1,1.5-1.7c0.5-0.7,0.9-1.4,1.2-2.3c0.3-0.9,0.5-1.9,0.5-3.1C18.6,7.5,18.4,6.3,18,5.3z M16.6,11.3
			c-0.3,0.7-0.6,1.3-0.9,1.9c-0.4,0.5-0.8,1-1.3,1.4c-0.5,0.4-1,0.8-1.4,1.2c-0.5,0.4-0.9,0.8-1.3,1.2c-0.4,0.5-0.7,1-0.9,1.6
			l-0.4,2.3H7.6l-0.4-2.8c-0.1-0.5,0-1,0.1-1.4c0.2-0.4,0.5-0.8,0.8-1.2c0.4-0.4,0.8-0.8,1.3-1.1c0.5-0.4,1.1-0.8,1.5-1.3
			c0.5-0.5,0.9-1,1.3-1.6c0.4-0.7,0.6-1.5,0.6-2.3c0-1.1-0.4-2-1-2.7c-0.7-0.7-1.6-1-2.7-1c-0.8,0-1.5,0.1-2,0.3
			c-0.5,0.2-1,0.4-1.4,0.6C5.3,6.5,5,6.7,4.8,6.9C4.7,6.9,4.6,7,4.5,7C4.2,7,4.1,6.9,3.9,6.6L2.6,4.5c0.3-0.3,0.7-0.5,1-0.7
			c0.5-0.4,1.1-0.7,1.7-1c0.6-0.3,1.3-0.5,2-0.6C8,2,8.8,1.9,9.7,1.9c1.2,0,2.2,0.2,3.1,0.5c0.9,0.3,1.7,0.8,2.3,1.4
			c0.6,0.6,1.1,1.3,1.4,2.1C16.8,6.7,17,7.7,17,8.7C17,9.7,16.9,10.6,16.6,11.3z"/>
	</g>
</g>
</svg>
