<?xml version="1.0" encoding="utf-8"?>
<!-- Generator: Adobe Illustrator 21.0.2, SVG Export Plug-In . SVG Version: 6.00 Build 0)  -->
<svg version="1.1" id="Layer_1" xmlns="http://www.w3.org/2000/svg" xmlns:xlink="http://www.w3.org/1999/xlink" x="0px" y="0px"
	 viewBox="0 0 1000 1000" enable-background="new 0 0 1000 1000" xml:space="preserve">
<path d="M501.5,28C244.4,28,36,236.4,36,493.5S244.4,959,501.5,959S967,750.6,967,493.5S758.6,28,501.5,28z M165.6,635.3
	c-19-44.9-28.6-92.6-28.6-141.8s9.6-97,28.6-141.9c18.4-43.4,44.7-82.4,78.2-115.9c33.5-33.5,72.5-59.8,115.9-78.2
	c44.9-19,92.6-28.6,141.8-28.6s97,9.6,141.8,28.6c30.2,12.8,58.3,29.4,83.9,49.7l-512,512C195,693.7,178.4,665.6,165.6,635.3z
	 M759.2,751.2c-33.5,33.5-72.5,59.8-115.9,78.2c-44.9,19-92.6,28.6-141.8,28.6s-97-9.6-141.8-28.6c-20.8-8.8-40.6-19.4-59.2-31.8
	l505.2-505.2c12.3,18.6,23,38.4,31.8,59.2c19,44.9,28.6,92.6,28.6,141.9s-9.6,97-28.6,141.8C819,678.7,792.7,717.7,759.2,751.2z"/>
</svg>
