<?xml version="1.0" encoding="utf-8"?>
<!-- Generator: Adobe Illustrator 17.1.0, SVG Export Plug-In . SVG Version: 6.00 Build 0)  -->
<!DOCTYPE svg PUBLIC "-//W3C//DTD SVG 1.1//EN" "http://www.w3.org/Graphics/SVG/1.1/DTD/svg11.dtd">
<svg version="1.1" id="Layer_1" xmlns="http://www.w3.org/2000/svg" xmlns:xlink="http://www.w3.org/1999/xlink" x="0px" y="0px"
	 viewBox="0 0 512 512" enable-background="new 0 0 512 512" xml:space="preserve">
<g>
	<path d="M425.8,0h-340C38.5,0,0,38.5,0,85.8v340C0,473.1,38.5,512,85.8,512h340c47.3,0,86.2-38.9,86.2-86.2v-340
		C512,38.5,473.1,0,425.8,0L425.8,0z M192,416h-64V192h64V416z M159.8,159.8c-17.7,0-32-14.3-32-32c0-17.7,14.3-32,32-32
		s32,14.3,32,32C191.8,145.5,177.5,159.8,159.8,159.8L159.8,159.8z M416,416h-64V287.8c0-17.7-14.3-32-32-32c-17.7,0-32,14.3-32,32
		V416h-64V192h64v39.5c13-18.1,33.4-39.7,56-39.7c39.8,0,72,35.8,72,80V416z M415.8,415.8"/>
</g>
</svg>
