<?xml version="1.0" encoding="utf-8"?>
<!-- Generator: Adobe Illustrator 21.0.2, SVG Export Plug-In . SVG Version: 6.00 Build 0)  -->
<svg version="1.1" id="_x33_1939bcc-d73b-485e-ad37-8831b9944a52"
	 xmlns="http://www.w3.org/2000/svg" xmlns:xlink="http://www.w3.org/1999/xlink" x="0px" y="0px" viewBox="0 0 356.1 501.1"
	 style="enable-background:new 0 0 356.1 501.1;" xml:space="preserve">
<title>BOT</title>
<path style="fill:#404373;" d="M329.8,253.8L329.8,253.8c-16.2-1.8-30.8,9.9-32.7,26.1l-5.7,50.9c-2.1,16.2,9.3,31,25.5,33.2
	c16.2,2.1,31-9.3,33.2-25.5c0-0.4,0.1-0.7,0.1-1.1l5.7-50.9C357.7,270.3,346,255.7,329.8,253.8z"/>
<path style="fill:#404373;" d="M64.6,330.8l-5.7-50.9c-2.1-16.2-16.9-27.6-33.1-25.5c-15.8,2-27.2,16.3-25.6,32.1l5.7,50.9
	c1.5,16.3,15.9,28.2,32.2,26.7s28.2-15.9,26.7-32.2C64.7,331.6,64.7,331.2,64.6,330.8L64.6,330.8z"/>
<linearGradient id="SVGID_1_" gradientUnits="userSpaceOnUse" x1="110.3717" y1="174.425" x2="403.5475" y2="174.425" gradientTransform="matrix(1 0 0 -1 -77.96 498.53)">
	<stop  offset="0" style="stop-color:#FF9797"/>
	<stop  offset="0.19" style="stop-color:#F56F6F"/>
	<stop  offset="0.5" style="stop-color:#EC5E5E"/>
	<stop  offset="0.64" style="stop-color:#F26868"/>
	<stop  offset="0.8" style="stop-color:#F56F6F"/>
	<stop  offset="0.83" style="stop-color:#F87979"/>
	<stop  offset="0.87" style="stop-color:#FC8A8A"/>
	<stop  offset="0.93" style="stop-color:#FE9494"/>
	<stop  offset="1" style="stop-color:#FF9797"/>
</linearGradient>
<path style="fill:url(#SVGID_1_);" d="M324.8,233.7c-2-48.5-42.3-86.5-90.8-86.5H42.4c-10,64.1-12.5,129.1-7.5,193.7c0.9,12,2.1,23.8,3.5,35.2
	C47,447.3,107.2,501,179,501l0,0c71.5,0,132.2-53.2,140.5-124.2c1.5-12.9,2.8-26.2,3.8-39.9C325.7,302.6,326.2,268.1,324.8,233.7z"
	/>
<ellipse style="opacity:0.3;fill:#F9BDBD;enable-background:new    ;" cx="178.5" cy="294.5" rx="136.9" ry="92.7"/>
<path style="fill:#F9BDBD;" d="M292.5,294.5c0-39.4-51.2-71.5-114-71.5s-114,32.1-114,71.5s51.2,71.5,114,71.5S292.5,333.9,292.5,294.5z"/>
<path style="fill:#404373;" d="M178.5,220.4c-64.3,0-116.6,33.2-116.6,74.1s52.3,74.1,116.6,74.1s116.6-33.2,116.6-74.1
	S242.8,220.4,178.5,220.4z M64.5,294.5c0-39.4,51.2-71.5,114-71.5s114,32.1,114,71.5s-51.2,71.5-114,71.5S64.4,333.9,64.5,294.5
	L64.5,294.5z"/>
<circle style="fill:#404373;" cx="124.9" cy="275.5" r="14"/>
<circle style="fill:#FFFFFF;" cx="124.9" cy="283.6" r="5.8"/>
<circle style="fill:#404373;" cx="228.7" cy="275.5" r="14"/>
<linearGradient id="SVGID_2_" gradientUnits="userSpaceOnUse" x1="222.15" y1="173.611" x2="297.77" y2="173.611" gradientTransform="matrix(1 0 0 -1 -77.96 498.53)">
	<stop  offset="0" style="stop-color:#FF9797"/>
	<stop  offset="0.16" style="stop-color:#F98484;stop-opacity:0.9"/>
	<stop  offset="0.5" style="stop-color:#EC5E5E;stop-opacity:0.7"/>
	<stop  offset="0.64" style="stop-color:#F37474;stop-opacity:0.82"/>
	<stop  offset="0.79" style="stop-color:#FA8787;stop-opacity:0.92"/>
	<stop  offset="0.91" style="stop-color:#FE9393;stop-opacity:0.98"/>
	<stop  offset="1" style="stop-color:#FF9797"/>
</linearGradient>
<path style="fill:url(#SVGID_2_);" d="M179.2,324.5c-12.4,0.1-24.6-3.4-35-10.2c5.6,15.3,19.4,25.9,34.7,26.8c18.6,1.1,36.4-12.5,40.9-32.5
	C216,312.1,201.3,324.2,179.2,324.5z"/>
<circle style="fill:#FFFFFF;" cx="229.3" cy="283.6" r="5.8"/>
<path style="fill:#404373;" d="M87.7,39.5c0-6.2-5-11.3-11.2-11.4c-6.2,0-11.3,5-11.4,11.2c0,5.1,3.3,9.5,8.2,10.9v96.9c0,1.4,1.2,2.6,2.6,2.6
	c1.4,0,2.6-1.2,2.6-2.6c0,0,0,0,0,0V50.6C83.8,49.6,87.6,45,87.7,39.5z"/>
<path style="opacity:0.2;fill:#404373;enable-background:new    ;" d="M156,224.8L78.7,329.1l8.4,10.3l89.1-116.6L156,224.8z"/>
<path style="opacity:0.2;fill:#404373;enable-background:new    ;" d="M203.4,224.3l-102,122.9l8.9,5.5l104.1-127.4L203.4,224.3z"/>
<circle style="fill:#F9BDBD;" cx="118.5" cy="367.4" r="3.1"/>
<circle style="fill:#F9BDBD;" cx="173.1" cy="378.5" r="3.1"/>
<circle style="fill:#F9BDBD;" cx="234.8" cy="370.5" r="3.1"/>
<circle style="fill:#F9BDBD;" cx="281.9" cy="341.2" r="3.1"/>
<circle style="fill:#F9BDBD;" cx="303.8" cy="290.8" r="3.1"/>
<circle style="fill:#F9BDBD;" cx="281.9" cy="244.4" r="3.1"/>
<circle style="fill:#F9BDBD;" cx="225.6" cy="216.9" r="3.1"/>
<circle style="fill:#F9BDBD;" cx="162.6" cy="210.6" r="3.1"/>
<circle style="fill:#F9BDBD;" cx="110.9" cy="224.1" r="3.1"/>
<circle style="fill:#F9BDBD;" cx="66.4" cy="253.6" r="3.1"/>
<circle style="fill:#F9BDBD;" cx="52.5" cy="300.8" r="3.1"/>
<circle style="fill:#F9BDBD;" cx="72.7" cy="339.6" r="3.1"/>
<path style="fill:#FF9A9A;" d="M42.4,147.2c-3.1,20.1-5.9,42.4-7.7,66.8c7.8,2.9,17.8-2.1,19.6-10.3c4.5,1.4,9.3-0.7,11.3-5
	c0.8-1.8,1.1-4,2.6-5.3c1.3-1,3-1,4.6-1.2c7.1-1,13.1-6.1,15.2-13c0.5-1.6,0.8-3.4,1.9-4.7c1-1,2.2-1.8,3.4-2.5
	c3.5-2.4,5.5-6.4,5.3-10.7c4.5,0.6,8.9-2.4,11.4-6.1c1.5-2.5,2.7-5.2,3.4-8.1L42.4,147.2z"/>
<path style="fill:#FF9797;" d="M258.2,150.5c-1.4,4.9,0.5,13.4,0.6,13.8c3.6,15.6,16,25.2,24.1,30.9c8.8,6.1,18.9,10.1,29.5,11.5
	c0.4,0,0.8,0,1.2-0.1c2.1-0.1,3.9-0.2,5.6-0.4C309,179,286.3,158.3,258.2,150.5z"/>
<path style="fill:#FF9A9A;" d="M258.2,150.5c-1.4,4.9,0.5,13.4,0.6,13.8c3.6,15.6,16,25.2,24.1,30.9c8.8,6.1,18.9,10.1,29.5,11.5
	c0.4,0,0.8,0,1.2-0.1c2.1-0.1,3.9-0.2,5.6-0.4C309,179,286.3,158.3,258.2,150.5z"/>
<path style="fill:#FF9797;" d="M112.4,471.4c-0.9-18.4-13.1-31.9-21.2-40c-8.7-8.7-19.4-15.2-31.1-19c-0.5-0.1-1-0.1-1.4-0.2
	c-4.8-0.5-8.5-0.9-11.4-1.1c12.2,31,34.9,56.7,64.2,72.7C112.3,479.8,112.6,475.6,112.4,471.4z"/>
<path style="fill:#FF9A9A;" d="M112.4,471.4c-0.9-18.4-13.1-31.9-21.2-40c-8.7-8.7-19.4-15.2-31.1-19c-0.5-0.1-1-0.1-1.4-0.2
	c-4.8-0.5-8.5-0.9-11.4-1.1c12.2,31,34.9,56.7,64.2,72.7C112.3,479.8,112.6,475.6,112.4,471.4z"/>
<path style="fill:#FF9797;" d="M294.5,415.8c-15.6,3.6-25.2,16-30.9,24.1c-6.1,8.8-10.1,18.9-11.5,29.5c0,0.4,0,0.8,0.1,1.2
	c0.3,4.1,0.5,7.3,0.8,9.8c25.1-15.2,44.8-37.9,56.3-64.9C304.6,413.5,295,415.6,294.5,415.8z"/>
<path style="fill:#FF9A9A;" d="M294.5,415.8c-15.6,3.6-25.2,16-30.9,24.1c-6.1,8.8-10.1,18.9-11.5,29.5c0,0.4,0,0.8,0.1,1.2
	c0.3,4.1,0.5,7.3,0.8,9.8c25.1-15.2,44.8-37.9,56.3-64.9C304.6,413.5,295,415.6,294.5,415.8z"/>
<circle style="opacity:0.12;fill:#FFFFFF;enable-background:new    ;" cx="239.5" cy="317" r="13.2"/>
<circle style="opacity:0.12;fill:#FFFFFF;enable-background:new    ;" cx="120.1" cy="317" r="13.2"/>
<path style="fill:#404373;" d="M62,20.2l-7.7-4.8c-1.2-0.8-2.8-0.4-3.6,0.8s-0.4,2.8,0.8,3.6l0,0l7.7,4.8c1.2,0.8,2.8,0.4,3.6-0.8
	C63.6,22.5,63.3,20.9,62,20.2z"/>
<path style="fill:#404373;" d="M99.9,16.2c-0.8-1.2-2.4-1.6-3.6-0.8l-7.7,4.8l0,0c-1.2,0.8-1.6,2.4-0.8,3.6s2.4,1.6,3.6,0.8l7.7-4.8
	C100.3,19,100.6,17.4,99.9,16.2z"/>
<path style="fill:#404373;" d="M75.8,0c-1.4,0-2.6,1.2-2.6,2.6c0,0,0,0,0,0v13.6c0,1.4,1.2,2.6,2.6,2.6c1.4,0,2.6-1.2,2.6-2.6V2.6
	C78.4,1.2,77.3,0,75.8,0z"/>
</svg>
