<svg xmlns="http://www.w3.org/2000/svg" viewBox="0 0 512 512">
  <path fill="#131718" d="M139.3 205h.4c.7 0 1.3-.5 1.5-1.1l1.4-5.7c.2-.8-.3-1.6-1.1-1.8-.8-.2-1.6.3-1.8 1.1l-1.4 5.7c-.3.8.2 1.6 1 1.8zm-3.5 14.3h.4c.7 0 1.3-.5 1.5-1.1l1.4-5.7c.2-.8-.3-1.6-1.1-1.8-.8-.2-1.6.3-1.8 1.1l-1.4 5.7c-.3.8.2 1.6 1 1.8zm5.7-10.7c-.2.8.3 1.6 1.1 1.8l5.7 1.4h.4c.7 0 1.3-.5 1.5-1.1.2-.8-.3-1.6-1.1-1.8l-5.7-1.4c-.9-.2-1.7.3-1.9 1.1zm-13.2-1.8l5.7 1.4h.4c.7 0 1.3-.5 1.5-1.1.2-.8-.3-1.6-1.1-1.8l-5.7-1.4c-.8-.2-1.6.3-1.8 1.1-.3.8.2 1.6 1 1.8z"/>
  <path fill="#FEC96E" d="M236.8 228.8c-5.2-9.3-9.4-19-12.5-29.1-2.3-7.7-21.8-76.3 12.8-102.5 2.2-1.7 4.6-3.1 7-4.3-.5.1-1 .2-1.4.3-8.6 1.8-28 5.8-38.5 19-22.2 27.7 5.1 82.2 16 103.9 3.6 7.2 7.3 13.6 10.7 19l1.4-.9c1.6-1.7 3.1-3.5 4.5-5.4z"/>
  <path fill="#333" d="M392.3 370.6c-5.5 3.6-11.4 6.7-17.5 9.3-1.3.5-1.9 2-1.3 3.3.4 1 1.3 1.5 2.3 1.5.3 0 .7-.1 1-.2 6.4-2.7 12.5-6 18.3-9.7 1.2-.8 1.5-2.3.7-3.5-.8-1.1-2.3-1.5-3.5-.7zm-30.9 17.1c-.5-1.3-1.9-1.9-3.2-1.4-40.2 15.4-87.2 12-129-9.3-1.2-.6-2.7-.1-3.4 1.1s-.1 2.7 1.1 3.4c25.2 12.9 52.3 19.4 78.8 19.4 18.7 0 37.1-3.3 54.3-9.9 1.2-.5 1.9-2 1.4-3.3zm17.2 13.5c-9.8 5.8-20.8 9.7-32.6 11.6-1.4.2-2.3 1.5-2.1 2.9.2 1.2 1.3 2.1 2.5 2.1h.4c12.4-2.1 24-6.2 34.3-12.3 1.2-.7 1.6-2.2.9-3.4-.7-1.2-2.2-1.6-3.4-.9zM188.2 97l15.6 6.2c.2.1.5.1.7.1.8 0 1.6-.5 1.9-1.3.4-1-.1-2.2-1.1-2.6l-15.6-6.2c-1-.4-2.2.1-2.6 1.1-.4 1.1.1 2.3 1.1 2.7zm25.9-3.3c.3.8 1.1 1.2 1.8 1.2.3 0 .5-.1.8-.2 1-.4 1.5-1.6 1-2.6l-3.7-8.5c-.4-1-1.6-1.5-2.6-1-1 .4-1.5 1.6-1 2.6l3.7 8.5z"/>
  <path fill="#FFF" d="M329.5 271.7l-4.6-3.9c-9-7.6-16.1-17-20.7-27.3-1 1.3-2.1 2.6-3.1 3.8-.2.3-.5.5-.9.7-5.4 2.4-13.5 5-23.3 5-2.2 0-4.5-.1-6.9-.4-12.1-1.5-21.2-6.6-26.7-10.6l-.6-.6c-1.1-1.6-2.1-3.2-3.1-4.8-6.8 8.6-15.7 15.9-25.9 21L209 257c12 9 31.5 20.2 57.8 23.5 26.7 3.3 48.7-2.9 62.7-8.8z"/>
  <path fill="#FFF" d="M277.9 286.3c-3.8-.1-7.8-.4-11.8-.9-28-3.5-48.6-15.6-61-25.1-.4-.3-.6-.7-.8-1.1l-33.8 17.1c3.8 10.2 7.6 20.5 11.2 30.9l50.7 6c8.5-9.1 28.5-19.2 45.5-26.9z"/>
  <path fill="#1AC3F4" d="M381.2 315.5L333.4 275c-.3.4-.6.7-1 .9-11.7 5.1-29.2 10.5-50.4 10.5-1.3 0-2.7 0-4-.1-17.1 7.7-37.1 17.8-45.5 26.8-3 3.2-4.5 6.3-4 9.1 1.3 6.3 13.5 10 42.6 12.8 30.2 3 72.6 4.6 125.4-1.8l-.1-.1c-4-6.6-9.1-12.5-15.2-17.6z"/>
  <path fill="#FFF" d="M222 145.3c13.3-11.4 26.2-16.7 38.5-16 4.1.3 7.8 1.1 11.6 2.1 6.2 1.5 12.7 3.1 21.8 2.1 5.8-.6 11.5-2.1 17-4.5.4-.3 1-.6 1.6-.5h.3c.9.1 1.7.6 2.1 1.5.3.7.3 1.4 0 2 0 4.3.8 8 2.5 11.1 1.8 3.2 4.2 5 7.2 7.2 3.2 2.3 6.8 4.9 10.3 9.7.7 1 1.4 2 2.1 3.1 5.3-19.7 7.3-41.4-4.1-52.4-3.6-3.5-8.4-5.8-14.5-6.9-.4-.1-.8-.3-1.2-.5-3.4-2.8-7.1-5.2-11.1-7.1-10.6-5.2-20.6-5.2-25.9-5.2-7.3 0-26.5 0-40.1 10.2-13 9.9-17.5 27-18.1 44.1z"/>
  <path fill="#FFF" d="M246.5 235.1c5.1 3.6 13.2 8.1 24 9.4 11.5 1.4 20.9-1.3 27-4 9.5-11.3 17.7-23.8 24.2-37 1.5-3.1 8.2-17.1 13.3-33.6v-.1c-1.1-2.5-2.5-4.8-4.1-6.9-3.1-4.2-6.2-6.4-9.2-8.6-3.3-2.4-6.4-4.6-8.7-8.9-1.7-3.1-2.7-6.7-3-10.7-5.1 1.9-10.3 3.2-15.6 3.7-10 1.1-17.2-.7-23.5-2.2-3.7-.9-7.1-1.7-10.8-2-11.9-.8-24.8 5.2-38.3 17.7.4 23.1 6.7 44.6 7.2 46.2 4 13.1 9.9 25.5 17.5 37zm-14.2-.9l-1.4.9-43.6 27.1 24-12.1c8-4.1 15.2-9.5 21-15.9zm95.8 29.7l20.6 17.4-37.3-37.7c4.1 7.6 9.8 14.5 16.7 20.3z"/>
  <path fill="#333" d="M384.4 311.7l-35.8-30.3L328 264c-6.8-5.8-12.5-12.7-16.7-20.3-1.2-2.1-2.3-4.3-3.2-6.5-.2-.4-.4-.7-.7-.9 7.2-9.5 13.5-19.7 18.8-30.4 6-12.3 34.9-74.8 10.3-98.7-4.2-4-9.7-6.8-16.4-8.1-3.6-2.9-7.5-5.4-11.6-7.4C296.6 86 286 86 280.2 86c-6.6 0-22.3 0-36.1 6.9-2.4 1.2-4.8 2.7-7 4.3-34.6 26.1-15.1 94.7-12.8 102.5 3 10.1 7.2 19.8 12.5 29.1-1.4 1.9-2.9 3.7-4.5 5.4-5.8 6.4-13 11.8-20.9 15.8l-24 12.1-18.5 9.4c.6 1.6 1.2 3.1 1.8 4.7l33.8-17.1c.2.4.4.8.8 1.1 12.4 9.5 33 21.6 61 25.1 4 .5 8 .8 11.8.9 1.4 0 2.7.1 4 .1 21.2 0 38.7-5.4 50.4-10.5.4-.2.8-.5 1-.9l47.8 40.5c6 5.1 11.2 11 15.2 17.6l.1.1c.5.7 1.2 1.1 2 1.1.4 0 .9-.1 1.3-.4 1.2-.7 1.5-2.3.8-3.4-4.3-6.9-9.8-13.3-16.3-18.7zM280.2 91c5.3 0 15.3 0 26.1 5.2 4 1.9 7.7 4.3 11.1 7.1.3.3.7.5 1.2.5 6 1.1 10.9 3.4 14.5 6.9 11.4 11 9.4 32.7 4.1 52.4-.7-1.1-1.3-2.1-2.1-3.1-3.6-4.8-7.1-7.4-10.3-9.7-3.1-2.2-5.5-4-7.2-7.2-1.7-3.1-2.5-6.8-2.5-11.1.3-.6.3-1.3 0-2-.4-.9-1.2-1.4-2.1-1.5h-.3c-.6 0-1.1.2-1.6.5-5.5 2.4-11.2 3.9-17 4.5-9.1 1-15.6-.6-21.8-2.1-3.9-.9-7.5-1.8-11.6-2.1-12.3-.8-25.3 4.6-38.5 16 .6-17.2 5.1-34.3 18.1-44.1C253.7 91 272.9 91 280.2 91zm-20 43.4c3.7.2 7.1 1.1 10.8 2 6.3 1.5 13.5 3.3 23.5 2.2 5.3-.6 10.5-1.8 15.6-3.7.3 4 1.3 7.6 3 10.7 2.3 4.2 5.4 6.5 8.7 8.9 3 2.2 6.1 4.4 9.2 8.6 1.6 2.1 3 4.5 4.1 6.9v.1c-5.1 16.5-11.8 30.5-13.3 33.6-6.5 13.3-14.7 25.7-24.2 37-6.1 2.6-15.6 5.4-27 4-10.8-1.3-19-5.8-24-9.4-7.6-11.5-13.5-23.9-17.4-36.9-.5-1.6-6.8-23-7.2-46.2 13.4-12.6 26.3-18.6 38.2-17.8zm-51.3 122.5l4.7-2.4c10.2-5.2 19.1-12.4 25.9-21 1 1.6 2 3.2 3.1 4.8.2.2.4.5.6.6 5.5 4 14.6 9.2 26.7 10.6 2.4.3 4.7.4 6.9.4 9.8 0 17.9-2.6 23.3-5 .3-.2.6-.4.9-.7 1.1-1.3 2.1-2.5 3.1-3.8 4.6 10.3 11.7 19.7 20.7 27.3l4.6 3.9c-14 6-36 12.1-62.7 8.7-26.3-3.2-45.8-14.4-57.8-23.4zM409 110.7c-1.1-.9-2.6-.7-3.5.3-.9 1.1-.7 2.6.3 3.5 48 40.1 68 104.8 51 164.9-.4 1.3.4 2.7 1.7 3.1.2.1.5.1.7.1 1.1 0 2.1-.7 2.4-1.8 17.6-62-3.1-128.8-52.6-170.1zm-46.8-22c10 3.9 19.6 8.9 28.6 14.7.4.3.9.4 1.4.4.8 0 1.6-.4 2.1-1.1.8-1.2.4-2.7-.7-3.5-9.2-6-19.1-11.1-29.5-15.2-1.3-.5-2.7.1-3.2 1.4-.6 1.3.1 2.8 1.3 3.3z"/>
  <path fill="#FFF" d="M46.3 279.4c-2.3.8-4.1 2.3-5.1 4.5-1.5 2.9-.8 5.7-.5 6.7 2.5 5.1 4.6 10.5 6.3 15.9 1 3.3 2 6.7 2.7 10.1l16.4-5.5L50 279c-1.2-.1-2.5 0-3.7.4zM163 267.5c-.8-2.5-4.1-10.5-13-15-6.2-3.1-13.2-3.6-19.7-1.4l-75.2 25.2c2.9 1.5 5.1 4.1 6.2 7.2 10.8 26.1 20.6 53 29.4 79.9 5.8 18 11.3 36.3 16.2 54.6 1.1-7.5 3.7-19 6.7-28.1 13.9-42.1 50.7-80.2 65.5-73.7.6.2 1.2.6 1.8 1.1-5.6-16.6-11.6-33.3-17.9-49.8zm-72.8 41.2l56.6-19 1.3 3.8-56.6 19-1.3-3.8zm8.2 24.4l-1.3-3.8 38.6-13 1.3 3.8-38.6 13z"/>
  <path fill="#FEC96E" d="M113.7 390c-3 9.2-5.7 20.6-6.7 28.1.2.9.5 1.8.7 2.6l10.3-18.5 22.4 9.9 11.5-21.4 21.3 9.7 9.7-20 21 8.7c-6.2-21-12.9-42.2-19.9-62.9-1-2.9-2-5.9-3-8.8-.6-.5-1.3-.8-1.8-1.1-14.8-6.5-51.6 31.6-65.5 73.7z"/>
  <path fill="#010101" d="M168.8 271.5c-.7-1.8-1.3-3.6-2-5.3-.9-2.7-4.7-12.1-15-17.2-7.1-3.5-15.2-4.1-22.8-1.6l-81 27.2.1.4c-1.1.1-2.1.3-3.2.6-3.3 1.1-5.9 3.4-7.4 6.5-2.1 4.3-1.2 8.3-.7 9.9l.1.2c2.4 5 4.5 10.2 6.1 15.5 1.2 3.9 2.3 7.9 3.1 11.9l.4 2.2 20.9-7-1.3-3.8-.3.1-16.4 5.5c-.8-3.4-1.7-6.8-2.7-10.1-1.7-5.4-3.8-10.8-6.3-15.9-.3-.9-1-3.8.5-6.7 1.1-2.1 2.9-3.7 5.1-4.5 1.2-.4 2.4-.5 3.7-.4 1.1.1 2.1.4 3.1.9 2.1 1.1 3.7 2.9 4.5 5.1v.1C68 311.2 77.9 338 86.6 364.7c6.6 20.3 12.7 41.1 18.2 61.8l1.3 4.8 13.4-24 22.5 9.9 11.5-21.4 21.4 9.8 9.8-20.1 25.2 10.4-1.2-4c-6.5-22.4-13.6-45-21.1-67.1-2-5.9-4.1-11.8-6.1-17.7-3.6-10.3-7.4-20.7-11.2-30.9-.3-1.5-.9-3.1-1.5-4.7zm15.3 54.6c7 20.7 13.7 41.9 19.9 62.9l-21-8.7-9.7 20-21.3-9.7-11.5 21.4-22.4-9.9-10.3 18.5c-.2-.9-.5-1.8-.7-2.6-4.9-18.3-10.4-36.6-16.2-54.6-8.7-26.9-18.6-53.7-29.4-79.9-1.1-3.1-3.3-5.7-6.2-7.2l75.2-25.2c6.5-2.2 13.5-1.7 19.7 1.4 8.9 4.4 12.2 12.5 13 15 6.3 16.4 12.3 33.1 18.1 49.8.8 3 1.8 5.9 2.8 8.8z"/>
  <rect width="4" height="59.7" x="117.1" y="271.2" fill="#010101" transform="rotate(71.44 119.118 301.108)"/>
  <rect width="4" height="40.7" x="115" y="304.4" fill="#010101" transform="rotate(-108.56 117.023 324.71)"/>
</svg>
