<svg xmlns="http://www.w3.org/2000/svg" viewBox="0 0 512 512">
  <path fill="none" d="M255.6 193.9l2.1-11.9c1-5.8 4.3-10.8 9.1-14.2 4.8-3.3 10.6-4.6 16.3-3.6 1.9.1 3.9.3 5.8.4l56.3-49.5-2.2-16.6-268.5 36 22.7 169.3c.2 1.8 1.9 3 3.7 2.8l31.3-4.2 123.4-108.5zm5.7-53.7c1.4-.3 2.8.5 3.2 2l2.4 10.3c.3 1.4-.5 2.8-2 3.2-.2 0-.4.1-.6.1-1.2 0-2.3-.8-2.6-2l-2.4-10.3c-.3-1.6.6-3 2-3.3zm-29.9 8.5c.8-1.2 2.4-1.6 3.6-.9l16.3 10.1c1.2.8 1.6 2.4.9 3.6-.5.8-1.4 1.3-2.3 1.3-.5 0-1-.1-1.4-.4l-16.3-10.1c-1.2-.7-1.6-2.4-.8-3.6z"/>
  <path fill="#FDCC6B" d="M352.8 171.7l-7.6-56.7-56.3 49.5c21.4 1.5 42.7 3.9 63.9 7.2zm-70.5 110.6l-4.1-6.7-14.4-2.6c-5.8-1-10.8-4.3-14.2-9.1-3.4-4.8-4.6-10.7-3.6-16.5l9.6-53.6-123.4 108.6 150.1-20.1z"/>
  <rect width="13" height="287.6" x="200.7" y="-39" fill="#FFF" transform="rotate(82.368 207.203 104.826)"/>
  <path fill="#FFF" d="M453.6 200.1c-.1 0-.2 0-.3-.1-17.7-5.4-35.9-10.1-53.9-14.1-38.2-8.5-77.5-14.1-116.8-16.5h-.3c-9.1-1.6-17.8 4.4-19.4 13.5l-11.8 65.5c-.8 4.4.2 8.9 2.7 12.5 2.6 3.7 6.4 6.1 10.8 6.9l15.6 2.8c.7.1 1.4.6 1.8 1.2l15.7 25.5 26.6-18.5c.4-.3.9-.5 1.4-.5 1.5 0 3-.1 4.5-.1 8.4 0 16.9.6 25.2 1.9 6.3.9 11.9 2.1 27.8 6.6 1.9-7.7 20.5-25.1 83.4-64.9l.4-2.4c.3-1.6.9-7.2-2.7-12.5-3.5-5.1-9-6.5-10.7-6.8zm-172.2 39.4c-1.4-.3-2.4-1.6-2.1-3.1.3-1.4 1.6-2.4 3.1-2.1l48.8 8.8c1.4.3 2.4 1.6 2.1 3.1-.2 1.3-1.3 2.2-2.6 2.2h-.5l-48.8-8.9zm93.6-22.2c-.2 1.3-1.3 2.2-2.6 2.2h-.5l-84.2-15.1c-1.4-.3-2.4-1.6-2.1-3.1.3-1.4 1.6-2.4 3.1-2.1l84.2 15.1c1.4.2 2.4 1.6 2.1 3zm39.7 7.2c-.2 1.3-1.3 2.2-2.6 2.2h-.5l-23.1-4.1c-1.4-.3-2.4-1.6-2.1-3.1s1.6-2.4 3.1-2.1l23.1 4.1c1.4.2 2.4 1.5 2.1 3z"/>
  <path fill="#1AC3F4" d="M383.3 286.8c.3.1.6.2.8.2 28.4 7.9 37.7 9.2 45.2 10.1 2.2.3 4.3.6 6.6 1 4.4.8 8.9-.2 12.5-2.7 3.7-2.6 6.1-6.4 6.9-10.8l11.3-62.7c-62.7 39.8-81.3 57.2-83.3 64.9z"/>
  <path fill="#333" d="M412.6 221.4l-23.1-4.1c-1.4-.3-2.8.7-3.1 2.1s.7 2.8 2.1 3.1l23.1 4.1h.5c1.3 0 2.4-.9 2.6-2.2.3-1.4-.7-2.7-2.1-3zm-39.7-7.1l-84.2-15.1c-1.4-.3-2.8.7-3.1 2.1-.3 1.4.7 2.8 2.1 3.1l84.2 15.1h.5c1.3 0 2.4-.9 2.6-2.2.3-1.4-.7-2.8-2.1-3zm-42.2 34c1.3 0 2.4-.9 2.6-2.2.3-1.4-.7-2.8-2.1-3.1l-48.8-8.8c-1.4-.3-2.8.7-3.1 2.1-.3 1.4.7 2.8 2.1 3.1l48.8 8.8c.2.1.3.1.5.1zm-98.5-96l16.3 10.1c.4.3.9.4 1.4.4.9 0 1.8-.4 2.3-1.3.8-1.2.4-2.9-.9-3.6L235 147.8c-1.2-.8-2.9-.4-3.6.9s-.4 2.9.8 3.6zm29.6 1.4c.3 1.2 1.4 2 2.6 2 .2 0 .4 0 .6-.1 1.4-.3 2.3-1.8 2-3.2l-2.4-10.3c-.3-1.4-1.8-2.3-3.2-2-1.4.3-2.3 1.8-2 3.2l2.4 10.4z"/>
  <path fill="#333" d="M468.8 204c-4.6-6.6-11.2-8.5-14-9.1-17.8-5.4-36-10.2-54.2-14.2-14-3.1-28.1-5.8-42.3-8.2l-10-74.8 5.7-.8c.7-.1 1.3-.5 1.7-1 .4-.6.6-1.3.5-2L353.8 76c-.2-1.4-1.5-2.5-3-2.3L60.5 112.6c-.7.1-1.3.5-1.7 1s-.6 1.3-.5 2l2.4 18.1c.2 1.3 1.3 2.3 2.6 2.3h.4l5.7-.8 22.7 169.3c.6 4.3 4.2 7.4 8.5 7.4.4 0 .8 0 1.1-.1L230 294.7l11.9 88.8-46.3 49.1c-1 1.1-1 2.7.1 3.7.5.5 1.2.7 1.8.7.7 0 1.4-.3 1.9-.8l43.4-45.9 5.7 42.4c.2 1.3 1.3 2.3 2.6 2.3h.4c1.4-.2 2.5-1.5 2.3-3l-5.7-42.6 54.2 33.1c.4.3.9.4 1.4.4.9 0 1.8-.4 2.3-1.3.8-1.2.4-2.9-.9-3.6l-57.8-35.3-12.1-88.7 50.1-6.7 9.4 15.3c.4.6 1 1.1 1.7 1.2.2 0 .4.1.5.1.5 0 1.1-.2 1.5-.5l28.2-19.6c9.4-.2 18.8.4 28 1.8 6.3.9 11.6 2.1 28 6.7 28.7 8 38.3 9.3 46 10.3 2.2.3 4.2.5 6.4.9 5.8 1 11.6-.2 16.5-3.6 4.8-3.4 8.1-8.4 9.1-14.2l11.7-65c.6-2.9 1.2-9.9-3.5-16.7zm-1.6 15.6l-.4 2.4-11.3 62.7c-.8 4.4-3.2 8.2-6.9 10.8-3.7 2.6-8.1 3.5-12.5 2.7-2.3-.4-4.4-.7-6.6-1-7.5-1-16.9-2.2-45.2-10.1-.3-.1-.6-.2-.8-.2-15.9-4.4-21.5-5.6-27.8-6.6-8.3-1.3-16.8-1.9-25.2-1.9-1.5 0-3 0-4.5.1-.5 0-1 .2-1.4.5L298 297.5 282.3 272c-.4-.6-1-1.1-1.8-1.2l-15.6-2.8c-4.4-.8-8.2-3.2-10.8-6.9-2.6-3.7-3.5-8.1-2.7-12.5l11.8-65.5c1.6-9.1 10.3-15.2 19.4-13.5h.3c39.3 2.4 78.5 8 116.8 16.5 18.1 4 36.2 8.8 53.9 14.1.1 0 .2.1.3.1 1.6.3 7.1 1.6 10.8 6.9 3.4 5.1 2.8 10.8 2.5 12.4zM348.9 79.3l1.7 12.9-285.1 38.1-1.7-12.9 285.1-38.1zM100.8 306.6c-1.8.2-3.4-1-3.7-2.8L74.5 134.5l268.5-36 2.2 16.5 7.6 56.7c-21.2-3.3-42.5-5.7-63.9-7.2-1.9-.1-3.9-.3-5.8-.4-5.7-1-11.5.3-16.3 3.6-4.8 3.4-8.1 8.4-9.1 14.2l-2.1 11.9-9.6 53.6c-1 5.8.2 11.6 3.6 16.5 3.4 4.8 8.4 8.1 14.2 9.1l14.4 2.6 4.1 6.7-150.2 20.1-31.3 4.2z"/>
  <path fill="#131718" d="M154.5 398.4c-11.1 1.7-22.2 1.5-33.2-.5-1.4-.3-2.8.7-3.1 2.1-.3 1.4.7 2.8 2.1 3.1 6.2 1.1 12.5 1.7 18.8 1.7 5.4 0 10.7-.4 16.1-1.2 1.4-.2 2.4-1.6 2.2-3-.1-1.4-1.4-2.4-2.9-2.2zm-49.3.6c1.1 0 2.1-.7 2.5-1.8.5-1.4-.2-2.9-1.6-3.4-23.4-8.3-42.9-24.8-54.8-46.5-.7-1.3-2.3-1.7-3.6-1-1.3.7-1.7 2.3-1 3.6 12.5 22.9 33 40.2 57.7 48.9.3.2.6.2.8.2zm-58.6-61.5c-.8-1.9-1.5-3.8-2.2-5.8-.5-1.4-2-2.1-3.4-1.6s-2.1 2-1.6 3.4c.7 2 1.5 4.1 2.3 6.1.4 1 1.4 1.6 2.4 1.6.3 0 .7-.1 1-.2 1.4-.6 2.1-2.1 1.5-3.5zm85.3 85c-7.8 0-15.5-1.1-22.9-3.1-8.7-2.3-17-5.9-24.7-10.8-1.2-.8-2.9-.4-3.6.8-.8 1.2-.4 2.9.8 3.6 8.1 5.1 16.9 8.9 26.1 11.4 7.9 2.1 16.1 3.2 24.3 3.3 1.5 0 2.6-1.2 2.6-2.6.1-1.4-1.1-2.6-2.6-2.6zm283.3-293.9h.4c.7 0 1.4-.5 1.5-1.2l1.5-6c.2-.8-.3-1.7-1.2-1.9-.8-.2-1.7.3-1.9 1.2l-1.5 6c-.2.9.3 1.7 1.2 1.9zm-3.8 15.1h.4c.7 0 1.4-.5 1.5-1.2l1.5-6c.2-.8-.3-1.7-1.2-1.9-.8-.2-1.7.3-1.9 1.2l-1.5 6c-.1.8.4 1.7 1.2 1.9zm6-11.4c-.2.8.3 1.7 1.2 1.9l6 1.5h.4c.7 0 1.4-.5 1.5-1.2.2-.8-.3-1.7-1.2-1.9l-6-1.5c-.8-.1-1.7.4-1.9 1.2zm-13.9-1.8l6 1.5h.4c.7 0 1.4-.5 1.5-1.2.2-.8-.3-1.7-1.2-1.9l-6-1.5c-.8-.2-1.7.3-1.9 1.2-.2.9.3 1.7 1.2 1.9z"/>
</svg>
