<svg xmlns="http://www.w3.org/2000/svg" viewBox="0 0 512 512">
  <path fill="none" d="M243.4 129.1l-24.2-15c-8.7-5.4-19.9-3.8-26.8 3.8l-14.6 17.4c21.5 1.1 42.9-1.9 65.6-6.2zm74.2 45.8l-20.3-12.5c2.9 10.2 5.8 20.4 8.8 30.6l11.5-18.1zM99.8 228.2l2.4.7-.3-3.2-2.1 2.5z"/>
  <path fill="#333" d="M341.7 376.4c-5.7 3.3-11.7 6.1-17.9 8.4-1.2.5-1.9 1.8-1.4 3.1.4 1 1.3 1.6 2.3 1.6.3 0 .6 0 .8-.1 6.5-2.4 12.7-5.3 18.6-8.8 1.1-.7 1.5-2.1.9-3.3-.7-1.2-2.1-1.6-3.3-.9zm-15.1 29.8c-10 5.3-21.1 8.7-33 10-1.3.2-2.3 1.3-2.1 2.7.1 1.2 1.2 2.1 2.4 2.1h.3c12.4-1.5 24.1-5 34.6-10.6 1.2-.6 1.6-2.1 1-3.2-.6-1.2-2-1.6-3.2-1zm43.8-287.4c-1-.9-2.5-.8-3.4.1-.9 1-.8 2.5.1 3.4 45.8 42.1 62.7 107.4 43 166.3-.4 1.3.3 2.6 1.5 3 .3.1.5.1.8.1 1 0 1.9-.6 2.3-1.6 20.3-60.6 2.9-127.9-44.3-171.3zM325 94.6c9.8 4.4 19.1 9.8 27.7 16 .4.3.9.5 1.4.5.7 0 1.5-.3 2-1 .8-1.1.5-2.6-.5-3.4-8.9-6.4-18.5-11.9-28.6-16.5-1.2-.5-2.6 0-3.2 1.2-.5 1.3 0 2.7 1.2 3.2z"/>
  <path fill="#1AC3F4" d="M102.2 228.9l33 9.7c-2.3-7-4.4-14-6.4-21-5.1-18.1-9.4-36.9-12.3-54.3-2.1-12.4-3.7-24.9-4.9-37.4-3.6 14.6-7.3 34-9 57-.8 9.9-1.6 21.8-1 35.9.1 2.3.2 4.6.4 7 0 1 .1 2 .2 3.1z"/>
  <path fill="#FFF" d="M232.3 267.1l3-4.6c6.7-10.3 19.9-14.5 31.3-10l1.2.5 34.9-54.7c-7.1-24-13.9-48.3-20.5-72.3-4.7 1.1-9.4 2.1-14.1 3.1-43.7 9-81.5 16.7-122.5 6.4-9.9-2.5-19.7-6-29.3-10.4 1.2 12.5 2.8 25.1 4.9 37.4 2.9 17.2 7.1 35.8 12.2 53.8 2.3 8 4.7 16 7.4 24l91.5 26.8zm19.4-63.8c.1 1.3-.9 2.5-2.2 2.6l-96.2 8.5h-.2c-1.2 0-2.3-.9-2.4-2.2-.1-1.3.9-2.5 2.2-2.6l96.2-8.5c1.3-.1 2.4.8 2.6 2.2zm-101.4-22.9l68-5c1.3-.1 2.5.9 2.6 2.2.1 1.3-.9 2.5-2.2 2.6l-68 5h-.2c-1.2 0-2.3-1-2.4-2.2-.1-1.3.9-2.5 2.2-2.6z"/>
  <polygon fill="#FFF" points="347.2 284.5 319.3 181.2 272.4 254.9"/>
  <path fill="#FFF" d="M227.7 274.1l1.8-2.8-130.3-38.2 50.3 161.2 48-73.8c11.4-21.2 21.4-36.2 30.2-46.4zm-48 82.7l-26.5 40.7-1.8 2.7 3.6 11.7 1.6-.9c2.8-6.9 5.5-13.6 8.1-19.9 5.2-12.5 10.2-23.9 15-34.3z"/>
  <path fill="#FDCC6B" d="M264.8 257c-9.3-3.7-20-.3-25.5 8.1l-59.6 91.6c-4.8 10.4-9.8 21.8-15 34.3l-8.1 19.9 195-110.3-2.8-10.4-84-33.2zm-37.1 17.1c-8.8 10.2-18.8 25.2-30.2 46.4l30.2-46.4z"/>
  <path fill="#333" d="M150.5 185.2h.2l68-5c1.3-.1 2.3-1.2 2.2-2.6-.1-1.3-1.2-2.3-2.6-2.2l-68 5c-1.3.1-2.3 1.2-2.2 2.6.1 1.3 1.2 2.2 2.4 2.2z"/>
  <path fill="#333" d="M349.3 273.6l-26.7-98.8-.4-1.9c-.1-.6-.5-1.2-1.1-1.5l-25.7-15.8c-3.1-11-6.2-22-9.2-33-.3-1.2-1.6-2-2.9-1.7-5.3 1.3-10.8 2.5-16.2 3.6-5.7 1.2-11.2 2.3-16.7 3.4L221.7 110c-10.6-6.6-24.5-4.6-32.9 4.7l-17 20.3c-8.3-.7-16.6-2-25.1-4.1-10.9-2.7-21.7-6.7-32.2-11.9-.8-.4-1.7-.3-2.4.2s-1.1 1.3-1 2.2c.1 1.5.3 3 .4 4.6 1.2 12.5 2.8 25.1 4.9 37.4 2.9 17.4 7.2 36.1 12.3 54.3 2 7 4.1 14 6.4 21l-33-9.7-2.4-.7 2.1-2.5c-.2-2.4-.3-4.7-.4-7l-7.7 9.2c-.1.1-.1.1-.1.2-.1.1-.1.1-.1.2-.1.1-.1.2-.1.3 0 .1-.1.2-.1.2v.6c0 .2 0 .4.1.6l53 169.8c0 .4.1.9.4 1.3l4.7 14.9c0 .2.1.3.2.5s.2.3.4.5l.1.1c.1.1.2.2.3.2.1 0 .1.1.2.1s.1.1.2.1.1 0 .2.1h.2c.2 0 .4.1.6.1.2 0 .4 0 .6-.1.2-.1.4-.1.6-.2L202 391c19.5 7.5 39.8 11.3 59.8 11.3 16 0 31.9-2.5 46.9-7.5 1.3-.4 1.9-1.8 1.5-3-.4-1.3-1.8-1.9-3-1.5-31.5 10.5-66.7 9.4-99.8-2.4L355.6 304c1-.5 1.4-1.7 1.1-2.7l-7.4-27.7zm-2.1 10.9l-74.9-29.7 47-73.7 27.9 103.4zm-29.6-109.6l-11.5 18c-3-10.2-5.9-20.4-8.8-30.6l20.3 12.6zm-125.2-57c6.8-7.6 18.1-9.2 26.8-3.8l24.2 15c-22.7 4.3-44.1 7.3-65.6 6.3l14.6-17.5zm-59 98.4c-5.1-18-9.3-36.6-12.2-53.8-2.1-12.4-3.7-24.9-4.9-37.4 9.6 4.5 19.4 8 29.3 10.4 41 10.3 78.8 2.5 122.5-6.4 4.7-1 9.4-2 14.1-3.1 6.6 24.1 13.5 48.3 20.5 72.3L267.8 253l-1.2-.5c-11.4-4.5-24.6-.3-31.3 10l-3 4.6-91.5-26.9c-2.7-7.9-5.1-15.9-7.4-23.9zm16.2 178L99.2 233.1l130.3 38.3-1.8 2.8-30.2 46.4-47.9 73.7zm7 16.8l-1.6.9-3.6-11.7 1.8-2.7 26.5-40.7 59.6-91.6c5.5-8.4 16.2-11.8 25.5-8.1l84 33.3 2.8 10.4-195 110.2z"/>
  <path fill="#333" d="M150.7 212.2c.1 1.3 1.2 2.2 2.4 2.2h.2l96.2-8.5c1.3-.1 2.3-1.3 2.2-2.6s-1.3-2.3-2.6-2.2l-96.2 8.5c-1.3.1-2.3 1.3-2.2 2.6zm-47.6-99c.7 0 1.3-.3 1.8-.8.9-1 .8-2.5-.2-3.4L92.9 98.4c-1-.9-2.5-.8-3.4.2-.9 1-.8 2.5.2 3.4l11.8 10.6c.5.4 1 .6 1.6.6zm11.6-6.5h.1c1.3-.1 2.3-1.2 2.3-2.5l-.5-8.7c-.1-1.3-1.2-2.4-2.5-2.3-1.3.1-2.3 1.2-2.3 2.5l.5 8.7c0 1.3 1.1 2.3 2.4 2.3z"/>
  <path fill="#131718" d="M397.4 336.7c-.8-.2-1.6.3-1.7 1.1l-1.4 5.5c-.2.8.3 1.6 1.1 1.7h.3c.6 0 1.2-.4 1.4-1.1l1.4-5.5c.2-.7-.3-1.5-1.1-1.7zm-3.3 13.7c-.8-.2-1.6.3-1.7 1.1L391 357c-.2.8.3 1.6 1.1 1.7h.3c.6 0 1.2-.4 1.4-1.1l1.4-5.5c.1-.7-.4-1.5-1.1-1.7zm10.6-1.7l-5.5-1.4c-.8-.2-1.6.3-1.7 1.1-.2.8.3 1.6 1.1 1.7l5.5 1.4h.3c.6 0 1.2-.4 1.4-1.1.1-.7-.3-1.5-1.1-1.7zM392 347c.2-.8-.3-1.6-1.1-1.7l-5.5-1.4c-.8-.2-1.6.3-1.7 1.1-.2.8.3 1.6 1.1 1.7l5.5 1.4h.3c.7 0 1.2-.4 1.4-1.1z"/>
</svg>
