<svg xmlns="http://www.w3.org/2000/svg" viewBox="0 0 512 512">
  <path fill="none" d="M282.5 232c14.7 1.3 27.6-9.5 29-24.2 1.3-14.6-9.5-27.6-24.2-29-.8-.1-1.6-.1-2.4-.1-13.6 0-25.3 10.4-26.5 24.3-1.4 14.7 9.4 27.7 24.1 29zm-4.7-36.3c.2-1.8 2-2.7 3.3-1.7l15.2 11.6c1.3 1 1.1 3.2-.4 4l-17.1 8.7c-1.5.8-3.1-.5-3-2.3l2-20.3zm-162 78.8l-2.5 27.6c-.5 5.8 3.8 11 9.6 11.5L425 340.8c5.8.5 11-3.8 11.5-9.6l2.5-27.6-323.2-29.1zm166.7 34.9c-.3 3.8-3.7 6.6-7.5 6.3s-6.6-3.7-6.3-7.5 3.7-6.6 7.5-6.3c3.8.3 6.6 3.7 6.3 7.5z"/>
  <path fill="none" d="M155.3 273c34.9-.7 79-5.9 127.3-22.4 87.1-29.8 143.4-81.2 171.1-110.8l.7-7.4c.3-2.8-.6-5.6-2.4-7.7-1.8-2.2-4.4-3.5-7.2-3.8L142.7 93.7c-2.8-.2-5.6.6-7.7 2.4-2.2 1.8-3.5 4.4-3.8 7.2l-14.9 166.2 39 3.5zm99-70.3c1.5-16.9 16.5-29.4 33.4-27.9s29.4 16.5 27.9 33.4c-1.4 16-14.9 28-30.6 28-.9 0-1.8 0-2.8-.1-16.9-1.6-29.5-16.6-27.9-33.4zm-8.2 127.1c-1.6 9.4-8.5 17.3-18.5 21l-11.8 4.3 85.8-14.5c-.4-1.9-.7-3.9-.6-5.9l-54.9-4.9z"/>
  <path fill="#131718" d="M85.6 342.1l2.6-5.5c.4-.8 0-1.7-.7-2-.8-.4-1.7 0-2 .7l-2.6 5.5c-.4.8 0 1.7.7 2 .2.1.4.1.7.1.5 0 1-.3 1.3-.8zm-4.7 6.2c-.8-.4-1.7 0-2 .7l-2.6 5.5c-.4.8 0 1.7.7 2 .2.1.4.1.7.1.6 0 1.1-.3 1.4-.9l2.6-5.5c.3-.7 0-1.6-.8-1.9zm11.6.4l-5.5-2.6c-.8-.4-1.7 0-2 .7-.4.8 0 1.7.7 2l5.5 2.6c.2.1.4.1.7.1.6 0 1.1-.3 1.4-.9.3-.6 0-1.5-.8-1.9zm-14.4-3.6c.6 0 1.1-.3 1.4-.9.4-.8 0-1.7-.7-2l-5.5-2.6c-.8-.4-1.7 0-2 .7-.4.8 0 1.7.7 2l5.5 2.6c.2.1.4.2.6.2z"/>
  <path fill="#333" d="M474.2 92.4c-1-.4-2.2.1-2.6 1.1l-6.3 15.9c-.4 1 .1 2.2 1.1 2.6.2.1.5.1.8.1.8 0 1.6-.5 1.9-1.3l6.3-15.9c.4-.9-.1-2-1.2-2.5zm12 24.8c-.4-1-1.6-1.5-2.7-1.1l-8.7 3.7c-1 .4-1.5 1.6-1.1 2.7.3.8 1.1 1.2 1.9 1.2.3 0 .5-.1.8-.2l8.7-3.7c1.1-.3 1.5-1.5 1.1-2.6zM53.7 276.8c-.1-1.4-1.4-2.4-2.8-2.3-1.4.1-2.4 1.4-2.3 2.8.6 6.7 1.8 13.4 3.5 19.9.3 1.1 1.3 1.9 2.5 1.9.2 0 .4 0 .7-.1 1.4-.4 2.2-1.8 1.8-3.1-1.7-6.3-2.8-12.6-3.4-19.1zm42.7-137.4c-33.3 33.3-51 77.2-48.7 120.4.1 1.4 1.2 2.4 2.5 2.4h.1c1.4-.1 2.5-1.3 2.4-2.7-2.2-41.7 15-84.2 47.3-116.5 1-1 1-2.6 0-3.6s-2.6-1-3.6 0zM31.8 240.3c.2-1.4-.7-2.7-2.1-2.9-1.4-.2-2.7.7-2.9 2.1-1.8 12.1-1.5 24.1 1.1 35.5.3 1.2 1.3 2 2.5 2 .2 0 .4 0 .6-.1 1.4-.3 2.2-1.7 1.9-3-2.5-10.8-2.8-22.1-1.1-33.6zm258 144.6c-51.4 32.4-117.2 31.5-167.7-2.2-1.2-.8-2.7-.5-3.5.7-.8 1.2-.5 2.7.7 3.5 26.7 17.8 57.5 26.7 88.3 26.7 29.5 0 59-8.2 84.9-24.5 1.2-.7 1.5-2.3.8-3.5-.7-1.1-2.3-1.5-3.5-.7z"/>
  <path fill="#FEC96E" d="M202.8 359.8c-1.9.7-3.2 2.2-3.3 3.8l-.1 1.5 141.2 12.7.1-1.5c.2-1.7-.8-3.3-2.6-4.4l-22.8-13.3c-7.3-4.3-12.2-10.8-13.9-18l-85.8 14.5-12.8 4.7z"/>
  <circle cx="275.6" cy="308.8" r="6.9"/>
  <path fill="#20C4F4" d="M282.6 250.6c-48.3 16.5-92.4 21.7-127.3 22.4l284.1 25.6 14.3-158.7c-27.7 29.4-83.9 80.9-171.1 110.7z"/>
  <path fill="#333" d="M445.2 115.8L143.1 88.6c-4.2-.4-8.2.9-11.5 3.6s-5.2 6.5-5.6 10.6l-17.9 198.8c-.8 8.6 5.6 16.3 14.2 17L241 329.4c-1.4 7.4-7.1 13.7-15.2 16.7l-24.8 9c-3.8 1.4-6.3 4.5-6.6 8.2l-.4 4c-.1 1.4.9 2.6 2.3 2.8l146.2 13.2h.2c.6 0 1.2-.2 1.6-.6.5-.4.8-1.1.9-1.7l.4-4c.3-3.7-1.6-7.2-5.1-9.2l-13.6-7.9c1.2-1.4 2.4-2.7 3.5-4.1.9-1.1.7-2.7-.3-3.6-1.1-.9-2.7-.7-3.6.3-1.3 1.6-2.7 3.2-4.1 4.8l-4.7-2.8c-7.5-4.4-11.9-11.6-12-19.1l118.6 10.7c.5 0 .9.1 1.4.1 8 0 14.9-6.1 15.6-14.3l2.7-30.1 15.2-168.7c.4-4.2-.9-8.2-3.6-11.5-2.4-3.5-6.2-5.4-10.4-5.8zm-314-12.5c.3-2.8 1.6-5.4 3.8-7.2 2.2-1.8 4.9-2.7 7.7-2.4l302.1 27.2c2.8.3 5.4 1.6 7.2 3.8 1.8 2.2 2.7 4.9 2.4 7.7l-.7 7.4-14.3 158.7L155.3 273l-39.1-3.5 15-166.2zm170.3 237.3c1.7 7.3 6.6 13.8 13.9 18l22.8 13.3c1.7 1 2.7 2.7 2.6 4.4l-.1 1.5-141.2-12.7.1-1.5c.2-1.7 1.4-3.1 3.3-3.8l12.9-4.7 11.8-4.3c10-3.7 17-11.6 18.5-21l54.7 4.9c0 2 .2 4 .7 5.9zm135-9.4c-.5 5.8-5.7 10.1-11.5 9.6l-302.1-27.2c-5.8-.5-10.1-5.7-9.6-11.5l2.5-27.6L439 303.6l-2.5 27.6z"/>
  <path fill="#333" d="M278.9 218.2l17.1-8.7c1.5-.8 1.7-3 .4-4L281.1 194c-1.3-1-3.2-.1-3.3 1.7L276 216c-.2 1.7 1.4 3 2.9 2.2z"/>
  <path fill="#333" d="M282.1 236c.9.1 1.9.1 2.8.1 15.7 0 29.2-12 30.6-28 1.5-16.9-11-31.9-27.9-33.4s-31.9 11-33.4 27.9 11.1 31.9 27.9 33.4zm-23.8-33c1.2-13.8 12.9-24.3 26.5-24.3.8 0 1.6 0 2.4.1 14.6 1.3 25.5 14.3 24.2 29-1.3 14.6-14.3 25.5-29 24.2-14.6-1.3-25.4-14.3-24.1-29z"/>
</svg>
