<svg xmlns="http://www.w3.org/2000/svg" viewBox="256 -80 1024 639"><path fill="#E4E6FE" d="M1250.6 372.6c-2.6-76.1-146.2-71.4-205.9-200.3C1008.6 94.4 1039.4 46 988-8.8 956.9-42 903.3-69.5 847.6-65.5 725.3-56.7 674.3 98.3 599 78.7c-37-9.6-34.2-49.5-95.2-72.4-16.5-6.2-58.9-22.1-100.9-2.2-49.3 23.4-62.1 81.5-62.8 85.2-15.4 74.9 49.7 117.4 24.3 175.5-8.8 20.3-16.6 14.8-41.2 52.6-18.6 28.6-39.8 61.3-37.8 91.2 1.7 25.7 20.6 50.2 50.2 69.8-11.6-7.9-21.6-16.6-29.5-25.8l49.5.2c-.1-.1-.1-.3-.1-.5V449c0-.6.4-1 1-1s1 .4 1 1v3.4c0 .2-.1.3-.1.5h1.9c-.1-.1-.1-.3-.1-.5V450c0-.6.4-1 1-1s1 .4 1 1v2.4c0 .2-.1.4-.2.5l52.9.2c-.9-12.8-5.8-40-29.5-48.1 0 0 33.8 5.4 40.6 38.2 3.8-16 8.9-43.3 4.5-58.4 0 0 7.7 21 8.9 43.5 4.4-9.3 11.8-18.1 24.1-20.7 0 0-17.4 15-20.5 44 2.2.4 4.3 1 6.2 1.6l13.9.1c-.3-.2-.6-.5-.6-.9V449c0-.6.4-1 1-1s1 .4 1 1v3.4c0 .4-.2.7-.6.9h2.7c-.3-.2-.6-.5-.6-.9V450c0-.6.4-1 1-1s1 .4 1 1v2.4c0 .4-.2.7-.6.9l45.6.2c-10.4-6.8-17.2-18.6-17.2-32V157.3c0-8 6.5-14.5 14.5-14.5h207.6c2.8 0 5 .7 6.9 1.7h.2c4.5 2.5 7.5 7.2 7.5 12.7v85.6-1.4h148.2c17.7 0 33 10.3 40.1 25.3 2.5 4.5 4 9.4 4.3 14.4.9 16.8 1.2 66.1 1.2 86.6l92.2-1.7c5-.1 9.2 4 9.2 9v30.7c0 24.3-17.1 44.6-39.8 49.5l58.1.2c-2.3-6.6-6.6-13.3-14.8-16.1 0 0 15.3 2.5 21.6 16.2h3.3c1.8-9.1 3.4-20.8 1.3-27.9 0 0 4.5 12.2 5.2 25.3 2.6-5.4 6.8-10.5 14-12.1 0 0-5.8 5-9.4 14.7l104.8.4c0-.1-.1-.2-.1-.4v-3.4c0-.6.4-1 1-1s1 .4 1 1v3.4c0 .1 0 .3-.1.4h1.7c0-.1-.1-.2-.1-.4v-2.4c0-.6.4-1 1-1s1 .4 1 1v2.4c0 .1 0 .3-.1.4l18.4.1v1.1c-39.3 29.9-85.4 48.9-89.1 50.3-3.4 1.3-7.1 2.8-11.5 4.2-87.6 28.5-148.4 9.2-232.1 6.8-132.9-3.8-153.2 44-240.6 14.2-24-8.2-37.9-18.1-57.6-23.2 24.8 7.6 36.5 16.6 57.6 25.3 81.1 33.3 110.1-17.9 240.6-14.2 83.7 2.4 144.4 21.8 232.1-6.8 4.4-1.4 8.1-2.9 11.5-4.2 6.3-2.6 147.6-60.9 145-136.9z"/><path fill="#8ABEFB" d="M935.2 436.5c.1-.1 0-.1 0-.2v.2z"/><path fill="#53AEF7" d="M531 453.5c-10.4-6.8-17.4-18.6-17.4-32V157.3c0-8 6.5-14.5 14.5-14.5h-18.9c-8 0-14.5 6.5-14.5 14.5v264.1c0 13.4 6.9 25.1 17.2 32l19.1.1z"/><path fill="#8ABEFB" d="M513.6 157.3v264.1c0 13.4 6.9 25.2 17.4 32l166.4.6c-5.1-4-11.1-10.3-13-19.2-3.6-16.3 0-292.1 0-292.1H528.1c-8 .1-14.5 6.6-14.5 14.6zM651 230.7c6 0 10.8 4.8 10.8 10.8s-4.8 10.8-10.8 10.8-10.8-4.8-10.8-10.8 4.8-10.8 10.8-10.8zm-64.4 58.2h45.9c3 0 5.5 2.5 5.5 5.5s-2.5 5.5-5.5 5.5h-45.9c-3 0-5.5-2.5-5.5-5.5s2.4-5.5 5.5-5.5zm-23.1-58.2c6 0 10.8 4.8 10.8 10.8s-4.8 10.8-10.8 10.8-10.8-4.8-10.8-10.8 4.9-10.8 10.8-10.8z"/><path fill="#444" d="M818.6 442.8c-3.8 4.5-8.9 8.6-15.7 11.7h3.4c5.2-3 9.2-7.1 12.3-11.7z"/><path fill="#8ABEFB" d="M867.8 243.1c3-.6 6.2-1 9.5-1.1 19.6 2.1 35.1 12 42.3 24.8-7.2-14.9-22.4-25.3-40.1-25.3h-5.2 1.2s-3.4.4-7.7 1.6z"/><path fill="#50ADF7" d="M877.4 242c-3.4.1-6.6.5-9.5 1.1-4.7 1.2-10.6 3.2-14.6 6.4-5.4 4.2-14.8 12.4-19.9 24.8 9.9-1 40.5-1.7 44.9 29v106.4l.1-.4s-.4 45.4 29.7 45.5l-29.8-.1v.1l86.2.3c-11.7-2.7-21.9-9.4-29-18.6h-.2v-.2s0-.1-.1-.1c-6.4-8.5-10.2-19.1-10.2-30.5v-11.4c-.3-6.8-.2-12.3 0-15.2v-11.3h.1c0-20.4-.2-69.8-1.2-86.6-.3-5-1.8-9.9-4.3-14.4-7.1-12.9-22.6-22.7-42.2-24.8z"/><path fill="#434080" d="M730.6 412.7c.6 3.8 4.9 27.7 26.4 40.1.9.5 1.9 1 2.8 1.5l43.1.2c6.8-3.1 11.9-7.2 15.7-11.7 11.7-14 11-31.7 11.1-33.6v-1.3c.1-10.7 0-83.8 0-110.8v-4.9c0-6.8 1.4-12.8 3.6-18 5.1-12.4 14.5-20.6 19.9-24.8 4-3.1 9.9-5.2 14.6-6.4 4.3-1.1 7.6-1.5 7.6-1.5H731.2v1.4L731 256c-.1 52.3-.3 104.5-.4 156.7z"/><path fill="#50ADF7" d="M684.3 434.9c2 8.8 8 15.2 13 19.2l62.5.2c-.9-.5-1.9-1-2.8-1.5-21.5-12.4-25.8-36.3-26.4-40.1.1-52.2.3-104.5.4-156.7l.3-98.7s-.9-8.8-7.5-12.7h-.2c-1.8-1.1-4.1-1.7-6.9-1.7h-32.5c.1-.1-3.6 275.7.1 292z"/><path fill="#434080" d="M925 379v26.6c0 11.5 3.8 22 10.2 30.5.1.1.2.2.2.3 7.1 9.2 17.3 16 29 18.6l22.1.1c22.8-5 39.8-25.3 39.8-49.5V375c0-5-4.1-9.1-9.2-9l-92.2 1.7h-.1V379h.2z"/><path fill="#8ABEFB" d="M908 454.8c-30.1-.1-29.7-45.5-29.7-45.5l-.1.4V303.2c-4.4-30.7-35-30-44.9-29-2.2 5.2-3.6 11.2-3.6 18v4.9l.1 109.2s0 .6-.1 1.6v1.3c-.1 1.9.6 19.7-11.1 33.6-3.1 4.5-7.2 8.7-12.3 11.7l71.9.3v-.1l29.8.1z"/><path fill="#B6D7FC" d="M1054.8 455.4h-3.3c.8 1.8 1.5 3.8 2 6.1.4-1.8.9-3.8 1.3-6.1z"/><path fill="#B6D7FC" d="M861.9 518.3c83.7 2.4 144.4 21.8 232.1-6.8 4.4-1.4 8.1-2.9 11.5-4.2 3.6-1.5 49.8-20.5 89.1-50.3v-1l-18.4-.1c-.2.4-.5.6-.9.6s-.8-.3-.9-.6h-1.7c-.1.4-.5.6-.9.6s-.8-.3-.9-.6l-104.8-.4c-1.2 3.1-2.1 6.8-2.5 10.9 4.4.9 8.3 2.4 9.7 4.1l-34.3 1.1s3.8-2.5 8.4-4.3c-.2-3-.8-7.4-2.3-11.9l-58.1-.2-22.1-.1-86.2-.3-71.9-.3h-3.4l-43.1-.2-62.5-.2-166.8-.6-19-.1-45.6-.2c-.1.1-.3.1-.4.1-.2 0-.3 0-.4-.1h-2.7c-.1.1-.3.1-.4.1-.2 0-.3 0-.4-.1l-13.9-.1c4.9 1.5 8.8 3.4 10.5 5.5l-59.1 1.9s6.6-4.3 14.4-7.4v-.1l-52.9-.2c-.2.3-.5.5-.8.5-.4 0-.7-.2-.9-.5h-1.9c-.2.3-.5.5-.9.5s-.7-.2-.9-.5l-49.5-.2c7.9 9.2 17.9 17.9 29.5 25.8 19.3 13.2 43.1 24.2 69.5 32.1 1.6.2 3.7.5 6.1.7 1.8.2 3.8.4 5.9.6 59.1 5.4 88.1-6.8 123.1-5.6 8.9.3 16.5 1.5 23.4 3.2 19.7 5.1 33.6 15 57.6 23.2 87.5 29.7 107.7-18 240.6-14.3zm243.3-46.7c0-.6.4-1 1-1s1 .4 1 1v2.4c0 .6-.4 1-1 1s-1-.4-1-1v-2.4zm-3.6-1c0-.6.4-1 1-1s1 .4 1 1v3.4c0 .6-.4 1-1 1s-1-.4-1-1v-3.4zm-33.3 34.4c0-.6.4-1 1-1s1 .4 1 1v2.4c0 .6-.4 1-1 1s-1-.4-1-1V505zm-3.5-1c0-.6.4-1 1-1s1 .4 1 1v3.4c0 .6-.4 1-1 1s-1-.4-1-1V504zm-432.1-28.4c0 .6-.4 1-1 1s-1-.4-1-1v-3.4c0-.6.4-1 1-1s1 .4 1 1v3.4zm3.6 0c0 .6-.4 1-1 1s-1-.4-1-1v-2.4c0-.6.4-1 1-1s1 .4 1 1v2.4zm112.9 21.2c0 .6-.4 1-1 1s-1-.4-1-1v-3.4c0-.6.4-1 1-1s1 .4 1 1v3.4zm3.6 0c0 .6-.4 1-1 1s-1-.4-1-1v-2.4c0-.6.4-1 1-1s1 .4 1 1v2.4zm123.4-21.2c0 .6-.4 1-1 1s-1-.4-1-1v-3.4c0-.6.4-1 1-1s1 .4 1 1v3.4zm3.6 0c0 .6-.4 1-1 1s-1-.4-1-1v-2.4c0-.6.4-1 1-1s1 .4 1 1v2.4zM461.4 500v-3.4c0-.6.4-1 1-1s1 .4 1 1v3.4c0 .6-.4 1-1 1s-1-.5-1-1zm4.5 1c-.6 0-1-.4-1-1v-2.4c0-.6.4-1 1-1s1 .4 1 1v2.4c0 .5-.4 1-1 1z"/><path fill="#50ADF7" d="M428.1 450c4.4.1 9.3.7 13.8 1.6 3.1-29 20.5-44 20.5-44-12.3 2.6-19.7 11.4-24.1 20.7-1.2-22.5-8.9-43.5-8.9-43.5 4.4 15.1-.7 42.4-4.5 58.4-6.8-32.8-40.6-38.2-40.6-38.2 23.7 8.1 28.6 35.3 29.5 48.1v.1c4.7-1.9 9.8-3.4 14.3-3.2z"/><path fill="#B2B2B2" d="M428.1 450c-4.5-.1-9.6 1.3-14.2 3.1-7.9 3.1-14.4 7.4-14.4 7.4l59.1-1.9c-1.7-2.1-5.6-4-10.5-5.5-1.9-.6-4-1.1-6.2-1.6-4.6-.8-9.4-1.4-13.8-1.5z"/><path fill="#50ADF7" d="M1055.3 465.4c2.6.1 5.4.4 8 1 .4-4.1 1.4-7.8 2.5-10.9 3.6-9.7 9.4-14.7 9.4-14.7-7.2 1.5-11.4 6.6-14 12.1-.7-13.1-5.2-25.3-5.2-25.3 2.1 7.1.5 18.8-1.3 27.9-.4 2.2-.9 4.3-1.3 6.1-.5-2.2-1.1-4.3-2-6.1-6.3-13.7-21.6-16.2-21.6-16.2 8.2 2.8 12.5 9.6 14.8 16.1 1.5 4.5 2.1 8.8 2.3 11.9 2.9-1.1 5.8-1.9 8.4-1.9z"/><path fill="#B2B2B2" d="M1055.3 465.4c-2.6-.1-5.6.8-8.3 1.8-4.6 1.8-8.4 4.3-8.4 4.3l34.3-1.1c-1.3-1.7-5.2-3.2-9.7-4.1-2.5-.4-5.3-.8-7.9-.9z"/><path fill="#51B8F2" d="M1102.6 474.9c.6 0 1-.4 1-1v-3.4c0-.6-.4-1-1-1s-1 .4-1 1v3.4c0 .6.4 1 1 1zm3.6 0c.6 0 1-.4 1-1v-2.4c0-.6-.4-1-1-1s-1 .4-1 1v2.4c0 .6.4 1 1 1zm65.4-18.4c.4 0 .8-.3.9-.6 0-.1.1-.2.1-.4v-3.4c0-.6-.4-1-1-1s-1 .4-1 1v3.4c0 .1 0 .3.1.4.2.3.5.6.9.6zm3.6 0c.4 0 .8-.3.9-.6.1-.1.1-.3.1-.4v-2.4c0-.6-.4-1-1-1s-1 .4-1 1v2.4c0 .1 0 .3.1.4.1.4.5.6.9.6zm-712.4-3.3c.3-.2.6-.5.6-.9V449c0-.6-.4-1-1-1s-1 .4-1 1v3.4c0 .4.2.7.6.9.1.1.3.1.4.1.1-.1.3-.1.4-.2zm3.5 0c.3-.2.6-.5.6-.9V450c0-.6-.4-1-1-1s-1 .4-1 1v2.4c0 .4.2.7.6.9.1.1.3.1.4.1.2-.1.3-.1.4-.2zm-109.8.1c.4 0 .7-.2.9-.5.1-.1.1-.3.1-.5V449c0-.6-.4-1-1-1s-1 .4-1 1v3.4c0 .2.1.3.1.5.2.2.5.4.9.4zm3.6 0c.4 0 .7-.2.8-.5.1-.1.2-.3.2-.5V450c0-.6-.4-1-1-1s-1 .4-1 1v2.4c0 .2.1.3.1.5.2.2.5.4.9.4zM463.4 500v-3.4c0-.6-.4-1-1-1s-1 .4-1 1v3.4c0 .6.4 1 1 1s1-.5 1-1zm3.5 0v-2.4c0-.6-.4-1-1-1s-1 .4-1 1v2.4c0 .6.4 1 1 1s1-.5 1-1zm164.8-28.7c-.6 0-1 .4-1 1v3.4c0 .6.4 1 1 1s1-.4 1-1v-3.4c0-.6-.4-1-1-1zm116.5 21.1c-.6 0-1 .4-1 1v3.4c0 .6.4 1 1 1s1-.4 1-1v-3.4c0-.5-.5-1-1-1zm3.6 1c-.6 0-1 .4-1 1v2.4c0 .6.4 1 1 1s1-.4 1-1v-2.4c0-.5-.5-1-1-1zm123.4-22.1c-.6 0-1 .4-1 1v3.4c0 .6.4 1 1 1s1-.4 1-1v-3.4c0-.6-.4-1-1-1zm3.6.9c-.6 0-1 .4-1 1v2.4c0 .6.4 1 1 1s1-.4 1-1v-2.4c0-.5-.5-1-1-1zm187 36.2c.6 0 1-.4 1-1V504c0-.6-.4-1-1-1s-1 .4-1 1v3.4c0 .5.4 1 1 1zm3.5 0c.6 0 1-.4 1-1V505c0-.6-.4-1-1-1s-1 .4-1 1v2.4c0 .5.5 1 1 1zm-434-36.2c-.6 0-1 .4-1 1v2.4c0 .6.4 1 1 1s1-.4 1-1v-2.4c0-.5-.4-1-1-1z"/><circle cx="563.5" cy="241.5" r="10.8"/><circle cx="651" cy="241.5" r="10.8"/><path d="M586.6 299.9h45.9c3 0 5.5-2.5 5.5-5.5s-2.5-5.5-5.5-5.5h-45.9c-3 0-5.5 2.5-5.5 5.5s2.4 5.5 5.5 5.5z"/></svg>
