<svg xmlns="http://www.w3.org/2000/svg" viewBox="0 0 512 388.8"><path fill="#403D67" d="M512 263.8c-17.6-33.6-42-63.1-71.4-86.5H102.3C40.4 226.7.5 302.6 0 387.9h512V263.8z"/><path fill="#444269" d="M479.7 387.9c-.9-114.2-93.8-206.6-208.2-206.6S64.1 273.6 63.2 387.9h416.5z"/><circle cx="220.7" cy="329.4" r="54.9" fill="#535277"/><path fill="#FFF" d="M145.1 388.8c-14.1-25-40.9-41.8-71.7-41.8-30.7 0-57.5 16.9-71.7 41.8h143.4z"/><path fill="#4F4D75" d="M144.7 388.8c-14.6-22.8-40.2-37.9-69.3-37.9-29.1 0-54.7 15.1-69.4 37.9h138.7z"/><path fill="#4F4D75" d="M203.6 388.8c3.1-8.6 4.7-17.8 4.7-27.4 0-45.5-36.9-82.4-82.4-82.4s-82.4 36.9-82.4 82.4c0 9.6 1.7 18.8 4.7 27.4h155.4z"/><path fill="#4F4D75" d="M203.6 388.8c3.1-8.6 4.7-17.8 4.7-27.4 0-45.5-36.9-82.4-82.4-82.4s-82.4 36.9-82.4 82.4c0 9.6 1.7 18.8 4.7 27.4h155.4z"/><path fill="#6D6C8B" d="M202.5 367.3c0 7.5-1 14.7-2.9 21.6h4c3-8.6 4.7-17.8 4.7-27.4 0-45.5-36.9-82.4-82.4-82.4-24.2 0-46 10.5-61.1 27.1 14.6-13.2 34-21.3 55.3-21.3 45.5-.1 82.4 36.8 82.4 82.4z"/><path fill="#767594" d="M271.4 388.8c-5.9-29.8-32.1-52.4-63.7-52.4s-57.8 22.5-63.7 52.4h127.4z"/><path fill="#5D5B7E" d="M409.1 388.8c11-12 17.7-28 17.7-45.6 0-37.4-30.3-67.8-67.8-67.8s-67.8 30.3-67.8 67.8c0 17.6 6.7 33.6 17.7 45.6h100.2z"/><path fill="#FFF" d="M495.4 388.8c0-1 .1-2 .1-2.9 0-32.8-26.6-59.3-59.3-59.3-32.8 0-59.3 26.6-59.3 59.3 0 1 .1 2 .1 2.9h118.4z"/><path fill="#F3BD22" d="M282.7 359.3zM235 307.1c-.1 12.8 4.6 25 13.3 34.3l19.2 20.4 8.7 9c-.2-4.8 1.7-9.4 5.1-12.8l.1-.1.4-.3-14.8-15.4-14.7-15.6c-7.2-7.7-11.1-17.7-11-28.1v-.1c.1-9.3 3.6-18.4 9.6-25.6h-1.6c-9 9-14.3 21.4-14.4 34.2h.1zm59.7 20.2l-12.8 12.1c-2.9 2.8-3.9 7.2-2.3 11l2.8 7 16.1-15.2c9.7-9.1 15.2-21.9 15.4-35.2.1-12.4-4.3-24.3-12.8-33.5H299c5.6 7.1 8.4 15.9 8.3 25.1 0 10.7-4.6 21.2-12.6 28.7z"/><path fill="#3E3A66" d="M301.1 273.3c8.3 9.2 12.9 21.1 12.8 33.5-.1 13.2-5.8 26.1-15.4 35.2l-16.1 15.2-2.8-7c-1.6-3.8-.6-8.2 2.3-11l12.8-12.1c7.9-7.4 12.6-18 12.7-28.9.1-9.1-2.9-17.9-8.3-25.1h-4.3c6.2 6.9 9.6 15.8 9.4 25.1-.1 10-4.3 19.7-11.7 26.6L279.6 337c-2.6 2.4-3.9 5.7-4 9l-5.9-6.2-14.7-15.5c-6.6-7-10.2-16.2-10.1-25.8v-.1c.1-9.6 4-18.8 10.7-25.6h-4.4c-6 7.1-9.4 16.2-9.6 25.6v.1c-.1 10.6 3.8 20.6 11 28.1l14.7 15.6 14.9 15.4-.4.3-.1.1c-3.6 3.3-5.3 8-5.1 12.8l-8.7-9-19.2-20.4c-8.8-9.3-13.6-21.4-13.3-34.3v-.1c.1-12.8 5.4-25.2 14.4-34.2h-3.6l-.1-.9c-8.8 9.4-13.9 22.1-14 35.1v.1c-.1 13.7 4.9 26.7 14.3 36.7l19.3 20.4 12.8 13.3c.3.3.8.6 1.2.6.3 0 .7-.1.9-.2.7-.4.9-1.2.7-2l-.1-.1c-2.1-5.2-.8-11.2 3.1-15l-1.1-1.2 1.2 1.1 16.9-15.9c10.3-9.7 16.3-23.4 16.4-37.5.1-13.7-4.9-26.7-14.3-36.7 0 0-.1 0-.1-.1l-.6 3.1-1.6-.3z"/><path fill="#ED6C69" d="M294.6 273.2c-13-.1-26.1-.3-39.1-.4-6.7 6.8-10.6 16-10.7 25.6v.2c-.1 9.7 3.4 18.8 10.1 25.8l14.7 15.6 5.9 6.2c.1-3.3 1.6-6.7 4-9l12.9-12.2c7.2-6.9 11.6-16.6 11.7-26.6 0-9.4-3.3-18.3-9.5-25.2z"/><path fill="#FFF" d="M347.9 242.4l-35.4-20.9-.9 4.7 31.4 18.6c2.3 1.4 3.8 3.8 3.8 6.3l-.7 55.8v.3l3.3 4.6c.3.4 1 .4 1.2.3.2-.1.6-.2.6-.7l.8-62.4c-.1-2.6-1.5-5.2-4.1-6.6z"/><path fill="#3B356D" d="M349.6 239.5L313.1 218l20.2-102.3v-.3c0-19.3-4.6-38.2-13.4-56.3-9.6-19.4-23.8-37-42.2-52.1l-1-.9-1 .8c-18.9 14.6-33.4 31.8-43.3 51.1-9.1 17.8-13.9 36.7-14.1 56v.1l18 103.4-36.1 20.2c-3.7 2-5.8 5.6-5.9 9.4l-.8 62.4c0 1.8 1.1 3.2 2.8 3.8.6.2 1 .2 1.6.2 1.3 0 2.7-.6 3.4-1.7l32.3-42.2c1-1.2 2.3-2.2 4-2.9l6.8-2.4 1.2 7.3.1.9h9.6l8.9.1 17.6.2 12.7.1h7.5l.6-3.1 1.1-5.4 7.6 3c1.6.7 3 1.7 3.9 3l31.3 42.9c.8 1.1 2.1 1.8 3.6 1.8.4 0 1-.1 1.4-.2 1.8-.6 2.9-2 2.9-3.8l.8-62.4c0-3.5-2.1-7.1-5.6-9.2zm-146.8 9.9l-.7 55.8v.3l-3.4 4.4c-.3.4-1 .4-1.2.3-.2-.1-.6-.2-.6-.7l.8-62.4c0-2.7 1.6-5.1 4.1-6.6l35.1-19.7.8 4.7-31 17.3c-2.4 1.6-3.9 4-3.9 6.6zm33 13.9c-1.4.6-2.7 1.4-3.7 2.7l-26.7 34.8.6-51.3c0-1.3.9-2.7 2.2-3.4l30-16.8 5.4 31.2-7.8 2.8zm64.1 4.5l-.3 1.8-.1.3-50.8-.6-6.7-38.7-10.1-58-10.2-58.6c.2-18.8 4.8-37 13.7-54.3 9.6-18.6 23.4-35.1 41.4-49.2 10.8 9 20.1 18.9 27.8 29.6 4.8 6.6 8.9 13.4 12.4 20.6 8.6 17.4 13 35.9 13.1 54.7l-.6 3.1-29.6 149.3zm42.9 34.5L317 267c-.9-1.2-2.1-2.1-3.6-2.7l-8.8-3.4 6.2-31.2 30.4 18c1.3.8 2.1 2.1 2.1 3.4l-.5 51.2zm8.3 9.1c0 .3-.3.6-.6.7-.3.1-.9.1-1.2-.3l-3.3-4.6v-.3l.7-55.8c0-2.6-1.3-5-3.8-6.3l-31.4-18.6.9-4.7 35.4 20.9c2.6 1.4 4 4 4 6.7l-.7 62.3z"/><path fill="#43CFEC" d="M341.2 247.5l-30.4-18-6.2 31.2 8.8 3.4c1.4.6 2.7 1.6 3.6 2.7l25.8 35.3.6-51.3c0-1.2-.8-2.5-2.2-3.3z"/><path fill="#FFF" d="M237.7 225.7l-.8-4.7-35.1 19.7c-2.6 1.4-4.1 3.9-4.1 6.6l-.8 62.4c0 .3.3.6.6.7.3.1.9.1 1.2-.3l3.4-4.4v-.3l.7-55.8c0-2.6 1.4-5 3.9-6.3l31-17.6z"/><path fill="#43CFEC" d="M208.3 246c-1.3.8-2.2 2-2.2 3.4l-.6 51.3 26.7-34.8c.9-1.2 2.1-2.1 3.7-2.7l7.9-2.9-5.4-31.2-30.1 16.9z"/><path fill="#FC5656" d="M222 113.8c.1-12 2-22.2 4.1-30 3-11.3 7.1-19.9 9.3-24.2 1.4-2.9 4.9-9.2 10.2-16.8 5.8-8.2 16.3-19.6 31-31.7.1 0 .2.1.3.1-.7.8-.1.1-.9.9-4.4 4.8-23 25.6-34 47.7-2.2 4.4-6.7 13.3-9.7 25.6-3.4 14.1-3.3 25.1-3.1 30.9.2 10 2 27.8 5.2 51.5 11.9-21.8 23.9-43.5 35.8-65.3-11-2.1-19.2-11.2-19.1-22 .1-5.9 2.7-11.4 7.2-15.6 4.6-4.1 10.6-6.3 16.9-6.2 5.9.1 11.4 2.1 15.8 5.8 4.4-8.1 8.9-16.3 13.4-24.4-7.7-10.7-17-20.4-27.8-29.6-18 14.1-31.9 30.7-41.4 49.1-8.9 17.3-13.6 35.5-13.7 54.3l10.2 58.8c.1-.2.2-.3.3-.6-3.2-19.5-6.6-38.9-10-58.3zm20.3 116.5c-.1.1-.2.3-.3.4l6.7 38.7 50.8.6.1-.3-50.5-.6c-2.4-12.9-4.6-25.9-6.8-38.8z"/><path fill="#FC5656" d="M294 163.9l-.3 27.7c-.1 7.8-6.4 14.1-14.2 14.1h-.2l-8.9-.1c-2.7 0-5.1-.8-7.2-2.1-6.4 8.2-12.8 16.4-19.2 24.7 2.1 12.3 4.4 25.4 7 39.1 16.6.2 32.4.3 49 .6l29.6-149.5c-11.9 15-23.8 30.2-35.6 45.5z"/><path fill="#FC6D6D" d="M292.1 65.2c4.4 4.2 6.9 9.9 6.9 15.8-.1 12.1-10.8 21.9-23.9 21.9h-.3c-1.6 0-3.1-.2-4.6-.4-11.9 21.8-23.9 43.5-35.8 65.3 2.3 17.2 5.4 37.5 9.3 60.4 6.4-8.2 12.8-16.4 19.2-24.7-4.1-2.6-6.9-7.1-6.9-12.3l.6-51.4c.1-7.9 6.6-14.1 14.4-14.1l8.9.1c3.8 0 7.3 1.6 10 4.3 2.7 2.7 4.1 6.3 4 10.1l-.2 23.7c11.9-15.2 23.7-30.4 35.5-45.5l.6-3.1c-.1-18.8-4.4-37.1-13.1-54.7-3.6-7.1-7.7-14-12.4-20.6-4.4 8.1-8.9 16.3-13.4 24.4.6.3.9.6 1.2.8zm14.4-6.2c.6-.3 1.2-.2 1.6.3 2.6 4.1 4.9 8.4 6.7 12.9 2.9 7.1 4.7 14.4 5.3 22 0 .7-.4 1.1-1 1.2h-.1c-.6 0-1-.4-1.1-1-.7-7.3-2.4-14.6-5.2-21.3-1.8-4.3-3.9-8.4-6.4-12.4-.5-.7-.4-1.4.2-1.7zm-74.3 113.1c-.1.2-.2.3-.3.6l10.1 58c.1-.1.2-.3.3-.4-3.4-19.4-6.8-38.8-10.1-58.2z"/><path fill="#43CFEC" d="M295.7 81c.1-5-2-9.7-5.8-13.3-3.9-3.7-9-5.7-14.6-5.7h-.2c-5.4 0-10.6 1.9-14.3 5.3-3.9 3.4-6.1 8.2-6.1 13.2-.1 10.3 9 18.9 20.3 19 11.3.2 20.6-8.2 20.7-18.5zm-7.4-.1c-.1 6.7-5.9 12.1-13.1 12.1h-.2c-7.2-.1-13.1-5.7-13-12.3 0-3.3 1.4-6.3 4-8.7 2.4-2.2 5.8-3.4 9.2-3.4 3.4 0 6.8 1.3 9.2 3.7 2.5 2.2 3.9 5.4 3.9 8.6zm-14.6 18.2c-3.3-.1-5.9-1.1-7.1-1.6-1.7-.7-5.4-2.3-8.3-6.6-1-1.4-3.4-5.3-3.2-10.9.2-6.2 3.8-10.3 5-11.7 3.6-3.7 7.6-4.8 9.3-5.2 3.9-1 7.1-.7 9-.3-11.1-.7-20.1 7.3-20.8 16.3-.7 9.3 7.7 16.9 14.3 18.6 3.2.8 7.1.4 7.1.8 0 .3-2.6.7-5.3.6z"/><path fill="#3B356D" d="M275.1 102.9c13 0 23.7-9.8 23.9-21.9.1-5.9-2.3-11.6-6.9-15.8-.3-.3-.7-.6-1-.9-4.3-3.7-9.9-5.7-15.8-5.8-6.3-.1-12.3 2.1-16.9 6.2-4.6 4.1-7.1 9.7-7.2 15.6-.1 10.9 8.1 20 19.1 22.1 1.4.3 3 .4 4.6.4.1.1.1.1.2.1zm-20.5-22.4c.1-5 2.2-9.7 6.1-13.2 3.9-3.4 9-5.3 14.3-5.3h.2c5.6.1 10.7 2.1 14.6 5.7 3.8 3.6 5.9 8.3 5.8 13.3-.1 10.3-9.4 18.7-20.8 18.6-11.2-.2-20.3-8.7-20.2-19.1z"/><path fill="#F9A662" d="M275.1 71.9c-2.6 0-5 .9-6.9 2.6-1.9 1.7-2.9 3.9-2.9 6.2-.1 4.9 4.3 8.9 9.7 9 5.3.1 9.9-3.9 9.9-8.8 0-2.3-1-4.6-2.8-6.2-1.9-1.8-4.3-2.7-6.9-2.8h-.1z"/><path fill="#3B356D" d="M266 72c-2.6 2.3-4 5.3-4 8.7-.1 6.8 5.8 12.3 13 12.3h.2c7.1 0 13-5.3 13.1-12.1 0-3.3-1.3-6.4-3.8-8.8-2.4-2.3-5.7-3.6-9.2-3.7-3.5.1-6.8 1.3-9.3 3.6zm18.9 8.9c-.1 4.9-4.6 8.9-9.9 8.8-5.4-.1-9.8-4.1-9.7-9 0-2.3 1-4.6 2.9-6.2s4.3-2.6 6.9-2.6h.1c2.7 0 5.1 1 6.9 2.8 1.9 1.6 2.8 3.8 2.8 6.2z"/><path fill="#FFF" d="M279 98.4c0-.3-3.9 0-7.1-.8-6.7-1.7-15-9.2-14.3-18.6.7-9 9.7-17 20.8-16.3-1.9-.3-5.1-.7-9 .3-1.8.4-5.8 1.6-9.3 5.2-1.2 1.3-4.8 5.4-5 11.7-.2 5.6 2.2 9.4 3.2 10.9 2.9 4.2 6.7 5.9 8.3 6.6 1.2.6 3.8 1.4 7.1 1.6 2.7.2 5.3-.2 5.3-.6z"/><path fill="#FFF" d="M243.9 228.2c-3.9-22.9-7-43.2-9.3-60.4-3.2-23.8-5-41.5-5.2-51.5-.1-5.9-.3-16.9 3.1-30.9 3-12.2 7.4-21.1 9.7-25.6 11-22.1 29.6-42.8 34-47.7l.9-.9-.2-.2c-14.8 12.1-25.2 23.4-31.1 31.7-5.3 7.6-8.7 13.9-10.2 16.8-2.2 4.3-6.3 12.9-9.3 24.2-2.1 7.8-4 18-4.1 30 3.3 19.4 6.8 38.9 10.1 58.4 3.3 19.3 6.8 38.8 10.1 58.1 2.2 12.9 4.4 25.9 6.8 38.8l50.5.6.3-1.8c-16.6-.2-32.4-.3-49-.6-2.6-13.7-5-26.7-7.1-39z"/><path fill="#DDD" d="M280.1 129.1l-8.9-.1h-.1c-6 0-10.8 4.8-10.9 10.8l-.7 51.4c-.1 6 4.8 11 10.8 11l8.9.1h.1c2.9 0 5.6-1.1 7.6-3.1 2.1-2 3.2-4.8 3.3-7.7l.6-51.4c0-2.9-1.1-5.7-3.1-7.8-1.9-2-4.7-3.2-7.6-3.2z"/><path fill="#3B356D" d="M290.3 130.1c-2.7-2.7-6.2-4.2-10-4.3l-8.9-.1c-7.9 0-14.3 6.2-14.4 14.1l-.6 51.4c-.1 5.2 2.7 9.8 6.9 12.3 2.1 1.2 4.6 2 7.2 2.1l8.9.1h.2c7.8 0 14.1-6.2 14.2-14.1l.3-27.7.2-23.7c0-3.9-1.4-7.4-4-10.1zm.1 61.4c0 2.9-1.2 5.7-3.3 7.7-2 2-4.8 3.1-7.6 3.1h-.1l-8.9-.1c-6-.1-10.9-5-10.8-11l.6-51.4c.1-6 4.9-10.8 10.9-10.8h.1l8.9.1c2.9 0 5.7 1.2 7.7 3.3 2 2.1 3.1 4.8 3.1 7.8l-.6 51.3z"/><path fill="#FFF" d="M312.6 73c2.8 6.9 4.6 14 5.2 21.3 0 .6.6 1 1.1 1h.1c.6 0 1.1-.6 1-1.2-.7-7.6-2.4-15-5.3-22-1.8-4.4-4-8.8-6.7-12.9-.3-.6-1-.7-1.6-.3-.6.3-.7 1-.3 1.6 2.6 4 4.7 8.2 6.5 12.5z"/><path fill="#E1E1EA" d="M383 388.8c0-.9.1-1.8.1-2.6 0-37.1-30.1-67.2-67.2-67.2s-67.2 30.1-67.2 67.2c0 .9 0 1.8.1 2.6H383z"/><path fill="#F4F4F7" d="M307.1 321.5c28.5-1.3 60.4 25.8 68.3 67.3h7.6c0-.9.1-1.8.1-2.6 0-37.1-30.1-67.2-67.2-67.2-30.1 0-55.6 19.8-64.1 47.2 11.7-25 32.8-43.6 55.3-44.7z" opacity=".62"/><path fill="#FFF" d="M358.2 388.8c-11.9-18.6-32.8-31-56.6-31-23.8 0-44.6 12.4-56.5 31h113.1z"/><path fill="#F0EFF3" d="M350.6 388.8h7.6c-11.9-18.6-32.8-31-56.6-31-19.7 0-37.4 8.5-49.7 21.9 11.9-10.9 27.8-17.5 45.3-17.5 21.8.1 41.2 10.5 53.4 26.6z"/><path fill="#FFF" d="M123.9 388.8c-16.7-11.6-34.9-18-54.1-18-19.2 0-37.5 6.4-54.1 18h108.2zm319.4 0v-17.2c-12.5-3.9-25.9-6-39.7-6-27.9 0-53.7 8.6-75.2 23.2h114.9z"/><path fill="#D8D7E1" d="M278.6 388.8h8.9c-7-43.5-44.7-76.8-90.2-76.8-22.3 0-42.7 8-58.5 21.2 14.5-9.7 32-15.4 50.7-15.4 43.5.1 79.8 30.4 89.1 71z"/><path fill="#FFF" d="M278.6 388.8c-9.3-40.6-45.6-71-89-71-18.8 0-36.2 5.7-50.7 15.4-16.5 13.8-28.1 33.4-31.6 55.6h171.3z"/><path fill="#9F9EB2" d="M106.2 232.7l2.5 4.6 4.6 2.5-4.6 2.6-2.5 4.6-2.6-4.6-4.6-2.6 4.6-2.5"/><path fill="#FFF" d="M479.5 197.3l1.8 3.2 3.2 1.8-3.2 1.8-1.8 3.2-1.8-3.2-3.2-1.8 3.2-1.8" opacity=".23"/><path fill="#9F9EB2" d="M460.8 273.3l1.5 2.7 2.7 1.4-2.7 1.5-1.5 2.7-1.4-2.7-2.7-1.5 2.7-1.4"/><path fill="#FFF" d="M23.7 320.7l1.5 2.7 2.7 1.4-2.7 1.5-1.5 2.7-1.5-2.7-2.6-1.5 2.6-1.4m400.5-108.8l1.5 2.7 2.6 1.5-2.6 1.4-1.5 2.7-1.5-2.7-2.7-1.4 2.7-1.5"/></svg>