<?xml version="1.0" encoding="utf-8"?>
<!-- Generator: Adobe Illustrator 19.1.0, SVG Export Plug-In . SVG Version: 6.00 Build 0)  -->
<svg version="1.1" id="Layer_1" xmlns="http://www.w3.org/2000/svg" xmlns:xlink="http://www.w3.org/1999/xlink" x="0px" y="0px"
	 viewBox="0 100 512 512" style="enable-background:new 0 0 512 512;" xml:space="preserve">

<path style="fill: #44ADFC;" d="M423.8,335.2l-7.3-0.2l1.2-7.2c1.3-7.3,1.9-14.7,1.9-22.1c-0.1-32.2-12.4-62.8-33.9-84.1
	c-17.9-17.7-40.6-27.4-64-27.2c-42.9,0.3-81.1,33.6-92.9,80.9l-2.7,10.7l-7.8-7.8c-10.5-10.4-23.9-16.2-37.7-16.2
	c-28.6,0-52.6,23.6-57.1,56.1l-1.1,8l-7.5-3.1c-8-3-16.7-4.8-25.6-4.8c-42.5,0-77.1,39.8-77.1,88.6c0,11.3,1.8,19.8,3.5,26.7
	c2.8,10.9,7,21.3,12.4,31.1c12.2,21.8,33,34.8,55.6,34.8H233v-95.7h-41.6l32.2-35.8l32.3-35.7l32.2,35.7l32.2,35.8h-41.5v95.7h154.3
	c35.6,0,65.3-32.8,66.2-73.1c0-0.8,0-1.6,0-2.5c0-23.5-7.9-45.7-22.3-62.4C462.8,344.9,443.9,335.6,423.8,335.2z"/>
<path style="fill: #336689;" d="M486.7,353.3c-14.9-17.3-34.4-27.8-55.4-30.1c0.7-5.8,1-11.6,1-17.4c-0.1-35.4-13.8-69.3-37.6-92.9
	c-20.1-19.9-45.7-30.8-72.2-30.8c-0.2,0-0.5,0-0.7,0c-24.4,0.2-47.4,9.2-66.7,26c-16,14.2-28.4,33.4-35.5,54.8
	c-11.4-8.5-24.9-13.1-38.8-13.1c-17,0-33.4,6.9-46.2,19.5c-10.7,10.5-18.4,24.5-21.9,39.9c-7.6-2.3-15.4-3.5-23.4-3.5
	c-49.4,0-89.6,45.4-89.6,101.2c0,12.7,2,22.2,3.9,29.8c3,11.9,7.6,23.4,13.6,34.1C31.7,496.6,56.6,512,83.8,512h349.4
	c20.7,0,40.2-8.9,55.2-25c14.7-16,23.2-37.4,23.7-60.3c0-1,0-1.9,0-2.8C512.1,397.3,503.1,372.3,486.7,353.3z M499.3,426.3
	c-0.9,40.3-30.6,73.1-66.2,73.1H278.8v0.1H233v-0.1H83.7c-22.6,0-43.4-13-55.6-34.8c-5.4-9.8-9.6-20.2-12.4-31.1
	c-1.7-6.9-3.5-15.4-3.5-26.7c0-48.8,34.6-88.6,77.1-88.6c8.9,0,17.6,1.8,25.6,4.8l7.5,3.1l1.1-8C128,285.6,152,262,180.6,262
	c13.8,0,27.2,5.8,37.7,16.2l7.8,7.8l2.7-10.7c11.8-47.3,50-80.6,92.9-80.9c23.4-0.2,46.1,9.5,64,27.2c21.5,21.3,33.8,51.9,33.9,84.1
	c0,7.4-0.6,14.8-1.9,22.1l-1.2,7.2l7.3,0.2c20.1,0.4,39,9.7,53.2,26.2c14.4,16.7,22.3,38.9,22.3,62.4
	C499.3,424.7,499.3,425.5,499.3,426.3z"/>
<polygon style="fill: #FFFFFF;" points="320.3,403.7 288.1,367.9 255.9,332.2 223.6,367.9 191.4,403.7 233,403.7 233,499.4 233,499.5
	278.8,499.5 278.8,499.4 278.8,403.7 "/>
</svg>
