<?xml version="1.0" encoding="utf-8"?>
<!-- Generator: Adobe Illustrator 19.1.0, SVG Export Plug-In . SVG Version: 6.00 Build 0)  -->
<svg version="1.1" id="Layer_1" xmlns="http://www.w3.org/2000/svg" xmlns:xlink="http://www.w3.org/1999/xlink" x="0px" y="0px"
	 viewBox="-246 250 18 13" style="enable-background:new -246 250 18 13;" xml:space="preserve">
<title>Group 5</title>
<desc>Created with Sketch.</desc>
<g id="Page-1">
	<g id="Group-6" transform="translate(-754.000000, -296.000000)">
		<g id="Group" transform="translate(754.000000, 296.000000)">
			<g id="Group-5">
				<path id="Fill-102" d="M-237.6,252.4v7.9c0,0.4,0.3,0.6,0.6,0.6s0.6-0.3,0.6-0.6v-8l1.4,1.3c0.2,0.3,0.6,0.3,0.9,0
					c0.2-0.3,0.2-0.7,0-0.9l-2.4-2.6c-0.1-0.1-0.3-0.2-0.5-0.2c-0.2,0-0.3,0-0.5,0.2l-2.4,2.6c-0.2,0.3-0.2,0.7,0,0.9
					c0.2,0.3,0.6,0.3,0.9,0L-237.6,252.4z"/>
				<path id="Path" d="M-245.4,263h16.8c0.3,0,0.6-0.3,0.6-0.7v-5.6c0-0.4-0.3-0.7-0.6-0.7c-0.3,0-0.6,0.3-0.6,0.7v4.9h-15.6v-4.9
					c0-0.4-0.3-0.7-0.6-0.7c-0.3,0-0.6,0.3-0.6,0.7v5.6C-246,262.7-245.7,263-245.4,263L-245.4,263z"/>
			</g>
		</g>
	</g>
</g>
</svg>
