<?xml version="1.0" encoding="utf-8"?>
<!-- Generator: Adobe Illustrator 19.1.0, SVG Export Plug-In . SVG Version: 6.00 Build 0)  -->
<svg version="1.1" id="Layer_1" xmlns="http://www.w3.org/2000/svg" xmlns:xlink="http://www.w3.org/1999/xlink" x="0px" y="0px"
	 viewBox="-495 1 512 512" style="enable-background:new -495 1 512 512;" xml:space="preserve">
<path d="M16.6,257c0,8.8-7.2,16-16,16h-442.7L-246,485.9c6,6.5,5.6,16.6-0.9,22.6c-3.1,2.8-7,4.2-10.8,4.2c-4.3,0-8.6-1.7-11.8-5.2
	l-220.8-239.7c-5.6-6.1-5.6-15.6,0-21.7L-269.5,6.4c6-6.5,16.1-6.9,22.6-0.9c6.5,6,6.9,16.1,0.9,22.6L-442.1,241H0.6
	C9.4,241,16.6,248.2,16.6,257z"/>
</svg>
