<?xml version="1.0" encoding="utf-8"?>
<!-- Generator: Adobe Illustrator 19.2.0, SVG Export Plug-In . SVG Version: 6.00 Build 0)  -->
<svg version="1.1" id="Layer_1" xmlns="http://www.w3.org/2000/svg" xmlns:xlink="http://www.w3.org/1999/xlink" x="0px" y="0px"
	 viewBox="0 0 512 512" style="enable-background:new 0 0 512 512;" xml:space="preserve">
<style type="text/css">
	.st0{display:none;}
	.st1{display:inline;}
	.st2{fill:none;stroke:#A9CCDB;stroke-width:0.25;stroke-miterlimit:10;}
	.st3{fill:none;stroke:#FF0000;stroke-width:0.25;stroke-miterlimit:10;}
	.st4{font-family:'MyriadPro-Regular';}
	.st5{font-size:6px;}
</style>
<g id="Layer_1_5_" class="st0">
	<g id="Layer_1_4_" class="st1">
		<g id="Layer_1_3_">
			<g id="Layer_1_2_">
				<g id="Layer_1_1_">
					<g>
						<line class="st2" x1="0" y1="0" x2="100" y2="0"/>
						<line class="st2" x1="0" y1="10" x2="100" y2="10"/>
						<line class="st2" x1="0" y1="20" x2="100" y2="20"/>
						<line class="st2" x1="0" y1="30" x2="100" y2="30"/>
						<line class="st2" x1="0" y1="40" x2="100" y2="40"/>
						<line class="st2" x1="0" y1="50" x2="100" y2="50"/>
						<line class="st2" x1="0" y1="60" x2="100" y2="60"/>
						<line class="st2" x1="0" y1="70" x2="100" y2="70"/>
						<line class="st3" x1="0" y1="80" x2="100" y2="80"/>
						<line class="st2" x1="0" y1="90" x2="100" y2="90"/>
						<line class="st2" x1="0" y1="0" x2="0" y2="100"/>
						<line class="st2" x1="10" y1="0" x2="10" y2="100"/>
						<line class="st2" x1="20" y1="0" x2="20" y2="100"/>
						<line class="st2" x1="30" y1="0" x2="30" y2="100"/>
						<line class="st2" x1="40" y1="0" x2="40" y2="100"/>
						<line class="st2" x1="50" y1="0" x2="50" y2="100"/>
						<line class="st2" x1="60" y1="0" x2="60" y2="100"/>
						<line class="st2" x1="70" y1="0" x2="70" y2="100"/>
						<line class="st2" x1="80" y1="0" x2="80" y2="100"/>
						<line class="st2" x1="90" y1="0" x2="90" y2="100"/>
						<text transform="matrix(1 0 0 1 5.2227 106.499)" class="st4 st5">Hide these Guidelines before saving</text>
						<text transform="matrix(1 0 0 1 -23.2773 81.166)" class="st4 st5">Baseline</text>
					</g>
				</g>
				<g id="Layer_2">
				</g>
			</g>
		</g>
	</g>
</g>
<g>
	<path d="M236,35.5L9,262.7c-4.7,4.7-4.7,12.3,0,17l227,226.9c7.6,7.6,20.5,2.2,20.5-8.5V271.2V44C256.5,33.3,243.6,27.9,236,35.5z"
		/>
	<path d="M492,35.5L265.2,262.7c-4.7,4.7-4.7,12.3,0,17L492,506.5c7.6,7.6,20.5,2.2,20.5-8.5V44C512.5,33.3,499.6,28,492,35.5z"/>
</g>
</svg>
