<?xml version="1.0" encoding="utf-8"?>
<!-- Generator: Adobe Illustrator 21.0.2, SVG Export Plug-In . SVG Version: 6.00 Build 0)  -->
<svg version="1.1" id="Layer_1" xmlns="http://www.w3.org/2000/svg" xmlns:xlink="http://www.w3.org/1999/xlink" x="0px" y="0px"
	 viewBox="0 0 1000 1000" enable-background="new 0 0 1000 1000" xml:space="preserve">
<path d="M485.6,868.8c-0.9,46.6-37,81.6-82.8,80c-43.3-1.5-81.2-41.9-79.7-85c1.5-42.4,43.3-82.4,84.7-80.9
	C452.6,784.5,486.5,821.9,485.6,868.8z"/>
<path d="M814.3,864.9c0.9,44.2-36,82.6-80.2,83.6c-42.9,0.9-83.3-37.9-84.1-80.8c-0.8-41.5,39.7-83.6,81.4-84.8
	C773.4,781.7,813.4,821.3,814.3,864.9z"/>
<path d="M388.7,290c-8.6-0.2-14.5-2.7-18.2-6.5C375.1,287.3,381.1,289.7,388.7,290z"/>
<path d="M959.9,295.7c-29.5,116.9-59.2,233.8-89.3,350.6c-15,58-19.7,61.3-79.9,61.4c-145.8,0.1-291.6-1.7-437.3,1
	c-47.3,0.9-66.6-19.1-78-61.2C232.9,491,187.6,335.3,145.1,178.8c-7.5-27.5-18.6-40.2-48-38.5c-23.9,1.4-51.3-0.7-51.7-33.6
	C45.1,73.5,72.1,72.9,96.4,72c88.9-3.3,89.2-2.1,113.1,84c41.5,149.5,85.2,298.5,126.3,448.1c7.3,26.5,19.7,35.2,46.3,35
	c127.7-1,255.5-0.9,383.2-0.1c24.1,0.1,37.7-5.8,44.1-31.8c25.1-102.2,52.5-203.8,81.3-314.6c0,0,0,0,0,0
	c-21.9-1.1-37.9-2.6-53.9-2.6c-137.5-0.2-274.9-0.1-412.4-0.2c-3.3,0-4.9,0-6,0c-1.3,0-2.3,0-2.7,0.1c-15,0.4-0.7,0.1-25.7,0.1
	c-0.4,0-0.9,0-1.3,0c-7.6-0.2-13.6-2.7-18.2-6.5c-20.8-17.2-12.4-62.4,17.9-62.4c26.6,0,65.2,0.1,89.6-0.2c0.4,0,3.9-0.1,8.8-0.1
	c3.6,0,8.5-0.1,18-0.1c131.9-0.1,263.8-0.2,395.7,0.1C964,220.9,975.2,235.1,959.9,295.7z"/>
<path d="M683.6,489.8c-4.2,2.6-8.5,4.4-12.9,5.1c-33.8,5.1-68.9,1.5-103.4,1.5c-34.5,0-69.6,3.5-103.4-1.6
	c-4.3-0.7-8.4-2.4-12.5-4.9c-21.1-12.9-21.4-43.9-0.3-56.7c3.7-2.2,7.4-3.7,11.2-3.9c70.3-3.5,141-3.5,211.2,0
	c3,0.2,5.9,1.1,8.8,2.6C704.9,443.9,705.4,476.3,683.6,489.8z"/>
</svg>
