<?xml version="1.0" encoding="utf-8"?>
<!-- Generator: Adobe Illustrator 19.2.0, SVG Export Plug-In . SVG Version: 6.00 Build 0)  -->
<svg version="1.1" id="Layer_1" xmlns="http://www.w3.org/2000/svg" xmlns:xlink="http://www.w3.org/1999/xlink" x="0px" y="0px"
	 viewBox="0 0 512 512" style="enable-background:new 0 0 512 512;" xml:space="preserve">
<g>
	<g>
		<path d="M383.5,12.5v49c0,6.6,5.4,12,12,12h17c6.6,0,12-5.4,12-12v-49c0-6.6-5.4-12-12-12h-17C388.9,0.5,383.5,5.9,383.5,12.5z"/>
		<path d="M97.5,12.4v49.1c0,6.6,5.4,12,12,12h17c6.6,0,12-5.4,12-12V12.1c0-6.7-5.5-12.1-12.1-12l-17,0.2
			C102.8,0.4,97.5,5.8,97.5,12.4z"/>
	</g>
	<path d="M500,38.2L452.5,38c-6.6,0-12,5.4-12,12v21.5c0,6.6-5.4,12-12,12h-48c-6.6,0-12-5.4-12-12V50.1c0-6.6-5.4-12-12-12
		l-191,0.2c-6.6,0-12,5.4-12,12v26.2c0,6.6-5.4,12-12,12h-48c-6.6,0-12-5.4-12-12V50.4c0-6.6-5.4-12-12-12l-58,0.1
		c-6.6,0-12,5.4-12,12v450c0,6.6,5.4,12,12,12h463.7H500c6.6,0,12-5.4,12-12l0-450.3C512,43.5,506.6,38.2,500,38.2z M35.5,463.5
		v-279c0-6.6,5.4-12,12-12h416c6.6,0,12,5.4,12,12v290.9l0.4,0.1H47.5C40.9,475.5,35.5,470.1,35.5,463.5z"/>
	<path d="M321.5,240.5H208c-3.3,0-6,2.7-6,6l-0.1,24c0,3.3,2.7,6,6,6H274c4.5,0,7.4,4.7,5.4,8.7l-64.7,129.6c-2,4,0.9,8.7,5.4,8.7
		h30.4c2.3,0,4.5-1.4,5.4-3.5l70.9-152.8c0.4-0.8,0.6-1.7,0.6-2.5v-18.2C327.5,243.2,324.8,240.5,321.5,240.5z"/>
</g>
</svg>
