<?xml version="1.0" encoding="utf-8"?>
<!-- Generator: Adobe Illustrator 19.2.0, SVG Export Plug-In . SVG Version: 6.00 Build 0)  -->
<svg version="1.1" id="Layer_1" xmlns="http://www.w3.org/2000/svg" xmlns:xlink="http://www.w3.org/1999/xlink" x="0px" y="0px"
	 viewBox="0 0 512 512" style="enable-background:new 0 0 512 512;" xml:space="preserve">
<g>
	<path d="M126.2,0.5h-16.7c-6.6,0-12,5.4-12,12v49c0,6.6,5.4,12,12,12h16.9c6.6,0,12-5.4,12-12.1l-0.2-49
		C138.2,5.8,132.8,0.5,126.2,0.5z"/>
	<path d="M412.5,0.5h-17c-6.6,0-12,5.4-12,12v49c0,6.6,5.4,12,12,12h17c6.6,0,12-5.4,12-12v-49C424.5,5.9,419.1,0.5,412.5,0.5z"/>
	<path d="M338.1,218.8c-37.3,0-67.5,45.1-67.5,100.8s30.2,100.8,67.5,100.8c37.2,0,67.5-45.1,67.5-100.8
		C405.5,263.9,375.3,218.8,338.1,218.8z M338.1,388.5c-17.1,0-36.2-29.5-36.2-68.9s19.1-68.9,36.2-68.9s36.2,29.5,36.2,68.9
		C374.3,359,355.2,388.5,338.1,388.5z"/>
	<path d="M204.5,313.5v-0.6c26-8.1,36-24.5,36-45.2c0-26.7-22-48.5-62.5-48.5c-20.6,0-39.4,4.9-51.8,10.8c-4.2,2-6.9,6.3-6.8,11
		l0.1,9.4c0.1,8.1,8.1,13.8,15.8,11.2c10.5-3.5,23.5-6.5,32.9-6.5c19.1,0,28.2,8.5,28.2,20.2c0,16.4-18.7,22.3-33.6,22.3h-7.3
		c-6.6,0-12,5.4-12,12v8c0,6.6,5.4,12,12,12h8.2c19.3,0,38.1,9.2,38.1,28.7c0,14.4-11.7,26-34.9,26c-11.4,0-26.3-3.1-37.8-6.4
		c-7.7-2.3-15.4,3.4-15.4,11.4l-0.1,10.4c0,4.8,2.7,9.1,7.1,11.1c11.7,5.3,28.8,9.7,48.9,9.7c48.4-0.1,77.5-25.2,77.5-59.3
		C247,335.3,230.5,317.6,204.5,313.5z"/>
	<path d="M500,37.9L452.5,38c-6.6,0-12,5.4-12,12v21.5c0,6.6-5.4,12-12,12h-48c-6.6,0-12-5.4-12-12V50.1c0-6.6-5.4-12-12-12
		l-191,0.2c-6.6,0-12,5.4-12,12v26.2c0,6.6-5.4,12-12,12h-48c-6.6,0-12-5.4-12-12V50.4c0-6.6-5.4-12-12-12l-58,0.1
		c-6.6,0-12,5.4-12,12v450c0,6.6,5.4,12,12,12h463.7l25.2-0.7c6.5-0.2,11.7-5.5,11.7-12L512,49.9C512,43.3,506.6,37.9,500,37.9z
		 M35.5,463.5v-279c0-6.6,5.4-12,12-12h416c6.6,0,12,5.4,12,12v278.9c0,6.6-5.4,12-12,12l-416,0.1C40.9,475.5,35.5,470.1,35.5,463.5
		z"/>
</g>
</svg>
