<?xml version="1.0" encoding="utf-8"?>
<!-- Generator: Adobe Illustrator 19.2.0, SVG Export Plug-In . SVG Version: 6.00 Build 0)  -->
<svg version="1.1" id="Layer_1" xmlns="http://www.w3.org/2000/svg" xmlns:xlink="http://www.w3.org/1999/xlink" x="0px" y="0px"
	 viewBox="0 0 512 512" style="enable-background:new 0 0 512 512;" xml:space="preserve">
<g>
	<path d="M126.5,0.5h-17c-6.6,0-12,5.4-12,12v49c0,6.6,5.4,12,12,12h17c6.6,0,12-5.4,12-12v-49C138.5,5.9,133.1,0.5,126.5,0.5z"/>
	<path d="M440.5,50v21.5c0,6.6-5.4,12-12,12h-48c-6.6,0-12-5.4-12-12V50.1c0-6.6-5.4-12-12-12l-191,0.2c-6.6,0-12,5.4-12,12v26.2
		c0,6.6-5.4,12-12,12h-48c-6.6,0-12-5.4-12-12V50.4c0-6.6-5.4-12-12-12l-58,0.1c-6.6,0-12,5.4-12,12v450c0,6.6,5.4,12,12,12h464h24
		c6.6,0,12-5.4,12-12V49.9c0-6.6-5.4-12-12-12l-47,0.1C445.9,38,440.5,43.4,440.5,50z M464.5,475.5h-417c-6.6,0-12-5.4-12-12v-279
		c0-6.6,5.4-12,12-12h417c6.6,0,12,5.4,12,12v279C476.5,470.1,471.1,475.5,464.5,475.5z"/>
	<path d="M412.5,0.5h-17c-6.6,0-12,5.4-12,12v49c0,6.6,5.4,12,12,12h17c6.6,0,12-5.4,12-12v-49C424.5,5.9,419.1,0.5,412.5,0.5z"/>
	<path d="M246.5,417.5h34c3.3,0,6-2.7,6-6v-186c0-3.3-2.7-6-6-6h-30.6c-1,0-2,0.3-2.9,0.8l-39.4,21.9c-1.9,1.1-3.1,3.1-3.1,5.2v22.2
		c0,4.4,4.6,7.3,8.6,5.4l18.8-9.1c4-1.9,8.6,1,8.6,5.4v140.2C240.5,414.8,243.2,417.5,246.5,417.5z"/>
</g>
</svg>
