<?xml version="1.0" encoding="utf-8"?>
<!-- Generator: Adobe Illustrator 19.2.0, SVG Export Plug-In . SVG Version: 6.00 Build 0)  -->
<svg version="1.1" id="Layer_1" xmlns="http://www.w3.org/2000/svg" xmlns:xlink="http://www.w3.org/1999/xlink" x="0px" y="0px"
	 viewBox="0 0 512 512" style="enable-background:new 0 0 512 512;" xml:space="preserve">
<g>
	<path d="M99.5,424.5h57c6.6,0,12-5.4,12-12v-57c0-6.6-5.4-12-12-12h-57c-6.6,0-12,5.4-12,12v57C87.5,419.1,92.9,424.5,99.5,424.5z"
		/>
	<path d="M99.5,296.5h57c6.6,0,12-5.4,12-12v-57c0-6.6-5.4-12-12-12h-57c-6.6,0-12,5.4-12,12v57C87.5,291.1,92.9,296.5,99.5,296.5z"
		/>
	<path d="M156.5,0.5h-17c-6.6,0-12,5.4-12,12v63c0,6.6,5.4,12,12,12h17c6.6,0,12-5.4,12-12v-63C168.5,5.9,163.1,0.5,156.5,0.5z"/>
	<path d="M371.5,0.5h-16c-6.6,0-12,5.4-12,12v63c0,6.6,5.4,12,12,12h16c6.6,0,12-5.4,12-12v-63C383.5,5.9,378.1,0.5,371.5,0.5z"/>
	<path d="M355.5,424.5h57c6.6,0,12-5.4,12-12v-57c0-6.6-5.4-12-12-12h-57c-6.6,0-12,5.4-12,12v57
		C343.5,419.1,348.9,424.5,355.5,424.5z"/>
	<path d="M227.5,424.5h57c6.6,0,12-5.4,12-12v-57c0-6.6-5.4-12-12-12h-57c-6.6,0-12,5.4-12,12v57
		C215.5,419.1,220.9,424.5,227.5,424.5z"/>
	<path d="M355.5,296.5h57c6.6,0,12-5.4,12-12v-57c0-6.6-5.4-12-12-12h-57c-6.6,0-12,5.4-12,12v57
		C343.5,291.1,348.9,296.5,355.5,296.5z"/>
	<path d="M424.5,52.5v64c0,6.6-5.4,12-12,12h-104c-6.6,0-12-5.4-12-12v-64c0-6.6-5.4-12-12-12h-57c-6.6,0-12,5.4-12,12v64
		c0,6.6-5.4,12-12,12h-104c-6.6,0-12-5.4-12-12v-64c0-6.6-5.4-12-12-12h-64c-6.6,0-12,5.4-12,12v118.2v329.8c0,6.6,5.4,12,12,12
		h31.2h42.7h414.2c6.6,0,12-5.4,12-12v-31.2V170.7V52.5c0-6.6-5.4-12-12-12h-63C429.9,40.5,424.5,45.9,424.5,52.5z M471.5,459.5
		c0,6.6-5.4,12-12,12H85.3H52.5c-6.6,0-12-5.4-12-12v-279c0-6.6,5.4-12,12-12h32.8h128h85.3h128h32.8c6.6,0,12,5.4,12,12v279H471.5z
		"/>
	<path d="M227.5,296.5h57c6.6,0,12-5.4,12-12v-57c0-6.6-5.4-12-12-12h-57c-6.6,0-12,5.4-12,12v57
		C215.5,291.1,220.9,296.5,227.5,296.5z"/>
</g>
</svg>
