<svg xmlns="http://www.w3.org/2000/svg" viewBox="0 0 512 512"><path d="M415.7 510.2c-59.1 0-164.3-45.6-266.1-147.4-61.3-61.3-108-129.5-131.5-192-20.6-54.6-21.4-98.6-2.2-117.9 3.2-3.2 6.5-6.7 9.7-10.1 18.1-19 38.6-40.6 63.5-40.6 18.4 0 36.7 11.7 56 35.7 25 31.1 35 52.4 33.5 71.2-1.5 18.6-14.4 32.7-31.1 49.1l-5.6 5.6c-3.2 3.2-10.8 10.8-2.5 31.8 9.3 23.6 35.5 57.1 77.8 99.4 53.8 53.8 92.9 81.2 116 81.2 6.1 0 11.3-2 15.1-5.9l5.7-5.8c16.5-16.7 30.7-31.1 51.8-31.1 18.2 0 40 10.7 68.5 33.6 23.2 18.7 34.9 36.4 35.6 54.3 1.1 25.7-21.2 46.8-40.8 65.5l-.9.8c-3.2 3-6.2 5.9-9 8.7-8.9 9.1-24 13.9-43.5 13.9zM89.2 16.7c-18.7 0-36.9 19.2-53 36.1-3.3 3.5-6.7 7.1-10 10.4C15 74.3 9.8 107.8 31.6 165.7c22.9 60.6 68.4 127 128.2 186.8 98.9 98.9 199.8 143.2 255.9 143.2 15.4 0 27.3-3.4 33.4-9.5 2.9-2.9 6-5.9 9.3-9l.8-.8c17.4-16.6 37.1-35.3 36.3-54.5-.5-13.4-10.4-27.7-30.2-43.6-25.5-20.5-44.9-30.4-59.4-30.4-15 0-26.1 11.2-41.5 26.8l-5.8 5.8c-6.6 6.6-15.4 10.1-25.4 10.1-5.2 0-16 0-36.4-11.3-23.7-13.2-53.9-38.1-89.9-74.1-78.5-78.5-101.7-125.3-75.3-151.7l5.7-5.6c15.1-14.8 25.8-26.4 26.9-40 1.2-14.6-8.2-33.4-30.3-61-16.3-20.3-31-30.2-44.7-30.2z"/></svg>