<?xml version="1.0" encoding="utf-8"?>
<!-- Generator: Adobe Illustrator 19.2.0, SVG Export Plug-In . SVG Version: 6.00 Build 0)  -->
<svg version="1.1" id="Layer_1" xmlns="http://www.w3.org/2000/svg" xmlns:xlink="http://www.w3.org/1999/xlink" x="0px" y="0px"
	 viewBox="0 0 512 512" style="enable-background:new 0 0 512 512;" xml:space="preserve">
<g id="Layer_2_2_">
	<g>
		<g>
			<path d="M350.1,331.1c0,53.6-42.2,97-94.3,97s-94.3-43.4-94.3-97c0-53.5,42.2-96.9,94.3-96.9
				C307.9,234.1,350.1,277.6,350.1,331.1z"/>
			<path d="M500.5,148.5h-163V126v-11.5c0-6.6-5.4-12-12-12h-139c-6.6,0-12,5.4-12,12V126v20.1c0,0-16.9-0.3-31.7,0s-31.2,6-31.2,6
				L8,186.6c-4.9,1.6-8.2,6.2-8.2,11.4l-0.3,302c0,6.6,5.4,12,12,12c77.1,0,500,0,500.5,0c0.6,0.1,0.5-288.7,0.5-351.5
				C512.5,153.9,507.1,148.5,500.5,148.5z M255.8,472.8c-76.1,0-137.8-63.4-137.8-141.7s61.7-141.7,137.8-141.7
				s137.8,63.4,137.8,141.7C393.6,409.3,331.9,472.8,255.8,472.8z"/>
			<path d="M100.5,134.6l-76,26.4c-1.9,0.7-4-0.8-4-2.8v-34.4v-3.3c0-1.7,1.3-3,3-3h76c1.7,0,3,1.3,3,3v3.3v8
				C102.5,133,101.7,134.1,100.5,134.6z"/>
		</g>
	</g>
</g>
</svg>
