<?xml version="1.0" encoding="utf-8"?>
<!-- Generator: Adobe Illustrator 19.1.0, SVG Export Plug-In . SVG Version: 6.00 Build 0)  -->
<svg version="1.1" id="Layer_1" xmlns="http://www.w3.org/2000/svg" xmlns:xlink="http://www.w3.org/1999/xlink" x="0px" y="0px"
	 viewBox="0 0 512 512" enable-background="new 0 0 512 512" xml:space="preserve">
<path fill="#1D1D1B" d="M336.2,343.2h0.2c3-1.7,5.2-5.2,5.7-8.2H25V177h382v64.2c2-0.2,4.1-0.2,6.2-0.1c1.9,0,3.8,0,5.8,0.1V116.9
	c0-3.3-2.5-5.9-5.8-5.9H19.3c-3.3,0-6.3,2.6-6.3,5.9v223.7c0,3.3,3,6.4,6.3,6.4h312.5C333.1,345,334.5,344.2,336.2,343.2z M407,165
	H25v-42h382V165z"/>
<path fill="#1D1D1B" d="M155,266H70c-3.3,0-6,2.7-6,6s2.7,6,6,6h85c3.3,0,6-2.7,6-6S158.3,266,155,266z"/>
<path fill="#1D1D1B" d="M274,266h-55c-3.3,0-6,2.7-6,6s2.7,6,6,6h55c3.3,0,6-2.7,6-6S277.3,266,274,266z"/>
<path d="M474.5,396.6h-0.1c-1.1,0.1-2.2-0.3-3-1c-0.9-0.7-1.3-1.7-1.4-2.9v-0.1l-0.2-16c-12.7,14.5-30.3,24-49.5,26.7
	c-3.1,0.4-6.3,0.7-9.5,0.7c-21.5,0.4-41.8-7.6-57.3-22.5c-14.9-14.4-23.5-34.2-24.2-55.6c0-0.4,0-0.8,0-1.3c0-1,0.2-1.8,0.6-2.7
	c0.9-1.7,2.5-2.9,4.4-3.2c0.2,0,0.5-0.1,0.7-0.1c1.6,0,3,0.6,4.2,1.6c1.1,1.1,1.7,2.5,1.8,4v0.1c0,0.4,0,0.7,0,1.1
	c0.6,18.4,8,35.3,20.7,47.6c13.2,12.7,30.6,19.6,48.9,19.2c2.7,0,5.4-0.3,8.1-0.6c16.5-2.3,31.5-10.4,42.4-23c0.4-0.5,0.9-1,1.3-1.5
	l-19.5,2.2h-0.1c-1.5,0.1-2.9-0.3-3.9-1.2c-0.7-0.6-1.1-1.4-1.1-2.3v-0.1l-0.2-1.7v-0.1c0-0.7,0.2-1.4,0.5-2c0.7-1.3,2-2.3,3.4-2.5
	c0.1,0,0.1,0,0.2,0l30.9-3.4h0.1l2.1-0.2c1.2-0.1,2.2,0.2,3.1,1s1.4,1.8,1.4,2.9l0.1,2.1v0.1l0.4,30.6c0,0.7-0.1,1.4-0.4,2
	c-0.6,1.2-1.7,1.9-3.2,2.1h-0.3L474.5,396.6z M489.2,325.7c-0.2,0-0.4,0.1-0.7,0.1c-3.2,0.1-5.9-2.5-6-5.7V320c0-0.3,0-0.6,0-1
	c-0.6-17.9-8-34.7-21-47.2c-13.2-12.7-30.6-19.6-48.9-19.2c-2.9,0-5.8,0.3-8.6,0.7c-6.6,0.9-13,2.8-19.1,5.5
	c-8.7,4-16.4,9.7-22.7,16.9c-1.4,1.6-2.7,3.3-4,5l19.8-2.3h0.1c1.4-0.1,2.8,0.4,3.7,1.2c0.9,0.8,1.2,1.7,1.2,2.4v0.1l0.3,1.6v0.2
	c0,0.7-0.2,1.3-0.5,1.9c-0.7,1.3-2,2.3-3.4,2.5c-0.1,0-0.1,0-0.2,0l-30.9,3.4h-0.1l-2.1,0.2c-1.2,0.1-2.2-0.2-3.1-1s-1.4-1.8-1.4-3
	l-0.1-2v-0.1l-0.4-30.6c0-0.7,0.1-1.4,0.5-2.1c0.6-1.3,1.9-2.2,3.3-2.5h0.3l1.7,0.2h0.1c0.9-0.1,1.8,0.3,2.5,0.9
	c0.9,0.8,1.5,2.1,1.6,3.5v0.1l0.2,15.4c0.7-0.9,1.5-1.8,2.2-2.7c7.4-8.5,16.3-15.2,26.5-19.8c7.1-3.2,14.7-5.4,22.4-6.5
	c3.3-0.5,6.6-0.7,10-0.8c21.5-0.4,41.8,7.6,57.3,22.5c15.1,14.6,23.8,34.2,24.5,55.2c0,0.4,0,0.8,0,1.2c0,0.9-0.2,1.9-0.6,2.7
	C492.8,324.2,491.1,325.4,489.2,325.7L489.2,325.7z"/>
</svg>
