<?xml version="1.0" encoding="utf-8"?>
<!-- Generator: Adobe Illustrator 19.2.0, SVG Export Plug-In . SVG Version: 6.00 Build 0)  -->
<svg version="1.1" id="Layer_1" xmlns="http://www.w3.org/2000/svg" xmlns:xlink="http://www.w3.org/1999/xlink" x="0px" y="0px"
	 viewBox="0 0 512 512" style="enable-background:new 0 0 512 512;" xml:space="preserve">
<g id="Layer_2_2_">
	<path d="M512,256c0,141.4-109.3,256-244.1,256c-104.8,0-194.1-69.2-228.7-166.4l63.3-30.6c23.4,72.2,88.6,124.2,165.4,124.2
		c96.5,0,174.7-82,174.7-183.2c0-101.2-78.2-183.2-174.7-183.2c-69,0-128.7,42-157.1,103l50.4,21.7L35.3,279.7L0,127.9L46.5,148
		C85.4,60.6,169.9,0,267.9,0C402.7,0,512,114.6,512,256z"/>
</g>
</svg>
