<?xml version="1.0" encoding="utf-8"?>
<!-- Generator: Adobe Illustrator 21.0.2, SVG Export Plug-In . SVG Version: 6.00 Build 0)  -->
<svg version="1.1" id="Layer_1" xmlns="http://www.w3.org/2000/svg" xmlns:xlink="http://www.w3.org/1999/xlink" x="0px" y="0px"
	 viewBox="0 0 512 512" enable-background="new 0 0 512 512" xml:space="preserve">
<g>
	<path d="M307.2,200.7c-10.1,0-18.4,8.2-18.4,18.4c0,10.1,8.3,18.4,18.4,18.4c10.1,0,18.4-8.2,18.4-18.4
		C325.6,208.9,317.3,200.7,307.2,200.7z M233.5,200.7c-10.1,0-18.4,8.2-18.4,18.4c0,10.1,8.2,18.4,18.4,18.4
		c10.1,0,18.4-8.2,18.4-18.4C251.9,208.9,243.6,200.6,233.5,200.7z M159.8,200.7c-10.1,0-18.4,8.2-18.4,18.4
		c0,10.1,8.2,18.4,18.4,18.4c10.1,0,18.4-8.2,18.4-18.4C178.2,208.9,169.9,200.6,159.8,200.7z"/>
</g>
<g>
	<path d="M446,407.6c2.4-2,5.1-4.2,8.8-7c21.1-16.7,50-39.6,50-74.4c0-14.7-4.3-29-12.5-42c-2.6,5.1-5.5,10.3-8.7,15.6
		c4,8.4,6,17.3,6,26.4c0,27.5-24.5,46.9-44.3,62.5c-3.3,2.6-6.3,4.9-9,7.2c-6.4,5.3-10,12.3-10.4,20.2c-0.1,1.4,0,2.8,0.2,4.5
		l1.4,12.5l-10.6-6.8c-1-0.6-1.9-1.2-2.8-1.8c-1.8-1.1-3.6-2.3-5.3-3.4c-7.7-5-14.6-9.4-20.4-11.7c-7-2.7-15.8-3.8-24.4-4.7
		c-8.5,4.3-17,8.3-25.6,12c6.5,1.2,13.3,2,19.6,2.6l1.3,0.1c9.3,1,18,1.9,23.9,4.1c3.8,1.4,9.2,4.9,15,8.6l2.5,1.6
		c15,9.8,32,20.8,47.8,20.8h18.2l-12.9-13c-3.3-3.3-12.7-15-12.5-24.5C441.1,414.5,441.9,411,446,407.6z M388.3,103.4
		C346.3,72.2,290.5,55,231.2,55c-59.3,0-115.1,17.2-157.1,48.4C31.3,135.1,7.7,177.6,7.7,223.1c0,61.9,63.9,111.2,94.7,135l0.4,0.3
		c2.2,1.6,4.1,3.2,5.8,4.5c0.7,0.6,1.5,1.1,2.1,1.7c6.8,5.4,9.1,15.7,6.8,30.5c-1.6,10.7-5.6,23.1-10.7,33.3l-6.1,12.4h13.6
		c20.8,0,38.2-13.2,53.6-24.8l1-0.8c15.2-11.5,29.5-22.4,46.1-22.4c59.2,0,119.3-17.9,164.8-49.1c23-15.8,41.2-33.9,53.9-53.8
		c13.8-21.4,20.8-44,20.8-67C454.7,177.7,431.1,135.2,388.3,103.4z M370.5,330c-42.9,29.3-99.6,46.1-155.4,46.1
		c-22.2,0-40.5,13.7-56.6,25.8l-1.9,1.4c-3.1,2.4-6.1,4.7-9.3,6.8l-18.1,12.7l4.2-21.8c4.3-22.8,0.2-39.5-12.3-49.6
		c-2.4-1.9-5.4-4.3-8.5-6.7l-0.2-0.1c-28.6-22.1-88-68.1-88-121.6c0-40,21.2-77.8,59.6-106.2c39.2-29.1,91.4-45.2,147.1-45.2
		c55.7,0,107.9,16,147,45.2c38.4,28.5,59.6,66.3,59.6,106.2C437.8,262.3,413.9,300.3,370.5,330z"/>
</g>
</svg>
