<?xml version="1.0" encoding="utf-8"?>
<!-- Generator: Adobe Illustrator 19.2.0, SVG Export Plug-In . SVG Version: 6.00 Build 0)  -->
<svg version="1.1" id="Layer_1" xmlns="http://www.w3.org/2000/svg" xmlns:xlink="http://www.w3.org/1999/xlink" x="0px" y="0px"
	 viewBox="0 0 512 512" style="enable-background:new 0 0 512 512;" xml:space="preserve">
<g id="Layer_2_2_">
	<path d="M244.1,0c98,0,182.5,60.6,221.4,148l46.5-20.1l-35.3,151.8l-125.9-82.2l50.4-21.7c-28.4-60.9-88-103-157-103
		c-96.5,0-174.7,82-174.7,183.2c0,101.2,78.2,183.2,174.7,183.2c76.8,0,142-52,165.4-124.2l63.3,30.6
		C438.2,442.8,348.9,512,244.1,512C109.3,512,0,397.4,0,256C0,114.6,109.3,0,244.1,0z"/>
</g>
</svg>
