<?xml version="1.0" encoding="utf-8"?>
<!-- Generator: Adobe Illustrator 19.2.0, SVG Export Plug-In . SVG Version: 6.00 Build 0)  -->
<svg version="1.1" id="Layer_1" xmlns="http://www.w3.org/2000/svg" xmlns:xlink="http://www.w3.org/1999/xlink" x="0px" y="0px"
	 viewBox="0 0 512 512" style="enable-background:new 0 0 512 512;" xml:space="preserve">
<g>
	<path d="M208,416L208,416c8.8,0,16-7.2,16-16V176c0-8.8-7.2-16-16-16h0c-8.8,0-16,7.2-16,16v224C192,408.8,199.2,416,208,416z"/>
	<path d="M468,64h-20h-32h-64V32V12c0-6.6-5.4-12-12-12h-20H192h-20.1c-6.6,0-12,5.4-12,12l0.1,52H96H64H44c-6.6,0-12,5.4-12,12v8
		c0,6.6,5.4,12,12,12h20v404c0,6.6,5.4,12,12,12h20h320h20c6.6,0,12-5.4,12-12V96h20c6.6,0,12-5.4,12-12v-8
		C480,69.4,474.6,64,468,64z M192,32h128v32H192V32z M416,468c0,6.6-5.4,12-12,12H108c-6.6,0-12-5.4-12-12V96h64h32h128h32h64V468z"
		/>
	<path d="M304,416L304,416c8.8,0,16-7.2,16-16V176c0-8.8-7.2-16-16-16h0c-8.8,0-16,7.2-16,16v224C288,408.8,295.2,416,304,416z"/>
</g>
</svg>
