<svg data-name="6775d4c7-694f-445d-a037-968707a1602d" xmlns="http://www.w3.org/2000/svg" viewBox="0 0 446.75 446.75"><path d="M381.4,65.4c-87.3-87.2-228.7-87.1-315.9.1s-87.1,228.7.1,315.9a223.72,223.72,0,0,0,157.8,65.4c123.4.1,223.4-99.9,223.5-223.3A223.25,223.25,0,0,0,381.4,65.4ZM77.9,373.2C-1.1,296.5-5.3,171.8,66.5,90L356.9,380.4C277.1,450.4,155.5,448.5,77.9,373.2ZM380.2,357,89.8,66.6C169.6-3.6,291.3-1.6,368.9,73.7,447.9,150.4,452.2,275.2,380.2,357Z" transform="translate(-0.15 -0.05)" style="fill:#e82828"/></svg>
