<?xml version="1.0" encoding="utf-8"?>
<!-- Generator: Adobe Illustrator 19.1.0, SVG Export Plug-In . SVG Version: 6.00 Build 0)  -->
<svg version="1.1" id="Layer_1" xmlns="http://www.w3.org/2000/svg" xmlns:xlink="http://www.w3.org/1999/xlink" x="0px" y="0px"
	 viewBox="301.7 -6 512 512" style="enable-background:new 301.7 -6 512 512;" xml:space="preserve">

<rect x="429" y="234"  style="display:none;" width="256.2" height="32"/>
<rect x="541" y="90" width="32" height="176"/>
<path d="M796.9,313.8c0-0.2-0.1-0.5-0.1-0.7c0-0.4-0.1-0.7-0.1-1.1c0-0.2-0.1-0.4-0.1-0.6c-0.1-0.4-0.2-0.8-0.2-1.2
	c0-0.1,0-0.2-0.1-0.3L710,150c-1.9-7-8.2-12-15.5-12H621v32h65.3L760,298h-84.9l-31.8,48H470.6L439,298h-85.6l74.7-128H493v-32
	h-73.2c-7.2,0-13.6,5-15.5,12l-87.3,159.8c0,0.1,0,0.2-0.1,0.4c-0.1,0.4-0.2,0.8-0.2,1.2c0,0.2-0.1,0.4-0.1,0.6
	c0,0.4-0.1,0.7-0.1,1.1c0,0.2,0.2,0.5,0.2,0.7c0,0.1,0.2,0.2,0.2,0.3v175.1c0,8.8,6.7,15.8,15.5,15.8h448.3
	c8.8,0,16.2-6.9,16.2-15.8V314.1C797,314,796.9,313.9,796.9,313.8z M764.8,473.2H348.5V330.1H429l31.9,48.4l0.1-0.4h191.9l0.1,0.4
	l32.1-48.4h79.7V473.2z"/>
<polygon points="606.3,198.6 557.1,247.8 507.8,198.6 485.2,221.2 548.8,284.8 557.1,293.1 628.9,221.2 "/>
</svg>
