
<svg xmlns="http://www.w3.org/2000/svg" xmlns:xlink="http://www.w3.org/1999/xlink" x="0px" y="0px" viewBox="0 0 697.9 323">
<path d="M697.9,0c-0.8,0.8-1.6,1.5-2.4,2.2c-2.3,2.2-4.6,4.3-6.9,6.4c-3.7,3.4-7.3,6.8-10.9,10.1
	c-4.8,4.5-9.6,8.9-14.5,13.4c-5.8,5.4-11.7,10.8-17.5,16.2c-6.7,6.2-13.4,12.4-20,18.5c-7.4,6.8-14.7,13.6-22.1,20.5
	c-7.9,7.3-15.8,14.6-23.7,21.9c-8.3,7.7-16.6,15.3-24.8,23c-8.5,7.9-17,15.7-25.5,23.6c-8.5,7.9-17,15.7-25.5,23.6
	c-8.4,7.8-16.8,15.5-25.1,23.3c-8.1,7.5-16.2,15-24.3,22.5c-7.7,7.1-15.3,14.1-22.9,21.2c-7,6.5-14.1,13-21.1,19.5
	c-6.3,5.8-12.5,11.6-18.8,17.4c-5.4,4.9-10.7,9.9-16,14.8c-4.2,3.9-8.5,7.9-12.7,11.8c-3,2.8-5.9,5.5-8.9,8.2
	c-1.5,1.4-3.1,2.9-4.6,4.3c-0.7,0.6-0.5,0.5-1.2-0.1c-1.6-1.5-3.2-3-4.8-4.4c-3-2.8-6-5.6-9-8.4c-4.3-4-8.5-7.9-12.8-11.9
	c-5.4-5-10.8-9.9-16.1-14.9c-6.3-5.8-12.6-11.7-18.9-17.5c-7.1-6.5-14.1-13.1-21.2-19.6c-7.7-7.1-15.3-14.2-23-21.3
	c-8.1-7.5-16.2-15-24.3-22.5c-8.4-7.8-16.8-15.5-25.2-23.3c-8.5-7.9-17-15.7-25.5-23.6c-8.5-7.8-16.9-15.7-25.4-23.5
	c-8.3-7.7-16.5-15.3-24.8-23c-7.9-7.3-15.8-14.6-23.7-22c-7.3-6.8-14.7-13.6-22-20.4c-6.7-6.2-13.3-12.3-20-18.5
	C45.7,42.3,39.9,37,34.1,31.6c-4.8-4.4-9.5-8.8-14.3-13.3C16.2,15,12.6,11.7,9,8.3C6.8,6.3,4.5,4.2,2.2,2.1C1.5,1.4,0.8,0.7,0,0
	H697.9z"/>
</svg>
