<?xml version="1.0" encoding="utf-8"?>
<!-- Generator: Adobe Illustrator 19.2.0, SVG Export Plug-In . SVG Version: 6.00 Build 0)  -->
<svg version="1.1" id="Layer_1" xmlns="http://www.w3.org/2000/svg" xmlns:xlink="http://www.w3.org/1999/xlink" x="0px" y="0px"
	 viewBox="0 0 512 512" style="enable-background:new 0 0 512 512;" xml:space="preserve">
<g>
	<path d="M-0.5,170.4v171.2c0,13.9,11.5,26.9,25.1,26.9h97.9v-225H24.6C11,143.5-0.5,156.5-0.5,170.4z"/>
	<path d="M312.5,28.2c0-23.3-18.2-34.6-31.2-24.4c-6.9,5.5-48.2,39.7-97.4,80.1l128.6,128V28.2z"/>
	<path d="M507.6,431L81,4.4c-5.9-5.9-15.4-5.9-21.2,0c-5.9,5.9-5.9,15.4,0,21.2l426.6,426.6c5.9,5.9,15.4,5.9,21.2,0
		C513.5,446.4,513.5,436.9,507.6,431z"/>
	<path d="M133.5,389.4h-0.2c71.7,55.8,140,113,146.4,118.2c15.2,12.4,32.8-3.4,32.8-24.5V297.8L133.5,123V389.4z"/>
</g>
</svg>
