<?xml version="1.0" encoding="utf-8"?>
<!-- Generator: Adobe Illustrator 19.2.0, SVG Export Plug-In . SVG Version: 6.00 Build 0)  -->
<svg version="1.1" id="Layer_1" xmlns="http://www.w3.org/2000/svg" xmlns:xlink="http://www.w3.org/1999/xlink" x="0px" y="0px"
	 viewBox="0 0 512 512" style="enable-background:new 0 0 512 512;" xml:space="preserve">
<g>
	<path d="M81.5,512.5h104c6.6,0,12-5.4,12-12v-488c0-6.6-5.4-12-12-12h-104c-6.6,0-12,5.4-12,12v488
		C69.5,507.1,74.9,512.5,81.5,512.5z"/>
	<path d="M314.5,12.5v488c0,6.6,5.4,12,12,12h104c6.6,0,12-5.4,12-12v-488c0-6.6-5.4-12-12-12h-104C319.9,0.5,314.5,5.9,314.5,12.5z
		"/>
</g>
</svg>
