<?xml version="1.0" encoding="utf-8"?>
<svg version="1.1" id="Layer_1" xmlns="http://www.w3.org/2000/svg" xmlns:xlink="http://www.w3.org/1999/xlink" x="0px" y="0px"
	 viewBox="0 0 512 512" enable-background="new 0 0 512 512" xml:space="preserve">
<g>
	<path d="M62.4,340.6c-10.8,45.6-25.7,95.3-35.7,140c-0.7,3.1,2,5.8,5.1,5.1c44.6-10.1,94.2-25.2,139.7-36.2
		c-3.9-19.3-13.8-47.7-38.9-72.3C108.5,353.8,81,344.4,62.4,340.6z"/>
	<path d="M154.2,358.1c24.7,24.7,36.8,52.6,42.6,74.3c74.9-74.6,149.9-149.3,224.8-223.9
		c-2.7-18.8-11.6-51.9-40.2-79.9c-27.5-26.9-59.3-35.3-77.4-38c-75,74.8-150,149.7-225,224.5c21.4,5.7,49.1,17.4,73.9,41.6
		C153.3,357.2,153.7,357.6,154.2,358.1z"/>
	<path d="M402.9,109.3c25,25,37.1,53.3,42.9,75.1c11.4-11.3,22.7-22.6,34.1-34c3.8-3.8,5.8-9,5.4-14.2
		c-1.2-16.1-6.8-48.8-33.8-75.9c-26.2-26.4-57.7-32.7-73.7-34.2c-5.4-0.5-10.7,1.4-14.6,5.3c-11.7,11.7-23.4,23.4-35.1,35
		c21.4,5.7,48.9,17.4,73.5,41.5C402,108.4,402.5,108.9,402.9,109.3z"/>
</g>
</svg>
