<?xml version="1.0" encoding="utf-8"?>
<!-- Generator: Adobe Illustrator 19.2.0, SVG Export Plug-In . SVG Version: 6.00 Build 0)  -->
<svg version="1.1" id="Layer_1" xmlns="http://www.w3.org/2000/svg" xmlns:xlink="http://www.w3.org/1999/xlink" x="0px" y="0px"
	 viewBox="0 0 512 512" style="enable-background:new 0 0 512 512;" xml:space="preserve">
<path d="M469.6,42.4C420.9-6.2,382.3-0.2,378.1,0.7l-4.8,1L42.1,332.8c-3.4,3.4-5.8,7.8-6.8,12.5L1.3,506c-0.6,2.8,1.9,5.3,4.7,4.7
	l160.7-34.1c4.7-1,9.1-3.4,12.5-6.8l331.2-331.2l0.9-4.9C512.2,129.6,518,90.9,469.6,42.4z M43.2,464l20.2-95.2
	c0.5-2.3,2.8-3.7,5.1-3c12.4,3.9,29.7,12,46.3,28.6c17.1,17.1,26,35.8,30.5,49.2c0.8,2.3-0.6,4.7-3,5.2l-94.4,20
	C45.1,469.4,42.6,466.9,43.2,464z M178.8,424.6c-2,2-5.4,1.3-6.5-1.3c-6.5-15.6-17.1-34.3-34.6-51.8C121.2,355,104,345,89.4,339
	c-2.6-1.1-3.3-4.5-1.3-6.5l150.8-150.8l95.5-95.5c1-1,2.3-1.4,3.7-1.1c11.8,2.5,34.1,9.9,55.1,30.9c21.4,21.4,29.9,45.4,33.2,58.2
	c0.3,1.4,0,2.8-1,3.8l-95.1,95.1L178.8,424.6z M457.2,146.2c-2,2-5.4,1.3-6.5-1.3c-6.5-15.6-17.1-34.3-34.6-51.8
	c-16.5-16.5-33.7-26.5-48.3-32.5c-2.6-1.1-3.3-4.5-1.3-6.5L387,33.7c0.9-0.9,2-1.3,3.2-1.2c9.8,1,30.3,6.6,56.5,32.8l0,0
	c26.2,26.2,31.8,46.8,32.8,56.5c0.1,1.2-0.3,2.4-1.2,3.2L457.2,146.2z"/>
</svg>
