<?xml version="1.0" encoding="utf-8"?>
<!-- Generator: Adobe Illustrator 19.1.0, SVG Export Plug-In . SVG Version: 6.00 Build 0)  -->
<svg version="1.1" id="Layer_1" xmlns="http://www.w3.org/2000/svg" xmlns:xlink="http://www.w3.org/1999/xlink" x="0px" y="0px"
	 viewBox="0 0 512 512" style="enable-background:new 0 0 512 512;" xml:space="preserve">
<path d="M487,239.7H213.3c-7.4-33.7-37.4-59.1-73.4-59.1S74,206,66.6,239.7H21c-8.8,0-16,7.2-16,16s7.2,16,16,16h45.6
	c7.4,33.7,37.4,59.1,73.4,59.1s66-25.3,73.4-59.1H487c8.8,0,16-7.2,16-16S495.8,239.7,487,239.7z M140,298.8
	c-23.8,0-43.1-19.3-43.1-43.1s19.3-43.1,43.1-43.1s43.1,19.3,43.1,43.1S163.7,298.8,140,298.8z"/>
<path d="M487,418.1h-62c-7.4-33.7-37.4-59.1-73.4-59.1s-66,25.3-73.4,59.1H21c-8.8,0-16,7.2-16,16s7.2,16,16,16h257.2
	c7.4,33.7,37.4,59.1,73.4,59.1s66-25.3,73.4-59.1h62c8.8,0,16-7.2,16-16S495.8,418.1,487,418.1z M394.7,434.1
	c0,23.8-19.3,43.1-43.1,43.1s-43.1-19.3-43.1-43.1s19.3-43.1,43.1-43.1S394.7,410.3,394.7,434.1z"/>
<path d="M21,93.4h257.2c7.4,33.7,37.4,59.1,73.4,59.1s66-25.3,73.4-59.1h62c8.8,0,16-7.2,16-16s-7.2-16-16-16h-62
	c-7.4-33.7-37.4-59.1-73.4-59.1s-66,25.3-73.4,59.1H21c-8.8,0-16,7.2-16,16S12.2,93.4,21,93.4z M351.6,34.3
	c23.8,0,43.1,19.3,43.1,43.1s-19.3,43.1-43.1,43.1s-43.1-19.3-43.1-43.1S327.8,34.3,351.6,34.3z"/>
</svg>
