<?xml version="1.0" encoding="utf-8"?>
<!-- Generator: Adobe Illustrator 19.2.0, SVG Export Plug-In . SVG Version: 6.00 Build 0)  -->
<svg version="1.1" id="Layer_1" xmlns="http://www.w3.org/2000/svg" xmlns:xlink="http://www.w3.org/1999/xlink" x="0px" y="0px"
	 viewBox="0 0 512 512" style="enable-background:new 0 0 512 512;" xml:space="preserve">
<g>
	<path d="M495,127h-76c-2.2,0-4-1.8-4-4V15c0-8.8-7.2-16-16-16H111c-8.8,0-16,7.2-16,16v108c0,2.2-1.8,4-4,4H15c-8.8,0-16,7.2-16,16
		v224c0,8.8,7.2,16,16,16h76c2.2,0,4,1.8,4,4l0.4,108.6c0,8.8,7.2,15.9,16,15.9h288.1c8.8,0,16-7.2,16-16v-108c0-2.2,1.8-4,4-4
		l75.6-0.4c8.8,0,15.9-7.2,15.9-16V143C511,134.2,503.8,127,495,127z M127,35c0-2.2,1.8-4,4-4h248c2.2,0,4,1.8,4,4v88
		c0,2.2-1.8,4-4,4H131c-2.2,0-4-1.8-4-4V35z M383.5,475.5c0,2.2-1.8,4-4,4h-248c-2.2,0-4-1.8-4-4v-152c0-2.2,1.8-4,4-4h248
		c2.2,0,4,1.8,4,4V475.5z M479.5,347c0,2.2-1.8,4-4,4H419c-2.2,0-4-1.8-4-4v-44c0-8.8-7.2-16-16-16H111c-8.8,0-16,7.2-16,16v44
		c0,2.2-1.8,4-4,4H35c-2.2,0-4-1.8-4-4V163c0-2.2,1.8-4,4-4l440.5,0.5c2.2,0,4,1.8,4,4V347z"/>
	<path d="M431.6,191.5h-32.3c-8.7,0-15.8,7.1-15.8,15.8v0.3c0,8.7,7.1,15.8,15.8,15.8h32.3c8.7,0,15.8-7.1,15.8-15.8v-0.3
		C447.4,198.6,440.3,191.5,431.6,191.5z"/>
	<path d="M303.6,351.5H175.3c-8.7,0-15.8,7.1-15.8,15.8v0.3c0,8.7,7.1,15.8,15.8,15.8h128.3c8.7,0,15.8-7.1,15.8-15.8v-0.3
		C319.4,358.6,312.3,351.5,303.6,351.5z"/>
	<path d="M239.6,415.5h-64.3c-8.7,0-15.8,7.1-15.8,15.8v0.3c0,8.7,7.1,15.8,15.8,15.8h64.3c8.7,0,15.8-7.1,15.8-15.8v-0.3
		C255.4,422.6,248.3,415.5,239.6,415.5z"/>
</g>
</svg>
