<?xml version="1.0" encoding="utf-8"?>
<!-- Generator: Adobe Illustrator 19.1.0, SVG Export Plug-In . SVG Version: 6.00 Build 0)  -->
<svg version="1.1" id="Layer_1" xmlns="http://www.w3.org/2000/svg" xmlns:xlink="http://www.w3.org/1999/xlink" x="0px" y="0px"
	 viewBox="0 0 512 512" style="vertical-align: bottom;" enable-background="new 0 0 512 512" xml:space="preserve">
<path fill="#0092FF" d="M437,75C337-25,175-25,75,75S-25,337,75,437s262.1,100,362,0S537,175,437,75z M397.1,266.1
	c-2.8,39.7-21.5,75.2-52.6,100.1c-25.3,20.3-55.8,31-88.1,31c-5.2,0-10.5-0.3-15.7-0.9c-37.5-4.1-71.2-22.6-94.8-52.1
	c-23.6-29.4-34.3-66.3-30.2-103.8c4.1-37.5,22.6-71.2,52.1-94.8c29.4-23.6,66.3-34.3,103.8-30.2c32.9,3.6,62.8,18.3,85.6,41.7
	l2.4-22c0.9-8.2,8.3-14.2,16.6-13.3c8.2,0.9,14.2,8.3,13.3,16.6l-8.2,73.9l-73.9-8.2c-4-0.4-7.6-2.4-10.1-5.5s-3.6-7-3.2-11
	c0.9-8.2,8.3-14.2,16.6-13.3l23.8,2.6c-17.8-17.7-40.9-28.8-66.2-31.6c-29.6-3.3-58.6,5.2-81.7,23.7c-23.2,18.6-37.7,45.1-41,74.6
	c-3.3,29.5,5.2,58.6,23.8,81.7c38.4,47.9,108.5,55.6,156.4,17.2c24.5-19.6,39.2-47.6,41.4-78.8c0.6-7.9,7.1-14,15-14c0,0,0,0,0,0
	c4.1,0,8.2,1.7,11,4.8C395.9,257.8,397.4,261.9,397.1,266.1z"/>
<path fill="#FFFFFF" d="M382.1,250C382.1,250,382.1,250,382.1,250c-7.8,0-14.4,6.1-15,14c-2.2,31.2-16.9,59.2-41.4,78.8
	c-47.9,38.4-118,30.6-156.4-17.2c-18.6-23.2-27-52.2-23.8-81.7c3.3-29.5,17.8-56,41-74.6c23.1-18.5,52.2-27,81.7-23.7
	c25.4,2.8,48.5,13.9,66.2,31.6l-23.8-2.6c-8.2-0.9-15.7,5-16.6,13.3c-0.4,4,0.7,7.9,3.2,11s6.1,5.1,10.1,5.5l73.9,8.2l8.2-73.9
	c0.9-8.2-5.1-15.7-13.3-16.6c-8.2-0.9-15.7,5-16.6,13.3l-2.4,22c-22.8-23.4-52.7-38.1-85.6-41.7c-37.5-4.1-74.4,6.6-103.8,30.2
	c-29.4,23.6-47.9,57.2-52.1,94.8c-4.1,37.5,6.6,74.4,30.2,103.8c23.6,29.4,57.2,47.9,94.8,52.1c5.2,0.6,10.5,0.9,15.7,0.9
	c32.3,0,62.7-10.7,88.1-31c31.1-24.9,49.8-60.5,52.6-100.1c0.3-4.1-1.2-8.3-4-11.3C390.3,251.7,386.3,250,382.1,250z"/>
</svg>
