<?xml version="1.0" encoding="utf-8"?>
<!-- Generator: Adobe Illustrator 19.2.0, SVG Export Plug-In . SVG Version: 6.00 Build 0)  -->
<svg version="1.1" id="Layer_1" xmlns="http://www.w3.org/2000/svg" xmlns:xlink="http://www.w3.org/1999/xlink" x="0px" y="0px"
	 viewBox="0 0 512 512" style="enable-background:new 0 0 512 512;" xml:space="preserve">
<g id="Layer_2_2_">
	<g>
		<path d="M99.4,342.3L8.5,433.4c-4.7,4.7-4.7,12.3,0,17l53.1,53.2c4.7,4.7,12.3,4.7,17,0l90.9-91c4.7-4.7,12.3-4.7,17,0l12.2,12.2
			c7,7,18.9,3,20.4-6.7L238.5,287c1.2-8-5.7-14.8-13.6-13.6L93.8,292.7c-9.7,1.4-13.7,13.4-6.7,20.3l12.3,12.3
			C104.1,330,104.1,337.6,99.4,342.3z"/>
		<path d="M503.5,61.7l-53-53.2c-4.7-4.7-12.3-4.7-17,0l-90.9,91c-4.7,4.7-12.3,4.7-17,0l-12.2-12.2c-7-7-18.9-3-20.4,6.7
			l-19.4,131.1c-1.2,8,5.7,14.8,13.6,13.6l130.9-19.4c9.7-1.4,13.7-13.4,6.7-20.3l-12.3-12.3c-4.7-4.7-4.7-12.3,0-17l90.9-91.1
			C508.2,73.9,508.2,66.4,503.5,61.7z"/>
	</g>
</g>
</svg>
