<?xml version="1.0" encoding="utf-8"?>
<!-- Generator: Adobe Illustrator 19.2.0, SVG Export Plug-In . SVG Version: 6.00 Build 0)  -->
<svg version="1.1" id="Layer_1" xmlns="http://www.w3.org/2000/svg" xmlns:xlink="http://www.w3.org/1999/xlink" x="0px" y="0px"
	 viewBox="0 0 512 512" style="enable-background:new 0 0 512 512;" xml:space="preserve">
<path d="M417.1,509.3h-0.4c-3.5-0.3-6.5-1.8-8.7-4.3c-2.2-2.6-3.3-5.8-3.1-9.3v-0.2l6.3-49.2C366.1,485.4,308.4,507,248.5,507
	c-9.7,0-19.7-0.6-29.4-1.8c-65.8-7.9-124.6-40.9-165.5-93.1C14.1,361.7-3.9,297.6,3,231.7c0.1-1.3,0.3-2.6,0.4-3.9
	c0.3-3,1.4-5.6,3-8c3.4-5,8.9-7.9,14.9-7.9c0.7,0,1.5,0,2.2,0.1c4.8,0.5,9.1,3,12.1,6.8c3,3.7,4.2,8.4,3.8,13v0.3
	c-0.1,1.1-0.2,2.2-0.4,3.3c-5.9,56.5,9.4,111.4,43.1,154.3c35,44.5,85.2,72.8,141.5,79.5c8.4,1,16.8,1.5,25.2,1.5
	c51.4,0,100.9-18.6,139.5-52.3c1.6-1.4,3.1-2.7,4.7-4.1l-60.6-1.5h-0.2c-4.5-0.3-8.8-2.3-11.4-5.3c-1.8-2.1-2.7-4.8-2.4-7.4v-0.2
	l0.2-5.4v-0.4c0.3-2.1,1.1-4.1,2.3-5.9c2.6-3.8,7.1-6.2,11.6-6.2c0.2,0,0.4,0,0.5,0l96.1,2.6h0.4l6.3,0.3c3.6,0.2,6.8,1.7,9.1,4.4
	c2.3,2.6,3.4,6,3.1,9.6l-0.6,6.3l-0.1,0.4l-11.6,93.7c-0.2,2.2-1,4.2-2.1,5.8c-2.2,3.3-6,5.2-10.6,5.2h-1L417.1,509.3z M492.3,298.6
	c-0.7,0-1.5,0-2.1-0.1c-9.7-1.2-16.8-10-15.8-19.8v-0.3c0.1-1,0.2-2,0.3-3.1c5.8-55.1-9.9-109.4-44.2-153.1
	c-35-44.5-85.2-72.8-141.4-79.5c-8.9-1.1-17.8-1.6-26.5-1.6c-20.6,0-41,3-60.7,8.8c-28.4,8.5-54.1,22.6-76.5,42.1
	c-5,4.3-9.7,8.9-14.3,13.6l61.4,1.5h0.2c4.2,0.3,8.4,2.3,10.9,5.3c2.5,2.9,2.9,5.8,2.6,7.8v0.3l0.1,5l-0.1,0.6c-0.3,2-1.1,4-2.2,5.7
	c-2.6,3.8-7.1,6.2-11.6,6.2c-0.2,0-0.4,0-0.6,0l-96.1-2.6h-0.3l-6.5-0.3c-3.6-0.2-6.8-1.7-9.1-4.4c-2.3-2.6-3.4-6-3.1-9.6l0.6-6.3
	l0.1-0.4l11.6-93.7c0.2-2.2,1.1-4.3,2.3-6.1c2.5-3.7,6.7-6,11.1-6.2h1.1l5,1.2h0.4c2.9,0.2,5.3,1.6,7.3,3.8
	c2.4,2.9,3.8,7.2,3.5,11.2v0.3l-6,47.3c2.6-2.5,5.3-5,7.9-7.3C127.9,42,158,25.4,191.2,15.4C214.3,8.5,238.3,5,262.5,5
	c10.2,0,20.6,0.6,30.9,1.9c65.8,7.8,124.6,40.9,165.5,93.1c40.1,51.1,58.5,114.6,51.7,179.1c-0.1,1.3-0.3,2.4-0.4,3.7
	c-0.3,2.9-1.4,5.6-3,8C503.8,295.6,498.2,298.6,492.3,298.6L492.3,298.6z"/>
</svg>
