<?xml version="1.0" encoding="utf-8"?>
<!-- Generator: Adobe Illustrator 19.2.0, SVG Export Plug-In . SVG Version: 6.00 Build 0)  -->
<svg version="1.1" id="Layer_1" xmlns="http://www.w3.org/2000/svg" xmlns:xlink="http://www.w3.org/1999/xlink" x="0px" y="0px"
	 viewBox="0 0 512 512" style="enable-background:new 0 0 512 512;" xml:space="preserve">
<path d="M500.7,431.3l-94.2-94.1c21.4-33.9,33.9-74.1,33.9-117.2c0-121.5-98.6-220-220.2-220C98.6,0,0,98.5,0,220
	c0,121.5,98.6,220,220.2,220c42.9,0,82.9-12.3,116.7-33.5l94.3,94.2c15.1,15,39.5,15,54.5,0l15-15
	C515.8,470.7,515.8,446.3,500.7,431.3z M220.2,379.1c-88,0-159.3-71.2-159.3-159.1c0-87.9,71.3-159.1,159.3-159.1
	c88,0,159.2,71.2,159.2,159.1C379.4,307.9,308.1,379.1,220.2,379.1z"/>
</svg>
