<svg id="7d303404-767e-4590-8b6f-51cefa4b1f5c" data-name="Layer 1" xmlns="http://www.w3.org/2000/svg" viewBox="0 0 512.02 511.95">
  <title>search_grey</title>
  <path d="M500.7,431.3l-94.2-94.1A218.93,218.93,0,0,0,440.4,220C440.4,98.5,341.8,0,220.2,0S0,98.5,0,220,98.6,440,220.2,440a218.91,218.91,0,0,0,116.7-33.5l94.3,94.2a38.63,38.63,0,0,0,54.5,0l15-15A38.33,38.33,0,0,0,500.7,431.3ZM220.2,379.1c-88,0-159.3-71.2-159.3-159.1S132.2,60.9,220.2,60.9A159.08,159.08,0,0,1,379.4,220C379.4,307.9,308.1,379.1,220.2,379.1Z" transform="translate(0 0)" style="fill: #898989"/>
</svg>
