<?xml version="1.0" encoding="utf-8"?>
<!-- Generator: Adobe Illustrator 21.0.2, SVG Export Plug-In . SVG Version: 6.00 Build 0)  -->
<svg version="1.1" id="Layer_1" xmlns="http://www.w3.org/2000/svg" xmlns:xlink="http://www.w3.org/1999/xlink" x="0px" y="0px"
	 viewBox="0 0 1000 1000" enable-background="new 0 0 1000 1000" xml:space="preserve">
<path d="M881.8,145.5H865v-35.8C865,74,836,45,800.3,45H119.7C84,45,55,74,55,109.7v680.5C55,826,84,855,119.7,855h16.8v35.8
	c0,35.7,29,64.7,64.7,64.7h680.5c35.7,0,64.7-29,64.7-64.7V210.2C946.5,174.5,917.5,145.5,881.8,145.5z M136.5,210.2V825h-16.8
	c-19.2,0-34.7-15.6-34.7-34.7V109.7C85,90.6,100.6,75,119.7,75h680.5c19.2,0,34.7,15.6,34.7,34.7v35.8H201.2
	C165.5,145.5,136.5,174.5,136.5,210.2z M916.5,890.8c0,19.2-15.6,34.7-34.7,34.7H201.2c-19.2,0-34.7-15.6-34.7-34.7V210.2
	c0-19.2,15.6-34.7,34.7-34.7h680.5c19.2,0,34.7,15.6,34.7,34.7V890.8z"/>
<polygon points="786,423 457,751.9 289,584 328,545 337.3,554.4 457,674.1 706.5,424.6 747,384 "/>
</svg>
