<?xml version="1.0" encoding="utf-8"?>
<!-- Generator: Adobe Illustrator 19.1.0, SVG Export Plug-In . SVG Version: 6.00 Build 0)  -->
<svg version="1.1" id="Layer_1" xmlns="http://www.w3.org/2000/svg" xmlns:xlink="http://www.w3.org/1999/xlink" x="0px" y="0px"
	 viewBox="0 0 512 512" style="enable-background:new 0 0 512 512;" xml:space="preserve">
<path d="M421.2,329.8c-29.5,0-55.7,14.1-72.3,35.8l-167.6-99.6c0.4-3.3,0.6-6.7,0.6-10.1c0-3.9-0.2-7.7-0.7-11.4l165.7-101.3
	c16.5,23.3,43.7,38.5,74.3,38.5c50.2,0,91-40.8,91-91s-40.8-91-91-91s-91,40.8-91,91c0,8.1,1.1,15.9,3,23.3l-162.1,99
	c-15.3-28.7-45.6-48.2-80.3-48.2c-50.2,0-91,40.8-91,91s40.8,91,91,91c35.2,0,65.8-20.1,80.9-49.4l162.4,96.5
	c-2.6,8.4-4,17.4-4,26.7c0,50.2,40.8,91,91,91s91-40.8,91-91S471.3,329.8,421.2,329.8z M421.2,31.8c32.5,0,59,26.5,59,59
	s-26.5,59-59,59s-59-26.5-59-59S388.6,31.8,421.2,31.8z M90.8,315c-32.5,0-59-26.5-59-59c0-32.5,26.5-59,59-59s59,26.5,59,59
	C149.8,288.5,123.4,315,90.8,315z M421.2,479.8c-32.5,0-59-26.5-59-59s26.5-59,59-59s59,26.5,59,59S453.7,479.8,421.2,479.8z"/>
</svg>
