<svg id="6f98dee4-bb10-42fc-9d04-ab9c24759891" data-name="Layer 1" xmlns="http://www.w3.org/2000/svg" viewBox="0 0 542.5 489.98">
  <path d="M596.88,200.54v21A16.54,16.54,0,0,1,580.34,238h-57.8A16.55,16.55,0,0,1,506,221.49v-21A16.55,16.55,0,0,1,522.54,184h57.8A16.54,16.54,0,0,1,596.88,200.54Z" transform="translate(-229.5 -175.14)"/>
  <path d="M631.61,304v21a16.54,16.54,0,0,1-16.54,16.54H522.54A16.55,16.55,0,0,1,506,325V304a16.55,16.55,0,0,1,16.54-16.54h92.53A16.54,16.54,0,0,1,631.61,304Z" transform="translate(-229.5 -175.14)"/>
  <rect x="276.5" y="215.84" width="166.99" height="54.04" rx="16.54" ry="16.54"/>
  <rect x="276.5" y="319.33" width="211.32" height="54.04" rx="16.54" ry="16.54"/>
  <path d="M772,614.51v20.95A16.55,16.55,0,0,1,755.46,652H522.54A16.55,16.55,0,0,1,506,635.46V614.51A16.55,16.55,0,0,1,522.54,598H755.46A16.55,16.55,0,0,1,772,614.51Z" transform="translate(-229.5 -175.14)"/>
  <path d="M464.57,540.18l-100,117.92a19.89,19.89,0,0,1-30.33,0l-100-117.92a19.88,19.88,0,0,1,15.16-32.74H302.3V206.56a31.42,31.42,0,0,1,31.42-31.42h30.4a31.42,31.42,0,0,1,31.42,31.42V507.44H449.4A19.88,19.88,0,0,1,464.57,540.18Z" transform="translate(-229.5 -175.14)"/>
</svg>
