<svg id="cc1911ff-d514-43ae-95cd-387c8635526f" data-name="Layer 1" xmlns="http://www.w3.org/2000/svg" viewBox="0 0 542.5 489.98">
  <path d="M596.88,200.54v21A16.54,16.54,0,0,1,580.34,238h-57.8A16.55,16.55,0,0,1,506,221.49v-21A16.55,16.55,0,0,1,522.54,184h57.8A16.54,16.54,0,0,1,596.88,200.54Z" transform="translate(-229.5 -175.14)"/>
  <path d="M631.61,304v21a16.54,16.54,0,0,1-16.54,16.54H522.54A16.55,16.55,0,0,1,506,325V304a16.55,16.55,0,0,1,16.54-16.54h92.53A16.54,16.54,0,0,1,631.61,304Z" transform="translate(-229.5 -175.14)"/>
  <rect x="276.5" y="215.84" width="166.99" height="54.04" rx="16.54" ry="16.54"/>
  <rect x="276.5" y="319.33" width="211.32" height="54.04" rx="16.54" ry="16.54"/>
  <path d="M772,614.51v20.95A16.55,16.55,0,0,1,755.46,652H522.54A16.55,16.55,0,0,1,506,635.46V614.51A16.55,16.55,0,0,1,522.54,598H755.46A16.55,16.55,0,0,1,772,614.51Z" transform="translate(-229.5 -175.14)"/>
  <path d="M234.25,300.08l100-117.92a19.89,19.89,0,0,1,30.33,0l100,117.92a19.88,19.88,0,0,1-15.16,32.74H396.52V633.7a31.42,31.42,0,0,1-31.42,31.42H334.7a31.42,31.42,0,0,1-31.42-31.42V332.82H249.42A19.88,19.88,0,0,1,234.25,300.08Z" transform="translate(-229.5 -175.14)"/>
</svg>
