<?xml version="1.0" encoding="utf-8"?>
<!-- Generator: Adobe Illustrator 19.2.0, SVG Export Plug-In . SVG Version: 6.00 Build 0)  -->
<svg version="1.1" id="Layer_1" xmlns="http://www.w3.org/2000/svg" xmlns:xlink="http://www.w3.org/1999/xlink" x="0px" y="0px"
	 viewBox="0 0 512 512" style="enable-background:new 0 0 512 512;" xml:space="preserve">
<style type="text/css">
	.st0{display:none;}
</style>
<polygon class="st0" points="346.3,128.2 239.5,-9.5 134.7,128.2 150.4,140.4 229.5,35.9 229.5,352.5 249.5,352.5 249.5,35.9
	330.3,140.4 "/>
<path d="M448.5,364.5v72c0,6.6-5.4,12-12,12h-360c-6.6,0-12-5.4-12-12v-72c0-6.6-5.4-12-12-12h-40c-6.6,0-12,5.4-12,12v136
	c0,6.6,5.4,12,12,12h488c6.6,0,12-5.4,12-12v-136c0-6.6-5.4-12-12-12h-40C453.9,352.5,448.5,357.9,448.5,364.5z"/>
<path d="M383.8,127.8L256.5,0.5l0,0l0,0L129.2,127.8c-4.7,4.7-4.7,12.3,0,17l28.3,28.3c4.7,4.7,12.3,4.7,17,0l50-50v217.5
	c0,6.6,5.4,12,12,12h40c6.6,0,12-5.4,12-12V123l50,50c4.7,4.7,12.3,4.7,17,0l28.3-28.3C388.5,140.1,388.5,132.5,383.8,127.8z"/>
</svg>
