<?xml version="1.0" encoding="utf-8"?>
<!-- Generator: Adobe Illustrator 21.0.2, SVG Export Plug-In . SVG Version: 6.00 Build 0)  -->
<svg version="1.1" id="Layer_1" xmlns="http://www.w3.org/2000/svg" xmlns:xlink="http://www.w3.org/1999/xlink" x="0px" y="0px"
	 viewBox="0 0 741 253" enable-background="new 0 0 741 253" xml:space="preserve">
<rect x="295" y="87.5" fill="#C4C4C4" width="151.5" height="3.6"/>
<g>
	<path fill="#2CD0F4" d="M343.9,89c0,1.8,2.9,2.9-19.7,1.9C311.5,90,311,90,303.4,89c7.5-1,8.7-1,20.2-2.1
		C347.4,84.8,343.9,87.1,343.9,89z"/>
</g>
<path fill="#2CD0F4" d="M352.8,88.7c0,4.6-5,8.4-11.2,8.4c-5.1,0-9.4-2.5-10.8-5.9c-1.9-0.1-4-0.2-6.5-0.3C311.5,90,311,90,303.5,89
	c7.5-1,8.7-1,20.2-2.1c2.7-0.2,5-0.4,7-0.6c1.3-3.5,5.7-6.1,10.8-6.1C347.7,80.3,352.8,84,352.8,88.7z"/>
<g>
	<path fill="#2CD0F4" d="M428.1,89c0,1.8,2.9,2.9-19.7,1.9C395.7,90,395.2,90,387.6,89c7.5-1,8.7-1,20.2-2.1
		C431.6,84.8,428.1,87.1,428.1,89z"/>
</g>
<path fill="#2CD0F4" d="M437,88.7c0,4.6-5,8.4-11.2,8.4c-5.1,0-9.4-2.5-10.8-5.9c-1.9-0.1-4-0.2-6.5-0.3C395.7,90,395.2,90,387.6,89
	c7.5-1,8.7-1,20.2-2.1c2.7-0.2,5-0.4,7-0.5c1.3-3.5,5.7-6.1,10.8-6.1C431.9,80.3,437,84,437,88.7z"/>
<g>
	<g>
		<path fill="#E3E3E3" d="M289.2,231.3c0,8.7-63.1,15.7-140.8,15.7c-77.8,0-140.8-7-140.8-15.7c0-7.2,43.4-13.2,102.6-15.1
			l-4.7,11.5h89.5l-4.7-11.4C247.5,218.3,289.2,224.3,289.2,231.3z"/>
	</g>
</g>
<g>
	<rect x="7.2" y="4.3" fill="#D6DCDE" width="285.9" height="171.9"/>
	<path fill="#AEAEAE" d="M6.3,3.4v173.6H294V3.4H6.3z M293.1,176.2H7.2V4.3h285.9V176.2z"/>
</g>
<g>
	<rect x="21.5" y="19.9" fill="#FFFFFF" width="257.3" height="143"/>
	<path fill="#AEAEAE" d="M20.6,19.1v144.7h259V19.1H20.6z M278.8,163H21.5v-143h257.3V163z"/>
</g>
<g>
	<path fill="#AEAEAE" d="M190.2,216.3l-13.1-31.8l-0.1-0.3h-53.7l-13.2,31.9l-4.7,11.5h89.5L190.2,216.3z M111,216.2l12.8-31.1h52.6
		l12.9,31.2l4.3,10.5h-87L111,216.2z"/>
	<polygon fill="#FFFFFF" points="193.6,226.9 106.6,226.9 111,216.2 123.9,185.1 176.4,185.1 189.3,216.3 	"/>
</g>
<path fill="#F7F7F7" stroke="#BBBBBB" stroke-width="0.25" d="M181.8,73.3h35.8c0.9,0,1.7,0.8,1.7,1.7V108c0,0.9-0.8,1.7-1.7,1.7
	h-35.8c-0.9,0-1.7-0.8-1.7-1.7V75C180.1,74,180.8,73.3,181.8,73.3z"/>
<path fill="#F7F7F7" stroke="#BBBBBB" stroke-width="0.25" d="M129.8,29.7h35.8c0.9,0,1.7,0.8,1.7,1.7v33.1c0,0.9-0.8,1.7-1.7,1.7
	h-35.8c-0.9,0-1.7-0.8-1.7-1.7V31.3C128.2,30.4,128.9,29.7,129.8,29.7z"/>
<path fill="#439CDC" stroke="#1681CD" stroke-width="0.25" d="M181,29.7h35.8c0.9,0,1.7,0.8,1.7,1.7v33.1c0,0.9-0.8,1.7-1.7,1.7H181
	c-0.9,0-1.7-0.8-1.7-1.7V31.3C179.4,30.4,180.1,29.7,181,29.7z"/>
<path fill="#439CDC" stroke="#1681CD" stroke-width="0.25" d="M78.6,29.7h35.8c0.9,0,1.7,0.8,1.7,1.7v33.1c0,0.9-0.8,1.7-1.7,1.7
	H78.6c-0.9,0-1.7-0.8-1.7-1.7V31.3C77,30.4,77.7,29.7,78.6,29.7z"/>
<path fill="#F7F7F7" stroke="#BBBBBB" stroke-width="0.25" d="M232.2,29.7H268c0.9,0,1.7,0.8,1.7,1.7v33.1c0,0.9-0.8,1.7-1.7,1.7
	h-35.8c-0.9,0-1.7-0.8-1.7-1.7V31.3C230.6,30.4,231.3,29.7,232.2,29.7z"/>
<path fill="#439CDC" stroke="#1681CD" stroke-width="0.25" d="M130.3,73.3h35.8c0.9,0,1.7,0.8,1.7,1.7V108c0,0.9-0.8,1.7-1.7,1.7
	h-35.8c-0.9,0-1.7-0.8-1.7-1.7V75C128.7,74,129.4,73.3,130.3,73.3z"/>
<path fill="#F7F7F7" stroke="#BBBBBB" stroke-width="0.25" d="M78.6,73.3h35.8c0.9,0,1.7,0.8,1.7,1.7V108c0,0.9-0.8,1.7-1.7,1.7
	H78.6c-0.9,0-1.7-0.8-1.7-1.7V75C77,74,77.7,73.3,78.6,73.3z"/>
<g>
	<rect x="21.5" y="19.9" fill="#353535" width="46.7" height="143"/>
</g>
<g>
	<line fill="#FFFFFF" x1="35.2" y1="30.9" x2="61.8" y2="30.9"/>
	<path fill="#FFFFFF" d="M61.8,31.3H35.2c-0.2,0-0.4-0.2-0.4-0.4s0.2-0.4,0.4-0.4h26.7c0.2,0,0.4,0.2,0.4,0.4S62.1,31.3,61.8,31.3z"
		/>
</g>
<g>
	<line fill="#FFFFFF" x1="35.2" y1="40.8" x2="61.8" y2="40.8"/>
	<path fill="#FFFFFF" d="M61.8,41.2H35.2c-0.2,0-0.4-0.2-0.4-0.4s0.2-0.4,0.4-0.4h26.7c0.2,0,0.4,0.2,0.4,0.4S62.1,41.2,61.8,41.2z"
		/>
</g>
<g>
	<rect x="31.1" y="47.4" fill="#24A8E2" width="37.1" height="6.2"/>
</g>
<g>
	<path fill="#24A8E2" d="M28.2,36.2h-3.7c-1.2,0-2.2-1-2.2-2.2v-3.1c0-1.2,1-2.2,2.2-2.2h3.7c1.2,0,2.2,1,2.2,2.2V34
		C30.4,35.2,29.4,36.2,28.2,36.2z"/>
</g>
<g>
	<line fill="#FFFFFF" x1="35.2" y1="50.7" x2="61.8" y2="50.7"/>
	<path fill="#FFFFFF" d="M61.8,51.1H35.2c-0.2,0-0.4-0.2-0.4-0.4s0.2-0.4,0.4-0.4h26.7c0.2,0,0.4,0.2,0.4,0.4S62.1,51.1,61.8,51.1z"
		/>
</g>
<g>
	<g>
		<path fill="#E3E3E3" d="M729.4,231.3c0,8.7-63.1,15.7-140.8,15.7c-77.8,0-140.8-7-140.8-15.7c0-7.2,43.4-13.2,102.6-15.1
			l-4.7,11.5h89.5l-4.7-11.4C687.8,218.3,729.4,224.3,729.4,231.3z"/>
	</g>
</g>
<g>
	<rect x="447.4" y="4.3" fill="#D6DCDE" width="285.9" height="171.9"/>
	<path fill="#AEAEAE" d="M446.6,3.4v173.6h287.6V3.4H446.6z M733.4,176.2H447.4V4.3h285.9V176.2z"/>
</g>
<g>
	<rect x="461.7" y="19.9" fill="#FFFFFF" width="257.3" height="143"/>
	<path fill="#AEAEAE" d="M460.9,19.1v144.7h259V19.1H460.9z M719,163H461.7v-143H719V163z"/>
</g>
<g>
	<path fill="#AEAEAE" d="M630.5,216.3l-13.1-31.8l-0.1-0.3h-53.7l-13.2,31.9l-4.7,11.5h89.5L630.5,216.3z M551.3,216.2l12.8-31.1
		h52.6l12.9,31.2l4.3,10.5h-87L551.3,216.2z"/>
	<polygon fill="#FFFFFF" points="633.9,226.9 546.9,226.9 551.3,216.2 564.1,185.1 616.7,185.1 629.5,216.3 	"/>
</g>
<g>
	<path fill="#97DB21" d="M612.3,81.3L612.3,81.3L612.3,81.3L612.3,81.3z"/>
</g>
<g>
	<path fill="#84BC17" d="M590.4,58c-19.5,0-35.3,15.8-35.3,35.3s15.8,35.3,35.3,35.3c19.5,0,35.3-15.8,35.3-35.3S609.9,58,590.4,58z
		 M583.7,109.4l-13.8-13.8l2.3-2.3l2.3-2.3l9.2,9.2L601,82.9l4.9-4.9l2.3,2.3h0v0l2.3,2.3L583.7,109.4z"/>
	<polygon fill="#97DB21" points="608.2,80.3 608.2,80.3 608.2,80.3 	"/>
	<polygon fill="#FFFFFF" points="610.5,82.6 583.7,109.4 569.9,95.5 572.2,93.2 574.5,91 583.7,100.2 601,82.9 605.9,78 	"/>
</g>
<g id="bfab9deb-201d-4f6d-8712-da0da49a2c2e">
	<g id="_x38_25bdf92-8a41-4cdd-9caf-a8eb335ec3c2">
		<g id="_x34_3c24620-ad1c-480f-9c27-3e0c453bb89f">
			<path fill="#FFFFFF" d="M156.7,82.2l-3.7,3.7c-0.5-0.7-1.2-1.3-1.9-1.7l0.8-1.2l-1.2-0.8l-0.9,1.4c-0.5-0.1-1-0.2-1.5-0.2
				c-0.5,0-1.1,0.1-1.6,0.2l-0.9-1.4l-1.2,0.8l0.8,1.2c-0.7,0.4-1.3,1-1.8,1.6l-1.4-0.8l-0.7,1.2l1.3,0.8c-0.7,1.3-1,2.7-1.1,4.1
				h-0.9v1.4h1c0.1,1.2,0.5,2.4,1,3.4l-3.5,3.5l1.4,1.4l3.3-3.3l14-14L156.7,82.2z M147.9,88.3h-1.6v-1.6h1.6V88.3z M150.3,88.3
				h-1.6v-1.6h1.6V88.3z"/>
		</g>
		<g id="_x34_e3e8946-543d-4f6f-8109-8e1d0196fbf7">
			<path fill="#FFFFFF" d="M154.6,92.5c-0.1,1.3-0.5,2.5-1.1,3.6l1.4,0.8l-0.7,1.2l-1.5-0.9c-1.2,1.4-2.7,2.2-4.5,2.2
				c-1,0-1.9-0.3-2.7-0.8l9-9c0.1,0.5,0.1,0.9,0.1,1.4h0.9v1.4H154.6z"/>
		</g>
	</g>
</g>
<g id="dca97bbe-2582-4673-8054-379a21f7f873">
	<g id="_x30_a87c8e2-2588-42c1-a181-4fd0b462bcee">
		<g id="_x38_94d2e41-52b5-4ada-a895-b3dd55fc5d94">
			<path fill="#FFFFFF" d="M96.6,58.7l0-21.6h-0.8c-3.8,0.3-7.1,2.5-8.8,5.9c-0.1,0.2-0.2,0.4-0.3,0.6c-0.5,1.2-0.8,2.4-0.9,3.7v1.2
				c0.1,1.3,0.4,2.5,0.9,3.7c0.1,0.2,0.2,0.4,0.3,0.6c1.7,3.4,5.1,5.6,8.8,5.9h0.3v0H96.6z M94.8,38.5c-1.1,1.4-2,2.9-2.8,4.6h-3.7
				C89.7,40.7,92.1,39,94.8,38.5z M92.1,47.3c0.1-1.1,0.3-2.1,0.7-3.1H96v3.1H92.1z M96,48.5v3.1h-3.1c-0.4-1-0.6-2-0.7-3.1H96z
				 M87.7,44.2h3.8c-0.4,1-0.6,2-0.6,3.1H87C87,46.3,87.3,45.2,87.7,44.2z M87,48.5h3.9c0.1,1.1,0.3,2.1,0.6,3.1h-3.9
				C87.3,50.6,87,49.6,87,48.5z M88.3,52.8H92c0.8,1.6,1.7,3.1,2.7,4.6C92.1,56.9,89.7,55.2,88.3,52.8z M96,57
				c-1-1.3-1.9-2.7-2.6-4.2H96V57z M96,43h-2.7c0.8-1.5,1.6-2.9,2.7-4.2V43z"/>
		</g>
		<g id="_x37_19e2150-fe0c-448a-98a7-8b12ed09a38b">
			<path fill="none" d="M96.7,58.7h-0.1"/>
			<path fill="#FFFFFF" d="M100.1,53.3c-0.9,1.7-2,3.4-3.2,4.9v-4.9H100.1z"/>
			<path fill="#FFFFFF" d="M105.9,53.3c-1.7,2.8-4.6,4.8-7.8,5.3c1.3-1.6,2.4-3.4,3.3-5.3H105.9z"/>
			<path fill="#FFFFFF" d="M107.3,48.5c-0.1,1.2-0.3,2.4-0.8,3.6h-4.6c0.4-1.1,0.7-2.4,0.8-3.6H107.3z"/>
			<path fill="#FFFFFF" d="M107.3,47.3h-4.7c-0.1-1.2-0.3-2.4-0.7-3.6h4.6C107,44.9,107.3,46.1,107.3,47.3z"/>
			<path fill="#FFFFFF" d="M105.9,42.6h-4.5c-0.9-1.9-2-3.7-3.3-5.3C101.4,37.8,104.2,39.7,105.9,42.6z"/>
			<path fill="#FFFFFF" d="M101.4,47.3h-4.6v-3.6h3.7C101.1,44.9,101.4,46.1,101.4,47.3z"/>
			<path fill="#FFFFFF" d="M100.1,42.6h-3.2v-4.9C98.1,39.2,99.2,40.8,100.1,42.6z"/>
		</g>
		<g id="bd2e3e01-7f00-4bbf-b7bb-958db9d8df34">
			<path id="_x37_7035b6d-26b9-4629-87b4-acc80ae9c5f4" fill="none" d="M96.6,58.7h0.1"/>
			<path fill="#FFFFFF" d="M101.4,48.5c-0.1,1.2-0.4,2.4-0.9,3.6h-3.7v-3.6H101.4z"/>
		</g>
	</g>
</g>
<path fill="#636363" d="M96.9,81c-5.8,0-10.5,4.7-10.5,10.5s4.7,10.5,10.5,10.5s10.5-4.7,10.5-10.5S102.7,81,96.9,81z M96.9,100.6
	c-5,0-9.1-4.1-9.1-9.1c0-5,4.1-9.1,9.1-9.1c5,0,9.1,4.1,9.1,9.1C106,96.5,101.9,100.6,96.9,100.6z"/>
<polygon fill="#636363" points="91.8,93.4 91.8,92.1 89.4,92.1 89.4,90.8 91.8,90.8 91.8,89.6 95.2,91.5 "/>
<polygon fill="#636363" points="102,89.6 102,90.8 104.3,90.8 104.3,92.2 102,92.2 102,93.4 98.6,91.5 "/>
<polygon fill="#636363" points="98.8,96.6 97.5,96.6 97.5,99 96.2,99 96.2,96.6 94.9,96.6 96.9,93.2 "/>
<polygon fill="#636363" points="94.9,86.4 96.2,86.4 96.2,84 97.5,84 97.5,86.4 98.8,86.4 96.9,89.8 "/>
<path fill="#636363" d="M205,88.1h-0.8c0-0.5,0-1,0-1.6c0-2.4-1.9-4.3-4.3-4.3s-4.3,1.9-4.3,4.3c0,0.6,0,1.2,0,1.6h-0.8
	c-1.1,0-2,0.9-2,2c0,0,0,0,0,0v8.6c0,1.1,0.9,2,2,2c0,0,0,0,0,0H205c1.1,0,2-0.9,2-2c0,0,0,0,0,0v-8.6C207,89,206.1,88.1,205,88.1z
	 M200.8,96.9h-1.8v-3.8h1.8V96.9z M202.5,88.1h-5c0-0.4,0-1.1,0-1.6c0-1.4,1.1-2.5,2.5-2.5c1.4,0,2.5,1.1,2.5,2.5
	C202.5,87,202.5,87.6,202.5,88.1L202.5,88.1z"/>
<g id="_x38_8bc727f-5431-4050-b5dc-f5cad7394b88">
	<g id="_x35_25f1f8d-b243-4d3f-8884-f6790c187e85">
		<g id="bda4007c-bba2-44d5-a1e1-476d0183bba5">
			<g id="_x33_3bf520c-22ea-410f-971d-fa25cec9166d">
				<path fill="#FFFFFF" d="M201.5,40.8c-0.5,0.8-1.4,1.5-2.1,2.1c-0.8,0.7-1.6,1.3-1.6,1.9c0,1.6,1.1,3.8,1.1,3.8
					c0,0.1,0,0.2,0,0.2c-0.1,0.1-0.2,0.1-0.2,0c-0.1-0.1-3.4-2.6-2.3-4.9c0.6-1.3,1.8-2.1,2.8-2.8c0.7-0.5,1.3-0.9,1.6-1.4
					c0.4-0.7,0.5-1.5,0.4-2.3c0-0.1,0-0.2,0.1-0.2c0.1,0,0.2,0,0.2,0.1C201.3,37.2,202.6,39,201.5,40.8z"/>
			</g>
			<g id="_x32_76a9e68-c4e4-4a2f-ade4-09ae64748842">
				<path fill="#FFFFFF" d="M200.7,44.2c-0.4,0.7-0.1,1.1,0.2,1.6c0.3,0.4,0.5,0.8,0.6,1.2c0.3,1.4-1.3,2.5-1.4,2.5c0,0-0.1,0-0.1,0
					c-0.1,0-0.2-0.1-0.2-0.2c0,0,0-0.1,0-0.1c0.1-0.3,0.4-1,0.3-1.4c-0.1-0.2-0.2-0.4-0.3-0.5c-0.6-0.7-1-1.5-1-2.4
					c0-1.8,4-3.4,4.2-3.4c0.1,0,0.2,0,0.2,0.1c0,0.1,0,0.2-0.1,0.2C203.2,41.9,201.2,43.4,200.7,44.2z"/>
			</g>
			<g id="d0c7922a-3b6b-4016-8398-1220bc24c693">
				<path fill="#FFFFFF" d="M203.5,49.8c-0.1,0.1-1.5,1.2-5.2,1.3c-0.3,0-0.7,0-1,0c-2.4,0-3.9-0.3-4.3-0.9
					c-0.1-0.2-0.2-0.4-0.1-0.6c0.3-0.9,3.1-0.9,3.6-0.9c0.1,0,0.2,0.1,0.2,0.2c0,0.1-0.1,0.2-0.1,0.2c-0.9,0.2-1.7,0.5-1.8,0.7
					c0.2,0.1,1.2,0.2,3.1,0.2c1.7,0,4.2-0.1,5.5-0.5c0.1,0,0.2,0,0.2,0.1C203.5,49.7,203.5,49.8,203.5,49.8z"/>
			</g>
			<g id="dad0e3dd-74e9-4750-bf39-fe78b0933c6f">
				<path fill="#FFFFFF" d="M203.7,53L203.7,53c-0.1,0-0.2,0-0.2-0.1c0-0.1,0-0.2,0.1-0.2c0.7-0.4,2.4-1.7,2.2-2.5
					c-0.1-0.9-1.8-0.9-1.8-0.9c-0.1,0-0.2-0.1-0.2-0.1c0-0.1,0-0.2,0.1-0.2c0.5-0.2,1-0.4,1.5-0.4c0.7,0,1.5,0.3,1.7,1.6
					C207.5,52.2,203.8,53,203.7,53z"/>
			</g>
			<g id="fb2aa61c-7ea8-4e34-9c53-b4adeca4fca9">
				<path fill="#FFFFFF" d="M202.9,52.4c0,0.1-0.1,0.1-0.1,0.1c0,0-2.8,0.7-5,0.7l0,0c-0.2,0-0.4,0-0.6,0c-1.3-0.1-2.9-0.4-2.9-1.1
					c0-0.4,0.4-0.7,1.3-0.9c0.1,0,0.2,0,0.2,0.1c0,0.1,0,0.2-0.1,0.2c-0.1,0-0.2,0.1-0.2,0.2c0,0,0,0,0,0.1c0.1,0.1,1,0.3,2.3,0.3
					c0.6,0,1.2,0,1.7-0.1c0.8-0.1,1.5-0.2,2.3-0.4c0.1,0,0.1,0,0.1,0l0.9,0.6C202.9,52.3,202.9,52.3,202.9,52.4z"/>
			</g>
			<g id="_x30_6debbdf-a988-4fc1-9ed2-ded5b7f8c515">
				<path fill="#FFFFFF" d="M202.6,54.7c0,0.1,0,0.1-0.1,0.1c-1.2,0.5-2.4,0.7-3.7,0.7c-0.2,0-0.4,0-0.6,0c-1.7-0.1-2.7-0.4-3.1-0.8
					c-0.1-0.1-0.2-0.3-0.2-0.5c0.1-0.7,1.1-0.7,1.2-0.7c0.1,0,0.1,0,0.2,0.1c0,0.1,0,0.2-0.1,0.2c0,0,0,0,0,0.1
					c0.2,0.1,1.4,0.3,2.5,0.3c0.3,0,0.5,0,0.8,0c1.1-0.1,1.8-0.3,1.8-0.3c0,0,0.1,0,0.1,0l1.1,0.7C202.5,54.6,202.6,54.6,202.6,54.7
					z"/>
			</g>
			<g id="_x38_9c60d76-b3b7-4f88-867c-8ed4bb3b4532">
				<path fill="#FFFFFF" d="M205.9,56.2c-0.5,0.5-3.2,1.4-8.1,1.4c-5.1,0-6.1-0.6-6.5-1c-0.1-0.2-0.2-0.4-0.2-0.6
					c0.1-0.7,1.7-0.9,3.1-1l0.2,0c0.1,0,0.2,0,0.2,0.1c0,0,0,0,0,0c0,0.1-0.1,0.2-0.1,0.2c-0.9,0.1-1.6,0.4-1.8,0.6
					c0.3,0.3,2.6,0.7,5.6,0.7c0.5,0,1,0,1.5,0c3.4-0.2,5.5-0.7,5.7-0.9c0.1-0.1,0.1-0.2,0-0.2c-0.1-0.1-0.1-0.2,0-0.2
					c0.1-0.1,0.2-0.1,0.2,0c0.2,0.1,0.3,0.3,0.3,0.5C206.1,55.8,206,56,205.9,56.2z"/>
			</g>
			<g id="_x38_6f08bcc-a654-4b41-bfbf-e10abf74aa3e">
				<path fill="#FFFFFF" d="M207,56.5c0,0.1-0.2,1.3-2.8,1.8c-1.5,0.2-2.9,0.4-4.4,0.4c-1.9,0-3.7-0.2-5.5-0.5
					c-0.1,0-0.1-0.1-0.1-0.2c0-0.1,0.1-0.2,0.2-0.2c0,0,2.2,0.1,4.6,0.1s3.9-0.1,4.8-0.3c2.2-0.5,3-1.2,3-1.2c0.1-0.1,0.2-0.1,0.3,0
					C207,56.4,207,56.4,207,56.5L207,56.5z"/>
			</g>
		</g>
	</g>
</g>
<g id="_x32_7817fd1-c3c6-4dfc-9dab-93d367989981">
	<g id="bf36bdf6-874b-4a81-ab0e-c8d4ed479d4c">
		<g id="ecbb8db3-4439-411e-b99d-e0175b008b5d">
			<path fill="#636363" d="M150.9,52L150.9,52z"/>
			<path fill="#636363" d="M150.8,56.6L150.8,56.6z"/>
			<path fill="#636363" d="M156.7,47.1v-2.5c0-1-0.8-1.9-1.9-1.9h-4.1c0.8-1.2,0.4-2.8-0.7-3.5c-1.2-0.8-2.8-0.4-3.5,0.7
				c-0.6,0.8-0.6,1.9,0,2.8h-3.9c-1,0-1.9,0.8-1.9,1.9v3.8c1.1-0.9,2.7-0.7,3.6,0.4c0.9,1.1,0.7,2.7-0.4,3.6c-0.9,0.8-2.3,0.8-3.2,0
				v4.5c0,1,0.8,1.9,1.9,1.9h8c1.6,0,5.3,0.1,6.2,0L156.7,47.1z"/>
		</g>
	</g>
</g>
<g id="_x30_6422a15-d0f7-40c4-8cd1-467508528693">
	<g id="_x38_392ca31-3465-42f6-a2c4-36bc2e230af7">
		<g id="ed73a25b-51f1-43ae-9de3-e457e8105fa6">
			<g id="_x33_d7590a3-1e6f-473c-9a3a-c6c8d45201c1">
				<path fill="#636363" d="M257.3,42.4v1.4h-1.5c-0.4,1.1-1.6,1.6-2.6,1.3c-0.6-0.2-1.1-0.7-1.3-1.3h-8.4v-1.4h8.4
					c0.4-1.1,1.6-1.6,2.6-1.3c0.6,0.2,1.1,0.7,1.3,1.3H257.3z"/>
			</g>
			<g id="dff7b0c6-d9a1-4cdf-b39e-ade1462aa2a9">
				<path fill="#636363" d="M257.3,47.2v1.4h-8.1c-0.4,1.1-1.6,1.6-2.6,1.3c-0.6-0.2-1.1-0.7-1.3-1.3h-1.9v-1.4h1.9
					c0.4-1.1,1.6-1.7,2.7-1.3c0.6,0.2,1.1,0.7,1.3,1.3H257.3z"/>
			</g>
			<g id="_x37_e4d9836-35e7-4ed7-8aa9-6ffc411bed30">
				<path fill="#636363" d="M257.3,52.1v1.4h-2.5c-0.4,1.1-1.6,1.6-2.6,1.3c-0.6-0.2-1.1-0.7-1.3-1.3h-7.4v-1.4h7.4
					c0.4-1.1,1.6-1.6,2.6-1.3c0.6,0.2,1.1,0.7,1.3,1.3H257.3z"/>
			</g>
		</g>
	</g>
</g>
</svg>
