<?xml version="1.0" encoding="utf-8"?>
<!-- Generator: Adobe Illustrator 21.0.2, SVG Export Plug-In . SVG Version: 6.00 Build 0)  -->
<svg version="1.1" id="Layer_1" xmlns="http://www.w3.org/2000/svg" xmlns:xlink="http://www.w3.org/1999/xlink" x="0px" y="0px"
	 viewBox="0 0 356 299" enable-background="new 0 0 356 299" xml:space="preserve">
<g>
	<g>
		<path fill="#E3E3E3" d="M344.3,269.3c0,10.2-74.5,18.5-166.4,18.5c-91.9,0-166.4-8.3-166.4-18.5c0-8.5,51.3-15.7,121.2-17.8
			l-5.6,13.6h105.8l-5.5-13.4C295.1,254,344.3,261,344.3,269.3z"/>
	</g>
</g>
<g>
	<rect x="11" y="1" fill="#D6DCDE" width="337.9" height="203.2"/>
	<path fill="#AEAEAE" d="M10,0v205.2h339.9V0H10z M348.9,204.2H11V1h337.9V204.2z"/>
</g>
<g>
	<rect x="27.9" y="19.5" fill="#FFFFFF" width="304" height="169"/>
	<path fill="#AEAEAE" d="M26.9,18.5v171h306v-171H26.9z M332,188.5h-304v-169h304V188.5z"/>
</g>
<g>
	<path fill="#AEAEAE" d="M227.3,251.6L211.8,214l-0.1-0.3h-63.5l-15.6,37.7l-5.6,13.6h105.8L227.3,251.6z M133.8,251.5l15.1-36.7
		H211l15.2,36.8l5.1,12.5H128.6L133.8,251.5z"/>
	<polygon fill="#FFFFFF" points="231.3,264 128.6,264 133.8,251.5 148.9,214.7 211,214.7 226.2,251.6 	"/>
</g>
<g>
	<path fill="#EE6F6F" d="M166.9,98.3c-0.5,14.1-12,25.4-26.1,25.4c-14.4,0-26.1-11.8-26.1-26.4c0-14.2,11.2-25.8,25.1-26.3v10.1
		c-8.4,0.5-15.1,7.6-15.1,16.2c0,9,7.2,16.2,16.1,16.2c8.6,0,15.6-6.7,16.1-15.2H166.9z"/>
</g>
<g>
	<path fill="#B3D94A" d="M166.9,97.1h-10.1c0-8.9-7.2-16.1-16.1-16.1V71c2.3,0,4.4,0.3,6.5,0.8c0.8,0.2,1.6,0.5,2.4,0.8
		c1.6,0.6,3.1,1.3,4.6,2.2c0.7,0.4,1.4,0.9,2.1,1.4h0c0.5,0.4,1,0.8,1.5,1.2c0.5,0.4,0.9,0.8,1.4,1.3c0.2,0.2,0.4,0.4,0.7,0.7
		c0.6,0.7,1.2,1.4,1.8,2.2c1,1.3,1.9,2.8,2.6,4.3c0.4,0.8,0.7,1.5,1,2.3c0,0,0,0,0,0c0.1,0.4,0.3,0.8,0.4,1.2
		C166.5,91.8,166.9,94.4,166.9,97.1z"/>
	<path fill="#B3D94A" d="M156.4,76.2c-0.7-0.5-1.4-1-2.1-1.4C155,75.2,155.7,75.7,156.4,76.2z"/>
	<path fill="#B3D94A" d="M154.3,74.8c0.7,0.4,1.4,0.9,2.1,1.4C155.7,75.7,155,75.2,154.3,74.8z"/>
</g>
<g>
	<path fill="#EEE96F" d="M127.9,142.5l5.4,8.5c-4,3-6.6,7.7-6.6,13.1h-10.1C116.6,155.2,121.1,147.3,127.9,142.5z"/>
	<path fill="#EEE96F" d="M168.9,164.2h-10.1c0-9-7.2-16.2-16.1-16.2c-3.2,0-6.1,0.9-8.6,2.5l-5.4-8.5c0.4-0.3,0.8-0.5,1.3-0.8
		c3.8-2.1,8.1-3.3,12.8-3.3h0c2.3,0,4.5,0.3,6.5,0.8c0.8,0.2,1.6,0.5,2.4,0.8c0,0,0,0,0,0c1.6,0.6,3.1,1.3,4.6,2.2c0,0,0,0,0,0
		c2.9,1.8,5.4,4.1,7.4,6.8C167,152.8,168.9,158.3,168.9,164.2z"/>
</g>
<g>
	<path fill="#4AAED9" d="M168.9,164.2h-10.1c0-9-7.2-16.2-16.1-16.2c-3.2,0-6.1,0.9-8.6,2.5l-5.4-8.5l-0.1-0.1
		c0.5-0.2,0.9-0.5,1.3-0.7c3.8-2.1,8.1-3.3,12.8-3.3h0c2.3,0,4.5,0.3,6.5,0.8c0.8,0.2,1.6,0.5,2.4,0.8c0,0,0,0,0,0
		c1.6,0.6,3.1,1.3,4.6,2.2c0,0,0,0,0,0c2.9,1.8,5.4,4.1,7.4,6.8C167,152.8,168.9,158.3,168.9,164.2z"/>
	<path fill="#FFFFFF" d="M156.3,141.7c2.9,1.8,5.4,4.1,7.4,6.8C161.7,145.7,159.2,143.4,156.3,141.7z M156.3,141.7
		c-1.4-0.9-3-1.6-4.6-2.2C153.3,140,154.9,140.8,156.3,141.7z M151.7,139.4c-0.8-0.3-1.6-0.5-2.4-0.8
		C150.1,138.9,150.9,139.2,151.7,139.4z M135.4,139c2-0.6,4.2-0.9,7.3-1.1c-4.6,0-9,1.2-12.8,3.3C132,140.1,133.7,139.4,135.4,139z"
		/>
</g>
<g>
	<path fill="#E1E1E1" d="M93.4,30.4h225.3c1.7,0,3,1.3,3,3v22.4c0,1.7-1.3,3-3,3H93.4c-1.7,0-3-1.3-3-3V33.4
		C90.4,31.8,91.8,30.4,93.4,30.4z"/>
</g>
<g>
	<path fill="#FFFFFF" d="M194,73.2h122.7c1.5,0,2.8,1.2,2.8,2.8v22.4c0,1.5-1.2,2.8-2.8,2.8H194c-1.5,0-2.8-1.2-2.8-2.8V76
		C191.3,74.5,192.5,73.2,194,73.2z"/>
	<path fill="#E1E1E1" d="M316.7,101.4H194c-1.7,0-3-1.3-3-3V76c0-1.7,1.3-3,3-3h122.7c1.7,0,3,1.3,3,3v22.4
		C319.7,100,318.4,101.4,316.7,101.4z M194,73.5c-1.4,0-2.5,1.1-2.5,2.5v22.4c0,1.4,1.1,2.5,2.5,2.5h122.7c1.4,0,2.5-1.1,2.5-2.5V76
		c0-1.4-1.1-2.5-2.5-2.5H194z"/>
</g>
<g>
	<path fill="#B3D94A" d="M202.1,79.1h42.2c0.6,0,1,0.5,1,1v0c0,0.6-0.5,1-1,1h-42.2c-0.6,0-1-0.5-1-1v0
		C201.1,79.5,201.5,79.1,202.1,79.1z"/>
</g>
<g>
	<path fill="#7EBAE6" d="M202.1,85.1h48.3c0.6,0,1,0.5,1,1v0c0,0.6-0.5,1-1,1h-48.3c-0.6,0-1-0.5-1-1v0
		C201.1,85.6,201.5,85.1,202.1,85.1z"/>
</g>
<g>
	<path fill="#7EBAE6" d="M256.4,85.1h14.1c0.6,0,1,0.5,1,1v0c0,0.6-0.5,1-1,1h-14.1c-0.6,0-1-0.5-1-1v0
		C255.4,85.6,255.8,85.1,256.4,85.1z"/>
</g>
<g>
	<path fill="#7EBAE6" d="M202.1,91.2h14.1c0.6,0,1,0.5,1,1v0c0,0.6-0.5,1-1,1h-14.1c-0.6,0-1-0.5-1-1v0
		C201.1,91.7,201.5,91.2,202.1,91.2z"/>
</g>
<g>
	<path fill="#7EBAE6" d="M222.2,91.2h78.4c0.6,0,1,0.5,1,1v0c0,0.6-0.5,1-1,1h-78.4c-0.6,0-1-0.5-1-1v0
		C221.2,91.7,221.6,91.2,222.2,91.2z"/>
</g>
<g>
	<path fill="#FFFFFF" d="M194,105.7h122.7c1.5,0,2.8,1.2,2.8,2.8v22.4c0,1.5-1.2,2.8-2.8,2.8H194c-1.5,0-2.8-1.2-2.8-2.8v-22.4
		C191.3,106.9,192.5,105.7,194,105.7z"/>
	<path fill="#E1E1E1" d="M316.7,133.8H194c-1.7,0-3-1.3-3-3v-22.4c0-1.7,1.3-3,3-3h122.7c1.7,0,3,1.3,3,3v22.4
		C319.7,132.4,318.4,133.8,316.7,133.8z M194,105.9c-1.4,0-2.5,1.1-2.5,2.5v22.4c0,1.4,1.1,2.5,2.5,2.5h122.7c1.4,0,2.5-1.1,2.5-2.5
		v-22.4c0-1.4-1.1-2.5-2.5-2.5H194z"/>
</g>
<g>
	<path fill="#B3D94A" d="M202.1,111.5h42.2c0.6,0,1,0.5,1,1v0c0,0.6-0.5,1-1,1h-42.2c-0.6,0-1-0.5-1-1v0
		C201.1,111.9,201.5,111.5,202.1,111.5z"/>
</g>
<g>
	<path fill="#7EBAE6" d="M202.1,117.6h48.3c0.6,0,1,0.5,1,1v0c0,0.6-0.5,1-1,1h-48.3c-0.6,0-1-0.5-1-1v0
		C201.1,118,201.5,117.6,202.1,117.6z"/>
</g>
<g>
	<path fill="#7EBAE6" d="M256.4,117.6h14.1c0.6,0,1,0.5,1,1v0c0,0.6-0.5,1-1,1h-14.1c-0.6,0-1-0.5-1-1v0
		C255.4,118,255.8,117.6,256.4,117.6z"/>
</g>
<g>
	<path fill="#7EBAE6" d="M202.1,123.7h14.1c0.6,0,1,0.5,1,1v0c0,0.6-0.5,1-1,1h-14.1c-0.6,0-1-0.5-1-1v0
		C201.1,124.1,201.5,123.7,202.1,123.7z"/>
</g>
<g>
	<path fill="#7EBAE6" d="M222.2,123.7h78.4c0.6,0,1,0.5,1,1v0c0,0.6-0.5,1-1,1h-78.4c-0.6,0-1-0.5-1-1v0
		C221.2,124.1,221.6,123.7,222.2,123.7z"/>
</g>
<g>
	<path fill="#FFFFFF" d="M194,138.1h122.7c1.5,0,2.8,1.2,2.8,2.8v22.4c0,1.5-1.2,2.8-2.8,2.8H194c-1.5,0-2.8-1.2-2.8-2.8v-22.4
		C191.3,139.3,192.5,138.1,194,138.1z"/>
	<path fill="#E1E1E1" d="M316.7,166.2H194c-1.7,0-3-1.3-3-3v-22.4c0-1.7,1.3-3,3-3h122.7c1.7,0,3,1.3,3,3v22.4
		C319.7,164.9,318.4,166.2,316.7,166.2z M194,138.3c-1.4,0-2.5,1.1-2.5,2.5v22.4c0,1.4,1.1,2.5,2.5,2.5h122.7c1.4,0,2.5-1.1,2.5-2.5
		v-22.4c0-1.4-1.1-2.5-2.5-2.5H194z"/>
</g>
<g>
	<path fill="#EE6F6F" d="M202.1,143.9h42.2c0.6,0,1,0.5,1,1v0c0,0.6-0.5,1-1,1h-42.2c-0.6,0-1-0.5-1-1v0
		C201.1,144.4,201.5,143.9,202.1,143.9z"/>
</g>
<g>
	<path fill="#7EBAE6" d="M202.1,150h48.3c0.6,0,1,0.5,1,1v0c0,0.6-0.5,1-1,1h-48.3c-0.6,0-1-0.5-1-1v0
		C201.1,150.5,201.5,150,202.1,150z"/>
</g>
<g>
	<path fill="#7EBAE6" d="M256.4,150h14.1c0.6,0,1,0.5,1,1v0c0,0.6-0.5,1-1,1h-14.1c-0.6,0-1-0.5-1-1v0
		C255.4,150.5,255.8,150,256.4,150z"/>
</g>
<g>
	<path fill="#7EBAE6" d="M202.1,156.1h14.1c0.6,0,1,0.5,1,1v0c0,0.6-0.5,1-1,1h-14.1c-0.6,0-1-0.5-1-1v0
		C201.1,156.5,201.5,156.1,202.1,156.1z"/>
</g>
<g>
	<path fill="#7EBAE6" d="M222.2,156.1h78.4c0.6,0,1,0.5,1,1v0c0,0.6-0.5,1-1,1h-78.4c-0.6,0-1-0.5-1-1v0
		C221.2,156.5,221.6,156.1,222.2,156.1z"/>
</g>
<g>
	<rect x="30.1" y="22.3" fill="#353535" width="54.3" height="166.2"/>
</g>
<g>
	<line fill="#FFFFFF" x1="46" y1="35" x2="77" y2="35"/>
	<path fill="#FFFFFF" d="M77,35.5H46c-0.3,0-0.5-0.2-0.5-0.5s0.2-0.5,0.5-0.5h31c0.3,0,0.5,0.2,0.5,0.5S77.3,35.5,77,35.5z"/>
</g>
<g>
	<line fill="#FFFFFF" x1="46" y1="46.5" x2="77" y2="46.5"/>
	<path fill="#FFFFFF" d="M77,47H46c-0.3,0-0.5-0.2-0.5-0.5S45.7,46,46,46h31c0.3,0,0.5,0.2,0.5,0.5S77.3,47,77,47z"/>
</g>
<g>
	<rect x="41.2" y="54.2" fill="#24A8E2" width="43.2" height="7.2"/>
</g>
<g>
	<path fill="#24A8E2" d="M38.3,41.2h-5c-1.2,0-2.2-1-2.2-2.2v-4.3c0-1.2,1-2.2,2.2-2.2h5c1.2,0,2.2,1,2.2,2.2V39
		C40.5,40.2,39.5,41.2,38.3,41.2z"/>
</g>
<g>
	<line fill="#FFFFFF" x1="46" y1="58" x2="77" y2="58"/>
	<path fill="#FFFFFF" d="M77,58.5H46c-0.3,0-0.5-0.2-0.5-0.5s0.2-0.5,0.5-0.5h31c0.3,0,0.5,0.2,0.5,0.5S77.3,58.5,77,58.5z"/>
</g>
</svg>
