<?xml version="1.0" encoding="utf-8"?>
<!-- Generator: Adobe Illustrator 21.0.2, SVG Export Plug-In . SVG Version: 6.00 Build 0)  -->
<svg version="1.1" id="Layer_1" xmlns="http://www.w3.org/2000/svg" xmlns:xlink="http://www.w3.org/1999/xlink" x="0px" y="0px"
	 viewBox="0 0 602 322" enable-background="new 0 0 602 322" xml:space="preserve">
<g>
	<g>
		<ellipse fill="#E9E9E9" cx="146.9" cy="218.2" rx="135.6" ry="14.9"/>
	</g>
</g>
<g>
	<rect x="21.5" y="16.9" fill="#DAE0E1" width="247.4" height="135.9"/>
	<path fill="#DAE0E1" d="M7.7,1.9v163.5h275V1.9H7.7z M269.9,153.8H20.5V15.9h249.4V153.8z"/>
	<path fill="#A4A4A4" d="M6.7,0.9v165.5h277V0.9H6.7z M282.7,165.4H7.7V1.9h275V165.4z"/>
</g>
<g>
	<rect x="21.5" y="16.9" fill="#FFFFFF" width="247.4" height="135.9"/>
	<path fill="#A4A4A4" d="M20.5,15.9v137.9h249.4V15.9H20.5z M268.9,152.8H21.5V16.9h247.4V152.8z"/>
</g>
<g>
	<path fill="#56CCF2" d="M189.5,83.9c0,14.1-6.6,26.6-16.9,34.7c0.2-0.9,0.3-1.9,0.3-2.9c0-9.3-9.4-19.4-21.2-20.1
		c5.4-2,7.6-8.3,7.6-14.7c0-8.4-6.1-15.2-13.6-15.2c-7.5,0-13.5,6.8-13.5,15.2c0,6.5,1.8,12.9,7.5,14.8c-10.9,1-21,10.9-21,20.1
		c0,1,0.1,1.9,0.3,2.9c-10.3-8-16.9-20.6-16.9-34.7c0-24.3,19.6-43.9,43.7-43.9C169.9,40,189.5,59.7,189.5,83.9z"/>
</g>
<g>
	<path fill="#FFFFFF" d="M172.9,115.7c0,1-0.1,1.9-0.3,2.9c-7.4,5.8-16.7,9.2-26.8,9.2c-10.1,0-19.4-3.5-26.8-9.2
		c-0.2-0.9-0.3-1.9-0.3-2.9c0-9.2,10.2-19,21-20.1c-5.7-1.9-7.5-8.3-7.5-14.8c0-8.4,6.1-15.2,13.5-15.2c7.5,0,13.6,6.8,13.6,15.2
		c0,6.4-2.2,12.8-7.6,14.7C163.5,96.3,172.9,106.4,172.9,115.7z"/>
</g>
<g>
	<polygon fill="#FCFCFC" points="186.8,213.7 103.6,213.7 120,174.3 170.4,174.3 	"/>
	<path fill="#A4A4A4" d="M171.1,173.3h-51.7l-17.2,41.4h86.2L171.1,173.3z M170.4,174.3l16.4,39.4h-83.2l16.4-39.4H170.4z"/>
</g>
<g>
	<g>
		<ellipse fill="#E9E9E9" cx="458.9" cy="218.2" rx="135.6" ry="14.9"/>
	</g>
</g>
<g>
	<rect x="333.5" y="16.9" fill="#DAE0E1" width="247.4" height="135.9"/>
	<path fill="#DAE0E1" d="M319.7,1.9v163.5h275V1.9H319.7z M581.9,153.8H332.5V15.9h249.4V153.8z"/>
	<path fill="#A4A4A4" d="M318.7,0.9v165.5h277V0.9H318.7z M594.7,165.4h-275V1.9h275V165.4z"/>
</g>
<g>
	<rect x="333.5" y="16.9" fill="#FFFFFF" width="247.4" height="135.9"/>
	<path fill="#A4A4A4" d="M332.5,15.9v137.9h249.4V15.9H332.5z M580.9,152.8H333.5V16.9h247.4V152.8z"/>
</g>
<g>
	<path fill="#56CCF2" d="M501.5,83.9c0,14.1-6.6,26.6-16.9,34.7c0.2-0.9,0.3-1.9,0.3-2.9c0-9.3-9.4-19.4-21.2-20.1
		c5.4-2,7.6-8.3,7.6-14.7c0-8.4-6.1-15.2-13.6-15.2c-7.5,0-13.5,6.8-13.5,15.2c0,6.5,1.8,12.9,7.5,14.8c-10.9,1-21,10.9-21,20.1
		c0,1,0.1,1.9,0.3,2.9c-10.3-8-16.9-20.6-16.9-34.7c0-24.3,19.6-43.9,43.7-43.9C481.9,40,501.5,59.7,501.5,83.9z"/>
</g>
<g>
	<path fill="#FFFFFF" d="M484.9,115.7c0,1-0.1,1.9-0.3,2.9c-7.4,5.8-16.7,9.2-26.8,9.2c-10.1,0-19.4-3.5-26.8-9.2
		c-0.2-0.9-0.3-1.9-0.3-2.9c0-9.2,10.2-19,21-20.1c-5.7-1.9-7.5-8.3-7.5-14.8c0-8.4,6.1-15.2,13.5-15.2c7.5,0,13.6,6.8,13.6,15.2
		c0,6.4-2.2,12.8-7.6,14.7C475.5,96.3,484.9,106.4,484.9,115.7z"/>
</g>
<g>
	<polygon fill="#FCFCFC" points="498.8,213.7 415.6,213.7 432,174.3 482.4,174.3 	"/>
	<path fill="#A4A4A4" d="M483.1,173.3h-51.7l-17.2,41.4h86.2L483.1,173.3z M482.4,174.3l16.4,39.4h-83.2l16.4-39.4H482.4z"/>
</g>
<g>
	<g>
		<ellipse fill="#E9E9E9" cx="302.7" cy="295.2" rx="135.6" ry="14.9"/>
	</g>
</g>
<g>
	<rect x="177.3" y="93.9" fill="#DAE0E1" width="247.4" height="135.9"/>
	<path fill="#DAE0E1" d="M163.5,78.9v163.5h275V78.9H163.5z M425.7,230.8H176.3V92.9h249.4V230.8z"/>
	<path fill="#A4A4A4" d="M162.5,77.9v165.5h277V77.9H162.5z M438.5,242.5h-275V78.9h275V242.5z"/>
</g>
<g>
	<rect x="177.3" y="93.9" fill="#FFFFFF" width="247.4" height="135.9"/>
	<path fill="#A4A4A4" d="M176.3,92.9v137.9h249.4V92.9H176.3z M424.7,229.8H177.3V93.9h247.4V229.8z"/>
</g>
<g>
	<path fill="#56CCF2" d="M345.3,160.9c0,14.1-6.6,26.6-16.9,34.7c0.2-0.9,0.3-1.9,0.3-2.9c0-9.3-9.4-19.4-21.2-20.1
		c5.4-2,7.6-8.3,7.6-14.7c0-8.4-6.1-15.2-13.6-15.2c-7.5,0-13.5,6.8-13.5,15.2c0,6.5,1.8,12.9,7.5,14.8c-10.9,1-21,10.9-21,20.1
		c0,1,0.1,1.9,0.3,2.9c-10.3-8-16.9-20.6-16.9-34.7c0-24.3,19.6-43.9,43.7-43.9C325.7,117,345.3,136.7,345.3,160.9z"/>
</g>
<g>
	<path fill="#FFFFFF" d="M328.7,192.7c0,1-0.1,1.9-0.3,2.9c-7.4,5.8-16.7,9.2-26.8,9.2c-10.1,0-19.4-3.5-26.8-9.2
		c-0.2-0.9-0.3-1.9-0.3-2.9c0-9.2,10.2-19,21-20.1c-5.7-1.9-7.5-8.3-7.5-14.8c0-8.4,6.1-15.2,13.5-15.2c7.5,0,13.6,6.8,13.6,15.2
		c0,6.4-2.2,12.8-7.6,14.7C319.2,173.3,328.7,183.4,328.7,192.7z"/>
</g>
<g>
	<polygon fill="#FCFCFC" points="342.6,290.7 259.4,290.7 275.8,251.4 326.2,251.4 	"/>
	<path fill="#A4A4A4" d="M326.9,250.4h-51.7l-17.2,41.4h86.2L326.9,250.4z M326.2,251.4l16.4,39.4h-83.2l16.4-39.4H326.2z"/>
</g>
</svg>
