<?xml version="1.0" encoding="utf-8"?>
<!-- Generator: Adobe Illustrator 21.0.2, SVG Export Plug-In . SVG Version: 6.00 Build 0)  -->
<svg version="1.1" id="Layer_1" xmlns="http://www.w3.org/2000/svg" xmlns:xlink="http://www.w3.org/1999/xlink" x="0px" y="0px"
	 viewBox="0 0 576 376" enable-background="new 0 0 576 376" xml:space="preserve">
<g>
	<g>
		<path fill="#FFFFFF" d="M320,14h219.8c7.2,0,13,5.8,13,13v251.4c0,7.2-5.8,13-13,13H320c-7.2,0-13-5.8-13-13V27
			C307,19.8,312.8,14,320,14z"/>
	</g>
	<g>
		<path fill="#98CCED" d="M539.8,291.4H320c-7.2,0-13-5.8-13-13V27c0-7.2,5.8-13,13-13h219.8c7.2,0,13,5.8,13,13v251.4
			C552.8,285.6,547,291.4,539.8,291.4z M320,15c-6.6,0-12,5.4-12,12v251.4c0,6.6,5.4,12,12,12h219.8c6.6,0,12-5.4,12-12V27
			c0-6.6-5.4-12-12-12H320z"/>
	</g>
</g>
<g>
	<path fill="#FFFFFF" d="M337.4,36h185c1.5,0,2.8,1.2,2.8,2.8v35.7c0,1.5-1.2,2.8-2.8,2.8h-185c-1.5,0-2.8-1.2-2.8-2.8V38.8
		C334.6,37.3,335.9,36,337.4,36z"/>
	<path fill="#E1E1E1" d="M522.4,77.5h-185c-1.7,0-3-1.3-3-3V38.8c0-1.7,1.3-3,3-3h185c1.7,0,3,1.3,3,3v35.7
		C525.4,76.2,524.1,77.5,522.4,77.5z M337.4,36.3c-1.4,0-2.5,1.1-2.5,2.5v35.7c0,1.4,1.1,2.5,2.5,2.5h185c1.4,0,2.5-1.1,2.5-2.5
		V38.8c0-1.4-1.1-2.5-2.5-2.5H337.4z"/>
</g>
<g>
	<path fill="#B3D94A" d="M350.8,44.7h62.7c0.8,0,1.5,0.7,1.5,1.5l0,0c0,0.8-0.7,1.5-1.5,1.5h-62.7c-0.8,0-1.5-0.7-1.5-1.5l0,0
		C349.3,45.4,350,44.7,350.8,44.7z"/>
</g>
<g>
	<path fill="#7EBAE6" d="M350.8,53.7h71.6c0.8,0,1.5,0.7,1.5,1.5l0,0c0,0.8-0.7,1.5-1.5,1.5h-71.6c-0.8,0-1.5-0.7-1.5-1.5l0,0
		C349.3,54.3,350,53.7,350.8,53.7z"/>
</g>
<g>
	<path fill="#7EBAE6" d="M431.4,53.7h20.9c0.8,0,1.5,0.7,1.5,1.5l0,0c0,0.8-0.7,1.5-1.5,1.5h-20.9c-0.8,0-1.5-0.7-1.5-1.5l0,0
		C429.9,54.3,430.6,53.7,431.4,53.7z"/>
</g>
<g>
	<path fill="#7EBAE6" d="M350.8,62.6h20.9c0.8,0,1.5,0.7,1.5,1.5l0,0c0,0.8-0.7,1.5-1.5,1.5h-20.9c-0.8,0-1.5-0.7-1.5-1.5l0,0
		C349.3,63.3,350,62.6,350.8,62.6z"/>
</g>
<g>
	<path fill="#7EBAE6" d="M380.7,62.6h116.4c0.8,0,1.5,0.7,1.5,1.5l0,0c0,0.8-0.7,1.5-1.5,1.5H380.7c-0.8,0-1.5-0.7-1.5-1.5l0,0
		C379.2,63.3,379.8,62.6,380.7,62.6z"/>
</g>
<g>
	<path fill="#FFFFFF" d="M337,83.2h185c1.5,0,2.8,1.2,2.8,2.8v35.7c0,1.5-1.2,2.8-2.8,2.8H337c-1.5,0-2.8-1.2-2.8-2.8V86
		C334.2,84.5,335.5,83.2,337,83.2z"/>
	<path fill="#E1E1E1" d="M522,124.7H337c-1.7,0-3-1.3-3-3V86c0-1.7,1.3-3,3-3h185c1.7,0,3,1.3,3,3v35.7
		C525,123.4,523.7,124.7,522,124.7z M337,83.5c-1.4,0-2.5,1.1-2.5,2.5v35.7c0,1.4,1.1,2.5,2.5,2.5h185c1.4,0,2.5-1.1,2.5-2.5V86
		c0-1.4-1.1-2.5-2.5-2.5H337z"/>
</g>
<g>
	<path fill="#B3D94A" d="M350.4,91.9h62.7c0.8,0,1.5,0.7,1.5,1.5l0,0c0,0.8-0.7,1.5-1.5,1.5h-62.7c-0.8,0-1.5-0.7-1.5-1.5l0,0
		C348.9,92.6,349.6,91.9,350.4,91.9z"/>
</g>
<g>
	<path fill="#7EBAE6" d="M350.4,100.9H422c0.8,0,1.5,0.7,1.5,1.5l0,0c0,0.8-0.7,1.5-1.5,1.5h-71.6c-0.8,0-1.5-0.7-1.5-1.5l0,0
		C348.9,101.6,349.6,100.9,350.4,100.9z"/>
</g>
<g>
	<path fill="#7EBAE6" d="M431,100.9h20.9c0.8,0,1.5,0.7,1.5,1.5l0,0c0,0.8-0.7,1.5-1.5,1.5H431c-0.8,0-1.5-0.7-1.5-1.5l0,0
		C429.5,101.6,430.2,100.9,431,100.9z"/>
</g>
<g>
	<path fill="#7EBAE6" d="M350.4,109.8h20.9c0.8,0,1.5,0.7,1.5,1.5l0,0c0,0.8-0.7,1.5-1.5,1.5h-20.9c-0.8,0-1.5-0.7-1.5-1.5l0,0
		C348.9,110.5,349.6,109.8,350.4,109.8z"/>
</g>
<g>
	<path fill="#7EBAE6" d="M380.3,109.8h116.4c0.8,0,1.5,0.7,1.5,1.5l0,0c0,0.8-0.7,1.5-1.5,1.5H380.3c-0.8,0-1.5-0.7-1.5-1.5l0,0
		C378.8,110.5,379.4,109.8,380.3,109.8z"/>
</g>
<g>
	<path fill="#FFFFFF" d="M337.4,178.8h185c1.5,0,2.8,1.2,2.8,2.8v35.7c0,1.5-1.2,2.8-2.8,2.8h-185c-1.5,0-2.8-1.2-2.8-2.8v-35.7
		C334.6,180,335.9,178.8,337.4,178.8z"/>
	<path fill="#E1E1E1" d="M522.4,220.3h-185c-1.7,0-3-1.3-3-3v-35.7c0-1.7,1.3-3,3-3h185c1.7,0,3,1.3,3,3v35.7
		C525.4,218.9,524.1,220.3,522.4,220.3z M337.4,179c-1.4,0-2.5,1.1-2.5,2.5v35.7c0,1.4,1.1,2.5,2.5,2.5h185c1.4,0,2.5-1.1,2.5-2.5
		v-35.7c0-1.4-1.1-2.5-2.5-2.5H337.4z"/>
</g>
<g>
	<path fill="#B3D94A" d="M350.8,187.5h62.7c0.8,0,1.5,0.7,1.5,1.5l0,0c0,0.8-0.7,1.5-1.5,1.5h-62.7c-0.8,0-1.5-0.7-1.5-1.5l0,0
		C349.3,188.1,350,187.5,350.8,187.5z"/>
</g>
<g>
	<path fill="#7EBAE6" d="M350.8,196.4h71.6c0.8,0,1.5,0.7,1.5,1.5l0,0c0,0.8-0.7,1.5-1.5,1.5h-71.6c-0.8,0-1.5-0.7-1.5-1.5l0,0
		C349.3,197.1,350,196.4,350.8,196.4z"/>
</g>
<g>
	<path fill="#7EBAE6" d="M431.4,196.4h20.9c0.8,0,1.5,0.7,1.5,1.5l0,0c0,0.8-0.7,1.5-1.5,1.5h-20.9c-0.8,0-1.5-0.7-1.5-1.5l0,0
		C429.9,197.1,430.6,196.4,431.4,196.4z"/>
</g>
<g>
	<path fill="#7EBAE6" d="M350.8,205.4h20.9c0.8,0,1.5,0.7,1.5,1.5l0,0c0,0.8-0.7,1.5-1.5,1.5h-20.9c-0.8,0-1.5-0.7-1.5-1.5l0,0
		C349.3,206,350,205.4,350.8,205.4z"/>
</g>
<g>
	<path fill="#7EBAE6" d="M380.7,205.4h116.4c0.8,0,1.5,0.7,1.5,1.5l0,0c0,0.8-0.7,1.5-1.5,1.5H380.7c-0.8,0-1.5-0.7-1.5-1.5l0,0
		C379.2,206,379.8,205.4,380.7,205.4z"/>
</g>
<g>
	<path fill="#FFFFFF" d="M337.4,131.4h185c1.5,0,2.8,1.2,2.8,2.8v35.7c0,1.5-1.2,2.8-2.8,2.8h-185c-1.5,0-2.8-1.2-2.8-2.8v-35.7
		C334.6,132.6,335.9,131.4,337.4,131.4z"/>
	<path fill="#E1E1E1" d="M522.4,172.9h-185c-1.7,0-3-1.3-3-3v-35.7c0-1.7,1.3-3,3-3h185c1.7,0,3,1.3,3,3v35.7
		C525.4,171.5,524.1,172.9,522.4,172.9z M337.4,131.7c-1.4,0-2.5,1.1-2.5,2.5v35.7c0,1.4,1.1,2.5,2.5,2.5h185c1.4,0,2.5-1.1,2.5-2.5
		v-35.7c0-1.4-1.1-2.5-2.5-2.5H337.4z"/>
</g>
<g>
	<path fill="#EE6F6F" d="M350.8,140.1h62.7c0.8,0,1.5,0.7,1.5,1.5l0,0c0,0.8-0.7,1.5-1.5,1.5h-62.7c-0.8,0-1.5-0.7-1.5-1.5l0,0
		C349.3,140.8,350,140.1,350.8,140.1z"/>
</g>
<g>
	<path fill="#7EBAE6" d="M350.8,149h71.6c0.8,0,1.5,0.7,1.5,1.5l0,0c0,0.8-0.7,1.5-1.5,1.5h-71.6c-0.8,0-1.5-0.7-1.5-1.5l0,0
		C349.3,149.7,350,149,350.8,149z"/>
</g>
<g>
	<path fill="#7EBAE6" d="M431.4,149h20.9c0.8,0,1.5,0.7,1.5,1.5l0,0c0,0.8-0.7,1.5-1.5,1.5h-20.9c-0.8,0-1.5-0.7-1.5-1.5l0,0
		C429.9,149.7,430.6,149,431.4,149z"/>
</g>
<g>
	<path fill="#7EBAE6" d="M350.8,158h20.9c0.8,0,1.5,0.7,1.5,1.5l0,0c0,0.8-0.7,1.5-1.5,1.5h-20.9c-0.8,0-1.5-0.7-1.5-1.5l0,0
		C349.3,158.7,350,158,350.8,158z"/>
</g>
<g>
	<path fill="#7EBAE6" d="M380.7,158h116.4c0.8,0,1.5,0.7,1.5,1.5l0,0c0,0.8-0.7,1.5-1.5,1.5H380.7c-0.8,0-1.5-0.7-1.5-1.5l0,0
		C379.2,158.7,379.8,158,380.7,158z"/>
</g>
<g>
	<path fill="#FFFFFF" d="M338.2,226.4h185c1.5,0,2.8,1.2,2.8,2.8v35.7c0,1.5-1.2,2.8-2.8,2.8h-185c-1.5,0-2.8-1.2-2.8-2.8v-35.7
		C335.5,227.6,336.7,226.4,338.2,226.4z"/>
	<path fill="#E1E1E1" d="M523.2,267.8h-185c-1.7,0-3-1.3-3-3v-35.7c0-1.7,1.3-3,3-3h185c1.7,0,3,1.3,3,3v35.7
		C526.2,266.5,524.9,267.8,523.2,267.8z M338.2,226.6c-1.4,0-2.5,1.1-2.5,2.5v35.7c0,1.4,1.1,2.5,2.5,2.5h185c1.4,0,2.5-1.1,2.5-2.5
		v-35.7c0-1.4-1.1-2.5-2.5-2.5H338.2z"/>
</g>
<g>
	<path fill="#EE6F6F" d="M351.6,235.1h62.7c0.8,0,1.5,0.7,1.5,1.5l0,0c0,0.8-0.7,1.5-1.5,1.5h-62.7c-0.8,0-1.5-0.7-1.5-1.5l0,0
		C350.1,235.7,350.8,235.1,351.6,235.1z"/>
</g>
<g>
	<path fill="#7EBAE6" d="M351.6,244h71.6c0.8,0,1.5,0.7,1.5,1.5l0,0c0,0.8-0.7,1.5-1.5,1.5h-71.6c-0.8,0-1.5-0.7-1.5-1.5l0,0
		C350.1,244.7,350.8,244,351.6,244z"/>
</g>
<g>
	<path fill="#7EBAE6" d="M432.2,244h20.9c0.8,0,1.5,0.7,1.5,1.5l0,0c0,0.8-0.7,1.5-1.5,1.5h-20.9c-0.8,0-1.5-0.7-1.5-1.5l0,0
		C430.7,244.7,431.4,244,432.2,244z"/>
</g>
<g>
	<path fill="#7EBAE6" d="M351.6,252.9h20.9c0.8,0,1.5,0.7,1.5,1.5l0,0c0,0.8-0.7,1.5-1.5,1.5h-20.9c-0.8,0-1.5-0.7-1.5-1.5l0,0
		C350.1,253.6,350.8,252.9,351.6,252.9z"/>
</g>
<g>
	<path fill="#7EBAE6" d="M381.5,252.9h116.4c0.8,0,1.5,0.7,1.5,1.5l0,0c0,0.8-0.7,1.5-1.5,1.5H381.5c-0.8,0-1.5-0.7-1.5-1.5l0,0
		C380,253.6,380.6,252.9,381.5,252.9z"/>
</g>
<g>
	<path fill="#4F4F4F" d="M530.2,256.7c-16.2,0-29.5-13.3-29.5-29.7s13.2-29.7,29.5-29.7s29.5,13.3,29.5,29.7
		S546.4,256.7,530.2,256.7z M530.2,202.3c-13.5,0-24.5,11.1-24.5,24.7s11,24.7,24.5,24.7s24.5-11.1,24.5-24.7
		S543.7,202.3,530.2,202.3z"/>
</g>
<g>
	<path fill="#4E4E4E" d="M567.6,271.2c-0.8,0-1.6-0.3-2.2-1l-19.2-20.5c-1.1-1.2-1.1-3.1,0.1-4.2c1.2-1.1,3.1-1.1,4.2,0.1l19.2,20.5
		c1.1,1.2,1.1,3.1-0.1,4.2C569.1,271,568.3,271.2,567.6,271.2z"/>
</g>
<g>
	<g>
		<ellipse fill="#E5E5E5" cx="426.5" cy="356.5" rx="138.5" ry="8.5"/>
	</g>
</g>
<g>
	<g>
		<path fill="#E3E3E3" d="M283.7,300.9c0,8.5-61.7,15.3-137.8,15.3c-76.1,0-137.8-6.9-137.8-15.3c0-7,42.5-13,100.4-14.8l-4.6,11.2
			h87.6l-4.6-11.1C242.9,288.2,283.7,294,283.7,300.9z"/>
	</g>
</g>
<g>
	<g>
		<rect x="7.7" y="78.7" fill="#D6DCDE" width="279.8" height="168.3"/>
	</g>
	<g>
		<path fill="#AEAEAE" d="M6.9,77.9v169.9h281.5V77.9H6.9z M287.5,247H7.7V78.7h279.8V247z"/>
	</g>
</g>
<g>
	<rect x="21.7" y="94.1" fill="#FFFFFF" width="251.8" height="139.9"/>
	<path fill="#AEAEAE" d="M20.9,93.2v141.6h253.4V93.2H20.9z M273.5,234H21.7V94.1h251.8V234z"/>
</g>
<g>
	<path fill="#AEAEAE" d="M186.8,286.3L174,255.1l-0.1-0.3h-52.6l-12.9,31.3l-4.6,11.2h87.6L186.8,286.3z M109.4,286.1l12.5-30.4
		h51.4l12.6,30.5l4.3,10.3h-85.1L109.4,286.1z"/>
	<polygon fill="#FFFFFF" points="190.2,296.5 105.1,296.5 109.4,286.1 121.9,255.7 173.3,255.7 185.9,286.2 	"/>
</g>
<g>
	<path fill="#EE6F6F" d="M136.8,159.3c-0.4,11.7-10,21-21.6,21c-12,0-21.7-9.8-21.7-21.8c0-11.8,9.2-21.4,20.8-21.8v8.4
		c-7,0.4-12.5,6.3-12.5,13.4c0,7.4,6,13.4,13.3,13.4c7.1,0,12.9-5.6,13.3-12.6H136.8z"/>
</g>
<g>
	<path fill="#B3D94A" d="M136.8,158.3h-8.3c0-7.4-6-13.3-13.3-13.3v-8.3c1.9,0,3.7,0.2,5.4,0.7c0.7,0.2,1.4,0.4,2,0.6
		c1.3,0.5,2.6,1.1,3.8,1.8c0.6,0.4,1.2,0.8,1.7,1.2h0c0.4,0.3,0.8,0.6,1.2,1c0.4,0.3,0.8,0.7,1.1,1.1c0.2,0.2,0.4,0.4,0.5,0.6
		c0.5,0.6,1,1.2,1.5,1.8c0.8,1.1,1.6,2.3,2.2,3.6c0.3,0.6,0.6,1.3,0.8,1.9c0,0,0,0,0,0c0.1,0.3,0.2,0.7,0.3,1
		C136.4,153.9,136.8,156.1,136.8,158.3z"/>
	<path fill="#B3D94A" d="M128.1,141c-0.6-0.4-1.1-0.8-1.7-1.2C127,140.2,127.5,140.5,128.1,141z"/>
	<path fill="#B3D94A" d="M126.4,139.8c0.6,0.4,1.2,0.8,1.7,1.2C127.5,140.5,127,140.2,126.4,139.8z"/>
</g>
<g>
	<path fill="#EEE96F" d="M104.5,195.9l4.5,7.1c-3.3,2.4-5.5,6.4-5.5,10.9h-8.3C95.2,206.4,98.9,199.8,104.5,195.9z"/>
	<path fill="#EEE96F" d="M138.5,213.9h-8.3c0-7.4-6-13.4-13.3-13.4c-2.6,0-5.1,0.8-7.2,2.1l-4.5-7.1c0.3-0.2,0.7-0.4,1.1-0.6
		c3.1-1.8,6.7-2.8,10.6-2.8h0c1.9,0,3.7,0.2,5.4,0.7c0.7,0.2,1.4,0.4,2,0.6c0,0,0,0,0,0c1.3,0.5,2.6,1.1,3.8,1.8c0,0,0,0,0,0
		c2.4,1.5,4.5,3.4,6.1,5.6C136.9,204.4,138.5,209,138.5,213.9z"/>
</g>
<g>
	<path fill="#4AAED9" d="M138.5,213.9h-8.3c0-7.4-6-13.4-13.3-13.4c-2.6,0-5.1,0.8-7.2,2.1l-4.5-7.1l0-0.1c0.4-0.2,0.7-0.4,1.1-0.6
		c3.1-1.8,6.7-2.8,10.6-2.8h0c1.9,0,3.7,0.2,5.4,0.7c0.7,0.2,1.4,0.4,2,0.6c0,0,0,0,0,0c1.3,0.5,2.6,1.1,3.8,1.8c0,0,0,0,0,0
		c2.4,1.5,4.5,3.4,6.1,5.6C136.9,204.4,138.5,209,138.5,213.9z"/>
	<path fill="#FFFFFF" d="M128,195.2c2.4,1.5,4.4,3.4,6.1,5.6C132.5,198.6,130.4,196.7,128,195.2z M128,195.2
		c-1.2-0.7-2.5-1.3-3.8-1.8C125.6,193.9,126.8,194.5,128,195.2z M124.2,193.4c-0.7-0.2-1.3-0.5-2-0.6
		C122.9,192.9,123.6,193.1,124.2,193.4z M110.8,193c1.7-0.5,3.5-0.8,6-0.9c-3.8,0-7.4,1-10.6,2.8C108,193.9,109.3,193.4,110.8,193z"
		/>
</g>
<g>
	<path fill="#E1E1E1" d="M76,103.1h186.6c1.4,0,2.5,1.1,2.5,2.5v18.5c0,1.4-1.1,2.5-2.5,2.5H76c-1.4,0-2.5-1.1-2.5-2.5v-18.5
		C73.5,104.2,74.6,103.1,76,103.1z"/>
</g>
<g>
	<path fill="#FFFFFF" d="M159.3,138.5h101.6c1.3,0,2.3,1,2.3,2.3v18.5c0,1.3-1,2.3-2.3,2.3H159.3c-1.3,0-2.3-1-2.3-2.3v-18.5
		C157,139.6,158,138.5,159.3,138.5z"/>
	<path fill="#E1E1E1" d="M260.9,161.8H159.3c-1.4,0-2.5-1.1-2.5-2.5v-18.5c0-1.4,1.1-2.5,2.5-2.5h101.6c1.4,0,2.5,1.1,2.5,2.5v18.5
		C263.4,160.7,262.3,161.8,260.9,161.8z M159.3,138.7c-1.1,0-2.1,0.9-2.1,2.1v18.5c0,1.1,0.9,2.1,2.1,2.1h101.6
		c1.1,0,2.1-0.9,2.1-2.1v-18.5c0-1.1-0.9-2.1-2.1-2.1H159.3z"/>
</g>
<g>
	<path fill="#B3D94A" d="M165.9,143.4h35c0.5,0,0.8,0.4,0.8,0.8v0c0,0.5-0.4,0.8-0.8,0.8h-35c-0.5,0-0.8-0.4-0.8-0.8v0
		C165.1,143.7,165.5,143.4,165.9,143.4z"/>
</g>
<g>
	<path fill="#7EBAE6" d="M165.9,148.4h40c0.5,0,0.8,0.4,0.8,0.8v0c0,0.5-0.4,0.8-0.8,0.8h-40c-0.5,0-0.8-0.4-0.8-0.8v0
		C165.1,148.8,165.5,148.4,165.9,148.4z"/>
</g>
<g>
	<path fill="#7EBAE6" d="M210.9,148.4h11.6c0.5,0,0.8,0.4,0.8,0.8v0c0,0.5-0.4,0.8-0.8,0.8h-11.6c-0.5,0-0.8-0.4-0.8-0.8v0
		C210.1,148.8,210.5,148.4,210.9,148.4z"/>
</g>
<g>
	<path fill="#7EBAE6" d="M165.9,153.4h11.6c0.5,0,0.8,0.4,0.8,0.8l0,0c0,0.5-0.4,0.8-0.8,0.8h-11.6c-0.5,0-0.8-0.4-0.8-0.8l0,0
		C165.1,153.8,165.5,153.4,165.9,153.4z"/>
</g>
<g>
	<path fill="#7EBAE6" d="M182.6,153.4h64.9c0.5,0,0.8,0.4,0.8,0.8l0,0c0,0.5-0.4,0.8-0.8,0.8h-64.9c-0.5,0-0.8-0.4-0.8-0.8l0,0
		C181.8,153.8,182.1,153.4,182.6,153.4z"/>
</g>
<g>
	<path fill="#FFFFFF" d="M159.3,165.4h101.6c1.3,0,2.3,1,2.3,2.3v18.5c0,1.3-1,2.3-2.3,2.3H159.3c-1.3,0-2.3-1-2.3-2.3v-18.5
		C157,166.4,158,165.4,159.3,165.4z"/>
	<path fill="#E1E1E1" d="M260.9,188.7H159.3c-1.4,0-2.5-1.1-2.5-2.5v-18.5c0-1.4,1.1-2.5,2.5-2.5h101.6c1.4,0,2.5,1.1,2.5,2.5v18.5
		C263.4,187.6,262.3,188.7,260.9,188.7z M159.3,165.6c-1.1,0-2.1,0.9-2.1,2.1v18.5c0,1.1,0.9,2.1,2.1,2.1h101.6
		c1.1,0,2.1-0.9,2.1-2.1v-18.5c0-1.1-0.9-2.1-2.1-2.1H159.3z"/>
</g>
<g>
	<path fill="#B3D94A" d="M165.9,170.2h35c0.5,0,0.8,0.4,0.8,0.8v0c0,0.5-0.4,0.8-0.8,0.8h-35c-0.5,0-0.8-0.4-0.8-0.8v0
		C165.1,170.6,165.5,170.2,165.9,170.2z"/>
</g>
<g>
	<path fill="#7EBAE6" d="M165.9,175.3h40c0.5,0,0.8,0.4,0.8,0.8v0c0,0.5-0.4,0.8-0.8,0.8h-40c-0.5,0-0.8-0.4-0.8-0.8v0
		C165.1,175.6,165.5,175.3,165.9,175.3z"/>
</g>
<g>
	<path fill="#7EBAE6" d="M210.9,175.3h11.6c0.5,0,0.8,0.4,0.8,0.8v0c0,0.5-0.4,0.8-0.8,0.8h-11.6c-0.5,0-0.8-0.4-0.8-0.8v0
		C210.1,175.6,210.5,175.3,210.9,175.3z"/>
</g>
<g>
	<path fill="#7EBAE6" d="M165.9,180.3h11.6c0.5,0,0.8,0.4,0.8,0.8v0c0,0.5-0.4,0.8-0.8,0.8h-11.6c-0.5,0-0.8-0.4-0.8-0.8v0
		C165.1,180.7,165.5,180.3,165.9,180.3z"/>
</g>
<g>
	<path fill="#7EBAE6" d="M182.6,180.3h64.9c0.5,0,0.8,0.4,0.8,0.8v0c0,0.5-0.4,0.8-0.8,0.8h-64.9c-0.5,0-0.8-0.4-0.8-0.8v0
		C181.8,180.7,182.1,180.3,182.6,180.3z"/>
</g>
<g>
	<path fill="#FFFFFF" d="M159.3,192.2h101.6c1.3,0,2.3,1,2.3,2.3v18.5c0,1.3-1,2.3-2.3,2.3H159.3c-1.3,0-2.3-1-2.3-2.3v-18.5
		C157,193.3,158,192.2,159.3,192.2z"/>
	<path fill="#E1E1E1" d="M260.9,215.5H159.3c-1.4,0-2.5-1.1-2.5-2.5v-18.5c0-1.4,1.1-2.5,2.5-2.5h101.6c1.4,0,2.5,1.1,2.5,2.5v18.5
		C263.4,214.4,262.3,215.5,260.9,215.5z M159.3,192.5c-1.1,0-2.1,0.9-2.1,2.1v18.5c0,1.1,0.9,2.1,2.1,2.1h101.6
		c1.1,0,2.1-0.9,2.1-2.1v-18.5c0-1.1-0.9-2.1-2.1-2.1H159.3z"/>
</g>
<g>
	<path fill="#EE6F6F" d="M165.9,197.1h35c0.5,0,0.8,0.4,0.8,0.8v0c0,0.5-0.4,0.8-0.8,0.8h-35c-0.5,0-0.8-0.4-0.8-0.8v0
		C165.1,197.4,165.5,197.1,165.9,197.1z"/>
</g>
<g>
	<path fill="#7EBAE6" d="M165.9,202.1h40c0.5,0,0.8,0.4,0.8,0.8v0c0,0.5-0.4,0.8-0.8,0.8h-40c-0.5,0-0.8-0.4-0.8-0.8v0
		C165.1,202.5,165.5,202.1,165.9,202.1z"/>
</g>
<g>
	<path fill="#7EBAE6" d="M210.9,202.1h11.6c0.5,0,0.8,0.4,0.8,0.8v0c0,0.5-0.4,0.8-0.8,0.8h-11.6c-0.5,0-0.8-0.4-0.8-0.8v0
		C210.1,202.5,210.5,202.1,210.9,202.1z"/>
</g>
<g>
	<path fill="#7EBAE6" d="M165.9,207.1h11.6c0.5,0,0.8,0.4,0.8,0.8v0c0,0.5-0.4,0.8-0.8,0.8h-11.6c-0.5,0-0.8-0.4-0.8-0.8v0
		C165.1,207.5,165.5,207.1,165.9,207.1z"/>
</g>
<g>
	<path fill="#7EBAE6" d="M182.6,207.1h64.9c0.5,0,0.8,0.4,0.8,0.8v0c0,0.5-0.4,0.8-0.8,0.8h-64.9c-0.5,0-0.8-0.4-0.8-0.8v0
		C181.8,207.5,182.1,207.1,182.6,207.1z"/>
</g>
<g>
	<rect x="23.5" y="96.4" fill="#353535" width="45" height="137.6"/>
</g>
<g>
	<line fill="#FFFFFF" x1="36.7" y1="106.9" x2="62.4" y2="106.9"/>
	<path fill="#FFFFFF" d="M62.4,107.3H36.7c-0.2,0-0.4-0.2-0.4-0.4c0-0.2,0.2-0.4,0.4-0.4h25.7c0.2,0,0.4,0.2,0.4,0.4
		C62.8,107.1,62.6,107.3,62.4,107.3z"/>
</g>
<g>
	<line fill="#FFFFFF" x1="36.7" y1="116.4" x2="62.4" y2="116.4"/>
	<path fill="#FFFFFF" d="M62.4,116.8H36.7c-0.2,0-0.4-0.2-0.4-0.4c0-0.2,0.2-0.4,0.4-0.4h25.7c0.2,0,0.4,0.2,0.4,0.4
		C62.8,116.6,62.6,116.8,62.4,116.8z"/>
</g>
<g>
	<rect x="32.8" y="122.8" fill="#24A8E2" width="35.7" height="6"/>
</g>
<g>
	<path fill="#24A8E2" d="M30,112h-3.4c-1.2,0-2.2-1-2.2-2.2V107c0-1.2,1-2.2,2.2-2.2H30c1.2,0,2.2,1,2.2,2.2v2.8
		C32.1,111,31.2,112,30,112z"/>
</g>
<g>
	<line fill="#FFFFFF" x1="36.7" y1="125.9" x2="62.4" y2="125.9"/>
	<path fill="#FFFFFF" d="M62.4,126.3H36.7c-0.2,0-0.4-0.2-0.4-0.4c0-0.2,0.2-0.4,0.4-0.4h25.7c0.2,0,0.4,0.2,0.4,0.4
		C62.8,126.2,62.6,126.3,62.4,126.3z"/>
</g>
</svg>
