<?xml version="1.0" encoding="utf-8"?>
<!-- Generator: Adobe Illustrator 21.0.2, SVG Export Plug-In . SVG Version: 6.00 Build 0)  -->
<svg version="1.1" id="Layer_1" xmlns="http://www.w3.org/2000/svg" xmlns:xlink="http://www.w3.org/1999/xlink" x="0px" y="0px"
	 viewBox="0 0 1000 1000" enable-background="new 0 0 1000 1000" xml:space="preserve">
<g>
	<path d="M953.6,307.8c-59.1-59.1-127.9-105.5-204.5-137.8c-79.4-33.6-163.6-50.6-250.4-50.6s-171.1,17-250.4,50.6
		c-76.6,32.4-145.4,78.8-204.5,137.8c-5.9,5.9-11.7,12-17.4,18.1c-20.5,22.1-20.9,56.2-1.1,79l0,0c21.4,24.7,59.5,25.1,81.5,0.9
		c5.5-6.1,11.2-12.1,17.1-17.9c48.7-48.7,105.4-86.9,168.5-113.6c65.3-27.6,134.7-41.6,206.3-41.6s141,14,206.3,41.6
		c63.1,26.7,119.8,64.9,168.5,113.6c7.1,7.1,13.9,14.3,20.6,21.8c21.7,24.2,59.7,24,81.1-0.4l0,0c20-22.8,19.8-57.1-0.7-79.6
		C967.7,322.2,960.7,314.9,953.6,307.8z"/>
	<path d="M761.3,500.1c-70.2-70.1-163.4-108.8-262.6-108.8S306.2,429.9,236,500.1c-11,11-21.2,22.6-30.7,34.7
		c-18.6,23.8-17.6,57.4,2.2,80.2l0,0c22.1,25.4,62.2,23.9,82-3.4c46.9-64.8,123.2-106.9,209.1-106.9c86,0,162.4,42.3,209.3,107.2
		c20.7,28.6,62.4,30.7,85.7,4.2l0,0c18.6-21.2,19.9-52.5,3-75.1C786,526.6,774.2,512.9,761.3,500.1z"/>
	<path d="M600.6,760.8c1.1,57.9-46,105-103.9,103.9c-54.5-1-99-45.5-100-100c-1.1-57.9,46-105,103.9-103.9
		C555.1,661.7,599.6,706.2,600.6,760.8z"/>
</g>
</svg>
